<svg xmlns="http://www.w3.org/2000/svg" version="1.1" viewbox="0 -20 1240 697" preserveaspectratio="xMidYMid slice" id="svgP">
<g id="P114" class="small-box dap">
<path class="st1" d="M434,174.2l16.5,16.7l-0.6,21.1l4.1,2.3l1.4-1.5l1.4-4.3l7.2,3.6l3.7-7l-1.4-1.2l1.8-4.3l4,1.8l1.9-4.7h-1&#10;&#9;&#9;l0.3-6.9c0,0,0.6-1.1,1.5-1.4c1-0.3,12.8,0.4,12.8,0.4l7.4,15.8l4.5-3.9l2.5-0.4l-2.2-2.6l-2.3-8.7l3.8-2.2l-0.4-0.4l-0.4-1.7&#10;&#9;&#9;l1.7-2.8l1.9,1.4l1.9-3.3l-2.6-1.1l3.2-3.4l-4.1-2.6l-0.1-3.4l-2.6-0.5l0.3-8.4l-3.2-14.9l0.1-10.2l-7.3-0.4l-0.3-6.2l-6.6-0.6&#10;&#9;&#9;l-0.3,1.8l-10.5-0.3l0.1-4.4l-13.1,1.4l1.5-2.2l-1.4-3.2l1.8-0.3l0.3-2.8l-0.4-1l-0.4,0.8l-0.2,0.5l-9.9,1l-9.6,7.7v4.3l5.6,6&#10;&#9;&#9;l1,6.7l-6.9,9.3l-2.6-0.7l-2.3,1.3l-1,5.7l-5.3,4.3l-3.4,4.9l-0.5,0.7l5.7,1.2L434,174.2z"/>
</g>
<g id="P115" class="small-box ind">
<path class="st1" d="M590.9,209.9l-1-5.1l-12.1,2.2l-0.8-0.3c2.2-8.5-2.5-16.7-2.5-16.7l-2.8-0.6l-10.5,3.3l-3.3,0.1l-1-1.9h1.7&#10;&#9;&#9;l6.7-4.8l4-4.4l-6.5-12.7l2.1-27.5l6.8-8.7l0.1-4.5l-7.6-2.7l-44.6,3l-1.7-3.7l2.6-5.3l-6.9-13.7l-6.3-8l-4.3-6.3l-6.9,3l-2.6,3.7&#10;&#9;&#9;l-6.6,2.7l-2,8l-5.6,0.3l-0.7,4.7l-8.3,1l-7.6-1.3l-1.7,3.7l0.4,1l-0.3,2.8l-1.8,0.3l1.4,3.2l-1.5,2.2l13.1-1.4l-0.1,4.4l10.5,0.3&#10;&#9;&#9;l0.3-1.8l6.6,0.6l0.3,6.2l7.3,0.4l-0.1,10.2l3.2,14.9l-0.3,8.4l2.6,0.5l0.1,3.4l4.1,2.6l-3.2,3.4l2.6,1.1l-1.9,3.3l-1.9-1.4&#10;&#9;&#9;l-1.7,2.8l0.4,1.7l0.4,0.4l0.9,0.9l3.2,1.2l-0.3,2.9l5.8,1.7l1.5-4.5l3.6-2.8l3.2,4.5l2.6-2.1l3.2,4.1l1.5-0.8l0.4,1.2l1.7-1&#10;&#9;&#9;l1.9,1.7l0.5,2.9l-0.5,1.2l2.2,6.1l3.2,2.3l0.8,5.1l2.3,4.1l-2.3,7.8c-1.5,5.2,3.9,6.6,3.9,6.6l13.9,11l3.7,4.3l7.9,6.6l0.2-0.2&#10;&#9;&#9;c0,0,1.7-3.2,1.2-5.1c-0.4-1.9-2.1-5.4-2.1-5.4l0.3-2.3l8.7-1.9l2.4-5.7l1.5-3.5v-6.3l2.3,2.3l1.9,0.1l-0.8-3.3l1.9-4.5&#10;&#9;&#9;L590.9,209.9z"/>
</g>
<g id="P116" class="small-box pkr">
<path class="st1" d="M562.9,169.1l6.5,12.7l-4,4.4l-6.7,4.8h-1.7l1,1.9l3.3-0.1l10.5-3.3l2.8,0.6c0,0,4.7,8.1,2.5,16.7l0.8,0.3&#10;&#9;&#9;l12.1-2.2l1,5.1l34.3-29.4l8.4,11.8c0,0,5.4-6.1,11.7-2.9l10-5.4c0,0,3.6,6.7,3.3,9.2l7.8-1.9l7.3-7l3.7,4.3h5.1v-7.1l-0.7-0.3&#10;&#9;&#9;l-4.6-12.5l-9.9-12.3l-5-1.3l1.7-4v-10.7l4.3-3.7l2.3-3.3l3-4l-7.6-10l-18.8,1.3l-3.6-2.3l-25.1,24l-0.7,8l-4.3,0.3l-3,2.7v3.7&#10;&#9;&#9;l4.6-0.7l-4.3,5.7l-4-4l-5.3-2l-1.7-2l-3.3,2.3l-5-2.3h-7.9h-1.4l-0.7-14.6h-10.2l0.2-6.5l-6.8,8.7L562.9,169.1z"/>
</g>
<g id="P117" class="small-box dap">
<path class="st1" d="M466.6,336.8l6.3-5c0,0,2.8-2.2,8.4-5.2c5.6-3,4.7-2.8,5-3.6c0.3-0.8,3.7-9.6,8-12.4l3.6-1.4l2.8-2.2l-0.6-2.5&#10;&#9;&#9;l3.2-1.1c0,0,2.9,1.1,2.3,0.3c-0.6-0.8-0.6-0.8-0.6-0.8s1.5-2.5,3.3-2.2l-0.1,3.2l1,0.1l2.8-1.1l1,0.5l-0.3,1.7l1.1,2.5l2.8-1.4&#10;&#9;&#9;l2.8,1.9l1.2-0.6l-0.1-1.9l3.6-1.1l1.7,5.8l2.2,0.4l0.8-1.1l2.6,2.5l0.1-6.1l3-2.2l1.7-5c0,0,7.4,4,11.1-1.1l4.3-2.5l5-0.7l5.8,0.1&#10;&#9;&#9;c0.1-0.2,0.1-0.4,0.2-0.6c2.2-7.7,2.9-8.9,2.9-8.9s1-8.3-4.1-11.3l0.6-5.9c0,0,4-3,1-11.4l3.5-4.6l-7.9-6.6l-3.7-4.3l-13.9-11&#10;&#9;&#9;c0,0-5.4-1.4-3.9-6.6l2.3-7.8l-2.3-4.1l-0.8-5.1l-3.2-2.3l-2.2-6.1l0.5-1.2l-0.5-2.9l-1.9-1.7l-1.7,1l-0.4-1.2l-1.5,0.8l-3.2-4.1&#10;&#9;&#9;l-2.6,2.1l-3.2-4.5l-3.6,2.8l-1.5,4.5l-5.8-1.7l0.3-2.9l-3.2-1.2l-0.9-0.9l-3.8,2.2l2.3,8.7l2.2,2.6l-2.5,0.4l-4.5,3.9l-7.4-15.8&#10;&#9;&#9;c0,0-11.8-0.7-12.8-0.4c-1,0.3-1.5,1.4-1.5,1.4l-0.3,6.9h1l-1.9,4.7l-4-1.8l-1.8,4.3l1.4,1.2l-3.7,7l-7.2-3.6l-1.4,4.3l-1.4,1.5&#10;&#9;&#9;l-4.1-2.3l0.6-21.1L434,174.2l-2.9-3l-5.7-1.2l-2.1,3l-7.3,16.3l-7.6,5l-5.6-0.3l-1,8l2.6,8l-1.3,21l2.3,4.3l-2.3,8l-4.3,10.7&#10;&#9;&#9;l-2.6,8.7l1,7l-3.3,8.7l-0.3,13.7l6.3,6.3l5.3,9.7l6.9,5.3l6,2.3l4,6.7l2.6,2.7l0.3,13.3l9.3-0.7l5-2.3l4.6,3.3l7.9,1.3l3.6,4.3&#10;&#9;&#9;l4.5,0.2l2.7-2.6L466.6,336.8z"/>
</g>
<g id="P118" class="small-box pkr">
<path class="st1" d="M705.2,217.3l-1.8-8.1l-1.7-3.8l-1.3-9.9L695,188l-6.1-0.2l-1.3-4.2l-4.5-1.9l-0.5-0.2v7.1h-5.1l-3.7-4.3&#10;&#9;&#9;l-7.3,7l-7.8,1.9c0.3-2.5-3.3-9.2-3.3-9.2l-10,5.4c-6.3-3.2-11.7,2.9-11.7,2.9l-8.4-11.8l-34.3,29.4l-7.2,6.2l-1.9,4.5l0.8,3.3&#10;&#9;&#9;l-1.9-0.1l-2.3-2.3v6.3l-1.5,3.5c1.4,0.4,2.7,0.9,2.7,0.9l-1.4,4l-0.6,8l3.7,1l12.3,2.5c0,0,12.5,8.1,13.2,10.3l3.7-0.1l12.3-16.9&#10;&#9;&#9;l3,0.4l11,8.1l4.7-1.7h5.4l-0.3-1.5l2.6-3l-0.7-6.7l16.5,1l4.3,2.3l3.6,1.7l12.9,1l4.3-2.3l1-3.7l5.3-3.7l4.3-6.3l-0.7-3l2.6-2&#10;&#9;&#9;L705.2,217.3z"/>
</g>
<g id="P119" class="small-box ppbm">
<path class="st1" d="M683.6,278.2l2.3-2.7l-11.9-4.3l-7.9,0.3l-3-2l-9.9-1.7l-2-5.7l1.7-5.7l-1.3-4.3l-4-1.7l-0.1-0.3l-0.6-2.5&#10;&#9;&#9;h-5.4l-4.7,1.7l-11-8.1l-3-0.4l-12.3,16.9l-3.7,0.1c-0.7-2.2-13.2-10.3-13.2-10.3l-12.3-2.5l-3.7-1l0.6-8l1.4-4&#10;&#9;&#9;c0,0-1.3-0.4-2.7-0.9l-2.4,5.7l-8.7,1.9l-0.3,2.3c0,0,1.7,3.4,2.1,5.4c0.4,1.9-1.2,5.1-1.2,5.1l-0.2,0.2l8.6,7.1l-0.7,7.3l2.5,0.1&#10;&#9;&#9;l2.2,4.7l4.4,1.7l-3.6,10.9l2.2,1.2c0.6-2.1,6.3-2.3,6.3-2.3s10.5-5.6,12.4-6.7c1.9-1.1,7,1.2,7,1.2l6.5-3.3l7.3,0.6l6.3,16.1v10.9&#10;&#9;&#9;l-5,13.5l0,0.1l-6.8,22.9l3.2,2.2l1.8-5.1l7.2,2.9l3.2,5.1l1.2-4.7l6.3,1.2l3.7,10.6l18.1-10.2l-3.1-8.6l-2.3-1.1l-1-3l0.8-4.5&#10;&#9;&#9;l8.3-8.7v-5.7l1.7-5l1-7l4.3-0.3l8.3,3l0.3-8l5.6-1.7l2.3-8.7L683.6,278.2z"/>
</g>
<g id="P120" class="small-box dap">
<path class="st1" d="M621.2,274.3l-7.3-0.6l-6.5,3.3c0,0-5.1-2.3-7-1.2c-1.9,1.1-12.4,6.7-12.4,6.7s-5.8,0.3-6.3,2.3l-2.2-1.2&#10;&#9;&#9;l3.6-10.9l-4.4-1.7l-2.2-4.7l-2.5-0.1l0.7-7.3l-8.6-7.1l-3.5,4.6c3,8.4-1,11.4-1,11.4l-0.6,5.9c5.1,3,4.1,11.3,4.1,11.3&#10;&#9;&#9;s-0.7,1.2-2.9,8.9c-0.1,0.2-0.1,0.4-0.2,0.6c-1.8,7.3,1.7,11.2,1.7,11.2l-0.8,2.8c-1,3.6,0,7.2,0,7.2s-1.1,3.6-1.1,4.5&#10;&#9;&#9;c0,1-3.9,2.1-3.9,2.1l-11.3,1.8l-3,4.7l-14,19.8c0,0,2.2,12.7,2.6,17.1c0.2,2.5-0.2,5-0.6,6.6l0.3,0c0.8,2.3,9.5,4.8,9.5,4.8&#10;&#9;&#9;s5.8,0.4,7.4,0.6c1.7,0.2,6.6,2.9,6.6,2.9l18.6,15.7c-12.4,12.4-3.5,33.4-3.5,33.4l-5.2,0.4L564,432l6.4,7.4l2.5,3.1&#10;&#9;&#9;c8.7-1.9,11.4,7.2,11.4,7.2c0.2,0.1,0.4,0.2,0.6,0.3l1.6-4.8l3.9-3.3l14.9,1.4l0.6,2.8l4.1-2.2c0,0,1.7-6.9-2.5-8&#10;&#9;&#9;c-4.1-1.1-6.9-3.6-6.9-3.6l-1.1-11.6l-1.4-6.1l-7.7-5.5l1.7-12.9l3-1.4l16.9-21.6l-4.2-0.2l-2.2,2.2l-7.6-7.8l-1.8-0.3l0.4-5.6&#10;&#9;&#9;l-3.4,1l-5.4-3.2c0,0-5.9-10.3-13.5-10.7l6.7-5.8l1.2-9.2l3.4-6.2l0.3-1.9l2.1-4.5l4.4,4.1l5.5-1.9l3.4,3.2l1.2-1.1l4.3,5.5&#10;&#9;&#9;l2.8-2.6l-3.7-4.3l13.2-10.7l3.5,1.8l0-0.1l5-13.5v-10.9L621.2,274.3z"/>
</g>
<g id="P121" class="small-box pkr">
<path class="st1" d="M487.4,455.3l6.4-1.2l5.8-6.8v-5.8l6.8,2.3c0,0,9.5-5.8,11.1-7c1.7-1.2,2.5-2.9,2.5-2.9l3.1-13.4l-5.2-4.3&#10;&#9;&#9;l1.9-7l2.1-2.7c3.9-1.9,1.7-9.9,1.7-9.9l2.7-11.4l-2.1-10.1l-0.4-3.5l8,1c0.4-1.7,0.9-4.1,0.6-6.6c-0.4-4.4-2.6-17.1-2.6-17.1&#10;&#9;&#9;l14-19.8l3-4.7l11.3-1.8c0,0,3.9-1.1,3.9-2.1c0-1,1.1-4.5,1.1-4.5s-1-3.6,0-7.2l0.8-2.8c0,0-3.5-3.9-1.7-11.2l-5.8-0.1l-5,0.7&#10;&#9;&#9;l-4.3,2.5c-3.7,5.1-11.1,1.1-11.1,1.1l-1.7,5l-3,2.2l-0.1,6.1l-2.6-2.5l-0.8,1.1l-2.2-0.4l-1.7-5.8l-3.6,1.1l0.1,1.9l-1.2,0.6&#10;&#9;&#9;l-2.8-1.9l-2.8,1.4l-1.1-2.5l0.3-1.7l-1-0.5l-2.8,1.1l-1-0.1l0.1-3.2c-1.8-0.3-3.3,2.2-3.3,2.2s0,0,0.6,0.8&#10;&#9;&#9;c0.5,0.8-2.3-0.3-2.3-0.3l-3.2,1.1l0.6,2.5l-2.8,2.2l-3.6,1.4c-4.3,2.8-7.7,11.6-8,12.4c-0.3,0.8,0.7,0.5-5,3.6&#10;&#9;&#9;c-5.6,3-8.4,5.2-8.4,5.2l-6.3,5l-4,5l-2.7,2.6l0.3,0l2.5,0.1l2.6,3.3l-4.3,7.3l-5.6,5.7l1.3,3l10.6,1.3l3,5.3l4.6,12l12.2-8&#10;&#9;&#9;l-2.3,8.3l3,1l4,19.6l-2.6,4l0.7,6.3l-2.3,1.3l1.3,6l2.6,2l6.3,7.7l0.3,2.3l-8.9,4l-0.3,3.3l3.6,0.7l-4.3,3.7l-0.7,2.7l-7.9,4.3&#10;&#9;&#9;l-17.5,13.7l1.7,2l7.3,3l6.7-5.1C478.1,460.9,487.4,455.3,487.4,455.3z"/>
</g>
<g id="P122" class="small-box dap">
<path class="st1" d="M587.7,463.6h-1.4l-1.2-5c0,0,4.2-5.7-0.2-8.5c-0.2-0.1-0.4-0.2-0.6-0.3c0,0-2.7-9.1-11.4-7.2l-2.5-3.1&#10;&#9;&#9;L564,432l1.4-1.7l5.2-0.4c0,0-8.9-21.1,3.5-33.4l-18.6-15.7c0,0-5-2.7-6.6-2.9c-1.7-0.2-7.4-0.6-7.4-0.6s-8.7-2.5-9.5-4.8l-0.3,0&#10;&#9;&#9;l-8-1l0.4,3.5l2.1,10.1l-2.7,11.4c0,0,2.3,8.1-1.7,9.9l-2.1,2.7l-1.9,7l5.2,4.3l-3.1,13.4c0,0-0.8,1.7-2.5,2.9&#10;&#9;&#9;c-1.7,1.2-11.1,7-11.1,7l-6.8-2.3v5.8l-5.8,6.8l-6.4,1.2c0,0-9.3,5.6-9.7,9.9l-6.7,5.1l0,0l0.3,5.3l-4.8,8.7l1.7,2.7l1.7,4&#10;&#9;&#9;l-2.3,2.3l0.3,1.3l3.6,1l3.3-2.7l3,3l5.3-3l4,1l3.3-0.6l0.3-0.1l0.1,1.6l0.2,4.3l-1.7,15l-4.6-3l-5.3,0.7l-1.3-3l-5,5.3l-1.7,4.7&#10;&#9;&#9;l38.5,1l-1.7,11.7l6-3.3l7.9,0.3l5.3,1.7l5.3-0.7l16.2-8.3l6,5l5-3l5,0.7l5.3-1.7l4.6-1.3l2.3-5.7l12.9-1v0.4l1-1.4l1-13.4&#10;&#9;&#9;l2.1-16.1L587.7,463.6z"/>
</g>
<g id="P123" class="small-box dap">
<path class="st1" d="M693.2,393.1l-5-6l-8.3-4.3l-7.9-1l-1,1.3l-5,1l-6.6-10.3l-1-5l3.7-5.3l3.7-11.8l-4.4-9.1l-1-2.8L642.3,350&#10;&#9;&#9;l-3.7-10.6l-6.3-1.2l-1.2,4.7l-3.2-5.1l-7.2-2.9l-1.8,5.1l-3.2-2.2l6.8-22.9l-3.5-1.8l-13.2,10.7l3.7,4.3l-2.8,2.6l-4.3-5.5&#10;&#9;&#9;l-1.2,1.1l-3.4-3.2l-5.5,1.9l-4.4-4.1l-2.1,4.5l-0.3,1.9l-3.4,6.2l-1.2,9.2l-6.7,5.8c7.6,0.4,13.5,10.7,13.5,10.7l5.4,3.2l3.4-1&#10;&#9;&#9;l-0.4,5.6l1.8,0.3l7.6,7.8l2.2-2.2l4.2,0.2l1.9-2.4c0,0,0.8-11.8-1.4-16c0,0,7.2,7.2,11,5.5l3.3,2.8l12.7-6.6c0,0-4.1,14,6.3,34.7&#10;&#9;&#9;l-1.9,1.4l1.7,5l-3.6,2.5L639,396l-3.6,1.9l6.1,14.3l-7.7-1.7l-3,10.2l1.9,1.4l-1.1,2.8h-4.4l-0.3,3l-3,0.3v2.8l3.9,0.6l0.3-1.7&#10;&#9;&#9;l13.2-0.3l1.1,24l23.4-3.6l0.5,1.9l3.3-0.6l1.9-2.5l5,1.1l0.5-5.6l-0.8-3.3l-0.2-0.7l-1.7-2l0.3-4l12.9-13l3.6-9.7l-4-9.7l5.6-5&#10;&#9;&#9;L693.2,393.1z"/>
</g>
<g id="P124" class="small-box pkr">
<path class="st1" d="M684.2,462.3l-1.7-3.3l1.3-1.7V456l-3.3-1l-1-5.3l-2.6-5.3l-0.5,5.6l-5-1.1l-1.9,2.5l-3.3,0.6l-0.5-1.9&#10;&#9;&#9;l-23.4,3.6l-1.1-24l-13.2,0.3l-0.3,1.7l-3.9-0.6v-2.8l3-0.3l0.3-3h4.4l1.1-2.8l-1.9-1.4l3-10.2l7.7,1.7l-6.1-14.3l3.6-1.9l2.8,4.1&#10;&#9;&#9;l3.6-2.5l-1.7-5l1.9-1.4c-10.5-20.6-6.3-34.7-6.3-34.7l-12.7,6.6l-3.3-2.8c-3.9,1.6-11-5.5-11-5.5c2.2,4.1,1.4,16,1.4,16l-1.9,2.4&#10;&#9;&#9;l-16.9,21.6l-3,1.4l-1.7,12.9l7.7,5.5l1.4,6.1l1.1,11.6c0,0,2.8,2.5,6.9,3.6c4.1,1.1,2.5,8,2.5,8l-4.1,2.2l-0.6-2.8l-14.9-1.4&#10;&#9;&#9;l-3.9,3.3l-1.6,4.8c4.4,2.8,0.2,8.5,0.2,8.5l1.2,5h1.4l6.4,20.2l-2.1,16.1l-1,13.4l-1,1.4v4.9h4.3l2.3-8.3l3.6-6.7l4,0.3l4.3-1&#10;&#9;&#9;l-1.3,3.7l2.3,2.3l0.7,3.7l2.3,0.3l0.3,2.7l2.6,1.3l3.3,0.7l3,13.6l4-0.3l2.6,3.7v5l-4,0.7v7l4.6-1.3l9.3-8.7l4.6,4v-42l41.7,1.3&#10;&#9;&#9;L684.2,462.3z"/>
</g>
<g id="P125" class="small-box bn">
<polygon class="st1" points="819.3,148.5 818.6,147.9 817,148.2 817,150.8 816.4,151.6 815.1,152.2 814.8,152.9 812.9,152.8 &#10;&#9;&#9;&#9;811.9,154.8 807.4,155.4 804.7,156.3 798.6,159.6 797.4,160.2 793.2,161.6 790.9,162 789.5,161.2 786.7,160.5 782.4,160.5 &#10;&#9;&#9;&#9;782.1,161.2 779.6,160.7 776.7,161.8 775.1,163.1 774.1,163.1 773.1,163.5 772.4,164.5 770.3,165.8 769.2,167 767.2,168.8 &#10;&#9;&#9;&#9;767.7,173.3 769.8,177.4 771.5,177.9 773.1,179.4 775.1,179.5 780.8,184.6 780.3,188.9 779,189.6 772.8,189.9 769.8,192 &#10;&#9;&#9;&#9;772.4,194.7 774.3,198.5 773.8,202.1 772.4,206.3 773.4,208.1 773.7,209.6 774.8,210.3 774.8,211.5 776.4,212.5 777.1,214.4 &#10;&#9;&#9;&#9;778.2,215.9 777.4,217.5 778.3,219.4 777.9,220.4 778.2,221.7 777.4,223.9 774.8,223.6 774.8,226.1 775.3,228.8 773.7,230.3 &#10;&#9;&#9;&#9;770.8,230.5 769.6,231.7 768.7,231.3 767.9,234.2 767.7,236.5 764.5,239.4 764.1,242.7 766.9,252.1 768,252.9 768.2,254 &#10;&#9;&#9;&#9;767.2,255.8 767.3,257.6 770.8,264.2 777,259.4 777.4,263.2 780.8,267.8 781.4,264.9 781.2,263.8 781.8,263.6 781.8,262.3 &#10;&#9;&#9;&#9;782.8,262.3 785.3,264.2 786.6,263.6 787.9,263.5 787.9,261.5 792.1,261.5 792.8,258.1 794.5,258.4 795.4,254.2 795.8,253.1 &#10;&#9;&#9;&#9;796.4,250.8 798.4,248.6 801.5,249 802.8,249.2 807.1,248 807,243 810.5,241.5 811.8,239.4 811,235 806.8,233.6 806.8,230.7 &#10;&#9;&#9;&#9;809.9,230.7 810.5,226.5 817.9,226.5 818.3,215.1 818.1,208.3 826.5,208.3 827,208.7 846.4,208.7 846.4,181.4 844.4,179.4 &#10;&#9;&#9;&#9;827,179.2 827,169.4 826.1,169.7 825.2,169.3 824.4,170.6 823.6,171.4 822.1,172.2 820.8,171.4 819.6,171.6 819.6,170.1 &#10;&#9;&#9;&#9;812.9,170.1 812.9,166.2 811.5,164.8 809.5,164.5 809.2,160.7 811.9,157.7 814.1,156 817,153.8 818.9,151.3 818.6,149.2 &#9;&#9;"/>
<polygon class="st1" points="819.3,148.5 818.6,147.9 817,148.2 817,150.8 816.4,151.6 815.1,152.2 814.8,152.9 812.9,152.8 &#10;&#9;&#9;&#9;811.9,154.8 807.4,155.4 804.7,156.3 798.6,159.6 797.4,160.2 793.2,161.6 790.9,162 789.5,161.2 786.7,160.5 782.4,160.5 &#10;&#9;&#9;&#9;782.1,161.2 779.6,160.7 776.7,161.8 775.1,163.1 774.1,163.1 773.1,163.5 772.4,164.5 770.3,165.8 769.2,167 767.2,168.8 &#10;&#9;&#9;&#9;767.7,173.3 769.8,177.4 771.5,177.9 773.1,179.4 775.1,179.5 780.8,184.6 780.3,188.9 779,189.6 772.8,189.9 769.8,192 &#10;&#9;&#9;&#9;772.4,194.7 774.3,198.5 773.8,202.1 772.4,206.3 773.4,208.1 773.7,209.6 774.8,210.3 774.8,211.5 776.4,212.5 777.1,214.4 &#10;&#9;&#9;&#9;778.2,215.9 777.4,217.5 778.3,219.4 777.9,220.4 778.2,221.7 777.4,223.9 774.8,223.6 774.8,226.1 775.3,228.8 773.7,230.3 &#10;&#9;&#9;&#9;770.8,230.5 769.6,231.7 768.7,231.3 767.9,234.2 767.7,236.5 764.5,239.4 764.1,242.7 766.9,252.1 768,252.9 768.2,254 &#10;&#9;&#9;&#9;767.2,255.8 767.3,257.6 770.8,264.2 777,259.4 777.4,263.2 780.8,267.8 781.4,264.9 781.2,263.8 781.8,263.6 781.8,262.3 &#10;&#9;&#9;&#9;782.8,262.3 785.3,264.2 786.6,263.6 787.9,263.5 787.9,261.5 792.1,261.5 792.8,258.1 794.5,258.4 795.4,254.2 795.8,253.1 &#10;&#9;&#9;&#9;796.4,250.8 798.4,248.6 801.5,249 802.8,249.2 807.1,248 807,243 810.5,241.5 811.8,239.4 811,235 806.8,233.6 806.8,230.7 &#10;&#9;&#9;&#9;809.9,230.7 810.5,226.5 817.9,226.5 818.3,215.1 818.1,208.3 826.5,208.3 827,208.7 846.4,208.7 846.4,181.4 844.4,179.4 &#10;&#9;&#9;&#9;827,179.2 827,169.4 826.1,169.7 825.2,169.3 824.4,170.6 823.6,171.4 822.1,172.2 820.8,171.4 819.6,171.6 819.6,170.1 &#10;&#9;&#9;&#9;812.9,170.1 812.9,166.2 811.5,164.8 809.5,164.5 809.2,160.7 811.9,157.7 814.1,156 817,153.8 818.9,151.3 818.6,149.2 &#9;&#9;"/>
</g>
<g id="P166" class="small-box bn">
<polygon class="st4" points="793.5,420.1 795.2,420.1 795.5,418.6 794.4,417.9 793.8,416.8 793.7,415.6 791.5,417.3 788.4,418.1 &#10;&#9;&#9;&#9;787.7,417.8 785.4,419.6 785.3,421.3 781.9,424.4 777.7,428.7 777,430.9 773.9,432.6 774.1,433.6 773.5,434.9 772.9,435.9 &#10;&#9;&#9;&#9;772.6,437.7 771,439.3 769.6,441.9 769.6,443 768,446.6 766.5,447.3 764.2,453.2 764.9,455.9 764.7,457.7 762.7,460.5 &#10;&#9;&#9;&#9;762.6,462.1 760.6,464 759.3,466.5 759,468.6 762,469.7 764.3,468 765.5,466.6 764.7,465.9 766.4,464.8 768,463.2 771.2,461.3 &#10;&#9;&#9;&#9;772.5,458.4 775.2,458.6 776.4,457.8 777.8,457.9 778.5,458.4 779.5,457.7 780.1,458.7 781.8,459.2 782.7,459.9 782.9,461.5 &#10;&#9;&#9;&#9;783.9,463.1 783.8,464.9 787,467.7 789.7,471.9 790.5,470.7 791.4,469.1 792.1,467.5 792,466.3 789.5,465.4 788.9,463.8 &#10;&#9;&#9;&#9;788.7,462.4 789.2,461.4 788.4,460.3 787.7,458.8 787.5,456.2 788.4,454.9 789.7,456.2 789.1,457.5 790.2,458.9 792.1,459.5 &#10;&#9;&#9;&#9;794.3,460.2 795.7,459.7 797,458.1 798.4,455.7 799.8,454.8 800.2,454.2 799,451.9 797.9,449.9 796.6,447.8 794.2,443.4 &#10;&#9;&#9;&#9;793.5,442.9 793.3,441.2 793.5,439.7 792.6,437.1 792.4,435 790.9,433 790.5,430.6 790.9,428.6 790.8,425.4 792,424 792.1,421.9 &#10;&#9;&#9;&#9;793.2,421.3 &#9;&#9;"/>
<polygon class="st4" points="819.7,457.9 817.2,456.6 815.3,458.6 814.2,460.9 814.9,461.3 816.7,461.7 818.4,461.9 821.1,463.1 &#10;&#9;&#9;&#9;821.5,462.4 821.9,459.9 820.9,459.1 821.4,457.7 &#9;&#9;"/>
<polygon class="st4" points="750.7,476.9 749.1,477.3 746.8,476.3 746.8,475.2 746.2,474.6 745.6,476.4 745.9,476.9 747.2,477.4 &#10;&#9;&#9;&#9;748.1,479.4 749.1,481 750.5,480.6 752.2,480.9 752.4,480.5 751.8,479 752.1,477.8 &#9;&#9;"/>
<polygon class="st4" points="753.5,491.8 752.7,491.8 752.3,492.4 752.7,492.7 753.5,492.5 &#9;&#9;"/>
<polygon class="st4" points="771.8,473.5 771.2,473.3 770.7,473.7 771.4,474.2 &#9;&#9;"/>
<polygon class="st1" points="793.5,420.1 795.2,420.1 795.5,418.6 794.4,417.9 793.8,416.8 793.7,415.6 791.5,417.3 788.4,418.1 &#10;&#9;&#9;&#9;787.7,417.8 785.4,419.6 785.3,421.3 781.9,424.4 777.7,428.7 777,430.9 773.9,432.6 774.1,433.6 773.5,434.9 772.9,435.9 &#10;&#9;&#9;&#9;772.6,437.7 771,439.3 769.6,441.9 769.6,443 768,446.6 766.5,447.3 764.2,453.2 764.9,455.9 764.7,457.7 762.7,460.5 &#10;&#9;&#9;&#9;762.6,462.1 760.6,464 759.3,466.5 759,468.6 762,469.7 764.3,468 765.5,466.6 764.7,465.9 766.4,464.8 768,463.2 771.2,461.3 &#10;&#9;&#9;&#9;772.5,458.4 775.2,458.6 776.4,457.8 777.8,457.9 778.5,458.4 779.5,457.7 780.1,458.7 781.8,459.2 782.7,459.9 782.9,461.5 &#10;&#9;&#9;&#9;783.9,463.1 783.8,464.9 787,467.7 789.7,471.9 790.5,470.7 791.4,469.1 792.1,467.5 792,466.3 789.5,465.4 788.9,463.8 &#10;&#9;&#9;&#9;788.7,462.4 789.2,461.4 788.4,460.3 787.7,458.8 787.5,456.2 788.4,454.9 789.7,456.2 789.1,457.5 790.2,458.9 792.1,459.5 &#10;&#9;&#9;&#9;794.3,460.2 795.7,459.7 797,458.1 798.4,455.7 799.8,454.8 800.2,454.2 799,451.9 797.9,449.9 796.6,447.8 794.2,443.4 &#10;&#9;&#9;&#9;793.5,442.9 793.3,441.2 793.5,439.7 792.6,437.1 792.4,435 790.9,433 790.5,430.6 790.9,428.6 790.8,425.4 792,424 792.1,421.9 &#10;&#9;&#9;&#9;793.2,421.3 &#9;&#9;"/>
<polygon class="st1" points="819.7,457.9 817.2,456.6 815.3,458.6 814.2,460.9 814.9,461.3 816.7,461.7 818.4,461.9 821.1,463.1 &#10;&#9;&#9;&#9;821.5,462.4 821.9,459.9 820.9,459.1 821.4,457.7 &#9;&#9;"/>
<polygon class="st1" points="750.7,476.9 749.1,477.3 746.8,476.3 746.8,475.2 746.2,474.6 745.6,476.4 745.9,476.9 747.2,477.4 &#10;&#9;&#9;&#9;748.1,479.4 749.1,481 750.5,480.6 752.2,480.9 752.4,480.5 751.8,479 752.1,477.8 &#9;&#9;"/>
<polygon class="st1" points="753.5,491.8 752.7,491.8 752.3,492.4 752.7,492.7 753.5,492.5 &#9;&#9;"/>
<polygon class="st1" points="771.8,473.5 771.2,473.3 770.7,473.7 771.4,474.2 &#9;&#9;"/>
<polygon class="st1" points="801.6,405.8 789.7,405.5 780.6,408.6 760.3,427.1 734.8,465.9 732.9,473.7 733.4,484.8 740.2,496.2 &#10;&#9;&#9;746.6,502 761.2,504.9 770,502.5 799.1,484.9 826.6,480 826.3,430.5 810.8,411.6 &#9;"/>
</g>
<g id="text">
<text transform="matrix(1 0 0 1 455.8951 161.3796)" class="st2 st3">P114</text>
<text transform="matrix(1 0 0 1 524.1393 170.0281)" class="st2 st3">P115</text>
<text transform="matrix(1 0 0 1 602.8053 170.2351)" class="st2 st3">P116</text>
<text transform="matrix(1 0 0 1 463.0221 254.2683)" class="st2 st3">P117</text>
<text transform="matrix(1 0 0 1 627.9938 215.657)" class="st2 st3">P118</text>
<text transform="matrix(1 0 0 1 634.8082 294.9441)" class="st2 st3">P119</text>
<text transform="matrix(1 0 0 1 549.9469 342.8474)" class="st2 st3">P120</text>
<text transform="matrix(1 0 0 1 489.8639 354.615)" class="st2 st3">P121</text>
<text transform="matrix(1 0 0 1 518.15 463.8376)" class="st2 st3">P122</text>
<text transform="matrix(1 0 0 1 645.5446 405.8191)" class="st2 st3">P123</text>
<text transform="matrix(1 0 0 1 617.0524 473.1306)" class="st2 st3">P124</text>
<text transform="matrix(1 0 0 1 791.9801 201.572)" class="st2 st3">P125</text>
<text transform="matrix(1 0 0 1 769.1364 445.738)" class="st2 st3">P166</text>
</g>
</svg>