<svg xmlns="http://www.w3.org/2000/svg" version="1.1" viewbox="0 0 1240 640" preserveaspectratio="xMidYMid slice" id="svgN">
<g id="N1" class="small-box bn">
<path class="st1" d="M699.6 117.6l.4-.3-.4.3z"/>
<path class="st1" d="M379.7 143.8l5.5-1.1.9 1.5 4.4-1.5 10.2 2 5.2 5 5 3.5v7l1.8-1.2 2 1.2 1.3-2.4 3.6 1.9 3.1-3.4s1.9.4 2.3 0c.4-.4 1.2-.9 1.6-1 .4-.1.6-1 .6-1s-1.3-2-.6-2 .3 1 1.3 1.3c1 .3 3.2.6 3.2.6s-1.3 1.9-.7 1.9c.6 0 1.9-.4 2.3-1.2.4-.7 1-3.7 1-3.7l1.5-4.1-1.6-4.1 1.8-3.4 1.3-.6.4-1.5-.6-2.2.3-1 2-1.3 1.2-3.1 16.7-21-16.8-19.7-6.3-8.1-9.6-10.4-31-9.9 1 1-2.1 8.5-2.1 5-16.4 44.1-5 8.5 1.4 2.8.7 4.3 3.6 3.6-1.4 2.8-2.1.7-3.4 2 11.3-1.5 1.2 1.2z"/>
</g>
<g id="N2" class="small-box dap">
<path class="st1" d="M435.4 168.6l-.1-2.3s-.3 2.3-2.3 2.3c-2 0-1.3-.9-1.2-1.8l.3-1.9s-2-1-2.5-1-2.5 1.5-2.5 1.5l-3.1-2.5-4.5-3.2-3.6-1.9-1.3 2.4-2-1.2-1.8 1.2v-7l-5-3.5-5.2-5-10.2-2-4.4 1.5-.9-1.5-5.5 1.1-1.3-1.1-11.3 1.5-.2.1-1.4 6.4v3.6l-.7 5 3.6 5-1.4 3.6-5 1.4 2.1 5 .7 3 5.1.3.6 5.8-3.8 4.8 2.2 1.6.6 4.1 7.8 6.8 5-4.5.7 1.2s-.4.4-.4 1v1.9c0 .7.4 2.2.4 2.2s1.6-.1 1.9.4c.3.6-.4-.3.3.6.7.9 1.8 1.5 1.8 1.5s-.3.9 1.9.4c2.2-.4-.1-2.6-.1-2.6l.6-1v-1.3l1.9-1.3 1.2 1.5.1-2.3 2-.7 2.6-3.6s3.2 5.5 4.1 6.1c.9.6 5.5.7 5.5.7s1.3-2 4.5-2 6.9 1 6.8 5.1l5.6 1.8 1.6-1.6 1 2.2 1.3.1c0-.3.1-1.1.6-1.3l.6-.3-.1-2.2v-1l-1.3-2.8-1.3-1.6-1.2-2s.7.6.9 0c.1-.6.4-1.9 0-2-.4-.1-1-.6-1-1s0-1.5.4-1.5 1.5-.1.7-1c-.7-.9-1.8-1.9-1.8-1.9l-1-1-.1-.6s-.3-.1.3-.9c.6-.7.1-1.6.1-1.6H419.5l-.6-2.6s-1-.9-.9-1.8V176.6h2.9l1.2.7s-.1-1.5.3-1.5h1.9l.3-2.5h.9l.9-1.5h1.3l.6-.9h2l2.5.7s0-.7.6-.7h1.8l-.4-1.3.6-1z"/>
</g>
<g id="N3" class="small-box pkr">
<path class="st1" d="M456.8 109.3l-.2-.2-16.7 21-1.2 3.1-2 1.3-.3 1 .6 2.2-.4 1.5-1.3.6-1.8 3.4 1.6 4.1-1.5 4.1s-.6 2.9-1 3.7c-.4.7-1.8 1.2-2.3 1.2-.6 0 .7-1.9.7-1.9s-2.2-.3-3.2-.6-.6-1.3-1.3-1.3.6 2 .6 2-.1.9-.6 1c-.4.1-1.2.6-1.6 1-.4.4-2.3 0-2.3 0l-3.1 3.4 4.5 3.2 3.1 2.5s2-1.5 2.5-1.5 2.5 1 2.5 1l-.3 1.9c-.1.9-.9 1.8 1.2 1.8 2 0 2.3-2.3 2.3-2.3l.1 2.3-.6.9.4 1.3 6.3-1.4h6.1l1.8 1.4h3.5l1.1-1.4 5.7 1.4 4.6 6.4 7-13.5-1.3-2.4h-4.3l.3-3.7h-3.3l5-3.3.4-3.5h3.1l2-2.4 2.4 2 2.8-.9 2.5-11.9-24.1-28.5z"/>
</g>
<g id="N4" class="small-box amanah">
<path class="st1" d="M699.6 117.6l.4-.3-.4.3z"/>
<path class="st1" d="M475.7 150.4l-2.4-2-2 2.4h-3.1l-.4 3.5-5 3.3h3.3l-.3 3.7h4.3l1.3 2.4-7 13.5-4.6-6.4-5.7-1.4-1.1 1.4h-3.5l-1.8-1.4h-6.1l-6.3 1.4h-1.8c-.6 0-.6.7-.6.7l-2.5-.7h-2l-.6.9h-1.3l-.9 1.5h-.9l-.3 2.5h-1.9c-.4 0-.3 1.5-.3 1.5l-1.2-.7h-2.9V179.3c-.1.9.9 1.8.9 1.8l.6 2.6H423.4s.4.9-.1 1.6c-.6.7-.3.9-.3.9l.1.6 1 1 1.8 1.9c.7.9-.3 1-.7 1-.4 0-.4 1-.4 1.5 0 .4.6.9 1 1 .4.1.1 1.5 0 2-.1.6-.9 0-.9 0l1.2 2 1.3 1.6 1.3 2.8v1l.1 2.2-.6.3c-.4.2-.5.9-.6 1.3v.2l.3 1.2v.7l-.9 1h-.6l-2 1 2.2.7 1.5 1.2h1c1 0 .7.7.7.7l1.3.6.6-.6c.6-.6 2.2-.1 2.2-.1l.9-.4v-1.8c0-.7.6-.4.6-.4l1.2 1.5h1.5l.1-1.5s.1-2.3.6-2.6c.4-.3 1.8-.4 2.5-.6.7-.1 0-.6 0-.6l-.1-2.2c0-.7.3-1.8.3-1.8s1.8.3 1.8-.3.4-1.3.4-1.3.4-2.2 1-2.2 1.5 2 1.5 2l2.6-2 2 1.3h1.5l.3 2.6c0 .7 2.2.9 2.2.9l1.3 1.5 2.8.7v-1.3l1.4.6 2 1.3 3.1 2.3.6 2.4.9-19.5 7-11.8 2.9 1.6-.6-2.3-1.8-1.5.1-.4.4-1.3.3-.9-.6-1.3-.6-1.2-1.5-1.9 2.9.3.7 2 3.4-1 1.5.1 2 3.5 2 .7 3.5.4.6-.4 1-1.2 1.9 1.5 1.3-.6 2.3 1.9 1.2.7v.5h1s1.3-.2 1.5 0c.1.1 1.5-.7 2-1.2.6-.4 2.5 0 2.5 0h4.2l1.5 1.2.6-2.6-.5-25.4-9.6-3.9-15.2-6.3-2.2-.9-2-2.3-2.5 11.9-2.4.9z"/>
</g>
<g id="N5" class="small-box ppbm">
<path class="st1" d="M509.8 179l-1.5-1.2h-4.2s-1.9-.4-2.5 0c-.6.4-1.9 1.3-2 1.2h-2.5v-.5l-1.2-.7-2.3-1.9-1.3.6-1.9-1.5-1 1.2-.6.4-3.5-.4-2-.7-2-3.5-1.5-.1-3.4 1-.7-2-2.9-.3 1.5 1.9.6 1.2.6 1.3-.3.9-.4 1.3-.1.4 1.8 1.5.6 2.3-2.9-1.6-7 11.8L466 211l.2.7 1.2 1.9s1.3.4 2 1.3l2.2 2.8 1.2 1.6 2.3 1s1.3 1.5 1.6 2.2c.3.7.3 1.2.7 1.9.4.7 3.2 1.2 3.2 1.2l1.5-.6 2.8 1 .3-1.6 3.1 1.5 1.7-3.9s3.9-1.8 1.5-4.4l-9-6.4 3.7-5 4.6 3.7 2.4-3.7 2.2 2.6v-2.6l2.6-1.3v3.4s2.6 1.5 3.1 2.2l.4.7v2.3h.9l1.1 4h2s4.5 2.8 5 2.6c.5-.2 7.1-9.4 7.1-9.4l-1.1-5.8 23.6-41.6-30.2-12.3.5 25.4-.6 2.6z"/>
</g>
<g id="N6" class="small-box dap">
<path class="st1" d="M517.5 210.8s-6.6 9.2-7.1 9.4c-.5.2-5-2.6-5-2.6h-2l-1.1-4h-.9v-2.3l-.4-.7a14 14 0 0 0-3.1-2.2V205l-2.6 1.3v2.6l-2.2-2.6-2.4 3.7-4.6-3.7-3.7 5 9 6.4c2.4 2.6-1.5 4.4-1.5 4.4l-1.7 3.9.9 2.2 10.5 7.4-20.4 33 11.2 7.6h4.1l11.1 3.4h15.1l5.1.7.8-15.9 14.9-8.5V253h7.4l4.8-3.4 37.5-14.7 26.1-25-29.5-64.1-.6.1-45 18.3-2.2-.9-23.6 41.7 1.1 5.8z"/>
</g>
<g id="N7" class="small-box ppbm">
<path class="st1" d="M699.6 117.6l.4-.3-.4.3zM418 280l.2.1-.2-.1z"/>
<path class="st1" d="M489.1 228.1l-.9-2.2-3.1-1.5-.3 1.6-2.8-1-1.5.6s-2.8-.4-3.2-1.2c-.4-.7-.4-1.2-.7-1.9a14 14 0 0 0-1.6-2.2l-2.3-1-1.2-1.6-2.2-2.8c-.7-.9-2-1.3-2-1.3l-1.2-1.9-.1-.7-.6-2.4-3.1-2.3-2-1.3-1.4-.6v1.3l-2.8-.7-1.3-1.5s-2.2-.1-2.2-.9l-.3-2.6h-1.5l-2-1.3-2.6 2s-.9-2-1.5-2-1 2.2-1 2.2-.4.7-.4 1.3c0 .6-1.8.3-1.8.3s-.3 1-.3 1.8l.1 2.2s.7.4 0 .6c-.7.1-2 .3-2.5.6-.4.3-.6 2.6-.6 2.6l-.1 1.5h-1.5l-1.2-1.5s-.6-.3-.6.4v1.8l-.9.4s-1.6-.4-2.2.1l-.6.6-1.1-.6s.3-.7-.7-.7h-1l-1.5-1.2-2.2-.7 2-1h.6l.9-1v-.7l-.3-1.2v-.2l-1.3-.1-1-2.2-1.6 1.6-5.6-1.8c.1-4.1-3.6-5.1-6.8-5.1-3.2 0-4.5 2-4.5 2s-4.7-.1-5.5-.7c-.9-.6-4.1-6.1-4.1-6.1l-2.6 3.6-2 .7-.1 2.3-1.2-1.5-1.9 1.3v1.3l-.6 1s2.3 2.2.1 2.6c-2.2.4-1.9-.4-1.9-.4s-1-.6-1.8-1.5c-.7-.9 0 0-.3-.6s-1.9-.4-1.9-.4-.4-1.5-.4-2.2v-1.9c0-.6.4-1 .4-1l-.7-1.2-5 4.5-14.1 12.5 18.1 2.5s2.3 2.9 2 3.4c-.3.4-1.3.7-1.3.7s1.9 2.5 2.9 5-1.8 8.5-1.8 8.5l9.8 6.9 1.2-4.4 3.9 3.1-2.3 1.6v1.5l-3.1 5.3-3.2 6.7-1.8 7.7h1.8v3.1h-1.3v1.3s-2.5 1.3-3.2 2.3c-.7 1 1.5 2 1.5 2s.3 1.2 0 2c-.3.9-1.2.6-1.5 1.5-.3.9 1.6 0 1.5 2 0 0 4.5-5.3 4.3-5.5-.2-.2 4-1.6 4-1.6s5.1-.8 3.4 1.6c-1.7 2.4-3 3.1-3.2 4.6-.2 1.5-.4 4.4 3.2 3.1 3.6-1.3 4.5-.2 7.1-1.3 2.6-1.1 3.9-3.3 3.9-4.7 0-1.4.7-3.8 2.2-2.3 1.5 1.5.9 3 .9 3.8 0 .8-.2 1.7 1.1 1.9 1.3.2.9-1.8 1.3.2s1.3 1.8 1.3 2.7c0 .8 1.3 1.6 1.9 1.8l.2.1-.2-.1c-.8-.4-3.2-1.5-3.4.1l-.4 3.4s1.1.4.7 1.5a13 13 0 0 1-1.3 2.4h1.8s1.3 0 1.3 3 0 1.9.2 4.3-.9 2.8-.9 2.8l2.3.9-1.5 2.2.2 4.6s-1.3.7-1.3 1.5l.2 4.4-2 1.5-.4 2.8h-1.8l-.2 2.1c1.1.2 4.7 3 4.7 3h2l19.2 9.7.5-.8 4.8-7.4h3.8l3.8-5.8-1.9-5.1 1.9-2.6h4.3l11.1-18.1 13.5-21.9 20.4-33-10.5-7.4z"/>
</g>
<g id="N8" class="small-box pas">
<path class="st1" d="M699.6 117.6l.4-.3-.4.3zM418 280l.2.1-.2-.1z"/>
<path class="st1" d="M418.2 298.4l-2.3-.9s1.1-.4.9-2.8c-.2-2.4-.2-1.3-.2-4.3s-1.3-3-1.3-3h-1.8s.9-1.3 1.3-2.4c.4-1.1-.7-1.5-.7-1.5l.4-3.4c.2-1.6 2.7-.5 3.4-.1-.5-.3-1.9-1.1-1.9-1.8 0-1-.9-.8-1.3-2.7-.4-2 0 0-1.3-.2s-1.1-1.1-1.1-1.9c0-.8.7-2.2-.9-3.8-1.5-1.5-2.2.9-2.2 2.3s-1.3 3.6-3.9 4.7c-2.6 1.1-3.5 0-7.1 1.3-3.6 1.3-3.4-1.5-3.2-3.1.2-1.5 1.5-2.2 3.2-4.6 1.7-2.4-3.4-1.6-3.4-1.6s-4.2 1.4-4 1.6a58 58 0 0 1-4.3 5.5c-.1 2-1.2 1.9-4 2.2-2.8.3-3.5.1-3.6 1.8-.1 1.6 2 3.1 3.2 3.1 1.2 0 2-.7 2.9-.7.9 0 1.3.4 1.5 3.4.1 2.9-1.3 3.7-2.9 3.5-1.6-.2-1.6 2.1-4.2 1.9-2.6-.1-2.2-3.8-2.2-5 0-1.2.3-1.8-.7-2.3-.5-.3-1.7-.1-2.8.4a7.6 7.6 0 0 0-2.8 2.2c-1.3 1.9 1.6 3.8 2.5 4.3.9.4.7 1.2 1.3 1.8.6.6 0 1.8-2 2.3-2 .6-3.1-1.6-4.7-2-1.6-.4-1.8.6-2 2.3s-1.9 4.4-3.1 3.9c-1.2-.5-2-.6-2-2.5s1-4.1 1.6-5.3c.6-1.2 2.6-.3 3.7-.3 1 0 .7-1.2.7-2.9s-2.3-1.5-5.3-1.5c-2.9 0-2.8 1-3.2 2.8-.4 1.7-.1 1.6-.1 2.3 0 .7-.7 1.8-1.3 1.8-.6 0-1.2 1-1.2 1l.1 2.5c0 .5-1.6 1.9-1.6 1.9-2 1.6.7 3.4 2.6 3.4 1.9 0 3.8.7 2.6 2.9-1.2 2.2-3.8 2.3-5 1.1-1.2-1.2-2.3-4.2-2.6-4.9-.3-.7-.7-.1-1.2 0-.4.1-1.2 1-1.2 1l-.9 4.1v3.4l1.6.1 1 1 3.1-.9.7 1.2 3.7 1.3v1.3l1.8-.7.7 2.6 1.5 1 2.5-1.5 1 .1.6-.8-1.8-1.8 11.4-4.1.9 2.8 2-.3 1.8.6h1l2.2.1v1.3l2.6 1.4h5.8l-2.5 3.6-1.8.7-.1 3.3s5.3 2 5.7 2c.4 0 3.2-1 3.8-1l2.2-.1 1.2-.8s9.5-3.4 9.9-4h.3l.2-2.1h1.8l.4-2.8 2-1.5-.2-4.4c0-.9 1.3-1.5 1.3-1.5l-.2-4.6 1.5-2.7z"/>
</g>
<g id="N9" class="small-box ppbm">
<path class="st1" d="M418 280l.2.1-.2-.1z"/>
<path class="st1" d="M376.5 283.4c1 .6.7 1.2.7 2.3 0 1.2-.4 4.8 2.2 5 2.6.1 2.6-2.1 4.2-1.9 1.6.2 3.1-.6 2.9-3.5-.1-2.9-.6-3.4-1.5-3.4s-1.8.7-2.9.7c-1.2 0-3.4-1.5-3.2-3.1.1-1.6.9-1.5 3.6-1.8 2.8-.3 3.8-.1 4-2.2l-3.6-.2 3.6.2c.1-2-1.8-1.2-1.5-2 .3-.9 1.2-.6 1.5-1.5.3-.9 0-2 0-2s-2.2-1-1.5-2c.7-1 3.2-2.3 3.2-2.3v-1.3h1.3v-3.1h-1.8l1.8-7.7 3.2-6.7 3.1-5.3v-1.5l2.3-1.6-3.9-3.1-1.2 4.4-9.8-6.9s2.8-6 1.8-8.5c-1-2.5-2.9-5-2.9-5s1-.3 1.3-.7c.3-.4-2-3.4-2-3.4l-18.1-2.5v11.6l-4.2.9-1.5 1.8v4.4l1.5 2.8s-3.5 3.7-2.8 3.7c.7 0 2.8 3.3 2.8 3.3l3.7 9.9-3.7 2-8.5 4.4v1.2l6.8.8 6.8 6.1V280l5.3-4.9v2.8l3.5 3.9.8 1.8c1.1-.3 2.2-.5 2.7-.2z"/>
</g>
<g id="N10" class="small-box dap">
<path class="st1" d="M369.5 193.9l-.6-4.1-2.2-1.6 3.8-4.8-.6-5.8-5.1-.3.2.8.5 1.9-2.8 2.8-1.4 2.8-1.4 2.8-.7 12.1-2.8 1.4-3.6 2.8-5 2.1-4.3.7-2.1 2.1-.7 2.8-4.3 2.1-2.1.7-3.6 11.4.7 6.4-1.4 5-2.1 9.3-2.1 5.7.7 5.7.6 2.8.1.4h4.3v2.4h2l.9-1.3 1.5 1.3 4.8-1.1 1.1 1.1h1.6l1.1-2.4 3.2-.9 1.2 3.3 1.8-5.3v-1.5l8.5-4.4 3.7-2-3.7-9.9s-2.2-3.3-2.8-3.3c-.7 0 2.8-3.7 2.8-3.7l-1.5-2.8V227l1.5-1.8 4.2-.9V213l13.9-12.3-7.8-6.8z"/>
</g>
<g id="N11" class="small-box amanah">
<path class="st1" d="M347.6 313.9s-3.5-4.4-3.2-5.4c.3-1 2.3.6 2.3.6l2 .2v-3.4l.9-4.1s.7-.9 1.2-1c.4-.1.9-.7 1.2 0 .3.7 1.5 3.7 2.6 4.9 1.2 1.2 3.8 1.1 5-1.1 1.2-2.2-.7-2.9-2.6-2.9-1.9 0-4.6-1.8-2.6-3.4 0 0 1.6-1.5 1.6-1.9l-.1-2.5s.6-1 1.2-1 1.3-1 1.3-1.8c0-.7-.3-.6.1-2.3.4-1.7.3-2.8 3.2-2.8 2.9 0 5.3-.3 5.3 1.5s.3 2.9-.7 2.9-3.1-.9-3.7.3c-.6 1.2-1.6 3.4-1.6 5.3s.9 2 2 2.5c1.2.5 2.8-2.1 3.1-3.9s.4-2.8 2-2.3c1.6.4 2.6 2.6 4.7 2 2-.6 2.6-1.8 2-2.3-.6-.6-.4-1.3-1.3-1.8-.9-.4-3.8-2.4-2.5-4.3.6-.9 1.7-1.7 2.8-2.2l-.8-1.8-3.5-3.9v-2.8l-5.3 4.9v-14.3l-6.8-6.1-6.8-.8v.3l-1.8 5.3-1.2-3.3-3.2.9-1.1 2.4h-1.6l-1.1-1.1-4.8 1.1-1.5-1.3-.9 1.3h-2v-2.4h-4.3l.1.4-.7 2.8-5.7 1.4-.7 2.1 1.4 5 2.1 3.6 5.7 3.6 7.1 2.1h3.6l.7 3.6v6.4l-2.1 3.6-3.6.7-3.6-1.4-2.1-.7-4.3.7-2.1 2.8 4.3 1.4-2.1 2.1 4.3 2.1 6.4 5 5.7 6.4h2.8l1.9 1.6 1.3.5.8 1.4 2.2-2.8-2.9-2.6z"/>
</g>
<g id="N12" class="small-box dap">
<path class="st1" d="M352.9 322.7h.9l.8-2.1-2-1.2 1.8-2.3h3.7l1.1-2.8s-7.2.2-7.4-.9c-.2-1.1 1.5 0 1.5 0v-2.6h2l-.7-1.2-3.1.9-1-1-1.6-.1v1.7-1.7l-2-.2s-2-1.6-2.3-.6c-.3 1 3.2 5.4 3.2 5.4l2.8 2.6-2.2 2.8.1.2-.7.5 2.6 3.3 2.5-.7z"/>
<path class="st16" d="M348.5 312.3h-25.8"/>
</g>
<g id="N16" class="small-box bn">
<path class="st1" d="M419.6 372.6l1.8-5.5 2.9-7.4 1.5-8.8-2.4-1.9h-3.5l-3.7 2.6-5.2-2.6v-1.9h-1.9l-2.3-10.5-6 2.5v1.8l-2.5.6h-.9c-.4 0-1.3-.6-1.3-.6h-1.3l-1.6-1-2.2 1-1.5 1-2.3-1v-1l-3.4-3.2v-2.2l-.8.4-2.2 2-4.6 5-3.3 1.6-6.7 4.1 1.8 1.3 1.3 1.1 1.1.2v.7l2.2.7.7 1.4 1.3 2 2 3.6 2 3.6 1.6 2.9 4.3 6.1 3.9 5.6 2.3 2.3 2 2.2 3.9 2.9 1.3.7 3-2.5 3.4-2 3.4-.4h1.6l3.9-.2 2.5.4 1.3-.7 1.3.7.8-4.3.5-3.3z"/>
</g>
<g id="N13" class="small-box amanah">
<path class="st1" d="M385.3 327.5l-.7 1.6-6.6-1.6-5.2-.7h-2.6l-2-2.5-3.9 2.5-2.4 1.6-2 1.4-5.9-7.1h-1.1l-2.7.7-2.6-3.3-.9.6-2 .6-.9 2.1-.5 2.2 1.9 2.5 3.5 3.7 4.6 2.9.7 1.6 3.3 3.4 2.5 1.8 1 .8 2 2.5 3.4 2.7 6.7-4.1 3.3-1.6 4.6-5 2.2-2 .8-.4v-.2l1-1.2 3-3.3z"/>
</g>
<g id="N15" class="small-box amanah">
<path class="st1" d="M374.8 321.6v-4.3l7.4-6h-1l-1.8-.6-2 .3-.9-2.8-11.4 4.1 1.8 1.8-.6.8-1-.1-2.5 1.5-1.5-1-.7-2.6-1.8.7V312l-3.7-1.3h-2v2.6s-1.8-1.1-1.5 0c.2 1.1 7.4.9 7.4.9l-1.1 2.8h-3.7l-1.8 2.3 2 1.2-.8 2.1h.3l5.8 7.2 2-1.5 2.3-1.6 3.9-2.5 2 2.5h2l.5.1 1.5-3.8.9-1.4z"/>
</g>
<g id="N18" class="small-box bn">
<path class="st1" d="M499 342.8V341v-.3l.6-.7-.6-1-.8-2.2-4.1-.9-2.2-2.8c-.7-.9-.9-.6-1.6-.6s-.9-1-.9-1.6c0-.6 1.5-1.3 1.8-2 .3-.7 1-.7 1.3-1.5.3-.7-.4-2.9-.4-2.9h2.6l3.4-3.2s.4-.9 0-1.4c-.4-.5-1.8-.7-2.9-1-1.2-.3 0-1 0-1l-14.3-12s-2-.3-2.8-.6c-.7-.3-1.2-2.2-1.2-2.2l-11.1-12.8-11.1 18.1h-4.3l-1.9 2.6 1.9 5.1-3.8 5.8h-3.8l-4.8 7.4-.5.8-6.5 11.2 6.5 4.4 11.3 5.6-1.3 7.3 3.3 3.7h2l4 3.4 2.6-2.3-1.8-2.6 5-5.3.7-3.8h1.5l2.9-3.4h1.8v-1.6l6.7 3.8 1.5 5.3 3.7.9 1.9-1.4V353l13.6.3-1.8-3.8 4.1-2.8.4.2.2-1.5V344l-.3-.3c-.4-.2-.6-.5-.5-.9z"/>
</g>
<g id="N14" class="small-box pkr">
<path class="st1" d="M418.2 320.6h-2s-3.6-2.8-4.7-3h-.3c-.4.6-9.9 4-9.9 4l-1.2.8-2.2.1c-.6 0-3.4 1-3.8 1-.4 0-5.7-2-5.7-2l.1-3.3 1.8-.7 2.5-3.6H387l-2.6-1.4v-1.3l-2.2-.1-7.4 6v4.3l-.5 1.3-1.5 3.8 5.2.7 6.6 1.6.7-1.6 2.5 2.2-2.9 3.4-1 1.2V336.4l3.4 3.2v1l2.3 1 1.5-1 2.2-1 1.6 1h1.3s.9.6 1.3.6h.9l2.5-.6V339l6-2.5 2.3 10.5h1.9v1.9l5.3 2.6 3.7-2.6h3.5l2.4 1.9.1-.6 5.1-8.8 6.5-11.2-19.5-9.6z"/>
</g>
<g id="N19" class="small-box dap">
<path class="st1" d="M699.6 117.6l.4-.3-.4.3z"/>
<path class="st1" d="M476.8 303.3s.4 1.9 1.2 2.2c.7.3 2.8.6 2.8.6l14.3 12s-1.2.7 0 1c1.2.3 2.5.5 2.9 1 .4.5 0 1.4 0 1.4l-3.4 3.2H492s.7 2.2.4 2.9c-.3.7-1 .7-1.3 1.5-.3.7-1.8 1.5-1.8 2 0 .6.1 1.6.9 1.6s.9-.3 1.6.6l2.2 2.8 4.1.9.8 2.2.6 1-.6.7v.3l6.4-1 1.5 3.3H511.6l3.3 6.8 1.8-3.1v-3.7l-2.4-3.3 1.1-1.5 1.3-2.6 5 2.1 2.4 2.1 1.4 1.5 3.2 1.5h4.4l4.5 4.1 2.5 3.1-1.3 1.5 5.3 4.5 2-3 3.5-2.9 3.4 2.2 4.2 4.7h.1l2.7-1.9v-5.9l2.7-2.2h2.4l2.4-2.4 7.7-4.6.2-.1-2.9-4.2-2 .9-7.3-10.9-14.9-22.3.6-8.6-3.7-5.1 1.3-4.2-20.6-5.3h-.3l-5.1-.7h-15.1l-11.1-3.4h-4.1L479 269l-13.5 21.9 11.3 12.4z"/>
</g>
<g id="N20" class="small-box bn">
<path class="st1" d="M554.3 376.2l3.1-6.4 1.8-1.9-.7-1.2-5.9-2.8v-4.6l2-1.3 2.8-1-4.2-4.7-3.4-2.2-3.5 2.9-2 3-5.3-4.5 1.3-1.5-2.5-3.1-4.5-4.1h-4.4l-3.2-1.5-1.4-1.5-2.4-2.1-5-2.1-1.3 2.6-1.1 1.5 2.4 3.3v3.7l-1.8 3.1-3.3-6.8H507l-1.5-3.3-6.4 1v1.8c-.1.4.1.7.2.9l.3.3v1.8l-.2 1.5 5 2.8 4.5 2.5-3.2 5.3 8.3 1.3 2.5 2.5v4.4l4.5-.3.9 5 2.5 1.9-1.3 2.9 1.3 1.2 2.2-.1v2.3l1.2-.3 2-2 2.6.7-.9 2.9 3.4 6.3-2.6.3.3 4.1 2.3 1.2v2.5l2.8 2.3.5.4 3.2-1.4 2.6-1.6 1.6.6 8.5-4.3V383l2.1-1.5-1-1.8h2.2l-3.1-3.5z"/>
</g>
<g id="N21" class="small-box amanah">
<path class="st1" d="M473.8 367.9l6.1.9-.9 3.8-1 1.8-2.2.7-.3.9h-.9v1.6h-.8v.8h-2.2l4.2 2.7h2.8l6.9-1.9h3.7l1.6-2.6 3.3-2 3.1 1.1 3.6 2.2 8.8 1.2 1.1-3.4 4.8-3.9 1-5.8v-4.3l-2.4-2.5-8.4-1.3 3.2-5.3-4.5-2.5-5-2.8-.4-.2-4.1 2.7 1.8 3.8-13.6-.3v2.4l-1.9 1.3-3.6-.9-1.5-5.2-6.7-3.8v1.6h-1.8l-2.9 3.3h-1.4l-.8 3.8-4.9 5.3 1.7 2.6-2.6 2.3h2.2-2.2l1 2.5-1 3.7 1.3 1.7h3.3v.2l6.6-4.3z"/>
</g>
<g id="N22" class="small-box bn">
<path class="st1" d="M699.6 117.6l.4-.3-.4.3zM781 207.2l.5.6-.5-.6zM771.4 167.2c1.1 1 0 0 0 0z"/>
<path class="st1" d="M534.9 394.5V392l-2.3-1.2-.3-4.1 2.6-.3-3.4-6.3.9-2.9-2.6-.7-2 2-1.2.3v-2.3l-2.2.1-1.3-1.2 1.3-2.9-2.5-1.9-.9-5-4.5.3-1 5.8-4.8 3.9-1.1 3.4-8.8-1.2-3.6-2.2-3.2-1.1-3.3 2-1.5 2.6h-3.7l-6.9 1.8.3 4.5 5.4 3.1 3.9 11.1s15.2-.9 15.3 0c.1.9 1.8 2.8 1.8 2.8l3.8-.6 3.2 3.9 1.6-2.3 3.4-1 2.6 2.2 1.8.4v.7l5.1 1 7.2-3.2.2-.3 1-1.9 2.3-2.5.3-2.2-2.9-2.1z"/>
</g>
<g id="N25" class="small-box bn">
<path class="st1" d="M558 458.3v-7.9l-2.7-8.1 5.6-17.9 2.1-2.7 3.8-9.2-12.5-5.6v-16.4l-8.6 4.3-1.6-.6-2.6 1.6-3.2 1.4-.5-.4-.4 2.2-2.3 2.5-1 1.9.7 1.5-2.9 2v3.9l-2.8 3.1v4.1l-2.2 8.6-7.1 5.3.8 2.3-.8 1.9.2.2 5.1 3.8 2.7 1.2 1 1.7 4 2.8 5.7 4.9.9 1.2 4.5 2.9 9.2 5.1.5-1.6z"/>
</g>
<g id="N17" class="small-box pkr">
<path class="st1" d="M771.4 167.2c1.1 1 0 0 0 0z"/>
<path class="st1" d="M468.5 385.9l.3-3.1-5.4-2-2.1-6.7v-.2H458l-1.3-1.7 1-3.7-1-2.5-4-3.4h-2l-3.3-3.7 1.3-7.3-11.3-5.6-6.5-4.5-5 8.8-.1.5-1.5 8.8-3 7.5-1.7 5.5-.6 3.1-.8 4.3h.8l2.8.1 6.5 1.6 6.6 2.6 5.4 2.8 4.1 1.8 3.6 2.9 6.1 3.9.6.6.9-1.2h5.5l3.9-2.3V390l1.6 1.4.3-.2 1.3-1.2 1.2-3.2z"/>
<path class="st3" d="M842.5 323h74.7"/>
</g>
<g id="N26" class="small-box bn">
<path class="st1" d="M699.6 117.6l.4-.3-.4.3z"/>
<path class="st1" d="M622.2 412.5v-1.3l-1.1-.9 1.1-1.5-2.8-4.5-2.2 2.6-3.9-2.6-1.5 4.5-3.4-2.8-5-1.6-1.1-2.1-2.6-1.3-4.6-9.6h-2.6v-2.8l5.5-4.9 1.8-2.4-1.8-5.6-1 .3-.2-2.2-.7-1.2-1.1-2-1.1-.3-.3-1.2-3.4-4.5 3.2-1.9-1.4-2.7-.2-1.4 1-1-1-1.4 1.5-1.3-1.5-.5c-.5-.1-1.2-.7-1.2-.7s-1.3.7-1.5.2c-.2-.4-1.1-.1-1.1-.1l-3.6-5.4c-.2-.3 2.3-1.3 2.3-1.3l-.9-2-2.3 1.2-5.9-7.8-1.9 1.4-.2.1-7.7 4.6-2.4 2.4H563l-2.7 2.2v5.9l-2.7 1.9h-.1l-2.8 1-2 1.3v4.6l5.9 2.8.7 1.2-1.8 1.9-3.1 6.4 3.3 3.5h-2.2l1 1.8-2.1 1.5v23.9l12.5 5.6 11.2 5 5.9 1.5 27.6 12.5.3.3 13.9-17.5-3.6-1.8z"/>
</g>
<g id="N27" class="small-box bn">
<path class="st1" d="M704.5 404.5l-1.5-.7-.5.8z"/>
<path class="st1" d="M702 401.6v-1.4l-1.3-.9v-1.9l-1.1-1.4s-1-1.4-1.2-2c-.2-.5-1.5-2.8-1.9-3l-1.6-.4-2.2-.9-1.5-1.2v-3.4l-2.4-.4-1.5-1.2v-1.8l-1.6-1.5-1.6-1.6-.2-1.8-1.1-.1-.3-1.6h-1.9l-1.5-1.8c-.4-.5-1.2-.3-1.9-.3s-.2-1.8-.2-1.8l-1.3-.7-.1-2.7c-.1-.2-.5 0-.9.3l-.4.3-10.5 7.3-6.4-8.3-10.9 6.2-4.2-2.8 2.1-2.1-4.2-1.9-4.1-6.4 1.5-.9-2.6-3.2-14.1 10.7-1.3-.1-2.5 1.8-11 8-3.7-4-4.5 3 1.8 5.6-1.8 2.4-5.5 4.9v2.8h2.6l4.6 9.6 2.6 1.3 1.1 2.1 5 1.6 3.4 2.8 1.5-4.5 3.9 2.6 2.2-2.6 2.8 4.5-1.1 1.5 1.1.9v1.3l3.5 1.8.5-.6 8.8-7.3 1 .9 1.1-.3 2.5 4.3 3.5-2.7c4-3.1 10-7.8 10.3-7.8h4.7l.7-.8 5.6 1.2c.5.2 2.5-.3 2.5-.3l1.8 1 2.6.1 1 1.3h1.4l2.2 1.8 5.3.3 1.4-1.4 3.4-.7 8.8-1.4 6 3 1.9-.2.5-.8-1.1-2.3z"/>
</g>
<g id="N24" class="small-box amanah">
<path class="st1" d="M699.6 117.6l.4-.3-.4.3z"/>
<path class="st1" d="M519.8 431.9l7.1-5.3 2.2-8.5V414l2.8-3.1V407l2.8-2-.7-1.5-.2.3-7.2 3.2-5.1-1v-.7l-1.8-.4-2.6-2.2-3.4 1-1.6 2.3-3.2-3.9-3.8.6s-1.6-1.9-1.8-2.8c-.1-.9-15.3 0-15.3 0l-3.9-11.1-5.4-3.1-1 2v2.4l-1.1 2.4-.9-.3s-1.3.7-2.6 0h-6.4v-1l-.3.3-1.4-1.5v2.8l-3.9 2.3h-5.4l-1 1.2.8.7 1.3-.4.7.8 1.1 1.2.2 2.3-.5 1.1-.9 1.3-1.6-.2.4 1.8 1.3 1.4v1.1l2 1.3 3.8 5.2 3.2 1.4 2.7 2 1.4 2 1.8.7.7 1.3 1.6.2 2.2-.4h10.4l4.5 2 1.6-.4 6.8 3.1 4.5 1.4 9.3 4.3 6.1 4.7.8-1.9-1.1-2.4z"/>
</g>
<g id="N23" class="small-box dap">
<path class="st1" d="M473.8 377.6h.9V376h.9l.3-.9 2.2-.7 1-1.8.9-3.8-6.1-.9-5.8 1.9-6.6 4.3 2 6.6 5.4 2-.3 3.1.9.9-1.2 3.2-1.3 1.2v1h6.4c1.3.7 2.6 0 2.6 0l.9.3 1.1-2.4v-2.4l1-2-.3-4.5h-2.8l-4.2-2.6h2.2v-.9z"/>
</g>
<g id="N30" class="small-box dap">
<path class="st1" d="M641.2 313.3H639l1.6-9h-1.1l3.5-3.7-1.1-1.3 1.1-2 2.6-1.7-.4-2.2h-2.4l1.1-3 4.3-2 2.7-4-33.6-74.4-26.2 24.9-37.5 14.8-4.8 3.3h-7.4v2.8l-14.9 8.5-.8 15.8.3.1 20.6 5.2-1.3 4.3 3.7 5.1-.6 8.6 14.9 22.3 3.6-2.3 1.8 1.5 3.2-2.4.9 1.9 2.4-1.9-.7-1.9 2.3-.6-.7-3.5 2.5-2.9 1 1.3 5.3-3.8-1.8-1.1 1.8-3.5h.7l5.1-5 2.6-2.2v5.6l1.6 1.7 9.2 2.5 5.2 3.7 4.5 3.6h3.6l6.9 8.9.9-2.3 7.9 8.5 16.4-10.9-8.9-5.7z"/>
</g>
<g id="N31" class="small-box bn">
<path class="st1" d="M699.6 117.6l.4-.3-.4.3z"/>
<path class="st1" d="M700.8 243.5l-2.5-22.8.3-1.2-.9-1.5.1-3.5 1.6-3.4-29.8 11.9-25.7-18-26.6 5 33.6 74.5-2.6 3.9-4.4 2-1.1 3h2.4l.4 2.2-2.6 1.8-1.1 2 1.1 1.3-3.5 3.7h1.1l-1.5 9h2.2l-.7 1.5 9 5.8-16.4 10.9-7.9-8.5-.9 2.3-.7 2.6.7 1.6-.7 5.1H620l-.7 7-13.7 9.6 4.7 5.7 2.3 2.9 4.8 5.1-.4 3.6 2.5-1.8 1.3.1 14.1-10.5 2.6 3.2-1.5.9 4.1 6.4 4.2 1.9-2.1 2.1 4.2 2.8 10.9-6.2 6.4 8.3 10.5-7.3.4-.3.1-.2v-12h5.5l-1.8-34.5v-.1l16.9-69.4-1.2-6.6 2.9-1.9h3.8z"/>
</g>
<g id="N28" class="small-box dap">
<path class="st1" d="M699.6 117.6l.4-.3-.4.3zM771.4 167.2c1.1 1 0 0 0 0z"/>
<path class="st1" d="M618.9 327.6l-2.6-.2-3-4.4-2.8.9-2.1-.9h-1.8l-1.8-2.4h-3.7v3.4l-3.3.9-4.1 3.1-6.9 2.3v-3l.9-1.1V323l-.9-4.4h2l-2-3.7h3.5v-1.1l-5.4-7.3h-.1L583 310l1.8 1.2-5.3 3.8-1-1.3-2.5 2.9.7 3.5-2.3.6.7 1.9-2.5 1.9-.9-1.9-3.2 2.3-1.8-1.5-3.6 2.3 7.3 10.9 2-.9 2.9 4.2 1.9-1.4 5.9 7.8 2.3-1.2.9 2s-2.5 1-2.3 1.3l3.6 5.4s.9-.3 1.1.1c.2.4 1.5-.2 1.5-.2l1.2.7a8 8 0 0 1 1.5.5l-1.5 1.3 1 1.4-1 1 .2 1.4 1.4 2.7-3.2 1.9 3.4 4.5.3 1.2 1.1.3 1.1 2 .7 1.2.2 2.2 1-.3 4.5-3 3.7 4 11-8 .4-3.6-4.8-5.1-2.3-2.9-4.7-5.7 13.7-9.6.7-7 1.1-4.3-2-2.9z"/>
</g>
<g id="N29" class="small-box amanah">
<path class="st1" d="M624.3 325.3l-6.9-8.9h-3.6l-4.5-3.6-5.2-3.7-9.2-2.5-1.6-1.7v-5.6l-2.6 2.2-5.1 5h-.6l5.4 7.3v1.1h-3.5l2 3.7h-2l.9 4.4v3.2l-.9 1.1v3l6.9-2.3 4.1-3.1 3.3-.8v-3.5h3.7l1.7 2.4h1.8l2.1.8 2.7-.8 3.1 4.3 2.6.3 2.2 2.7-1.1 4.3h3.6l.7-5.1-.7-1.6z"/>
</g>
<g id="N32" class="small-box bn">
<path class="st1" d="M770.6 190.8l1.2 1zM699.6 117.6l.4-.3-.4.3zM781 207.2l.5.6-.5-.6zM771.4 167.2c1.1 1 0 0 0 0z"/>
<path class="st1" d="M768 187.3l-1.1-2.9-.2-2.9-2.2-4.3-1.1-2.7-.2-2.9 2.9-1.4 3.2-.2 1.3-.7.9-1.9-1.5-1.2c-3.4-2.7-3.4-2-3.4-2l-.2-1.8-.7-1.4-1.8-4.5 1.8-1.1-1.1-2.7-1.8-2.7.2-1.6-1.1-2.5 1.1-.2s2 .2 1.8-.9l-.2-1.1-1.3-.7-.9 1.4h-1.6s.7 1.1-1.6-.2l-2.3-1.4-2.7-2.5-1.8-2.3-2-2.3-.5-2-.9 1.1-2.5-.5-1.3-2-1.6-1.1 1.1-1.8 1.1-1.6-1.6-2v-2.9l-2.2-1.4-2 .9-.7 1.8-.7.2-.2 2.5-2 .4-4.1-.2-3.8-.4-2-1.6-4.7-2.5-2.3-.7-3.8-2.7-3.4-2-1.6-2.3v2l-1.6 1.1-.7-.1h-.2l-1.8-.2-2.7-1.4s2.3-1.4-1.6.2c-1.8.8-2.4.9-2.4.9l-2.5 1.6-1.6-2s1.1-2.5-2.5-.9c-3 1.3-2.6.9-2.3.7l-3.1 2.2.2 4.1 1.6 4.5 3.4.7h4.7l-2.3 1.8-.2 1.8 2.7 1.1 1.4 1.6-.9.9-2.5.9-.7 2.5.7 1.1 3.8 1.1v.7l-1.8 1.1-3.2-1.1h-1.4l-2 1.4-1.4 2.9.2 1.6s-.7.5.7.2l1.4-.2.9-2.5 2-.2.9 1.6-.2 2.9.2 2-.9 1.1-1.1-2.3-.9-.9-.9 1.1-1.8 2-2 1.4v2l1.1.7s-1.4-.2-1.8 1.4l-.5 1.6.7 2 1.8.5 2.5-.9s.2.9 2.3 0l2-.9 1.3-.2-.9 2.3-.7 1.1v1.6l1.6 1.6 1.8 2.3.7 2.5-.2 1.4.9 2.7H703l-.7 2.7-1.4 2.5s0 .2-1.8 1.6l-1.8 1.4-2.5-1.1-.7-1.6-.9 1.4.2 1.8h-2.3l-34.9-17.8-5.2-3.2-6.5-5.2-4.5-3.4-4.1-2.7-3.4-.7-3.4-.2-4.1-2.5-8.8-3.4-7-4.1-16.2 3.4-5 1.3-.5.1L617 210l26.6-5 25.7 18 29.9-11.7V210h1.3l1.1-2.5 4.4-1.5v-4.2l-1.7-1.1v-2.8h1.7l3.5-1.1s2.8-5.7 8.3-2h1.1l2.6 4.6 28.9-11.2 2.2 5.9s1.1-1.3 2.6-.2a6.7 6.7 0 0 0 3.5 1.1l2.2-.4 2.4-.4c1.8.4 3.9 0 3.9 0v-1.5l3-1.8-.8-.6-1.4-3z"/>
</g>
<g id="N33" class="small-box bn">
<path class="st1" d="M770.6 190.8l1.2 1zM781 207.2l.5.6-.5-.6zM771.4 167.2c1.1 1 0 0 0 0z"/>
<path class="st1" d="M767.6 194.2s-2.2.4-3.9 0l-2.4.4-2.2.4s-2 0-3.5-1.1-2.6.2-2.6.2l-2.2-5.9-28.9 11.2-2.6-4.6h-1.1c-5.5-3.7-8.3 2-8.3 2l-3.5 1.1h-1.7v2.8l1.7 1.1v4.2l-4.4 1.5-1.1 2.5h-1.3v1.3l-1.6 3.4-.1 3.5.9 1.5-.3 1.2 2.5 22.8h-3.6l-2.9 1.9 1.2 6.6-16.9 69.4 61 .3 95.7.4 1.5-1.5 2.7 2.4h1l2.1-1.6v-.1l-.4-.1-.4-.6s-.7-.9-2.3-3.8l-1.6-2.9-5-5.2-1.6-6.3-2.3-8.1-2.7-4.5-2-3.2-1.8-2s1.4 2-2.7-3.4l-4.1-5.4-3.4-2.5-2.3-4.1-1.1-3.4v-2.3l.2-3.6v-6.8l1.1-.7 1.3-.2 2.9 1.1s2.3 2.7 2 .9l-.2-1.8-3.4-4.1-1.8-2.9-4.7-7.9.7-2.5s-.4-1.8.7-2.3l1.1-.4-2-2.7-4.5-4.1-3.6-3.6-5.4-2.3-2-1.8s2.3.7-2-2.7l-4.3-3.4s2.3 4.1-2.3-1.8c-3.3-4.2-2.5-3.5-1.8-2.8l-3.6-4 1.1-1.8-1.6-4.1-2.9-2.7-2.3-2.9-1.2-.9-3 1.8v1.5zM811.5 185.1l.7 3.7.3 2.4 2.4 1.7 2-1.4-.7 1.4 3.4 1.4v-1.4l-.7-4.4-2-2.7-3.4-2.4-.7-1-2.7-1.4.7 1.7zM842.5 269.2l1.3.8 2.1 1.2 1.3.7 2.3 1.1v1.7l.3 1.9-.2 1.4-.9 1 1.2-.1 1.3-.2.6-.5.9.5 1.1.8 1.3.4-1.1-3.2-1.7-2-1.9-2.7-3.9-2.5-.5-1.5.6-1.3-1.3-1.2-1 1.6-.8.2-2.8-.3.8 1.1zM856.8 237.5l-.1 1.8.1 1.2.5.9.9.6.9 1.4 1.5.2 1.7 1.4 1.3.3.3.9 1.2.8.9.1 1.8.1 1.7.8 1.3-.4.9.8.7-1.7v-1.3l1.4-.5 1.5.1-.6-2 .4-1.5-1.2-.6-1.9-2.7 1-1.1-2.2-.7-2.3-1.2-1.1.1-3.3-1.2-1.3.4-.6.7-1.6 1.4-1.2-1-1 .4-.2-1-1.3-.1h-.6l.5 1.7zM877.5 240.4l1.1.2.8-.9.2-1v-1.1l-1.1.2-1.7.4.2 1.2z"/>
</g>
<g id="N34" class="small-box bn">
<path class="st1" d="M704.5 404.5l-1.5-.7-.5.8z"/>
<path class="st1" d="M789.6 390.6l-11.7 3.2-6.3-5-11-3.5v-5.1h-1.8l-.7-3.4.7-1.2-19.3-54-61-.3v.1l1.8 34.5h-5.5v12l-.1.2c.4-.2.8-.5.9-.3l.1 2.7 1.3.7s-.4 1.8.2 1.8c.7 0 1.4-.2 1.9.3l1.5 1.8h1.9l.3 1.6 1.1.1.2 1.8 1.6 1.6 1.6 1.5v1.8l1.5 1.2 2.4.4v3.4l1.5 1.2 2.2.9 1.6.4c.3.1 1.6 2.4 1.9 3l1.2 2 1.1 1.4v1.9l1.3.9v1.4l1 2.2 4.6-1.1h1.8V400l4.2 1v-2.8h2.8v.9l2.4-.9 3.4 4.8 5.6 1.5 1.1 1.8h2l1.5-1.8 6.8 4.2h1.9l4.5 2.4 1 4.8 2.3 1.1v1.1l2 1.9v2.3l3.6 2.2 4.8-1.5-1.3-1.5 1.3-1.4s.4 1.4 1.1 1.4c.7 0 4.4-1.4 4.4-1.4l3.3 1.4 3.7-.4h2.7l3.5-2.6 2.8 3.1v3.1h3.3s-1.3 2.2 0 1.8c1.3-.4 3.5 0 3.5 0l2.2-.8.4-2.1-1.3-3.1h5.6l2.8-.7.6-4.4 1.8-.7.9-4.5 3.2-3.8-14.2-15.8z"/>
</g>
<g id="N35" class="small-box bn">
<path class="st1" d="M704.5 404.5l-1.5-.7-.5.8z"/>
<path class="st1" d="M800.1 440.8l2.2-1.9-3.1-2.9h2.9l-2.6-1.5-2.8.8-2.5-1.8.4-2.8.3-2.2h-2.5l1.2-2.9-1.5-.1-1.3 3.1-1.3-2.5.1-.7-2.2.8s-2.2-.4-3.5 0c-1.3.4 0-1.8 0-1.8h-3.3v-3.1l-2.8-3.1-3.5 2.6h-2.7l-3.7.4-3.3-1.4s-3.7 1.4-4.4 1.4c-.7 0-1.1-1.4-1.1-1.4l-1.3 1.4 1.3 1.5-4.8 1.5-3.6-2.2v-2.3l-2-1.9v-1.1l-2.3-1.1-1-4.8-4.5-2.4H739l-6.8-4.2-1.5 1.8h-2l-1.1-1.8-5.6-1.5-3.4-4.8-2.4.9v-.9h-2.8v2.8l-4.2-1v2.7h-1.8l-4.6 1.1 1.5.7 1.2.5-.7 1.2 4.5 10.5 2.6-.9 4.4 7.9-2.6 1.3 4.2 5.4 5.6 7.4 7.4 9.8 5.6-2.9 8.8 1.2v3.9s1-1.2 1.5-1.5c.4-.3 2.3.6 2.3.6v1.5l-1.5.6.7 1.8.7 2.6 6.4 1.3 7.7 3.1 8.9 8.8 1.6-1.3 2.3 1.5 1.9-1.6.7 1.3 3.4-2.6 2.2 1.3 3.5-5.4-5-4.2 2.3-2.6 1.6-.4 1-2.9 1.8-.3v-3.9l1-.4-.7-2.8 2.3.7.9-.7h1.8l.9 1.2 1 1.9 1.5-1.5.9.9v.4l2-1.7-.1-2.5-.7-1.9z"/>
</g>
<g id="N36" class="small-box bn">
<path class="st1" d="M839.3 323l-2.7-2.4-1.5 1.5-95.7-.4 19.3 54-.7 1.2.7 3.4h1.8v5.1l11 3.5 6.3 5 11.7-3.2 14 15.5 3-1.7 5.7 4c0 5.3 7 3.9 7.9 2.8a9 9 0 0 0 1.3-3.3l4.9-1.8 7.2 21.5 2-1.5 4.8 1.5 1.8-1.5h1.8l3.1-3.1 6.3-.2 4.8-2.9 5.3-3.7 4.7 2.8 2.5 6.1v4.1l-.9 6.7-1.8 1.9-.4 2.9 2.2 2v2l.6 1.2.9-2.2h1.8l15.8-24.1-.6-2.3.4-3.2-3.4-6.1-1.1-3.6-7.2-8.8-2.5-4.5-3.2-4.7-6.1-1.1-2.7-3.4-4.3-6.5-.9-4.7v-4.7l1.3-4.7 2.5-1.1.9.9-1.4-2.7-.2-2.5 2.5 2.9 1.1 3.2 2.9-.4-2.7-6.5-3.4-3.2.5-3.8-.9-1.1-1.8-2.5-2.9-3.6s.5 1.1-2-3.2c-2.5-4.3-2.2-3.4-2.2-3.4l-1.3-2.7-3.4-4.3-2.5-3.4-1-1.4-.4-.6-.2-.7-2.1 1.6h-1.2z"/>
</g>
<g id="N37" class="small-box bn">
<path class="st1" d="M781 207.2l.5.6-.5-.6z"/>
<path class="st1" d="M868 419.1l-4.7-2.8-5.3 3.7-4.8 2.9-6.3.2-3.1 3.1H842l-1.8 1.5-4.8-1.5-2 1.5-7.2-21.5-4.9 1.8s-.4 2.2-1.3 3.3c-.9 1.1-7.9 2.4-7.9-2.8l-5.7-4-3 1.7-3.2 3.8-.9 4.5-1.8.7-.6 4.4-2.8.7h-5.6l1.3 3.1-.4 2.1-.1.7 1.3 2.5 1.3-3.1 1.5.1-1.2 2.9h2.5l-.3 2.2-.4 2.8 2.5 1.8 2.8-.8 2.6 1.5H799l3.1 2.9-2.2 1.9.9 1.9.1 2.5-2 1.7v2.1s.1.6 1 .4l3.4-.1s2.9 2.3 3.2 2.8c.3.4 2.6 1.8 2.6 1.8l4.5 1.2 1.2 2.8-2 3.4.7 2 2.3 4.4 1.9 3.4 3.4 1.3 3.8 3.2 1.2 3.6 2.6 4.2-.7 3.6 4.1 1.2 2-3.5 4.1.9 1.2-.9.7-4.1 6.7-.7-2.6-7.9H843l-2.5-6.4-5.4 2.2-.6-10.1-1.6 1.6-.9-1.6-5.8-4.8v-3.2l3.7-3.4h16.9l2.3 1.6 1.9.6h1.2l2.8-2.9 5.5 2.8V444l.7-3.2h1.2v-.9l1.6-2.5 2.8-3.1 2.6 1.8.9-6.7v-4.1l-2.3-6.2z"/>
</g>
<g id="N38" class="small-box bn">
<path class="st1" d="M918.4 514.1l-4.7-6.5-.9-8.3 1.8-1.6.7.2h1.1l.9-1.6-1.1-2.9-1.1-1.8-2-.9-.7-1.1-.4-1.4-3.2-4.7-1.8-4.1.7-3.6 1.6-1.6.7-1.1-1.1-.2-1.8-3.8v-2.9l1.3-.5 2.5-.9-2.5-2.5-2.5-3.2-1.8-4.7.9-2 .4-1.1-.9-1.4-1.4-1.1-3.4-4.1-4.5-7-2-4.1 2-3.2-1.8-2.9-3.1-3.8-1-1.2-.7-2.7-15.8 24.2H871l-.9 2.2-.6-1.2v-2l-2.2-2 .4-2.9 1.8-1.9-2.6-1.8-2.8 3.1-1.6 2.5v.9h-1.2l-.7 3.2V448.3l-5.5-2.8-2.8 2.9h-1.2l-1.9-.6-2.3-1.6H830l-3.7 3.4v3.2l5.8 4.8.9 1.6 1.6-1.6.6 10.1 5.4-2.2 2.5 6.4h1.2l2.6 7.9-6.7.7-.7 4.1-1.2.9-4.1-.9-2 3.5-4.1-1.2 2 4.8v2.3l2 8.2v.1l1.1-.6h5.9s1.5-9.1 10.7-7.5c0 0 1.3.4 3.1 0s2.2-1.3 5-2.6 3.1-2.6 5.5-3.5c2.4-.9 2.8-1.9 2.8-1.9s-1.3-2.5 0-2.5 2-1.3 4.4 0c2.4 1.3.9-1.6 2.4-.6s5.7 1.5 5.7 1.5 2-1.4 2.2-1.7l.2-.3 1.1-1.4s1.1 2.1 1.5 1.4c.4-.7 0-1.4 0-1.4s5.1.1 4.7 1.4c-.4 1.3 1.2 3.6 0 3.6-1.2-.1-2.3 1.9-2.3 1.9l.2 10.5 3.5-1.1s1.8.4 2.4 1.1c.7.7-.2-.4.7.7.9 1.1 2-.7.9 1.1s-2.2 2.2-2.2 3.1c0 .9 2.7-.1 2.6 1 0 1.1-.4.5 0 2.5s6.1 3.9 6.1 3.9l2 3.9c0 .1 5.9-3 6.8-2.1.9.9 3.7 4.6 3.7 4.6s-1.1-3.1.9-2.6c1 .3 3 .3 4.8.2l-.1-.8z"/>
</g>
<g id="N39" class="small-box bn">
<path class="st1" d="M913.9 514.7c-2-.5-.9 2.6-.9 2.6s-2.8-3.8-3.7-4.6c-.9-.9-6.8 2.2-6.8 2.1l-2-3.9s-5.7-1.9-6.1-3.9c-.4-2 0-1.3 0-2.5 0-1.1-2.6-.2-2.6-1 0-.9 1.1-1.3 2.2-3.1s0 0-.9-1.1 0 0-.7-.7-2.4-1.1-2.4-1.1l-3.5 1.1-.2-10.5s1.1-2 2.3-1.9c1.2.1-.4-2.3 0-3.6.4-1.3-4.7-1.4-4.7-1.4s.4.8 0 1.4c-.4.7-1.5-1.4-1.5-1.4l-1.1 1.4-.2.3c-.2.3-2.2 1.7-2.2 1.7s-4.2-.4-5.7-1.5c-1.5-1 0 1.9-2.4.6-2.4-1.3-3.1 0-4.4 0-1.3 0 0 2.5 0 2.5s-.4 1-2.8 1.9c-2.4.9-2.6 2.2-5.5 3.5-2.8 1.3-3.3 2.2-5 2.6-1.8.4-3.1 0-3.1 0-9.2-1.5-10.7 7.5-10.7 7.5h-5.9l-1.1.6-1.4 6.5-.5 7.6.4-.4.8-.4h.1l2.2 9.2-1.2-5.9-1-3.4 2.5-1.2 2-.9 2.3.7 1.8.7 2.3.7.7 1.6-.4.9.4 2 2 .7s1.8 1.4 2.5 1.1c.7-.2 3.2 0 3.2 0l2.3 1.8 1.1 2.3 2 3.2 1.6 1.6v2.3l2-1.4.9 3.2-2 1.1-.9 1.8-2 1.4-2 2.9v1.1l2.7.4 3.4 2.3 4.1 1.8h2.2l3.6 4.5 3.6-2.5 2.9.7 1.3 2 2.5-2.3.9-1.1 1.1-.4 1.3 1.4.7-.9.9.5 2.7 1.1.9 1.1 2 1.4 2-1.6 2-1.6 2.3.2 1.4-1.8 2.9-2.9 3.4-2.9 1.6.5.5 1.4.2 2.3 2.3.2 1.8-.9 2-.9s0 .7 1.3-.4l1.4-1.1.9-1.1-.7-1.6-.4-.9-1.6-10.1-.9-1.4.9-2 1.1-4.3 1.4-.7 3.2-1.8.7-1.1-1.3-3.3c-2.3-.3-4.3-.3-5.3-.6z"/>
</g>
<g id="N40" class="small-box pkr">
<path class="st1" d="M830.2 494.1v-2.3l-2-4.8.7-3.6-2.6-4.2-1.2-3.6-3.8-3.2-3.4-1.3-1.9-3.4-2.3-4.4-.7-2 2-3.4-1.2-2.8-4.5-1.2s-2.3-1.3-2.6-1.8c-.3-.4-3.2-2.8-3.2-2.8l-3.4.1c-.9.1-1-.4-1-.4v-2.5l-.9-.9-1.5 1.5-1-1.9-.9-1.2H793l-.9.7-2.3-.7.7 2.8-1 .4v3.9l-1.8.3-1 2.9-1.6.4-2.3 2.6 5 4.2-3.5 5.4-2.2-1.3-3.4 2.6-.7-1.3-1.9 1.6-2.3-1.5-1.6 1.3-8.9-8.8-7.7-3.1-6.4-1.3-2.7-.8-1 14.1h10.4v-2.9l4.5 2h2.2l.9.9v5.4l-1.1 1.5-1.5 3.1-3.5 1.1v3.8l.1-.1 4.1 4.1 1.8.4v-3.1l2.3 1.3 1.5-1.6-.9-1.2 2-2.2 10.1 5 1.8-4.2 6.1-.8 1.8 2.5 6.7.6-.6 1.9-1 1.8v5h3.4l.7 1v8l-1.6 3.1h2.5l.7.6v1.6h.7l.6 9.5s-4.5 1.6-3.9 2c.3.2.9 2.1 1.4 3.6l4 .2 2.3 1.6h.9l2-.7h1.6l.7 1.1 3.8-.2 1.1-1.4 1.1 1.1.7.5 1.1-.2 1.1-1.1 1.6-.4.9-.9 1.8-1.8-1.1-.5-.7.5-.9-.2-.4-2.5.9-.7 2.5-.9-.2 2 .2 1.4h.9l1.1-.9 4.3-.2 1.4-1.6.5-7.6 1.4-6.5v-.1l-2.1-8z"/>
</g>
<g id="N41" class="small-box ppbm">
<path class="st1" d="M762.6 467.7h-2.2l-4.5-2v2.9h-10.4l1-14.1 2.7.8-.7-2.6-.7-1.8 1.5-.6V449s-1.9-.9-2.3-.6l-1.5 1.5V446l-8.8-1.2-5.6 2.9 5.6 7.3h-5.4l-8.8 6.4 2 2.3-1.8 1.3-2.5-3.6-8.2 6-1.5-1.9-4.4 2 1.2 2.9.3 1.3 2.9 5.3-1.5 4.2v4l-2-1.3-2.2 1.2v1l-1.5 1-2-.6-.4 1.6.2 2h1.6l3 1.5h3.5l-4.8 5.9-.9-1.3-5 5.6-2.2 2.7 3.4 2.2h2.9l.9-2.3h1l3.1-4.5h1.5l1.5-2.2 6.4-4 .2-.1 5-7.3h2l1.5 1.8h2l3.1.9 3.1 1.9s2.5 2.6 2.9 3.4l.9 1.8 2.9-1.7 1.9 1 .9-.7v.1l.6-.5 5-1.8h2v-1.8l2.4-2.9 1.8-2.2 2.3-1.9v-3.8l3.5-1.1 1.5-3.1 1.1-1.5v-5.4l-1-1.1z"/>
</g>
<g id="N42" class="small-box dap">
<path class="st1" d="M793.1 487.9l1-1.8.6-1.9-6.7-.6-1.8-2.5-6.1.8-1.8 4.2-10.1-5-2 2.2.9 1.2-1.5 1.6-2.3-1.3v3.1l-1.8-.4-4.1-4.1-.1.1-2.3 1.9-1.8 2.2-2.4 2.9v1.8h-2l-5 1.8-.6.5v1.3l1.3 1.7 2.9-1.7 2.3 3.4 2.6.6c.4 0 .3-.4 1.5 0s1.9 1.1 1.9 1.1v-2h1.5v-3.3l1.3-1.5 3.1 2 2.4-2 5.5 3.8 5.7 3 5.7 2.4 3.7 3.5-.9-3.5h4.2l2.2 1 1.3-2.7s-3.5-.7-2.8-1.2c.7-.4 2.8-4.2 2.8-4.2l-1.3-2.2 1.3-1.1 1.8 1.1.9-1.3H793v-4.9z"/>
</g>
<g id="N43" class="small-box ppbm">
<path class="st1" d="M800.1 516.7l-.6-9.5h-.7v-1.6l-.8-.6h-2.5l1.6-3.1v-8l-.7-1h-2.3l-.9 1.3-1.8-1.1-1.3 1.1 1.3 2.2s-2.2 3.7-2.8 4.2c-.7.4 2.8 1.2 2.8 1.2l-1.3 2.7-2.2-1h-4.2l.9 3.5-3.7-3.5-5.7-2.4-5.7-3-5.5-3.8-2.4 2-3.1-2-1.3 1.5v3.3h-1.5v5.8l.9.4 2.1.4 2.7.4 2-.5 2 1 .9 1.1 1.6-.5 1.6 1.1 1.1-.2 2.3 1.4 2 .5.9.2s1.8.2 2.5.7l2 1.6v2.5l1.1.2.7 1.4 1.6 2.3.2 1.4.7-.2.7.5 1.4.2.9.7.4-.9 1.1.4-.2 1.1 2 .4.9-.7 1.4.2 2.5.4 1.9.1c-.5-1.5-1.1-3.3-1.4-3.6-.6-.6 3.9-2.2 3.9-2.2z"/>
</g>
<g id="N45" class="small-box dap">
<path class="st1" d="M741.8 508.6l3.7-5.9v-5.6l2-1.2 2.3 3.4 2.6.6.6-.2s1.4.1 2.7 1.3v3.8l-1.1-.5-.5.4-.4 1.3 1.6 1.1-.2 1.3-1.3 1.4-3.2 1.1-.9 1.4-2.1 1.1-.7 1.1-.5.3-4.6-6.2z"/>
<path class="st16" d="M771 525v-8h-21.5v-11.8"/>
</g>
<g id="N46" class="small-box dap">
<path class="st1" d="M739.5 507.7l-3.5-1.2.9-2-2-.7-5.4 1.6-3.4-1.2v-1.7l-2-.7s-6.1-5.8-6.1-6.4c0-.3-.4-1-.9-1.7l-6.4 4-1.5 2.2h-1.5l-3.1 4.5h-1l-.9 2.3h-2.9l4.7 1.8-4.7-1.8v1.8h1.2l1.9 1.2h1.3l.4 1.3 2 .9 2 .6 1.8 1 1.2-.7h1.3l1.9-.9 2.5-.9 1.9 2.8 1.5 2.2h2.2l1-1.3 3.9-2.3 1.6.4 3.9.4 2.9.7 2.5.4 4.5 1.4 2.1-.3.4-.1.7-.4-4.9-6.2-2-1z"/>
<path class="st16" d="M724.2 510.2V548"/>
</g>
<g id="N44" class="small-box ppbm">
<path class="st1" d="M770.6 190.8l1.2 1zM771.4 167.2c1.1 1 0 0 0 0z"/>
<path class="st16" d="M761.6 542.5v-21.2H740v-17.9"/>
<path class="st1" d="M745.5 497.1v5.6l-3.7 6.1-5.8-2.3.9-2.1-2.1-.7-5.4 1.6-3.3-1.1v-3.8l2.3.6.9-3.3h4.2l2-1.8h2.1l2.9-1.7 1.9 1 .9-.7v1.4l1.3 1.7z"/>
</g>
<g id="N47" class="small-box ppbm">
<path class="st1" d="M770.6 190.8l1.2 1zM699.6 117.6l.4-.3-.4.3zM771.4 167.2c1.1 1 0 0 0 0z"/>
<path class="st1" d="M733.8 490.7l-3.1-1.9-3.1-.9h-2l-1.5-1.8h-2l-5 7.3-.2.1c.5.7.9 1.4.9 1.7a54 54 0 0 0 6.1 6.4l2 .7v-2.1l2.3.7.9-3.3h4.3l2-1.8h2s-.4-1.1-.9-1.8c-.2-.7-2.7-3.3-2.7-3.3z"/>
<path class="st16" d="M729.6 494v35"/>
</g>
<g id="N49" class="small-box amanah">
<path class="st1" d="M676.7 549.3l2.7 2.4 1.6-.9-2.8-1z"/>
<path class="st1" d="M720.7 515.8l-1.5-2.2-1.9-2.8-2.5.9-1.9.9h-1.3l-1.2.7-1.8-1-2-.6-2-.9-.4-1.3h-1.3l-1.9-1.2h-1.2v-1.8l-3.4-2.2 2.2-2.7 5-5.6.9 1.3 4.8-5.9h-3.5l-3-1.5h-1.6l-.2-2 .4-1.6h-.1c-.4 0-1-2.8-1-2.8l-2.8-2.5.6-1.4V477l-2.2-.3v-1.2h-3.6l1.6-3.6h-1.6l-1.9-.7-1.3 1.2v-3.6l-1-1.3h-12.8l1 3.7h.6l.1 2.2 2.6 1.5.1 2.5 1.6 1.6-.7 2.3 2.5 3.1-.3 7.6-.4 10.9 4.7 4.5h-7.9l-2.3 2.8-1.6 2.2.6 2.3-1.7 5-.1.3-2 7.6-2.6 9.3 1.1 7.3 1.4 1.6.6.6v2.9l2.2 1.5 1.3 1.7 2.9 1.2 1.1-1 .3-.4.4.3 3.4-1.1 3-.2 3.2-.4 1.8-.4 2.2-1.1 1.3.5-.4-1.3.9-.4 1.4-1.3 3.8-2.3 3.4-6.1 2-1.6 1.1-3 1.3-2.2 2.9-3.8 2.2-2.7.2-3.1.7-.5 1.1-2h1.4l2.1-1.6.9.2-.5-2 1.6.7.8-1 .5-.6h-2.4zm-41.3 35.9l-2.6-2.4 1.4.5 2.9 1.1-1.7.8z"/>
</g>
<g id="N50" class="small-box ppbm">
<path class="st1" d="M699.6 117.6l.4-.3-.4.3zM704.5 404.5l-1.5-.7-.5.8z"/>
<path class="st1" d="M718.1 430.4l-4.2-5.4 2.6-1.3-4.4-7.9-2.6.9-4.5-10.5.7-1.2-1.2-.5-2 .2-1.9.2-6-3-8.8 1.4-3.4.7-1.4 1.4-5.3-.3-2.2-1.8h-1.4l-1-1.3-2.6-.1-1.8-1s-2 .5-2.5.3l-5.6-1.2-.7.8h-4.7c-.2 0-6.3 4.7-10.3 7.8l10.3 8.9 3-3.4 3.7 3.4v4.4l-3.7 3.3 5.9 6.9-1.5 2.6 1.5 3.7 3.1-2.2 2.6 2.2 1.5-1.1 4.8 5.7-1 2.2h4.4l1.3-.9 2.2.9h7.1l4.4 3.1 7.3 6.6 9.6-5.9v-2.1l1.3-1.6 1.5 3.9 6.8-4.9v-3l4.7-3.2-5.6-7.7z"/>
</g>
<g id="N51" class="small-box pkr">
<path class="st1" d="M688.1 444.9H681l-2.2-.9-1.3.9h-4.4l1-2.2-4.8-5.7-1.5 1.1-2.6-2.2-3.1 2.2-1.5-3.7 1.5-2.6-5.9-6.9 3.7-3.3v-4.4l-3.7-3.4-3 3.4-10.3-8.9-3.5 2.7-2.4-4-1.1.3-1-.9-8.8 7.3-.5.6-13.9 17.5 28.6 23.5 4.2 3.4 13.8 14.5h2v8l1.5 5h2.6l.9 3.7 2.8 1.8v1.5h5l9.6-1.2.3-7.6-2.5-3.1.7-2.3-1.6-1.6-.1-2.5-2.6-1.5-.1-2.2h-.6l-1-3.7H688l-7.1-9.4s6.8-7.2 7.1-7.2c.2 0-1-1.8-1-1.8l1-2.6v-1.6z"/>
</g>
<g id="N52" class="small-box dap">
<path class="st1" d="M736.6 455l-5.6-7.3-7.4-9.8-4.6 3.1v3l-6.8 4.9-1.5-3.9-1.3 1.6v2.1l-9.6 5.9-7.3-6.6-4.4-3.1v1.6l-1 2.6s1.2 1.8 1 1.8c-.2 0-7.1 7.2-7.1 7.2l7.1 9.4 1 1.3v3.6l1.3-1.2 1.9.7h1.6l-1.6 3.6h3.6v1.2l2.2.3v2.6l-.6 1.4 2.8 2.5s.6 2.8 1 2.8h.1c.5 0 2 .6 2 .6l1.5-1v-1l2.2-1.2 2 1.3v-4l1.5-4.2-2.9-5.3-.3-1.3-1.2-2.9 4.4-2 1.5 1.9 8.2-6 2.5 3.6 1.8-1.3-2-2.3 8.8-6.4h5.2z"/>
</g>
<g id="N48" class="small-box dap">
<path class="st1" d="M710.4 476.7l3.3.7 3.3 3 5.4 5.8-4.7 6.9-7 4.5-1.3 2h-1.5l-3.2 4.6h-1.3l-.6 2.4-3.5-.3-3-1.9 7.4-8.5.9 1.3 4.6-5.6-3.3.3-2.9-1.8h-1.7l-.3-2.6.4-1.1 2 .6 1.3-.8.2-1.1 2.2-1.2 2 1.4.1-3.8z"/>
</g>
<g id="N53" class="small-box bn">
<path class="st1" d="M599.2 456.6l9.6-7.2s-.7-.2-1.1 0c-.4.2 1.1-9.4 1.1-9.4l-1.1-3.1 4.1-5-.3-.3-27.6-12.5-5.9-1.5-11.2-5-3.7 9.2-2.2 2.6-5.6 18 2.7 8.1v7.9h-4.4l-.5 1.6 1.8 1 1.7.9 1.8-.4 3.4 2 1.8.9 4.5.9 5.9 2.2 3.9 1.1 2.9 1.6h3l1.6 1.4 3 1.6.2.1 2.1-9.8 8.5-6.9z"/>
</g>
<g id="N54" class="small-box amanah">
<path class="st1" d="M611.8 431.9l-4.1 5 1.1 3.1s-1.5 9.6-1.1 9.4c.4-.2 1.1 0 1.1 0l-9.6 7.2-8.3 6.8-2.1 9.8 2.7 1 3.4 2.5 3.9 2.3 2.9 1.4 4.3 3.6 3.2 2 2.5 3.2 3.8 3.6 1.4 3.1 2.7 3.4-1.1 1.6 2.2 3.6.4.8 1.2 2.4.5 1.8v-3.3l6-2.6-2.6-5.3-1.1-5.3-2.8-1.1 6.6-11.8 1.9-11.2 3.6-7.2 6.1-2.2v-4.3l-28.7-23.3z"/>
</g>
<g id="N55" class="small-box dap">
<path class="st1" d="M668.2 493.1v-1.5l-2.8-1.8-.9-3.7h-2.6l-1.5-5v-8h-2l-13.8-14.5-4.2-3.4v4.3l-6.1 2.2-3.6 7.2-1.9 11.2-6.6 11.8 2.8 1.1 1.1 5.3 2.6 5.3 3.7-.9 3.3 5.3s1.8-1.3 3.3-1.3c1.5 0 5.7-1 5.7-1l1.8-1.2 3.5 5.1 2.6-1.1 2 1.1 4.3-1.8 6.8 6.9 1.1 2.6h2.6l2.9 1.5 1.8.9 1.7-5-.6-2.3 1.6-2.2 2.3-2.8h7.9l-4.7-4.5.4-10.9-9.6 1.2h-4.9z"/>
</g>
<g id="N56" class="small-box bn">
<path class="st1" d="M672 527.5l2-7.6.1-.3-1.8-.9-2.9-1.5h-2.6l-1.1-2.6-6.8-6.9-4.3 1.8-2-1.1-2.6 1.1-3.5-5.1-1.8 1.2s-4.2 1-5.7 1-3.3 1.3-3.3 1.3l-3.3-5.3-3.7.9-6 2.6v3.3l1.3 4.5 1.1 1.8.2 1.1 1.8 2.9 1.4 2 .7 2.3-.4 1.3.9 4.5 2 7.9 2.5 4.7 1.4 3.2.9 2.7-.2 2 2.1 4.5.2 1.6.4 2 .7 1.6 2.3.5 3 .5 1.4 2 2.5 2.3 3.4 3.6 1.6 3.1.4 1.4 1.1-.4 1.4 1.6 1.8 1.6 2 2 1.3.9.5-.7-1.1-5.4.2-4.5 1.8-4.7 5.7-5.4 1.6-1.3 1.6-.9.7-1.3-.4-1.6-1.4-2.3-.5.2-.7-2.9-.4-1.6.7-2.7-1.1-7.3 2.9-9.2zM636.4 558l-1.1-.5-1.1-2.2-1.7-1.4-1.8.5 1.4 1.3-.2 2.1-.3 2-.8 2.3.2 2.4 1.6.5 2.4-1.2 2.3-1.7.5-1.9-.7-2.4z"/>
</g>
<g id="text">
<path class="frames" d="M771.8 191.8l35-1-25.8-75.9M842.5 323h74.7M622.8 509.6H569M678.9 553.9l13.2 18.3"/>
<text transform="translate(402.4 97.4)" class="st7 st8">
      N1
    </text>
<text transform="translate(387 175.6)" class="st7 st8">
      N2
    </text>
<text transform="translate(449.5 145.9)" class="st7 st8">
      N3
    </text>
<text transform="translate(440.3 185.7)" class="st7 st8">
      N4
    </text>
<text transform="translate(496.3 195.5)" class="st7 st8">
      N5
    </text>
<text transform="translate(554.3 230.5)" class="st7 st8">
      N6
    </text>
<text transform="translate(434.3 270.7)" class="st7 st8">
      N7
    </text>
<text transform="translate(388.8 300.4)" class="st7 st8">
      N8
    </text>
<text transform="translate(367.8 262.1)" class="st7 st8">
      N9
    </text>
<text transform="translate(334.1 236.7)" class="st7 st8">
      N10
    </text>
<text transform="translate(340.3 281.3)" class="st7 st8">
      N11
    </text>
<text transform="translate(297.4 316.9)" class="st7 st8">
      N12
    </text>
<text transform="translate(394.1 373.4)" class="st7 st8">
      N16
    </text>
<text transform="translate(356.9 343.4)" class="st7 st8">
      N13
    </text>
<text transform="translate(351.1 325.2)" class="st7 st8">
      N15
    </text>
<text transform="translate(459.1 321.4)" class="st7 st8">
      N18
    </text>
<text transform="translate(414 341.5)" class="st7 st8">
      N14
    </text>
<text transform="translate(505.6 299.1)" class="st7 st8">
      N19
    </text>
<text transform="translate(527.5 371)" class="st7 st8">
      N20
    </text>
<text transform="translate(482.6 368.9)" class="st7 st8">
      N21
    </text>
<text transform="translate(511.2 400.1)" class="st7 st8">
      N22
    </text>
<text transform="translate(533.4 429.4)" class="st7 st8">
      N25
    </text>
<text transform="translate(431.2 371.6)" class="st7 st8">
      N17
    </text>
<text transform="translate(565.8 373)" class="st7 st8">
      N26
    </text>
<text transform="translate(629 393.1)" class="st7 st8">
      N27
    </text>
<text transform="translate(467.2 409.5)" class="st7 st8">
      N24
    </text>
<text transform="translate(460.5 387)" class="st7 st8">
      N23
    </text>
<text transform="translate(578 265.3)" class="st7 st8">
      N30
    </text>
<text transform="translate(660 290.1)" class="st7 st8">
      N31
    </text>
<text transform="translate(591.7 356.5)" class="st7 st8">
      N28
    </text>
<text transform="translate(593.5 318.9)" class="st7 st8">
      N29
    </text>
<text transform="translate(669.3 205)" class="st7 st8">
      N32
    </text>
<text transform="translate(760.4 265.8)" class="st7 st8">
      N33
    </text>
<text transform="translate(722 372.6)" class="st7 st8">
      N34
    </text>
<text transform="translate(742 433.6)" class="st7 st8">
      N35
    </text>
<text transform="translate(809.6 362.4)" class="st7 st8">
      N36
    </text>
<text transform="translate(807.9 426.9)" class="st7 st8">
      N37
    </text>
<text transform="translate(856.2 473.4)" class="st7 st8">
      N38
    </text>
<text transform="translate(872.8 529)" class="st7 st8">
      N39
    </text>
<text transform="translate(802.8 496.9)" class="st7 st8">
      N40
    </text>
<text transform="translate(722.5 475.7)" class="st7 st8">
      N41
    </text>
<text transform="translate(765.3 492)" class="st7 st8">
      N42
    </text>
<text transform="translate(776.5 519.6)" class="st7 st8">
      N43
    </text>
<text transform="translate(770.6 537.4)" class="st7 st8">
      N45
    </text>
<text transform="translate(712.6 560.7)" class="st7 st8">
      N46
    </text>
<text transform="translate(753.2 556.2)" class="st7 st8">
      N44
    </text>
<text transform="translate(729.2 540.2)" class="st7 st8">
      N47
    </text>
<text transform="translate(677.9 541.4)" class="st7 st8">
      N49
    </text>
<text transform="translate(669.3 420)" class="st7 st8">
      N50
    </text>
<text transform="translate(629 436.1)" class="st7 st8">
      N51
    </text>
<text transform="translate(690.5 461)" class="st7 st8">
      N52
    </text>
<text transform="translate(692.7 492)" class="st7 st8">
      N48
    </text>
<text transform="translate(567.8 437.8)" class="st7 st8">
      N53
    </text>
<text transform="translate(603.8 470.7)" class="st7 st8">
      N54
    </text>
<text transform="translate(635.6 496)" class="st7 st8">
      N55
    </text>
<text transform="translate(642.6 552.9)" class="st7 st8">
      N56
    </text>
</g>
</svg>