<svg xmlns="http://www.w3.org/2000/svg" version="1.1" viewbox="0 0 1240 640" preserveaspectratio="xMidYMid slice" id="svgP">
<g id="P140" class="small-box pkr">
<path class="st1" d="M439.6 89.2l-6.3-8.1-9.5-10.6-31-9.9 1 1-2.1 8.5-2.1 5-16.4 44.2-5 8.5 1.4 2.9.7 4.3 3.6 3.6-1.4 2.8-2.1.7-3.6 2.1-1.4 6.4v3.6l-.7 5 3.6 5-1.4 3.6-5 1.4 2.1 5 .7 3 5.1.3.6 5.8-3.8 4.8 2.2 1.6.6 4.1 7.8 6.8 5-4.5.7 1.2s-.4.4-.4 1v1.9c0 .7.4 2.2.4 2.2s1.6-.1 1.9.4c.3.6-.4-.3.3.6.7.9 1.8 1.5 1.8 1.5s-.3.9 1.9.4c2.2-.4-.1-2.6-.1-2.6l.6-1v-1.3l1.9-1.3 1.2 1.5.1-2.3 2-.7 2.6-3.7s3.2 5.6 4.1 6.1c.9.6 5.6.7 5.6.7s1.3-2 4.5-2 6.9 1 6.8 5.1l5.6 1.8 1.6-1.6 1 2.2 1.3.1c0-.3.1-1.1.6-1.3l.6-.3-.1-2.2v-1l-1.3-2.8-1.4-1.7-1.2-2s.7.6.9 0c.1-.6.4-1.9 0-2-.4-.1-1-.6-1-1s0-1.5.4-1.5 1.5-.1.7-1c-.7-.9-1.8-1.9-1.8-1.9l-1-1-.1-.6s-.3-.1.3-.9c.6-.7.1-1.6.1-1.6H419.5l-.6-2.6s-1-.9-.9-1.8V176.3h2.9l1.2.7s-.1-1.5.3-1.5h1.9l.3-2.5h.9l.9-1.5h1.3l.6-.9h2l2.5.7s0-.7.6-.7h1.8l-.4-1.3.6-.9-.1-2.3s-.3 2.3-2.3 2.3c-2 0-1.3-.9-1.2-1.8l.3-1.9s-2-1-2.5-1-2.5 1.5-2.5 1.5l-3.1-2.5-4.5-3.2 3.1-3.4s1.9.4 2.3 0c.4-.4 1.2-.9 1.6-1 .4-.1.6-1 .6-1s-1.3-2-.6-2 .3 1 1.3 1.3c1 .3 3.2.6 3.2.6s-1.3 1.9-.7 1.9c.6 0 1.9-.4 2.3-1.2.4-.7 1-3.7 1-3.7l1.5-4.1-1.6-4.1 1.8-3.4 1.3-.6.4-1.5-.6-2.2.3-1 2-1.3 1.2-3.1 16.7-21-17-19.5z"/>
</g>
<g id="P141" class="small-box pkr">
<path class="st1" d="M509.8 150.8l-9.6-3.9-15.2-6.3-2.2-.9-26.2-30.6-.2-.2-16.7 21-1.2 3.1-2 1.3-.3 1 .6 2.2-.4 1.5-1.3.6-1.8 3.4 1.6 4.1-1.5 4.1s-.6 2.9-1 3.7c-.4.7-1.8 1.2-2.3 1.2-.6 0 .7-1.9.7-1.9s-2.2-.3-3.2-.6-.6-1.3-1.3-1.3.6 2 .6 2-.1.9-.6 1c-.4.1-1.2.6-1.6 1-.4.4-2.3 0-2.3 0l-3.1 3.4 4.5 3.2 3.1 2.5s2-1.5 2.5-1.5 2.5 1 2.5 1l-.3 1.9c-.1.9-.9 1.8 1.2 1.8 2 0 2.3-2.3 2.3-2.3l.1 2.3-.6.9.4 1.3h-1.8c-.6 0-.6.7-.6.7l-2.5-.7h-2l-.6.9h-1.3l-.9 1.5h-.9l-.3 2.5h-1.9c-.4 0-.3 1.5-.3 1.5l-1.2-.7h-2.9V179.3c-.1.9.9 1.8.9 1.8l.6 2.6H423.1s.4.9-.1 1.6c-.6.7-.3.9-.3.9l.1.6 1 1 1.8 1.9c.7.9-.3 1-.7 1-.4 0-.4 1-.4 1.5 0 .4.6.9 1 1 .4.1.1 1.5 0 2-.1.6-.9 0-.9 0l1.2 2 1.3 1.6 1.3 2.8v1l.1 2.2-.6.3c-.4.2-.5.9-.6 1.3v.2l.3 1.2v.7l-.9 1h-.6l-2 1 2.2.7 1.5 1.2h1c1 0 .7.7.7.7l1.3.6.6-.6c.6-.6 2.2-.1 2.2-.1l.9-.4v-1.8c0-.7.6-.4.6-.4l1.2 1.5h1.5l.1-1.5s.1-2.3.6-2.6c.4-.3 1.8-.4 2.5-.6.7-.1 0-.6 0-.6l-.1-2.2c0-.7.3-1.8.3-1.8s1.8.3 1.8-.3.4-1.3.4-1.3.4-2.2 1-2.2 1.5 2 1.5 2l2.6-2 2 1.3h1.5l.3 2.6c0 .7 2.2.9 2.2.9l1.3 1.5 2.8.7v-1.3l1.4.6 2 1.3 3.1 2.3.6 2.4.9-19.5 7-11.8 2.9 1.6-.6-2.3-1.8-1.5.1-.4.4-1.3.3-.9-.6-1.3-.6-1.2-1.5-1.9 2.9.3.7 2 3.4-1 1.5.1 2 3.5 2 .7 3.5.4.6-.4 1-1.2 1.9 1.5 1.3-.6 2.3 1.9 1.2.7v.5h1s1.3-.2 1.5 0c.1.1 1.5-.7 2-1.2.6-.4 2.5 0 2.5 0h4.2l1.5 1.2.6-2.6v-25.6z"/>
</g>
<g id="P142" class="small-box dap">
<path class="st1" d="M699.7 117.5l.4-.3-.4.3zM771.5 167.1c1.1.9 0 0 0 0zM587.8 145.7l-.6.1-45.1 18.3-32.3-13.3.5 25.4-.6 2.6-1.5-1.2H504s-1.9-.4-2.5 0c-.6.4-1.9 1.3-2 1.2H497v-.5l-1.2-.7-2.3-1.9-1.3.6-1.9-1.5-1 1.2-.6.4-3.5-.4-2-.7-2-3.5-1.5-.1-3.4 1-.7-2-2.9-.3 1.5 1.9.6 1.2.6 1.3-.3.9-.4 1.3-.1.4 1.8 1.5.6 2.3-2.9-1.6-7 11.8-.9 19.5.2.7 1.2 1.9s1.3.4 2 1.3l2.2 2.8 1.2 1.6 2.3 1s1.3 1.5 1.6 2.2c.3.7.3 1.2.7 1.9.4.7 3.2 1.2 3.2 1.2l1.5-.6 2.8 1 .3-1.6 3.1 1.5.9 2.2 10.5 7.5-20.4 33.1 11.2 7.6h4.1l11.1 3.4H521l5.1.7.8-15.9 14.9-8.5V253h7.5l4.8-3.4 37.6-14.8 26.2-25-30.1-64.1z"/>
</g>
<g id="P143" class="small-box ppbm">
<path class="st1" d="M489 228l-.9-2.2-3.1-1.5-.3 1.6-2.8-1-1.5.6s-2.8-.4-3.2-1.2c-.4-.7-.4-1.2-.7-1.9a14 14 0 0 0-1.6-2.2l-2.3-1-1.2-1.6-2.2-2.8c-.7-.9-2-1.3-2-1.3l-1.2-1.9-.2-.7-.6-2.4-3.1-2.3-2-1.3-1.4-.6v1.3l-2.8-.7-1.3-1.5s-2.2-.1-2.2-.9l-.3-2.6h-1.5l-2-1.3-2.6 2s-.9-2-1.5-2-1 2.2-1 2.2-.4.7-.4 1.3c0 .6-1.8.3-1.8.3s-.3 1-.3 1.8l.1 2.2s.7.4 0 .6c-.7.1-2 .3-2.5.6-.4.3-.6 2.6-.6 2.6l-.1 1.5h-1.5l-1.2-1.5s-.6-.3-.6.4v1.8l-.9.4s-1.6-.4-2.2.1l-.6.6-1.3-.6s.3-.7-.7-.7h-1l-1.5-1.2-2.2-.7 2-1h.6l.9-1v-.7l-.3-1.2v-.2l-1.3-.1-1-2.2-1.6 1.6-5.6-1.8c.1-4.1-3.6-5.1-6.8-5.1-3.2 0-4.5 2-4.5 2s-4.7-.1-5.6-.7c-.9-.6-4.1-6.1-4.1-6.1l-2.6 3.7-2 .7-.1 2.3-1.2-1.5-1.9 1.3v1.3l-.6 1s2.3 2.2.1 2.6c-2.2.4-1.9-.4-1.9-.4s-1-.6-1.8-1.5c-.7-.9 0 0-.3-.6s-1.9-.4-1.9-.4-.4-1.5-.4-2.2v-1.9c0-.6.4-1 .4-1l-.7-1.2-5 4.5-14 12.3 18.1 2.5s2.3 2.9 2 3.4c-.3.4-1.3.7-1.3.7s1.9 2.5 2.9 5-1.8 8.5-1.8 8.5l9.8 6.9 1.2-4.4 3.9 3.1-2.3 1.6v1.5l-3.1 5.3-3.2 6.7-1.8 7.7h1.8v3.1h-1.3v1.3s-2.5 1.3-3.2 2.3c-.7 1 1.5 2 1.5 2s.3 1.2 0 2c-.3.9-1.2.6-1.5 1.5-.3.9 1.6 0 1.5 2-.1 2-1.2 1.9-4 2.2-2.8.3-3.5.1-3.7 1.8-.1 1.6 2 3.1 3.2 3.1 1.2 0 2-.7 2.9-.7.9 0 1.3.4 1.5 3.4.1 2.9-1.3 3.7-2.9 3.5-1.6-.2-1.6 2.1-4.2 1.9-2.6-.1-2.2-3.8-2.2-5 0-1.2.3-1.8-.7-2.3-1-.6-4.2.7-5.6 2.6-1.3 1.9 1.6 3.8 2.5 4.3.9.4.7 1.2 1.3 1.8.6.6 0 1.8-2 2.3-2 .6-3.1-1.6-4.7-2-1.6-.4-1.8.6-2 2.3-.3 1.8-1.9 4.4-3.1 3.9-1.2-.5-2-.6-2-2.5s1-4.1 1.6-5.3c.6-1.2 2.6-.3 3.7-.3 1 0 .7-1.2.7-2.9 0-1.8-2.3-1.5-5.3-1.5-2.9 0-2.8 1-3.2 2.8-.4 1.7-.1 1.6-.1 2.3s-.7 1.8-1.3 1.8c-.6 0-1.2 1-1.2 1l.1 2.5c0 .5-1.6 1.9-1.6 1.9-2 1.6.7 3.4 2.6 3.4 1.9 0 3.8.7 2.6 2.9-1.2 2.2-3.8 2.3-5 1.1-1.2-1.2-2.3-4.2-2.6-4.9-.3-.7-.7-.1-1.2 0-.4.1-1.2 1-1.2 1l-.9 4.1v3.4l1.6.1 1 1 3.1-.9.7 1.2 3.7 1.3v1.3l1.8-.7.7 2.6 1.5 1 2.5-1.5 1 .1.6-.8-1.8-1.8 11.4-4.1.9 2.8 2-.3 1.8.6 3.2.1v1.3l2.6 1.4h5.8l-2.5 3.6-1.8.7-.1 3.3s5.3 2 5.7 2c.4 0 3.2-1 3.8-1l2.2-.1 1.2-.8s9.5-3.4 9.9-4c.4-.6 5 2.9 5 2.9h2l19.2 9.7.5-.8 4.8-7.5h3.8l3.8-5.8-1.9-5.1 1.9-2.6h4.3l11.2-18.1 13.5-21.9 20.4-33.1L489 228z"/>
</g>
<g id="P144" class="small-box pkr">
<path class="st1" d="M699.7 117.5l.4-.3-.4.3zM394.1 235.4l-1.2 4.4-9.8-6.9s2.8-6 1.8-8.5c-1-2.5-2.9-5-2.9-5s1-.3 1.3-.7c.3-.4-2-3.4-2-3.4l-18.1-2.5 14-12.3-7.8-6.8-.6-4.1-2.2-1.6 3.8-4.8-.6-5.8-5.1-.3.2.8.5 1.9-2.8 2.9-1.4 2.8-1.4 2.9-.7 12.1-2.8 1.4-3.6 2.8-5 2.1-4.3.7-2.1 2.1-.7 2.9-4.3 2.1-2.1.7-3.6 11.4.7 6.4-1.4 5-2.1 9.3-2.1 5.7.7 5.7.6 2.8.2.8-.7 2.9-5.7 1.4-.7 2.1 1.4 5 2.1 3.6 5.7 3.6 7.1 2.1h3.6l.7 3.6v6.4l-2.1 3.6-3.6.7-3.6-1.4-2.1-.7-4.3.7-2.1 2.9 4.3 1.4-2.1 2.1 4.3 2.1 6.4 5 5.7 6.4h2.8l2 1.6 1.3.5.8 1.4 2.2-2.9-2.8-2.6s-3.5-4.4-3.2-5.4c.3-1 2.3.6 2.3.6l2 .2v-3.4l.9-4.1s.7-.9 1.2-1c.4-.1.9-.7 1.2 0 .3.7 1.5 3.7 2.6 4.9 1.2 1.2 3.8 1.1 5-1.1 1.2-2.2-.7-2.9-2.6-2.9-1.9 0-4.6-1.8-2.6-3.4 0 0 1.6-1.5 1.6-1.9l-.1-2.5s.6-1 1.2-1 1.3-1 1.3-1.8-.3-.6.1-2.3c.4-1.7.3-2.8 3.2-2.8 2.9 0 5.3-.3 5.3 1.5s.3 2.9-.7 2.9-3.1-.9-3.7.3c-.6 1.2-1.6 3.4-1.6 5.3s.9 2 2 2.5c1.2.5 2.8-2.1 3.1-3.9.3-1.8.4-2.8 2-2.3 1.6.4 2.6 2.6 4.7 2 2-.6 2.6-1.8 2-2.3-.6-.6-.4-1.3-1.3-1.8-.9-.4-3.8-2.4-2.5-4.3 1.3-1.9 4.5-3.2 5.6-2.6 1 .6.7 1.2.7 2.3 0 1.2-.4 4.8 2.2 5 2.6.1 2.6-2.1 4.2-1.9 1.6.2 3.1-.6 2.9-3.5-.1-2.9-.6-3.4-1.5-3.4s-1.8.7-2.9.7c-1.2 0-3.4-1.5-3.2-3.1.1-1.6.9-1.5 3.7-1.8 2.8-.3 3.8-.1 4-2.2.1-2-1.8-1.2-1.5-2 .3-.9 1.2-.6 1.5-1.5.3-.9 0-2 0-2s-2.2-1-1.5-2c.7-1 3.2-2.3 3.2-2.3v-1.3h1.3v-3.1h-1.8l1.8-7.7 3.2-6.7 3.1-5.3V240l2.3-1.6-4.4-3z"/>
</g>
<g id="P146" class="small-box ppbm">
<path class="st1" d="M419.4 372.6l1.8-5.5 2.9-7.5 1.5-8.8-2.4-1.9h-3.5l-3.7 2.6-5.3-2.6V347h-1.9l-2.3-10.5-6 2.5v1.8l-2.5.6h-.9c-.4 0-1.3-.6-1.3-.6h-1.3l-1.6-1-2.2 1-1.5 1-2.3-1v-1l-3.4-3.2v-2.3l1-1.2 2.9-3.4-2.5-2.2-.7 1.6-6.6-1.6-5.7-.7h-2l-2-2.5-3.9 2.5-2.3 1.6-2 1.5-5.8-7.2h-1.2l-2.6.7-2.6-3.3-.9.6-2 .5-.9 2.2-.5 2.2 2 2.5 3.4 3.8 4.7 2.9.7 1.6 3.2 3.4 2.5 1.8 1.1.7 2 2.5 3.4 2.7 1.8 1.3 1.3 1.1 1.1.2v.7l2.2.7.7 1.4 1.3 2 2 3.6 2 3.6 1.6 2.9 4.3 6.1 3.9 5.6 2.3 2.3 2 2.2 3.9 2.9 1.3.7 3.1-2.5 3.4-2 3.4-.4h1.6l3.9-.2 2.5.4 1.3-.7 1.3.7.8-4.3.2-3.2z"/>
</g>
<g id="P145" class="small-box dap">
<path class="st1" d="M699.7 117.5l.4-.3-.4.3zM352.6 322.7h1.2l5.8 7.2 2-1.5 2.3-1.6 3.9-2.5 2 2.5h2l5.7.7 6.6 1.6.7-1.6 2.5 2.2-2.9 3.4-1 1.2v2.3l3.4 3.2v1l2.3 1 1.5-1 2.2-1 1.6 1h1.3s.9.6 1.3.6h.9l2.5-.6V339l6-2.5 2.3 10.5h1.9v1.9l5.3 2.6 3.7-2.6h3.5l2.4 1.9.1-.6 11.5-20-19.2-9.7h-2s-4.5-3.5-5-2.9c-.4.6-9.9 4-9.9 4l-1.2.8-2.2.1c-.6 0-3.4 1-3.8 1-.4 0-5.7-2-5.7-2l.1-3.3 1.8-.7 2.5-3.6h-5.8l-2.6-1.4v-1.3l-3.2-.1-1.8-.6-2 .3-.9-2.8-11.4 4.1 1.8 1.8-.6.8-1-.1-2.5 1.5-1.5-1-.7-2.6-1.8.7V312l-3.7-1.3-.7-1.2-3.1.9-1-1-1.6-.1v1.7-1.7l-2-.2s-2-1.6-2.3-.6c-.3 1 3.2 5.4 3.2 5.4l2.8 2.6-2.2 2.9.1.2-.7.5 2.6 3.3 2.7-.7z"/>
</g>
<g id="P147" class="small-box bn">
<path class="st1" d="M498.9 342.8v-2l.6-.7-.6-1-.8-2.2-4.1-.9-2.2-2.8c-.7-.9-.9-.6-1.6-.6-.7 0-.9-1-.9-1.6 0-.6 1.5-1.3 1.8-2 .3-.7 1-.7 1.3-1.5.3-.7-.4-2.9-.4-2.9h2.6l3.4-3.2s.4-.9 0-1.4c-.4-.5-1.8-.7-2.9-1-1.2-.3 0-1 0-1l-14.3-12s-2-.3-2.8-.6c-.7-.3-1.2-2.2-1.2-2.2l-11.1-12.8-11.2 18.1h-4.3l-1.9 2.6 1.9 5.1-3.8 5.8h-3.8l-4.8 7.5-.5.8-11.5 20-.1.6-1.5 8.8-2.9 7.5-1.8 5.5-.6 3.1-.9 4.2h.7l2.9.1 6.5 1.6 6.6 2.5 5.4 2.9 4.1 1.8 3.6 2.9 6.1 4 .6.5 1-1.2h5.4l3.9-2.3V390l1.6 1.5 1.6-1.5 1.2-3.2-.9-.9.3-3.1-5.4-2-2.1-6.7-.1-.2h-3.3l-1.3-1.8 1-3.7-1-2.5 2.6-2.3-1.8-2.6 5-5.3.7-3.8h1.5l2.9-3.4h1.8v-1.6l6.7 3.8 1.5 5.3 3.7.9 1.9-1.4v-2.3l13.6.3-1.8-3.8 4.1-2.8.4.2.2-1.5V344l-.3-.3c-.1-.2-.3-.5-.2-.9z"/>
</g>
<g id="P148" class="small-box bn">
<path class="st1" d="M572.6 335.7l-2 .9-7.3-10.9-14.9-22.3.6-8.6-3.7-5.1 1.3-4.2-20.6-5.3h-.3l-5.1-.7h-15.1l-11.1-3.4h-4.1l-11.2-7.6-13.5 21.9 11.1 12.8s.4 1.9 1.2 2.2c.7.3 2.8.6 2.8.6l14.3 12s-1.2.7 0 1c1.2.3 2.5.5 2.9 1 .4.5 0 1.4 0 1.4l-3.4 3.2h-2.6s.7 2.2.4 2.9c-.3.7-1 .7-1.3 1.5-.3.7-1.8 1.5-1.8 2 0 .6.1 1.6.9 1.6.7 0 .9-.3 1.6.6l2.2 2.8 4.1.9.8 2.2.6 1-.6.7v2c-.1.4.1.7.2.9l.3.3v1.8l-.2 1.5 5 2.8 4.5 2.5-3.2 5.3 8.3 1.3 2.5 2.5v4.4l4.5-.3.9 5 2.5 1.9-1.3 2.9 1.3 1.2 2.2-.1v2.3l1.2-.3 2-2 2.6.7-.9 2.9 3.4 6.3-2.6.3.3 4.1 2.3 1.2v2.5l2.8 2.3.5.4 3.2-1.4 2.6-1.6 1.6.6 8.5-4.3V383l2.1-1.5-1-1.8h2.2l-3.3-3.5 3.1-6.4 1.8-1.9-.7-1.2-5.9-2.8v-4.6l2-1.3 2.8-1 2.7-1.9v-5.9l2.7-2.2h2.4l2.4-2.4 7.7-4.6.2-.1-2.4-4.2z"/>
</g>
<g id="P149" class="small-box ppbm">
<path class="st1" d="M534.9 394.6v-2.5l-2.3-1.2-.3-4.1 2.6-.3-3.4-6.3.9-2.9-2.6-.7-2 2-1.2.3v-2.3l-2.2.1-1.3-1.2 1.3-2.9-2.5-1.9-.9-5-4.5.3v-4.4l-2.5-2.5-8.3-1.3 3.2-5.3-4.5-2.5-5-2.8-.4-.2-4.1 2.8 1.8 3.8-13.6-.3v2.3l-1.9 1.4-3.7-.9-1.5-5.3-6.7-3.8v1.6h-1.8l-2.9 3.4h-1.5l-.7 3.8-5 5.3 1.8 2.6-2.6 2.3 1 2.5-1 3.7 1.3 1.8h3.3l.1.2 6.6-4.3 5.8-1.9 6.1.9-.9 3.8-1 1.8-2.2.7-.3.9h-.9v1.6h-.9v.9h-2.2l4.2 2.6h2.8l.3 4.5 5.4 3.1 3.9 11.1s15.2-.9 15.3 0c.1.9 1.8 2.8 1.8 2.8l3.8-.6 3.2 3.9 1.6-2.3 3.4-1 2.6 2.2 1.8.4v.7l5.1 1 7.2-3.2 1.2-2.2 2.3-2.5.3-2.2-2.7-2.3z"/>
</g>
<g id="P150" class="small-box pkr">
<path class="st1" d="M554.2 407v-16.5l-8.5 4.3-1.6-.6-2.6 1.6-3.2 1.4-.5-.4-.3 2.2-2.3 2.5-1.2 2.2-7.2 3.2-5.1-1v-.7l-1.8-.4-2.6-2.2-3.4 1-1.6 2.3-3.3-3.9-3.8.6s-1.6-1.9-1.8-2.8c-.1-.9-15.3 0-15.3 0l-3.9-11.1-5.4-3.1-.3-4.5h-2.8l-4.2-2.6h2.2v-.9h.9V376h.9l.3-.9 2.2-.7 1-1.8.9-3.8-6.1-.9-5.8 1.9-6.6 4.3 2.1 6.7 5.4 2-.3 3.1.9.9-1.2 3.2-1.6 1.5-1.6-1.5v2.8l-3.9 2.3h-5.4l-1 1.2.8.7 1.3-.4.7.8 1.1 1.2.2 2.3-.5 1.1-.9 1.3-1.6-.2.4 1.8 1.3 1.4v1.1l2 1.3 3.8 5.2 3.2 1.4 2.7 2 1.4 2 1.8.7.7 1.3 1.6.2 2.2-.4h10.4l4.5 2 1.6-.4 6.8 3.1 4.5 1.4 9.3 4.3 6.3 4.8 5 3.8 2.7 1.3 1.1 1.6 3.9 2.9 5.7 4.9.9 1.3 4.5 2.9 9.2 5.1.5-1.6h4.4v-7.9l-2.7-8.1 5.6-18 2.2-2.6 3.7-9.2-12.9-5.7z"/>
</g>
<g id="P151" class="small-box ppbm">
<path class="st1" d="M703.1 403.9l-1-2.2v-1.4l-1.3-.9v-1.9l-1.1-1.4s-1-1.4-1.2-2c-.2-.5-1.5-2.8-1.9-3l-1.6-.4-2.2-.9-1.5-1.2v-3.4l-2.4-.4-1.5-1.2v-1.8l-1.6-1.5-1.6-1.6-.2-1.8-1.1-.1-.3-1.6h-1.9l-1.5-1.8c-.4-.6-1.2-.3-1.9-.3s-.2-1.8-.2-1.8l-1.3-.7-.1-2.7c-.1-.2-.5 0-.9.3l-.4.3-10.5 7.3-6.4-8.3-11 6.2-4.2-2.8 2.1-2.1-4.2-1.9-4.1-6.4 1.5-.9-2.6-3.2-14.1 10.6-1.3-.1-2.5 1.8-11 8-3.7-4-4.5 3-1 .3-.2-2.2-.7-1.2-1.1-2-1.1-.3-.3-1.2-3.4-4.5 3.2-1.9-1.4-2.7-.2-1.4 1-1-1-1.4 1.5-1.3-1.5-.5c-.5-.1-1.2-.7-1.2-.7s-1.3.7-1.5.2c-.2-.4-1.1-.1-1.1-.1l-3.6-5.4c-.2-.3 2.3-1.3 2.3-1.3l-.9-2-2.3 1.2-5.9-7.8-1.9 1.4-.2.1-7.7 4.6-2.4 2.4h-2.4l-2.7 2.2v5.9l-2.7 1.9-2.8 1-2 1.3v4.6l5.9 2.8.7 1.2-1.8 1.9-3.1 6.4 3.3 3.5h-2.2l1 1.8-2.1 1.5v24l12.5 5.6 11.2 5 5.9 1.5 27.6 12.5.3.3 14.3-18.1 8.8-7.3 1 .9 1.1-.3 2.5 4.3s13.5-10.5 13.8-10.5h4.7l.7-.8 5.6 1.2c.5.2 2.5-.3 2.5-.3l1.8 1 2.6.1 1 1.3h1.4l2.2 1.8 5.3.3 1.4-1.4 3.4-.7 8.8-1.4 6 3 4-.3-1.7-.8z"/>
</g>
<g id="P152" class="small-box dap">
<path class="st1" d="M612.6 359.9l-2.3-2.9-4.7-5.7 13.7-9.6.7-7h3.6l.7-5.1-.7-1.6.7-2.6-6.9-8.9h-3.7l-4.5-3.6-5.1-3.7-9.2-2.5-1.6-1.8v-5.5l-2.6 2.2-5.1 5h-.7l-1.8 3.5 1.8 1.2-5.3 3.8-1-1.3-2.5 2.9.7 3.5-2.3.6.7 1.9-2.5 1.9-.9-1.9-3.2 2.3-1.8-1.5-3.6 2.3 7.3 10.9 2-.9 2.9 4.2 1.9-1.4 5.9 7.8 2.3-1.2.9 2s-2.5 1-2.3 1.3l3.6 5.4s.9-.3 1.1.1c.2.4 1.5-.2 1.5-.2l1.2.7a8 8 0 0 1 1.5.5l-1.5 1.3 1 1.4-1 1 .2 1.4 1.4 2.7-3.2 1.9 3.4 4.5.3 1.2 1.1.3 1.1 2 .7 1.2.2 2.2 1-.3 4.5-3 3.7 4 11-8 .4-3.7-4.7-5.2z"/>
</g>
<g id="P153" class="small-box bn">
<path class="st1" d="M700.9 243.5l-2.5-22.8.3-1.2-.9-1.5.1-3.5 1.6-3.4-30 11.7-25.7-18-26.6 5-26.2 25-37.6 14.8-4.8 3.4h-7.5v2.8l-14.9 8.5-.8 15.9h.3l20.6 5.3-1.3 4.2 3.7 5.1-.6 8.6 14.9 22.3 3.6-2.3 1.8 1.5 3.2-2.3.9 1.9 2.5-1.9-.7-1.9 2.3-.6-.7-3.5 2.5-2.9 1 1.3 5.3-3.8-1.8-1.2 1.8-3.5h.7l5.1-5 2.6-2.2v5.5l1.6 1.8 9.2 2.5 5.1 3.7 4.5 3.6h3.7l6.9 8.9-.7 2.6.7 1.6-.7 5.1H620l-.7 7-13.7 9.6 4.7 5.7 2.3 2.9 4.8 5.1-.4 3.7 2.5-1.8 1.3.1 14.1-10.5 2.6 3.2-1.5.9 4.1 6.4 4.2 1.9-2.1 2.1 4.2 2.8 11-6.2 6.4 8.3 10.5-7.3.4-.3.1-.2v-12h5.6l-1.8-34.5v-.1l16.9-69.4-1.2-6.6 2.9-1.9h3.7z"/>
</g>
<g id="P154" class="small-box bn">
<path class="st1" d="M699.7 117.5l.4-.3-.4.3zM781.2 207.1l.5.6-.5-.6zM771.5 167.1c1.1.9 0 0 0 0zM842.6 321.2l-.4-.1-.4-.6s-.7-.9-2.3-3.8l-1.6-2.9-5-5.2-1.6-6.3-2.3-8.1-2.7-4.5-2-3.2-1.8-2s1.4 2-2.7-3.4l-4.1-5.4-3.4-2.5-2.3-4.1-1.1-3.4v-2.3l.2-3.6V253l1.1-.7 1.4-.2 2.9 1.1s2.3 2.7 2 .9l-.2-1.8-3.4-4.1-1.8-2.9-4.7-7.9.7-2.5s-.5-1.8.7-2.3l1.1-.4-2-2.7-4.5-4.1-3.6-3.6-5.4-2.3-2-1.8s2.3.7-2-2.7l-4.3-3.4s2.3 4.1-2.3-1.8c-3.3-4.2-2.5-3.5-1.9-2.8l-3.6-4 1.1-1.8-1.6-4.1-2.9-2.7-2.3-2.9-2-1.6-1.8-2.9-1.1-2.9-.2-2.9-2.3-4.3-1.1-2.7-.2-2.9 2.9-1.4 3.2-.2 1.4-.7.9-1.9-1.5-1.2c-3.4-2.7-3.4-2-3.4-2l-.2-1.8-.7-1.4-1.8-4.5 1.8-1.1-1.1-2.7-1.8-2.7.2-1.6-1.1-2.5 1.1-.2s2 .2 1.8-.9l-.2-1.1-1.4-.7-.9 1.4h-1.6s.7 1.1-1.6-.2l-2.3-1.4-2.7-2.5-1.8-2.3-2-2.3-.5-2-.9 1.1-2.5-.5-1.4-2-1.6-1.1 1.1-1.8 1.1-1.6-1.6-2v-2.9l-2.3-1.4-2 .9-.7 1.8-.7.2-.2 2.5-2 .5-4.1-.2-3.8-.5-2-1.6-4.7-2.5-2.3-.7-3.8-2.7-3.4-2-1.6-2.3v2l-1.6 1.1-.7-.1h-.2l-1.8-.2-2.7-1.4s2.3-1.4-1.6.2c-1.8.8-2.4.9-2.4.9l-2.5 1.6-1.6-2s1.1-2.5-2.5-.9c-3 1.3-2.6.9-2.3.7l-3.1 2.2.2 4.1 1.6 4.5 3.4.7h4.7l-2.3 1.8-.2 1.8 2.7 1.1 1.4 1.6-.9.9-2.5.9-.7 2.5.7 1.1 3.8 1.1v.7l-1.8 1.1-3.2-1.1h-1.4l-2 1.4-1.4 2.9.2 1.6s-.7.5.7.2l1.4-.2.9-2.5 2-.2.9 1.6-.2 2.9.2 2-.9 1.1-1.1-2.3-.9-.9-.9 1.1-1.8 2-2 1.4v2l1.1.7s-1.4-.2-1.8 1.4l-.5 1.6.7 2 1.8.5 2.5-.9s.2.9 2.3 0l2-.9 1.4-.2-.9 2.3-.7 1.1v1.6l1.6 1.6 1.8 2.3.7 2.5-.2 1.4.9 2.7H702.6l-.7 2.7-1.4 2.5s0 .2-1.8 1.6l-1.8 1.4-2.5-1.1-.7-1.6-.9 1.4.2 1.8h-2.3l-34.9-17.8-5.2-3.2-6.5-5.2-4.5-3.4-4.1-2.7-3.4-.7-3.4-.2-4.1-2.5-8.8-3.4-7-4.1-16.2 3.4-5 1.3-.5.1 29.5 64.1 26.6-5 25.7 18 30-11.7-1.6 3.4-.1 3.5.9 1.5-.3 1.2 2.5 22.8h-3.7l-2.9 1.9 1.2 6.6-16.9 69.4 61 .3 95.7.4 1.5-1.5 2.7 2.4h1l2.1-1.6.6-.1z"/>
</g>
<g id="P155" class="small-box bn">
<path class="st1" d="M699.7 117.5l.4-.3-.4.3zM799.4 436.1h2.9l-2.6-1.5-2.8.8-2.5-1.8.4-2.8.3-2.2h-2.5l1.2-2.9-1.5-.1-1.3 3.1-1.3-2.5.6-2.8-1.3-3.1h5.6l2.8-.7.6-4.4 1.8-.7.9-4.5 3.2-3.8-14-15.5-11.7 3.2-6.3-5-11-3.5v-5.1h-1.8l-.7-3.4.7-1.2-19.3-54.1-61-.3v.1l1.8 34.5H675v12l-.1.2c.4-.2.8-.5.9-.3l.1 2.7 1.3.7s-.4 1.8.2 1.8c.7 0 1.4-.2 1.9.3l1.5 1.8h1.9l.3 1.6 1.1.1.2 1.8 1.6 1.6 1.6 1.5v1.8l1.5 1.2 2.4.4v3.4l1.5 1.2 2.2.9 1.6.4c.3.1 1.6 2.4 1.9 3l1.2 2 1.1 1.4v1.9l1.3.9v1.4l1 2.2 1.5.7 1.2.5-.7 1.2 4.5 10.5 2.6-.9 4.4 7.9-2.6 1.3 4.2 5.4 12.9 17.3 5.6-2.9 8.8 1.2v3.9s1-1.2 1.5-1.5c.4-.3 2.3.6 2.3.6v1.5l-1.5.6.7 1.8.7 2.6 6.4 1.3 7.7 3.1 8.9 8.8 1.6-1.3 2.3 1.5 1.9-1.6.7 1.3 3.4-2.6 2.2 1.3 3.5-5.4-5-4.2 2.3-2.6 1.6-.4 1-2.9 1.8-.3v-3.9l1-.4-.7-2.8 2.3.7.9-.7h1.8l.9 1.2 1 1.9 1.5-1.5.9.9v.4l2-1.7-.1-2.5-.9-1.9 2.2-1.9-3-3.2z"/>
</g>
<g id="P156" class="small-box bn">
<path class="st1" d="M781.2 207.1l.5.6-.5-.6zM771.5 167.1c1.1.9 0 0 0 0zM888.2 417.7l.5-3.2-3.4-6.1-1.1-3.6-7.2-8.8-2.5-4.5-3.2-4.7-6.1-1.1-2.7-3.4-4.3-6.5-.9-4.7v-4.7l1.4-4.7 2.5-1.1.9.9-1.4-2.7-.2-2.5 2.5 2.9 1.1 3.2 2.9-.5-2.7-6.5-3.4-3.2.5-3.8-.9-1.1-1.8-2.5-2.9-3.6s.5 1.1-2-3.2c-2.5-4.3-2.2-3.4-2.2-3.4l-1.4-2.7-3.4-4.3-2.5-3.4-1-1.4-.4-.6-.2-.7-2.1 1.6h-1l-2.7-2.4-1.5 1.5-95.7-.4 19.3 54.1-.7 1.2.7 3.4h1.8v5.1l11 3.5 6.3 5 11.7-3.2 14 15.5-3.2 3.8-.9 4.5-1.8.7-.6 4.4-2.8.7H789l1.3 3.1-.6 2.8 1.3 2.5 1.3-3.1 1.5.1-1.2 2.9h2.5l-.3 2.2-.4 2.8 2.5 1.8 2.8-.8 2.6 1.5h-2.9l3.1 2.9-2.2 1.9.9 1.9.1 2.5-2 1.7v2.1s.1.6 1 .4l3.4-.1s2.9 2.3 3.2 2.8c.3.4 2.6 1.8 2.6 1.8l4.5 1.2 1.2 2.8-2 3.4.7 2 2.3 4.4 1.9 3.4 3.4 1.3 3.8 3.2 1.2 3.7 2.6 4.2-.7 3.6 4.1 1.2 2-3.5 4.1.9 1.2-.9.7-4.1 6.7-.7-2.6-7.9h-1.2l-2.5-6.4-5.4 2.2-.6-10.1-1.6 1.6-.9-1.6-5.8-4.8v-3.2l3.7-3.4h17l2.3 1.6 1.9.6h1.2l2.8-2.9 5.6 2.8V444.1l.7-3.2h1.2v-.9l1.6-2.5 2.8-3.1 2.6 1.8-1.8 1.9-.4 2.9 2.2 2v2l.6 1.2.9-2.2h1.8l15.8-24.1-.9-2.2z"/>
</g>
<g id="P157" class="small-box bn">
<path class="st1" d="M915 522l1.4-.7 3.2-1.8.7-1.1-1.6-4.1-4.7-6.5-.9-8.4 1.8-1.6.7.2h1.1l.9-1.6-1.1-2.9-1.1-1.8-2-.9-.7-1.1-.5-1.4-3.2-4.7-1.8-4.1.7-3.6 1.6-1.6.7-1.1-1.2-.2-1.8-3.8v-2.9l1.4-.5 2.5-.9-2.5-2.5-2.5-3.2-1.8-4.7.9-2 .5-1.1-.9-1.4-1.4-1.1-3.4-4.1-4.5-7-2-4.1 2-3.2-1.8-2.9-3.1-3.8-1-1.2-.7-2.7-15.9 24.2h-1.8l-.9 2.2-.6-1.2v-2l-2.2-2 .4-2.9 1.8-1.9-2.6-1.8-2.8 3.1-1.6 2.5v.9h-1.2l-.7 3.2V448.4l-5.6-2.8-2.8 2.9h-1.2l-1.9-.6-2.3-1.6h-17l-3.7 3.4v3.2l5.8 4.8.9 1.6 1.6-1.6.6 10.1 5.4-2.2 2.5 6.4h1.2l2.6 7.9-6.7.7-.7 4.1-1.2.9-4.1-.9-2 3.5-4.1-1.2 2 4.8v2.3l2 8.2-1.5 6.6-.5 7.6.4-.4.8-.4h.1l2.2 9.3-1.2-5.9-1-3.4 2.5-1.2 2-.9 2.3.7 1.8.7 2.3.7.7 1.6-.4.9.4 2 2 .7s1.8 1.4 2.5 1.1c.7-.2 3.2 0 3.2 0l2.3 1.8 1.1 2.3 2 3.2 1.6 1.6v2.3l2-1.4.9 3.2-2 1.1-.9 1.8-2 1.4-2 2.9v1.1l2.7.4 3.4 2.3 4.1 1.8h2.3l3.6 4.5 3.6-2.5 2.9.7 1.4 2 2.5-2.3.9-1.1 1.1-.4 1.3 1.4.7-.9.9.5 2.7 1.1.9 1.1 2 1.4 2-1.6 2-1.6 2.3.2 1.4-1.8 2.9-2.9 3.4-2.9 1.6.5.5 1.4.2 2.3 2.3.2 1.8-.9 2-.9s0 .7 1.4-.4l1.4-1.1.9-1.1-.7-1.6-.5-.9-1.6-10.1-.9-1.4.9-2 1-4.7z"/>
</g>
<g id="P158" class="small-box pkr">
<path class="st1" d="M710.7 465.6l1.4 1.9 8.2-6 2.5 3.7 1.7-1.4-2-2.3 8.8-6.4h5.4l-5.6-7.3 5.6-3 8.7 1.2v4l1.5-1.5 2.3.6v1.4l-1.6.9.9 1.6.7 2.5 6.5 1.3 7.7 3.1 8.9 8.8 1.6-1.4 2.4 1.5 1.9-1.6.7 1.3 3.4-2.6 2.2 1.3 3.5-5.4-5-4.2 2.3-2.7 1.6-.4 1.1-2.9 1.7-.3v-4l1-.4-.7-2.8 2.3.7.9-.7h1.8l.9 1.2 1 1.9 1.4-1.5.9.9v2.5l4.4.3 3.2 2.7 2.6 1.8 4.6 1.2 1.1 2.7-2 3.4 5 9.8 2.8 1.1 4.3 3.4 1.2 3.7 2.6 4.2-.7 3.6 2 4.9v2.3l2.1 8.2-1.5 6.6-.5 7.6-1.4 1.5-4.3.3-1.1.9h-.9l-.3-1.4.3-2-2.5.9-.9.7.4 2.4.9.3.7-.5 1.1.5-2.7 2.7-1.5.4-1.2 1.2-1.1.2-1.8-1.6-1.1 1.4-3.9.2-.6-1.1h-1.6l-2 .6h-.9l-2.3-1.6-4-.1-1.3-3.9 3.8-1.7-.5-9.5h-.8v-1.6l-.7-.6h-2.5l1.6-3.1v-8l-.7-1h-3.4v-5l1-1.8.6-1.9-6.7-.5-1.7-2.6-6.2.8-1.7 4.2-10.1-5-2.1 2.3.9 1.1-1.5 1.6-2.3-1.3v3.1l-1.7-.4-4.1-4.1-2.5 2-4.2 5.1v2.3l-2-.5-4.9 1.7-1.5 1.2-1.9-1-2.9 1.7-1.2-2.3-2.6-2.9-3.1-1.9-3-.9h-2.1l-1.4-1.8h-2.1l-8.5-8.6-3.3-1-2.7-4.8-1.4-4.3z"/>
</g>
<g id="P159" class="small-box pkr">
<path class="st1" d="M699.7 117.5l.4-.3-.4.3zM771.5 167.1c1.1.9 0 0 0 0zM800.2 516.9l-.6-9.5h-.7v-1.6l-.7-.6h-2.5l1.6-3.1v-8l-.7-1h-3.4v-5l1-1.8.6-1.9-6.7-.6-1.8-2.5-6.1.8-1.8 4.2-10.1-5-2 2.2.9 1.2-1.5 1.6-2.3-1.3v3.1l-1.8-.4-4.1-4.1-2.5 2-1.8 2.2-2.4 2.9v1.8h-2l-5 1.8-.6.5v1.3l1.3 1.7 2.9-1.7 2.3 3.4 2.6.6c.4 0 .3-.4 1.5 0s1.9 1.1 1.9 1.1v3.8l.9.4 2.2.4 2.7.4 2-.5 2 1 .9 1.1 1.6-.5 1.6 1.1 1.1-.2 2.3 1.4 2 .5.9.2s1.8.2 2.5.7l2 1.6v2.5l1.1.2.7 1.4 1.6 2.3.2 1.4.7-.2.7.5 1.4.2.9.7.5-.9 1.1.5-.2 1.1 2 .4.9-.7 1.4.2 2.5.4 1.9.1c-.5-1.5-1.1-3.3-1.4-3.6-.7-.6 3.8-2.2 3.8-2.2z"/>
</g>
<g id="P162" class="small-box dap">
<path class="st1" d="M723 516h-2.2l-3.4-5-3.4 1.3-1 .5h-1.3l-1.2.7-1.8-1-4.1-1.5-.4-1.3h-1.3l-1.9-1.2h-1.2v-1.8h2.9l.9-2.3h1l3.1-4.5h1.5l1.5-2.2 6.6-4.1 5-7.3-8.5-8.6-3-.6-1.5 4.2v4l-2-1.3-2.2 1.2v1l-1.5 1-2-.6-1-2.8-2.8-2.5.6-1.4v-2.6l-2.4-.3v-1.2h-3.7l1.6-3.7h-1.6l-1.9-.7-1.3 1.2V469l-1-1.3h-12.9l1 3.7h.6l.1 2.2 2.6 1.5.1 2.5 1.6 1.6-.7 2.3 2.5 3.1-.7 18.6 4.7 4.5h-7.9l-3.9 5 .6 2.3-2.1 6.6-2.1 7.9-2.2 7.7 1.1 7.3 2 2.3v2.9l2.2 1.5 1.4 1.7 2.9 1.2 1.4-1.4 3.8-.8 6.8-.6 3.4-1.3 1.1.7-.2-1.4.9-.4 2.7-2 2.5-1.6 3.4-6.1 2-1.6 1.1-3.1 1.3-2.2 5-6.5.2-3.1.7-.5 1.1-2h1.4l2.2-1.6.9.2-.5-2 1.6.7 1.2-1.5zm-43.6 35.9l-2.6-2.4 1.4.5 2.9 1.1-1.7.8z"/>
</g>
<g id="P161" class="small-box amanah">
<path class="st1" d="M699.7 117.5l.4-.3-.4.3zM741.6 508.7l-2-.9-3.5-1.2.9-2-2-.7-5.4 1.6-3.4-1.2v-3.8l2.3.7.9-3.3h4.3l2-1.8h2s-.4-1.1-.9-1.8c-.4-.7-2.9-3.4-2.9-3.4l-3.1-1.9-3.1-.9h-2l-1.5-1.8h-2l-5 7.3-6.6 4.1-1.5 2.2h-1.5l-3.1 4.5h-1l-.9 2.3h-2.9v1.8h1.2l1.9 1.2h1.3l.4 1.3 2 .9 2 .6 1.8 1 1.2-.7h1.3l1.9-.9 2.5-.9 1.9 2.8 1.5 2.2h2.2l1-1.3 3.9-2.3 1.6.4 3.9.4 2.9.7 2.5.4 4.5 1.4 2.1-.3.4-.1.7-.4-4.7-6.2z"/>
</g>
<g id="P160" class="small-box pkr">
<path class="st1" d="M771.5 167.1c1.1.9 0 0 0 0zM754.1 500.1c-1.2-.4-1 0-1.5 0l-2.6-.6-2.3-3.4-2.9 1.7-1.3-1.7V494.7l-.9.7-1.9-1-2.9 1.7h-2l-2 1.8h-4.3l-.9 3.3-2.3-.7v3.8l3.4 1.2 5.4-1.6 2 .7-.9 2 3.5 1.2 2 .9 4.9 6.2.5-.3.7-1.1 2.2-1.1.9-1.4 3.2-1.1 1.3-1.4.2-1.3-1.6-1.1.4-1.3.5-.4 1 .5.1.1v-3.8s-.8-.7-1.9-1.1z"/>
</g>
<g id="P163" class="small-box dap">
<path class="st1" d="M699.7 117.5l.4-.3-.4.3zM771.5 167.1c1.1.9 0 0 0 0zM736.7 455.1l-5.6-7.3-12.9-17.3-4.2-5.4 2.6-1.3-4.4-7.9-2.6.9-4.5-10.5.7-1.2-1.2-.5-4 .3-6-3-8.8 1.4-3.4.7-1.4 1.4-5.3-.3-2.2-1.8h-1.4l-1-1.3-2.6-.1-1.8-1s-2 .5-2.5.3l-5.6-1.2-.7.8h-4.7c-.3 0-13.8 10.5-13.8 10.5L637 407l-1.1.3-1-.9-8.8 7.3-14.3 18.3 28.6 23.5 4.2 3.4 13.8 14.5h2v8l1.5 5h2.6l.9 3.7 2.9 1.8v1.5h5l9.6-1.2.3-7.7-2.5-3.1.7-2.3-1.6-1.6-.1-2.5-2.6-1.5-.1-2.2h-.6l-1-3.7h12.9l1 1.3v3.7l1.3-1.2 1.9.7h1.6l-1.6 3.7h3.7v1.2l2.2.3v2.6l-.6 1.4 2.8 2.5s.6 2.8 1 2.8 2 .6 2 .6l1.5-1v-1l2.2-1.2 2 1.3v-4l1.5-4.2-2.9-5.3-.3-1.3-1.2-2.9 4.4-2 1.5 1.9 8.2-6 2.5 3.7 1.8-1.3-2-2.3 8.8-6.4h5.1z"/>
</g>
<g id="P164" class="small-box bn">
<path class="st1" d="M611.8 432l-.4-.3-27.6-12.5-5.9-1.5-11.2-5.1-3.7 9.2-2.2 2.7-5.6 17.9 2.8 8.1v7.9h-4.4l-.5 1.6 1.8 1 1.7.9 1.8-.3 3.4 1.9 1.8.9 4.4.9 6 2.2 3.9 1.1 2.9 1.6h3l1.7 1.4 3 1.6 2.9 1.1 3.4 2.5 3.9 2.4 2.9 1.4 4.3 3.6 3.2 2 2.5 3.2 3.8 3.6 1.5 3.1 2.6 3.4-1 1.6 2.1 3.6.4.8 1.2 2.4.6 1.8v-3.3l6-2.6-2.7-5.3-1.1-5.2-2.8-1.1 6.6-11.9 1.9-11.1 3.6-7.3 6.1-2.2v-4.3z"/>
</g>
<g id="P165" class="small-box ppbm">
<path class="st1" d="M699.7 117.5l.4-.3-.4.3zM672.1 527.7l2-7.6 1.8-5.3-.6-2.3 1.6-2.2 2.3-2.8h7.9l-4.6-4.5.4-10.9-9.7 1.2h-5v-1.6l-2.8-1.7-.9-3.7h-2.6l-1.6-5v-8h-2l-13.8-14.4-4.1-3.5v4.3l-6.1 2.2-3.6 7.3-1.9 11.1-6.6 11.9 2.8 1.1 1.1 5.2 2.7 5.3-6 2.6v3.3l1.2 4.5 1.1 1.8.2 1.1 1.8 2.9 1.4 1.9.7 2.4-.3 1.2.9 4.5 1.9 7.9 2.6 4.7 1.4 3.2.9 2.7-.2 2 2.2 4.5.1 1.6.4 2 .7 1.6 2.4.5 3 .6 1.4 2 2.6 2.3 3.4 3.6 1.6 3 .3 1.5 1.1-.4 1.4 1.6 1.8 1.7 2 1.9 1.3.9.5-.7-1.1-5.4.2-4.5 1.8-4.6 5.7-5.4 1.7-1.3 1.6-.9.7-1.2-.4-1.7-1.4-2.3-.5.2-.8-2.9-.3-1.6.7-2.7-1.1-7.4zM636.4 558.2l-1.1-.5-1-2.2-1.8-1.4-1.8.5 1.4 1.3-.2 2.1-.3 2-.8 2.4.2 2.3 1.6.5 2.4-1.2 2.3-1.6.6-2-.8-2.4z"/>
</g>
<g id="text">
<path class="frames" d="M842.5 321.4H909M623.8 508.4h-62.9M678.9 554.1l15.4 22.2"/>
<text transform="translate(389.7 130.4)" class="st4 st5">
      P140
    </text>
<text transform="translate(441.9 164.8)" class="st4 st5">
      P141
    </text>
<text transform="translate(540.6 206.7)" class="st4 st5">
      P142
    </text>
<text transform="translate(424.7 248.2)" class="st4 st5">
      P143
    </text>
<text transform="translate(350.6 248.2)" class="st4 st5">
      P144
    </text>
<text transform="translate(381.4 356)" class="st4 st5">
      P146
    </text>
<text transform="translate(386 331.5)" class="st4 st5">
      P145
    </text>
<text transform="translate(448.7 341.5)" class="st4 st5">
      P147
    </text>
<text transform="translate(522.2 325.2)" class="st4 st5">
      P148
    </text>
<text transform="translate(487 388.8)" class="st4 st5">
      P149
    </text>
<text transform="translate(497.8 421.3)" class="st4 st5">
      P150
    </text>
<text transform="translate(563.5 399)" class="st4 st5">
      P151
    </text>
<text transform="translate(590.6 337.7)" class="st4 st5">
      P152
    </text>
<text transform="translate(613.3 272.5)" class="st4 st5">
      P153
    </text>
<text transform="translate(738 230.6)" class="st4 st5">
      P154
    </text>
<text transform="translate(734 398.7)" class="st4 st5">
      P155
    </text>
<text transform="translate(824.7 392.2)" class="st4 st5">
      P156
    </text>
<text transform="translate(860.3 502.5)" class="st4 st5">
      P157
    </text>
<text transform="translate(785.3 480.3)" class="st4 st5">
      P158
    </text>
<text transform="translate(767.8 505.4)" class="st4 st5">
      P159
    </text>
<text transform="translate(679.7 524.2)" class="st4 st5">
      P162
    </text>
<text transform="translate(701.6 508.4)" class="st4 st5">
      P161
    </text>
<text transform="translate(734 504.6)" class="st4 st5">
      P160
    </text>
<text transform="translate(668.6 442.5)" class="st4 st5">
      P163
    </text>
<text transform="translate(579.8 455.4)" class="st4 st5">
      P164
    </text>
<text transform="translate(639 531.8)" class="st4 st5">
      P165
    </text>
</g>
</svg>