<svg xmlns="http://www.w3.org/2000/svg" version="1.1" viewbox="0 0 1240 640" preserveaspectratio="xMidYMid slice" id="svgP">
<g id="P4" class="small-box ppbm">
<path class="st1" d="M508.4 513.2l-1.4-1.5a18 18 0 0 1-2.2-4.4c0-.6 2.2-3.7 2.4-5.5.2-1.8-.9-2.1-.2-3.2.8-1.1 1.4-3.4 2.7-3.2l2.2-1.2s.6-1.8.6-2.7c0-.9.9-2.9-.2-3.2-1.1-.3-2.4-1.5-3.3 0-.9 1.5-1.3 3.2-1.9 4-.6.8-3.3 1.8-5.2 2.3-1.9.5-6.8-1.1-6.3 1.1.5 2.1.9 4.3.3 6.4-.6 2.1-1.9 5.3-2.4 5.5l-3 1.2s-1.3.9-1.3 2.1c0 1.2-.2 3.7 0 4.4.2.8 1.1 2 1.7 1.4.6-.6 3.3-1.1 2.7 0-.6 1.1-2.4.5-1.1 1.7 1.3 1.2 1.9 2.6 1.7 3.1-.2.5-3.5 2.6-1.4 3.4 2 .8 3 2.3 3.5.9s.8-3.5 1.7-3.2c.9.3 1.9 2.1 2.1 3.4.2 1.2 1.9 3.2 2.7 1.8.8-1.4 2.2-2.4 2.5-3 .3-.6 1.3-3.1 1.9-3.8.6-.8 1.1-.9 1.3-2.6.2-1.7-.2-2.1.5-2.7.6-.6 1.9-2.3 1.4-2.6-.4-.6-2 .1-2 .1z"/>
<path class="st1" d="M518.3 505.6c-.8-.8-.6-1.4.8-2.9s-.2-2.4-1.4-3.4l-3.5-2.7s-2.4.8-3 1.4c0 0-2.5 1.4-2.5 2.3 0 .9-.6 3.7-1.1 4.3-.5.6-1.4 2.9-.3 4.4 1.1 1.5 2.4 2.1 3.3 2.1.9 0 1.7-1.1 3-1.2 1.3-.2 2-.5 2.5.8l1.1 3s.6-.3 1.3-2.4c.6-2.1 2-2.3 1.4-3.8-.6-1.6-.8-1.1-1.6-1.9zM481.6 511.7c-1.7-.8-1.4-1.5-2.5-2.1-1.1-.6-1.7 0-1.9.5-.2.5-2.2.3-2.5 1.4-.3 1.1-1.6 3.5-1.6 3.5s-.6 1.7-.2 3c.5 1.4 1.6 3.2.9 3.7-.6.5-1.1 2.4.3 1.4 1.4-1.1 1.7-1.5 2.8-1.1 1.1.5 2.4 1.8 2.7.9.3-.9 1.6-2.4.9-3.4-.6-.9-2.8-2.1-1.9-2.9.9-.8 3-2 3-2l.3-1.1c.1 0 1.4-1-.3-1.8zM529.7 479a6 6 0 0 0 2.5-1.8s4.1-.6 4.9-1.8c.8-1.2.4-4.6.2-5.2-.2-.6-2.5-2.2-3.9-3.8-1.4-1.6-.2-1 .8-2.2 1-1.2 1-1.8 1.9-3.2.8-1.4.4-2.4.4-3.6 0-1.2-.6-2-1-1.4-.4.6-2.1 1.2-2.1 1.2s-.2-2.4-.8-4c-.6-1.6-1.4-2.6-1.8-4.4-.4-1.8-1.6-.8-2.5-1.8-.8-1-2.3-1-2.9-1.6-.6-.6-2.1-.8-3.9-1.8-1.9-1-3.3-1-3.1-2 .2-1 0-4 0-4s-.4-1.6-.4-2.2c0-.6-1.6-2.4-2.7-3-1-.6-3.5-1.2-5.6-3-2.1-1.8-2.3-.2-2.3-.2s-1 1.6-.8 2.6c.2 1 .6 2.8 0 3.8s-3.3 1-3.3 1l-3.3 4c-.6.8-2.1 3-2.5 4.2-.4 1.2-5.6.8-5.6.8s-1.2.4-2.5-.2c-1.2-.6-3.1.2-4.1.8-1 .6-1.6-.4-2.9-1.6-1.2-1.2-2.7 0-2.7 0s-1.2 1.6-1.9 2.2c-.6.6-2.1-.4-2.1-.4s-.4-1.6 1-2.6-2.3.6-2.5 0c-.2-.6-6.2-2-7.4-2.6-1.2-.6-4.7 1.2-6.4 1.2-1.6 0-3.3-1-3.3-1l-1.4 2.6s-1.9.6-4.5-1.6c-2.7-2.2-5.1-1.4-5.1-1.4s-.6 2.6-.4 5c.2 2.4.6 2.8.6 2.8v2.8l-.2 2-.2 2.6.2 3.4 2.3 5c.2.6 1.2 1.6 2.9 2 1.6.4 1.4-1.4 2.5-2 1-.6 1.6.6 1.6.6s1.6-.4 2.5-.8c.8-.4 1.6 1.2 1.9 1.8.2.6 2.9.4 3.9.4s3.3 0 3.9-.2l2.3-1s2.5 4 2.9 5.2c.3.8.3 2.9.2 4.9v.3l-.2 2.4c-.2 1.6.4 4.6-.6 6.2-1 1.6.2 2.2.6 3.2.4 1 2.1 2.8 2.5 4.2.4 1.4.2 3.6-.2 4.8-.4 1.2-.6 1.4-.4 2 .2.6 1 .6 1.8.8.8.2.8-1.2 1-2 .2-.8 1.2-.6 1.9-.8.6-.2 1.2-.2 2.3-1 1-.8.8-1.2 1.2-1.8l1.2-2 1.9-.2s1 .8 2.9.4 4.5-2.8 5.3-4c.8-1.2 2.5-1.8 3.5-2.6s1.9-1.4 2.3-2.8c.4-1.4.4-2 1.2-2.8.8-.8 3.5-.6 5.6-1.6 2.1-1 2.9.4 4.1 1 1.2.6 1.6 1.2 1.6 1.2s1.9.6 2.9 1.4c1 .8.6 4.2.6 4.2s2.5.6 3.1 1.4c.6.8 1.4.6 1.9-.2.4-.8.2-2.2.2-2.2l1.7-.6h.1l1.4-.4.7-.2c1-.2.6-1.4 1.6-3.4 1.1-2 1.3-.8 3-1.4z"/>
<path class="st1" d="M541.3 480l-1.5-.6s-2.2.9-3.4 1.2c-1.3.3-1.3 0-1.9 0h-3.7c-1.1 0-3.7 2.7-3.7 2.7l2.9.4h5.4c1 .1 0 .8.4 1.3s1.3.8 1.7.8 1 2.2 1.5 2.3c.5.1.7-1.3.7-2.4 0-1.1.8-2.4 1.2-3.1.4-.7 2.4-.2 2.9-.2.6 0 1.1-1 .5-1.6-.6-.5-3-.8-3-.8zM527.7 445c1.5 1.1 3 2.3 4 2.8 1 .6 1.1 1.8 1.5 1.8h1s.2-1.9 0-2.1l-1-1.3-.8-3.7-.6-3.3-1.7.6-.5-3.6-1.9-.7-1 3.7c-.2.9-1 1.4-.7 3.1.3 1.9.2 1.7 1.7 2.7zM538.3 441.3h-.8l-1.2 4.7-.6.9-1.1 4.3s1 2.6 1.4 2.6c.4 0 .5-3.3.8-3.5.3-.2.6-2.7.6-2.7l-.6-1.5 1.4-1.7v-3.1z"/>
</g>
<g id="P5" class="small-box ppbm">
<path class="st1" d="M542.2 132.6l-.1-4.8h2.5l.9-2.1-.4-.1H543l-1-1.2-1.8-2.6-2.4-2.4h-2.4l1-2.2-1-2.5 1-2.6-2.1-1.7-2.3 1.9-3.4 2.3-3.7 3.3-4.4 3.9-1.2-.2-1.2 1.6-3.2 3.9-4.8 7-2.7 2.1-2.6 2.6-3.7 3.2-1.9 4.6-1.6.5-2.8 3-4.6 4.6-2.1 3.9-3 1.9-.9 2.5-.7.7.4 1.4.2 3.2-.7 1.2-1.8 1.1.5 1.2 1.8 1.8 2.8 2.5.3.3 2.7 2.4 3.7 3.7 2.1 2.8 2.3 3.3 2.5 3.9 2.6 4.4 6.9-4.7v-2.5h1.2v-3.5h-1.6l.2-1.2 21.6-2.7 5.8 3.9-4.6-23.6-5.9 2.2v-9.3h1l1.3 4.3h2.2v-4.7l1.6.4 2.5 1.2 2.5-.7.3.7 1.9-.9h1.6l1-1.2s-1.8-1.3-1.5-1.6c.3-.3 1 0 1 0l1.2-1.3-.6-3.8h2.8l-.9-2.9-3.2-5.4 1.8-1.9.4-2.1h1.9V133h-3.1z"/>
</g>
<g id="P6" class="small-box ppbm">
<path class="st1" d="M616.5 103.6l.9-1.8h-.2l-3.7-2.1-3.2-.5-3.7-1.8-1.9-2.4-1.1-1.3-1.3 1.1-1.9.8-.8 1.8-1.9-2.4-2.4 1.6-2.1-.5-2.1-.3-2.1-.5-2-1.3-1.6-1.3-2.4-1.6-2.4-2.1v-1.6l1.3-1.3-1.6-2.1-1.6 1.1H575.3l-2.1.5-1.9-1.6-1.1-1.3-1.3-.8-1.3 1.3-2.1.5-1.3-.3-2.1.5-1.6.8-3.2 1.6-2.4-1.8h-1.3l-1.3-1.6-1.3-.8.3-1.3h-4l-2.6-1.6-2.9-1.3-1.3-.5-1.1 2.1.5 2.9-.5 9.2-1.1 10-.8 5.3-2.1 2.4-.1.4-.4.2-.5.4 2.1 1.7-1 2.6 1 2.5-1 2.2h2.4l2.4 2.4 1.8 2.6 1 1.2h2.1l.4.1-.9 2.1H542l.1 4.8h3.2v2.6h-1.9l-.4 2.1-1.8 1.9 3.2 5.4.9 2.9h-2.8l.6 3.8-1.2 1.3s-.7-.3-1 0c-.3.3 1.5 1.6 1.5 1.6l-1 1.2h-1.6l-1.9.9-.3-.7-2.5.7-2.5-1.2-1.6-.4v4.7h-2.2l-1.3-4.3h-1v9.3l5.9-2.2 4.6 23.6 5.8 3.9V188l2.7 1.6 3.7-1.6v1.6s-.7.5-.9 1c1.5.2 3.6.5 3.9.7.6.2 2 0 2 0s.8-.1.9.1c.1.2 1.5 0 1.5 0s1 .9 1.7.1 1.9-1.6 2-1.9v-2.4c.1-.5-.1-1.2.5-.6s.4 2 .8 1.5l1.3-1.7s.5 1.2 1.6 1.2 1.4-.8 1.9-.1c.5.7 1.7-2.4 2-1.1.3 1.3 0 1.4 0 1.7s.9 1.1 1.4.9c.5-.2 1-1.6 1.3-.9.3.7.8 1 1.2.9h1.8s-1.9-1.5-1.4-2 .8-.4.8-.9-1.2-1.3-1.2-1.3V180.4s.2-1.4 1.1-1.2c.9.2 1.1 1.1 1.1 1.1s1.5.1 1.5-.3v-2.5l1.9-1.6 1.2-.6c.6-.2.8-1.3 1.1-1.2l1.3.8.7.8 1.1.7.5-1v-1.3l.6-.8.5 1 1.1-1 .4-.3.6-.6h1.5l1.6-1.2v-2.3l-.6-1.3 1.6-2.3-1-1.9 2.8-2.9-1.3-.8-.2-1.4-.7-.5s.4-1.4.1-1.5h-1.9l-1-1.6-.4-.7-2.1-2.2 1.4-2.3-2.1-2.6s-1.7-4.4-1.3-4.5c.4-.1 3.1-4.5 3.1-4.5s.3.7.7.6c.4-.1 1.1-.6 1.1-.6l-.8-1.1 1.3-2-.6-2.4h2.5l.7.4.1-1.8h2.3l4.9-3 1.2.4 2.9-.4 1.9-3v-1.9l-2-1.4 1.6-2.6 1.1-1.4V116l3.4-2.3h2l2.8.9-1.2-2.5.1-2.4 4-6.1z"/>
</g>
<g id="P7" class="small-box bn">
<path class="st1" d="M700.5 185.6l-1.7-2.1 1-1.1-.1-.1-.2-.4.8-.1.6-.7-1.6-1.6-1.6-5.3.3-3.2-2.1-5.8-1.3-2.4.3-1.6 1.3-2.4 1.6-2.9 1.1-.3.5-1.1-2.9-3.2-1.6-6.6-1.6-1.3-1.3-2.4-1.3-1.1-.1-1.5-.2-4.6.8-3.2-.5-5 .5-1.3-2.6-7.4-1.1-3.7-.5-2.1-6.4-1.3-1.6-2.1h-1.3l-2.1-2.6-2.6 2.4-4.2-.5-3.4-3.7-1.1-.8V99l-1.3-3.2 1.6-3.2-.8-.5-1.3-2.9-1.9 1.6-.3 3.2-1.3.3-.8-.5-1.3 2.1-.3 1.6-3.2 1.8-.8 2.9-3.7.3-.5 1.8h-2.6l-1.3 3.4-6.4.8-2.4 1.6-1.6 1.3-3.2-2.4.8-1.6-.3-1.1-4.2.3-5-1.1-1.1-1.8-2.1-2.1-1.3.3h-.1l-.9 1.8-4.6 6.8-.1 2.4 1.2 2.5-2.8-.9h-2l-3.4 2.3v1.7l-1.1 1.4-1.6 2.6 2 1.4v1.9l-1.9 3-2.9.4-1.2-.4-4.9 3H591l-.1 1.8-.7-.4h-2.5l.6 2.4-1.3 2 .8 1.1s-.7.5-1.1.6c-.4.1-.7-.6-.7-.6s-2.7 4.4-3.1 4.5c-.4.1 1.3 4.5 1.3 4.5l2.1 2.6-1.4 2.3 2.1 2.2.4.7 1 1.6h1.9c.3.1-.1 1.5-.1 1.5l.7.5.2 1.4 1.3.8-2.8 2.9 1 1.9-1.6 2.3.6 1.3v2.3l-1.6 1.2h-1.5l-.6.6 1.7 5.3 1.5 1.4-.7 1.7 1.6 1.2 1.1 2.9 1.3 2.5 2.4 2.5 2.1 4.7 6.4-5.4.7-2.7 3.1-1.7s.9 1.8 1.3 2l1.2.6 2.3-1.2.7 4.4 2.9 5.1-.5.9 2 2.9-1.4 1.6s-1.4-.1-1.4 1.2-.2 1.9.8 2.1l4.2.6 2.9 1.2a93.1 93.1 0 0 0 4.8 5.6h2.5v1.5s-2 1-1.4 1h.9l-1.1 2 .9.4 1.1 1v1.4l-.2 1.4 2.5 2.7s-3.7 7.1-3.1 8c.6 1 .3 3.9 0 5.3s1.7 1.8 1.7 1.8l1.5 1.2 1.1 2.2 2 7.2 5 2.4 1.9 1.2.8-.4c.8-.4 2.4 1.6 2.4 1.6s1.2 1.8 2.7 2.9c1.6 1.2 1.8 1.8 1.8 1.8s-1 .8-2 2.2c-1 1.4-1.4 2.4-2.9 4.1a4 4 0 0 1-1 .9l.8 1.7 1.9 1.3h2l.8 2.1.5 1.1s1.9-1.4 2.2-1c.3.4 3 2 3 2l.4-.8-.7-3.8s-.1-2.1.2-1.9c.3.2 2.1 0 2.1 0s-.6-1 0-1 2.7-.8 2.7-.8l1.6-1.2-.5-2.3h1.5l-.5-1.4h-2.3l-.5-.6 1.2-1.6h-1.9l.4-.7 1.2-.8-.6-1.2 1.4-1.6v-1.2l-1.4-1.2.9-.9h1l.3-4.4h.8v1.5l.9 2.1 1.2-1.6.6.9s.4-.6 1.1-.5l1.4.1v-2.2l-.7-.3-.5-1.8 1.2-1.9h2.5c.3 0 1.5-1.4 1.5-1.4l-.6-1.4s.1-.3.6-.5 1.1.9 1.1 1.2c0 .3 1.2.7 1.2.7l.9.8.7-.8-.7-1-.1-1.4s1-.3 1.3 0c.3.3 1.2.3 1.2.3h1V237l-1.6-.7.2-.8h2.5v-2.4l1.1-1.7-1.7-1.9-.1-1.6 1.8-1 .8-2.3 1-.4 1.2-1.5 2.1-1.9-.5-11.7.5-1.1-1-1.3 1.6-.9h1.7l1.5 2.6.7-1.8h2.5l1.8 1.4 2.8-.4 3.4.4 1.7-1.3v-11.5l-.8-.9.8-.6v-2.9l.5-1.4V186l-2.3-.4z"/>
</g>
<g id="P8" class="small-box amanah">
<path class="st1" d="M544.6 207l-.6 2.4 1.4 1.3-1.4 1.7-1.1-1.2-.9 2.6h-2l-.8 3.1 1 .9.8 1.3h1.3v1.4l-.5.9-.3 2.8.8 1.6h2.6l-.8-1.2.3-2.4 2.4.2.5 1.7 1.9-1.4.9-1.1 2.1-2.3.8-.4-1-1.5.3-1.8h2.1l1.7-.5-.7 2 4.1-.6.6 3.3 3-.5v4l3.4 1.8 2.1 6h2l2.4-1.2 1.2 1.2v1l1.1.3c1.1 0 1-.7 1-.7s1.6.6 1.9.4c.3-.2.7-1.7.7-1.7s1.3 1.8 1.7 1.3c.4-.5 2.7-.8 4.2-.7 1.5.1 0 0 1.4 1.7s1.9.8 2.5.3c.7-.5.8-.6.9-1.1.1-.5.6-1.1 1.4-2.1.8-1 2-.9 2.9-1.7 1-.8 1.3-1.4 1.4-2V224l.7.1 1.1-1.5c.2-.3.9 0 1.2 0 .3 0 1.7 1 2.3 1.2.6.2 1.1-.7 1.4-1.2.3-.5 2-.9 2.3-.9.3 0 1.6.6 1.7 1.3.1.7 2.4-.5 2.7-.4.3.1 2.2.4 2.2.1 0-.3 2.7-.3 2.7-.3l3.4-1.5c1.9-.8.8-2.9.8-2.9l3.4 1.2h2s1.6 2.3 3.5 2.1l2.9-.5.2-1.4V218l-1.1-1-.9-.4 1.1-2h-.9c-.6 0 1.4-1 1.4-1v-1.5h-2.5s-2.4-2.5-2.6-2.9l-2.2-2.7-2.9-1.2-4.2-.6c-1-.2-.8-.8-.8-2.1s1.4-1.2 1.4-1.2l1.4-1.6-2-2.9.5-.9-2.9-5.1-.7-4.4-2.3 1.2-1.2-.6c-.4-.2-1.3-2-1.3-2l-3.1 1.7-.7 2.7-6.4 5.4-2.1-4.7-2.4-2.5-1.3-2.5-1.1-2.9-1.6-1.2.7-1.7-1.5-1.4-1.7-5.3-.4.3-1.1 1-.5-1-.6.8v1.3l-.5 1-1.1-.7-.7-.8-1.3-.8c-.3-.1-.5 1-1.1 1.2l-1.2.6-1.9 1.6v2.5c0 .4-1.5.3-1.5.3s-.2-.9-1.1-1.1c-.9-.2-1.1 1.2-1.1 1.2v4.4s1.2.8 1.2 1.3-.3.5-.8.9c-.5.5 1.4 2 1.4 2h-1.8c-.4.1-.9-.1-1.2-.9-.3-.7-.8.6-1.3.9-.5.2-1.4-.5-1.4-.9s.3-.4 0-1.7c-.3-1.3-1.5 1.8-2 1.1s-.8.1-1.9.1c-1.1 0-1.6-1.2-1.6-1.2l-1.3 1.7c-.4.4-.2-.9-.8-1.5-.6-.6-.4.1-.5.6v2.4c-.1.3-1.3 1.2-2 1.9-.7.8-1.7-.1-1.7-.1s-1.4.2-1.5 0c-.1-.2-.9-.1-.9-.1s-1.4.2-2 0l-3.9-.7-.1.5c.2.6 0 7.4 0 7.4L545 200v1.4l-2 1.2v1.2l.7.2 1.3-.9-1.3.9.5.2v2.8z"/>
</g>
<g id="P9" class="small-box pkr">
<path class="st1" d="M537 201.1v-1.4h-2.8v1.6l-5.6 6.2 6.6 4.7-.9 2.7-3 .9-3.9-3.8-4.6 3.8v2.1l-.8.4-.6 1.2.7.6 1.8-.7h2.5l-.6 1.1-.3 1 3 .5 1.7-1 2.1-.9.5 1.9.6-1.1.9 1.1-.3 2.2 3-1 .3 1.4-.7-.4-.7 2.1h1l-.2 6.8 4.5 12.2 3.2-.7 3.5-.1v.6l10.3-.9-.1.9 4.5-.9.2.9 5.7-3.4.5-1.2v-1.3h1l.1-1.6 1.3-.8-1.3-2 .3-1.2h3.1l.5-1.1v-1.3l-1.2-1.2-2.4 1.2h-2l-2-6-3.5-1.8v-4l-3 .5-.6-3.3-4.1.6.7-2-1.7.5h-2l-.3 1.8.9 1.4-.7.4-3 3.4-1.8 1.3-.5-1.6-2.4-.2-.3 2.4.8 1.2h-2.5l-.8-1.6.3-2.8.5-.9v-1.4h-1.3l-.8-1.2-1-.9.8-3.2h2l.9-2.6 1 1.2 1.4-1.7-1.4-1.3.6-2.4-.2-2.8-2.2 1.6v-2.3h-1.9l-1.7-.5z"/>
</g>
<g id="P10" class="small-box pkr">
<path class="st1" d="M550.5 264.8v-3.5c0-.4-6.1-16.7-6.1-16.7l-3.2.7-4.6-12.6.3-6.4h-1l.7-2.1h.6l-.2-1.1-2.9 1.1.3-2.3-.9-1.1-.6 1.1-.5-1.9-2.1.9-1.8 1-2.9-.5.3-1 .6-1.1c.1-.3-2.5 0-2.5 0s-1.6.7-1.9.7c-.3 0-.7-.6-.7-.6l.6-1.3.8-.7v-1.8l4.6-3.8 3.9 3.8 3-.9.9-2.7-6.6-4.7 5.6-6.2v-1.6h2.7v1.4l.9 1 .8.9 1.7.5h1.9v2.4l2-1.4-.7-.2V203l2-1.2v-1.4l2.7-1.8s.2-6.9 0-7.4l.1-.5c.2-.5.9-1 .9-1v-1.6l-3.7 1.6-2.7-1.6v1.6l-5.8-3.9-5.8-3.9-21.6 2.7-.2 1.2h1.6v3.5h-1.2v2.5l-6.9 4.7.8 1.3 3.4 8.7.9 3.3.7 1.9.1.8.2.8.3 6.6.8 1.1 2.3-1 1.1.2s1.1 1.2.5 1.4l-2.5.7-.1 3.2 2.7 2.8 1.7 1.8 2.2 1.9 4.4 6.2 2.1 4a9.8 9.8 0 0 1 1.4 2.7l3.2 10.2 2.6 9.2.2.6.1 1 .2 2h1.8l2.7 1.8v-2.1h2l1.7-.4 1.6.3 1-.8 1.6-1.5.6.6.3 3.2h.4l1-1s1.1-.6 1.4-.6c.3 0 .4 1.6.4 1.6h1.2l1-1.2c.1-.2.7.1 1.1.3l.4.2V266l-1.9-1.2z"/>
</g>
<g id="P11" class="small-box pas">
<path class="st1" d="M644.3 265.1c1.6-1.8 2-2.7 2.9-4.1 1-1.4 2-2.2 2-2.2s-.2-.6-1.8-1.8c-1.6-1.2-2.7-2.9-2.7-2.9s-1.6-2-2.4-1.6l-.8.4-1.9-1.2-5-2.4-2-7.2-1.1-2.2-1.5-1.2s-2-.4-1.7-1.8c.3-1.4.6-4.3 0-5.3s3.1-8 3.1-8l-2.5-2.7-.3 1.9.3-1.9-2.9.5c-2 .2-3.5-2.1-3.5-2.1h-2l-3.4-1.2s1.1 2.2-.8 2.9l-3.4 1.5s-2.7 0-2.7.3-1.9 0-2.2-.1c-.3-.1-2.6 1.1-2.7.4-.1-.7-1.4-1.3-1.7-1.3-.3 0-2 .4-2.3.9-.3.5-.8 1.4-1.4 1.2-.6-.2-2-1.2-2.3-1.2-.3 0-1-.3-1.2 0a70 70 0 0 1-1.1 1.5l-.7-.1v2.1c-.1.6-.4 1.2-1.4 2-1 .8-2.2.7-2.9 1.7-.8 1-1.3 1.6-1.4 2.1-.1.5-.2.6-.9 1.1-.7.5-1.2 1.4-2.5-.3-1.4-1.7.1-1.6-1.4-1.7-1.5-.1-3.8.2-4.2.7-.4.5-1.7-1.3-1.7-1.3s-.4 1.5-.7 1.7c-.3.2-1.9-.4-1.9-.4s.1.7-1 .7l-1.1-.3v.3l-.5 1.2h-3.2l-.3 1.2 1.3 2-1.3.8-.1 1.7h-1v1.3l-.5 1.2-5.7 3.4-.2-.9-4.5.9.1-.9-10.3.9v-.6l-3.5.1s6.1 16.3 6.1 16.7v3.5l1.7 1.2v2.7l-.4-.2 2.6 1.5 2-.5s2.5 1.6 2.4 2c-.1.4.8 3.6 1.5 4.1l2.8 1.8 1.1 2.8s-.7 1.4 0 1.6c.7.2 2.4 1.7 2.4 1.7v8.9l-1.4.8 4.9 9.7 1.2-.7h2.7s.3 2.3.6 2.4h2s.2 1.3.9 1.3h2V303l9.5-.8-.4 2.1 10.4 2.6 1.9 1.9 4.3 2 3.5 1.2 2.8 1.1 1.2-.7 2.7.5.8-.9 1.2-2.4 1.4-2.2s-1-2.7 0-2.9c1-.2 1.8-3.5 1.8-3.5l-1.2-1.6-.8-4.1 2.9-2.7s1.6-.8 2.4-2.2c.8-1.4 1.4-2.9 1.4-2.9v-2.4s2.3 1.4 3.4-.6 1.5-2.3 1.7-3.1c.2-.8 1.4-2.5 1.4-2.5s1.6-1.6 2-3.1c.4-1.6 3.3-2.5 3.3-2.5s1.2-2.7 1.4-2.7c.2 0 1.5-1 1.5-1l1.9-2.4s.7.1 1.8-.7l-.5-1.1.5 1.1 1.2-1.4z"/>
</g>
<g id="P12" class="small-box pas">
<path class="st1" d="M621.2 324.2H622.6l.9-1.5 1.3-1.1 2-1.1-2.3-2-.5-2.5h-1.3c-.6.1-1.1.5-2 .7l-1.6.4h-1.8l-1.2-1.4v-3.1l-.8-.2-2.7-.5-1.2.7-2.8-1.1-3.5-1.2-4.3-2-1.9-1.9-10.4-2.6.4-2.1-9.5.8v3.1h-2c-.7 0-.9-1.3-.9-1.3h-2c-.3-.1-.6-2.4-.6-2.4h-2.7l-1.2.7-4.9-9.7 1.4-.8v-8.9s-1.8-1.5-2.4-1.7c-.7-.2 0-1.6 0-1.6l-1.1-2.8-2.8-1.8c-.7-.5-1.6-3.7-1.5-4.1.1-.4-2.4-2-2.4-2l-2 .5-2.6-1.5c-.4-.2-1-.5-1.1-.3l-1 1.2h-1.2s-.1-1.6-.4-1.6c-.3 0-1.4.6-1.4.6l-1 1h-.4l-.3-3.2-.6-.6-1.3 1.7-1 .8-1.6-.3-1.7.4h-2v2.1l-2.7-1.8h-1.8l1.4 8.6.5 5.3.4 8.8.5 4.6-.2 3.3 1.6 3.2.2 3.9.5 6.9.1.4 1.1 3.7V331l-1.6 4.8-1.2 5.1v4.8l-1.6 2.8-.9 1.9-.4.9v.4c2.9.9 7.4 1.7 8.9 1.6 2.2-.2 4.7-.7 4.7-.7s.6-.5.2-1.6c-.4-1.2.1-.8.1-.8s-.3-.6 0-1.3c.3-.7 1.4-2 1.6-2.5.2-.6 0-1.3 0-1.3s.8-1.4 1-3.1c.2-1.8 0-2 0-2l1.3-2.1 2.1-.4c.3-.1 1.6-1.3 1.9-2.2.3-.9 1.2-1.9 1.3-2.5.1-.7.8-1 .8-1l3.9-2 3 1.2 1.7 3.3s.8.3 1.7 1.1c.9.8.1 1.3.1 1.3l.4 3.5-.2 1.6s-.3 2.9-.6 3.2l-1.5 1.1-.2 2.5 1.6-1h.9v1.3l2-.1 1.8-1.1s.8.5 1.1.3l1.2-1.2.8 2.1 3.3-2.8.9-.5.1-.5 1.8-.2.3-.5.6-.4 1 1.4v-1.6l1.6 1.9 1.3-.3 1.2 3.4-.9.1v1.5l-1.1.3a7 7 0 0 0 1.3 1.8c.5.3.5-.5.5-.5l1-1.7h.9l.6-1.6v.7l1.9-.8-1.9-3.4v-2.4l11.4-3.7-1.8-3.7.7-.8.6-.1.8-.8 11.7.4v1.8s0 1.1.3 1.7c.3.6 1.2-.8 1.2-.8l1.3-1.1h4.7l1.6-1.1h.7l1.6-2.2.4.6 1.5-2.2h-1.1l-.8-2.6-1.8-1.9-3.8-1 2.9-.6.5-.5z"/>
</g>
<g id="P13" class="small-box pas">
<path class="st1" d="M789.3 221.4l-3.5-.7-.7-2.1-7.1-4.9-6.4-1.4-2.1-2.8 4.9-5.6 4.2-3.5 5.7-.7 4.2-1.4 3.2-3.5-1.1-2.5-2.8-1.8 1.4-2.5-1.1-2.5-1.4-2.8-1.1-2.1-.7-1.8 1.8-3.2-3-1.3-2.6-1.8-2.9.3-2.4.5H774l-2.9-.5-1.6 1.6h-2.4s-1.3-.3-2.1.5-2.4 1.6-2.4 1.6l-3.2 1.3-2.1-1.9-1.6.5-1.9-.3-1.6-2.9-4-1.6-2.4-2.1-1.1-1.8-.5-1.6-2.6-.5-3.2-1.1v2.9l-4.2 2.9-2.4 1.1v5.5l-2.1 1.1-4.2-.3-4.2-1.9-.8 2.1-1.3 1.1-1.1 1.1-1.3.3-2.4-1.1-1.1-3.2-1.6-.8-.8-1.1-1.9-.5-2.1-2.9-1.1 4.5-.8 2.1 1.3 1.6-3.4 1.6-1.6 1.1-1.5.6-.2.2 1.2 2.7-1.2-2.7-1 1.1 1.7 2.1 1.1 1V190.1l-.5 1.4v2.9l-.8.6.8.9v11.5l-1.7 1.3-3.4-.4-2.8.4-1.8-1.4h-2.5l-.7 1.8-1.5-2.6H685l-1.6.9 1 1.3-.5 1.1.5 11.7-2.1 1.9-1.2 1.5-1 .4-.8 2.3-1.8 1 .1 1.6 1.7 1.9-1.1 1.7v2.4h-2.5l-.2.8 1.6.7V239.8h-1s-.9 0-1.2-.3c-.3-.3-1.3 0-1.3 0l.1 1.4.7 1-.7.8-.9-.8s-1.2-.4-1.2-.7c0-.3-.6-1.4-1.1-1.2-.5.2-.6.5-.6.5l.6 1.4s-1.2 1.4-1.5 1.4h-2.5l-1.2 1.9.5 1.8.7.3v2.2l-1.4-.1c-.7-.1-1.1.5-1.1.5l-.6-.9-1.2 1.6-.9-2.1V247h-.8l-.3 4.4h-1l-.9.9 1.4 1.2v1.2l-1.4 1.6.6 1.2-1.2.8-.4.7h1.9l-1.2 1.6.5.6h2.3l.5 1.4h-1.5l.5 2.3-1.6 1.2s-2.2.8-2.7.8c-.6 0 0 1 0 1s-1.8.2-2.1 0c-.3-.2-.2 1.9-.2 1.9l.7 3.8-.4.8s-2.7-1.6-3-2c-.3-.4-2.2 1-2.2 1l-.5-1.1-.3-3.3h-2l-1.9-1.3-.8-1.7c-1.1.8-1.8.7-1.8.7l-1.9 2.4s-1.3 1-1.5 1c-.2 0-1.4 2.7-1.4 2.7s-2.9 1-3.3 2.5c-.4 1.6-2 3.1-2 3.1s-1.2 1.8-1.4 2.5c-.2.8-.6 1.2-1.7 3.1-1.1 2-3.4.6-3.4.6v2.4s-.6 1.6-1.4 2.9c-.8 1.4-2.4 2.2-2.4 2.2l-2.9 2.7.8 4.1 1.2 1.6s-.8 3.3-1.8 3.5c-1 .2 0 2.9 0 2.9l-1.4 2.2-1.2 2.4-.8.9.8.2v3.1l1.2 1.4h1.8l1.6-.4c.9-.2 1.4-.6 2-.7a5 5 0 0 1 1.3 0l.5 2.5 2.3 2-2 1.1-1.3 1.1-.9 1.5h-.1l.8.7 1.3.6.3 1h1.5s.4.5.4.9-.3 1.4 0 1.8c.3.4.1.8.5.8s2.2-1 2.9-.7c.8.3.9-.3 1.2 0 .3.3-.3 1.3-.8 1.7-.5.4.6 2.2.9 2.8.3.7 1.5 1.6 1.5 1.6l1-.6c.5-.3.6 1 .7 1.5l.6 1.9-.6 1.7c0 .3 0 .6-.5.8-.5.2-.5 1-.5 1.3 0 .3-.4.6-.6 1.2-.2.6-.2 1.2.8 2.1l.4.5 1.9-1.6.7 3.2s1.6-.7 1.8 0c.2.7.5 2.1 0 2.3-.5.2-.6-.7-1 0s-.6.1-.8.9c-.2.8.8 1 .8 1.4v1.7c.1.6.6.1 1.3.7.7.6-1.1 1.6 0 2.3a4 4 0 0 1 1.8 2.4c.2.8 1.6 2.3 2.5 2.7 1 .5 2 .9 2.7 1.4.8.5.7 2.3 2.1 1.4 1.4-.9 1.1-2.5 1.3-3.2.2-.7 1.1-1.1 1.1-1.1h1c.4.1 1.4.3 1.7.8.3.5 2 .6 2-.3 0-.9-.8-1.1-1.1-1.9-.3-.8-.6-1 .1-.9.7.1.1.6 1 .5.9-.1.1-.5 1-1.4.9-.9 1.4 0 1.4 0s-.1 1.4.5.6c.6-.8 1.2-2.4 1.2-2.4l2.6-.7s.6-1.5 1.3-1.7c.7-.2 3 .5 3.9.5.9 0 1.3-.4 4.1 0s4 .5 5 1.2.5.9 1.6.6c1.1-.3 0-1.4 1.5-1.4 1.5.1.9 1 1.5.1s1.6-.9 1.6-.9.5-1.1.8-1.1c.3 0 .3-.1 1.9.9 1.6 1 2.5.6 3.1 1 .6.4 2.1-.2 2.4 0 .3.2.4.6.7 0 .3-.6 1.2-1.7 1.6-1.7.4 0 2.5 2.2 2.5 2.5.1.3 1.5 1.1 1.5 1.1l.8-.6s0-.8 1.2-1.3l1.2-.5s-2.6-1.3 0-1.7c2.6-.4 4.1-.8 3.9.5-.2 1.3-.3.4-.7 1.7-.4 1.3-.1 2.3-.2 2.6-.1.3.5 1.3.9 1.9.4.6 1.2 4.5 1.7 2.5.6-2.1.7-3.1.6-3.7l-.6-3.2-.2-.9s-.8-.1.8-.1 1.2.3 1.8.6c.6.3.1.4 1 .4h1.8s-.8-1.2 0-2.5.6-1.3.8-2.2c.2-.9 0-1.9 0-1.9h-.7s-1.6-1.5-1.9-1.5c-.3 0-.4 1-.6 1.3-.2.3-2.4-.2-2.1-.2.4 0 1 .2 1-.3l-.3-1.8-.3-.5-.2-2.3-2-1.5-2.4-2.2.5-.9h-1.1s-.2-1 .1-1.1l1.4-.5.1-1.6 4-3.1s1.8-3.1 1.8-3.4l.8-4.6s-.6.4-1.4 0c-.8-.4-1.3-1.4-1.1-1.9l.6-1.8h1.1l.6-2.1-1.4-.7c-1.2-.5-1.4-1.6-1-2.3.4-.7 2.8-2.4 3.1-4.7.3-2.4.6-2.5.8-3.2.2-.8.4-.8.6-1.8.2-1 .7-1.7.7-1.7l-1.7-2.7 1.1-2s-1.4-.2-1.4-.9 1.1-1.1 1.1-1.1-.8-.8 0-2 .9-1.2 1.6-1.1c.7.1 1 0 1-.9s.5-2.5 1.1-3.6c.6-1.1.2-1.9 0-2.4-.2-.6-1.6-1.3-1.6-1.3s-.4-.9-.4-1.4c0-.5.5-1.1-.2-1.1s-1.9.5-1.9 0 .3-1.1.3-1.1.3.5 1.6 0 1.7-1.1 1.4-1.6c-.3-.5-.1-1.3-.9-1.2h-1.8c-.3 0-1.1-.4-1.1-1.5 0-.8.3-1.1.5-1.1-.2 0-.4 0-.6-.6-.2-.9-1.2-2.6-1.2-2.6l-1.5-3.4s-.6.5-.7 0l-.1-2.2h-1l-.8-.5s-1.7-.9-.9-2.2c.8-1.3.3-1 1.4-1.9 1.1-.9.2-2.1.7-2.3.5-.2 1.6.2 1.9-.6.3-.8 1.4-1 1.7-1.1l2.5-.8s15.7-7.4 21.3-10.4c0 0-.1-1.7 1.6-1.7 1.7 0 .8-.5 1.7 0l.9.5s-.1.6.8.6.3-.3.9 0c.6.3.6.7 1.4.9.8.2 1.8.4 2.1.2.3-.2.5-1.5.5-1.5s-.8-1.2 0-1.4l2.4-.7s.8-.6 1.1 0c.3.6.8-.3.8-.3l34.7-2.4 5.7-10.6.7-2.1 3.5-.7v-3.5l-3-3.2z"/>
</g>
<g id="P14" class="small-box pkr">
<path class="st1" d="M637.6 370c-.3 0-3.1-.5-.8-.4 2.3.1 3.4-.1 2.7-.6l-1.9-1.7s.2 1.4-.8.9c-1-.5-1.1-1.2-.9-1.6.2-.4 0-2 0-2s-.8-1.7-.8-2.1c0-.4 1.4-.9.9-1.2-.5-.3-1.6 0-1.6 0s-1.1-1.7-1.6-1.7h-1.7s-1.1-1 0-1.2a7 7 0 0 0 1.7-.5v-2l.7-1s-.5-1-.5-1.9c0-.9 1-2-.1-2.7-1.1-.7-1-2.2-1-2.2s-.1-.9.3-1.1c.4-.2-.1.4.9-.6.7-.7 1.3-.9 1-1.4l-.4-.5c-1-.9-1-1.5-.8-2.1.2-.6.6-.9.6-1.2 0-.3 0-1.1.5-1.3.5-.2.5-.5.5-.8l.6-1.7-.6-1.9c-.1-.5-.2-1.8-.7-1.5l-1 .6s-1.2-.9-1.5-1.6c-.3-.7-1.4-2.4-.9-2.8.5-.4 1.1-1.4.8-1.7-.3-.3-.4.3-1.2 0-.8-.3-2.5.7-2.9.7-.4 0-.2-.4-.5-.8s0-1.4 0-1.8c0-.4-.4-.9-.4-.9h-1.5l-.3-1-1.3-.6-.8-.7H621l-1 .7-2.9.6 3.8 1 1.8 1.9.8 2.6h1.1l-1.5 2.2-.4-.6-1.6 2.2h-.7l-1.6 1.1h-4.7l-1.3 1.1s-.9 1.4-1.2.8c-.3-.6-.3-1.7-.3-1.7v-1.8l-11.7-.4-.8.8-.6.1-.7.8 1.8 3.7-11.4 3.7v2.4l1.9 3.4-1.9.8v-.7l-.6 1.6h-.9l-1 1.7s0 .8-.5.5c-.5-.3-1.3-1.8-1.3-1.8l1.1-.3v-1.5l.9-.1-1.2-3.4-1.3.3-1.6-1.9v1.6l-1-1.4-.6.4-.3.5-1.8.2-.1.5-.9.5-3.3 2.8-.8-2.1-1.2 1.2c-.3.2-1.1-.3-1.1-.3l-1.8 1.1-2 .1V347h-.9l-1.6 1 .2-2.5 1.5-1.1c.3-.3.6-3.2.6-3.2l.2-1.6-.4-3.5s.8-.5-.1-1.3-1.7-1.1-1.7-1.1l-1.7-3.3-3-1.2-3.9 2s-.7.3-.8 1c-.1.7-1 1.7-1.3 2.5-.3.9-1.6 2.1-1.9 2.2l-2.1.4-1.3 2.1s.2.2 0 2-1 3.1-1 3.1.2.7 0 1.3c-.2.6-1.3 1.9-1.6 2.5-.3.7 0 1.3 0 1.3s-.6-.4-.1.8c.4 1.2-.2 1.6-.2 1.6s-2.6.5-4.7.7c-1.5.1-6.1-.7-8.9-1.6v1.5l-.9 1.9 1.8 4.8 3.4 3.2 2.5.3 3.2 1.3 1.1 1.2.2 2.5 1.8.5 2.1.9.2.1-.2 1.1.1.1-1 .6c-.6 0-1.9-.5-3-.9.3.5.7 1 1.3 1.2 1.7.7 4.6.5 4.8 3 .2 2.5-.8 6.5 1.6 5.8 2.4-.7 2.6-3.6 4.3-3.2 1.7.4 2.2 2.7 4.4 2.4 2.3-.3 4.2-4 4.2-4s3.5 2.2 4.4 1.1c.9-1.1 1.3.3 1.3.3l.7-2 3.6-.2s.7-2.1 0-1.8c-.7.3-1.5-.1-1.5-.1s.1-.9.7-.9h1.9v.7c0 .5.7 1.2.7 1.2v1.5l2.3.7V373h1.2l-.8 2.6 1.7.1.4-.2s.6.7 1.3.2l.7-.5 2.6.4v-2l2.4-1.3v1.2l3.6-1.9-.5 4.1-2.5.1-.2.8s2 0 2.4.2c.4.2 1.1 1.4 1.7 1.6.6.2 1.4-1 2-.5.6.5 1 1.1 1.8 1.1l4.1-.4.7 1.6 1.8.6-.5 1.1-.4 1.3 3.6 1.2.5 6.8 1.5-.6v1.4l12.1 2.9.1.7s.6-.3.8-1.4c.2-1.1-.1-2.7.8-2.7s1.1.8 1.6 1c.5.2.7-1 1.6-1 .9 0 1.3.7 1.6 0 .3-.7-.2-1.1-.5-1.2-.3-.1-2-2.3-2-2.3s-.3-.5.3-.9 2.2-1 2.2-1l1.4 1.9 1.2-.8s1.4.6 1.4-.2-.4-3.4.6-2.4c1 1.1 1.3 3.2 2 2.7s2-1.4 2-1.9.1-1.5.4-2c.3-.5-.6-.7.9-2.3 1.5-1.6 1.4-2 .7-2s-2.5-.8-1.3-1.1c1.3-.3 2.3 0 1.7-.8-.6-.8-1.7-2.4-1.7-2.6 0-.3-.1-1.1.5-1.7.6-.6.4-1.5.8-2.1.4-.6 1.2-.8 1.2-.8h.2z"/>
</g>
<g id="P15_1_">
<path class="st1" d="M593.9 404.2c.3-1.1 1.8-1 1.8-1s1.2 1.7 1 3.4c-.2 1.8 1.5 1.8 1.5 1.8l1.8-1.1.3 1.5 1.2.9s-.5 1.1-.6 2.3c-.1 1.2 1.8.7 1.8.7s1.6-.2 1.6.6.7 1.4.7 1.4h2.1c.5 0-.7-2.3-1-2.6-.3-.4 1.7 0 1.7 0s1.5-1.6 1.7-1.2c.2.4 1.9.3 3-1 1.2-1.3 1 0 1 0s.9-2.1 1.1-3c.2-1 1.6.3 1.6.3l.5 1.1.1-.5c-.4-1.2-.4-3.2-.4-3.2s0 2 .4 3.2l.9-2.9c.4-1 .2-1.2 0-1.8-.2-.6.2.6 1.4 1.2s.1-1.1.5-1.4c.4-.3 1.2-.3 1.3-1.2.1-.9-.2-.8-1.5-1.5s-.7-1-.4-1.2c.3-.2.8-.7 1-2l.1-.8-2.3 1.3 2.3-1.3-.1-.7-12.1-2.9v-1.4l-1.5.6-.5-6.8-3.6-1.2.4-1.3.5-1.1-1.8-.6-.7-1.6-4.1.4c-.8 0-1.2-.6-1.8-1.1-.6-.5-1.4.7-2 .5-.6-.2-1.3-1.4-1.7-1.6-.4-.2-2.4-.2-2.4-.2l.2-.8 2.5-.1.5-4.1-3.6 1.9V373l-2.4 1.3v2l-2.6-.4-.7.5c-.7.5-1.3-.2-1.3-.2l-.4.2-1.7-.1.8-2.6h-1.2v2.9l-2.3-.7v-1.5s-.7-.7-.7-1.2v-.7h-1.9c-.6 0-.7.9-.7.9s.8.4 1.5.1c.7-.3 0 1.8 0 1.8l-3.6.2-.7 2s-.4-1.4-1.3-.3c-.9 1.1-4.4-1.1-4.4-1.1s-2 3.7-4.2 4c-2.3.3-2.7-2.1-4.4-2.4-1.7-.4-2 2.5-4.3 3.2-2.4.7-1.4-3.2-1.6-5.8-.2-2.5-3.1-2.4-4.8-3-.6-.2-1-.7-1.3-1.2l-1.8-.8-1.9-2.5V366l-1.2.4-2.3 1.4-2.3.5-1.6-.7-1.2-1.1-1.9-.9-.9 3-1.8.4.5 2.3.7 1.1.9 7.4.5 4.1-1.1 6-.4 7.2 1.8.5 1.8.7h2.1l2.7.2 1.8-1.6.4-2.3 2.1 1.6 2.7-1.4 1.1 2.5 2.6-.2 2.5 1.6 2.5 2.6 6 .9 1.4-.5.7 2.3 1.2-2.1 2.3-.7.4 1.1 1.4.4.5-1.9 1.9.9 1.1.4 2.5-.9 1.6 1.8 2.3-1.1 1.6 1.1.5-3.2 1.9 1.4 3.7-.2.1.1 1.2 2.3 1.8-.2 3.2.7.5.7.2 2.3.9-.9.2-.2.3 1.4 1.7-1.2c-.1-.3.1-.7.4-1.8zm25.6-3.5l-.1.1.1-.1z"/>
</g>
<g id="P16" class="small-box bn">
<path class="st1" d="M786.5 263l-1.4-2.1.7-5.6v-7l.7-4.2-4.2-2.1-34.7 2.4s-.5.8-.8.3c-.3-.6-1.1 0-1.1 0l-2.4.7c-.8.2 0 1.4 0 1.4s-.2 1.3-.5 1.5c-.3.2-1.3 0-2.1-.2s-.8-.6-1.4-.9c-.6-.3 0 0-.9 0s-.8-.6-.8-.6l-.9-.5c-.9-.5 0 0-1.7 0s-1.6 1.7-1.6 1.7c-5.6 2.9-21.3 10.4-21.3 10.4l-2.5.8c-.3.1-1.4.3-1.7 1.1-.3.8-1.4.4-1.9.6-.5.2.4 1.4-.7 2.3-1.1.9-.6.6-1.4 1.9-.8 1.3.9 2.2.9 2.2l.8.5h1l.1 2.2c.1.5.7 0 .7 0l1.5 3.4s1 1.8 1.2 2.6c.1.6.4.7.6.6-.2.1-.5.3-.5 1.1 0 1.1.8 1.5 1.1 1.5h1.8c.8-.1.6.7.9 1.2.3.5-.1 1.1-1.4 1.6-1.3.5-1.6 0-1.6 0s-.3.6-.3 1.1c0 .5 1.2 0 1.9 0s.2.6.2 1.1c0 .5.4 1.4.4 1.4s1.4.7 1.6 1.3c.2.6.6 1.4 0 2.4a9.2 9.2 0 0 0-1.1 3.6c0 .9-.3 1-1 .9-.7-.1-.8-.1-1.6 1.1-.8 1.2 0 2 0 2s-1.1.4-1.1 1.1c0 .7 1.4.9 1.4.9l-1.1 2 1.7 2.7s-.5.7-.7 1.7c-.2 1-.4 1-.6 1.8-.2.8-.5.9-.8 3.2-.3 2.4-2.7 4-3.1 4.7-.4.7-.2 1.8 1 2.3l1.4.7-.6 2.1h-1.1l-.6 1.8c-.2.5.3 1.5 1.1 1.9.8.4 1.4 0 1.4 0l-.8 4.6c0 .3-1.8 3.4-1.8 3.4l-4 3.1-.1 1.6-1.4.5c-.3.1-.1 1.1-.1 1.1h1.1l-.5.9 2.4 2.2 2 1.5.2 2.3.3.5.3 1.8c0 .5-.6.3-1 .3s1.9.5 2.1.2c.2-.3.3-1.3.6-1.3s1.9 1.5 1.9 1.5h.7s.2 1 0 1.9c-.2.9 0 .9-.8 2.2-.8 1.3 0 2.5 0 2.5h-1.8c-.9 0-.4-.1-1-.4-.6-.3-.2-.6-1.8-.6s-.8.1-.8.1l.2.9.6 3.2c.1.6 0 1.7-.6 3.7-.6 2.1-1.4-1.9-1.7-2.5-.4-.6-1-1.6-.9-1.9.1-.3-.2-1.4.2-2.6.4-1.3.5-.4.7-1.7.2-1.3-1.3-.9-3.9-.5-2.6.4 0 1.7 0 1.7l-1.2.5c-1.2.5-1.2 1.3-1.2 1.3l-.8.6s-1.4-.8-1.5-1.1c-.1-.3-2.2-2.5-2.5-2.5-.4 0-1.3 1.1-1.6 1.7-.3.6-.4.2-.7 0-.3-.2-1.8.4-2.4 0-.6-.4-1.6 0-3.1-1-1.6-1-1.6-.9-1.9-.9-.3 0-.8 1.1-.8 1.1s-1 0-1.6.9c-.6.9 0 0-1.5-.1s-.4 1.1-1.5 1.4c-1.1.3-.6.1-1.6-.6s-2.2-.8-5-1.2c-2.8-.4-3.2 0-4.1 0-.9 0-3.2-.7-3.9-.5-.7.2-1.3 1.7-1.3 1.7l-2.6.7s-.6 1.7-1.2 2.4c-.6.8-.5-.6-.5-.6s-.5-.9-1.4 0c-.9.9-.1 1.3-1 1.4-.9.1-.3-.4-1-.5-.7-.1-.4.1-.1.9.3.8 1.1 1 1.1 1.9 0 .9-1.7.8-2 .3-.3-.5-1.3-.8-1.7-.8h-1s-.9.4-1.1 1.1c-.2.7.1 2.4-1.3 3.2-1.4.9-1.3-.9-2.1-1.4l-2.7-1.4c-1-.5-2.4-2-2.5-2.7a4 4 0 0 0-1.8-2.4c-1.1-.7.7-1.7 0-2.3-.7-.6-1.2-.1-1.3-.7v-1.7c0-.4-1-.6-.8-1.4.2-.8.4-.2.8-.9s.6.2 1 0c.5-.2.2-1.6 0-2.3-.2-.7-1.8 0-1.8 0l-.7-3.2-1.9 1.6c.2.4-.3.6-1 1.4-1 1-.5.4-.9.6-.4.2-.3 1.1-.3 1.1s-.1 1.5 1 2.2c1.1.7.1 1.8.1 2.7 0 .9.5 1.9.5 1.9l-.7 1v2s-.6.3-1.7.5 0 1.2 0 1.2h1.7c.5 0 1.6 1.7 1.6 1.7s1.1-.3 1.6 0-.9.8-.9 1.2c0 .4.8 2.1.8 2.1s.2 1.6 0 2c-.2.4-.1 1.1.9 1.6s.8-.9.8-.9l1.9 1.7c.7.5-.4.7-2.7.6-2.3-.1.5.4.8.4.3 0 0 1 0 1s-.8.2-1.2.8c-.4.6-.2 1.5-.8 2.1-.6.6-.5 1.4-.5 1.7 0 .3 1.1 1.9 1.7 2.6.6.8-.4.5-1.7.8-1.3.3.6 1.1 1.3 1.1.7 0 .8.4-.7 2s-.6 1.8-.9 2.3c-.3.5-.4 1.5-.4 2s-1.3 1.4-2 1.9-1-1.7-2-2.7c-1-1.1-.6 1.6-.6 2.4 0 .8-1.4.2-1.4.2l-1.2.8-1.4-1.9s-1.7.6-2.2 1c-.6.4-.3.9-.3.9s1.7 2.2 2 2.3c.3.1.8.5.5 1.2-.3.7-.7 0-1.6 0-.9 0-1.1 1.2-1.6 1-.5-.2-.7-1-1.6-1-.9 0-.6 1.7-.8 2.7-.2 1.1-.8 1.4-.8 1.4l-.1.8c-.2 1.3-.7 1.8-1 2-.3.2-.9.5.4 1.2s1.6.6 1.5 1.5c-.1.9-.9.9-1.3 1.2-.4.3.7 2-.5 1.4-1.2-.6-1.5-1.8-1.4-1.2.2.6.4.8 0 1.8l-.9 2.9c.2.5.5.9.9.9 1.4 0 1.8.5 1.8.5s0-2.3.7-3c.7-.7 1.5-1.1 1.9-1.1l1.7.3 1.4-.8 2.6-1.2c.7-.2.3-.1 1.2 0 .9.1 2 .6 1.9.9-.1.3-1.4.7-1.4.7s.8.3 1.4 1.3c.6 1 .1 2.4.8 2.2.7-.2 1.8-1 2.4-.6.7.4 1.4.8 2.1.8.7 0 .2-.3 1.1 0 1 .3 1.5-.3 2.3.6.8.9 1.5 1.1 2.1 1.2.6.1 1-.1 1 .6s1.5 2.9 1.5 2.9.2 3.9.5 4.2c.3.3 1.2 1.7 1.9 2.2.7.5 1.1.2 1.4 1.2.3 1-.6 1.4.8 2.5 1.4 1.2.4.9 2 1.8s1.1.2.9 1.9c-.2 1.7-.9 1.1-.9 1.8s2.3 1.1 1.1 2.2c-1.2 1.1-1.2.4-1.8.7-.6.3-.1.1-.8 1-.7.9-.7 1.6-.7 1.6v.8c0 1.3-.2 1.1.5 2.4.7 1.3-.6 2.3.6 2.8 1.2.6 1.1-.3 1.7 0 .6.3.7.5.9 1.4l.6 1.6c1.3-.4 2.9-.8 3.2-.7.6.3 1.6 1.6 1.6 2 0 .4-.4.4-.4 1.4 0 1 .9 2 .9 2.4 0 .4-.8 1.1 0 1.6s1 1 1 1.5-.5 1.4 0 1.4 2-1 2-1l2 1.7s.7.2.9.9c.2.7-1 1 0 1.1H666.3l.7 1.4s.6-1.1 1.1-1.2c.5-.1 1.8.2 2.1-.1.3-.3 2.2-1.2 2.2-1.2s.5 2.1 1.1 1.2c.6-.9.8-2.1.8-2.1s1.6.8 2.6.8c1.1 0 2.1-1.5 2.4-1.3.4.2 2.2.2 2.5.7.3.5.3 2.4.6 3.1.3.7 1.4.9 1.4.9s.9.1 1 .6c.1.5.8 2.5 1.7 2.1.9-.5 7.6-6 7.6-6l4.3-2.9 6-6.7.1-3.6v-8.2l2.9-2.9 2.6-.8v-2.6l.5-1 .5-.9 2.1-.5 1.1 2.1 3.4-.5 2.4-.5 3.2-3.2 1.9-1.1.5-2.9.8-.8-.3-1.6 1.3-5 1.9-3.2-1.9-4.2-.5-3.4 2.4-2.1s3.2 2.1 1.3-1.1l-1.9-3.2-1.6-.3-1.6-1.1-.8-2.1-2.1-1.3 1.3-4.2 4.8-1.8 1.9-2.1-1.3-5-.8-.8 1.9-.3 1.6.8 1.1 1.1 1.9-.8 1.1-1.3 1.1.3.5-4 1.3-5.8 1.9-2.1-.5-4.5 1.6-2.9.3-3.4v-1.9l-5.6-2.9-1.6-2.6-2.9-2.1.5-2.9-2.1-2.9 5.6-4.2 6.1.5 3.7-3.2-.5-5.3-1.1-2.9 2.9-1.6 2.4-3.4 1.3-2.1 1.9-4.2-.3-7.1.8-4.2 4.4-7.8h3.5l-2.8-4.2s2.8-1.4 4.9-1.4c2.1 0 8.5.7 8.5.7l4.9 2.1h3.5l-1.4-3.5 2.1-4.2 1.4-3.5-1.4-2.8 4.9-1.4 3.5-5.6.7-2.8-3.6-4.2z"/>
</g>
<g id="P17" class="small-box pkr">
<path class="st1" d="M651.8 448.8c-1-.6-.7-1.7-.6-2.6.1-1 1.1-2 1.1-2.3l-.1-.3c-.1-.4-.5-1-.6-1.6-.2-.9-.3-1.1-.9-1.4-.6-.3-.5.6-1.7 0s.1-1.6-.6-2.8c-.7-1.3-.5-1.1-.5-2.4v-.8s0-.7.7-1.6c.7-.9.2-.7.8-1 .6-.3.6.4 1.8-.7 1.2-1.1-1.1-1.5-1.1-2.2 0-.7.7-.1.9-1.8.2-1.7.7-1-.9-1.9-1.6-.9-.6-.6-2-1.8-1.4-1.2-.5-1.6-.8-2.5-.3-1-.7-.7-1.4-1.2s-1.6-1.9-1.9-2.2c-.3-.3-.5-4.2-.5-4.2s-1.5-2.3-1.5-2.9c0-.7-.4-.5-1-.6-.6-.1-1.3-.3-2.1-1.2-.8-.9-1.4-.3-2.3-.6-.9-.3-.4 0-1.1 0-.7 0-1.4-.4-2.1-.8-.7-.4-1.8.4-2.4.6-.7.2-.2-1.2-.8-2.2-.6-1-1.4-1.3-1.4-1.3s1.3-.4 1.4-.7c.1-.3-1-.8-1.9-.9-.9-.1-.5-.2-1.2 0s-2.1.9-2.6 1.2l-1.4.8-1.7-.3c-.4 0-1.2.4-1.9 1.1-.7.7-.7 3-.7 3s-.5-.5-1.8-.5c-.4 0-.7-.4-.9-.9l-.1.5-.5-1.1s-1.4-1.3-1.6-.3c-.2 1-1.1 3-1.1 3s.2-1.3-1 0-2.8 1.4-3 1c-.2-.4-1.7 1.2-1.7 1.2s-2-.4-1.7 0c.3.4 1.5 2.6 1 2.6h-2.1s-.7-.6-.7-1.4c0-.8-1.6-.6-1.6-.6s-1.9.5-1.8-.7c.1-1.2.6-2.3.6-2.3l-1.2-.9-.3-1.5-1.8 1.1s-1.7 0-1.5-1.8c.2-1.8-1-3.4-1-3.4s-1.5-.1-1.8 1c-.3 1.1-.5 1.5-.8 1.6l-1.7 1.2.2.7-.4 13v.2l-.9 30-.4 11.1V469.3c1.1-.2 2.3-.4 2.4-.6.3-.4 1.4-.1 1.9-.4.5-.3.8-.1.8-.1s1.9.4 2.2.1c.3-.3.9-.3 1.7-.7.8-.4.6-2.2.6-2.2l1.6.4 2.4-.6 1.2-.5s2.4 1.7 2.8 1.7c.4 0 2-.6 2-.6l.4 2.8.5-.9 1.4-.7 1.5 1.6 2.4-.9 2.2.5 3.6-3.7v2.6h3.9v-9.2h3.2v-1.5l2.4-4.1c.2-.2 1.3 0 1.3 0s.3-.7-.7-1.4-.3-.8-.3-1.1c0-.3.8-2 1.1-2.5.3-.5 1.3.6 1.6.6h1.1l1.9 3.9c.4.8.9.3 1.2 0 .3-.3-.2-1.8 0-2.3.2-.5 0-.9 0-.9s1.5 1.8 2.2 1.9 2 .6 2.6 1c.7.4 1.6.4 1.8 0 .2-.4 1.6-.5 2-.7.4-.2 3.1 0 4.5 0s1.9-.1 2.2-.4c.4.5 0-1-1-1.6z"/>
</g>
<g id="P18" class="small-box pkr">
<path class="st1" d="M693.9 454.6s-6.8 5.5-7.6 6c-.9.5-1.6-1.6-1.7-2.1-.1-.5-1-.6-1-.6s-1.1-.2-1.4-.9c-.3-.7-.3-2.6-.6-3.1s-2.1-.5-2.5-.7c-.4-.2-1.4 1.3-2.4 1.3-1.1 0-2.6-.8-2.6-.8s-.2 1.2-.8 2.1c-.6.9-1.1-1.2-1.1-1.2s-1.9.9-2.2 1.2c-.3.3-1.6 0-2.1.1s-1.1 1.2-1.1 1.2l-.7-1.4h-1.4-1.7c-1-.1.2-.4 0-1.1-.2-.7-.9-.9-.9-.9l-2-1.7s-1.5 1-2 1 0-.9 0-1.4c0-.5-.2-1-1-1.5s0-1.2 0-1.6c0-.4-.9-1.4-.9-2.4s.4-1 .4-1.4c0-.4-1-1.7-1.6-2-.3-.2-1.9.3-3.2.7l.1.3c0 .3-1 1.3-1.1 2.3-.1 1-.4 2.1.6 2.6 1 .6 1.4 2.2 1.1 2.4-.3.3-.8.4-2.2.4-1.4 0-4.1-.2-4.5 0-.4.2-1.8.3-2 .7-.2.4-1.1.4-1.8 0s-2-.9-2.6-1-2.2-1.9-2.2-1.9.2.4 0 .9.3 2 0 2.3c-.3.3-.8.8-1.2 0l-1.9-3.9H633c-.3 0-1.3-1.1-1.6-.6-.3.5-1.1 2.2-1.1 2.5 0 .3-.7.4.3 1.1 1 .7.7 1.4.7 1.4s-1.1-.2-1.3 0l-2.4 4.1v1.5h-3.2v9.2h-3.9v-2.6l-3.6 3.7-2.2-.5-2.4.9-1.5-1.6-1.4.7-.5.9-.4-2.8s-1.6.6-2 .6c-.4 0-2.8-1.7-2.8-1.7l-1.2.5-2.4.6-1.6-.4s.2 1.8-.6 2.2c-.8.4-1.4.4-1.7.7-.3.3-2.2-.1-2.2-.1s-.3-.2-.8.1c-.5.3-1.6 0-1.9.4-.1.2-1.3.4-2.4.6v1.1l4.3 35.5 1.3 10.7 2.6 22.7-.8 1.8-3.2 1.1-3.7-.8-4.8-1.6h-2.7l-1.3.5-.8.3-1.9 1.8-.8 1.3 1.6 1.6.8 1.3.3 2.1s1.3.3 1.6-.8l.3-1.1 1.9-.3 2.6 1.9.8 1.8h-2.1l-1.3.5.8 2.4-.3 3.2 4-.5 1.3 2.4h2.7l.3-2.1 1.9.3.5 2.1-.3.8.5.8 1.3 1.3 2.6.5 2.1-1.6 1.6-2.1 2.7-2.1 2.6-1.3-.3-1.6 2.9-2.9-.5-2.6 3.4-1.9 1.3.5 1.1-2.1 3.7-1.6 2.9-6.3 1.9-4 5.3-2.6 2.1-2.1 1.6.3 2.4-4.8 2.4-1.6 2.6-6.3 2.1-1.3.8-3.7s-3.4-1.3.5-3.2l4-1.9 2.1-2.4h2.4l4-3.4.5-1.3v-2.1l.5-5 2.1-3.7v-2.5l4.2-1.9 3.2.8 2.6-.3 2.7-.3 1.9.8 1.9-1.6 1.1-1.1 1.3 1.3 2.6-.8 2.4 1.3 1.9-1.6h1.6l3.2-5.3 5.6-3.2 1.6-2.9v-2.9l.3-4.2 2.1-4.5 1.6-2.6-2.1-1.9-.5-1.8 2.1-1.6 2.4-3.2.1-3-6 6.7-3.6 3.1z"/>
</g>
<g id="text">
<text transform="translate(482.2 478)" class="st2 st3">
      P4
    </text>
<text transform="translate(491.4 166.7)" class="st2 st3">
      P5
    </text>
<text transform="translate(565 134.6)" class="st2 st3">
      P6
    </text>
<text transform="translate(649.2 175.4)" class="st2 st3">
      P7
    </text>
<text transform="translate(576.7 211)" class="st2 st3">
      P8
    </text>
<text transform="translate(548.3 236.9)" class="st2 st3">
      P9
    </text>
<text transform="translate(519 245.7)" class="st2 st3">
      P10
    </text>
<text transform="translate(600.1 259.1)" class="st2 st3">
      P11
    </text>
<text transform="translate(545.4 305.5)" class="st2 st3">
      P12
    </text>
<text transform="translate(678 275.6)" class="st2 st3">
      P13
    </text>
<text transform="translate(584.4 364.3)" class="st2 st3">
      P14
    </text>
<text transform="translate(559.5 396.2)" class="st2 st3">
      P15
    </text>
<text transform="translate(678 394)" class="st2 st3">
      P16
    </text>
<text transform="translate(615.4 438.6)" class="st2 st3">
      P17
    </text>
<text transform="translate(612.2 492.5)" class="st2 st3">
      P18
    </text>
</g>
</svg>