<svg xmlns="http://www.w3.org/2000/svg" version="1.1" viewbox="0 0 1240 640" preserveaspectratio="xMidYMid slice" id="svgN">
<g id="N1" class="small-box ppbm">
<path class="st1" d="M536.9 470.5c-.2-.6-2.5-2.2-3.9-3.8-1.4-1.6-.2-1 .8-2.2 1-1.2 1-1.8 1.9-3.2.8-1.4.4-2.4.4-3.6 0-1.2-.6-2-1-1.4-.4.6-2.1 1.2-2.1 1.2s-.2-2.4-.8-4c-.6-1.6-1.4-2.6-1.8-4.4-.4-1.8-1.6-.8-2.5-1.8-.8-1-2.3-1-2.9-1.6-.6-.6-2.1-.8-3.9-1.8-1.9-1-3.3-1-3.1-2 .2-1 0-4 0-4s-.4-1.6-.4-2.2c0-.6-1.6-2.4-2.7-3-1-.6-3.5-1.2-5.6-3-2.1-1.8-2.3-.2-2.3-.2s-1 1.6-.8 2.6c.2 1 .6 2.8 0 3.8s-3.3 1-3.3 1-2.7 3.2-3.3 4c-.6.8-2.1 3-2.5 4.2-.4 1.2-5.6.8-5.6.8s-1.2.4-2.5-.2c-1.2-.6-3.1.2-4.1.8-1 .6-1.6-.4-2.9-1.6-1.2-1.2-2.7 0-2.7 0s-1.2 1.6-1.9 2.2c-.6.6-2.1-.4-2.1-.4s-.4-1.6 1-2.6-2.3.6-2.5 0c-.2-.6-6.2-2-7.4-2.6-1.2-.6-4.7 1.2-6.4 1.2-1.6 0-3.3-1-3.3-1l-1.4 2.6s-1.9.6-4.5-1.6c-2.7-2.2-5.1-1.4-5.1-1.4s-.6 2.6-.4 5c.2 2.4.6 2.8.6 2.8v2.8c0 .6-.2 2-.2 2l-.2 2.6.2 3.4s2.1 4.4 2.3 5c.2.6 1.2 1.6 2.9 2 1.7.4 1.4-1.4 2.5-2 1-.6 1.6.6 1.6.6s1.6-.4 2.5-.8c.8-.4 1.6 1.2 1.9 1.8.2.6 2.9.4 3.9.4s3.3 0 3.9-.2c.6-.2 2.3-1 2.3-1s2.5 4 2.9 5.2c.3.8.3 2.9.2 4.9v.3c0 1-.1 1.9-.2 2.4v.3h1.9l1.8-3.8h2.1s2.5-.1 3 0 2.9-.1 2.9-.1 1.2 2.2 2.2 1.9c1-.2 1-.4 2.6-.7 1.7-.3 1.8.6 3.6.7l1.8.1 3.1-.7 2.6-5.6.8-.7 1.9 1.6 3.9.7 3.1-.4s1.2 1.3 2.2 1.6c1 .3.3.1 1 .3.7.1 2.5.6 2.5.6h1.3v1l3.2-.3.9-.7 3.7 1.6h12.3l.1-.1c.6-1.4.2-4.7 0-5.3z"/>
<path class="st1" d="M527.3 445.2c1.5 1.1 3 2.3 4 2.8 1 .6 1.1 1.8 1.5 1.8h1s.2-1.9 0-2.1c-.2-.2-1-1.3-1-1.3l-.8-3.7-.6-3.3-1.7.6-.6-3.6-1.9-.7s-.8 2.8-1 3.7c-.2.9-1 1.4-.7 3.1.4 1.8.3 1.6 1.8 2.7zM538 441.5h-.8l-1.2 4.7-.6.9-1.1 4.3s1 2.6 1.4 2.6c.4 0 .5-3.3.8-3.5.3-.2.6-2.7.6-2.7l-.6-1.5 1.4-1.7v-3.1z"/>
</g>
<g id="N2" class="small-box ppbm">
<path class="st1" d="M508 513.5s-.8-.8-1.4-1.5c-.6-.8-2.2-3.8-2.2-4.4 0-.6 2.2-3.7 2.4-5.5.2-1.8-.9-2.1-.2-3.2.8-1.1 1.4-3.4 2.7-3.2l2.2-1.2s.6-1.8.6-2.7c0-.9.9-2.9-.2-3.2-1.1-.3-2.4-1.5-3.3 0-.9 1.5-1.3 3.2-1.9 4-.6.8-3.3 1.8-5.2 2.3-1.9.5-6.8-1.1-6.3 1.1.5 2.1.9 4.3.3 6.4-.6 2.1-1.9 5.3-2.4 5.5l-3 1.2s-1.3.9-1.3 2.1c0 1.2-.2 3.7 0 4.4.2.8 1.1 2 1.7 1.4.6-.6 3.3-1.1 2.7 0-.6 1.1-2.4.5-1.1 1.7 1.3 1.2 1.9 2.6 1.7 3.1-.2.5-3.5 2.6-1.4 3.4 2.1.8 3 2.3 3.5.9s.8-3.5 1.7-3.2c.9.3 1.9 2.1 2.1 3.4.2 1.2 1.9 3.2 2.7 1.8.8-1.4 2.2-2.4 2.5-3.1.3-.6 1.3-3.1 1.9-3.8.6-.8 1.1-.9 1.3-2.6.2-1.7-.2-2.1.5-2.7.6-.6 1.9-2.3 1.4-2.6-.5-.6-2 .2-2 .2z"/>
<path class="st1" d="M517.9 505.9c-.8-.8-.6-1.4.8-2.9s-.2-2.4-1.4-3.4c-1.3-.9-3.5-2.7-3.5-2.7s-2.4.8-3 1.4c0 0-2.5 1.4-2.5 2.3 0 .9-.6 3.7-1.1 4.3-.5.6-1.4 2.9-.3 4.4 1.1 1.5 2.4 2.1 3.3 2.1 1 0 1.7-1.1 3-1.2 1.3-.2 2.1-.5 2.5.8.5 1.2 1.1 3.1 1.1 3.1s.6-.3 1.3-2.4c.6-2.1 2.1-2.3 1.4-3.8-.6-1.7-.8-1.3-1.6-2zM481.1 512c-1.7-.8-1.4-1.5-2.5-2.1-1.1-.6-1.7 0-1.9.5-.2.5-2.2.3-2.5 1.4-.3 1.1-1.6 3.5-1.6 3.5s-.6 1.7-.2 3.1c.5 1.4 1.6 3.2.9 3.7-.6.5-1.1 2.4.3 1.4 1.4-1.1 1.7-1.5 2.8-1.1 1.1.5 2.4 1.8 2.7.9.3-.9 1.6-2.4 1-3.4-.6-.9-2.8-2.1-1.9-2.9 1-.8 3-2 3-2l.3-1.1c.1-.1 1.3-1.2-.4-1.9zM520.6 474.2l-.9.7-3.2.3v-1h-1.3s-1.8-.5-2.5-.6c-.7-.1 0 0-1-.3s-2.2-1.6-2.2-1.6l-3.1.4-3.9-.7-1.9-1.6-.8.7-2.6 5.6-3.1.7-1.8-.1c-1.8-.1-1.9-1-3.6-.7-1.7.3-1.6.4-2.6.7-1 .2-2.2-1.9-2.2-1.9s-2.4.2-2.9.1-3 0-3 0h-2l-1.8 3.8h-1.9c-.1 1.6.4 4.4-.6 5.9-1 1.6.2 2.2.6 3.2.4 1 2.1 2.8 2.5 4.2.4 1.4.2 3.6-.2 4.8-.4 1.2-.6 1.4-.4 2 .2.6 1 .6 1.9.8.8.2.8-1.2 1-2 .2-.8 1.2-.6 1.9-.8.6-.2 1.2-.2 2.3-1 1-.8.8-1.2 1.2-1.8.4-.6 1.2-2 1.2-2l1.9-.2s1 .8 2.9.4 4.5-2.8 5.4-4c.8-1.2 2.5-1.8 3.5-2.6s1.9-1.4 2.3-2.8c.4-1.4.4-2 1.2-2.8.8-.8 3.5-.6 5.6-1.6 2.1-1 2.9.4 4.1 1 1.2.6 1.6 1.2 1.6 1.2s1.9.6 2.9 1.4c1 .8.6 4.2.6 4.2s2.5.6 3.1 1.4c.6.8 1.4.6 1.9-.2.4-.8.2-2.2.2-2.2s.8-.3 1.7-.6h.1l1.4-.4c.3-.1.5-.1.7-.2 1-.2.6-1.4 1.6-3.4s1.2-.8 2.9-1.4c1.6-.6 2.5-1.8 2.5-1.8s3.8-.5 4.8-1.6h-12.3l-3.7-1.6z"/>
<path class="st1" d="M540.9 480.3l-1.5-.6s-2.2.9-3.4 1.2c-1.3.3-1.3 0-1.9 0h-3.7c-1.1 0-3.7 2.7-3.7 2.7l2.9.4s4.4-.1 5.4 0 0 .8.4 1.3 1.3.8 1.7.8c.4 0 1 2.2 1.5 2.3.5.1.7-1.3.7-2.4 0-1.1.8-2.5 1.2-3.1.4-.7 2.4-.2 2.9-.2.6 0 1.1-1 .5-1.6-.5-.6-3-.8-3-.8z"/>
</g>
<g id="N3" class="small-box amanah">
<path class="st1" d="M492.3 172.5l1.8-2.6 12.1-9.9 1.5 1.6s5.1-3.5 5.4-2.6l.7 2.2 4.6-1.2 3.5-2.2v-.6l1-1.6V154h3.1v-1s.7-.6 2.6-1.2c1.9-.6 1.5-1.5 1.5-1.5l-1.8-1h-1.5l-4.9-6h1.5l2.5-2.2s-.1-2.5 0-2.9c.1-.4 2.4-1.2 2.4-1.2h1l.8-2.2 3.6-1.9v-1.2-2.2s1.7-1.5 2.6-1.5c.5 0 3.3 1 5.3 1.7l-.1-2.2h2.5l.9-2.1-.4-.1c-.4-.1-2.1 0-2.1 0l-1-1.2-1.8-2.6-2.4-2.4H535l1-2.2-1-2.5 1-2.6-2-1.8-2.3 1.9-3.4 2.3-3.7 3.4-4.4 3.9-1.2-.2-1.2 1.6-3.2 3.9-4.8 7.1-2.7 2.1-2.7 2.6-3.7 3.2-1.9 4.6-1.6.5-2.8 3-4.6 4.6-2.1 3.9-3 1.9-.9 2.5-.7.7.4 1.4.2 3.2-.7 1.2-1.8 1.1.5 1.2 1.8 1.8 2.8 2.5.3.3.6.5 3.8-4.1h1.3z"/>
</g>
<g id="N4" class="small-box pas">
<path class="st1" d="M699.5 181.8l.1.3h.2l.4-.4z"/>
<path class="st1" d="M699.8 182.1l1.5-.6-1.1.2zM700.9 184.9l-1.2-2.7v.1z"/>
<path class="st1" d="M699.6 182.1l.1.2v-.1l-.1-.1z"/>
<path class="st1" d="M699.7 182.2l.1-.1h-.2z"/>
<path class="st1" d="M543.1 135h1.9v-2.6h-3.2l-.1-2.7c-2-.7-4.8-1.7-5.3-1.7-.8 0-2.6 1.5-2.6 1.5V132.9l-3.6 1.9-.8 2.2h-1s-2.2.7-2.4 1.2c-.1.4 0 2.9 0 2.9l-2.5 2.2H522l4.9 6h1.5l1.8 1s.4.9-1.5 1.5-2.6 1.2-2.6 1.2v1H523v1.6l-1 1.6v.6l-3.5 2.2-4.6 1.2-.7-2.2c-.3-.9-5.4 2.6-5.4 2.6l-1.5-1.6-12.1 9.9-1.8 2.6h-1.5l-3.8 4.1 2.1 1.8 3.7 3.7 2.1 2.8 2.3 3.4 2.5 3.9 2.6 4.4 6.9-4.7v-2.5h1.2v-3.5h-1.6l.2-1.2 21.6-2.7 5.8 3.9-1.6-8.3-3-15.3-5.9 2.2V155h1l1.3 4.3h2.2v-4.7l1.6.4 2.5 1.2 2.5-.7.3.7 1.9-.9h1.6l1-1.2s-1.8-1.3-1.5-1.6c.3-.3 1 0 1 0l1.2-1.3-.6-3.8h2.8l-.9-2.9-3.2-5.4 1.8-1.9.6-2.2z"/>
<path class="st1" d="M701.3 181.5l-.5-.5-.6.7z"/>
</g>
<g id="N5" class="small-box ppbm">
<path class="st1" d="M535 114.4l1 2.5-1 2.2h2.4l2.4 2.4 1.8 2.6 1 1.2s1.6-.1 2.1 0l.4.1-.9 2.1h-2.5l.1 2.2c1.1.4 2 .8 2 .8s-.9-.3-2-.8l.1 2.7h3.2v2.6h-1.9l-.4 2.1-1.8 1.9 3.2 5.4.9 2.9h-2.8l.6 3.8-1.2 1.3s-.7-.3-1 0c-.3.3 1.5 1.6 1.5 1.6l-1 1.2h-1.6l-1.9.9-.3-.7-2.5.7-2.5-1.2-1.6-.4v4.7h-2.2l-1.3-4.3h-1v9.3l5.9-2.2 3 15.3 4.8-1.9 3.1-2.4 3.6-.9v-1.6H544v-1.2l4.6-1.6 1.3 1.2.7-2.1 1.5.6v-2.1h1l1.5-1.5h-4v-2.1c0-.9.6-1 .7-2.1.1-1 .7-1.6.7-1.6v-2.5h3.7v-2.8h2.5v1.2h1.5l1.5-3.1h1v-.9l1.2-1.8 1.5-2.3 1.9-.6V143h1.6l1.6-1.7.7.8h3.2s1.4-.2 1.8 0c.4.2 1.2-.3 2.2-.8 1-.4 1.5 1.1 1.5 1.1h3.3c.4-.1 3.1-4.5 3.1-4.5s.3.7.7.6c.4-.1 1.1-.6 1.1-.6l-.8-1.1 1.3-2-.6-2.4h2.6l.7.4.1-1.8h2.3l4.9-3 1.2.4 2.9-.4 1.9-3v-1.9l-2-1.4 1.6-2.6 1.1-1.4V116l3.4-2.3h2l2.8.9-1.2-2.6.1-2.4 4.6-6.8.9-1.8h-.2l-3.7-2.1-3.2-.5-3.7-1.9-1.9-2.4-1.1-1.3-1.3 1.1-1.9.8-.8 1.9-1.9-2.4-2.4 1.6-2.1-.5-2.1-.3-2.1-.5-2.1-1.3-1.6-1.3-2.4-1.6-2.4-2.1V87l1.3-1.3-1.6-2.1-1.6 1.1H575.2l-2.1.5-1.9-1.6-1.1-1.3-1.3-.8-1.3 1.3-2.1.5-1.3-.3-2.1.5-1.6.8L557 86l-2.4-1.9h-1.3l-1.3-1.6-1.3-.8.3-1.3h-4l-2.7-1.6-2.9-1.3-1.4-.5-1.1 2.1.5 2.9-.5 9.3-1.1 10.1-.8 5.3-2 2.3-.1.4-.4.2-.5.4 2.1 1.7-1.1 2.7z"/>
</g>
<g id="N6" class="small-box ppbm">
<path class="st1" d="M589 163.6l2.8-2.9-1.3-.8-.2-1.4-.7-.5s.4-1.4.1-1.5c-.3-.1-1.9 0-1.9 0l-1-1.6-.4-.7-2.1-2.2 1.4-2.3-2.1-2.6s-1.7-4.4-1.3-4.5H579s-.4-1.5-1.5-1.1c-1 .4-1.8.9-2.2.8-.4-.2-1.8 0-1.8 0h-3.2l-.7-.8-1.6 1.7h-1.6v2.2l-1.9.6-1.5 2.3-1.2 1.8v.9h-1l-1.5 3.1H558v-1.2h-2.5v2.8h-3.7v2.5s-.6.6-.7 1.6c-.1 1-.7 1.2-.7 2.1v2.1h4l-1.5 1.5h-1v2.1l-1.5-.6-.7 2.1-1.3-1.2-4.6 1.6v1.2h2.7v1.6l-3.6.9-3.1 2.4-4.8 1.9 1.6 8.3 5.8 3.9v-1.6l2.7 1.6 3.7-1.6v1.6s-.7.5-.9 1c1.5.2 3.6.5 4 .7.6.2 2 0 2 0s.8-.1.9.1c.1.2 1.5 0 1.5 0s1 .9 1.7.1 1.9-1.7 2-1.9c.1-.3-.1-2 0-2.5s-.1-1.2.5-.6.4 2 .8 1.5c.4-.4 1.3-1.7 1.3-1.7s.5 1.2 1.6 1.2 1.4-.8 1.9-.1c.5.7 1.7-2.4 2-1.1.3 1.3 0 1.4 0 1.7 0 .2.3.5.6.7.3.2.5.2.8.2.5-.2 1-1.6 1.3-.9.3.7.8 1 1.2.9.4-.1 1.8 0 1.8 0s-1.9-1.5-1.4-2 .8-.4.8-.9-1.2-1.3-1.2-1.3v-4.6s.2-1.4 1.1-1.2c.9.2 1.1 1.1 1.1 1.1s1.5.1 1.5-.3v-2.5l1.9-1.6s.6-.4 1.2-.6c.6-.2.8-1.3 1.1-1.2.3.1 1.3.8 1.3.8l.7.8 1.1.7.5-1v-1.3l.6-.8.5 1 1.1-1 .4-.3.6-.6h1.5l1.6-1.2v-2l-.6-1.3 1.6-2.3-1.8-1.8z"/>
</g>
<g id="N7" class="small-box pas">
<path class="st1" d="M690.4 125.7l.5-1.3-2.6-7.4-1.1-3.7-.5-2.1-6.4-1.3-1.6-2.1h-1.3l-2.1-2.6-2.6 2.4-4.2-.5-3.5-3.7-1.1-.8v-3.7l-1.3-3.2 1.6-3.2-.8-.5-1.3-2.9-1.9 1.6-.3 3.2-1.3.3-.8-.5-1.3 2.1-.3 1.6-3.2 1.9-.8 2.9-3.7.3-.5 1.5h-2.7l-1.3 3.4-6.4.8-2.4 1.6-1.6 1.3-3.2-2.4.8-1.6-.3-1.1-4.2.3-5-1.1-1.1-1.9-2.1-2.1-1.3.3h-.1l-.9 1.8-4.6 6.8-.1 2.4 1.2 2.6-2.8-.9h-2l-3.4 2.3v1.7l-1.1 1.4-1.6 2.6 2 1.4v1.9l-1.9 3-2.9.4-1.2-.4-4.9 3h-2.3l-.1 1.8-.7-.4h-2.6l.6 2.4-1.3 2 .8 1.1s-.7.5-1.1.6c-.4.1-.7-.6-.7-.6s-2.7 4.4-3.1 4.5c-.4.1 1.3 4.5 1.3 4.5l2.1 2.6-1.4 2.3 2.1 2.2.4.7 1 1.6s1.6-.1 1.9 0c.3.1-.1 1.5-.1 1.5l.7.5.2 1.4 1.3.8-2.8 2.9 1 1.9-1.6 2.3.6 1.3v2.3l-1.6 1.2H586l-.6.6 1.7 5.3 1.5 1.4-.7 1.7 1.6 1.2 1.1 2.9 1.3 2.5 2.4 2.5 2.1 4.7 6.4-5.4.7-2.7 3.1-1.7s.9 1.8 1.3 2l1.2.6 2.3-1.2.6 3.8c1.5-.1 3.8-.1 4.8.1 1.5.3 5.3-1.9 5.3-1.9l1.8-.7 2.6-2.8 1.6-1.8s2.6-1.6 2.6-3.1v-4.4l-1.2-3.4h2.7l1.6-1 3.1.6.8-.6s2.1-.5 3.3-.8c1.2-.3 3.8 0 3.8 0h.7s2.5 2.3 2.6 1.1c.1-1.2 0-1.9 0-1.9l1.1-1.3h-1.9l-.1-2.1 2-4.3 2-1.2s.4-2.9 2.5-5 1.9-2.9 2.5-3.8c.6-.9 2.4-1.6 2.5-2.6l.1-1s-1.2-3.3 0-3.1c1.2.2 2.8-.3 3.7 0 .9.3-.1-.5 1.6 0 1.8.5 3.4-.3 3.8 0 .4.3 1.2.9 1.2 1.8v5.8s.4.6 1 .9c.6.3 2.4-1.8 2.4-1.8s1.5-1.2 1.9-1.2c.4 0 2.4-2.6 2.4-2.6v-6.1l2.2-.7.7-2.7h1.9s1.3.9 2.2 1c.9.1 1.9.3 2.5.3h1.6c.6 0 0 .2 1.3 0h1.5l-.1-.1-.1-1.5-.2-4.6.8-3.2-.7-5.7z"/>
</g>
<g id="N8" class="small-box pas">
<path class="st1" d="M699.5 181.8l.1.3h.2l.4-.4z"/>
<path class="st1" d="M699.8 182.1l1.5-.6-1.1.2zM700.9 184.9l-1.2-2.7v.1z"/>
<path class="st1" d="M699.6 182.1l.1.2v-.1l-.1-.1z"/>
<path class="st1" d="M699.7 182.2l.1-.1h-.2z"/>
<path class="st1" d="M700.3 185.4l-1.7-2.1 1-1.1-.1-.1-.2-.4.8-.1.6-.7-1.6-1.6-1.6-5.3.3-3.2-2.1-5.8-1.3-2.4.3-1.6 1.3-2.4 1.6-2.9 1.1-.3.5-1.1-2.9-3.2-1.6-6.6-1.6-1.3-1.3-2.4-1.2-.9h-1.5c-1.3.2-.7 0-1.3 0h-1.6c-.6 0-1.6-.1-2.5-.3-.9-.1-2.2-1-2.2-1h-1.9l-.7 2.7-2.2.7v6.1s-1.9 2.6-2.4 2.6c-.4 0-1.9 1.2-1.9 1.2s-1.8 2.1-2.4 1.8c-.6-.3-1-.9-1-.9v-2.4-3.4c0-.9-.7-1.5-1.2-1.8-.4-.3-2.1.5-3.8 0-1.8-.5-.7.3-1.6 0-.9-.3-2.5.2-3.7 0-1.2-.2 0 3.1 0 3.1l-.1 1c-.1 1-1.9 1.8-2.5 2.6-.6.9-.4 1.8-2.5 3.8-2.1 2.1-2.5 5-2.5 5l-2 1.2-2 4.3.1 2.1h1.9l-1.1 1.3s.1.7 0 1.9-2.6-1.1-2.6-1.1h-.7s-2.6-.3-3.8 0c-1.2.3-3.3.8-3.3.8l-.8.6-3.1-.6-1.6 1h-2.7l1.2 3.4v4.4c0 1.5-2.6 3.1-2.6 3.1l-1.6 1.8-2.6 2.8-1.8.7s-3.8 2.2-5.3 1.9c-1-.2-3.3-.1-4.8-.1l.1.6 2.9 5.1-.5.9 2 2.9-1.4 1.6s-1.4-.1-1.4 1.2-.2 1.9.8 2.1c1 .2 4.2.6 4.2.6l2.9 1.2s1.9 2.4 2.2 2.7c.3.4 2.6 2.9 2.6 2.9h2.6v1.5s-2 1-1.4 1h.9l-1.1 2 .9.4s1 1 1.1 1c.1 0 0 1.4 0 1.4l-.2 1.4 2.5 2.7s-3.7 7.1-3.1 8c.6 1 .3 3.9 0 5.3s1.7 1.8 1.7 1.8l1.5 1.2 1.1 2.2 2 7.3 5 2.4 1.9 1.2.8-.4c.8-.4 2.4 1.6 2.4 1.6s1.2 1.8 2.7 2.9c1.6 1.2 1.8 1.8 1.8 1.8s-1 .8-2 2.2c-1 1.4-1.4 2.4-2.9 4.1-.4.4-.7.7-1 .9l.8 1.7 1.9 1.3h2l.8 2.1.5 1.1s1.9-1.4 2.2-1c.3.4 3 2 3 2l.4-.8-.7-3.8s-.1-2.1.2-1.9c.1 0 .2.1.4.1.6 0 1.7-.1 1.7-.1s-.6-1 0-1 2.7-.8 2.7-.8l1.6-1.2-.5-2.3h1.5l-1-1.3h-2.3l-.5-.6 1.2-1.6h-1.9l.4-.7 1.2-.8-.6-1.2 1.4-1.6v-1.2l-1.4-1.2.9-.9h1l.3-4.4h.8v1.5l.9 2.1 1.2-1.6.6.9s.4-.6 1.1-.5c.7.1 1.4.1 1.4.1v-2.2l-.7-.3-.5-1.8 1.2-1.9h2.5c.3 0 1.5-1.4 1.5-1.4l-.6-1.4s.1-.3.6-.5 1.1.9 1.1 1.2c0 .3 1.2.7 1.2.7l.9.8.7-.8-.7-1-.1-1.4s1-.3 1.3 0c.3.3 1.2.3 1.2.3h1V236.5l-1.6-.7.2-.8h2.6v-2l1.1-1.7-1.7-1.9-.1-1.6 1.8-1 .8-2.3 1-.4 1.2-1.5 2.1-1.9-.5-11.7.5-1.1-1-1.3 1.6-.9h1.7l1.5 2.6.7-1.8h2.6l1.8 1.4 2.8-.4 3.4.4 1.7-1.3v-11.5l-.8-.9.8-.6v-2.9l.5-1.4V185.9l-1.7-.5z"/>
<path class="st1" d="M701.3 181.5l-.5-.5-.6.7z"/>
</g>
<g id="N9" class="small-box pas">
<path class="st1" d="M629.1 218.1c-.1 0-1.1-1-1.1-1l-.9-.4 1.1-2h-.9c-.6 0 1.4-1 1.4-1v-1.5h-2.6s-2.4-2.6-2.6-2.9c-.3-.4-2.2-2.7-2.2-2.7l-2.9-1.2s-3.2-.4-4.2-.6c-1-.2-.8-.8-.8-2.1s1.4-1.2 1.4-1.2l1.4-1.6-2-2.9.5-.9-2.9-5.1-.1-.6-.6-3.8-2.3 1.2-1.2-.6c-.4-.2-1.3-2-1.3-2l-3.1 1.7-.7 2.7-6.4 5.4-2.1-4.7-2.4-2.5-1.3-2.5-1.1-2.9-1.6-1.2.7-1.7-1.5-1.4-1.7-5.3-.4.3-1.1 1-.5-1-.6.8v1.3l-.5 1-1.1-.7-.7-.8s-1-.7-1.3-.8c-.3-.1-.5 1-1.1 1.2-.6.2-1.2.6-1.2.6l-1.9 1.6v2.5c0 .4-1.5.3-1.5.3s-.2-.9-1.1-1.1c-.9-.2-1.1 1.2-1.1 1.2v4.4s1.2.8 1.2 1.3-.3.5-.8.9c-.5.5 1.4 2 1.4 2s-1.4-.1-1.8 0c-.4.1-.9-.1-1.2-.9-.3-.7-.8.6-1.3.9-.2.1-.5 0-.8-.2l4.1 5.5v.9h-5.3l-1.3-1-1.9 1-.4.9c.3.1-.3.8-.3.8l.3-.8h-.3c-1 .1-2.9 2.2-2.9 2.2l.7 1.5-1.6.6V205.5h7.9l-.1 1.8h-1.3v5.4h2.6s1.2 1.2 1.6 1.1c.4-.1 2.9 0 2.9 0l4.4-1.1 1.2 2.4h.9v2.2s-3.8-.1-4 .9c-.1 1-1.3 1.5-.4 2.1.9.6 5.7 5 5.7 5l-2.8 2.9s1 1-.7 1.3c-.9.1-2.5.7-3.9 1.3l.3.3v1c.4.2.8.3 1.1.3 1.1 0 1-.7 1-.7s1.6.6 1.9.4c.3-.2.7-1.7.7-1.7s1.3 1.8 1.7 1.3c.4-.5 2.7-.8 4.2-.7 1.5.1 0 0 1.4 1.7s1.9.8 2.6.3c.3-.2.4-.3.6-.4.2-.2.3-.3.3-.6.1-.5.6-1.1 1.4-2.1.8-1 2-.9 2.9-1.7 1-.8 1.3-1.4 1.4-2 .1-.6 0-2.1 0-2.1l.7.1s.9-1.2 1.1-1.5c.2-.3.9 0 1.2 0 .3 0 1.7 1 2.3 1.2.6.2 1.1-.7 1.4-1.2.3-.5 2-.9 2.3-.9.3 0 1.6.6 1.7 1.3.1.7 2.5-.5 2.7-.4.3.1 2.2.4 2.2.1 0-.3 2.7-.3 2.7-.3s1.6-.7 3.4-1.5c1.9-.8.8-2.9.8-2.9l3.4 1.2h2s1.6 2.3 3.5 2.1c1.7-.2 2.7-.4 2.9-.5l.2-1.4c.3 0 .4-1.4.3-1.4z"/>
<path class="st1" d="M563.5 195.9l-.3.8c-.1 0 .6-.6.3-.8z"/>
</g>
<g id="N10" class="small-box pas">
<path class="st1" d="M578 228.1l2.8-2.9s-4.9-4.4-5.7-5c-.9-.6.3-1 .4-2.1.1-1 4-.9 4-.9V215h-.9l-1.2-2.4-4.4 1.1s-2.5-.1-2.9 0c-.4.1-1.6-1.1-1.6-1.1h-2.6v-5.4h1.3l.1-1.8h-7.9V200.1l1.6-.6-.7-1.5s1.9-2.1 2.9-2.2h.3l.4-.9 1.9-1 1.3 1h5.3v-.9l-4.1-5.5c-.3-.2-.6-.5-.6-.7 0-.3.3-.4 0-1.7-.3-1.3-1.5 1.8-2 1.1s-.8.1-1.9.1c-1.1 0-1.6-1.2-1.6-1.2s-.9 1.3-1.3 1.7c-.4.4-.2-.9-.8-1.5-.6-.6-.4.1-.5.6-.1.5.1 2.2 0 2.5-.1.3-1.3 1.2-2 1.9-.7.8-1.7-.1-1.7-.1s-1.4.2-1.5 0c-.1-.2-.9-.1-.9-.1s-1.4.2-2 0c-.4-.1-2.5-.5-4-.7-.1.2-.1.3-.1.5.2.6 0 7.5 0 7.5l-2.7 1.8v1.4l-2 1.2v1.2l.7.2 1.3-.9-1.3.9.5.2v2.5l-.6 2.5 1.4 1.3-1.4 1.7-1.1-1.2-.5 1.5c.5.2 1.1.4 1.6.4.7 0 1.4-.6 1.7-.4.3.2 2.4-2.6 2.4-2.6s.7.3 1.1 1c.4.7 1.3.6 1 1.4-.3.8.3 1.5.1 2-.3.5-.3.6.1.9.2.1 1 .5 1.7 1l.1-.6h2.1l1.7-.5-.7 2 4.1-.6.6 3.3 3-.5v4l3.4 1.8 2.1 6h2l2.5-1.2.8.8c1.4-.6 3-1.1 3.9-1.3 2-.5 1-1.5 1-1.5z"/>
<path class="st1" d="M563.5 195.9l-.3.8c-.1 0 .6-.6.3-.8z"/>
</g>
<g id="N14" class="small-box amanah">
<path class="st1" d="M573.3 230.7l-.8-.8-2.5 1.2h-2l-2.1-6-3.4-1.8v-4l-3 .5-.6-3.3-4.1.6.7-2-1.7.5h-2.1l-.1.6-.2 1.2 1 1.5-.8.4-2.1 2.3-.9 1.1-1.9 1.4-.5-1.7-2.2-.4-.3 2.5.8 1.2H542l-.8-1.6.3-2.8.5-.9v-.4c-1 0-2.4-.1-2.9-.1-.7 0-.3.8-1 1.7-.7.9-.1 1.1-.1 2.3 0 1.2 1.3 1.4 1.8 1.7.5.3-.1 1.7-.6 2.3-.5.6-1.1.4-1.7.4-.2 0-.6-.1-1.1-.1l-.2 4.5 4.6 12.7 3.2-.7 3.5-.1v.6l10.3-.9-.1.9 4.5-.9.2.9 5.7-3.4.5-1.2v-1.3h1l.1-1.7 1.3-.8-1.3-2 .3-1.2h3.2l.5-1.2V231l-.4-.3z"/>
</g>
<g id="N15" class="small-box ppbm">
<path class="st1" d="M538.9 211.5c.1-.4.1-.7.1-.7s-.1.4-.1.7z"/>
<path class="st1" d="M545 189.6l-2.7-1.6v1.6l-5.8-3.9-5.8-3.9-21.6 2.7-.2 1.2h1.6v3.5h-1.2v2.2l1.5 1.5h1.7l4.5 6.1-3.4 2.3s5.4 7.3 5.7 7.1c.3-.2 1.8-1.7 1.8-1.7s3.6 4.6 6 5.1l3.9 3.8 3-.9.9-2.7-6.6-4.7 5.6-6.2v-1.6h2.7v1.4l.9 1 .8.9 1.7.5h1.9v2.4l2-1.4-.7-.2v-1.2l2-1.2v-1.4l2.7-1.8s.2-6.9 0-7.5c0-.1 0-.3.1-.5.2-.5.9-1 .9-1v-1.6l-3.9 1.7z"/>
</g>
<g id="N16" class="small-box pkr">
<path class="st1" d="M536.6 223l-2.9 1.1.3-2.3-.9-1.1-.6 1.1-.4-1.5-.1-.3-2.1.9-1.8 1-2.9-.5.3-1s.5-.8.6-1.1c.1-.3-2.5 0-2.5 0s-1.6.7-1.9.7c-.3 0-.7-.6-.7-.6l.6-1.3.8-.7v-1.8l4.6-3.8c-2.4-.5-6-5.1-6-5.1s-1.5 1.6-1.8 1.7c-.3.2-5.7-7.1-5.7-7.1l3.4-2.3-4.5-6.1h-1.7l-1.5-1.5v.3l-6.9 4.7.8 1.3 3.5 8.7.9 3.3.7 1.9.1.8.2.8.3 6.6.8 1.1 2.3-1 1.1.2s1.1 1.2.5 1.4c-.5.2-2.5.7-2.5.7l-.1 3.2 2.7 2.8c.9-.5 2.1-.9 2.5-.5.7.8.1.3 2.1-.2s1.4-.7 4.1-.7c2.7 0 5.6.2 6.7 0 1.1-.2 3.6-.8 4.5-.8.4 0 1.3-.2 2.2-.4l.6-1.8h.6l-.3-.8z"/>
</g>
<g id="N12" class="small-box pkr">
<path class="st1" d="M543.7 209.3l.6-2.5v-2.5l-.5-.2-2 1.4v-2.4h-1.9l-1.7-.5-.8-.9-.9-1v-1.4h-2.7v1.6l-5.6 6.2 6.6 4.7-.9 2.7-3 .9-3.9-3.8-4.6 3.8v1.8l-.8.7-.6 1.3s.4.6.7.6c.3 0 1.9-.7 1.9-.7s2.6-.3 2.5 0c-.1.3-.6 1.1-.6 1.1l-.3 1 2.9.5 1.8-1 2.1-.9.1.3.3-.8h2.7s.1.6.5 0-.4-.5 0-1.8.9-2.1.9-2.1l.5-1s-.8-.4 0-.9.7-.1 1.4-.7c.4-.3.6-1 .7-1.6-.1-.3.1-.7.1-.7s0 .3-.1.7c0 .2.2.4.6.3 1-.2 1.4-1.3 1.6-.4.2.9-.5.7.2.9.2.1.4.2.7.2l.5-1.5 1.1 1.2 1.4-1.7-1.5-.9z"/>
</g>
<g id="N18_1_">
<path class="st1" d="M563.1 276.4c1-.5 1.2 0 1.2 0h2l-.9-2.4v-1h3l3.6-.5.5-.5h1.2s-.2-.5 0-1 0-2.2 0-2.2l-1.2-.2v-1.7l.4-.5 4.8.9v1.4l1.8-.1v-.8l3.5.6v.9l1.6.5 1.1.7V269l1.2-10h.9s.4.7 1.1 1.2c0 0 1.8 0 2.1-.1.3-.1 2.4.3 2.8 0 .5-.3 1.3-.5 2.4-.7 1.1-.2.4-1.4-.8-2.4-1.2-1-2-3.3-2-4 0-.7-.7-1.7-.7-1.7s.4-1.6 0-2.6c-.4-1.1-1.6-.6-2.3-1.4-.7-.8-1.1-1.7-1.8-2.1-.7-.4.2-1.9 1.1-2.8.9-1 .4-1.2.8-2.3.4-1.1 1.3-3.6 1.2-4.8-.1-1.2-3.1-2.9-3.1-2.9-.1.1-.3.2-.6.4-.7.5-1.2 1.4-2.6-.3-1.4-1.7.1-1.6-1.4-1.7-1.5-.1-3.8.2-4.2.7-.4.5-1.7-1.3-1.7-1.3s-.4 1.5-.7 1.7c-.3.2-1.9-.4-1.9-.4s.1.7-1 .7c-.3 0-.7-.1-1.1-.3v.3l-.5 1.2H570l-.3 1.2 1.3 2-1.3.8-.1 1.7h-1v1.3l-.5 1.2-5.7 3.4-.2-.9-4.5.9.1-.9-10.3.9v-.6l-3.5.1s6.1 16.3 6.1 16.7v3.5l1.7 1.2v2.7l-.4-.2 2.6 1.5 2-.5s2.5 1.6 2.5 2c-.1.4.8 3.6 1.5 4.1.5.4 1.8 1.1 2.4 1.5.2-.2.4-.5.7-.6z"/>
</g>
<g id="N17" class="small-box amanah">
<path class="st1" d="M536.4 269.9v-2.1h2l1.7-.4 1.6.3 1-.8 1.6-1.5.6.6.3 3.2h.4l1-1s1.1-.6 1.4-.6c.3 0 .4 1.6.4 1.6h1.2s.8-.9 1-1.2c.1-.2.7.1 1.1.3l.4.2v-2.7l-1.7-1.2v-3.5c0-.4-6.1-16.7-6.1-16.7l-3.2.7-4.6-12.7.2-4.5c-.7-.1-1.4-.3-1.4-.3s.7.1 1.4.3l.1-1.8h-1l.1-.2c-.9.2-1.8.4-2.2.4-.8 0-3.4.6-4.5.8-1.1.2-3.9 0-6.7 0-2.7 0-2.2.2-4.1.7-2 .5-1.4 1-2.1.2-.4-.5-1.6 0-2.5.5l1.7 1.8 2.2 1.9 4.4 6.2 2.1 4c.8 1.2 1.3 2.2 1.4 2.7l3.2 10.2 2.6 9.2.2.6.1 1 .2 2h1.8l2.7 1.8z"/>
</g>
<g id="N13" class="small-box dap">
<path class="st1" d="M539.1 227.7c.5-.6 1.1-2 .6-2.3-.5-.3-1.8-.5-1.8-1.7s-.6-1.4.1-2.3c.7-.9.3-1.7 1-1.7.5 0 1.9.2 2.9.1v-1h-1.3l-.8-1.3-1-.9.8-3.1h2l.4-1.1c-.2-.1-.5-.2-.7-.2-.7-.2 0 0-.2-.9s-.6.2-1.6.4c-.4.1-.6-.1-.6-.3-.1.5-.3 1.2-.7 1.6-.7.6-.6.2-1.4.7-.8.5 0 .9 0 .9l-.5 1s-.5.8-.9 2.1.4 1.2 0 1.8c-.4.6-.5 0-.5 0h-2.7l-.3.8.4 1.5.6-1.1.9 1.1-.3 2.3 2.9-1.1.2 1.1h-.6l-.6 1.8c1-.2 1.9-.5 1.9-.5s-.9.2-1.9.5l-.1.2h1l-.1 1.8c.4.1.8.1 1.1.1.8.1 1.3.3 1.8-.3z"/>
<path class="st16" d="M538.3 219.6h-42.8"/>
</g>
<g id="N11" class="small-box dap">
<path class="st1" d="M549.9 214.3c.3-.5-.4-1.2-.1-2 .3-.8-.6-.7-1-1.4s-1.1-1-1.1-1-2.1 2.7-2.4 2.6c-.3-.2-1 .4-1.7.4-.5 0-1.1-.2-1.6-.4l-.4 1.1h-2l-.8 3.1 1 .9.8 1.3h1.3v1c.4 0 .7 0 .9-.1.8-.3 1.3-.4 1.3-.4s-.5.1-1.3.4c-.2.1-.5.1-.9.1v.4l-.5.9-.3 2.8.8 1.6h2.6l-.8-1.2.3-2.5 2.4.2.5 1.7 1.9-1.4.9-1.1 2.1-2.3.8-.4-1-1.5.2-1.2c-.8-.4-1.6-.8-1.7-1-.5 0-.5-.1-.2-.6z"/>
<path class="st16" d="M544.6 219.5l-38.7 18.2"/>
</g>
<g id="N19" class="small-box bn">
<path class="st1" d="M647.3 257c-1.6-1.2-2.7-2.9-2.7-2.9s-1.6-2-2.4-1.6l-.8.4-1.9-1.2-5-2.4-2-7.3-1.1-2.2-1.5-1.2s-2-.4-1.7-1.8c.3-1.4.6-4.3 0-5.3s3.1-8 3.1-8l-2.5-2.7c-.2.1-1.2.3-2.9.5-2 .2-3.5-2.1-3.5-2.1h-2L617 218s1.1 2.2-.8 2.9c-1.9.8-3.4 1.5-3.4 1.5s-2.7 0-2.7.3-1.9 0-2.2-.1c-.3-.1-2.6 1.1-2.7.4-.1-.7-1.4-1.3-1.7-1.3-.3 0-2 .4-2.3.9-.3.5-.8 1.4-1.4 1.2-.6-.2-2-1.2-2.3-1.2-.3 0-1-.3-1.2 0-.2.3-1.1 1.5-1.1 1.5l-.7-.1s.1 1.5 0 2.1c-.1.6-.4 1.2-1.4 2-1 .8-2.2.7-2.9 1.7-.8 1-1.3 1.6-1.4 2.1-.1.3-.1.5-.3.6 0 0 3 1.7 3.1 2.9.1 1.2-.8 3.7-1.2 4.8-.4 1.1.1 1.3-.8 2.3-.9 1-1.8 2.5-1.1 2.8.7.4 1.1 1.3 1.8 2.1s1.9.3 2.3 1.4c.4 1.1 0 2.6 0 2.6s.7 1 .7 1.7.8 3 2 4 1.9 2.2.8 2.4c-1.1.2-1.9.4-2.4.7-.5.3-2.6-.1-2.8 0-.3.1-2.1.1-2.1.1-.7-.5-1.1-1.2-1.1-1.2h-.9l-1.2 10v1.6l-1.1-.7-1.6-.5v-.9l-3.5-.6v.8l-1.8.1v-1.4l-4.8-.9-.4.5v1.7l1.2.2s.2 1.7 0 2.2c-.2.5 0 1 0 1h-1.2l-.5.5-3.6.5h-3v1l.9 2.4h-2s-.2-.5-1.2 0c-.3.1-.5.4-.7.6l.4.2 1.1 2.8s-.7 1.4 0 1.6c.7.2 2.5 1.7 2.5 1.7v8.9l-1.4.8 4.9 9.7 1.2-.7h2.7s.3 2.3.6 2.4c.3.1 2 0 2 0s.2 1.3.9 1.3h2v-3.1l9.5-.8-.4 2.1 10.4 2.6 1.9 1.9 4.3 2 3.5 1.2 2.8 1.1 1.2-.7 2.7.5.8-.9 1.2-2.4 1.4-2.2s-1-2.7 0-2.9c1-.2 1.8-3.5 1.8-3.5l-1.2-1.6-.8-4.1 2.9-2.7s1.6-.8 2.4-2.2c.8-1.4 1.4-2.9 1.4-2.9v-2.4s2.3 1.4 3.4-.6 1.5-2.4 1.7-3.1c.2-.8 1.4-2.6 1.4-2.6s1.6-1.6 2-3.1c.4-1.6 3.3-2.6 3.3-2.6s1.2-2.7 1.4-2.7c.2 0 1.5-1 1.5-1l1.9-2.4s.7.1 1.8-.7c.3-.2.6-.5 1-.9 1.6-1.8 2-2.7 2.9-4.1 1-1.4 2-2.2 2-2.2s-.5-.8-2-1.9z"/>
</g>
<g id="N20" class="small-box pas">
<path class="st1" d="M564.9 293.1l1.4-.8v-8.9s-1.8-1.5-2.5-1.7c-.7-.2 0-1.6 0-1.6l-1.1-2.8-.4-.2c-.7-.4-1.9-1.2-2.4-1.5-.7-.5-1.6-3.7-1.5-4.1.1-.4-2.5-2-2.5-2l-2 .5-2.6-1.5c-.4-.2-1-.5-1.1-.3-.2.3-1 1.2-1 1.2H548s-.1-1.6-.4-1.6c-.3 0-1.4.6-1.4.6l-1 1h-.2l-.3-3.2-.6-.6-1.6 1.5-1 .8-1.6-.3-1.7.4h-2v2.1l-2.7-1.8h-1.8l1.4 8.6.5 5.3.4 8.8.5 4.6-.2 3.3 1.6 3.2.2 3.9.5 6.9.1.4.6 1.8 2.1.5h2.6V314h3l2.1-2.3-.6-.7 1.7-1.8h1.8v-.7l4.5-.7.7 1.6 3.3-1.6.6-.8 4.4-2 .5 1.7 2.1-4 3.6.1-4.8-9.7z"/>
</g>
<g id="N21" class="small-box bn">
<path class="st1" d="M541.3 353.3c2.2-.2 4.7-.7 4.7-.7s.6-.5.2-1.6c-.4-1.2.1-.8.1-.8s-.3-.6 0-1.3c.3-.7 1.4-2 1.6-2.5.2-.6 0-1.3 0-1.3s.8-1.4 1-3.1c.2-1.8 0-2 0-2l1.3-2.1s1.8-.3 2.1-.4c.3-.1 1.6-1.3 1.9-2.2.3-.9 1.2-1.9 1.3-2.5.1-.7.8-1 .8-1l3.9-2 .4.2v-2.4l1.3-1.2-.8-4.1.4-1.4 2-1.5-.8-1.6v-2.5l1.5-1 1.5.6 1.7-2.4 1.7 1.2.5-2.6 1.3-.9-1.3-1.7h2.3l.6-.6-2.3-5.2-3.6-.1-2.1 4-.5-1.7-4.4 2-.6.8-3.3 1.6-.7-1.6-4.5.7v.7h-1.8l-1.7 1.8.6.7-2.1 2.3h-3v1.6h-2.6l-2.1-.5.6 1.9V331l-1.6 4.8-1.2 5.1v4.8l-1.6 2.8-.9 1.9-.4.9v.4c2.5.9 7 1.7 8.6 1.6z"/>
</g>
<g id="N22" class="small-box pkr">
<path class="st1" d="M584.8 349v1.5l-1.1.3s.3.7.7 1.2l1.2-3h-.8z"/>
<path class="st1" d="M585 352.5c.5.3.5-.5.5-.5l1-1.7h.9l.6-1.6v.7l1.9-.8-1.9-3.4v-2.4l11.4-3.7-1.8-3.7.7-.8.6-.1.8-.8 11.7.4v1.8s0 1.1.3 1.7c.3.6 1.2-.8 1.2-.8l1.3-1.1h4.7l1.6-1.1h.7l1.6-2.2.4.6 1.5-2.2h-1.1l-.8-2.6-1.8-1.9-3.8-1 2.9-.6 1-.7H622.5l.9-1.5 1.3-1.1 2-1.1-2.3-2-.5-2.5s-.7-.1-1.3 0c-.6.1-1.1.5-2 .7-.9.2-1.6.4-1.6.4h-1.8l-1.2-1.4v-3.1l-.8-.2-2.7-.5-1.2.7-2.8-1.1-3.5-1.2-4.3-2-1.9-1.9-10.4-2.6.4-2.1-9.5.8v3.1h-2c-.7 0-.9-1.3-.9-1.3s-1.7.1-2 0c-.3-.1-.6-2.4-.6-2.4H571l-1.2.7 2.3 5.2-.6.6h-2.3l1.3 1.7-1.3.9-.5 2.6-1.7-1.2-1.7 2.4-1.5-.6-1.5 1v2.5l.8 1.6-2 1.5-.4 1.4.8 4.1-1.3 1.2v2.4l2.6 1 1.7 3.3s.8.3 1.7 1.1c.9.8.1 1.3.1 1.3l.4 3.5-.2 1.6s-.3 2.9-.6 3.2c-.3.3-1.5 1.1-1.5 1.1l-.2 2.6 1.6-1h.9v1.3l2-.1 1.8-1.1s.8.5 1.1.3c.3-.2 1.2-1.2 1.2-1.2l.8 2.1 3.3-2.8.9-.5.1-.5 1.8-.2.3-.5.6-.4 1 1.4v-1.6l1.6 1.9 1.3-.3 1.2 3.4-1.2 3c.1.6.3.8.5.9z"/>
</g>
<g id="N23" class="small-box pas">
<path class="st1" d="M699.5 181.8l.1.3h.2l.4-.4z"/>
<path class="st1" d="M699.8 182.1l1.5-.6-1.1.2zM700.9 184.9l-1.2-2.7v.1z"/>
<path class="st1" d="M699.6 182.1l.1.2v-.1l-.1-.1z"/>
<path class="st1" d="M699.7 182.2l.1-.1h-.2z"/>
<path class="st1" d="M788.6 229l3.5-.7v-3.5l-2.8-3.5-3.5-.7-.7-2.1-7.1-4.9-6.4-1.4-2.1-2.8 5-5.6 4.2-3.5 5.7-.7 4.2-1.4 3.2-3.5-1.1-2.5-2.8-1.8 1.4-2.5-1.1-2.5-1.4-2.8-1.1-2.1-.7-1.8 1.8-3.2-3-1.3-2.7-1.9-2.9.3-2.4.5H774l-2.9-.5-1.6 1.6h-2.4s-1.3-.3-2.1.5-2.4 1.6-2.4 1.6l-3.2 1.3-2.1-1.9-1.6.5-1.9-.3-1.6-2.9-4-1.6-2.4-2.1-1.1-1.9-.5-1.6-2.7-.5-3.2-1.1v2.9l-4.2 2.9-2.4 1.1v5.6l-2.1 1.1-4.2-.3-4.2-1.9-.8 2.1-1.3 1.1-1.1 1.1-1.3.3-2.4-1.1-1.1-3.2-1.6-.8-.8-1.1-1.9-.5-2.1-2.9-1.1 4.5-.8 2.1 1.3 1.6-3.4 1.6-1.6 1.1-1.5.6-.2.2 1.2 2.7-1.2-2.7-1 1.1 1.7 2.1 1.1 1V189.9l-.5 1.4v2.9l-.8.6.8.9v11.5l-1.7 1.3-3.4-.4-2.8.4-1.8-1.4h-2.6l-.7 1.8-1.5-2.6h-1.7l-1.6.9 1 1.3-.5 1.1.5 11.7-2.1 1.9-1.2 1.5-1 .4-.8 2.3-1.8 1 .1 1.6 1.7 1.9-1.1 1.7v2.4h-2.6l-.2.8 1.6.7V239.6h-1s-.9 0-1.2-.3c-.3-.3-1.3 0-1.3 0l.1 1.4.7 1-.7.8-.9-.8s-1.2-.4-1.2-.7c0-.3-.6-1.4-1.1-1.2-.5.2-.6.5-.6.5l.6 1.4s-1.2 1.4-1.5 1.4H666l-1.2 1.9.5 1.8.7.3v2.2s-.7 0-1.4-.1-1.1.5-1.1.5l-.6-.9-1.2 1.6-.9-2.1V246h-.8l-.3 4.4h-1l-.9.9 1.4 1.2v1.2l-1.4 1.6.6 1.2-1.2.8-.4.7h1.9l-1.2 1.6.5.6h2.3l.5 1.4h-.8l.5 2.3-1.6 1.2s-2.2.8-2.7.8 0 1 0 1-1.1.1-1.7.1c1 .6 2.2 1.3 2.9 1.5 1.4.4 1.3-.9 1.3-.9l1.5 1.9.4-1 1.8 1.1h1.1l1.4.4 2.1-.4s.1 1.5 0 1.8c-.1.3 1.2.3 1.8 0 .6-.2 1.2.6 1.2.6l.6-.5c.6-.5.3.7.7.5.4-.2.6 0 .6 0s.3 1.8-.3 2.3c-.6.5-2.9 1.5-2.9 1.5l-.2 1.2s.8 1.2.8 2.4-2 .5-2 .5 0 .9.3 1.9c.3 1-1.4 1-1.4 1s.2 4.1.3 4.4c.1.3-1.7.8-2.3 1.5-.6.7-.3 1.6-.6 2-.3.4-.9-.1-2-.5s-1.5.9-1.5.9l-2.2-2.8 2.2-.9-1.2-3.5-1.8.5-1.4-3.4-1.2-.3c-1.2-.3-2.8-.4-2.8-.4s-.3-.6-1.4-.7c-1.1-.1-.8.6-.6 1.3.2.7 1.2 1 1.2 1v2c0 .5-.4 2.2.4 2.7.8.6 1 1.6 1.3 2.1.3.5-.6 2.6-.9 2.6-.3.1-.2 1.1-.3 1.8-.1.7 1.6 0 2 0 .4 0 1.5 1.2 1.5 1.2l-1.6.6s-.1 1.1-1.2 1.3c-1.1.2-1.2-.3-1.6 0-.4.3-1.1 0-1.1 0l-1 1.5-1.7.6s-.5 1.3-1.6 3c-1.1 1.8.4 2.1.6 2.5.2.5 3.5 2.1 3.6 2.6s.7.5-.3 1.7-.7 1.2-.7 1.2l.7 1.4 1.2 2.2s.9-.2 3.1 0c2.3.2 1.7 3.4 1.7 3.4l1 .6s.7.8 1.7 1.4c1 .6 0 .4 0 1.1 0 .7-2.3 2.1-2.3 2.1h-1.1l-1 1.3.7 1.1s.7.2.8.5c.1.3-.8 2.6-.8 2.6l2.1.8 2.3.4.4-.4 1.7.5h2.4l.8 1.2h.4l.8.8s1.1-.9 2.1-.8c1 .1.9.6 1.2.6.3 0 .7-.6 1.5-.6s.2 1.8.2 1.8l.5 1.6-2.2 1.6 2.2 1.2s.9 1.1 1 2.3c.1 1.2-2.2 1.9-2.2 1.9l.1 4.1-.9 2.5c-1.7 2.2 0 1.6 0 2 0 .4 0 .9.6 1.6.6.7.9-.8.9-.8s2.5 2.8 3 3.5c.6.7 1-.6 1-.6h.6s.5-.5.6-.9c.1-.4 1.3.9 1.3.9l.8 3.7c.1 0 .2-.1.4-.1 1.1-.3 0-1.4 1.5-1.4 1.5.1.9 1 1.5.1s1.6-.9 1.6-.9.5-1.1.8-1.1c.3 0 .3-.1 1.9.9 1.6 1 2.6.6 3.1 1 .6.4 2.1-.2 2.4 0 .3.2.4.6.7 0 .3-.6 1.2-1.7 1.6-1.7.4 0 2.5 2.2 2.6 2.5.1.3 1.5 1.1 1.5 1.1l.8-.6s0-.8 1.2-1.3l1.2-.5s-2.6-1.3 0-1.7c2.6-.4 4.1-.8 3.9.5-.2 1.3-.3.4-.7 1.7-.4 1.3-.1 2.3-.2 2.6-.1.3.5 1.3.9 1.9.2.3.6 1.8 1 2.6v-3.6 3.6s.2.2.5.4c.1-.1.2-.2.3-.5.6-2.1.7-3.1.6-3.7-.1-.6-.6-3.2-.6-3.2l-.2-.9s-.8-.1.8-.1 1.2.3 1.8.6c.6.3.1.4 1 .4h1.8s-.8-1.2 0-2.5.6-1.3.8-2.2c.2-.9 0-1.9 0-1.9h-.7s-1.6-1.5-1.9-1.5c-.3 0-.4 1-.6 1.3-.2.3-2.5-.2-2.1-.2.4 0 1 .2 1-.3s-.3-1.8-.3-1.8l-.3-.5-.2-2.3-2-1.5-2.5-2.2.5-.9h-1.1s-.2-1 .1-1.1c.3-.1 1.4-.5 1.4-.5l.1-1.6 4-3.1s1.8-3.1 1.8-3.4c0-.3.8-4.6.8-4.6s-.6.4-1.4 0c-.8-.4-1.3-1.4-1.1-1.9.2-.5.6-1.8.6-1.8h1.1l.6-2.1s-.2-.2-1.4-.7c-1.2-.5-1.4-1.6-1-2.3.4-.7 2.8-2.4 3.1-4.7.3-2.4.6-2.5.8-3.2.2-.8.4-.8.6-1.8.2-1 .7-1.7.7-1.7l-1.7-2.7 1.1-2s-1.4-.2-1.4-.9 1.1-1.1 1.1-1.1-.8-.8 0-2 .9-1.2 1.6-1.1c.7.1 1 0 1-.9s.5-2.6 1.1-3.6c.6-1.1.2-1.9 0-2.5-.2-.6-1.6-1.3-1.6-1.3s-.4-.9-.4-1.4c0-.5.5-1.1-.2-1.1s-1.9.5-1.9 0 .3-1.1.3-1.1.3.5 1.6 0 1.7-1.1 1.4-1.6c-.3-.5-.1-1.3-.9-1.2-.8.1-1.5 0-1.8 0-.3 0-1.1-.4-1.1-1.5 0-.8.3-1.1.5-1.1-.2 0-.4 0-.6-.6-.2-.9-1.2-2.6-1.2-2.6l-1.5-3.4s-.6.5-.7 0c-.1-.5-.1-2.2-.1-2.2h-1l-.8-.5s-1.7-.9-.9-2.2c.8-1.3.3-1 1.4-1.9 1.1-.9.2-2.1.7-2.3.5-.2 1.6.2 1.9-.6.3-.8 1.4-1 1.7-1.1.3-.1 2.6-.8 2.6-.8s15.7-7.5 21.3-10.4c0 0-.1-1.7 1.6-1.7 1.7 0 .8-.5 1.7 0l.9.5s-.1.6.8.6.3-.3.9 0c.6.3.6.7 1.4.9.8.2 1.8.4 2.1.2.3-.2.5-1.5.5-1.5s-.8-1.2 0-1.4c.8-.2 2.5-.7 2.5-.7s.8-.6 1.1 0c.3.6.8-.3.8-.3l34.8-2.4 5.7-10.6V229z"/>
<path class="st1" d="M704.9 360.8c-.3-.2-.5-.4-.5-.4.1.4.3.5.5.4zM704.4 360.4zM701.3 181.5l-.5-.5-.6.7z"/>
</g>
<g id="N24" class="small-box pas">
<path class="st1" d="M676.2 351s-1.2-1.3-1.3-.9c-.1.4-.6.9-.6.9h-.6s-.4 1.3-1 .6l-3-3.5s-.3 1.5-.9.8c-.6-.7-.6-1.2-.6-1.6 0-.4-1.7.2 0-2l.9-2.5-.1-4.1s2.3-.7 2.2-1.9c-.1-1.2-1-2.3-1-2.3l-2.2-1.2 2.2-1.6-.5-1.6s.6-1.8-.2-1.8-1.2.6-1.5.6c-.3 0-.2-.5-1.2-.6-1-.1-2.1.8-2.1.8l-.8-.8h-.4l-.8-1.2h-2.4l-1.7-.5-.4.4-2.3-.4-2.1-.8s.9-2.4.8-2.6c-.1-.3-.8-.5-.8-.5l-.7-1.1 1-1.3h1.1s2.3-1.4 2.3-2.1c0-.7 1-.5 0-1.1-1-.6-1.7-1.4-1.7-1.4l-1-.6s.6-3.2-1.7-3.4c-2.3-.2-3.1 0-3.1 0l-1.2-2.2-.7-1.4s-.3 0 .7-1.2.4-1.2.3-1.7-3.4-2.1-3.6-2.6c-.2-.5-1.7-.8-.6-2.5 1.1-1.8 1.6-3 1.6-3l1.7-.6 1-1.5s.7.3 1.1 0c.4-.3.5.2 1.6 0s1.2-1.3 1.2-1.3l1.6-.6s-1.1-1.2-1.5-1.2c-.4 0-2.1.7-2 0 .1-.7 0-1.7.3-1.8.3-.1 1.2-2.2.9-2.6-.3-.5-.5-1.5-1.3-2.1-.8-.6-.4-2.3-.4-2.7v-2s-1-.3-1.2-1c-.2-.7-.5-1.4.6-1.3 1.1.1 1.4.7 1.4.7s1.7.1 2.8.4l1.2.3 1.4 3.4 1.8-.5 1.2 3.5-2.2.9 2.2 2.8s.4-1.3 1.5-.9 1.7.9 2 .5c.3-.4 0-1.3.6-2s2.4-1.2 2.3-1.5c-.1-.3-.3-4.4-.3-4.4s1.7 0 1.4-1c-.3-1-.3-1.9-.3-1.9s2 .8 2-.5-.8-2.4-.8-2.4l.2-1.2s2.4-1 2.9-1.5c.6-.5.3-2.3.3-2.3s-.2-.2-.6 0c-.4.2-.1-1-.7-.5l-.6.5s-.6-.8-1.2-.6c-.6.2-1.9.3-1.8 0 .1-.3 0-1.8 0-1.8l-2.1.4-1.4-.4h-1.1l-1.8-1.1-.4 1-1.5-1.9s.1 1.3-1.3.9c-.7-.2-1.9-.9-2.9-1.5-.2 0-.3 0-.4-.1-.3-.2-.2 1.9-.2 1.9l.7 3.8-.4.8s-2.7-1.6-3-2c-.3-.4-2.2 1-2.2 1l-.5-1.1-.8-2.1h-2l-1.9-1.3-.8-1.7c-1.1.8-1.8.7-1.8.7l-1.9 2.4s-1.3 1-1.5 1c-.2 0-1.4 2.7-1.4 2.7s-2.9 1-3.3 2.6c-.4 1.6-2 3.1-2 3.1s-1.2 1.8-1.4 2.6c-.2.8-.6 1.2-1.7 3.1-1.1 2-3.4.6-3.4.6v2.4s-.6 1.6-1.4 2.9c-.8 1.4-2.4 2.2-2.4 2.2l-2.9 2.7.8 4.1 1.2 1.6s-.8 3.3-1.8 3.5c-1 .2 0 2.9 0 2.9l-1.4 2.2-1.2 2.4-.8.9.8.2v3.1l1.2 1.4h1.8s.7-.2 1.6-.4c.9-.2 1.4-.6 2-.7.6-.1 1.3 0 1.3 0l.5 2.5 2.3 2-2 1.1-1.3 1.1-.9 1.5h-.1l.8.7 1.3.6.3 1h1.5s.4.5.4.9-.3 1.4 0 1.8c.3.4.1.8.5.8s2.2-1 2.9-.7c.8.3.9-.3 1.2 0 .3.3-.3 1.3-.8 1.7-.5.4.6 2.2.9 2.8.3.7 1.5 1.6 1.5 1.6l1-.6c.5-.3.6 1 .7 1.5.1.5.6 1.9.6 1.9s-.6 1.4-.6 1.7c0 .3 0 .6-.5.8-.5.2-.5 1-.5 1.3 0 .3-.4.6-.6 1.2-.2.6-.2 1.2.8 2.1.2.2.4.4.4.5l1.9-1.6.7 3.2s1.6-.7 1.8 0c.2.7.5 2.1 0 2.3-.5.2-.6-.7-1 0s-.6.1-.8.9c-.2.8.8 1 .8 1.4 0 .4-.1 1.1 0 1.7.1.6.6.1 1.3.7.7.6-1.1 1.6 0 2.3 1.1.7 1.6 1.6 1.8 2.4.2.8 1.6 2.3 2.6 2.7 1 .5 2 .9 2.7 1.4.8.5.7 2.3 2.1 1.4 1.4-.9 1.1-2.5 1.3-3.2.2-.7 1.1-1.1 1.1-1.1h1c.4.1 1.4.3 1.7.8.3.5 2 .6 2-.3 0-.9-.8-1.1-1.1-1.9-.3-.8-.6-1 .1-.9.7.1.1.6 1 .5.9-.1.1-.5 1-1.4.9-.9 1.4 0 1.4 0s-.1 1.4.5.6c.6-.8 1.2-2.5 1.2-2.5l2.6-.7s.6-1.5 1.3-1.7c.5-.2 2.2.2 3.2.4.3 0 .5.1.7.1.9 0 1.3-.4 4.1 0s4 .5 5 1.2c.8.6.6.8 1.2.7l-.5-3.4z"/>
</g>
<g id="N25" class="small-box pkr">
<path class="st1" d="M619.3 400.8l-.2.1.2-.1zM584.8 349v1.5l-1.1.3s.3.7.7 1.2l1.2-3h-.8z"/>
<path class="st1" d="M637.4 370.1c-.3 0-3.1-.5-.8-.4 2.3.1 3.4-.1 2.7-.6-.7-.5-1.9-1.7-1.9-1.7s.2 1.4-.8.9c-1-.5-1.1-1.2-.9-1.6.2-.4 0-2 0-2s-.8-1.7-.8-2.1c0-.4 1.4-.9.9-1.2-.5-.3-1.6 0-1.6 0s-1.1-1.7-1.6-1.7h-1.7s-1.1-1 0-1.2c1.1-.2 1.7-.5 1.7-.5v-2l.7-1s-.5-1-.5-1.9 1-2-.1-2.7c-1.1-.7-1-2.2-1-2.2s-.1-.9.3-1.1c.4-.2-.1.4.9-.6.7-.7 1.3-.9 1-1.4-.1-.1-.2-.3-.4-.5-1-.9-1-1.5-.8-2.1.2-.6.6-.9.6-1.2 0-.3 0-1.1.5-1.3.5-.2.5-.5.5-.8 0-.3.6-1.7.6-1.7s-.5-1.4-.6-1.9c-.1-.5-.2-1.8-.7-1.5l-1 .6s-1.2-.9-1.5-1.6c-.3-.7-1.4-2.5-.9-2.8.5-.4 1.1-1.4.8-1.7-.3-.3-.4.3-1.2 0-.8-.3-2.6.7-2.9.7-.4 0-.2-.4-.5-.8s0-1.4 0-1.8c0-.4-.4-.9-.4-.9h-1.5l-.3-1-1.3-.6-.8-.7H621l-1 .7-2.9.6 3.8 1 1.8 1.9.8 2.6h1.1l-1.5 2.2-.4-.6-1.6 2.2h-.7l-1.6 1.1h-4.7l-1.3 1.1s-.9 1.4-1.2.8c-.3-.6-.3-1.7-.3-1.7v-1.8l-11.7-.4-.8.8-.6.1-.7.8 1.8 3.7-11.4 3.7v2.4l1.9 3.4-1.9.8v-.7l-.6 1.6h-.9l-1 1.7s0 .8-.5.5c-.2-.1-.4-.3-.5-.6v2.8l.6 1.9-1.1 1.1-.7 1.6-1.4-1.3-1.1 2.9h-.9l-1-1.2-.6 1.6v3l2.1 1.7-1 7.7h.1l-.8 2.6 1.4.1h.3l.4-.2s.6.7 1.3.2l.7-.5 2.6.4v-2l2.4-1.3v1.2l3.6-1.9-.5 4.1-2.5.1-.2.8s2 0 2.4.2c.4.2 1.1 1.4 1.7 1.6.6.2 1.4-1 2-.5.6.5 1 1.1 1.8 1.1s4.1-.4 4.1-.4l.7 1.6 1.8.6-.5 1.1-.4 1.3 3.6 1.2.5 6.8 1.5-.6v1.4l12.2 2.9s.1.1.1.7c0 0 .6-.3.8-1.4.2-1.1-.1-2.7.8-2.7s1.1.8 1.6 1c.5.2.7-1 1.6-1 .9 0 1.3.7 1.6 0 .3-.7-.2-1.1-.5-1.2-.3-.1-2-2.3-2-2.3s-.3-.5.3-.9 2.3-1 2.3-1l1.4 1.9 1.2-.8s1.4.6 1.4-.2-.4-3.4.6-2.4c1 1.1 1.3 3.2 2 2.7s2-1.4 2-1.9.1-1.5.4-2c.3-.5-.6-.7.9-2.3 1.5-1.6 1.4-2 .7-2s-2.5-.8-1.3-1.1c1.3-.3 2.3 0 1.7-.8-.6-.8-1.7-2.4-1.7-2.6 0-.3-.1-1.1.5-1.7.6-.6.4-1.5.8-2.1.4-.6 1.2-.8 1.2-.8s-.2-.1-.5-.1z"/>
</g>
<g id="N26" class="small-box pas">
<path class="st1" d="M584.8 349v1.5l-1.1.3s.3.7.7 1.2l1.2-3h-.8z"/>
<path class="st1" d="M584.4 351.9c-.4-.5-.7-1.2-.7-1.2l1.1-.3V349l.9-.1-1.2-3.4-1.3.3-1.6-1.9v1.6l-1-1.4-.6.4-.3.5-1.8.2-.1.5-.9.5-3.3 2.8-.8-2.1s-.9 1-1.2 1.2c-.3.2-1.1-.3-1.1-.3l-1.8 1.1-2 .1v-1.3h-.7l-1.6 1 .2-2.6s1.2-.8 1.5-1.1c.3-.3.6-3.2.6-3.2l.2-1.6-.4-3.5s.8-.5-.1-1.3-1.7-1.1-1.7-1.1L563 331l-2.6-1-.4-.2-3.9 2s-.7.3-.8 1c-.1.7-1 1.7-1.3 2.5-.3.9-1.6 2.1-1.9 2.2-.3.1-2.1.4-2.1.4l-1.3 2.1s.2.2 0 2-1 3.1-1 3.1.2.7 0 1.3c-.2.6-1.3 1.9-1.6 2.5-.3.7 0 1.3 0 1.3s-.6-.4-.1.8c.4 1.2-.2 1.6-.2 1.6s-2.6.5-4.7.7c-1.6.1-6.1-.7-9-1.6v1.5l-.9 1.9 1.8 4.8 3.4 3.2 2.5.3 3.2 1.3 1.1 1.2.2 2.5 1.8.5 2.1.9.2.1-.2 1.1.1.1-1 .6c-.6 0-1.9-.5-3-.9.3.5.7 1 1.3 1.2 1.7.7 4.6.5 4.8 3 .2 2.6-.8 6.5 1.6 5.8 2.4-.7 2.6-3.6 4.3-3.2 1.5.4 2.1 2.4 3.9 2.5h.5c2.3-.3 4.2-4 4.2-4s3.5 2.2 4.4 1.1c.9-1.1 1.3.3 1.3.3l.7-2 3.6-.2s.7-2.1 0-1.8c-.7.3-1.5-.1-1.5-.1s.1-.9.7-.9h1.9v.7c0 .5.7 1.2.7 1.2v1.5l2.3.7v-2.9h1.1l1-7.7-2.1-1.7v-3l.6-1.6 1 1.2h.9l1.1-2.9 1.4 1.3.7-1.6 1.1-1.1-.6-1.9v-2.8z"/>
</g>
<g id="N27" class="small-box pas">
<path class="st1" d="M579.7 393.6l.2-2.5-1 .8H577l-.6-1.4H575l-.8-1.9-1.6-1v1h-2.1v-.6l-1.8-.3v-1l-.9-.2-1.1-1.8-2.2.2-1.4.4-1.8.2v-1l-1.3-.5v-1.4l1.2-1.5H560l-.7-.1.1-1c-1.8-.1-2.4-2.1-3.9-2.5-1.7-.4-2 2.6-4.3 3.2-2.4.7-1.4-3.2-1.6-5.8-.2-2.5-3.1-2.4-4.8-3-.6-.2-1-.7-1.3-1.2-1-.4-1.8-.8-1.8-.8l-1.9-2.5V366l-1.2.4-2.3 1.4-2.3.5-1.6-.7-1.2-1.1-1.9-.9-.9 3-1.8.4.5 2.3.7 1.1.9 7.4.5 4.1-1.1 6-.4 7.2 1.8.5 1.8.7h2.1l2.7.2 1.8-1.6.4-2.3 2.1 1.6 2.7-1.4 1.1 2.5 2.7-.2 2.5 1.6 2.5 2.6 6 .9 1.4-.5.7 2.3 1.2-2.1 2.3-.7.4 1.1 1.4.4.5-1.9 1.9.9 1.1.4 2.5-.9 1.6 1.8 2.3-1.1 1.6 1.1.5-3.2 1.9 1.4 3.7-.2-2.1-3.3-1.1-4.1z"/>
</g>
<g id="N29" class="small-box pkr">
<path class="st1" d="M619.3 400.8l-.2.1.2-.1z"/>
<path class="st1" d="M593.6 404.3c.3-1.1 1.8-1 1.8-1s1.2 1.7 1 3.4c-.2 1.8 1.5 1.8 1.5 1.8l1.8-1.1.3 1.5 1.2.9s-.5 1.1-.6 2.3c-.1 1.2 1.8.7 1.8.7s1.6-.2 1.6.6.7 1.4.7 1.4h2.1c.5 0-.7-2.3-1-2.6-.3-.4 1.7 0 1.7 0s1.5-1.6 1.7-1.2c.2.4 1.9.3 3-1 1.2-1.3 1 0 1 0s.9-2.1 1.1-3c.2-1 1.6.3 1.6.3l.5 1.1s0-.2.1-.5c-.4-1.2-.4-3.2-.4-3.2s0 2 .4 3.2c.2-.8.6-2.2.9-2.9.4-1 .2-1.2 0-1.8-.2-.6.2.6 1.4 1.2s.1-1.1.5-1.4c.4-.3 1.2-.3 1.3-1.2.1-.9-.2-.8-1.5-1.5s-.7-1-.4-1.2c.3-.2.8-.7 1-2 .1-.3.1-.6.1-.8l-2.3 1.3 2.3-1.3c0-.6-.1-.7-.1-.7l-12.2-2.9v-1.4l-1.5.6-.5-6.8-3.6-1.2.4-1.3.5-1.1-1.8-.6-.7-1.6s-3.3.4-4.1.4c-.8 0-1.2-.6-1.8-1.1-.6-.5-1.4.7-2 .5-.6-.2-1.3-1.4-1.7-1.6-.4-.2-2.4-.2-2.4-.2l.2-.8 2.5-.1.5-4.1-3.6 1.9V373l-2.4 1.3v2l-2.6-.4-.7.5c-.7.5-1.3-.2-1.3-.2l-.4.2h-.3l-.5 1.6 1.6 2.1-2.9-1 1.4 3.6h1.4v.8l2.7 1.8h1.8s-.4-1.5 0-1.5 1.3.1 1.3.1v-.6l1.4.2 1.6-.3v.5l2.2 1.1-1.9 6-6.5-1.2-1.7 1.6h-2l-.2 2.5 1 3.9 2.1 3.3.1.1 1.2 2.3 1.8-.2 3.2.7.5.7.2 2.3.9-.9.2-.2.3 1.4c.8-.6 1.6-1.2 1.7-1.3 0 0 .2-.4.5-1.5zm25.7-3.5l-.1.1.1-.1z"/>
</g>
<g id="N28" class="small-box pkr">
<path class="st1" d="M589.9 383.7v-.5l-1.6.3-1.4-.2v.6s-.9-.1-1.3-.1 0 1.5 0 1.5h-1.8l-2.7-1.8v-.8h-1.4l-1.4-3.6 2.9 1-1.6-2.1.5-1.6-1.4-.1.8-2.6H578.3v2.9l-2.3-.7v-1.5s-.7-.7-.7-1.2v-.7h-1.9c-.6 0-.7.9-.7.9s.8.4 1.5.1c.7-.3 0 1.8 0 1.8l-3.6.2-.7 2s-.4-1.4-1.3-.3c-.9 1.1-4.4-1.1-4.4-1.1s-2 3.7-4.2 4h-.5l-.1 1 .7.1h1.2l-1.2 1.5v1.4l1.5.6v1l1.8-.2 1.4-.4 2.2-.2 1.1 1.8.9.2v1l1.8.3v.7h2.1v-1l1.6 1 .8 1.9h1.4l.6 1.4h1.9l1-.8h2l1.7-1.6 6.5 1.2 1.9-6-2.4-1.3z"/>
</g>
<g id="N30" class="small-box pas">
<path class="st1" d="M704.9 360.8c-.3-.2-.5-.4-.5-.4.1.4.3.5.5.4zM704.4 360.4z"/>
<path class="st1" d="M746.6 244.4c-.3-.6-1.1 0-1.1 0s-1.7.5-2.5.7c-.8.2 0 1.4 0 1.4s-.2 1.3-.5 1.5c-.3.2-1.3 0-2.1-.2s-.8-.6-1.4-.9c-.6-.3 0 0-.9 0s-.8-.6-.8-.6l-.9-.5c-.9-.5 0 0-1.7 0s-1.6 1.7-1.6 1.7c-5.6 2.9-21.3 10.4-21.3 10.4s-2.3.7-2.6.8c-.3.1-1.4.3-1.7 1.1-.3.8-1.4.4-1.9.6-.5.2.4 1.4-.7 2.3-1.1.9-.6.6-1.4 1.9-.8 1.3.9 2.2.9 2.2l.8.5h1s0 1.7.1 2.2c.1.5.7 0 .7 0l1.5 3.4s1 1.8 1.2 2.6c.1.6.4.7.6.6h0c-.2.1-.5.3-.5 1.1 0 1.1.8 1.5 1.1 1.5.3 0 1 .1 1.8 0s.6.7.9 1.2c.3.5-.1 1.1-1.4 1.6-1.3.5-1.6 0-1.6 0s-.3.6-.3 1.1c0 .5 1.2 0 1.9 0s.2.6.2 1.1c0 .5.4 1.4.4 1.4s1.4.7 1.6 1.3c.2.6.6 1.4 0 2.5s-1.1 2.7-1.1 3.6c0 .9-.3 1-1 .9-.7-.1-.8-.1-1.6 1.1-.8 1.2 0 2 0 2s-1.1.4-1.1 1.1c0 .7 1.4.9 1.4.9l-1.1 2 1.7 2.7s-.5.7-.7 1.7c-.2 1-.4 1-.6 1.8-.2.8-.5.9-.8 3.2-.3 2.4-2.7 4-3.1 4.7-.4.7-.2 1.8 1 2.3 1.2.5 1.4.7 1.4.7l-.6 2.1h-1.1s-.4 1.3-.6 1.8c-.2.5.3 1.5 1.1 1.9.8.4 1.4 0 1.4 0s-.8 4.3-.8 4.6c0 .3-1.8 3.4-1.8 3.4l-4 3.1-.1 1.6s-1.1.4-1.4.5c-.3.1-.1 1.1-.1 1.1h1.1l-.5.9 2.5 2.2 2 1.5.2 2.3.3.5s.3 1.3.3 1.8-.6.3-1 .3 1.9.5 2.1.2c.2-.3.3-1.3.6-1.3s1.9 1.5 1.9 1.5h.7s.2 1 0 1.9c-.2.9 0 .9-.8 2.2-.8 1.3 0 2.5 0 2.5h-1.8c-.9 0-.4-.1-1-.4-.6-.3-.2-.6-1.8-.6s-.8.1-.8.1l.2.9s.5 2.6.6 3.2c.1.6 0 1.7-.6 3.7-.1.3-.2.5-.3.5.4.3 1 .7 1.2.8.3.1 3.1 0 3.1 0v2.7l.9 1.7-.9 2.4.9 1.8H706l-1.7-.6 1.7 3.9h4.1v2.5l-2.8 2.9-2.8 4.5v1.6l2.8 5.1-2.8 1.8c-1 .8-2.5 2.9-2.5 2.9l1.2 10-6.1 15.3 11.2 5.1 1.7 2.5V427l.5-1 .5-.9 2.1-.5 1.1 2.1 3.4-.5 2.4-.5 3.2-3.2 1.9-1.1.5-2.9.8-.8-.3-1.6 1.3-5 1.9-3.2-1.9-4.2-.5-3.4 2.4-2.1s3.2 2.1 1.3-1.1l-1.9-3.2-1.6-.3-1.6-1.1-.8-2.1-2.1-1.3 1.3-4.2 4.8-1.9 1.9-2.1-1.3-5-.8-.8 1.9-.3 1.6.8 1.1 1.1 1.9-.8 1.1-1.3 1.1.3.5-4 1.3-5.8 1.9-2.1-.5-4.5 1.6-2.9.3-3.4v-1.9l-5.6-2.9-1.6-2.6-2.9-2.1.5-2.9-2.1-2.9 5.6-4.2 6.1.5 3.7-3.2-.5-5.3-1.1-2.9 2.9-1.6 2.4-3.4 1.3-2.1 1.9-4.2-.3-7.1.8-4.2 4.4-7.8h3.5l-2.8-4.2s2.8-1.4 5-1.4c2.1 0 8.5.7 8.5.7l5 2.1h3.5l-1.4-3.5 2.1-4.2 1.4-3.5-1.4-2.8 5-1.4 3.5-5.6.7-2.8-3.5-1.4-1.4-2.1.7-5.6v-7.1l.7-4.2-4.2-2.1-34.8 2.4c-.5-.6-1 .3-1.3-.3z"/>
</g>
<g id="N31" class="small-box pas">
<path class="st1" d="M704.9 360.8c-.3-.2-.5-.4-.5-.4.1.4.3.5.5.4zM704.4 360.4z"/>
<path class="st1" d="M696.9 420.2l6.1-15.3-1.2-10s1.6-2.2 2.5-2.9l2.8-1.8-2.8-5.1v-1.6l2.8-4.5 2.8-2.9v-2.5H706l-1.7-3.9 1.7.6h4.1l-.9-1.8.9-2.4-.9-1.7v-2.7s-2.8.1-3.1 0c-.2-.1-.7-.5-1.2-.8-.2.1-.3-.1-.5-.4-.4-.8-.7-2.3-1-2.6-.4-.6-1-1.6-.9-1.9.1-.3-.2-1.4.2-2.6.4-1.3.5-.4.7-1.7.2-1.3-1.3-.9-3.9-.5-2.6.4 0 1.7 0 1.7l-1.2.5c-1.2.5-1.2 1.3-1.2 1.3l-.8.6s-1.4-.8-1.5-1.1c-.1-.3-2.2-2.5-2.6-2.5-.4 0-1.3 1.1-1.6 1.7-.3.6-.4.2-.7 0-.3-.2-1.8.4-2.4 0-.6-.4-1.6 0-3.1-1-1.6-1-1.6-.9-1.9-.9-.3 0-.8 1.1-.8 1.1s-1 0-1.6.9c-.6.9 0 0-1.5-.1s-.4 1.1-1.5 1.4c-.2 0-.3.1-.4.1l.2 1-.2-1c-.5.1-.3-.1-1.2-.7-1-.7-2.2-.8-5-1.2-2.8-.4-3.2 0-4.1 0-.2 0-.4 0-.7-.1-.3 3.5 1.9 4.8 1.9 4.8l-.5 2.1h-1s-.6-.2-1 0-.9.1-1.4.4c-.5.4.4.5-.1 1.4-.5.9-.3 1.2-.3 1.2l1 1.2s-.2.4-.3.9c-.1.5.6 1.2 1.1 1.3.5.1-.3 1.4-.5 1.7-.2.3 1.2.9 1.2.9s1.8 4.8 1.8 5.3 1.3 2.8 1.3 2.8l-1.4.6 1.5.7.7 3.4s1.6-.3 2.3 0c.7.3.1 1.5.1 1.5h.9l.6 2.8h1l.1.8h.8l.2 1.7 1.2-1.1 7.4 14.2-3-.1v-.9l-2 .7v.7l-1.3.1-1.6.9-1.3-1.3h-2.4l-1.7-.3V400h-2.6v.8h-3.3v3.6H660l.4 8.8.5-.8h3.1v.4c0 .4-.7 2-.7 2h-2.2l1.3 1.8h.6l-.2 1.3 1.7.9v1.3s-1.4 1.6-2.4 1.8c-1 .2-4 1.5-4.4 1.6-.4.1-3 .9-3 .9s-1.7 1.7-2.1 1.9c-.2.1-1 .4-1.8.6 0 .2-.1.5-.2.9-.2 1.7-.9 1.1-.9 1.8s2.3 1.1 1.1 2.2c-1.2 1.1-1.2.4-1.8.7-.6.3-.1.1-.8 1-.7.9-.7 1.6-.7 1.6v.8c0 1.3-.2 1.1.5 2.4.7 1.3-.6 2.3.6 2.8 1.2.6 1.1-.3 1.7 0 .6.3.7.5.9 1.4.2.7.5 1.3.6 1.6 1.3-.4 2.9-.8 3.2-.7.6.3 1.6 1.6 1.6 2 0 .4-.4.4-.4 1.4 0 1 .9 2 .9 2.4 0 .4-.8 1.1 0 1.6s1 1 1 1.5-.5 1.4 0 1.4 2-1 2-1l2 1.7s.7.2.9.9c.2.7-1 1 0 1.1 1 .1 1.7 0 1.7 0h1.4l.7 1.4s.6-1.1 1.1-1.2c.5-.1 1.8.2 2.1-.1.3-.3 2.2-1.2 2.2-1.2s.5 2.1 1.1 1.2c.6-.9.8-2.1.8-2.1s1.6.8 2.6.8c1.1 0 2.1-1.5 2.5-1.3.4.2 2.2.2 2.5.7.3.5.3 2.5.6 3.1.3.7 1.4.9 1.4.9s.9.1 1 .6c.1.5.8 2.6 1.7 2.1.9-.5 7.7-6 7.7-6l4.3-2.9 6-6.8.1-3.6v-8.2l2.9-2.9 2.7-.8v-1.8l-1.7-2.5-11.5-5.6z"/>
</g>
<g id="N32" class="small-box pas">
<path class="st1" d="M619.3 400.8l-.2.1.2-.1zM704.9 360.8c-.3-.2-.5-.4-.5-.4.1.4.3.5.5.4zM704.4 360.4z"/>
<path class="st1" d="M662.8 352.4c-.7.2-1.3 1.7-1.3 1.7l-2.6.7s-.6 1.7-1.2 2.5-.5-.6-.5-.6-.5-.9-1.4 0c-.9.9-.1 1.3-1 1.4-.9.1-.3-.4-1-.5-.7-.1-.4.1-.1.9.3.8 1.1 1 1.1 1.9 0 .9-1.7.8-2 .3-.3-.5-1.3-.8-1.7-.8h-1s-.9.4-1.1 1.1c-.2.7.1 2.4-1.3 3.2-1.4.9-1.3-.9-2.1-1.4-.8-.5-1.8-.9-2.7-1.4-1-.5-2.4-2-2.6-2.7-.2-.8-.7-1.7-1.8-2.4s.7-1.7 0-2.3c-.7-.6-1.3-.1-1.3-.7-.1-.6 0-1.3 0-1.7 0-.4-1-.6-.8-1.4.2-.8.4-.2.8-.9s.6.2 1 0c.5-.2.2-1.6 0-2.3-.2-.7-1.8 0-1.8 0l-.7-3.2-1.9 1.6c.2.4-.3.6-1 1.4-1 1-.5.4-.9.6-.4.2-.3 1.1-.3 1.1s-.1 1.5 1 2.2c1.1.7.1 1.8.1 2.7s.5 1.9.5 1.9l-.7 1v2s-.6.3-1.7.5 0 1.2 0 1.2h1.7c.5 0 1.6 1.7 1.6 1.7s1.1-.3 1.6 0-.9.8-.9 1.2c0 .4.8 2.1.8 2.1s.2 1.6 0 2c-.2.4-.1 1.1.9 1.6s.8-.9.8-.9 1.2 1.2 1.9 1.7-.4.7-2.7.6c-2.3-.1.5.4.8.4.3 0 0 1 0 1s-.8.2-1.2.8c-.4.6-.2 1.5-.8 2.1-.6.6-.5 1.4-.5 1.7 0 .3 1.1 1.9 1.7 2.6.6.8-.4.5-1.7.8-1.3.3.6 1.1 1.3 1.1.7 0 .8.4-.7 2s-.6 1.8-.9 2.3c-.3.5-.4 1.5-.4 2s-1.3 1.4-2 1.9-1-1.7-2-2.7c-1-1.1-.6 1.6-.6 2.4 0 .8-1.4.2-1.4.2l-1.2.8-1.4-1.9s-1.7.6-2.3 1c-.6.4-.3.9-.3.9s1.7 2.2 2 2.3c.3.1.8.5.5 1.2-.3.7-.7 0-1.6 0-.9 0-1.1 1.2-1.6 1-.5-.2-.7-1-1.6-1-.9 0-.6 1.7-.8 2.7-.2 1.1-.8 1.4-.8 1.4 0 .2 0 .5-.1.8-.2 1.3-.7 1.8-1 2-.3.2-.9.5.4 1.2s1.6.6 1.5 1.5c-.1.9-.9.9-1.3 1.2-.4.3.7 2-.5 1.4-1.2-.6-1.5-1.8-1.4-1.2.2.6.4.8 0 1.8-.3.7-.7 2.2-.9 2.9.2.5.5.9.9.9 1.4 0 1.8.5 1.8.5s0-2.4.7-3c.7-.7 1.5-1.1 1.9-1.1.4 0 1.7.3 1.7.3s.8-.5 1.4-.8c.6-.3 2-1 2.6-1.2.7-.2.3-.1 1.2 0 .9.1 2 .6 1.9.9-.1.3-1.4.7-1.4.7s.8.3 1.4 1.3c.6 1 .1 2.4.8 2.2.7-.2 1.8-1 2.5-.6s1.4.8 2.1.8c.7 0 .2-.3 1.1 0 1 .3 1.5-.3 2.3.6.8.9 1.5 1.1 2.1 1.2.6.1 1-.1 1 .6s1.5 2.9 1.5 2.9.2 3.9.5 4.2c.3.3 1.2 1.7 1.9 2.2.7.5 1.1.2 1.4 1.2.3 1-.6 1.4.8 2.5 1.4 1.2.4.9 2 1.8 1.1.6 1.2.5 1.1.9.8-.3 1.6-.5 1.8-.6.4-.2 2.1-1.9 2.1-1.9s2.6-.8 3-.9c.4-.1 3.4-1.4 4.4-1.6 1-.2 2.4-1.8 2.4-1.8v-1.3l-1.7-.9.2-1.3h-.6l-1.3-1.8h2.2s.7-1.6.7-2v-.4H661l-.5.8-.4-8.8h5.1v-3.6h3.3v-.8h2.6v1.3l1.7.3h2.4l1.3 1.3 1.6-.9 1.3-.1v-.7l2-.7v.9l3 .1L677 388l-1.2 1.1-.2-1.7h-.8l-.1-.8h-1l-.6-2.8h-.9s.6-1.2-.1-1.5c-.7-.3-2.3 0-2.3 0l-.7-3.4-1.5-.7 1.4-.6s-1.3-2.4-1.3-2.8c0-.5-1.8-5.3-1.8-5.3s-1.4-.6-1.2-.9c.2-.3 1-1.6.5-1.7-.5-.1-1.2-.8-1.1-1.3.1-.5.3-.9.3-.9l-1-1.2s-.2-.3.3-1.2c.5-.9-.4-1 .1-1.4.5-.4 1-.2 1.4-.4.4-.2 1 0 1 0h1l.5-2.1s-2.1-1.3-1.9-4.8c-.9-.9-2.5-1.3-3-1.2z"/>
</g>
<g id="N33" class="small-box pas">
<path class="st1" d="M594.7 412.2v2.3h-.8l1.2 5.7h2.4v-2.6l1.8-.2.8.3.6 1.8 2.6-.1-1.2 3.8h5.6l2.3.7h1.9l2.6 1 .9 2.5h-1.3l.2 1.2s-1.7.7-1.4 2.1c.3 1.4-.5 1.8-.5 1.8l-1.9 2.6s-1.4 0-1.5.9c-.1.9-3.4 5.4-3.4 5.4s1.7 1.7.8 1.9c-.9.2-1.9 0-1.9 0l-3.2 1.8s-.3.8.6.7l.9-.1s-.9 1.6 0 1.7l.8.1s-.2 1.4-.8 1.4h-.1c.2 0 .7.2.7.9 0 1.1-.6 1.6-.6 1.6s.3 1 0 .9c-.3-.1-.8 0-.8 0s0 1.1.8 1.2c.8.1 1.6 2.1 1.6 2.1l-1.6 2.2v1.3s-.5.2-.5.6c0 .4 1 1.6 1 1.6s-.9.9-1 1.2c-.1.3.5 1.9.5 1.9s1-.9 1 0v1.8c.3-.1.4-.2.4-.2s2.5 1.7 2.8 1.7c.4 0 2-.6 2-.6l.4 2.8.5-.9 1.4-.7 1.5 1.6 2.4-.9 2.2.5 3.6-3.7v2.6h3.9v-9.2h3.2v-1.5s2.2-3.9 2.4-4.1c.2-.2 1.3 0 1.3 0s.3-.7-.7-1.4-.3-.8-.3-1.1c0-.3.8-2 1.1-2.5.3-.5 1.3.6 1.6.6h1.1s1.5 3.1 1.9 3.9c.4.8.9.3 1.2 0 .3-.3-.2-1.8 0-2.3.2-.5 0-.9 0-.9s1.5 1.8 2.2 1.9 2 .6 2.6 1c.7.4 1.6.4 1.8 0 .2-.4 1.6-.5 2-.7.4-.2 3.1 0 4.5 0s1.9-.1 2.2-.4c.3-.3-.1-1.9-1.1-2.5-1-.6-.7-1.7-.6-2.6.1-1 1.1-2 1.1-2.3 0-.1 0-.2-.1-.3-.2-.4-.5-1-.6-1.6-.2-.9-.3-1.1-.9-1.4-.6-.3-.5.6-1.7 0s.1-1.6-.6-2.8c-.7-1.3-.5-1.1-.5-2.4v-.8s0-.7.7-1.6c.7-.9.2-.7.8-1 .6-.3.6.4 1.8-.7 1.2-1.1-1.1-1.5-1.1-2.2 0-.7.7-.1.9-1.8.1-.5.1-.8.2-.9-.8.3-1.7.5-1.7.5s.8-.3 1.7-.5c.1-.5.1-.3-1.1-.9-1.6-.9-.6-.6-2-1.8-1.4-1.2-.5-1.6-.8-2.5-.3-1-.7-.7-1.4-1.2s-1.6-1.9-1.9-2.2c-.3-.3-.5-4.2-.5-4.2s-1.5-2.3-1.5-2.9c0-.7-.4-.5-1-.6-.6-.1-1.3-.3-2.1-1.2-.8-.9-1.4-.3-2.3-.6-1-.3-.4 0-1.1 0-.7 0-1.4-.4-2.1-.8-.7-.4-1.8.4-2.5.6-.7.2-.2-1.2-.8-2.2-.6-1-1.4-1.3-1.4-1.3s1.3-.4 1.4-.7c.1-.3-1-.8-1.9-.9-.9-.1-.5-.2-1.2 0s-2.1.9-2.6 1.2c-.6.3-1.4.8-1.4.8s-1.3-.3-1.7-.3c-.4 0-1.2.4-1.9 1.1-.7.7-.7 3-.7 3s-.5-.5-1.8-.5c-.4 0-.7-.4-.9-.9-.1.3-.1.5-.1.5l-.5-1.1s-1.4-1.3-1.6-.3c-.2 1-1.1 3-1.1 3s.2-1.3-1 0-2.8 1.4-3 1c-.2-.4-1.7 1.2-1.7 1.2s-2-.4-1.7 0c.3.4 1.5 2.6 1 2.6h-2.1s-.7-.6-.7-1.4c0-.8-1.6-.6-1.6-.6s-1.9.5-1.8-.7c.1-1.2.6-2.3.6-2.3l-1.2-.9-.3-1.5-1.8 1.1s-1.7 0-1.5-1.8c.2-1.8-1-3.4-1-3.4s-1.5-.1-1.8 1c-.3 1.1-.5 1.5-.8 1.6-.2.1-1 .7-1.7 1.3l.2.7-.1 3.8 2.4-.9 1.5 1.5z"/>
<path class="st1" d="M602.5 448.6c-.1-.1-.1 0 0 0z"/>
</g>
<g id="N34" class="small-box pkr">
<path class="st1" d="M602.5 448.6c-.1-.1-.1 0 0 0z"/>
<path class="st1" d="M593.7 469.1c.5-.3.8-.1.8-.1s1.9.4 2.2.1c.3-.3.9-.3 1.7-.7.8-.4.6-2.2.6-2.2l1.6.4s1.5-.3 2.4-.6c.3-.1.6-.2.8-.3v-1.8c0-.9-1 0-1 0s-.6-1.6-.5-1.9c.1-.3 1-1.2 1-1.2s-1-1.3-1-1.6c0-.4.5-.6.5-.6v-1.3l1.6-2.2s-.8-2-1.6-2.1c-.8-.1-.8-1.2-.8-1.2s.5-.1.8 0c.3.1 0-.9 0-.9s.6-.5.6-1.6c0-.7-.5-.8-.7-.9-.1 0-.1 0 0 0h.1c.6 0 .8-1.4.8-1.4l-.8-.1c-.8-.1 0-1.7 0-1.7l-.9.1c-.9.1-.6-.7-.6-.7l3.2-1.8s1 .2 1.9 0c.9-.2-.8-1.9-.8-1.9s3.3-4.5 3.4-5.4c.1-.9 1.5-.9 1.5-.9l1.9-2.6s.8-.4.5-1.8c-.3-1.4 1.4-2.1 1.4-2.1l-.2-1.2h1.3l-.9-2.5-2.6-1H610l-2.3-.7H602l1.2-3.8-2.6.1-.6-1.8-.8-.3-1.8.2v2.6H595l-1.2-5.7h.8v-2.3l-1.2-1.4-2.4.9-.3 9.2v.2l-.9 30.1-.4 11.1V469.6c1.1-.2 2.3-.4 2.4-.6.3.1 1.4.4 1.9.1z"/>
</g>
<g id="N35" class="small-box pkr">
<path class="st1" d="M693.8 454.8s-6.8 5.5-7.7 6c-.9.5-1.6-1.6-1.7-2.1-.1-.5-1-.6-1-.6s-1.1-.2-1.4-.9c-.3-.7-.3-2.6-.6-3.1s-2.1-.5-2.5-.7c-.4-.2-1.4 1.3-2.5 1.3s-2.6-.8-2.6-.8-.2 1.2-.8 2.1c-.6.9-1.1-1.2-1.1-1.2s-1.9.9-2.2 1.2c-.3.3-1.6 0-2.1.1s-1.1 1.2-1.1 1.2l-.7-1.4h-1.4s-.7.1-1.7 0 .2-.4 0-1.1c-.2-.7-.9-.9-.9-.9l-2-1.7s-1.5 1-2 1 0-.9 0-1.4c0-.5-.2-1-1-1.5s0-1.2 0-1.6c0-.4-.9-1.4-.9-2.4s.4-1 .4-1.4c0-.4-1-1.7-1.6-2-.3-.2-1.9.3-3.2.7.1.1.1.2.1.3 0 .3-1 1.3-1.1 2.3-.1 1-.4 2.1.6 2.6 1 .6 1.4 2.2 1.1 2.5-.3.3-.8.4-2.2.4-1.4 0-4.1-.2-4.5 0-.4.2-1.8.3-2 .7-.2.4-1.1.4-1.8 0s-2-.9-2.6-1-2.2-1.9-2.2-1.9.2.4 0 .9.3 2 0 2.3c-.3.3-.8.8-1.2 0-.4-.8-1.9-3.9-1.9-3.9h-1.1c-.3 0-1.3-1.1-1.6-.6-.3.5-1.1 2.2-1.1 2.5 0 .3-.7.4.3 1.1 1 .7.7 1.4.7 1.4s-1.1-.2-1.3 0c-.2.2-2.4 4.1-2.4 4.1v1.5h-3.2v9.2h-3.9v-2.6l-3.6 3.7-2.2-.5-2.4.9-1.5-1.6-1.4.7-.5.9-.4-2.8s-1.6.6-2 .6c-.4 0-2.8-1.7-2.8-1.7s-.1.1-.4.2c0 1.1-.1 2.3-.1 2.3s0-1.2.1-2.3c-.2.1-.4.2-.8.3-.9.3-2.4.6-2.4.6l-1.6-.4s.2 1.8-.6 2.2c-.8.4-1.4.4-1.7.7-.3.3-2.2-.1-2.2-.1s-.3-.2-.8.1c-.5.3-1.6 0-1.9.4-.1.2-1.3.4-2.4.6v1.1l4.3 35.6.1.7 3.5-1.9v1.4l1.6-4.1 3.8-.2 1.9.4 2.4.2v1.2l3.1-.6v1.2l15.9 5.3v-5.9h1v-2.7l1.8-.8v-2.2l.8-1.4 2.4 1.4 1 .9s-.4 1.3-.8 1.5c-.4.2 0 1.6 0 1.6l5.4-4.5.7-1s-1.4.2-1.4 0c-.1-.2 0-2 0-2l.8.4 3.4 1v-4.3l2.5 2.2 3-5.1s-2.5-1.4-2.9-1.6c-.4-.2 1.2-5.3 1.2-5.3V481l4.8-.2 3.4-2.2v1.8h3.1v6.3l2 1h2.6v-2.2l4.2-1.9 3.2.8 2.7-.3 2.7-.3 1.9.8 1.9-1.6 1.1-1.1 1.3 1.3 2.7-.8 2.4 1.3 1.9-1.6h1.6l3.2-5.3 5.6-3.2 1.6-2.9V468l.3-4.2 2.1-4.5 1.6-2.6-2.1-1.9-.5-1.9 2.1-1.6 2.4-3.2.1-3-6 6.8-4.2 2.9z"/>
<path class="st1" d="M602.5 448.6c-.1-.1-.1 0 0 0z"/>
</g>
<g id="N36" class="small-box bn">
<path class="st1" d="M655.9 486.7v-6.3h-3.1v-1.8l-3.4 2.2-4.8.2v1.4s-1.6 5.1-1.2 5.3c.4.2 2.9 1.6 2.9 1.6l-3 5.1-2.5-2.2v4.3l-3.4-1-.8-.4s-.1 1.8 0 2c.1.2 1.4 0 1.4 0l-.7 1-5.4 4.5s-.4-1.4 0-1.6c.4-.2.8-1.5.8-1.5l-1-.9-2.4-1.4-.8 1.4v2.2l-1.8.8v2.7h-1v5.9L610 505v-1.2l-3.1.6v-1.2l-2.4-.2-1.9-.4-3.8.2-1.6 4.1v-1.4l-3.5 1.9 1.2 10.1 2.7 22.8-.8 1.9-3.2 1.1-3.7-.8-4.8-1.6h-2.7l-1.3.5-.8.3-1.9 1.9-.8 1.3 1.6 1.6.8 1.3.3 2.1s1.3.3 1.6-.8l.3-1.1 1.9-.3 2.7 1.9.8 1.9h-2.1l-1.3.5.8 2.4-.3 3.2 4-.5 1.3 2.4h2.7l.3-2.1 1.9.3.5 2.1-.3.8.5.8 1.3 1.3 2.7.5 2.1-1.6 1.6-2.1 2.7-2.1 2.7-1.3-.3-1.6 2.9-2.9-.5-2.6 3.4-1.9 1.3.5 1.1-2.1 3.7-1.6 2.9-6.4 1.9-4 5.3-2.6 2.1-2.1 1.6.3 2.4-4.8 2.4-1.6 2.7-6.4 2.1-1.3.8-3.7s-3.4-1.3.5-3.2l4-1.9 2.1-2.4h2.4l4-3.4.5-1.3V497l.5-5 2.1-3.7v-.4H658l-2.1-1.2z"/>
</g>
<g id="text">
<path class="st1" d="M472.4 478.4h-44.5M579.6 475.7h-44.5"/>
<text transform="translate(493.404 458.298)" class="st3 st4">
        N1
      </text>
<text transform="translate(493.404 492.715)" class="st3 st4">
        N2
      </text>
<text transform="translate(505.265 148.22)" class="st3 st4">
        N3
      </text>
<text transform="translate(508.772 173.822)" class="st3 st4">
        N4
      </text>
<text transform="translate(560.986 169.212)" class="st3 st4">
        N6
      </text>
<text transform="translate(624.088 141.13)" class="st3 st4">
        N7
      </text>
<text transform="translate(652.272 204.312)" class="st3 st4">
        N8
      </text>
<text transform="translate(596.434 207.401)" class="st3 st4">
        N9
      </text>
<text transform="translate(546.187 208.224)" class="st3 st4">
        N10
      </text>
<text transform="translate(548.868 240.645)" class="st3 st4">
        N14
      </text>
<text transform="translate(516.354 194.553)" class="st3 st4">
        N15
      </text>
<text transform="translate(502.212 213.644)" class="st3 st4">
        N16
      </text>
<text transform="translate(526.36 211.246)" class="st3 st4">
        N12
      </text>
<text transform="translate(562.075 255.012)" class="st3 st4">
        N18
      </text>
<text transform="translate(526.753 256.169)" class="st3 st4">
        N17
      </text>
<text transform="translate(472.404 221.835)" class="st3 st4">
        N13
      </text>
<text transform="translate(485.276 241.729)" class="st3 st4">
        N11
      </text>
<text transform="translate(601.171 273.715)" class="st3 st4">
        N19
      </text>
<text transform="translate(538.936 280.868)" class="st3 st4">
        N20
      </text>
<text transform="translate(536.489 327.445)" class="st3 st4">
        N21
      </text>
<text transform="translate(577.734 322.633)" class="st3 st4">
        N22
      </text>
<text transform="translate(686.811 247.419)" class="st3 st4">
        N23
      </text>
<text transform="translate(630.512 317.29)" class="st3 st4">
        N24
      </text>
<text transform="translate(606.63 362.523)" class="st3 st4">
        N25
      </text>
<text transform="translate(547.127 360.846)" class="st3 st4">
        N26
      </text>
<text transform="translate(534.762 390.219)" class="st3 st4">
        N27
      </text>
<text transform="translate(563.102 110.026)" class="st3 st4">
        N5
      </text>
<text transform="translate(586.269 400.776)" class="st3 st4">
        N29
      </text>
<text transform="translate(562.075 384.863)" class="st3 st4">
        N28
      </text>
<text transform="translate(713.71 323.295)" class="st3 st4">
        N30
      </text>
<text transform="translate(673.493 414.715)" class="st3 st4">
        N31
      </text>
<text transform="translate(642.431 387.768)" class="st3 st4">
        N32
      </text>
<text transform="translate(621.036 422.632)" class="st3 st4">
        N33
      </text>
<text transform="translate(588.934 442.314)" class="st3 st4">
        N34
      </text>
<text transform="translate(634.439 470.08)" class="st3 st4">
        N35
      </text>
<text transform="translate(605.915 524.185)" class="st3 st4">
        N36
      </text>
</g>
</svg>