<svg xmlns="http://www.w3.org/2000/svg" version="1.1" viewbox="0 0 1240 640" preserveaspectratio="xMidYMid slice" id="svgN">
<g id="N1" class="small-box pas">
<path class="st1" d="M662.9 75l.6-1.8-1.7-.8-1.1.6-1.7-1.4-.4.9-2.1.1v-1l1.8-.5 1.9-.2-.6-.9 1.6-2-.8-.4-3.8-3.1-2.8-1.9-2.8-1.2-3.5 1.3-.6.6-.7 1-.4 1.3-.4 3.7-.4 4 .4 4-.3 1.4.1 1.1 1.6 1.7.3 1.8.1 1.2 1.6-.1s1.1 2 1 2.4v.1l1.9-.1 7.7-.3.5.5 1.8-2.7-.8-1.6h-.5l.2-1 .6-.5.7.9.7-.5 1.1-3.1v-2l.8-1-1.6-.5z"/>
</g>
<g id="N2" class="small-box pas">
<path class="st1" d="M694.1 80.2l-.7-2.6.5-.9c-.2-.1-.3-.1-.5-.2l-1-.9v-4.7l-2.1-2.5v-.6l-.4-1.7-1.5.2-3.9-.3-1.5.4-2.2-.3-1.9.7-1.3-.3-1.9-.4-1.9 1-1.7.3.6 2.7.9.9-2.3-.4-4-.5-3.7-.9-2.2-1.1-1.6 2 .6.9-1.9.2-1.8.5v1l2.1-.1.4-.9 1.7 1.4 1.1-.6 1.7.8-.6 1.8 1.5.7-.8 1v2l3.8 2.1-.5 1.6 1.7 1.1v.7s.6.7.6.6c.1-.1.7-1.3.7-1.3l1.1.3.8-.6 2.8.6 1.6 3.5 4.8.8v-1.6l1.2-1.1 1.7 1c.1-1.9-1.2-3.2-1.2-3.2-1.8-1-.9-1.7-.9-1.7l1.4-1 3.7-1L689 81l-.2 1.8 2-1.5.8.6.8-.3-.2-1.1.9-.4h1z"/>
</g>
<g id="N5" class="small-box pas">
<path class="st1" d="M692.7 65.9l4.8 2.9 10.4 5.3-.8 1.6-.8-.5s.5.7-.3 1.7c0 0-1.8-1.5-2.1.2l-1.3-1.1-.8 2.2-1 .4-1-1-1.9 1.9 3.6.4V81s1.9.3 1.6 1.2c0 0 .4.6-1.3 1.8v2.8l-.3 1.7-1.1-1.5-.9 1.9-1.9-.4-.1-1.9-1.1 1.6-2.2 1.1-1.2 2.9-1-.4-.3-1.9 1.4-5.2 3.7-2.5s1.3-3.6-3.8-5.6l-.9-.9.1-4.8-2.1-2.4-.2-.9-.7-1.7.5.1 3-.1z"/>
</g>
<g id="N4" class="small-box pas">
<path class="st1" d="M684.5 92.8l.1-1.7c-1.8-1.5-1.1-3.2-1.1-3.2.2-.5.4-1 .4-1.5l-1.7-1-1.2 1.1v1.6l-4.8-.8-1.6-3.5-2.8-.6-.8.6-1.1-.3s-.6 1.2-.7 1.3c-.1.1-.6-.6-.6-.6v-.7l-1.7-1.1.5-1.6-3.8-2.1-1.1 3.1-.7.5-.7-.9-.6.5-.2 1h.5l.8 1.6-1.8 2.7 2.1 2-.2 1.6-2.1-.1-.6-1.2-1.3 1.5 1.3 2.9 2 .6 2.1-.6 2.1 3.8 2.8.5 2.8-.9 6.7 1.3.3 1.5c1.3-.8 2.9-1.8 2.9-1.8l1.7.4c1.1-.6 1.6-3.4 1.6-3.4l.8-.7.1-2.1-.4.3z"/>
</g>
<g id="N14" class="small-box pas">
<path class="st1" d="M657.7 113.6l1 .8 2.6-.5 1-1-1.1-2.1-.3-2.5-1.4-1v-4.6l-.8-2.1-.9-.6-1.2.6-1.5-1.6v-.8l-1.8-1.2h-1l.8-2.1-1.6-4.1.6-1.8-.5-2-1.9.1c-.3.6-1.7 2.8-1.7 2.8l-1.1 1.1s-.8-.3-.7.3c0 .6-.5 2.2-.5 2.2l-1 .6v.8l-.8.6-.6 2s-.6 1.1-.7 1.4c-.1.2-1.8 1.3-1.8 1.3l-.8 1.3-.6 2.3.2 1.1-1 .3-1 2.6-1.5.9-4.5 2.3-1.4 1.3-1.6 1.4v3.3l1 1.3v1.7l1.7-1.2 1.4 5.4 2.9 1.2 1.2-.2 23.8-3.3h-2l-.5-.5-1.2-.3-.9-2.9h1.7l1-1.5-.6-1.1-1.5-.5 1.3-.8-.2-.7z"/>
</g>
<g id="N17" class="small-box pas">
<path class="st1" d="M695.7 120.4s.1-1 .3-1c.1 0-.9-.6-.9-.6l-1.1.9c-1.4 0-1.2-2.1-.5-2.4.6-.3.8-1.3.8-1.3 1.4-.4 0-1.8 0-1.8s.1-4.1.1-6.6l-5.5-.3s3 8.5-8.8 12.3c-.4.1-.9.3-1.4.4l-10.7-.7s-2.3.6-2.8 2.1c-.1.2-.1.4-.1.5 0 1.9 3.2 3.5 3.2 3.5s10.3 3 11.1 9.1c0 0 0 1.2 2 2.6 1.3.9 2.3 2.6 2.8 4.6l4.7-1.5-.4-1.9.6-1.6 1.1-.4.7-3.1-1.2-1.2 1-1.8.8 1.3 1.9-.4-.4-.9.7-1.9-1.1-2.9 2.1.7-1-3.4h.8l.7-1.4 1.7.5.4-.8-1.6-.6z"/>
</g>
<g id="N21" class="small-box pas">
<path class="st1" d="M765.6 158.4l-.7-1-2.7-5.4-3.9-8.7-6-10.7-2.6-6.9-4.2-10.3-2.5-3.1-.5-1.7-.8-2.4-3.4-8.9-2.4-4.4-.5-.8-.4-.8-1.2 1.2s-1.1.2-1.1.3c0 .1-1.4 1.2-1.4 1.2l.4 2.1.9.8.5 1 1.2.4.3 1.5.9.7c1.4.3 0 2 0 1.9 0-.1.4 2.8.4 2.8l1.3 1.4.2 1.4 1.1.1v-.1c0 .1 1.1 1.3 0 2s-.4 1.5-.4 1.5l1.7 1.2c.8.6-.2 1.9-.2 1.9s.9 1 .9 1.2c0 .2-.1 1.6-.1 1.6l.9.7c.9 2.2-3.8 2.4-3.8 2.4-2-.3-1.6.8-1.6.8 2 .9 1 1.3 1 1.3-2.3.4-.4 1.8-.4 1.8 1-.6 1.7 1.1 1.7 1.1-1.8 1.6 1.4 7.4 1.4 7.4v1.2l5.5 11.7 1.4 1.6 4-3 1.1 2.6 1.6.7.9 2.6-.9.8 5 9 7.4-3.7z"/>
</g>
<g id="N20" class="small-box pas">
<path class="st1" d="M741 119.9l-.9-.7s.2-1.5.1-1.6c0-.2-.9-1.2-.9-1.2s1-1.3.2-1.9l-1.7-1.2s-.7-.7.4-1.5c1.1-.7 0-1.9 0-2v.1l-1.1-.1-.2-1.4-1.3-1.4s-.4-2.9-.4-2.8c0 .1 1.4-1.6 0-1.9l-.9-.7-.3-1.5-1.2-.4-.5-1-.9-.8-.4-2.1s1.4-1 1.4-1.2c0-.1 1.1-.3 1.1-.3l1.2-1.2-1.9-3.3-3.8-4.9-2.5-2.6-3.2 3-.7 2.3.1.3.6 2.3.9.6-.6 2 .4 5.7-3-.8-1.7.8-.6-.4-2.9.1-1 3.7 1.4 1.3 3.3 1.2-.3 1.6 1.8 1.6 3.1.7v2.3l2.7.4v1.4l-1.2 1.4.3.7 2.4-1.3-.4 1.3-1.3 2.5h-3l-1.1 1.5-1.9-1.5-1.9.9-.3 1.7-.4 2.4.3 1.1 1.2.2.4 1.4h.9l.5.6 1.9-2.3s1.2-.4 1.9 0h2.6l2.5 3 2.1 2.5 1.6-1.7h1.1l1-.7s-1.9-1.4.4-1.8c0 0 1.1-.4-1-1.3 0 0-.4-1.1 1.6-.8.2.2 4.9-.1 4-2.3z"/>
</g>
<g id="N18" class="small-box pas">
<path class="st1" d="M718.4 123.1l-.3-1.1.4-2.4c-1.3-.8-2.3-2-2.3-2l.6-1-.2-1.4c3.2-1.5-.4-2.1-.4-2.1L715 112c-.8 1.5-2.3-.4-2.3-.4l-.2.9-.7-.1c-.5 3.4-3.8 2.8-3.8 2.8-3.3.4-3.2-3.1-3.2-3.1l.6-1.3s-.6-2.1-.6-2.2c0-.1-.6-1.5-.6-1.5.3-1.3-1.5-3.4-1.5-3.4l-.1.3h-2.7l-5.6 3.6c-.1 2.5-.1 6.6-.1 6.6s1.4 1.5 0 1.8c0 0-.1 1-.8 1.3-.6.3-.9 2.4.5 2.4l1.1-.9s1.1.6.9.6c-.1 0-.3 1-.3 1l1.4.9-.4.8-1.7-.5-.7 1.4h-.8l1 3.4.3.1 3.6.5v-1.2l3.8 1.2 1.1-.7 1.5-.9 2.7.3 1.2-1.4 2.2-.4s2.6 2.5 4.4 3.1c1.7.6 4-.8 4-.8l-.8-3.1z"/>
</g>
<g id="N19" class="small-box pas">
<path class="st1" d="M726 114.6l-.3-.7 1.2-1.4v-1.4l-2.7-.4v-2.3l-3.1-.7-1.8-1.6.3-1.6-3.3-1.2-1.4-1.3-.1.2-2.5.3-1.7-1.5.4-2h-1.4l-5.8 1.9-.8 2h.1l-.4.8s1.8 2.1 1.5 3.4c0 0 .6 1.4.6 1.5 0 .1.6 2.2.6 2.2l-.6 1.3s-.1 3.5 3.2 3.1c0 0 3.3.6 3.8-2.8l.7.1.2-.9s1.5 1.8 2.3.4l1.2 1.1s3.5.6.4 2.1l.2 1.4-.6 1s1.1 1.2 2.3 2l.3-1.7 1.9-.9 1.9 1.5 1.1-1.5h3l1.3-2.5.4-1.3-2.4 1.4z"/>
</g>
<g id="N22" class="small-box pas">
<path class="st1" d="M744.6 168.7l7.8-3.4 1.2-1.3 4.3-2-5-9 .9-.8-.9-2.6-1.6-.7-1.1-2.6-4 3-1.4-1.6-5.5-11.7v-1.2s-3.2-5.8-1.4-7.4c0 0-.7-1.7-1.7-1.1l-1 .7h-1.1l-1.6 1.7-2.1-2.5-2.5-3h-2.6c-.7-.4-1.9 0-1.9 0l-1.9 2.3 2.2 2.7h1.8l.7 2.7-3-.4v9.5l-1.7 3.1h-4.1c-4.8-.3-5.2 2-5.2 2s.2 2.5 0 2.5-1.1.9-1.1.9l-3-1-1.3-.4.3 2 .5 3.3 3.9-.6v1.7l2.2-.2.4-.9 6 .2 4.1.4 3.3-1.2 7.9 10h2.7v2.6h1.2s1.3 3 1.3 3.3c0 .3 1.9-.1 1.9-.1l2.1 1.1z"/>
</g>
<g id="N23" class="small-box pas">
<path class="st1" d="M725.6 128.1h-1.8l-2.2-2.7-.5-.6h-.9l-.4-1.4-1.2-.2.8 2.9s-2.2 1.4-4 .8c-1.7-.6-4.4-3.1-4.4-3.1l-2.2.4-1.2 1.4-2.7-.3-1.5.9c-.5 1.2-.9 2.2-.9 2.2l.8.7-1.3 1.3.7 1.3c1.2.4.4 2.5.4 2.8 0 .3.9 1.2.9 1.2v2.1l1.6.6-1.2 3.3c3.1.3 1 3.6 1 3.6.1 1.2-1.3 1.6-2.7 1.7h.8l.4 1 1-.4.3.9 2 .3-.3-2 1.3.4 3 1s.9-.9 1.1-.9c.2 0 0-2.5 0-2.5s.4-2.3 5.2-2h4.1l1.7-3.1v-9.5l3 .4-.7-2.5z"/>
</g>
<g id="N24" class="small-box pas">
<path class="st1" d="M704.2 141.8l1.2-3.3-1.6-.6v-2.1s-.9-.9-.9-1.2c0-.3.8-2.4-.4-2.8l-.7-1.3 1.3-1.3-.8-.7s.4-1.1.9-2.2l-1.1.7-3.8-1.2v1.2l-3.6-.5-.3-.1-2.1-.7 1.1 2.9-.7 1.9.4.9-1.9.4-.8-1.3-1 1.8 1.2 1.2-.7 3.1-1.1.4-.6 1.6.4 1.9-4.7 1.5c.3 1 .4 2.1.4 3.1 0 1.1-.4 3.1-.9 5.4 1.1.4 2.6.8 2.5.7-.1-.2 0-2 0-2h.8V148l-1-.7.6-3.6 3.7.3s1.9-2 2 1c0 0 .1 1.3 4.4-.3l1.2.3v1l4.4 1.2h.3c1.4-.1 2.7-.6 2.7-1.7.3 0 2.4-3.3-.8-3.7z"/>
</g>
<g id="N25" class="small-box bn">
<path class="st1" d="M683.6 161.2l.3 1.1 1.7-.7 1.1 1-.5.9 4 2 3.4.3v1.8l1.5.2v-2.7l1.9.4v.9l2.4.3v-2.6l2.2 1.5.3-.2 2.1-1.2.9-1-.9-1.2.8-1.7-.8-5.2h2.3l.4-2.7.9-.1-.5-3.3-2-.3-.3-.9-1 .4-.4-1h-.8c-1.3.1-2.6 0-2.6 0s1.3.1 2.6 0h-.3l-4.4-1.2v-1l-1.2-.3c-4.4 1.6-4.4.3-4.4.3-.2-2.9-2-1-2-1l-3.7-.3-.6 3.6 1 .7v1.1h-.8s-.1 1.8 0 2c0 .1-1.4-.3-2.5-.7-.8 3.6-1.9 7.6-2.2 8.6l3.3 1-1.2 1.2z"/>
</g>
<g id="N16" class="small-box pas">
<path class="st1" d="M668.5 133.9s.2-1 1.1-.9l.3-2.3h-1.2l-.4-.8-1-.4v-1.3l.3-1.2-6.5-.4.6-2.7-1.5-1.8-23.8 3.3 1.1 2.8v10.4s-.1 2.9-1 3.8l1 1v2l-1.2 2.5v6l-.9.8-4.4-1v1l-2.2.5-1.3-.4-1.5.4h-2.2l-.7 1.5-1.1-.4v.8l-1.7.8 10.3 7.8h5.9l1.2 1.2 10.4-1.2 2.4-2 2.4 2 .1-.3.9-3.2h5.6v-1.9l2.9-1.3.4-2.4-2.6-1s-.3-1.9-.3-2.1c-.1-.2 2.9-2.1 2.9-2.1v-1.1l1-.6-.6-.9s-3.3-.4.9-2.6l1-1.5s2.4.8 3.1 0l1.2-2.2-.8-.6.5-1-.1-1.2 1.2-3-1.7-2.8z"/>
</g>
<g id="N13" class="small-box pas">
<path class="st1" d="M684.1 141.8c-.5-2-1.5-3.7-2.8-4.6-2-1.4-2-2.6-2-2.6-.7-6.1-11.1-9.1-11.1-9.1s-3.2-1.7-3.2-3.5c0-.2 0-.4.1-.5l-4.8.7 1.5 1.8-.6 2.7 6.5.4-.3 1.2v1.3l1 .4.4.8h1.2l-.3 2.3c-.9-.1-1.1.9-1.1.9l1.4 2.8-1.2 3 .1 1.2-.5 1 .8.6-1.2 2.2c-.6.8-3.1 0-3.1 0l-1 1.5c-4.2 2.2-.9 2.6-.9 2.6l.6.9-1 .6v1.1s-3 1.9-2.9 2.1c.1.2.3 2.1.3 2.1l2.6 1-.4 2.4-2.9 1.3v5.3h1.8l3.8-3.4 2 1.5v1.2h1.5l4.5 1.5v1.9l.9-.7 3 1 .1-.6 4.3-8.6s0-.1.1-.3c.3-1.1 1.4-5.1 2.2-8.6.5-2.2.9-4.3.9-5.4.1-1.3 0-2.4-.3-3.4z"/>
</g>
<g id="N15" class="small-box pas">
<path class="st1" d="M611.4 152.9l3.5.8 5.2 3.8.3.2 1.7-.8v-.8l1.1.4.7-1.5h2.2l1.5-.4 1.3.4 2.2-.5v-1l4.4 1 .9-.8v-6l1.2-2.5v-2l-1-1c.9-.9 1-3.8 1-3.8V128l-1.1-2.8-1.2.2-2.9-1.2-1.4-5.2-1.7 1.2v-1.7l-1-1.3V114l-.4.3-.8 1.1-.1.3-.4 1.3-1.1-.4-1.5 1.2-1.4.2-1.3 1-.3 1-2.2 1.1-1.9.3-2 2.1-1.6 1.6-1.7 1.3-.1 2.5.7.9-.4 1.3-1.4.9-1.2 1 .2.6-2.2.6-.8 1.1-2.1 1.4-.8 1.4.8 1.2-1 1.2s-1.6.8 0 2.2l-.4 1.3-.5 1.3 1.7.7-2.8 2.6-3.4.5 1.1 1.1-.1 2.9-.2 1.8v.6s-4.2 2.5-.5 4.5l1.9 1.5.1.3 8.1-6.5 3.1-2.4z"/>
</g>
<g id="N6" class="small-box pas">
<path class="st1" d="M726.8 82.4l-1.5-1.8-3.7-2.8-2.2.2-3.4-1.6-1.6.8-5.4-2.6-1.1-.5-.8 1.6-.8-.4c.2 1.4-.3 1.5-.3 1.5-1.6-1.3-2.2.1-2.2.1l-1.2-.9-.8 2.2-.9.3-1.1-.9-1.8 1.7 3.4.4V81c3.5.3.5 2.8.4 2.9-.1.1 0 2.8 0 2.8v-.2l1.8.4-.7 3.1.6 1.6 3.7-.3.8-.6 1.2.4 1.1-1.3-.4-2.3-2.3-2 .2-1.4c1.8-3.5 5.5-.4 5.5-.4h3.5l1 .4 3.8-.7s2 2 0 2.6c-2 .7-1.9 2.4-1.9 2.4-1.5 2.7.3 2.6.3 2.6s1.6-1.6 3-3.1l-.1-.3.7-2.3 3.2-2.9z"/>
</g>
<g id="N7" class="small-box pas">
<path class="st1" d="M724.4 90.9l-.9-.6-.6-2.3c-1.4 1.5-3 3.1-3 3.1s-1.8.1-.3-2.6c0 0-.2-1.7 1.9-2.4 2-.7 0-2.6 0-2.6l-3.8.7-1-.4h-3.5s-3.7-3.1-5.5.4l-.2 1.4 2.3 2 .4 2.3-1.1 1.3-1.2-.4-.8.6-3.7.3.9 2.4s1 .1 1.1.1c.1 0 0 1.2 0 1.2l3.9 2.3.8-.6 1.1.6-.2 1.3-.4 2 1.7 1.5 2.5-.3.1-.2 1-3.7 2.9-.1.6.4 1.7-.8 3 .8-.4-5.7.7-2z"/>
</g>
<g id="N8" class="small-box pas">
<path class="st1" d="M710.2 97.1l-.8.6-3.9-2.3s.1-1.2 0-1.2-1.1-.1-1.1-.1l-.9-2.4-.6-1.6.7-3.1-1.8-.4v.2l-.3 1.4-1.1-1.2-1 1.7-1.6-.3-.3-1.8-1.2 1.6-2 1-.3.7c1.6.9 4.4 2.4 4.4 2.3 0-.1-.3 3.5-.3 3.5l-.5 2.3c.8.3 1.5.8 2.3 1.7 2.4 2.7 3.1 3.2 3.2 3.3l.8-2 5.8-1.9h1.4l.2-1.4-1.1-.6z"/>
</g>
<g id="N3" class="small-box pas">
<path class="st1" d="M693.9 76.7l-.5.9.7 2.6H693l-.9.4.2 1.1-.8.3-.8-.6-2 1.5.2-1.8-1.9-1.4-3.7 1-1.4 1s-1 .7.9 1.7c0 0 1.3 1.3 1.2 3.2 0 .5-.1 1-.4 1.5 0 0-.7 1.7 1.1 3.2l-.1 1.7.6-.2-.1 2.1-.8.7s-.6 2.8-1.6 3.4l-1.7-.4s-1.6 1-2.9 1.8v.1l-.6 1.3 1.2.9s-.2 1.2-.2 1.3c0 .1 3.9.7 3.9.7l2.6 1.6h3.6l-.8-4.7 3.2-2.9.2-.9 1.1-4.6.2-.9-.3-.1-.3-1.9 1.4-5.2 3.7-2.6c0-.3 1.2-3.9-3.1-5.8z"/>
</g>
<g id="N9" class="small-box pas">
<path class="st1" d="M691.2 97.5c1.1.3 2.3.6 2.3.5-.1-.1 1.8-1 4.1 0l.5-2.3s.3-3.7.3-3.5c0 .1-2.8-1.4-4.4-2.3l-.9 2.3-.6-.2-.2.9-1.1 4.6z"/>
</g>
<g id="N11" class="small-box pas">
<path class="st1" d="M688.7 107.3l-.2-1.3h-3.6l-2.6-1.6s-4-.6-3.9-.7c0-.1.2-1.3.2-1.3l-1.2-.9.6-1.3v-.1l-.3-1.5-6.7-1.3-2.8.9-2.8-.5-2.1-3.8-2.1.6-2-.6-1.3-2.9 1.3-1.5.6 1.2 2.1.1.2-1.6-2.1-2-.5-.5-7.7.3.5 2-.6 1.8 1.6 4.1-.8 2.1h1l1.8 1.2v.8l1.5 1.6 1.2-.6.9.6.8 2.1v4.6l1.4 1v-.3l.8-.7 5.4-.7 1.4 1 1.1 2.8 1.5-.4.8.8 1.2-.8v-1.4l1.4.8-.8 2-.6 2.9.1 3.3 1.3-2 2.2.3 1-1.3 2.4 5.1c11.5-3.9 8.4-12.4 8.4-12.4z"/>
</g>
<g id="N10" class="small-box pas">
<path class="st1" d="M699.8 99.6c-.7-.8-1.5-1.3-2.3-1.7-2.2-.9-4.2 0-4.1 0 .1 0-1.2-.3-2.3-.5l-.2.9-3.2 2.9.8 4.7.2 1.3 5.5.3 5.6-3.6h2.7l.4-1.1s-.7-.5-3.1-3.2z"/>
</g>
<g id="N12" class="small-box pas">
<path class="st1" d="M677.6 114.5l-1 1.3-2.2-.3-1.3 2-.1-3.3.6-2.9.8-2-1.4-.8v1.4l-1.2.8-.8-.8-1.5.4-1.1-2.8-1.4-1-5.4.7-.8.7v.3l.3 2.5 1.1 2.1-1 1-2.6.5-1-.8-.2.9-1.3.8 1.5.5.6 1.1-1 1.5h-1.7l.9 2.9 1.2.3.5.5h2l4.8-.7c.5-1.5 2.8-2.1 2.8-2.1l10.7.7c.5-.1 1-.3 1.4-.4l-2.2-5z"/>
</g>
<g id="N27" class="small-box bn">
<path class="st1" d="M664.2 219.8c3.8-5.9 1.1-10.9 1.1-10.9l1.2-3h-1.6s-1.6 3.3-2.6-.5l-1.9-1.6v-4.6s2.6-2.1 0-2.4l-3-.4-.5.8-4.5-1.5s-2.2 2.3-6.4-.6h-1v-1l-1.2.5-1.2-1.5-.5-.6-4.5 3.4-.6 1.7-1.8.5v-1.9l-2.4.9-5.5-.3s-1 .7 0 1.9h-1.6l-.5 1.1-1.7.2.1.3-.8 1.2 1.5 2.7-1 .6 1.2 1.5-1.2 1.5-.1 1.8-2 4.3-4.7 2.7h-5.8l-1.4 1.5 1.8 1.5-.8 2h-1.7l-2.4 3.1 1.5 7.2 4.5 7.8-1.4 1.5-.9 1-.6 6.1-2.3 1.3-2.6-1.3-1.3 1.3V253.4l1.9 3.3 2.8 1.3 2.2 7.3.9.6 1.2 3.7-1.8 2.6h-1l1.9 3.5 1-1.4h1.2l1.9 2v1.9l4.1-.7.8-.1 4.4 5.8 4.7-1.6.3-.1V276l3.2-2.9-2.2-2.7 3.6-1.3v-3.7l4.1-4.5 5.4 1.4 4-2v-2.9l2.4 1 1.3-1.5-1.5-7.9 3.1-.6 2.2-4.6-2.1-8c-1.1-9.7 6.5-8 6.5-8 3.9 1.9 5.5 1.5 5.5 1.5 2.6-2.4.9-6.7 0-7.8-1-1-.9-1.7-.9-1.7z"/>
</g>
<g id="N28" class="small-box pas">
<path class="st1" d="M666.6 177.2l-1.4-2.5-1.4 1.5-1.1-.2-1.6-2.6.9-2.2.3-2.8-1.8-1.8h-2.1l-.1-1.4h-5.5l-.1.3-2.4-2-2.4 2-10.4 1.2-1.2-1.2h-5.9l-10.3-7.8-.3-.2-5.2-3.8-3.5-.8-3.7 3v8.3l4.6 10.1v4h4.4l1 2.7v5h8.7l.9 2.8-5.2 3.1v3.1l1.5 5.1 1.7-.2.5-1.1h1.6c-1-1.2 0-1.9 0-1.9l5.5.3 2.4-.9v1.9l1.8-.5.6-1.7 4.5-3.4.5.6 1.2-4.7V185l7.4-6.1h3.4l9.8 1c.2.1 3.5-.2 2.4-2.7z"/>
</g>
<g id="N26" class="small-box pas">
<path class="st1" d="M675.1 177.5l1.4-6 .5-3.1-3-1-.9.7v-1.9l-4.5-1.5h-1.5v-1.2l-2-1.5-3.8 3.4h-1.8V162h-5.6l-.9 3.2h5.5l.1 1.4h2.1l1.8 1.8-.3 2.8-.9 2.2 1.6 2.6 1.1.2 1.4-1.5 1.4 2.5c1 2.5-2.2 2.8-2.2 2.8l-9.8-1h-3.4l-7.4 6.1v3.2l-1.2 4.7 1.2 1.5 1.2-.5v1h1c4.2 2.9 6.4.6 6.4.6l4.5 1.5.5-.8 3 .4c2.6.3 0 2.4 0 2.4v4.6l1.9 1.6c1 3.8 2.6.5 2.6.5h1.6l.2-.6.8-6.1 3.6-2.6c2.6-1.1 3.1-3.3 2.2-5.1-.3-.6-.7-1.1-1.2-1.6-2.1-2-.8-3.4-.8-3.4l1-1.8c7.4-2.5 2.6-7.1 2.6-7.1z"/>
</g>
<g id="N29" class="small-box pas">
<path class="st1" d="M735.9 166l-.3-3.2.2-1.2h-.5l-7.9-10-3.3 1.2-4.1-.4-6-.2-.4.9-2.2.2v-1.7l-3.9.6-.9.1-.4 2.7h-2.3l.8 5.2-.8 1.7.9 1.2-.9 1-2.1 1.2.4 1.5 4.5 2.1 1 2.8-.4 2.5s-4.4 1.5.4 11.4l-1 1.6v2.8l4.5 4 1.2-.3-.6-1 .8-.5-.5-1.6.9-.3s-1-2.4-.9-2.6c.1-.2.4-3.1.4-3.1l3.2-1.2 2.7 1 .3 2c1.8.8 3-1 3-1l-1.3-2.7.3-3.3 1.2-.9v-1l1.1-.9 1.8.4.8-1.3h1.8l1.3-1.1h3l.4-2.8c-1-1.5.3-3.1.3-3.1l.2-.9-.4-.6.5-1.5c3.3.9 3.2.3 3.2.3z"/>
</g>
<g id="N30" class="small-box pas">
<path class="st1" d="M749.1 187.9l.4-3.8H747v-1.2h1.3l-.6-1.7s3.5-2.9 1.2-3.2l-1.1 1.2-2.9-.2v-2.2l.4-1.7 1.3-.5s.5-1-.6-1.2l-1.2-.7.8-1-1.7-1.3.8-1.7-2.2-1.4s-1.9.3-1.9.1c0-.3-1.3-3.3-1.3-3.3h-1.2v-2.6h-2.2l-.2 1.2.3 3.2s.1.6-3.3 0l-.5 1.5.4.6-.2.9s-1.2 1.6-.3 3.1l-.4 2.8h-3l-1.3 1.1h-1.8l-.8 1.3-1.8-.4-1.1.9v1l-1.2.9-.3 3.3 1.3 2.7s-1.2 1.8-3 1l-.3-2-2.7-1-3.2 1.2s-.4 2.9-.4 3.1c-.1.2.9 2.6.9 2.6l-.9.3.5 1.6 1.3-.7.8 1.3v.9l6.5.8 1-1.4 1.7 2 .9 1.7 1.6-1 .3-2 1.3-1.2s2.4-.2 3.3 1.2l.8-1.2 1.3 1.2s5.7 1 7.6 3.1l.8-1.4 1.2-.7h2.2s.7-2.1 2.9-2.1v-.9l1.7.4v-1.2l1.3-.9V189l-2-1.1z"/>
</g>
<g id="N31" class="small-box pas">
<path class="st1" d="M753.7 163.9l-1.2 1.3-7.4 3.3-.4.2-.8 1.7 1.7 1.3-.8 1 1.2.7c1.1.2.6 1.2.6 1.2l-1.3.5-.4 1.7v2.2l2.9.2 1.1-1.2c2.3.3-1.2 3.2-1.2 3.2l.6 1.7H747v1.2h2.5l2.1-.7.3.8s-.9.4-.9.6c0 0 .3 1.5 2.3-.6l.3-.4.7.2.7 1.5-.8 1.2.3 1.2-.8.6 1.1 2.3 1.3.4 1.2 1.1.4 1.4h-1.3l-.6 1.4-.6 2.6 1 .9h1.5l3.1 1.7v-1.1l1.2.7h2l.6-.7 2.7 2.3 6.9-7.1 3.3-3.4 2.2-2.9 5.5-6.1 1.2-1.3-4.3-3.6-3.4-3.2.1 2.2-2.8.4-1.5-1.3 2.7-.9-.8-1.5-2.8-3.1-2.6-2.8-3.3-5.1-2-3.2-7.7 3.4-4.3 1.9z"/>
</g>
<g id="N32" class="small-box pas">
<path class="st1" d="M764.5 199.1l-.6.7h-2l-1.2-.7v1.1l-3.1-1.7h-1.5l-1-.9.6-2.6.6-1.4h1.3l-.4-1.4-1.2-1.1-1.3-.4-1.1-2.3.8-.6-.3-1.2.8-1.2-.7-1.5-.7-.2-.3.4c-2 2-2.3.6-2.3.6 0-.2.9-.6.9-.6l-.3-.8-2.1.7-.4 3.8 1.9 1.1v.9l-1.3.9v1.2l-1.7-.4v.9c-2.2 0-2.9 2.1-2.9 2.1h-2.2l-1.2.7-.8 1.4c-1.9-2.1-7.6-3.1-7.6-3.1l-1.3-1.2-.8 1.2c-.9-1.4-3.3-1.2-3.3-1.2l-1.3 1.2-.3 2-1.6 1-.9-1.7-1.7-2-1 1.4-6.5-.8v2l-.8 1-.3 3.8h3v2.2l.2.3 1 1.4-1.2.6v2.6l1.2.9h3l1 2.1 1.2-.9 2.5-.4 1.2 1.7 1.2-.9 1.5.3v1.1h1.5l1.2-2 1.4.2 2.9 3 .9-1.5-1.5-2.9.6-1.5-1.1-2 3.9-2 1.6 1.3 2.7-1.2v4.4l-2-.2.8 1.3.2 2.6 1-2.2.8.5.9-1.1 1.1 1.2-.9 3.6 2.3-.5.5-1.8 1.8-.1 3 1.8 1.4-1.6-1.7.3 1.5-.7.6.3 1-.7 5.4-3.7 2.3-2.2 3-1.9.9-.9-2.7-1.9z"/>
</g>
<g id="N33" class="small-box pas">
<path class="st1" d="M716.5 202.8v-2.2h-3l.3-3.8.8-1v-2.9l-.8-1.3-1.3.7-.8.5.6 1-1.2.3-4.5-4v-2.8l1-1.6c-4.9-9.9-.4-11.4-.4-11.4l.4-2.5-1-2.8-4.5-2.1-.4-1.5-.3.2-2.2-1.5v2.6l-2.4-.3v-.9l-1.9-.4v2.7l-1.5-.2v-1.8l-3.4-.3-4-2 .5-.9-1.1-1-1.7.7-.3-1.1 1-1.3-3.3-1c-.1.2-.1.3-.1.3l-4.3 8.6-.1.6-.5 3.1-1.4 6s4.9 4.6-2.6 7.1l-1 1.8s-1.4 1.5.8 3.4c.5.5.9 1 1.2 1.6l1.4-1c1.3-1.2 3.6 0 3.9 1.1.3 1.1 2.1.7 2.1.7l.3 1.1 1.7-.8.2 2.3h3.6v1.8l1.3-.4.8-1.4 1.2.9.4-.7 1.3.3-.8 1 .4.6s-.1 1.4-.1 1.5c0 .1.8.3.8.3l-.5 1.5h2.7s-.6 2.2 5.3 1.7c0 0-.2-1 2.6-.3l3.1 1V201l1.9-.1 5.3 2.3s.8-.6 2.2.2c0 0 .7-.4 2.3-.4v-.2z"/>
</g>
<g id="N34" class="small-box pas">
<path class="st1" d="M687.5 222l-1.7-.4 1-2-.5-1.3.2-2.2h-1l.4-1.4-.8-3-.7-.8-2-4.3-.9-.5-1.6-4.4s.2-1.4.3-1.5c.1-.1 2.9.4 2.9.4l.4-1.3h-1.2v-3l.8-.4-.1-1-.2-2.3-1.7.8-.3-1.1s-1.8.4-2.1-.7c-.3-1.1-2.6-2.3-3.9-1.1l-1.4 1c.9 1.8.4 4-2.2 5.1l-3.6 2.6-.8 6.1-.2.6-1.2 3s2.6 5-1.1 10.9c0 0-.2.8.7 1.8.9 1 2.6 5.4 0 7.8 0 0-1.6.4-5.5-1.5 0 0-7.6-1.7-6.5 8l2.1 8v.1l2.9 4.5 8-5.2 3.7.1-.7-2.6 1.5-.1.9 3.7 1.9 3.2 3.2-2.8 4.2.9-.1-1.7h-1.1l-.3-1.9 2.5.8 1-1.5-.9-1.2-.9.7v-2.5l-1.8-3.3 2 .3-.2-.3.8-4.4 1.3-.6-.2-.7.8-.5 2.9.2-.8-4.1 1.8-3z"/>
</g>
<g id="N35" class="small-box pas">
<path class="st1" d="M750 210.9l-1.8.1-.5 1.8-2.3.5.9-3.6-1.1-1.2-.9 1.1-.8-.5-1 2.2-.2-2.6-.8-1.3 2 .2v-4.4l-2.7 1.2-1.6-1.3-3.9 2 1.1 2-.6 1.5 1.5 2.9-.9 1.5-2.9-3-1.4-.2-1.2 2h-1.5v-1.1l-1.5-.3-1.2.9-1.2-1.7-2.5.4-1.2.9-1-2.1h-3l-1.2-.9v-2.6l1.2-.6-1-1.4c-1.7 0-2.3.4-2.3.4-1.4-.8-2.2-.2-2.2-.2l-5.3-2.3-2-.2v1.5l-3.1-1c-2.8-.7-2.6.3-2.6.3-5.9.5-5.3-1.7-5.3-1.7h-2.7l.5-1.5s-.8-.2-.8-.3c0-.1.1-1.5.1-1.5l-.4-.6.8-1-1.3-.3-.4.7-1.2-.9-.8 1.4-1.3.4v-1.8h-3.6l.1 1-.8.4v3h1.2l-.4 1.3-2.9-.4c-.1.1-.3 1.5-.3 1.5l1.6 4.4.9.5 2 4.3.7.8.8 3-.4 1.4h1l-.2 2.2.5 1.3-1 2 1.7.4-2.1 3 .8 4.1-2.9-.2-.8.5.2.7-1.3.6-.8 4.4.2.3 7.4 1.2.7 1.1 1.1-1.2 4.4-2 1.6.4-.3 2.8 10 2.1 1.4-.4v-.8l2.6-2.8 3.7 1.2s2-3.7 6.5-1.4l2.6 1.6.9-2.4s2-1.3 3.1.7h1.7l2.2-.2 2.4-1.5 1.3-2.8s2.1 1.2 4.3.2l-.2-.8-.3-1.7 1.2-1.2s1.9-1.9 2.5-1.8l1.5.3 1.2-2.8.9-1.8 1.6-1.2 1.2-1.2.7-.1 1-2.1 1.8-2.2.7-1.2.5-.6-2.6-1.7z"/>
</g>
<g id="N36" class="small-box bn">
<path class="st1" d="M624.3 204.1l-1.5-2.7.8-1.2-.1-.3-1.5-5.1v-3.1l5.2-3.1-.9-2.8h-8.7v-5l-1-2.7h-4.4v-4l-4.6-10.1v-8.3l-8.1 6.5.7 2.6.4 1.4.7 1.3.5 2.2.8 1.2-.2 1.3-.3.9-.5 1.2-1.5.3-1.5 1.4-2 1.5-2.2 2-1.4 1.5-1.4.4-1-.1-3.2.2-1.6.5-.8 1.1-.3 1-1.6.4-.5 2.2.1 1.6.6 1.6-.1.9-.4.5 1.1.5v2.4l2.2 2.4.5-.7h4.9l1.4 7.6-.4 5.6 1.2-.4.9 1.3 1.4 6.5.9.2.5-1.3h1.2s1.9 1.5 1.8 1.8c-.1.3.7 5.8.7 5.8l-2.4 5.5-.9 4.7-1.7 2.1 2 .9v2.1l6.4-.5s.8 1.3.8 1.5c0 .2 3.4 1.2 5.7 1.9l1.4-1.5-4.5-7.8-1.5-7.2 2.4-3.1h1.7l.8-2-1.8-1.5 1.4-1.5h5.8l4.7-2.7 2-4.3.1-1.8 1.2-1.5-1.2-1.5.8-.7z"/>
</g>
<g id="N37" class="small-box bn">
<path class="st1" d="M605 239.5c0-.3-.8-1.5-.8-1.5l-6.4.5v-2.1l-2-.9 1.7-2.1.9-4.7 2.4-5.5s-.8-5.5-.7-5.8c.1-.3-1.8-1.8-1.8-1.8h-1.2l-.5 1.3-.9-.2-1.4-6.5-.9-1.3-1.2.4.4-5.6-1.4-7.6h-4.9l-.5.7-2.2-2.4V192l-1.1-.5-1.5 2-1.9-.1-1.6.4-.3 1.2.9 1.1-.1.9h-3.5l-2.2.3-1.1.2-.3-.4-1.8.9-.1 1-2 2.9-1.2 2.9-1 1.3-.6.9.7 1.2.5 1.2-.1 2.1-.8 1.5v.9l-.5.8-1-.1-1-1.6-.9-.7-1-.5c-.1-.1-1.6-.9-1.6-.9l-.7-1-1.9-.2-4.7-5.1-1-1.5.6-1.8-.7-2.4-1.6-1-1.2-.8-1.9-1.2-1.9-.3-1.7 1-2.1 2.8-3.6-.3s-1.2.5-1.3.6l-.8.8-.3-1.4-.6-.7-.3 2.7-.2 2.2-1.4 2.2-1.3 1.6-.4 1.4-1.8.4-1.9-.4-1.3-.5.8 7.2-.5 1.1-.7.8-.1 1.2.7.7 5-2.7c1.8-1.5 3.6-.4 3.6-.4 2-.6 2.6 1.2 2.6 1.2l2.7-.5-.4 3.5h1.1v3.3s1.1 2 1.1 2.2c0 .2-.4 5.8-.4 5.8l6.9.3 1.2-.3 1.5-4.7 3.9-.1c1.5-2.5 3.4.4 3.4.4l.6 7.4-1.8 1.3-2.3.5.6 1.9-.6.5.3 1.4-4.1 3.3v2.4l1.4 1 1.7 2.1v1.2l1.8 1.8 1.9-.7 1.5-1.4h1.2l.7-.3c0-1.1 1.2-.2 1.1-1.2-.1-1 .9-1.6.9-1.6l1.3-.1 1.2-.8h.6l4.2 6.1 3.2.3c1.3-1.6 4.3-.7 4.3-.7l1.3-1 1.1.3 3.5-.8v-2.1l3.6-1.5 5.9 4.5 3.2-.9.6.3 4.4-.9 1.9 2v2.3h1.1v-3.7l1.3-1.3 2.6 1.3 2.3-1.3.6-6.1.9-1c-2.5-.8-5.9-1.9-5.9-2z"/>
</g>
<g id="N38" class="small-box bn">
<path class="st1" d="M617.4 283.4l1.8-5.6-4.1.7v-1.9l-1.9-2H612l-1 1.4-1.9-3.5h1l1.8-2.6-1.2-3.7-.9-.6-2.2-7.3-2.6-1.3-1.9-3.3v-.1H602v-2.3l-1.9-2-4.4.9-.6-.3-3.2.9-5.9-4.5-3.6 1.5v2.1l-3.5.8-1.1-.3-1.3 1s-3-.9-4.3.7l-3.2-.3-4.2-6.1h-.6l-1.2.8-1.3.1s-1 .6-.9 1.6c.1 1-1.1.1-1.1 1.2l-.7.3h-1.2l-1.5 1.4-1.9.7-1.8-1.8v-1.2l-1.7-2.1-1.4-1v-2.4l4.1-3.3-.3-1.4.6-.5-.6-1.9 2.3-.5 1.8-1.3-.6-7.4s-1.9-2.9-3.4-.4l-3.9.1-1.5 4.7-1.2.3-6.9-.3s.4-5.6.4-5.8c0-.2-1.1-2.2-1.1-2.2v-3.3h-1.1l.4-3.5-2.7.5s-.6-1.8-2.6-1.2c0 0-1.8-1-3.6.4l-5 2.7.1.1-.1 1.3v.3l.1.9.3.9.3 1.3-.6.9-1.7 1.7-1.2 1.3-1.9 1.2-.6 1.1-1.6 2.3-1 1.4s-1 .5-1.2.4c-.2-.1-.9.2-.9.2l-.2 1.3.1 1.1-.1 1 .2 1.8-.6 1.8.4 1.1.3.9.9.6-.1 1.1-.8 1.2-1.1 2.8v1.9l.7 1.5.5 1.2 1 .4 1.8.4 1 .7 1.5.8.5.9.2.6.9.3.9.6.1 1.2-1 1.4-.6.7-.5 2.2-.2.9.1.9-.5 1.1-1 1s-1.2 1.9-.3 2.5l.2.6-.8 1.1-.5.4h-.6l-.9.8.3.9-.2.7-.8 1.2-1 1.1-.8 1.2.3 1 .9 1.4s.6 2.3 2.8 1.2l2.4-.5 1.4 1 1.3 1.1 1.7.8.9.8 1.3-.7 1-1.6 1.8-.8 1.3-.7 1.3-.2 1.6-.1.4 1.9 1 1.9 1.2.6.9-1.4 1-.9 1-.7.7-.2 1.1 1.1.4 1.2.5 2 .4 2.1v1.1l-.4 1.8v1l-.8 1.2-2 2.5-.7 1.1-.2 1.3 1.1 1.4v1.6l.1 2.3.2 2.3.2 2.1.8.9v1.4l-.7 2.5-.7 2.3.6 2.2-.1.4 34.7 13.7 16 1.5 14.6-20.2 1.2 1.2 6.8-8.3h-5.8v-6.4h9l1-1.4-1-3.6 1.7-.8v-4.5l-1.7-1.5 1.3-4.2z"/>
</g>
<g id="N39" class="small-box pas">
<path class="st1" d="M745.3 269.4l-2.4-10.6.3-2.2.6-2.5.6-2.2-2.1-1.8-.3-2.1-1.2-1.8v-1.9l-1-3.3v-7.5l-1.3-2.1v-.2c-2.3 1-4.3-.2-4.3-.2l-1.3 2.8-2.4 1.5-2.2.2h-1.7c-1.1-2-3.1-.7-3.1-.7l-.9 2.4-2.6-1.6c-4.4-2.3-6.5 1.4-6.5 1.4l-3.7-1.2-2.6 2.8v.8l-1.4.4-10-2.1.3-2.8-1.6-.4-4.4 2-1.1 1.2-.7-1.1-7.4-1.2-2-.3 1.8 3.3v2.5l.9-.7.9 1.2-1 1.5-2.5-.8.3 1.9h1.1l.1 1.7-4.2-.9-3.2 2.8-1.9-3.2-.9-3.7-1.5.1.7 2.6-3.7-.1-8 5.2-2.8-4.5v-.1l-2.2 4.6-3.1.6 1.5 7.9-1.3 1.5-2.4-1v2.9l-4 2-5.4-1.4-4.1 4.5v3.7l-3.6 1.3 2.2 2.7-3.2 2.9v5.5l-.3.1c.8.7 1.5 1.3 1.5 1.3 0 .1 1.2 0 1.3 0 .1 0 .6-1.4.6-1.3.1 0 2.3-.7 2.4-.7.2 0 .6.9.7.9.1 0 .6-.2.7-.2.1-.1.9.1 1 .2 0 .1.4.7.4.7s.6.3.7.3c.1 0 .1.8.2.9.1.1 1.4.3 1.4.3s.1 1.5.1 1.7c0 .1 5.2.6 5.2.6.1-.1 2 4.1 2.1 4.2 2-2.7 6.2-8.5 6.2-8.5-.1 0-.3-2.2-.3-2.3 0 0 1.5.6 1.5.5.1-.1 7.2-9 7.2-9 .1 0 1.6.8 1.6.8l1-.6 2.1.3 1.1-.8 1.9.8s-1.9-4.5-1.9-4.6c0-.1-.5-2.6-.5-2.6l-.8.8-1-.3.5-1.7c0-.1.8.3.8.3h1.7l4.7 5.8 2.7.4.4-1 1.9 1 4.8-2 1.5-.1.5.9h3.5l1.4-1.2.9.3c.1 0 1.4-1.2 1.4-1.2l.6.4-1.2 1.3.1 1.4 1.3.3.2-.7 2 .6.6-1.3.9.3.4-.6 6.2.2.3 1.6s-1 1.1-1 1.2c0 .1-.1 1.6-.1 1.6s3.3 3.2 2.4 8.8c0 0-2.2 3.6.7 6.3l.2 1.4 2.5.3.3 1.4.6 1.1 2.3-.8 1.9 1.5s-.4 2.5-.4 2.6c0 .1 1.6 1.4 1.6 1.4l-.3 2.3c-.6 1.6.7 2.1.7 2.1s7 2.9 7.2 3.1c.1.2 2-1.3 2-1.3s1-1.5 1.1-1.5c.1 0 1.1.4 1.1.4l2.9-4.7 3.9-3.5 1.8-.3 1.1.7 1-.3.3-1.2h1.5l1.4-.7.1-.7.3-2.1.6-1.9-.9-1.5-.6-1.5-.9-1s-2.8-1.6-.3-3.4l2.2-.1 1.5-1.3 1-1.9.3-1.3s-1.6-2.2 1.9-1.9c.5-.5 1.1-1.6-.2-4z"/>
</g>
<g id="N40" class="small-box pas">
<path class="st1" d="M706.1 287.8c-2.9-2.8-.7-6.3-.7-6.3.9-5.6-2.4-8.8-2.4-8.8s0-1.5.1-1.6c0-.1 1-1.2 1-1.2l-.3-1.6-6.2-.2-.4.6-.9-.3-.6 1.3-2-.6-.2.7-1.3-.3-.1-1.4 1.2-1.3-.6-.4s-1.3 1.2-1.4 1.2c-.1 0-.9-.3-.9-.3l-1.4 1.2h-3.5l-.5-.9-1.5.1-4.8 2-1.9-1-.4 1-2.7-.4-4.7-5.8h-1.7s-.7-.4-.8-.3c0 .1-.5 1.7-.5 1.7l1 .3.8-.8s.4 2.5.5 2.6c0 .1 1.9 4.6 1.9 4.6l-2.2-.6-1.1.8-2.1-.3-1 .6s-1.6-.9-1.6-.8c-.1 0-7.2 8.9-7.2 9-.1.1-1.5-.5-1.5-.5s.2 2.2.3 2.3c0 0-4.2 5.8-6.2 8.5.2.1 1 0 1 0l1.4 1.5.1 6.1 2.3 1 .8 1.7-1.6 3.2c0-.1 1.8 3.4 1.8 3.4l2.1.1.6-.9 1.7 1.1.7-.4 1.6 1.7.3 1.9.7.2 10.7-9.7c2 .8 3-1.3 3-1.3l1 1.5v.8l.4-.1.6.9 1.1-.9 2.3.4 4.5 6.5 1.1-2.2-.2-1.6c-.9-2.7 0-3.6 0-3.6l3.4.1.4.8 1.2-.3.5 1.5 3.2-.5-.3-.9-1.8-1.5.1-3.2-1.2-1.6.8-2.1 1.5 1.1 1.6-.8-.5-2.8.3-.7 1.4-.1v.8l4 .2.3-2.2s.2-.6.3-.7c.1-.1 1.5 1 1.5 1l1.5-1.4 2.4.3-.1-1.1z"/>
</g>
<g id="N41" class="small-box pas">
<path class="st1" d="M756.8 328.9l-.4-1.9-3.1-.9-1.6-1.8-.3-1.5-1.5-.7.3-2.1-1.6.3-2.2-2.2-1.3.3-3.3-3.3-.3-1-.7.3-1.9-3.1.3-2.5 2.5.1.9-1.2 1.2-1.3 1-1.8-1.3-2.5.4-4.2-1-1.5-.4-.9-1.6-1.3.2-2.2-1.4.7h-1.5l-.3 1.2-1 .3-1.1-.7-1.8.3-3.9 3.5-2.9 4.7s-1-.4-1.1-.4c-.1 0-1.1 1.5-1.1 1.5s-1.9 1.4-2 1.3c-.1-.2-7.2-3.1-7.2-3.1s-1.3-.5-.7-2.1l.3-2.3s-1.7-1.3-1.6-1.4c0-.1.4-2.6.4-2.6l-1.9-1.5-2.3.8-.6-1.1-.3-1.4-2.5-.3-2.4-.3-1.5 1.4s-1.5-1.1-1.5-1c-.1.1-.3.7-.3.7l-.3 2.2-4-.2v-.8l-1.4.1-.3.7.5 2.8-1.6.8-1.5-1.1-.8 2.1 1.2 1.6-.1 3.2 1.8 1.5.3.9-3.2.5-.5-1.5-1.2.3-.4-.8-3.4-.1s-.9.9 0 3.6l.2 1.6-1.1 2.2-4.5-6.5-2.3-.4-1.1.9-.6-.9-.4.1v-.8l-1-1.5s-1 2.1-3 1.3l-10.7 9.7.8.2v.9l1.9.4.8-1.1 3.7 4.5v1.4l.6 1.5 1.9.4 3.5 3.6v2.7l1 .9h2.8l3.4 2.7h.9l.6 1.4 1.3.3.4 1.4v1.5l4.5.6 1.9.5 1-1.2 1 .4.6-.8h1.8l1.2 1.2h1.6l-.4 4.4 1 1.3 1 4.7 3.8 2.9 1 .6-1.7 1.7-.4 6 1.7 1.5.5.8 3.1 2.4v1.7l2.6-.2 17.8-12.4 20.7-1.2.2-.6.7-1.5.6-2.7s0-2.4 1-2.4c0 0 2.4.6.9-4.6l.3-1.9-.1-2.2-.1-1.3 2.2-1.2 1.7-2z"/>
</g>
<g id="N42" class="small-box pas">
<path class="st1" d="M704.8 358.8l-.5-.8-1.7-1.5.4-6 1.7-1.7-1-.6-3.8-2.9-1-4.7-1-1.3.4-4.4h-1.6l-1.2-1.2h-1.8l-.6.8-1-.4-1 1.2-1.9-.5-4.5-.6v-1.5l-.4-1.4-1.3-.3-.6-1.4h-.9l-3.4-2.7h-2.8l-1-.9v-2.7l-3.5-3.6-1.9-.4-.6-1.5v-1.4l-3.7-4.5-.8 1.1-1.9-.4v-.9l-.8-.2-.7-.2-.3-1.9-1.6-1.7-.7.4-1.7-1.1-.6.9-2.1-.1s-1.8-3.5-1.8-3.4c0 .1 1.6-3.2 1.6-3.2l-.8-1.7-2.3-1-.1-6.1-1.4-1.5s-.9.1-1 0c0-.1-2-4.2-2.1-4.2-.1.1-5.2-.4-5.2-.6 0-.1-.1-1.7-.1-1.7s-1.3-.2-1.4-.3c-.1-.1-.1-.8-.2-.9-.1 0-.7-.3-.7-.3s-.3-.6-.4-.7c0-.1-.9-.2-1-.2-.1.1-.6.3-.7.2-.1 0-.5-.9-.7-.9-.2 0-2.4.7-2.4.7-.1 0-.6 1.3-.6 1.3-.1 0-1.3.1-1.3 0 0 0-.7-.6-1.5-1.3l-4.7 1.6-4.4-5.8-.8.1-1.8 5.6-.9 5.8 1.7 1.5v4.5l-1.7.8 1 3.6-1 1.4h-9v6.4h5.8l-6.8 8.3-1.2-1.2-14.6 20.2-16-1.5-34.7-13.7-.2.4 13.8 10.7 10.9 21.8 19.3 6.8 39.8 22.8v1.8l20.7 3.5h19.1l-2.6-24.6 38.3.9 8.5-.7v-1.7l-3-2.5z"/>
</g>
<g id="N43" class="small-box bn">
<path class="st1" d="M667.3 419.8l-3.7-32.5h-19.1l-20.7-3.5V382L584 359.3l-19.3-6.8-10.9-21.8L540 320l-.1.5.6 1.4.7 1.8 1.8.8.4 1.2-1.2.9-1.4 1.5-.7 1.6-1.7 1.6-2.1.2-1.9.7-.8 1.3-1.5-.1-1.8.7-1.9 1.3-.5.9-.8.8-1.5.2-3.7-.4-1.7.6-1.2 1.6-.9.4-2.2-2.5-1.6-.9-1.2-1.2-1.6-.7-2.7 1.3-2.8-.8-1.6-1.9-1.5-1-1.3.7-2.4.3-1.2.9-.3 1.4-.8 1.3-1.5 1.4-1.2-.1-.8.4-1.3-.6-1.7.4-1.4.9-.3 5-.5 2.2s-2 1.1-.3 2.1l.4 1.5-1 1.2-1.6.3-.8-.7-1 1.4-1.3 1.1-1.5.2-.9 1.2.3 1.8-.2 1.4-1.4 1-1.5.2-1.3-1-.6-1.4-1.2-.4-1.3.5-.2 1.3-.4 2.2v1.2l.4 3.6-2.5 1.9-1.1 1.6.6 2.1.8 1.9v1.2l-1.6 3.1-.1 2.1-1.7 1.7-2.2 1.7-1.4.1-.7 2.6-.3 1.5-1.4.7-.5.6.6 1.3 1 1.4-.8 1.4-1.4.7-.7 2 .4 1.8 1.1 1.7-.4 3.4-.5 2-.9 2.1 5.4 4.4 8 5.2h.6l1.2 2.1.6-.3 4.1 2.8 5.4 2.6 1.9 1.3 1.5-.2.9.4.6-.4 1 .4 1.3-.9 2.1.4.5-.4.9.8 9.3 9v.8l2.4 1.9L518 441l3.4 1 4.4 2.4 3.5 3.7c2.1 1.7 10.2-.2 10.2-.2l5.5-3.3 2.1-.2.4-.7 1.5-.1.3-.7-1-1.2-.7-2.9H546l1.8-3.3-1-.6v-.9l6.3.4 4 1.4s.9-.4 1.2-.4c.3 0 1.4 2.7 1.4 2.7l9.6 2.1 1.8 1.8 3.3-.3 1.5-3.1 3.1-.8 10.7.8 1.2-.8 1.5.8-10 4.7-5.1 10 5.7 8 6.3 1.1 3.1-1.5 3.4 1.2 2.8-1.5 1.8.7v.7l.9 2.5 4 1.1 1.4 1.9 1.5.2 2.4-1.2 1.5 2.4.5-.1.9-2.2 1.1 1 3.6.1 3.2-2.1 6.8.6s1.2-.7 1.2-.8c0-.1 1-1.5 1-1.6v2.9l7.1 1.9-.1 2.3 2.3-.2 3.5 1.9.9-.9 6.1 2.3 3.5-4.5 3.2-15.9 2.9-8 .7-5.5 3.4-.7-1.9-.7 5.3-18.9z"/>
</g>
<g id="N44" class="small-box bn">
<path class="st1" d="M825.7 505.7l-1.2-2.5-.1-2.4-2.7-3.3-1.3-.7-.4-2.4.9-2.8 1.5-2.7-1-2.1-1.8-.1-1.5-.6-1.3-1.5-1.6.3-2.4-2.1h-2.1l-2.7-3.6-1.2-.6s-1.9 1.5-3.7-.4l-1.8-2.4-4-3.4s-3.4-.5-4.3-1.3l-3-.4s-4-3.1-4.9.7c0 0-1.5 2.7-4.2-.4l-3.1-.4-.1-1.6.6-1.5.3-1.3 1-1.3-.4-4.8s1.3-1.9 2.2-1.9l-.9-1.6-.4-2.1 1.6-2.2-2.7-2.4-1.9-3.1-1.9-3.7.1-3s-.7-2.5 2.1-2.2l1.3-.7 1-1.5 1.5-3-1-1.3-.3-2.7-1.8-1 .3-1.9.9-1.9-1.6-1.8-.6-3-1.9-1 .3-1.3.9-1.8 1.3-.6h1.9l1.3-1.5.1-2.2 1.6-1.5 1.3-1.6-3.6-3.6-.7-1.8-5.2-2.1-3.1-1.3-1.3-3.3-2.5-1.8s-.7-2.1-2.5-2.4l-1.8-2.1-1-.6-1.5.6-3.3-.7-1.2-2.1-3-.4-2.2-.3-2.2-.3-1.5-1.2 1.2-1.8 1.3-1.8 1.3-4.5-.4-2.1-1.2-1.9s-1-2.7 0-6.9l-.4-2.7.4-3.7.4-1.5-1-2.5s1.3-2.8 0-4l.3-.8-20.7 1.2-17.8 12.4-2.6.2-8.5.7-38.3-.9 2.6 24.6 3.7 32.5-5.3 19.1 1.9.7-3.4.7-.7 5.5-2.9 8-3.2 15.9-3.5 4.5-10.4 13.4-11 31.6h.2l.4.5.3.4.1.6.3.6.6.5.7.3 1.3.1.7.9 1.2.6.9-.7.4-1.8.9-1.3 1.5-1.2.4.6.7.7 1.6-.7 1.8-1.2 1.9-1.2 1.2-.7 1.5-.6.6-.6.7-.6 1.6-.1 1-.1 1.6-.3 1.6-.6s1.5.3 1.5 1l.3 1.3.3.6.2.4.3.9.6 1 .7.9.1.9-.3 2.2v2.8l.9 1 1.5 1.8 1.6.9 1.5 1 2.8 1.6 1.3 1.8 1.2 1.3.6.9.7.9 1.5 1.3 1.3 1.3s.7 1.5.3 2.2l-.4 2.1.9 1 1.8.6.6.4.9.7.7 1 1.2 1.2 1.2 1.8 1.9 1 1.5.7 1.2.3 1.3 1s2.4 1.2 4.2-.4l1.8-.3-.3-1-1.3-1.6v-1l.5-1 1.3-.7 1.9-.4 2.7-1.5 1.5-.1 1.5.1h1l1.6-.9 1.5-.7 1.2.9 1.3.3 1.3.9 1 .9 1.3.7 1.5.7 1.6 1 1.5.4 1.2.6 1.2.6.4.3h1.9l1.3-.4 2.4-1.3s2.1 2.5 1.9-.7l.9-2.8 1.8-1.5 1.6-1.3 1.2-1.3s.9-.4 1.2-1.8l1.2-1.9s3-2.4-.1-4.2l-2.5-1.6 1.5-2.2 1.8-1.5 1.2-.1 2.2-.4 1.6-.3h1.9l1.5.4 1 .1 1.2-.9s2.5-.9 4.9.1c0 0 3.1 1.9 4.9.7l1.2-.4 1.9.1 1.5.7.7.7.7.4.3.7v.9l.6.7 2.1 1.2 1 1 1.5.6 1.3 1.3 1 .5 1.5.9 1 .6.9 1.3 2.4 1.6 1.2.1h1.3l1.5-.1.6-.9 1.3-.7 1.5-.3.7-.1.7-1.6 1.8-1.9 1.3-1 1.2-1.3.6-3.1.6-1h1.5l1.3 1 .9 1 1.2 1 1 .9 1 .9.9.7.9-.9 1.9-.6 1.2.6.7.7 1 .6 1.3.4 1.8.1.4-1.2.3-1.2.4-1.3-.7-4.5.1-1.9-.1-1.8-.4-1.2-1.3-1.2-.4-1.5.6-.9.1-1.5.6-1.3.9-.9.6-.9-.4-1.8-.7-1.8 1.9-2.5 2.7-.4 2.4.9 1.9 1.3 1.9 1.6 4 .9 1.9.6.6-.1 1.5-2.4 1.2-3.4.8-2.1z"/>
</g>
<g id="N45" class="small-box bn">
<path class="st1" d="M644.1 471.8l-.9.9-3.5-1.9-2.3.2.1-2.3-7.1-1.9v-2.9c0 .1-1 1.4-1 1.6 0 .1-1.2.8-1.2.8l-6.8-.6-3.2 2.1-3.6-.1-1.1-1-.9 2.2-.5.1-1.5-2.4-2.4 1.2-1.5-.2-1.4-1.9-4-1.1-.9-2.5v-.7l-1.8-.7-2.8 1.5-3.4-1.2-3.1 1.5-6.3-1.1-5.7-8 5.1-10 10-4.7-1.5-.8-1.2.8-10.7-.8-3.1.8-1.5 3.1-3.4.2-1.8-1.8-9.6-2.1s-1.2-2.7-1.4-2.7c-.3 0-1.2.4-1.2.4l-4-1.4-6.3-.4v.9l1 .6-1.8 3.3h1.7l.7 2.9 1 1.2-.3.7-1.5.1-.4.7-2.1.2-5.5 3.3s-8.1 1.9-10.2.2l-3.5-3.7-4.4-2.4-3.4-1-11.1-5.6-2.4-1.9v-.8l-9.3-9-.9-.8-.5.4-2.1-.4-1.3.9-1-.4-.6.4-.9-.4-1.5.2-1.9-1.3-5.4-2.6-4.1-2.8-.6.3-1.2-2.1h-.6l-8-5.2-5.4-4.4-.5 1.1v1.8l.2 1.1 1.5 1.8.1 1.4-1.5 1.3-1.7 1.6-1.8.3-1.6 2.9v1.6l.5.9-.3 1.4-.7 1.1-.4 2.9-.4 1.6.3.6.3.9-1.3 1.9-1.2 1.9-1.3 2 1.1 1.6-.1 1.1-1.5 2.1-3 .6-1.9.8-.8 1.4-1.3 1.3v2.1l.7 1.1 1.1.8 1.2 1.1 1.3 1 1 .7.8.8.5 1.3.6 1.1-.1 1.5-1.3 1.6.3 1.4 1.2 1.2v1.4l1.2 1 .9.5-.2 2.5v1.9l-.4 1.7-.7.5.3 1 .4.8.3 1.5-1.4 1.1-1 1.2-.5.9.1.6-2.2.2-.6 1.5.6.9-.2 1.2 1.2.6 1.1.7-.4.9h-1.3l-1.2-.2-1.7.5-1.7 1.3-1-.4-2-.1-.7-.5-.8 1.8.9 1.7-1.5.4-1.7.9v2.8l.9 1.2.9 1 .5 1.8 1.1 1.4.8 1.1-1 2.8-1.3 2.4-1 2-2 2.4-.6 1.7.2 3H430.1s-1.3.1-1.5.2c-.2.1-1.2.5-1.2.5l.7 2.8-.1 2.2.6 1.5.5.9 1.6 4.2-.9 1.5-.9 1.3s-1.1 1.6-1.2 1.6c-.1 0-1.1.5-1.4 0-.3-.5-1-1.5-1-1.5l-.6-.2-.7.1-1 .9-2.4 1.5-1.4-.3s-.8-1.1-.9-1.3c-.1-.1-1.5-.6-1.5-.6l-.7 1.6-.4 2.8-1.6 1-.2.8v1.2l.2 1.4 2 1.8 1 1.6 1 .4 1.2 1.2.2 1.2 2 .8 1.2 3.2.4 2.4.2 1.6 1.4.6 1.4.6 1.2 1.2-1.2 1.6-.4 1.2.6 2.4 1.8.4 1.4.6 1 .2 2.4-.8 1.2-.6 1-.8 2 .6 1.4.2.6 1 1 .8.8.2 1.4.6.8.4 1.2 1.8.8.8 1.2 1.2 1.2.8 1.2.6v2l.8.6 1 1.2 1.6-.2 1.2.6.8-.6.6-.6 1 .8 1.2.2 1-.2.4-1-.2-3 .9-.9.3-.9.3-1 .4-.9.7-.6.9.4h1.2l1-.4.6-.4.3-.6.9-.7.1-.9.3-.7.9.4.3.6 1.3.3h.6l.7.3h.6l.7-.6.3-.6.6-.4.4.7.6.4.4.6.4.3 1.2.4 1 .5.9 1.3 1.5.9.6.7.1.9.6 1.2.4 1.3.6 1.5 1 .4 1.9-.4 1.2-.1 1.5.4 1 .9.9 1.2.4 1 .6.6 1 .4 1 .2.1.7.3.7.6.9.6.7.7-.7.4-.9h1.3l1.3-.1 1.6-.7 1.2-.1 1.2.7.3 1.2.7 1 .3.9 1 .3 1.2-.4.6-.6.9-.7 1.2-.9 1.3-.4 1 .4.9.1 1.2-.4 2.7-1.2 1.2-1.2 1-1.2.3-1.3.3-1.3.4-1.5.6-1.2.3-1.2.6-.7 1.2-.1 1-.3 1.8-.9 1.3-.9h1.6l1.2-.2 1.6-.4 1-.7.9-.4.9-.9.9.4 1.3-.3 1-.7.3-1-.2-.7.3-1 1-.6 1.3.4.6.6.7.7.7.6 1.6.4.9.2.4.6.9-.7.3-1.2-.1-1.9 1.5-.4 1 .6.7-1.2v-.7l.3-.7.4-.6.4-1.6.1-1.5.1-.7-.1-.9v-.7l.1-.9.4-.6.6-.9.4-1 .1-1.6-.1-.9-.4-.9-.6-.6-.3-1.6.1-1.2.1-.9v-1.2l-.1-1.6.9-1.2.7-1v-1l-.1-2.1-.1-2.5-.1-2.1-.1-2.4.3-2.4.4-1.6.9-1.5.4-1 1.3-.1 1.5.3h1l.9.1.6-.7.7-.9 1.5.3.7.4h1.2l.9.2 1 .9.4.7.6.9.3 1 .1 1v.7l-.3 1.2v1.9l-.2.7.3 2.5 1.3 1 1.2.6 1.3-.3.7-.5 1-.4.7.6s0 .3.3.6.6 1.5.6 1.5l.1.9v1.8l-.1 1.5.3 1 .6 1.3.7 1.5 1.2.5 1.3-1.5 1-.7.6.9.3.9.3.5.6.7.3.6.6.4 1.3.3h1l1.9.6.6 1v.7l.1 1.5.6.3 1 .1v.6l-.3 1v1.3l.3 1.3-.4.6-.6 1.2v1.6l.6 1.5.4 1.3.3 2.5.4 1.2 1.2 1.6 1.5.6h1.3l1.3-.1.6-1.9-.3-1.9 1-2.5.9-1.8.9-1.5.6-1.2.6-2.4.6-1 1.9-.4 1.2-.1.6-1 .4-.9.9-1.3v-1.5l.3-3.7.7-1.8.3-1.5.3-1.3.6-1.3.1-1.8.3-1.6-.4-2.4v-5l-.4-2.2.1-2.2.6-1.2h.9l1.2-.7.9-.6h1l.6.9.3 1.5.3.7.7 1.2.7.4.3.5 1 .6 1.5.4.6-.9v-.7l.7-.7.1-.7v-1.3l.9-.6 1-.1 1.2-.4.7-.3v.9l-.1.7.1 1 .4 1.2.9 1 1.2.7.5 1 .9.9 1.8.9.9-.6.3-1 .3-.4h.6l.7.1 11-31.6 10.4-13.4-3.5-2.6z"/>
</g>
<g id="text">
<path class="frames" d="M661.3 68.1l7.6-.5 2.5-4"/>
<text transform="translate(642.722 78.7)" class="st3 st4">
      N1
    </text>
<text transform="translate(675 72.946)" class="st3 st4">
      N2
    </text>
<text transform="translate(692.276 73.8)" class="st3 st4">
      N5
    </text>
<text transform="translate(669.195 95.707)" class="st3 st4">
      N4
    </text>
<text transform="translate(636.002 107.632)" class="st3 st4">
      N14
    </text>
<text transform="translate(673.948 127.623)" class="st3 st4">
      N17
    </text>
<text transform="translate(740.699 139.59)" class="st3 st4">
      N21
    </text>
<text transform="translate(722.134 106.32)" class="st3 st4">
      N20
    </text>
<text transform="translate(694.272 123.84)" class="st3 st4">
      N18
    </text>
<text transform="translate(702.72 113.33)" class="st3 st4">
      N19
    </text>
<text transform="translate(723.235 148.97)" class="st3 st4">
      N22
    </text>
<text transform="translate(705.28 134.723)" class="st3 st4">
      N23
    </text>
<text transform="translate(686.429 139.59)" class="st3 st4">
      N24
    </text>
<text transform="translate(684.284 153.843)" class="st3 st4">
      N25
    </text>
<text transform="translate(637.225 155.918)" class="st3 st4">
      N16
    </text>
<text transform="translate(661.683 152.942)" class="st3 st4">
      N13
    </text>
<text transform="translate(609.384 141.42)" class="st3 st4">
      N15
    </text>
<text transform="translate(704.052 82.045)" class="st3 st4">
      N6
    </text>
<text transform="translate(712.009 93.572)" class="st3 st4">
      N7
    </text>
<text transform="translate(698.55 99.014)" class="st3 st4">
      N8
    </text>
<text transform="translate(681.877 86.318)" class="st3 st4">
      N3
    </text>
<text transform="translate(685.16 97.464)" class="st3 st4">
      N9
    </text>
<text transform="translate(660.7 104.023)" class="st3 st4">
      N11
    </text>
<text transform="translate(683.08 107.453)" class="st3 st4">
      N10
    </text>
<text transform="translate(653.632 118.202)" class="st3 st4">
      N12
    </text>
<text transform="translate(623.311 236.695)" class="st3 st4">
      N27
    </text>
<text transform="translate(623.46 181.218)" class="st3 st4">
      N28
    </text>
<text transform="translate(650.09 188.588)" class="st3 st4">
      N26
    </text>
<text transform="translate(707.645 166.68)" class="st3 st4">
      N29
    </text>
<text transform="translate(723.235 188.588)" class="st3 st4">
      N30
    </text>
<text transform="translate(759.672 187.176)" class="st3 st4">
      N31
    </text>
<text transform="translate(742.72 206.153)" class="st3 st4">
      N32
    </text>
<text transform="translate(679.797 183.994)" class="st3 st4">
      N33
    </text>
<text transform="translate(664.88 219.588)" class="st3 st4">
      N34
    </text>
<text transform="translate(701.913 222.173)" class="st3 st4">
      N35
    </text>
<text transform="translate(597.407 196.717)" class="st3 st4">
      N36
    </text>
<text transform="translate(564.633 229.335)" class="st3 st4">
      N37
    </text>
<text transform="translate(560.144 292.545)" class="st3 st4">
      N38
    </text>
<text transform="translate(708.587 261.875)" class="st3 st4">
      N39
    </text>
<text transform="translate(669.654 286.47)" class="st3 st4">
      N40
    </text>
<text transform="translate(704.97 324.444)" class="st3 st4">
      N41
    </text>
<text transform="translate(623.46 337.99)" class="st3 st4">
      N42
    </text>
<text transform="translate(542.953 404.373)" class="st3 st4">
      N43
    </text>
<text transform="translate(710.58 448.38)" class="st3 st4">
      N44
    </text>
<text transform="translate(512.468 509.526)" class="st3 st4">
      N45
    </text>
</g>
</svg>