<svg xmlns="http://www.w3.org/2000/svg" version="1.1" viewbox="0 0 1240 640" preserveaspectratio="xMidYMid slice" id="svgP">
<g id="P19" class="small-box pas">
<path class="st1" d="M693.2 77.2l-1-.9v-4.6l-2.1-2.5v-.6l-.5-1.7-1.6.2-3.9-.3-1.5.4-2.2-.3-1.9.7-1.3-.3-1.9-.4-1.9 1-1.7.3.6 2.7.9.9-2.3-.4-3.9-.5-3.7-.9-3-1.5-3.8-3.1-2.8-1.9-2.8-1.2-3.5 1.3-.6.6-.7 1-.4 1.3-.4 3.7-.4 4 .4 4-.3 1.4.1 1.1 1.6 1.7.2 1.8.1 1.2 1.6-.1s1.1 2 1 2.4v.1l9.6-.4 2.6 2.5-.2 1.6-2.1-.1-.6-1.2-1.3 1.5 1.3 2.9 2 .6 2.1-.6 2.1 3.8 2.8.5 2.8-.9 6.7 1.3.3 1.6-.6 1.3 1.2.9s-.2 1.1-.2 1.3c0 .1 3.9.7 3.9.7l2.6 1.6h3.5l-.8-4.7 3.2-2.9 1.4-5.5.2-.9-.3-.1-.3-1.9 1.4-5.2 3.7-2.6c.1-.1 1.5-3.8-3.4-5.7z"/>
</g>
<g id="P25" class="small-box pas">
<path class="st1" d="M722.5 88.4l.6 2.6.9.6-.6 2 .4 5.7-3-.8-1.7.8-.6-.4-2.9.1-1 3.7 1.4 1.3 3.3 1.2-.3 1.6 1.8 1.6 3.1.7v2.3l2.7.4v1.4l-1.2 1.4.3.7 2.4-1.3-.4 1.3-1.3 2.5h-3l-1.1 1.5-1.9-1.5-1.9.9-.6 4 .3 1.1 1.2.2.4 1.4h.9l2.7 3.4h1.8l.7 2.7-3-.4v9.4l-1.7 3.1h-4.1c-4.8-.3-5.2 2-5.2 2s.2 2.5 0 2.5-1.1.9-1.1.9l-3-1-1.3-.4.9 5.2 3.9-.6v1.7l2.2-.2.4-.9 6 .2 4.1.4 3.3-1.2 7.9 10h2.7v2.6h1.2s1.3 3 1.3 3.3c0 .3 1.9-.1 1.9-.1l2.6 1.7 5.9-2.1 2.6-2.9 11.9-5.4v-.1l-.7-1-2.7-5.4-3.9-8.6-6-10.6-2.6-6.9-4.2-10.3-2.5-3.1-.5-1.7-.8-2.4-3.3-8.9-2.4-4.4-.5-.8-2.3-4.1-3.8-4.9-2.5-2.6-3.2 3-.9 1.9z"/>
</g>
<g id="P26" class="small-box bn">
<path class="st1" d="M725.3 128.7h-1.8l-2.7-3.4h-.9l-.4-1.4-1.2-.2.8 2.9s-2.2 1.4-4 .8c-1.7-.6-4.3-3.1-4.3-3.1l-2.2.4-1.1 1.4-2.7-.3-2.6 1.6-3.8-1.2v1.2l-3.6-.5-2.4-.8 1.1 2.9-.7 1.9.4.9-1.9.4-.8-1.3-1 1.8 1.2 1.1-.7 3.1-1.1.4-.6 1.6.4 1.9-4.7 1.5c.3 1 .4 2.1.4 3.1 0 2.8-2.6 12.2-3.1 14l3.3.9-1 1.3.3 1.1 1.7-.7 1.1 1-.5.9 4 2 3.4.3v1.8l1.5.2v-2.7l1.9.4v.9l2.4.3v-2.6l2.2 1.5.3-.2 2.1-1.2.9-1-.9-1.2.8-1.7-.8-5.2h2.3l.4-2.7.9-.1-.9-5.2 1.3.4 3 1s.9-.9 1.1-.9c.2 0 0-2.5 0-2.5s.4-2.3 5.2-2h4.1l1.7-3.1V131l3 .4-.8-2.7z"/>
</g>
<g id="P24" class="small-box pas">
<path class="st1" d="M725.7 115.2l-.3-.7 1.2-1.4v-1.4l-2.7-.4V109l-3.1-.7-1.8-1.6.3-1.6-3.3-1.2-1.4-1.3-.1.2-2.5.3-1.7-1.4.4-2h-1.4l-5.8 1.9-1.2 3.1h-2.7l-5.6 3.6-5.5-.3s3.3 9.1-10.1 12.6l-10.6-.7s-2.3.6-2.8 2.1c-.1.2-.1.4-.1.5 0 1.9 3.2 3.5 3.2 3.5s10.3 3 11 9.1c0 0 0 1.2 2 2.6 1.3.9 2.3 2.6 2.8 4.6l4.7-1.5-.4-1.9.6-1.6 1.1-.4.7-3.1-1.2-1.1 1-1.8.8 1.3 1.9-.4-.4-.9.7-1.9-1.1-2.9 2.4.8 3.6.5v-1.2l3.8 1.2 2.6-1.6 2.7.3 1.1-1.4 2.2-.4s2.6 2.5 4.3 3.1c1.7.6 4-.8 4-.8l-.8-2.9-.3-1.1.6-4 1.9-.9 1.9 1.5 1.1-1.5h3l1.3-2.5.4-1.3-2.4 1.3z"/>
</g>
<g id="P20" class="small-box pas">
<path class="st1" d="M723.2 91l-.6-2.6.7-2.3 3.2-3-1.5-1.8-3.7-2.8-2.2.2-3.3-1.6-1.6.8-5.3-2.6-5.1-2.5-6.3-3.2-4.9-3-2.8.3.5 1.7v.6l2.1 2.5v4.6l1 .9c4.8 1.8 3.5 5.6 3.5 5.6l-3.7 2.6-1.4 5.2.3 1.9.3.1.6.2 1.2-3 2-1 1.2-1.6.3 1.8 1.6.3 1-1.7 1.1 1.1.3-1.6 1.8.4-.7 3.1 1.4 4s1 .1 1.1.1c.1 0 0 1.2 0 1.2l3.9 2.3.8-.6 1.1.6-.2 1.4-.4 2 1.7 1.4 2.5-.3.1-.2 1-3.7 2.9-.1.6.4 1.7-.8 3 .8-.4-5.7.6-2-1-.4z"/>
</g>
<g id="P21" class="small-box pas">
<path class="st1" d="M709.9 97.7l-.8.6-3.9-2.3s.1-1.2 0-1.2-1.1-.1-1.1-.1l-1.4-4 .7-3.1-1.8-.4-.3 1.6-1.1-1.1-1 1.7-1.6-.3-.3-1.8-1.2 1.6-2 1-1.2 3-.6-.2-.2.9-1.4 5.5-3.2 2.9.8 4.7.2 1.3 5.5.3 5.6-3.6h2.7l1.2-3.1 5.8-1.9h1.4l.2-1.4-1-.6z"/>
</g>
<g id="P22" class="small-box pas">
<path class="st1" d="M629.3 119.1v1.7l1.7-1.1 1.4 5.4 2.9 1.1L665 122c.5-1.5 2.8-2.1 2.8-2.1l10.6.7c13.4-3.5 10.1-12.6 10.1-12.6l-.8-1.3h-3l-2.6-1.6s-4-.6-3.9-.7c0-.1.2-1.3.2-1.3l-1.2-.9.6-1.3-.3-1.6-6.7-1.3-2.8.9-2.8-.5-2.1-3.8-2.1.6-2-.6-1.3-2.9 1.3-1.5.6 1.2 2.1.1.2-1.6-2.6-2.5-9.6.4c-.3.6-1.7 2.8-1.7 2.8l-1.1 1.1s-.8-.3-.7.3c0 .6-.5 2.2-.5 2.2l-1 .6v.8l-.8.6-.6 2s-.6 1.1-.7 1.4c-.1.2-1.8 1.3-1.8 1.3l-.8 1.3-.6 2.3.2 1.1-1 .3-1 2.6-1.5.9-4.5 2.3-1.4 1.3-1.6 1.4v3.3l.7 1.4z"/>
</g>
<g id="P23" class="small-box pas">
<path class="st1" d="M683.9 142.3c-.5-2-1.5-3.7-2.8-4.6-2-1.4-2-2.6-2-2.6-.7-6-11-9.1-11-9.1s-3.2-1.7-3.2-3.5c0-.2 0-.4.1-.5l-29.7 4.1-2.9-1.1-1.4-5.4-1.7 1.1V119l-1-1.3v-3.3l-.4.3-.8 1.1-.1.3-.4 1.3-1.1-.4-1.5 1.2-1.4.2-1.3 1-.3 1-2.2 1.1-1.9.3-2 2.1-1.6 1.6-1.7 1.3-.1 2.5.7.9-.4 1.3-1.4.9-1.2 1 .2.6-2.2.6-.8 1.1-2.1 1.4-.8 1.4.8 1.2-1 1.2s-1.6.8 0 2.2l-.4 1.3-.5 1.3 1.7.7-2.8 2.6-3.4.5 1.1 1.1-.1 2.9-.2 1.8v.6s-4.2 2.5-.5 4.5l1.9 1.5.1.3 8-6.4 3.7-3 3.4.8 5.1 3.8 10.5 8h5.8l1.2 1.2 10.3-1.2 2.4-2 2.4 2 1-3.4h5.6v3.4h1.8l3.8-3.4 2 1.4v1.2h1.5l4.5 1.5v1.9l.9-.7 3 .9.1-.6 4.2-8.6s0-.1.1-.3c.5-1.8 3.1-11.1 3.1-14-.3-.3-.4-1.4-.7-2.4z"/>
</g>
<g id="P27" class="small-box bn">
<path class="st1" d="M674.9 177.9l1.4-6 .5-3.1-3-.9-.9.7v-1.9l-4.5-1.5h-1.5V164l-2-1.4-3.8 3.4h-1.8v-3.4h-5.6l-1 3.4-2.4-2-2.4 2-10.3 1.2-1.2-1.2h-5.8l-10.5-8-5.1-3.8-3.4-.8-3.7 3v8.3l4.6 10.1v4h4.3l1 2.7v5h8.7l.9 2.8-5.2 3.1v3.1l1.5 5.4-.8 1.1 1.5 2.7-1 .6 1.1 1.5-1.1 1.5-.1 1.8-2 4.3-4.7 2.7h-5.7l-1.4 1.5 1.8 1.5-.8 2h-1.7l-2.4 3.1 1.5 7.1 4.5 7.8-2.3 2.6-.6 6.1-2.3 1.3-2.6-1.3-1.3 1.3v3.8l1.9 3.3 2.8 1.3 2.2 7.3.9.6 1.1 3.7-1.8 2.6h-1l1.9 3.4 1-1.4h1.1l1.9 2v1.9l4-.7.8-.1 4.4 5.7 5-1.7v-5.5l3.2-2.9-2.2-2.7 3.6-1.3v-3.7l4.1-4.5 5.4 1.4 4-2v-2.9l2.4 1 1.3-1.5-1.5-7.9 3.1-.6 2.2-4.6-2.1-8c-1.1-9.7 6.5-8 6.5-8 3.9 1.9 5.5 1.5 5.5 1.5 2.6-2.4.9-6.7 0-7.7-.8-1-.7-1.8-.7-1.8 3.7-5.9 1.1-10.9 1.1-10.9l1.4-3.6.8-6.1 3.6-2.6c3.4-1.4 3.1-4.8 1-6.7-2.1-2-.8-3.4-.8-3.4l1-1.8c7.4-2.5 2.5-7.1 2.5-7.1z"/>
</g>
<g id="P28" class="small-box pas">
<path class="st1" d="M781.6 177.3l-3.4-3.2.1 2.2-2.8.4-1.5-1.3 2.7-.9-.8-1.5-2.8-3-2.6-2.8-3.3-5-2-3.2-11.9 5.4-2.6 2.9-5.9 2.1-2.6-1.7s-1.9.3-1.9.1c0-.3-1.3-3.3-1.3-3.3h-1.2V162h-2.7l-7.9-10-3.3 1.2-4.1-.4-6-.2-.4.9-2.2.2V152l-3.9.6-.9.1-.4 2.7h-2.3l.8 5.2-.8 1.7.9 1.2-.9 1-2.1 1.2.4 1.5 4.5 2.1 1 2.8-.4 2.5s-4.4 1.5.4 11.4l-1 1.6v2.8l4.4 4 1.2-.3-.6-1 2-1.2.8 1.3v2.8l-.8 1-.3 3.8h3v2.2l1.2 1.8-1.2.6v2.6l1.2.9h3l1 2.1 1.2-.9 2.5-.4 1.2 1.7 1.2-.9 1.5.3v1.1h1.5l1.2-2 1.4.2 2.9 3 .9-1.5-1.5-2.9.6-1.4-1.1-2 3.9-2 1.6 1.3 2.7-1.2v4.4l-2-.2.8 1.3.2 2.6 1-2.2.8.5.8-1.1 1.1 1.2-.9 3.6 2.3-.5.5-1.8 1.8-.1 3 1.8 1.3-1.6-1.7.3 1.5-.7.6.3 1-.7 5.4-3.7 2.3-2.2 3-1.9 7.7-8 3.3-3.4 2.2-2.9 5.5-6.1 1.2-1.3-4.2-3.7z"/>
</g>
<g id="P29" class="small-box bn">
<path class="st1" d="M749.6 211.2l-1.8.1-.5 1.8-2.3.5.9-3.6-1.1-1.2-.8 1.1-.8-.5-1 2.2-.2-2.6-.8-1.3 2 .2v-4.4l-2.7 1.2-1.6-1.3-3.9 2 1.1 2-.6 1.4 1.5 2.9-.9 1.5-2.9-3-1.4-.2-1.2 2h-1.5v-1.1l-1.5-.3-1.2.9-1.2-1.7-2.5.4-1.2.9-1-2.1h-3l-1.2-.9v-2.6l1.2-.6-1.2-1.8v-2.2h-3l.3-3.8.8-1v-2.8l-.8-1.3-2 1.2.6 1-1.2.3-4.4-4v-2.8l1-1.6c-4.9-9.9-.4-11.4-.4-11.4l.4-2.5-1-2.8-4.5-2.1-.4-1.5-.3.2-2.2-1.5v2.6l-2.4-.3v-.8l-1.9-.4v2.7l-1.5-.2v-1.8l-3.4-.3-4-2 .5-.9-1.1-1-1.7.7-.3-1.1 1-1.3-3.3-.9c-.1.2-.1.3-.1.3l-4.2 8.6-.1.6-.5 3.1-1.4 6s4.8 4.6-2.6 7.1l-1 1.8s-1.4 1.4.8 3.4c2.1 2 2.4 5.3-1 6.7l-3.6 2.6-.8 6.1-1.4 3.6s2.6 5-1.1 10.9c0 0-.2.8.7 1.8.9 1 2.6 5.4 0 7.7 0 0-1.6.4-5.5-1.5 0 0-7.6-1.7-6.5 8l2.1 8v.1l2.9 4.5 8-5.2 3.7.1-.7-2.6 1.5-.1.9 3.7 1.9 3.2 3.1-2.8 4.2.9-.1-1.7h-1.1l-.3-1.9 2.5.8 1-1.5-.9-1.2-.9.7v-2.5l-1.8-3.3 9.4 1.5.7 1.1 1.1-1.1 4.4-2 1.6.4-.3 2.8 10 2.1 1.4-.4v-.8l2.6-2.8 3.7 1.1s2-3.7 6.4-1.4l2.6 1.6.9-2.4s2-1.3 3.1.7h1.7l2.2-.2 2.4-1.5 1.3-2.8s2.1 1.2 4.3.2l-.2-.8-.2-1.7 1.2-1.2s1.9-1.9 2.5-1.8l1.5.3 1.2-2.8.9-1.8 1.6-1.2 1.2-1.2.7-.1 1-2.1 1.8-2.2.7-1.2.5-.6-3.1-2z"/>
</g>
<g id="P30" class="small-box bn">
<path class="st1" d="M624.3 204.5l-1.5-2.7.8-1.1-1.5-5.4v-3.1l5.2-3.1-.9-2.8h-8.7v-5l-1-2.7h-4.3v-4l-4.6-10.1v-8.3l-8 6.4.7 2.6.4 1.4.7 1.3.5 2.2.8 1.2-.2 1.3-.3.9-.5 1.2-1.5.3-1.5 1.4-2 1.5-2.2 2-1.4 1.2-1.4.4-1-.1-3.2.2-1.6.5-.8 1.1-.3 1-1.6.4-.5 2.2.1 1.6.6 1.6-.1.9-1.9 2.5-1.9-.1-1.6.4-.2 1.2.9 1.1-.1.9H575l-2.2.3-1.1.2-.3-.4-1.8.9-.1 1-2 2.9-1.2 2.9-1 1.3-.6.9.7 1.2.5 1.2-.1 2.1-.8 1.5v.9l-.5.8-1-.1-1-1.6-.9-.7-1-.5c-.1-.1-1.6-.9-1.6-.9l-.7-1-1.9-.2-4.7-5.1-1-1.5.6-1.8-.7-2.4-1.6-1-1.2-.8-1.9-1.2-1.9-.3-1.7 1-2.1 2.8-3.6-.2s-1.2.5-1.3.6l-.8.8-.3-1.4-.6-.7-.3 2.7-.2 2.2-1.4 2.2-1.3 1.6-.4 1.4-1.8.4-1.9-.4-1.3-.5.8 7.2-.5 1.1-.7.8-.1 1.2.8.8-.1 1.3v.3l.1.9.3.9.3 1.3-.6.9-1.7 1.7-1.2 1.3-1.9 1.2-.6 1.1-1.6 2.3-1 1.4s-1 .5-1.2.4c-.2-.1-.9.2-.9.2l-.2 1.3.1 1.1-.1 1 .2 1.8-.6 1.8.4 1.1.3.9.9.6-.1 1.1-.8 1.2-1.1 2.8v1.9l.7 1.5.5 1.2 1 .4 1.8.4 1 .7 1.5.8.5.9.2.6.9.3.9.6.1 1.2-1 1.4-.6.7-.5 2.2-.2.9.1.9-.5 1.1-1 1s-1.2 1.9-.2 2.5l.1.6-.8 1.1-.5.4h-.8l-.9.8.3.9-.2.7-.8 1.2-1 1.1-.8 1.2.3 1 .9 1.4s.6 2.3 2.8 1.2l2.4-.5 1.4 1 1.3 1.1 1.7.8.9.8 1.3-.7 1-1.6 1.8-.8 1.3-.7 1.3-.2 1.6-.1.4 1.9 1 1.9 1.2.6.9-1.4 1-.9 1-.7.7-.2 1.1 1.1.4 1.2.5 2 .4 2.1v1.1l-.4 1.8v1l-.8 1.2-2 2.5-.7 1.1-.2 1.3 1.1 1.4v1.6l.1 2.3.2 2.3.2 2.1.8.9v1.4l-.7 2.5-.7 2.3.6 2.2-.1.4 34.6 13.6 16 1.5 14.6-20.2 1.1 1.1 6.8-8.3h-5.7V301h8.9l1-1.4-1-3.6 1.7-.8v-4.5l-1.7-1.5.9-5.7 1.8-5.6-4 .7v-1.9l-1.9-2H612l-1 1.4-1.9-3.4h1l1.8-2.6-1.1-3.7-.9-.6-2.2-7.3-2.8-1.3-1.9-3.3V250l1.3-1.3 2.6 1.3 2.3-1.3.6-6.1 2.3-2.6-4.5-7.8-1.5-7.1 2.4-3.1h1.7l.8-2-1.8-1.5 1.4-1.5h5.7l4.7-2.7 2-4.3.1-1.8 1.1-1.5-1.1-1.5 1.2-.7z"/>
</g>
<g id="P31" class="small-box pas">
<path class="st1" d="M756.4 328.9l-.4-1.9-3.1-.9-1.6-1.8-.3-1.5-1.5-.7.3-2.1-1.6.3-2.2-2.2-1.3.3-3.3-3.3-.3-1-.7.3-1.9-3.1.3-2.5 2.5.1.9-1.2 1.2-1.3 1-1.8-1.3-2.5.4-4.2-1-1.5-.4-.9-1.6-1.3.3-3 .3-2.1.6-1.9-.9-1.5-.6-1.5-.9-1s-2.8-1.6-.3-3.4l2.2-.1 1.5-1.3 1-1.9.3-1.3s-1.6-2.2 1.9-1.9c0 0 .6-1-.7-3.4l-2.4-10.6.3-2.2.6-2.5.6-2.2-2.1-1.8-.3-2.1-1.2-1.8v-1.9l-1-3.3V234l-1.3-2.1v-.2c-2.3 1-4.3-.2-4.3-.2l-1.3 2.8-2.4 1.5-2.2.2h-1.7c-1.1-2-3.1-.7-3.1-.7l-.9 2.4-2.6-1.6c-4.4-2.3-6.4 1.4-6.4 1.4l-3.7-1.1-2.6 2.8v.8l-1.4.4-10-2.1.3-2.8-1.6-.4-4.4 2-1.1 1.1-.7-1.1-9.4-1.5 1.8 3.3v2.5l.9-.7.9 1.2-1 1.5-2.5-.8.3 1.9h1.1l.1 1.7-4.2-.9-3.1 2.8-1.9-3.2-.9-3.7-1.5.1.7 2.6-3.7-.1-8 5.2-2.9-4.5v-.1l-2.2 4.6-3.1.6 1.5 7.9-1.3 1.5-2.4-1v2.9l-4 2-5.4-1.4-4.1 4.5v3.7l-3.6 1.3 2.2 2.7-3.2 2.9v5.5l-5 1.7-4.4-5.7-.8.1-1.8 5.6-.9 5.7 1.7 1.5v4.5l-1.7.8 1 3.6-1 1.4h-8.9v6.4h5.7l-6.8 8.3-1.1-1.1-14.6 20.2-16-1.5-34.6-13.6-.1.6 13.8 10.7 10.8 21.7 19.3 6.8 39.7 22.7v1.8l20.7 3.4h19l-2.6-24.5 38.2.9 11.1-.9 17.7-12.4 20.6-1.2.2-.6.7-1.5.6-2.7s0-2.4 1-2.4c0 0 2.4.6.9-4.6l.3-1.9-.1-2.2-.1-1.3 2.2-1.2 2.3-2.3z"/>
</g>
<g id="P32" class="small-box bn">
<path class="st1" d="M825.1 505.2l-1.2-2.5-.1-2.4-2.7-3.3-1.3-.7-.4-2.4.9-2.8 1.5-2.7-1-2.1-1.8-.1-1.5-.6-1.3-1.5-1.6.3-2.4-2.1h-2.1l-2.7-3.6-1.2-.6s-1.9 1.5-3.7-.4l-1.8-2.4-4-3.4s-3.4-.4-4.3-1.3l-3-.4s-4-3.1-4.9.7c0 0-1.5 2.7-4.2-.4l-3.1-.4-.1-1.6.6-1.5.3-1.3 1-1.3-.4-4.8s1.3-1.9 2.2-1.9l-.9-1.6-.4-2.1 1.6-2.2-2.7-2.4-1.9-3.1-1.9-3.7.1-3s-.7-2.5 2.1-2.2l1.3-.7 1-1.5 1.5-3-1-1.3-.3-2.7-1.8-1 .3-1.9.9-1.9-1.6-1.8-.6-3-1.9-1 .3-1.3.9-1.8 1.3-.6h1.9l1.3-1.5.1-2.2 1.6-1.5 1.3-1.6-3.6-3.6-.7-1.8-5.2-2.1-3.1-1.3-1.3-3.3-2.5-1.8s-.7-2.1-2.5-2.4l-1.8-2.1-1-.6-1.5.6-3.3-.7-1.2-2.1-3-.4-2.2-.3-2.2-.3-1.5-1.2 1.2-1.8 1.3-1.8 1.3-4.5-.4-2.1-1.2-1.9s-1-2.7 0-6.8l-.4-2.7.4-3.7.4-1.5-1-2.5s1.3-2.8 0-4l.3-.8-20.6 1.2-17.7 12.4-11.1.9-38.2-.9 2.6 24.5h-19l-20.7-3.4v-1.8l-39.7-22.7-19.3-6.8-10.9-22.3-13.8-10.7-.1.5.6 1.4.7 1.8 1.8.8.4 1.2-1.2.9-1.4 1.5-.7 1.6-1.7 1.6-2.1.2-1.9.7-.8 1.3-1.5-.1-1.8.7-1.9 1.3-.5.9-.8.8-1.5.2-3.7-.4-1.7.6-1.2 1.6-.9.4-2.2-2.5-1.6-.9-1.2-1.2-1.6-.7-2.7 1.3-2.8-.8-1.6-1.9-1.5-1-1.3.7-2.4.2-1.2.9-.3 1.4-.8 1.3-1.5 1.4-1.2-.1-.8.4-1.3-.6-1.7.4-1.4.9-.3 5-.5 2.2s-2 1.1-.3 2.1l.4 1.5-1 1.2-1.6.3-.8-.7-1 1.4-1.3 1.1-1.5.2-.9 1.2.3 1.8-.7 2-1.4 1-1.5.2-1.3-1-.6-1.4-1.2-.4-1.3.5-.2 1.3-.4 2.2v1.2l.4 3.6-2.5 1.9-1.1 1.6.6 2.1.8 1.9v1.2l-1.6 3.1-.1 2.1-1.7 1.7-1.3.9-1.4.1-.7 2.6-.5 1.6-1.4.7-.5.6.6 1.3 1 1.4-.8 1.4-1.4.7-.7 2 .4 1.8 1.1 1.7-.3 3.4-.5 2-1.3 3.2v1.8l.2 1.1 1.5 1.8.1 1.4-1.5 1.2-1.7 1.6-1.8.3-1.6 2.9v1.6l.5.9-.3 1.4-.7 1.1-.4 2.9-.4 1.6.3.6.3.9-1.3 1.9-1.2 1.9-1.3 2 1.1 1.6-.1 1.1-1.5 2.1-3 .6-1.9.8-.8 1.4-1.3 1.3v2.1l.7 1.1 1.1.8 1.2 1.1 1.3 1 1 .7.8.8.5 1.3.6 1.1-.3.9-1.3 1.6.3 1.4 1.2 1.2v1.4l1.2 1 .9.5-.2 2.5v1.9l-.4 1.7-.7.5.3 1 .4.8.3 1.5-1.4 1.1-1 1.2-.5.9.1.6-2.2.2-.6 1.5.6.9-.2 1.2 1.2.6 1.1.7-.4.9h-1.3l-1.2-.2-1.7.5-1.7 1.3-1-.4-2-.1-.7-.5-.8 1.8.9 1.7-1.5.4-1.7.9v2.8l.9 1.2.9 1 .5 1.8 1.1 1.4.8 1.1-1 2.8-1.3 2.4-1 2-2 2.4-.6 1.7.2 3H430.4s-1.3.1-1.5.2c-.2.1-1.2.5-1.2.5l.7 2.8-.1 2.2.6 1.5.5.9 1.6 4.2-.9 1.5-.9 1.3s-1.1 1.6-1.2 1.6c-.1 0-1.1.5-1.4 0-.3-.5-1-1.5-1-1.5l-.6-.2-.7.1-1 .9-2.4 1.5-1.4-.3s-.8-1.1-.9-1.3c-.1-.1-1.5-.6-1.5-.6l-.7 1.6-.4 2.8-1.6 1-.2.8v1.2l.2 1.4 2 1.8 1 1.6 1 .4 1.2 1.2.2 1.2 2 .8 1.2 3.2.4 2.4.2 1.6 1.4.6 1.4.6 1.2 1.2-1.2 1.6-.4 1.2.6 2.4 1.8.4 1.4.6 1 .2 2.4-.8 1.2-.6 1-.8 2 .6 1.4.2.6 1 1 .8.8.2 1.4.6.8.4 1.2 1.8.8.8 1.2 1.2 1.2.8 1.2.6v2l.8.6 1 1.2 1.6-.2 1.2.6.8-.6.6-.6 1 .8 1.2.2 1-.2.4-1-.2-3 .9-.9.3-.9.3-1 .4-.9.7-.6.9.4h1.2l1-.4.6-.4.3-.6.9-.7.1-.9.3-.7.9.4.3.6 1.3.3h.6l.7.3h.6l.7-.6.3-.6.6-.4.4.7.6.4.4.6.4.3 1.2.4 1 .4.9 1.3 1.5.9.6.7.1.9.6 1.2.4 1.3.6 1.5 1 .4 1.9-.4 1.2-.1 1.5.4 1 .9.9 1.2.4 1 .6.6 1 .4 1 .2.1.7.3.7.6.9.6.7.7-.7.4-.9h1.3l1.3-.1 1.6-.7 1.2-.1 1.2.7.3 1.2.7 1 .3.9 1 .3 1.2-.4.6-.6.9-.7 1.2-.9 1.3-.4 1 .4.9.1 1.2-.4 2.7-1.2 1.2-1.2 1-1.2.3-1.3.3-1.3.4-1.5.6-1.2.3-1.2.6-.7 1.2-.1 1-.3 1.8-.9 1.3-.9h1.6l1.2-.2 1.6-.4 1-.7.9-.4.9-.9.9.4 1.3-.3 1-.7.3-1-.2-.7.3-1 1-.6 1.3.4.6.6.7.7.7.6 1.6.4.9.2.4.6.9-.7.3-1.2-.1-1.9 1.5-.4 1 .6.7-1.2v-.7l.3-.7.4-.6.4-1.6.1-1.5.1-.7-.1-.9v-.7l.1-.9.4-.6.6-.9.4-1 .1-1.6-.1-.9-.4-.9-.6-.6.9-1.1.1-1.2.1-.9v-1.2l-.1-1.6.9-1.2.7-1v-1l-.1-2.1-.1-2.5-.1-2.1-.1-2.4.3-2.4.4-1.6.9-1.5.4-1 1.3-.1 1.5.3h1l.9.1.6-.7.7-.9 1.5.3.7.4h1.2l.9.2 1 .9.4.7.6.9.3 1 .1 1v.7l-.3 1.2v1.9l-.2.7.3 2.5 1.3 1 1.2.6 1.3-.3.7-.4 1-.4.7.6s0 .3.3.6.6 1.5.6 1.5l.1.9v1.8l-.1 1.5.3 1 .6 1.3.7 1.5 1.2.4 1.3-1.5 1-.7.6.9.3.9.3.4.6.7.3.6.6.4 1.3.3h1l1.9.6.6 1v.7l.1 1.5.6.3 1 .1v.6l-.3 1v1.3l.3 1.3-.4.6-.6 1.2v1.6l.6 1.5.4 1.3.3 2.5.4 1.2 1.2 1.6 1.5.6h1.3l1.3-.1.6-1.9-.3-1.9 1-2.5.9-1.8.9-1.5.6-1.2.6-2.4.6-1 1.9-.4 1.2-.1.6-1 .4-.9.9-1.3V539l.3-3.7.7-1.8.3-1.5.3-1.3.6-1.3.1-1.8.3-1.6-.4-2.4v-5l-.4-2.2.1-2.2.6-1.2h.9l1.2-.7.9-.6h1l.6.9.3 1.5.3.7.7 1.2.7.4.3.5 1 .6 1.5.4.6-.9v-.7l.7-.7.1-.7v-1.3l.9-.6 1-.1 1.2-.4.7-.3v.9l-.1.7.1 1 .4 1.2.9 1 1.2.7.4 1 .9.9 1.8.9.9-.6.3-1 .3-.4h.6l.9.1.4.5.3.4.1.6.3.6.6.5.7.3 1.3.1.7.9 1.2.6.9-.7.4-1.8.9-1.3 1.5-1.2.4.6.7.7 1.6-.7 1.8-1.2 1.9-1.2 1.2-.7 1.5-.6.6-.6.7-.6 1.6-.1 1-.1 1.6-.3 1.6-.6s1.5.3 1.5 1l.3 1.3.3.6.2.4.3.9.6 1 .7.9.1.9-.3 2.2v2.8l.9 1 1.5 1.8 1.6.9 1.5 1 2.8 1.6 1.3 1.8 1.2 1.3.6.9.7.9 1.5 1.3 1.3 1.3s.7 1.5.3 2.2l-.4 2.1.9 1 1.8.6.6.4.9.7.7 1 1.2 1.2 1.2 1.8 1.9 1 1.5.7 1.2.3 1.3 1s2.4 1.2 4.2-.4l1.8-.3-.3-1-1.3-1.6v-1l.4-1 1.3-.7 1.9-.4 2.7-1.5 1.5-.1 1.5.1h1l1.6-.9 1.5-.7 1.2.9 1.3.3 1.3.9 1 .9 1.3.7 1.5.7 1.6 1 1.5.4 1.2.6 1.2.6.4.3h1.9l1.3-.4 2.4-1.3s2.1 2.5 1.9-.7l.9-2.8 1.8-1.5 1.6-1.3 1.2-1.3s.9-.4 1.2-1.8l1.2-1.9s3-2.4-.1-4.2l-2.5-1.6 1.5-2.2 1.8-1.5 1.2-.1 2.2-.4 1.6-.3h1.9l1.5.4 1 .1 1.2-.9s2.5-.9 4.9.1c0 0 3.1 1.9 4.9.7l1.2-.4 1.9.1 1.5.7.7.7.7.4.3.7v.9l.6.7 2.1 1.2 1 1 1.5.6 1.3 1.3 1 .4 1.5.9 1 .6.9 1.3 2.4 1.6 1.2.1h1.3l1.5-.1.6-.9 1.3-.7 1.5-.3.7-.1.7-1.6 1.8-1.9 1.3-1 1.2-1.3.6-3.1.6-1h1.5l1.3 1 .9 1 1.2 1 1 .9 1 .9.9.7.9-.9 1.9-.6 1.2.6.7.7 1 .6 1.3.4 1.8.1.4-1.2.3-1.2.4-1.3-.7-4.5.1-1.9-.1-1.8-.4-1.2-1.3-1.2-.4-1.5.6-.9.1-1.5.6-1.3.9-.9.6-.9-.4-1.8-.7-1.8 1.9-2.5 2.7-.4 2.4.9 1.9 1.3 1.9 1.6 4 .9 1.9.6.6-.1 1.5-2.4 1.2-3.4 1.8-1z"/>
</g>
<g id="text">
<text transform="translate(667.71 91.823)" class="st2 st3">
      P19
    </text>
<text transform="translate(731.742 142.335)" class="st2 st3">
      P25
    </text>
<text transform="translate(692.35 145.948)" class="st2 st3">
      P26
    </text>
<text transform="translate(696.913 118.199)" class="st2 st3">
      P24
    </text>
<text transform="translate(702.648 87.179)" class="st2 st3">
      P20
    </text>
<text transform="translate(687.518 103.048)" class="st2 st3">
      P21
    </text>
<text transform="translate(644.867 118.199)" class="st2 st3">
      P22
    </text>
<text transform="translate(635.94 142.335)" class="st2 st3">
      P23
    </text>
<text transform="translate(635.94 218.447)" class="st2 st3">
      P27
    </text>
<text transform="translate(731.742 180.737)" class="st2 st3">
      P28
    </text>
<text transform="translate(689.662 211.012)" class="st2 st3">
      P29
    </text>
<text transform="translate(559.028 258.604)" class="st2 st3">
      P30
    </text>
<text transform="translate(670.71 309.177)" class="st2 st3">
      P31
    </text>
<text transform="translate(627.233 428.653)" class="st2 st3">
      P32
    </text>
</g>
</svg>