<svg xmlns="http://www.w3.org/2000/svg" version="1.1" viewbox="0 0 1240 650" preserveaspectratio="xMidYMid slice" id="svgP">
<g id="P134" class="small-box bn">
<path class="st1" d="M423.2 334.8l1.7-2.3 7.6.9v1.9l5.8-.7 2.1 3.5 3.3.7 1.2-2.8 2.9-1.5c2.4-2.1 6.6-.9 6.6-.9l3.5-5.5 13 5.5.9-2.8-3.1-9.8 7.8-2.4h5.4v-4.1l1.7-.8 1.7 3.5 20.2-5.8 6.6 2.3 1.1-4.4h5.2l-1.1-3.2-2.5-.9h-6.6l-.4-9 4.7-1.7-.5-8.6-2.3-3.6-1.6-7.8-2.8-6.8-3.3-7.7 3.6-3.6-3.6-14.6 1.6-1.1v-6.4l8.6-.9 6 2.3 1.6-4.4-4 .9V228l2.7-3.1h1.7l1.2-2-2.2-.7v-3.6h1.8l-.5-5.1-2.4-4.6 6.6-6.7-2.1-5.4 1.2-4.8-2-.8-1.1-4.8-3.7-1.5 2.3-2.8 1.7-11.4 11.4-2.3 10.3-5.2v-6.6l-3.6-5.1-1.6-.8-.8-3.5h-3.3l3-7h-3l1.7-2.8V132l2.4-.7-1.2-3.3h-1.6s-2.2-2.2-3.4-3c-1.1-.7-3.7 0-6.3-3-2.6-3-3-5.2-7.4-7.1-4.5-1.9-9.3-3-10.4-6l-35.5 39.8-4.3 4.9s-10.8-2.2-14.5-3.3c-2-.6-2.3-2.4-8.1-.8-5.1 1.4-14.4 5.2-32.8 14.6 0 0-2.2-9.3-14.2-8.9-.9 0-2.1 0-3.1-.6-.7-.5-.9-1.8-1.6-2-2.8-.8-5.5-1.4-8.5-.8-2.5.5-3.8 3-3.7 5.5-1-.1.1 1.2-.7 1.1 0 .5-.1 1.2.1 1.4 1.3.7 2.7 2 2.1 3.5-.2.6-.6.6-1 1.2-.7.8-1.7 1.7-1.1 2.9.7 1.3 2 2.9 3.6 1.9.6.8 1.7 0 2.2.8.2.3-.1.5-.3.7-.6.7-1.6.7-2.2 1.2-1.2 1-.1 2.3 1 3 .1.1.1.4 0 .7-.3.9-1.7.7-1.8 1.9-1.1-.1-1.5 1.7-2.5 1-.4-.3-1-.4-1.2-.5-2.2-.6-4.4-.7-6.6-.1-.5.2-1.2.6-1.4 1-.3.7-.4 1.5-.8 2.2-.2.3 0 .7-.1 1.1-.1.3-.4.5-.7.4-.4 2.4.7 4.3 1.7 6.4.5 1 .3 2.4-.4 3.2-.2.2-.7.3-.6.8-2.2.1-4.2-.5-6.4-1-.8-.2-1.5-.1-2.3 0-.7.1-1.5.4-2.2.6-.7.3-.2-.4-.7 0-.8-1.9-2.8-2.9-4-4.6-.3-.4-.9-.7-.9-1.4.1-1.5-.8-3-.3-4.4.4-1.4 1.7-2.3 2.9-3 .6-.3-.5-.8.2-1.3.6-.4.2-1.8-.4-2.3-.6-.5-1.6-.9-2.5-.1-.3-.5-.3 1-.8 1.1-.1-1-.4-.6-.8-1.5-.3-.8-1-1.7-2.1-1.9-.7-.1-1.7-.3-2.1.1-.6.6-1.5 1-1.9 1.8-1.8 3.7-1.2 5.5-1.7 9.4-.9 2.8-2.3 3.3-3.6 4.9-.7.8-1.7 1.9-2.1 2.7-.4.7-2.2 1.8-2.1 2.7-2.5 1.3-2.5 6.1-5.1 7.3-1.1 2.1-2.8 3-4.2 4.8-2.6.5-5.4-.3-7.3 1.5-.4.4-.7.3-1.1.4-.3 0-.5.3-.4.7-1.1.1-1.6 1.2-2.6 1.6-.5.2-1.9 2.2-2.4 2.5-.5.3-1.4 1.1-1.9 1.2-.7.2-2.3 1-3 1.2 0 0-7.9-1.9-13.9 6.4-.3.4-1.3 1.9-1.5 2.1-1 .9-1.1 2-2 2-2.2 0-4.6-1-6.6-.2-2.3 1-4.8 2.6-3.8 5.7 4.2 1.7 3.7 6.7 4.5 10.4 3.9 3.6 9.8 3.9 14.9 4.3.3 0 .9-1 1.4-.5 1.1 1.3 2.8 1.5 4.1 2.6 1.4 1.2 3.5 2.3 5.7 2.5-.2-1.5 1.9-2.1 1.5-3.7 5.8 0 12.1.7 17.3 3.4 2.5 1.3 4.9 3 8 3.4.6.1.7.8.9 1.3.4 1 1.8.7 2.8.9.6.1 1 .7.8 1.4 5.4.9 8.5 5.8 12.7 8.9-.6 1.7 2 2.1 1.5 3.7.2-1 1-1.9 1.5-2 2.7-.5 4 2 6.1 3.1 1.8.9 3.6 1.3 5.5 2 1.3.5 1.2 0 3.6 1.5 2.1 1.3 2.4 1.5 4.8 4.5 2.1.9 1.7 2.8 3.6 3.9.4.2 1.3 2.3 1.5 2.6 1.2 1 .9 2.8 3 3.8.1 0 .1.3.1.5v.8c.2.6.7 1 1.4.8-.1 2.1 2 3.2 1.5 5.2 3.6 2 2.7 6.9 4.8 9.4.4.5-.2 2.2 1.2 1.7-.1 4.9 1.9 9.2 1.7 14.2 0 .8.7 2.2 1.4 2.7 2.2 1.6 4.6 2.7 6.7 4.5 1.8 1.5 4.3.9 6.6.9-.1.7.1 1.1.5 1.3.2.2.6.2 1 .2l9.1-.2.9 2.7z"/>
</g>
<g id="P135" class="small-box ppbm">
<path class="st1" d="M948.3 199.4c-4.1-1.5-3.4-.8-4.6-1.1-3.9-.9-15.6-2.1-19.7-3.6s-59.4-20-73.9-23.3c-14.5-3.4-64.3-16.8-66.9-17.6l.3-11.2s-25.3-11.2-73.3-24.4c-.1 0-.2-.1-.3-.1 0 0-37.2 9.7-50.3 11.2l-42.1 21.8s-1.3 1-6.6.3c-1-.1-2.1-.3-3.4-.6-2.2-.4-6.5-.8-9.7-1.5-14.5-3.3-31.3-5-32.9-5.8l-17.1-11.9s-2.7 0-3.8-.7c-1.1-.7-4.6-2.5-4.6-2.5h-3.3l1.2 3.3-2.4.7v5.4l-1.7 2.8h3l-3 7h3.3l.8 3.5 1.6.8 3.6 5.1v6.6l-10.3 5.2-11.4 2.3-1.7 11.4-2.3 2.8 3.7 1.5 1.1 4.8 2 .8-1.2 4.8 2.1 5.4-6.6 6.7 2.4 4.6.5 5.1H519v3.6l2.2.7-1.2 2h-1.7l-2.7 3.1v4.2l4-.9-1.6 4.4-6-2.3-8.6.9v6.4l-1.6 1.1 3.6 14.6-3.4 3.2 3.2 7.6 2.8 6.8 1.6 7.8 2.3 3.6.5 8.6-4.7 1.7.4 9h6.6l2.5.9 1.1 3.2h6.9l-1.5-3.1 15.3-2.5 8.7 9.6 5.2-2.5 4.1 3.2-1 3.4 3.9 1.9 3.2 5.3 5.4 2.5 2.8-2.5-1.6-2.4 3-7.8s-3.7-3.8-3.5-3.8c.2 0 3.9-1.8 3.9-1.8v-6l-2.3-1.7 1.2-1.2-5.1-.5 3.6-6.5-1.3-2.6 3-3.5-.1-5.6 9.3 7 3.5-2.6 2.7 2.7 5.6 1.7-1.7 7.6-2.8 5.4.6 1.8 1.3 1 .2 8.7 5.4 2.2 2.4 4.7-3 3.8-.3 2.7-4 4.1-5 7.9-11.3 6.9 16.5 8.7.2-.2 1.9.6 2-2.1c2.4 1 .9-1.4.9-1.4l1-1.1 2 1.9 1-3h4.8l-2.6-1.2 2.6-5.2 7.7 1.6 1.4-4.2 12.6-3 7.7-2.8 9.8-1.2 8.5 6 19.8 2-.3.2s3.7-1.5 4.3-6.5l6.8-27.3 2-.7 1.3-11.5h-.9l.9-3.2-1.2-.5.4-1.6h2l.8-2.5-2.8-1.7 1.5-5.6 2 .9 6.6-16.9-2.1-3.7-2.1-.6 2-7.4 8.6-2.9-3.3-12.7 1.1-3.9h2.3l1.6-2.7 4.3.8 2.9 3.9 5-1.2 4.4 2 3-.5 3.6 1.5 3.7-1.9 1.7 1.1 1.5-2.1 3.6-3.5 1.7 1.6 1.6 8s18.5-.9 32.7 10.6l7.1-.1 4.4 1.7 56.5 4.6-3.6-11.4 13-2.9 1.9-5.5 3.1 1.6 2.3-.8 2.9.9s1.3-4.3 4.7.3l-.8 1.3s4-.1 4.8 2.4l2.5 5.1 5 2.8s5.2 2.2 11.8-5.6l5-2c0-.4.1-.9.1-1.2v-1.1c3.9-3 .3-4.2.3-4.2-2.7-2.7 1.2-5.8 1.2-5.8.3-6.7 14.2-10.6 16.3-11.5 2.1-.9 13-.6 14.8-1.2 1.8-.6 29.7-13.6 29.7-13.6l-8.7-6z"/>
</g>
<g id="P136" class="small-box pkr">
<path class="st1" d="M596.3 316.8l-5.4-2.2-.2-8.7-1.3-1-.6-1.8 2.8-5.4 1.7-7.6-5.6-1.7-2.7-2.7-3.5 2.6-9.3-7 .1 5.6-3 3.5 1.3 2.6-3.6 6.5 5.1.5-1.2 1.2 2.3 1.7v6s-3.7 1.8-3.9 1.8c-.2 0 3.5 3.8 3.5 3.8l-3 7.8 1.6 2.4-2.8 2.5-5.4-2.5-3.2-5.3-3.9-1.9 1-3.4-4.1-3.2-5.2 2.5-8.7-9.6-15.3 2.5 1.5 3.1H513.2l-1.1 4.4-6.6-2.3-20.2 5.8-1.7-3.5-1.7.8v4.1h-5.4l-7.8 2.4 3.1 9.8-.9 2.8-13-5.5-3.5 5.5s-4.2-1.2-6.6.9L445 336l-1.2 2.8-3.3-.7-2.1-3.5-5.8.7v-1.9l-7.6-.9-1.7 2.3-1.3-2.3-9.1.2c-2 4.6 2.3 8.4 5.7 11.5 1.4 1.3 2.4 1.1 3.1 2.5.2.3 0 .5-.4.4-.1.4.1.8.4 1.1.2.1.5 0 .7 0 0 1.1 1.1 1.2.7 2.2.9.4 3 4.3 3.8 3.6.5-.5.9-1.9 1.4-2.6.1-.1.5 0 .7-.1.3-.2.5-.6.8-.6 1-.1 2-.5 2.9 0 1.8 1 1.4 0 3.2.9.5.2.8 1 1.1.9.9-.1.8 1.3 1.9 1 .5-.1.2 1.1 1.1 1.1.3 0 .5.3.4.7 1-.4 1.4.7 2.2.9.3 0 .4.7.8 1 .4.2 1-.2 1.4-.2.3 0 .5.3.4.7 1.6.1 2.3.5 3 1.7.6 1.2 1.8 1.8 2.6 3 .1.1.5 0 .6.1.1.1 0 .5.1.7.7.9 1.5 1.4 2.2 2.3.1.2 0 .5.1.7 1.4 2.1 3 3.5 4.5 5.6.6.9 1.7 1.2 2.1 2 .3.7.8 1.3 1.2 2 .2.4.4.8.5 1.3.1.3.8.4.9.8.8 2.7 3.3 4.1 4.3 6.6.2.6.7 1.4 1.3 2 .1.1 0 .5.1.7 2.4 3.3 3.6 7 5.5 10.5 1.1 2 .4 5.3 3 5.2 0 1 1.2 4.5 1.7 5.3.9 1.7 2.2 3.1 3.6 4.5 1.5-.2 2.5.6 3.7-.4 1.4 1.1 3.2 1.2 4.8 1 .5-.1.9-.7 1.1-1.3v.4c-.2-1.8 2.5-2.7 4.1-2.4 1.8.3 3.5.5 5.2 1 .7-1.1 1.4-1.7 2.6-1.4.6.1.2-.6.4-.8.1-.1.2-.1.4-.1 1.3.3 2.8.4 4 .3.6-.1 1.3-.2 1.9-.1 2.4.5 4 .9 6.3.9 1.1 0 2.4-.6 3.5-.6-.1.6.4.7.7.7 1-.1 2.6 1 3.2 1.5 1.6 1.1 3 .5 4.8 1 .4.1.9.1.8.7.4 0 .8-.1 1.1.1.2.1.3.6.4.6 1 .1 1.7.7 2.5 1 1.4.4 2.5 1.5 3.9 2 .4.1.9.2 1.4.2.4 0 .5.8.8.9.6.3 1.4.1 2.2.1.1 1.7 2.3 1.8 3.3 2.7.1.1.2.6.5.6.9.2 1 1.4 2 1.2l.1-.3 2.7-10.2h-3.3l-8.9-2.9.4-3.7 6.6-8.6-1.3-3H542l.9-1.5-6.5-15.4v-4.8l10.2-2.5 6.2 1.3 6.6-.3.6 10.8 3.6-.4c.4-2.5 2.9-5.7 2.9-5.7 5.3-5.5 2.3-11.7 2.3-11.7l1.8-.9 2.3-7.1-1-2 .6-4.5 2.8-1.7 11.3-6.9 5-7.9 4-4.1.3-2.7 3-3.8-2.6-5.2z"/>
</g>
<g id="P137" class="small-box pkr">
<path class="st1" d="M742.9 413.3l-4.7-7.5 2.8-9.5.9-7.8-1.2-2.3-4.2 2.3-.1-2.4 1.4-1.4-1.1-1.5-2.5.9-.2-2.7-6.2 3.8s-1.5 10.1-11.8 7.7l-6.7-2.3-8.1 3.1-4.8-.6-13.4 8.5-.5-3.5s-2.3-1.9-2.6-2.4c-.3-.5-1.6-3.2-1.6-3.2l-4.8.7-2.4-1-8.1 5-1.4 3.2-3.3.9-6.2-2.4.6-8 4.4-1.2-2.3-3.9 2.1-2.3s1.9-1.5 2.3-2.1c.4-.6 1.2-1.5 1.2-1.5l9.2-17.9s.1-3.2.5-4c.4-.8 1.5-2.2 1.3-3.1-.2-.9-.7-1.2-1-2.3-.3-1.2-.7-2.4-.7-2.4s1.1-.2 1.1-1.1c0-.9-.9-2.1-.9-2.1l-.4-2.1 3.1-2.3.3-.2-19.8-2-8.5-6-9.8 1.2-7.7 2.8-12.6 3-1.4 4.2-7.7-1.6-2.6 5.2 2.6 1.2h-4.8l-1 3-2-1.9-1 1.1s1.5 2.4-.9 1.4l-2 2.1-1.9-.6-.2.2-1.4 1.3s-4.9 5-1.4 16.4l.3 3.7 1.8 4.3 5.2 11-1.4 1.4-3.2-.1-3.1-2.4-2.2.6s-2.5-.7-2.2-2.2V385l-4.3-2.9-4.3 2.1v4.4s-3.7-.6-5.6 2.6c-1.9 3.2-3.4 4.9-7.2 4.6v.6l-1.9-.5-.5 1.4 6.5 5.7s5.5 2.4 9.1 2.4l.9 3.9-.5 2.6 5.3 1.3v1.4h3.7l9.3 4.7 1.6-.9 2.5 1.7-.8 4.2 3.5 2.1s10.1 4.2 13.5-6.1l1.6.6 2-7.4 6.3 1.2s3-.8 4.4 2.2l2.6.7 1-.7 3.6.4 2 2.1 4-.8 1.6.6.9-1.6 1.6 1.4 7.5-1.6-.6 2.6-1.5 1.7-.5 2.5 1.7 3.1s-3 8.4-3.2 11.4l-6.3.7-4.4-7.4-4.5 1.5s-2 7.1-4.5 7.9l4.9 5.2h5s2.4.2 2.8 0c.4-.2 2.1-.4 2.1-.4s1.3.3 1.5.5c.2.2.7 1.4.7 1.4s.3-.3 1.6 0 2.4.1 3.1 0c.6-.1 1.2-.3 1.7-.6.4-.3 2.1-1.6 2.1-1.6l1.4-.3s.6 1.5 1 1.8c.5.3 1.4-1.3 1.4-1.3l1 1.3 1.4-2.3 2.1 1s1.1-2.8 1.4-2.7c.3.1 3.3.3 3.3.3l2-3.5 1.3 2.7-.5 1.4 3.8.7 1.3 3.3s3.6-3.7 6.4.9l2.2.8 1.5 1.5s1.7-.4 2.5-2.9l3.5 2.1.5-1.5 7 3.9s.8 0 0-2.9 1-2 2.3-1v2.3l1.8 2.7-.7 5s2.1.5 3.1-3.8l1-.5 7.1 3.6 3.2-1-1.1-3.3 5.5-4.2 3.3-6.9v-3.8h2.7l3.3-1.9s-1.7-5.6 1.9-4.9l2.5-.6 1.1-2-1.3-.6 2.2-2.2 1.6.7 5.7-8.9c.5-.2 1.8-1.2-2.4-5.6z"/>
</g>
<g id="P138" class="small-box dap">
<path class="st1" d="M680 473.9c-2.5-15.1 1.7-16.3 1.7-16.3.7-5.1 5.1-6.2 5.1-6.2l-1.5-1.5-2.2-.8c-2.8-4.6-6.4-.9-6.4-.9l-1.3-3.3-3.8-.7.5-1.4-1.3-2.7-2 3.5s-3-.2-3.3-.3c-.3-.1-1.4 2.7-1.4 2.7l-2.1-1-1.4 2.3-1-1.3s-.9 1.6-1.4 1.3c-.5-.3-1-1.8-1-1.8l-1.4.3s-1.7 1.3-2.1 1.6c-.4.3-1 .5-1.7.6-.6.1-1.8.3-3.1 0s-1.6 0-1.6 0-.5-1.2-.7-1.4c-.2-.2-1.5-.5-1.5-.5s-1.7.2-2.1.4c-.4.2-2.8 0-2.8 0h-5l-4.9-5.2c2.5-.8 4.5-7.9 4.5-7.9l4.5-1.5 4.4 7.4 6.3-.7c.2-3 3.2-11.4 3.2-11.4l-1.7-3.1.5-2.5 1.5-1.7.6-2.6-7.5 1.6-1.6-1.4-.9 1.6-1.6-.6-4 .8-2-2.1-3.6-.4-1 .7-2.6-.7c-1.4-3-4.4-2.2-4.4-2.2l-6.3-1.2-2 7.4-1.6-.6c-3.3 10.3-13.5 6.1-13.5 6.1l-3.5-2.1.8-4.2-2.5-1.7-1.6.9-9.3-4.7h-3.7v-1.4l-5.3-1.3.5-2.6-.9-3.9c-3.6 0-9.1-2.4-9.1-2.4l-6.5-5.7.5-1.4 1.9.5v-.6c3.8.3 5.3-1.4 7.2-4.6 1.9-3.2 5.6-2.6 5.6-2.6V384l4.3-2.1 4.3 2.9v4.7c-.4 1.5 2.2 2.2 2.2 2.2l2.2-.6 3.1 2.4 3.2.1 1.4-1.4-5.2-11-1.8-4.3-.3-3.7c-3.5-11.3 1.4-16.4 1.4-16.4l1.4-1.3-16.5-8.7-2.8 1.7-.6 4.5 1 2-2.3 7.1-1.8.9s3 6.2-2.3 11.7c0 0-2.5 3.2-2.9 5.7l-3.6.4-.6-10.8-6.6.3-6.2-1.3-10.2 2.5v4.8l6.5 15.4-.9 1.5h2.4l1.3 3-6.6 8.6-.4 3.7 8.9 2.9h3.3l-2.7 10.2-.1.3c.1 0 .1 0 .2-.1-.1.6 1 .4.7 1.1h.3c1.6 0 2.1 2.7 3.8 2.6 1.1 1.1 10.8 1.8 10.8 1.8l5.1 2.3c1.2.6 1.5 1.2 1.4 1.7-.3 1.2-2.7 2.1-2.7 2.1 3 2.7 3.4 7.5 3.4 7.5 2.1.2 6-.2 7.5-.4.4 0 .7-.1.7-.1l-.9 2c-1.1 2.5 9.4 3.3 9.4 3.3 1.6 3.5 5.4 3.7 5.4 3.7l.9-1.2 4.2 2.7 2.1-3.3c1.8.9 5.5 2.9 9.3 5 5.1 2.8 10.1 5.6 10.1 5.6 5.4 3 12.7 5.5 12.7 5.5 13.6.3 23 8.8 23 8.8 3.6 5.4 5.1 4.8 5.1 4.8s9-.1 16.6 1.7l2.8-5.1zM580 449.4c6.7 4.5 11.5 1.8 11.5 1.8-2.1-3.3-11.5-1.8-11.5-1.8zM670.2 522.4s-1.2-1.5-3.3-1.5c0 0-3.6.9-3 3 0 0-1.2.9-2.1.3 0 0-1.5 1.2 1.2 2.4 0 0 5.5.3 3.3 7 0 0-.6 3 3.3 1.8l.3-3s4.2-3.9 6.4-5.8l.3-2.4.6-2.1s-5.4-.6-7 .3z"/>
</g>
<g id="P139" class="small-box bn">
<path class="st1" d="M877.7 251.7l-5-2.8-2.5-5.1c-.8-2.5-4.8-2.4-4.8-2.4l.8-1.3c-3.3-4.6-4.7-.3-4.7-.3l-2.9-.9-2.3.8-3.1-1.6-1.9 5.5-13 2.9 3.6 11.4-56.5-4.6-4.4-1.7-7.1.1c-14.2-11.5-32.7-10.6-32.7-10.6l-1.6-8-1.7-1.6-3.6 3.5-1.5 2.1-1.7-1.1-3.7 1.9-3.6-1.5-3 .5-4.4-2-5 1.2-2.9-3.9-4.3-.8-1.6 2.7h-2.3l-1.1 3.9 3.3 12.7-8.6 2.9-2 7.4 2.1.6 2.1 3.7-6.6 16.9-2-.9-1.5 5.6 2.8 1.7-.8 2.5h-2l-.4 1.6 1.2.5-.9 3.2h.9l-1.3 11.5-2 .7-6.8 27.3c-.5 5-4.3 6.4-4.3 6.5l-3.1 2.3.4 2.1s.9 1.2.9 2.1c0 .9-1.1 1.1-1.1 1.1s.4 1.2.7 2.4c.3 1.2.8 1.4 1 2.3.2.9-.9 2.3-1.3 3.1-.4.8-.5 4-.5 4l-9.2 17.9s-.8.9-1.2 1.5c-.4.6-2.3 2.1-2.3 2.1l-2.1 2.3 2.3 3.9-4.4 1.2-.6 8 6.2 2.4 3.3-.9 1.4-3.2 8.1-5 2.4 1 4.8-.7s1.3 2.7 1.6 3.2c.3.5 2.6 2.4 2.6 2.4l.5 3.5 13.4-8.5 4.8.6 8.1-3.1 6.7 2.3c10.3 2.4 11.8-7.7 11.8-7.7l6.2-3.8.2 2.7 2.5-.9 1.1 1.5-1.4 1.4.1 2.4 4.2-2.3 1.2 2.3-.9 7.8-2.8 9.5 4.7 7.5c4.1 4.4 2.8 5.4 2.8 5.4l-5.7 8.9-1.6-.7-2.2 2.2 1.3.6-1.1 2-2.5.6c-3.6-.7-1.9 4.9-1.9 4.9l-3.3 1.9H726v3.8l-3.3 6.9-5.5 4.2 1.1 3.3-3.2 1-7.1-3.6-1 .5c-1 4.3-3.1 3.8-3.1 3.8l.7-5-1.8-2.7v-2.3c-1.3-1-3.1-1.9-2.3 1 .8 2.9 0 2.9 0 2.9l-7-3.9-.5 1.5-3.5-2.1c-.8 2.5-2.5 2.9-2.5 2.9s-4.4 1.1-5.1 6.2c0 0-4.3 1.2-1.7 16.3l-2.9 5.4c.5.1 1.1.3 1.6.4 2.9.8 5.5 2 7 3.7l13.9 9.1c.9-.3 6.8 3.9 7.4 4.2 2.1 1 4.2 2.4 5.7 4.1 4.7 5.3 28 3.2 28 3.2 4-.5 10 1.2 16.3 3.6 13.1 5.1 27.3 13.7 27.3 13.7 5.5 3 11.2 1.8 11.2 1.8h.7c22.5.3 46 18.2 46 18.2 3.3 0 .3-6.7.3-6.7l2.7-2.1c0 3.9 2.7 2.7 2.7 2.7 1.8-4.5-3.6-8.2-3.6-8.2-3.9-3.3-7-.9-7-.9-.9-4.2 3.6-3.6 3.6-3.6 3.6.6 3.3-2.4 3.3-2.4.6-2.4 3.9-1.2 3.9-1.2 4.8 2.1 11.2 0 11.2 0 2.1-1.5-1.5-3.6-1.5-3.6-3.9-2.7 1.2-3.6 1.2-3.6l1.2-1.2c2.4-1.2 2.1 6.4 2.1 6.4 6.4 2.1 9.1 0 9.1 0l1.8 1.8-1.8 3.6c-1.8 6.4 3.3 2.7 3.3 2.7 3.6-1.8 2.4-6.7 2.4-6.7l1.8-1.8 2.4 4.5 2.7-1.2-.6-2.4c1.5-.6 3.3 2.7 3.3 2.7 2.1-.3.9-2.7.9-2.7-.6-1.8 1.8-3 1.8-3 4.2-3.3-1.2-5.5-1.2-5.5-1.5-1.8.6-1.8.6-1.8 5.1.6 6.4-4.8 6.4-4.8h2.4c3.9-2.4-2.7-2.7-2.7-2.7l1.8-.9c4.5-2.1-2.1-2.1-2.1-2.1l-.6-2.7c3.9-.6 1.2-2.1 1.2-2.1-1.2-1.5-2.7-1.8-2.7-1.8 2.1-5.8-1.5-5.8-1.5-5.8v-3c3.6-3 1.8-4.2 1.8-4.2-.6-1.5-4.8 0-4.8 0 .9-1.2.9-5.4.9-5.4.9-8.8-3.3-2.4-3.3-2.4-.3 1.2-1.8.6-1.8.6-.3-4.5-3.9 0-3.9 0-2.1 1.8-5.5 1.2-5.5 1.2-2.4.3-.9-5.1-.9-5.1-1.8-2.4-5.1 2.4-5.1 2.4-1.5-2.1-3.3-.3-3.3-.3-1.5 2.4-4.2 0-4.2 0 0-6.7-3.3-7.6-3.3-7.6-.6-3.6-3.6.3-3.6.3-2.4 1.5-3.9 0-3.9 0 0-3-1.5-3.9-1.5-3.9-2.4.3 0-3.3 0-3.3 2.1-2.4-3-2.7-3-2.7-2.1 6.7-7.3 5.1-7.3 5.1-.3-1.5-4.8-2.1-4.8-2.1-4.8-.9-3.6-4.5-3.6-4.5 2.4-3.9 1.5-6.4 0-7.6-1.5-1.2-1.2-4.5-1.2-4.5.3-2.7-3.3-2.4-3.3-2.4l-2.1.6c-4.8.3 1.2-8.5 1.2-8.5l3.3-.6c.9-2.4 6.1-2.4 6.1-2.4 5.1-.6 3.9-6.7 3.9-6.7l3.3-1.2c2.1-2.4 7.6-4.5 7.6-4.5 3.6-.9 1.8-4.2 1.8-4.2 1.8-3.6.9-10 .9-10 .7-1 1.1-1.8 1.3-2.5 1-3.2-3.1-2.4-3.1-2.4.6-2.1-3-4.5-3-4.5-2.7-1.2-1.5-3.9-1.5-3.9 7.6-.3 4.5-3 4.5-3-4.8-10 1.7-17.6 1.7-17.6.1-.5.1-1.1.5-1.6.2-.2 0-.7.1-1.1.1-.4.8-.5.7-1.1-.3-1.5-.3-2.7-.1-3.8.6-3.1 2.7-5.1 3.1-9-.9-2.2.8-4.9.9-7.6.9-2.4.7-6.7 1.7-8.4l2.6-1.3c5.1-2.1 1.5-5.1 1.5-5.1 4.8-4.5 3.3-7.3 3.3-7.3-3-4.2.3-5.4 0-8.8-.3-3.3 4.3-7.5 4.3-7.5.7-.9 1.2-1.7 1.8-2.6.3-.4-.1-1.4.2-1.7.9-.9 1.2-2.5.8-3.4-1.4-3.1-2-6.9-5-9-.9-2.4-3.6-2.7-2.9-5.3.4-1.5.7-3.2 1.7-4.5v.4c0-.6.9-1.4 1.4-2.3.2-.3.1-.9-.1-1.5-.4-.9.4-2 .8-2.8.3-.7.4-1.3 1-1.8 2.4-2.2 7.2-1.9 8.9-3.5 2.3-.7 4.4-1.7 4.7-2.6.3-.9-.9-3 0-5.1.9-2.1 10.9-7.3 10.9-7.3.3-.7.4-2 .5-3.1l-5 2c-6.8 7.5-12.1 5.3-12.1 5.3z"/>
</g>
<g id="text">
<path class="frames" d="M547 422v30.7M677.2 479.2v28.5h14.9v38.5"/>
<text transform="translate(416.595 237.032)" class="st3 st4">
      P134
    </text>
<text transform="translate(656.762 204.995)" class="st3 st4">
      P135
    </text>
<text transform="translate(501.967 343.614)" class="st3 st4">
      P136
    </text>
<text transform="translate(640.527 412.728)" class="st3 st4">
      P137
    </text>
<text transform="translate(598.933 443)" class="st3 st4">
      P138
    </text>
<text transform="translate(763.482 386.297)" class="st3 st4">
      P139
    </text>
</g>
</svg>