<svg xmlns="http://www.w3.org/2000/svg" version="1.1" viewbox="0 0 1240 650" preserveaspectratio="xMidYMid slice" id="svgN">
<g id="N1" class="small-box bn">
<path class="st1" d="M387.9 285.8l-2.9-3.4-.5-2.2 2.7-2.5.4-5.1 1.9-2.1-.9-9-1.7-6.5-2.1-2.8-10.4-5.1-2.7.7-.8-1.5h1.7l.7-1.5-2.4-4.8 5.5-2 2.9-5.1 2.1 1.2v-8.3l-1.3-2 1.2-1.2 1.3 1.2 1.3-2.6-1.3-4 5.4-.6-7.1-6.8-10.7-5.2-9.8-4.5-2.4-5.4 2.5-3.2c-.6.1-1.2.3-1.8.5-.7.3-.2-.4-.7 0-.8-1.9-2.8-2.9-3.9-4.6-.3-.4-.9-.7-.9-1.4.1-1.5-.8-3-.3-4.4.4-1.4 1.6-2.3 2.9-3 .6-.3-.5-.8.2-1.3.6-.4.2-1.8-.4-2.3-.6-.5-1.6-.9-2.5-.1-.3-.5-.3 1-.8 1.1-.1-1-.4-.6-.8-1.5-.3-.8-1-1.7-2.1-1.9-.7-.1-1.7-.3-2.1.1-.6.6-1.5 1-1.9 1.8-1.8 3.7-1.2 5.5-1.7 9.4-.9 2.7-2.3 3.3-3.6 4.9-.7.8-1.6 1.9-2.1 2.7-.4.7-2.2 1.8-2.1 2.7-2.5 1.3-2.5 6.1-5.1 7.3-1.1 2.1-2.8 3-4.2 4.8-2.6.5-5.4-.3-7.3 1.5-.4.4-.7.3-1.1.4-.3 0-.5.3-.4.7-1.1.1-1.6 1.2-2.6 1.6-.5.2-1.9 2.2-2.4 2.5-.5.3-1.4 1.1-1.9 1.2-.7.2-2.3 1-3 1.2 0 0-7.9-1.9-13.9 6.3-.3.4-1.3 1.9-1.5 2.1-1 .9-1.1 2-2 2-2.2 0-4.6-1-6.6-.2-2.3 1-4.8 2.6-3.8 5.7 4.2 1.7 3.6 6.7 4.5 10.4 3.9 3.6 9.8 3.9 14.9 4.3.3 0 .9-1 1.4-.5 1.1 1.3 2.8 1.5 4.1 2.6 1.4 1.2 3.5 2.3 5.7 2.5-.2-1.5 1.9-2.1 1.5-3.7 5.8 0 12.1.7 17.3 3.3 2.5 1.3 4.9 3 8 3.4.6.1.7.8.9 1.3.4 1 1.8.7 2.8.9.6.1 1 .7.8 1.4 5.4.9 8.5 5.8 12.6 8.9-.5 1.7 2 2.1 1.5 3.7.2-1 1-1.9 1.5-2 2.7-.5 4 2 6.1 3.1 1.8.9 3.6 1.3 5.4 2 1.3.5 1.2 0 3.6 1.5 2.1 1.3 2.4 1.5 4.8 4.5 2.1.9 1.7 2.8 3.6 3.9.4.2 1.2 2.3 1.5 2.6 1 .8 1 2.1 2 3.1l2.2-1.6 1.1-1.1z"/>
</g>
<g id="N2" class="small-box bn">
<path class="st1" d="M409.5 324.4l-1.6-2.7 2.6-1 6.1.4s.4-6.8.5-6.6c.1.2 8.3.8 8.3.8l-1.7-5.1.5-2.7-1.5-.9-1.5-2.9.8-2.3-2.2-2.3.9-1.8-1.5-1.4.7-2.1h1.3l.3-2.3h3.9l1.1-3.4 3.7-.7-1.6-2.5-3.5-1.1-.6-1.3-2.6-.9-1.7-2 .7-2.9 2.7 1 .9-.9v-2.1l-3 .3-.8-1-1.2-.4-.9-1.1 2.3-.7 2.7-.5-.1-1.9-2.7.8.4-2 2.8-.5-.5-2.3-1.9 1.3-1.3-1.2 1.1-1.9 2.3-.3.8-.9-1.6-2.4h-.4v1.9l-4.2-.2v-3.8l-4.3-.4-3-2.7 1.8-.7-3.5-6.3 2.5-.8-2.5-2.8-2.3-2.5 2.9-6.1 1.7-3.2-1.5-2.5 1.5-2.8-3.6-3.1-1.1 1.4-3.3-5.9-2 1.1-6.3-5-7.1 1.2-5.4.6 1.3 4-1.3 2.6-1.3-1.2-1.2 1.2 1.3 2v8.3l-2.1-1.2-2.9 5.1-5.5 2 2.4 4.8-.7 1.5h-1.7l.8 1.5 2.7-.7 10.4 5.1 2.1 2.8 1.7 6.5.9 9-1.9 2.1-.4 5.1-2.7 2.5.5 2.2 2.9 3.4-1.1 1-2.2 1.6c.3.2.6.5 1 .7.1 0 .1.3.1.5v.8c.2.6.7 1 1.4.8-.1 2.1 2 3.2 1.5 5.2 3.6 2 2.7 6.9 4.8 9.4.4.5-.2 2.1 1.2 1.7-.1 4.9 1.9 9.2 1.7 14.1 0 .8.7 2.2 1.4 2.7 2.2 1.6 4.6 2.7 6.7 4.5 1.6 1.4 3.7 1 5.8.9l-.9-5.5z"/>
</g>
<g id="N3" class="small-box bn">
<path class="st1" d="M461.8 228.1l-4-1.6-5.4 1.6v-1s-4.2-1.6-5.8 0l-2.2-2.5-11-19.2 5-2.6-1.4-11.4-3.6-5.2v-2.4l5.8-1 1.2-3v-3.4l6-2.6.2-2.2 4-4.6-3.2-.8 1.1-7.6h2V154h-3.4l-3.4-4.9c-5.2 1.5-14.5 5.3-32.3 14.4 0 0-2.2-9.3-14.1-8.9-.9 0-2.1 0-3.1-.6-.7-.5-.9-1.8-1.6-2-2.8-.8-5.5-1.4-8.5-.8-2.5.5-3.8 3-3.7 5.5-1-.1.1 1.2-.7 1.1 0 .5-.1 1.2.1 1.4 1.3.7 2.7 2 2.1 3.5-.2.6-.6.6-1 1.2-.7.8-1.7 1.7-1.1 2.9.7 1.3 2 2.9 3.6 1.9.6.8 1.7 0 2.2.8.2.3-.1.5-.3.7-.6.7-1.6.7-2.2 1.2-1.2 1-.1 2.3 1 3 .1.1.1.4 0 .7-.3.9-1.7.7-1.8 1.9-1.1-.1-1.5 1.7-2.5 1-.4-.3-.9-.4-1.2-.5-2.2-.6-4.4-.7-6.6-.1-.5.2-1.2.6-1.4 1-.3.7-.4 1.5-.8 2.2-.2.3 0 .7-.1 1.1-.1.3-.4.5-.7.4-.4 2.4.7 4.3 1.7 6.4.5 1 .3 2.4-.4 3.2-.2.2-.7.3-.6.8-2.2.1-4.2-.5-6.3-1-.8-.2-1.5-.1-2.3 0-.1 0-.3.1-.4.1l-2.5 3.2 2.4 5.4 9.8 4.5 10.7 5.2 7.1 6.8 7.1-1.2 6.3 5 2-1.1 3.3 5.9 1.1-1.4 3.6 3.1-1.5 2.8 1.5 2.5-1.7 3.2-2.9 6.1 2.3 2.5 2.5 2.8-2.5.8 3.5 6.3-1.8.7 3 2.7 4.3.4v3.8l4.2.2v-1.9h8l3 3.3 4-1.2 1.4-2.1 2.8-3.2 1.2-1.2h2.6l.4-3.4 4.6-5.2 3.6-2.6h3.2l2-4.8h3l.2-2.4.2-.2 2-1.8 1-4.7-3.9-2.3z"/>
</g>
<g id="N4" class="small-box bn">
<path class="st1" d="M516.9 304.8l-2.5-.9h-6.5l-.4-9 4.7-1.7-.5-8.6-2.3-3.5-1.6-7.8-2.8-6.8-3.2-7.6 3.6-3.6-3.6-14.6 1.6-1.1v-6.4l.5-.1-3.7-2.2v7.7l-1.4 2.4s-2.7.1-3 0c-.3-.1-1.6 1.2-1.6 1.2h-2.3l-.6 3.1-1.9-.6-1.5 3.9s-3.4 3.7-8 0v-2L470 238v-1.7l-2.8-.5-1.6 2.7-3-1.6-.2.2-.2 2.4h-3l-2 4.8H454l-3.6 2.6-4.6 5.2-.4 3.4h-2.6l-1.2 1.2-2.8 3.2-1.4 2.1-4 1.2-3-3.3h-7.6l1.6 2.4-.8.9-2.3.3-1.1 1.9 1.3 1.2 1.9-1.3.5 2.3-2.8.5-.4 2 2.7-.8.1 1.9-2.7.5-2.3.7.9 1.1 1.2.4.8 1 3-.3v2.1l-.9.9-2.7-1-.7 2.9 1.7 2 2.6.9.6 1.3 3.5 1.1 1.6 2.5-3.7.7-1.1 3.4h-3.9l-.3 2.3h-1.3l-.7 2.1 1.5 1.4-.9 1.8 2.2 2.3-.8 2.3 1.5 2.9 1.5.9-.5 2.7 1.7 5.1s-8.2-.6-8.3-.8c-.1-.2-.5 6.6-.5 6.6l-6.1-.4-2.6 1 1.6 2.7.8 5.7h.8c-.1.7.1 1.1.5 1.3.2.2.6.2 1 .2l9-.2 1.3 2.3 1.7-2.3 7.6.9v1.9l5.7-.7 2.1 3.5 3.3.7 1.2-2.8 2.9-1.5c2.4-2.1 6.6-.9 6.6-.9l3.5-5.5 13 5.5.9-2.8-3.1-9.8 7.8-2.4h5.3v-4.1l1.7-.8 1.7 3.5 10-2.8 10.2-2.9 6.5 2.3 1.1-4.4h5.1l-.7-3.4z"/>
</g>
<g id="N5" class="small-box bn">
<path class="st1" d="M538.6 150.7l-1.6-.8-.8-3.5h-3.3l3-7h-3l1.7-2.8v-5.3l2.4-.7-1.2-3.3h-1.6s-2.2-2.2-3.3-3c-1.1-.7-3.7 0-6.3-3-2.6-3-3-5.2-7.4-7.1-4.5-1.9-9.3-3-10.4-5.9l-35.4 39.8-4.3 4.9s-10.8-2.2-14.5-3.3c-2-.6-2.3-2.4-8.1-.8-.1 0-.3.1-.5.1l3.4 4.9h3.4v4.6h-2l-1.1 7.6 3.2.8-4 4.6-.2 2.2-6 2.6v3.4l-1.2 3-5.8 1v2.4l3.6 5.2 1.4 11.4-5 2.6 11 19.2 2.2 2.5c1.6-1.6 5.8 0 5.8 0v1l5.4-1.6 4 1.6 3.8 2.3-1 4.7-2 1.8 3 1.6 1.6-2.7 2.8.5v1.7l9.7 8.6v2c4.6 3.7 8 0 8 0l1.5-3.9 1.9.6.6-3.1h2.3s1.3-1.3 1.6-1.2c.3.1 3 0 3 0l1.4-2.4v-7.7l3.7 2.2 8.1-.9 6 2.3 1.6-4.4-4 .9v-4.1l2.7-3.1h1.7l1.2-2-2.2-.7v-3.6h1.8l-.5-5.1-.1-.3-2.3-4.3 6.6-6.7-2.1-5.3 1.2-4.8-2-.8-1.1-4.8-3.7-1.5 2.3-2.8 1.7-11.4 11.4-2.3 10.3-5.2v-6.5l-4-4.9z"/>
</g>
<g id="N6" class="small-box pkr">
<path class="st1" d="M571.7 279.7l-1.1-7.6 2.6-3.1-1.5-.3-3.6-2.5-3.9-.1-2.9-1.6V263l-2.3-.3-5.6-3.9v-3.9l-2.1-2.7-1.1-1.9 3.9-2.3 1.1-1.3-.5-3.3h3.2l1.3-1.9h2.7l-.1-5.2 5.5-4.9 1.1 1.3 1.1-.8-.5-1.7h-1.6v-2.8l-2.2.7 2.9-6.4h-4l-1.8 2.8-2.5-1.2-7.7 1.2h-3.5l-1.7.8-2.9-1.6-1.9-2-1.6-2.6-2.5-1.1v1.8l-2.9.9v-1.2l-2.2 1.3-3.3 1.3 3.1-2.4s.9-.4-.8-1.4l1-2.9s-3.7-4-5.2-5l-7.7 1.8.7 5.4h-1.8v3.6l2.2.7-1.2 2h-1.7l-2.7 3.1v4.1l4-.9-1.6 4.4-6-2.3-8.6.9v6.4l-1.6 1.1 3.6 14.6-3.6 3.6 5.8 14 1.8 8.2 2.3 3.5.5 8.6-4.7 1.7.4 9h6.5l2.5.9s.8 3.2 1.1 3.2h6.9l-1.5-3.1 15.2-2.5 8.7 9.6 5.1-2.5 4.1 3.2-1 3.4 3.9 1.9 3.2 5.3 5.3 2.5 2.8-2.5-1.6-2.4 3-7.8-3.5-3.8 3.7-1.7.3-6.1-2.3-1.7 1.2-1.2-5.1-.5 3.6-6.5-1.3-2.6s3-3.2 3-3.5c.2 0 .1-5.8.1-5.8z"/>
</g>
<g id="N7" class="small-box dap">
<path class="st1" d="M534.6 131.3v5.3l-1.7 2.8h3l-3 7h3.3l.8 3.5 1.6.8 3.6 5.1v6.5l-10.3 5.2-11.4 2.3-1.7 11.4-2.3 2.8 3.7 1.5 1.1 4.8 2 .8-1.2 4.8 2.1 5.3-6.6 6.7 2.3 4.3 7.7-1.8s5.3 4.4 5.2 5c-.1.7-.7 1.7-1 2.6-.3.9.8.9 1 1.3.2.4-2.5 2.6-2.5 2.6l2.5-.9 2.2-1.3v1.2l2.9-.9v-2l2.6 1.3s1.5 2.4 1.6 2.6c.1.1 1.9 2 1.9 2l2.9 1.6 1.7-.8h3.9l7.4-.8 2.4.8 2.1-2.8h3.6l-2.9 6.4 2.2-.7v2.8h1.6l2.4-2.5 2.3.7.7 1.9 6.5-6.6h-2.5l2.5-2 1.1-3.8 7.2-2.5 1.9 3.3v4.9l7.3 9.8 1.7 4.1 3.6-.1 2.5-1.7 2.8-.4-8.7-13.6 2.8-.9 1.9.9V218h-1.4l-1.3-1.9s6.8-5.1 11.4-4.7l-8.6-8.8.3-3.1-2.3-1.2 2.7-1.1.6-3.3-2.1-1.2-.6 1.2-3.1-3 1.6-2.7.7-2.9-.6-2.1-1.3-.1.5-5.8-1.6-1.1-1.9.9-3.3 1.9-3 .3s-3.2-5.9-3.4-6c-.2-.1 9.8-5.5 9.8-5.5s9 6.1 9 5.9c0-.2-1.7-4.7-1.7-4.7l-1.3-1.8.9-9.4 2.5-5.9 4.7-1.3c-.4 0-.8-.1-1.2-.1-1-.1-2.1-.3-3.4-.6-2.2-.4-6.5-.8-9.7-1.5-14.5-3.3-31.3-5-32.9-5.8l-17.1-11.9s-2.7 0-3.8-.7c-1.1-.7-4.6-2.5-4.6-2.5h-3.3l1.2 3.3-2.7.5z"/>
</g>
<g id="N8" class="small-box pkr">
<path class="st5" d="M686.4 295.3h-.5l.5.2z"/>
<path class="st1" d="M711.8 142.4l-4 1.9-3.3-.7 2.7-8.4h-1.9l3.7-17.9c-3.5.9-37.5 9.7-49.9 11.1l-42 21.8s-1.1.8-5.4.4l-4.7 1.3-2.5 5.9-.9 9.4 1.3 1.8s1.7 4.5 1.7 4.7c0 .2-9-5.9-9-5.9s-10 5.3-9.8 5.5c.2.1 3.4 6 3.4 6l3-.3 3.3-1.9 1.9-.9 1.6 1.1-.5 5.8 1.3.1.6 2.1-.7 2.9-1.6 2.7 3.1 3 .6-1.2 2.1 1.2-.6 3.3-2.7 1.1 2.3 1.2-.3 3.1 8.6 8.8c-4.5-.4-11.4 4.7-11.4 4.7l1.3 1.9h1.4v3.8l-1.9-.9-2.8.9 8.7 13.6-2.8.4-2.5 1.7-3.6.1-1.7-4.1-7.3-9.8v-4.9l-1.9-3.3-7.2 2.5-1.1 3.8-2.5 2h2.5l-6.5 6.6-.7-1.9-2.3-.7-2.4 2.5.5 1.7-1.1.8-1.1-1.3-5.5 4.9.1 5.2h-2.7l-1.3 1.9h-3.2l.5 3.3-1.1 1.3-3.9 2.3 1.1 1.9 2.1 2.7v3.9l5.6 3.9 2.3.3v1.5l2.9 1.6 3.9.1 3.6 2.5 1.5.3 4.1-2 1.7-5 2.3.1.1 1.6-1.2 1.2 1.5 1 1.3-1.9 1.3.6 1.1-.7-1.5-1.9 1-3.1 1.6-2.3 3.9 2.2 3.1-.5 4.8 2.8.8-2.5 2.7-.9 4.1.8.6.9-.6 2.9 1.5 1.9 5.9-1.1v-3.6h.9l2.8 4.2-2.3 4 4 1.6.8 2.1 8.8.8-.3 3.3 1.9-.4 5.3 3.2v2.2h4l1.6-5.4h1.3v6.3l3.6 6.6c3.5 0 12.1 3.6 12.1 3.6l6.5 3.7 1.1 3.6 7.2-1.2 1.6-2.1 6.8-1.6 4.7 1.5.9-3.1-1.2-.5.4-1.6h2l.8-2.5-2.8-1.7 1.5-5.6 2 .9 6.6-16.9-2.1-3.7-2.1-.6 2-7.4 8.6-2.9-3.3-12.7 1.1-3.9-2.9 1.9H693l-1.7-6.4 1.7-8.3h-2.8l.9-6.3-2.3-8.2-.9-1.5 1.1-2.4c.8-3.9-4.1-7.3-4.1-7.3l-4.1-7.6 3.3-2.4-1.9-.9-1.5-3.7 1.9-.8v-2.4l11.1-5.7 5.2-6.8h2.7l2-4.5v-1.6l8.2-8.2-1.9-1.7 1.9-6.2z"/>
<path class="st5" d="M685.9 295.3l-.4-.1v.1z"/>
</g>
<g id="N9" class="small-box amanah">
<path class="st1" d="M571.8 280.2l-1.1-8 2.6-3.1 4.1-2 1.7-5 2.3.1.1 1.6-1.2 1.2 1.5 1 1.3-1.9 1.3.6 1.1-.7-1.5-1.9 1-3.1 1.6-2.3 3.9 2.2 3.1-.5 4.8 2.8.8-2.5 2.7-.9 4.1.8.6.9-.6 2.9 1.5 1.9 5.9-1.1v-3.6h.9l2.8 4.2-2.3 4 4 1.6.8 2.1 8.8.8s-.7 3.3-.3 3.3c.5-.1 1.9-.4 1.9-.4l5.3 3.2s-.4 2.2 0 2.2h4l1.6-5.4h1.3l.1 6.6 3.5 6.4s6.2.2 12.4 3.8l6.2 3.6 1.1 3.6 7.2-1.2 1.6-2.1 6.8-1.6 5.6 1.6-1.3 11.5-2 .7-6.8 27.3s-.1 4.8-3.9 6.2l-19.8-2-8.5-6-9.8 1.2-7.7 2.8-12.5 3-1.4 4.2-7.6-1.6-2.3 5.3 2.7 1.3-5.2-.2-1 3-2-1.9-1 1.1s1.2 1.6.4 1.6c0 0-.6.4-1.2-.1l-2 2.1-1.9-.6-.3.6-16.8-9 11.6-7 5-7.9 4-4.1.3-2.7 3-3.8-2.4-4.7-5.3-2.2-.2-8.7-1.3-1-.8-2.2 3-5 1.7-7.6-5.5-1.7-2.7-2.7-3.5 2.6-9.9-7.5z"/>
</g>
<g id="N10" class="small-box bn">
<path class="st1" d="M947.3 198.4c-4.1-1.5-3.4-.8-4.6-1.1-3.9-.9-15.6-2.1-19.7-3.6s-59.3-19.9-73.8-23.3c-14.5-3.3-64.2-16.8-66.8-17.5l.3-11.2s-25.3-11.1-73.2-24.4c-.1 0-.2-.1-.3-.1 0 0-.1 0-.3.1l-3.7 17.9h1.9l-2.7 8.4 3.3.7 4-1.9-1.9 5.7 1.9 1.7-8.2 8.2v1.6l-2 4.5H699l-5.2 6.8-11.1 5.7v2.4l-1.9.8 1.5 3.7 1.9.9-3.3 2.4 4.1 7.6s4.9 3.4 4.1 7.3l-1.1 2.4.9 1.5 2.3 8.2-.9 6.3h2.8l-1.7 8.3 1.7 6.4h3.7l2.9-1.9h2.3l1.6-2.7 4.3.8 2.9 3.9 5-1.2 4.4 2 3-.5 3.6 1.5 3.7-1.9 1.7 1.1 1.5-2.1 3.6-3.5 1.7 1.6 1.6 8s18.4-.9 32.6 10.6l7.1-.1 4.4 1.7 56.4 4.5-3.6-11.4 12.9-2.9 1.9-5.5 3.1 1.6 2.3-.8 2.9.9s1.3-4.3 4.7.3l-.8 1.3s4-.1 4.8 2.4l2.5 5.1 4.9 2.8s5.2 2.2 11.8-5.6l5-2c0-.4.1-.9.1-1.2v-1.1c3.9-3 .3-4.2.3-4.2-2.7-2.7 1.2-5.7 1.2-5.7.3-6.7 14.2-10.6 16.3-11.5 2.1-.9 13-.6 14.8-1.2 1.8-.6 29.6-13.6 29.6-13.6l-8.5-5.9z"/>
</g>
<g id="N11" class="small-box bn">
<path class="st1" d="M534.8 339.3v-2.2l-2.7-5.1H527l-.6-1.9-1.9.6-1-2.7-2.6 1.5-1.3-6.6-2.3.5-1.6 1.1 1.6 1.7-2.5 1-.8 2.3h-3l-2.1-2.1 1.3-1.9-2.4-1.4-6.8 5.4-3.1-2.3-2.7-14.1-10 2.8-1.7-3.5-1.7.8v4.1h-5.3l-7.8 2.4 3.1 9.8-.9 2.8-13-5.5-3.5 5.5s-4.1-1.2-6.6.9l-2.9 1.5-1.2 2.8-3.3-.7-2.1-3.5-5.7.7v-1.9l-7.6-.9-1.7 2.3-1.3-2.3-9 .2c-2 4.6 2.3 8.4 5.7 11.5 1.4 1.3 2.4 1.1 3.1 2.5.2.3 0 .5-.4.4-.1.4.1.8.4 1.1.2.1.5 0 .7 0 0 1.1 1.1 1.2.7 2.2.9.4 3 4.3 3.8 3.6.5-.5.9-1.9 1.4-2.6.1-.1.5 0 .7-.1.3-.2.5-.6.8-.6 1-.1 2-.5 2.9 0 1.8 1 1.4 0 3.2.9.5.2.8 1 1.1.9.9-.1.8 1.3 1.9 1 .5-.1.2 1.1 1.1 1 .3 0 .5.3.4.7 1-.4 1.3.7 2.2.9.3 0 .4.7.8 1 .3.2 1-.2 1.4-.2.3 0 .5.3.4.7 1.6.1 2.3.5 3 1.7.6 1.2 1.8 1.8 2.6 3 .1.1.5 0 .6.1.1.1 0 .5.1.7.6.9 1.5 1.4 2.1 2.3.1.2 0 .5.1.7 1.4 2.1 3 3.5 4.5 5.6.6.9 1.7 1.2 2.1 2 .3.7.8 1.3 1.2 2 .2.4.4.8.5 1.3 0 .2.4.3.6.4l1.2-4.7 2.8-1.1-2-1.3-1.9-7.8 7-.9.5-1.1 11.6-9.2 3.2 1.8 4.7 1.9.9-9.7 8.5 8.3 1.7-2.3 1.6.4-.8 4.3 2.5 2.4 2.3 2.2 1.9-2.9.6-2h2.5l3.9-2.6 3.2-.3 5.1 3.6 1.4-1.9 1.7.6c3.3.9.2 4.7.2 4.7l3.4.8 1-1 3.9 1v-9l-6-11.3c1.4-2.2 5.5.3 5.5.3z"/>
</g>
<g id="N12" class="small-box bn">
<path class="st1" d="M500.2 394.5l-6.1-10.3-.1-4.4-7.5-1.9-.4-4.1v-3.2l3.8-1.2-2.6-2.9-.8-2.7.7-3.1 2-2.7 2.8-.2 5.7 2.9 2.3-2 3.3.5.5-2.3-2.5-2.4.8-4.3-1.6-.4-1.7 2.3-8.5-8.3-.9 9.7-4.7-1.9-3.2-1.8-11.6 9.2-.5 1.1-7 .9 1.9 7.8 2 1.3-2.8 1.1-1.2 4.7c.1.1.3.2.3.3.8 2.7 3.3 4.1 4.3 6.6.2.6.7 1.4 1.3 2 .1.1 0 .5.1.7 2.4 3.3 3.6 7 5.5 10.4 1.1 1.9.4 5.3 3 5.2 0 1 1.2 4.5 1.6 5.3.9 1.7 2.2 3.1 3.6 4.5 1.4-.2 2.5.6 3.7-.4 1.4 1.1 3.2 1.2 4.8 1 .5-.1.9-.7 1.1-1.3v.4c-.2-1.8 2.5-2.7 4.1-2.4 1.8.3 3.5.5 5.2 1 .7-1.1 1.4-1.7 2.6-1.4h.1l-2.1-2.1-1.3-11.2z"/>
</g>
<g id="N13" class="small-box ppbm">
<path class="st1" d="M591 330.8l4-4.1.3-2.7 3-3.8-2.4-4.7-5.3-2.2-.2-8.7-1.3-1-.6-1.8 2.8-5.3 1.7-7.6-5.5-1.7-2.7-2.7-3.5 2.6-9.3-7 .1 5.6-3 3.5 1.3 2.6-3.6 6.5 5.1.5-1.2 1.2 2.3 1.7v5.9s-3.7 1.8-3.9 1.8c-.2 0 3.5 3.8 3.5 3.8l-3 7.8 1.6 2.4-2.8 2.5-5.3-2.5-3.2-5.3-3.9-1.9 1-3.4-4.1-3.2-5.1 2.5-8.7-9.6-15.2 2.5 1.5 3.1h-12.5l-1.1 4.4-6.5-2.3-10.2 2.9 2.7 14.1 3.1 2.3 6.8-5.4 2.4 1.4-1.3 1.9 2.1 2.1h3l.8-2.3 2.5-1-1.6-1.7 1.6-1.1 2.3-.5 1.3 6.6 2.6-1.5 1 2.7 1.9-.6.6 1.9h5.1l2.7 5.1v2.2s-4.1-2.5-6-.5l6 11.3v9l-3.9-1-1 1-3.4-.8s3.1-3.8-.2-4.7l-1.7-.6-1.4 1.9-5.1-3.6-3.2.3-3.9 2.6h-2.5l-.6 2-1.8 2.8s4.6 4 5 4.6c.4.6 3.3 2.2 3.8 2.6.5.4 3.6 2 4 2.3.4.3 6.7 2 6.7 2 3.3-.3 5.8 3.8 5.8 3.8l4.7 1.7-.4-1v-4.8l10.2-2.5 6.2 1.3 6.5-.3.6 10.8 3.6-.4c.4-2.5 2.9-5.7 2.9-5.7 5.3-5.5 2.3-11.7 2.3-11.7l1.8-.9 2.3-7.1-1-2 .6-4.5 2.8-1.7 11.3-6.9 5.3-7.8z"/>
</g>
<g id="N14" class="small-box pkr">
<path class="st1" d="M550.3 410.1H547l-8.9-2.9.4-3.7 6.5-8.6-1.3-3h-2.4l.9-1.5-6.1-14.4-4.7-1.7s-2.5-4.1-5.8-3.8c0 0-6.3-1.7-6.7-2-.4-.3-3.5-1.9-4-2.3-.5-.4-3.4-2-3.8-2.6-.4-.6-5-4.6-5-4.6l-2.3-2.2-.5 2.3-3.3-.5-2.3 2-5.7-2.9-2.8.2-2 2.7-.7 3.1.8 2.7 2.6 2.9-3.8 1.2v3.2l.4 4.1 7.5 1.9.1 4.4 6.1 10.3 1.4 11.2 2.1 2.1c.4 0 .1-.6.3-.8.1-.1.2-.1.4-.1 1.3.3 2.8.4 4 .3.6-.1 1.3-.2 1.9-.1 2.4.5 4 .9 6.3.9 1.1 0 2.4-.6 3.5-.6-.1.6.4.7.7.7 1-.1 2.6 1 3.2 1.5 1.6 1.1 3 .5 4.8 1 .4.1.9.1.8.7.4 0 .8-.1 1.1.1.2.1.3.6.4.6 1 .1 1.7.7 2.5 1 1.4.4 2.5 1.5 3.9 2 .4.1.9.2 1.4.2.4 0 .5.8.8.9.6.3 1.4.1 2.2.1.1 1.7 2.2 1.8 3.3 2.7.1.1.2.6.5.6.9.2 1 1.4 2 1.2l.1-.3 2.5-10.2z"/>
</g>
<g id="N15" class="small-box dap">
<path class="st5" d="M614.4 418.9l.9.3-.9-.3zM616 419.5l-.7-.3z"/>
<path class="st1" d="M610.8 417.6l1-6-2.2-1.8-9.5 4.2-.8-3.5 1-3.1-4.5-4.2 5-2.6 3.1 1.5 3.6-6-4.3-6.5V387l-.2-.3-2.1-3-5.1 3.8-.2 3.4-1.4 1.4-3.2-.1-3.1-2.4-2.2.6s-2.5-.7-2.2-2.2v-4.7l-4.3-2.9-4.3 2.1v4.4s-3.7-.6-5.6 2.6c-1.9 3.2-3.4 4.9-7.2 4.6v.6l-1.9-.5-.5 1.4 6.5 5.7s5.5 2.4 9.1 2.4l.9 3.9-.5 2.6 5.3 1.3v1.4h3.7l9.3 4.7 1.6-.9 2.5 1.7-.8 4.2 3.5 2.1s10.1 4.2 13.4-6.1l-3.4-1.2z"/>
</g>
<g id="N16" class="small-box dap">
<path class="st1" d="M600.9 383.7l2.1 3 2.9 3.1 4.9-4.8h2v-2.2l2.6.8 1.6 1.8.9-1.8h9.3l2.8-4.9 4.6 3.3 20.1 1.6 1.5-1.6s1.9-1.5 2.3-2.1c.4-.6 1.2-1.5 1.2-1.5l9.2-17.8s.1-3.2.5-4c.4-.8 1.5-2.2 1.3-3.1-.2-.9-.7-1.2-1-2.3-.3-1.2-.7-2.4-.7-2.4s1.1-.2 1.1-1.1c0-.9-.9-2.1-.9-2.1l-.4-2.1 3.1-2.3.3-.2-19.8-2-8.5-6-9.8 1.2-7.7 2.8-12.5 3-1.4 4.2-7.6-1.6-2.6 5.2 2.6 1.2h-4.8l-1 3-2-1.9-1 1.1s1.5 2.4-.9 1.4l-2 2.1-1.9-.6-.2.2-1.4 1.3s-4.9 5-1.4 16.3l.3 3.7 1.8 4.3 5.1 11 .2-3.4 5.2-3.8z"/>
</g>
<g id="N17" class="small-box amanah">
<path class="st5" d="M614.4 418.9l.9.3-.9-.3zM616 419.5l-.7-.3z"/>
<path class="st1" d="M649.4 407.2V404l3.1-3.5-.3-2.7-.8-.3.6-8 4.4-1.2-2.3-3.9.6-.7-20.1-1.6-4.6-3.3-2.8 4.9H618l-.9 1.8-1.6-1.8-2.6-.8v2.2h-2l-4.9 4.8-2.9-3.1.2.3v2.5l4.3 6.5-3.6 6-3.1-1.5-5 2.6 4.5 4.2-1 3.1.8 3.5 9.5-4.2 2.2 1.8-1 6 3.5 1.3.9.3.7.3 2-7.4 6.3 1.2s3-.8 4.4 2.2l2.6.7 1-.7 3.6.4 2 2.1 4-.8 1.6.6.9-1.6 1.6 1.4 7.5-1.6v-3.2l-4.1-5.6z"/>
</g>
<g id="N18" class="small-box bn">
<path class="st5" d="M616 419.5l-.7-.3z"/>
<path class="st1" d="M742.3 411.9l-4.7-7.5 2.8-9.5.9-7.8-1.2-2.3-4.2 2.3-.1-2.4 1.4-1.4-1.1-1.5-.6.2-1.9.7-.2-2.7-6.2 3.8s-1.5 10.1-11.8 7.7l-6.7-2.3-8.1 3.1-4.8-.6-13.4 8.5-.5-3.5s-2.3-1.9-2.6-2.4c-.3-.5-1.6-3.2-1.6-3.2l-4.8.7-2.4-1-8.1 5-1.4 3.2-3.3.9-5.4-2.1.3 2.7-3.1 3.5v3.2l4.1 5.5v3.2l-.6 2.6-1.5 1.7-.5 2.5 1.7 3.1s-3 8.4-3.2 11.4l-6.3.7-4.4-7.4-4.5 1.5s-2 7.1-4.5 7.9l.1.1 4.8 5.1h5s2.4.2 2.8 0c.4-.2 2.1-.4 2.1-.4s1.3.3 1.5.5c.2.2.7 1.4.7 1.4s.3-.3 1.6 0 2.4.1 3.1 0c.6-.1 1.2-.3 1.6-.6.4-.3 2.1-1.6 2.1-1.6l1.4-.3s.6 1.5 1 1.8 1.4-1.3 1.4-1.3l1 1.3 1.4-2.3 2.1 1s1.1-2.8 1.4-2.7c.3.1 3.3.3 3.3.3l2-3.5 1.3 2.7-.5 1.4 3.8.7 1.3 3.3s3.6-3.7 6.4.9l2.2.8 1.5 1.5s1.7-.4 2.5-2.9l3.5 2.1.5-1.5 7 3.9s.8 0 0-2.9 1-2 2.3-1v2.3l1.8 2.7-.7 5s2.1.5 3.1-3.7l1-.5 7.1 3.6 3.2-1-1.1-3.3 5.5-4.2 3.3-6.9v-3.8h2.7l3.3-1.9s-1.7-5.6 1.9-4.9l2.5-.6 1.1-2-1.3-.6 2.2-2.2 1.6.7 1.9-2.9 3.9-6c.1-.1 1.4-1.1-2.7-5.6z"/>
</g>
<g id="N19" class="small-box dap">
<path class="st1" d="M590.5 379.9l-1.8-4.3-.3-3.7c-3.5-11.3 1.4-16.3 1.4-16.3l1.4-1.3-16.5-8.7-2.8 1.7-.6 4.5 1 2-2.3 7.1-1.8.9s3 6.2-2.3 11.7c0 0-2.5 3.2-2.9 5.7l-3.6.4-.6-10.8-6.5.3-6.2-1.3-10.2 2.5v4.8l.4 1 6.1 14.4-.9 1.5h2.4l1.3 3-6.5 8.6-.4 3.7 8.9 2.9h3.3l-2.7 10.2-.1.3c.1 0 .1 0 .2-.1-.1.6 1 .4.7 1.1h.3c1.6 0 2.1 2.7 3.8 2.6.6.6 3.6 1.1 6.2 1.4 0 0 .2-4.5.1-4.9-.1-.4 7.6-16.7 7.6-16.7l6.1 6.4h3.1l.5-2.6-.9-3.9c-3.6 0-9.1-2.4-9.1-2.4l-6.5-5.7.5-1.4 1.9.5v-.6c3.8.3 5.3-1.4 7.2-4.6 1.9-3.2 5.6-2.6 5.6-2.6v-4.4l4.3-2.1 4.3 2.9v4.7c-.4 1.5 2.2 2.2 2.2 2.2l2.2-.6 3.1 2.4 3.2.1 1.4-1.4-5.2-11.1z"/>
</g>
<g id="N20" class="small-box dap">
<path class="st1" d="M594.6 423.4l2.8-.5.8-4.2-2.5-1.7-1.6.9-9.3-4.7h-3.7v-1.4l-5.3-1.3h-3.1l-6.1-6.4-7.6 16.7-.1 4.9 4.5.4s6.3 2.3 6.5 4c0 0 0 .7-2.7 2.1 0 0 3.8 4.5 3.4 7.5h3l4.3-.4 6-5.1.3-1.7-2.9-.4v-3.3l5 1.6v-4.7l4.9 1.1 3.4-3.4z"/>
</g>
<g id="N21" class="small-box dap">
<path class="st1" d="M594.6 423.4l2.8-.5 3.5 2.1s5.1 1.3 7.1.5c0 0 4.1-.8 6.3-6.7l1.6.6 2-7.4 5.8 1.1s4-.6 4.9 2.3l2.6.7 1-.7 3.6.4 2 2.1 4-.8 1.6.6.9-1.6 1.6 1.4 7.5-1.6-.6 2.6-1.5 1.7-.5 2.5 1.7 3.1s-3.3 9.1-3.2 11.4l-6.3.7-4.4-7.4-4.5 1.5s-2.3 7.8-4.4 8l-2.1 1.9h-3.2l-2.2-2.2-1.4 1.1-6-2.7v1.2l-5-1 5-3.5-3.6-.6s-2 .9-2.9.8l-3.5-1.4-2.3 1.1-3.4-1.2s1.8-2.3-2.9-5.9l-.4-2.5-1.2-1.7z"/>
</g>
<g id="N22" class="small-box dap">
<path class="st1" d="M598.2 441.9l.4-4.6h1.9l2.1-2.6-.3.1-3.1-1.3c1-4-2.9-5.9-2.9-5.9l-.4-2.5-1.3-1.7-3.5 3.4-4.9-1.1v4.7l-5-1.6v3.3l2.9.4-.3 1.7-6 5.1h.2c.4 0 .7-.1.7-.1l-.9 2c-1.1 2.5 9.4 3.3 9.4 3.3 1.6 3.5 5.4 3.7 5.4 3.7l.9-1.2 4.2 2.7 2.1-3.3c1.8.9 5.5 2.9 9.3 5l.6-7-11.5-2.5zM579.6 448c6.7 4.5 11.5 1.8 11.5 1.8-2.2-3.3-11.5-1.8-11.5-1.8z"/>
</g>
<g id="N23" class="small-box ppbm">
<path class="st1" d="M679.4 472.4c-2.5-15.1 1.7-16.3 1.7-16.3.7-5.1 5-6.2 5-6.2l-1.5-1.5-2.2-.8c-2.8-4.6-6.4-.9-6.4-.9l-1.3-3.3-3.8-.7.5-1.4-1.3-2.7-2 3.5s-3-.2-3.3-.3c-.3-.1-1.4 2.7-1.4 2.7l-2.1-1-1.4 2.3-1-1.3s-.9 1.6-1.4 1.3-1-1.8-1-1.8l-1.4.3s-1.7 1.3-2.1 1.6c-.4.3-1 .5-1.6.6-.6.1-1.8.3-3.1 0s-1.6 0-1.6 0-.5-1.2-.7-1.4c-.2-.2-1.5-.5-1.5-.5s-1.7.2-2.1.4c-.4.2-2.8 0-2.8 0h-5l-4.8-5.1-2.1 1.9h-3.2l-2.2-2.2-1.4 1.1-6-2.7v1.2l-5-1 5-3.5-3.6-.6s-2.9 1.2-3.7.6c-.8-.6-2.6-1.2-2.6-1.2l-2.3 1.1-2.1 2.6h-1.9l-.4 4.6 11.4 2.5-.6 7c5.1 2.8 10.1 5.6 10.1 5.6 5.4 3 12.7 5.4 12.7 5.4 13.6.3 23 8.8 23 8.8 3.6 5.4 5.1 4.8 5.1 4.8s9-.1 16.5 1.7l2.9-5.2zM669.7 520.9s-1.2-1.5-3.3-1.5c0 0-3.6.9-3 3 0 0-1.2.9-2.1.3 0 0-1.5 1.2 1.2 2.4 0 0 5.4.3 3.3 7 0 0-.6 3 3.3 1.8l.3-3s4.2-3.9 6.3-5.7l.3-2.4.6-2.1c0-.1-5.4-.7-6.9.2z"/>
</g>
<g id="N24" class="small-box dap">
<path class="st5" d="M686.4 295.3h-.5l.5.2z"/>
<path class="st1" d="M789.2 314.8l-1.6-2.4-2.7.9-3.7-4.4h-2.3l-.9-1.7h-2.1l-3.1-1.6-4.3 2.7-3.5-1.9h-2.1l-1.1-1.6-6.7 2.4-1.2-3.9 3.5-4.1-.1-2s2-1.3 2-1.7c0-.4-1.1-3.5-1.1-3.5l1.5-2-12.4-7.4-1.2 1.7-2.1-1.7 1.4-2.3-3-28.2.9-6.5-2.5-5.6-1.6-8-1.7-1.6-3.6 3.5-1.5 2.1-1.7-1.1-3.7 1.9-3.6-1.5-3 .5-4.4-2-5 1.2-2.9-3.9-4.3-.8-1.8 2.7h-2.3l-1.1 3.9 3.3 12.7-8.6 2.9-2 7.4 2.1.6 2.1 3.7-6.6 16.9-2-.9-1.5 5.6 2.8 1.7-.8 2.5h-2l-.4 1.6 1.2.5-.9 3.1.4.1h.5v.1l-1.3 11.3-2 .7-6.8 27.3c-.5 4.9-4.2 6.4-4.3 6.4l-3.1 2.3.4 2.1s.9 1.2.9 2.1c0 .9-1.1 1.1-1.1 1.1s.4 1.2.7 2.4c.3 1.2.8 1.4 1 2.3.2.9-.9 2.3-1.3 3.1-.4.8-.5 4-.5 4l-9.2 17.8s-.8.9-1.2 1.5c-.4.6-2.3 2.1-2.3 2.1l-1.5 1.6-.6.7 2.3 3.9-4.4 1.2-.6 8 .8.3 5.4 2.1 3.3-.9 1.4-3.2 8.1-5 2.4 1 4.8-.7s1.3 2.7 1.6 3.2c.3.5 2.6 2.4 2.6 2.4l.5 3.5 13.4-8.5 4.8.6 8.1-3.1 6.7 2.3c10.3 2.4 11.8-7.7 11.8-7.7l6.2-3.8.2 2.7 1.9-.7 2-4.3 1.5-2.3 3.5 2.3 1.2 1.7s1.5-.3 1.2-4l-4.7-12.6 1.7-2.3.1-2.4 7-6.3-4.7-5.5 1.6-7.4h9.5l7.5-5.1 28.2-19.1h-1.7z"/>
<path class="st5" d="M685.9 295.3l-.4-.1v.1z"/>
</g>
<g id="N25" class="small-box bn">
<path class="st1" d="M876.9 250.5l-4.9-2.8-2.5-5.1c-.8-2.5-4.8-2.4-4.8-2.4l.8-1.3c-3.3-4.5-4.7-.3-4.7-.3l-2.9-.9-2.3.8-3.1-1.6-1.9 5.5-12.9 2.9 3.6 11.4-56.4-4.5-4.4-1.7-7.1.1c-14.2-11.5-32.6-10.6-32.6-10.6l2.5 5.6-.9 6.5 3 28.2-1.4 2.3 2.1 1.7 1.2-1.7 12.4 7.4-1.5 2s1.1 3.1 1.1 3.5c0 .4-2 1.7-2 1.7l.1 2-3.5 4.1 1.2 3.9 6.7-2.4 1.1 1.6h2.1l3.5 1.9 4.3-2.7 3.1 1.6h2.1l.9 1.7h2.3l3.7 4.4 2.7-.9 1.6 2.4h1.9l-28.2 19.1 1 2.2h4.3l11.8 9 3.4-1.5v1.9l2.4-.5v2.5h4.7c3.6 1.9 7 9.4 7 9.4.7 4.9-7 4.5-7 4.5l-3.1 1.3 5.7 14.3 3.1 3.2-1.5 1.3v5.6h4.8l.4-.7 41.7 3.7 9.6 3.7c.2-.4.4-.8.5-1.2 1-3.2-3.1-2.4-3.1-2.4.6-2.1-3-4.5-3-4.5-2.7-1.2-1.5-3.9-1.5-3.9 7.6-.3 4.5-3 4.5-3-4.8-10 1.7-17.5 1.7-17.5.1-.5.1-1.1.5-1.6.2-.2 0-.7.1-1.1.1-.4.8-.5.7-1.1-.3-1.5-.3-2.7-.1-3.8.5-3.1 2.7-5.1 3.1-9-.9-2.1.8-4.9.9-7.6.9-2.4.7-6.7 1.7-8.3l2.6-1.3c5.1-2.1 1.5-5.1 1.5-5.1 4.8-4.5 3.3-7.3 3.3-7.3-3-4.2.3-5.4 0-8.8-.3-3.3 4.3-7.5 4.3-7.5.7-.8 1.2-1.7 1.8-2.6.3-.4-.1-1.4.2-1.7.9-.9 1.2-2.5.8-3.4-1.4-3.1-2-6.9-5-9-.9-2.4-3.6-2.7-2.9-5.3.4-1.5.7-3.2 1.7-4.5v.4c0-.6.9-1.4 1.4-2.3.2-.3.1-.9-.1-1.5-.3-.9.4-2 .8-2.8.3-.7.4-1.3 1-1.8 2.4-2.2 7.2-1.9 8.9-3.5 2.3-.7 4.4-1.7 4.7-2.6.3-.9-.9-3 0-5.1.9-2.1 10.9-7.3 10.9-7.3.3-.7.4-2 .5-3.1l-5 2c-6.5 8.1-11.7 5.8-11.7 5.8z"/>
</g>
<g id="N26" class="small-box bn">
<path class="st1" d="M748.1 486.3l-1.4-1.5 2.1-2.9-.7-2.4-2.9-1.7.6-9.6 1.7.5 2.1-4.8v-2.5l-3.9-.9.3-1.9 3.1-.8 1.3-.8.8-5.7s.7-7.5 4.7-5.9c0 0-2.7-4.7-.7-6l-1.2-3.7h3.1l1.7-2.9 1.6 2.4 1.6-2.4h1.9l-.7-1.8 1.2-1.6V416l-2 .7.4-2.3-2.7-5.1s-1.3-1.3-2.7 2.3l-2.7 10.2.6 2.9-14.3-1.3-1.9 2.9-1.6-.7-2.2 2.2 1.3.6-1.1 2-2.5.6c-3.6-.7-1.9 4.9-1.9 4.9l-3.3 1.9h-2.7v3.8l-3.3 6.9-5.5 4.2 1.1 3.3-3.2 1-7.1-3.6-1 .5c-1 4.3-3.1 3.7-3.1 3.7l.7-5-1.8-2.7v-2.3c-1.3-1-3.1-1.9-2.3 1 .8 2.9 0 2.9 0 2.9l-7-3.9-.5 1.5-3.5-2.1c-.8 2.5-2.5 2.9-2.5 2.9s-4.4 1.1-5 6.2c0 0-4.3 1.2-1.7 16.3l-2.9 5.4c.5.1 1.1.3 1.6.4 2.9.8 5.5 2 7 3.7L699 491c.9-.3 6.8 3.9 7.4 4.2 2.1 1 4.2 2.4 5.7 4.1 4.7 5.3 28 3.2 28 3.2 1.6-.2 3.5 0 5.6.3l1.4-14.8 1-1.7z"/>
</g>
<g id="N27" class="small-box bn">
<path class="st1" d="M804.4 488.6c-.3-.4 0-4.9 0-4.9h3.1l2.3 1.2 2.5-2.8-4-1.1-2 .5c.3-1.1 1.9-2.5 1.9-2.5l3.3.5-.4-1.7 6 1.3v-2l-1.5-2.4 3.9-1.6 2.7-4.4-1.6-1.1-1.6 3.2s-4.3 1.6-9 .4l-1.2.8-3 2-5.2-1.1-1.5-6.4s-2.5-.4-2.9 0c-.4.4-12.2-8.9-12.2-8.9l4.8-13.1s3.2-1.7 1.3-10.3c0 0 2.8-6.3 1.3-13l.9-4.9-.4-2.8 1.3-10.2 5.6-6.7-1.3-6.6 1.8-2.9h-4.8v-5.6l1.5-1.3-3.1-3.2-5.7-14.3 3.1-1.3s7.6.4 7-4.5c0 0-3.3-7.5-7-9.4h-4.7V345l-2.4.5v-1.9l-3.4 1.5-11.8-9h-4.3l-1-2.2-7.5 5.1h-9.5l-1.6 7.4 4.7 5.5-7 6.3-.1 2.4-1.7 2.3 4.7 12.6c.3 3.7-1.2 4-1.2 4l-1.2-1.7-3.5-2.3-1.5 2.3-2 4.3.6-.2 1.1 1.5-1.4 1.4.1 2.4 4.2-2.3 1.2 2.3-.9 7.8-2.8 9.5 4.7 7.5c4.1 4.4 2.8 5.4 2.8 5.4l-3.9 6 14.3 1.3-.6-2.9 2.7-10.2c1.3-3.6 2.7-2.3 2.7-2.3l2.7 5.1-.4 2.3 2-.7v13.3l-1.2 1.6.7 1.8H762l-1.6 2.4-1.6-2.4-1.7 2.9H754l1.2 3.7c-2 1.3.7 6 .7 6-4-1.6-4.7 5.9-4.7 5.9l-.8 5.7-1.3.8-3.1.8-.3 1.9 3.9.9v2.5l-2.1 4.8-1.7-.5-.6 9.6 2.9 1.7.7 2.4-2.1 2.9 1.4 1.5-1.1 1.6-1.4 14.8c3.2.6 6.9 1.8 10.7 3.3 13.1 5.1 27.3 13.6 27.3 13.6 5.4 3 11.2 1.8 11.2 1.8h.5l.2-9.1c0 .2 9.2-23.2 8.9-23.6z"/>
</g>
<g id="N28" class="small-box bn">
<path class="st1" d="M894.3 497.9l1.8-.9c4.5-2.1-2.1-2.1-2.1-2.1l-.6-2.7c3.9-.6 1.2-2.1 1.2-2.1-1.2-1.5-2.7-1.8-2.7-1.8 2.1-5.7-1.5-5.7-1.5-5.7v-3c3.6-3 1.8-4.2 1.8-4.2-.6-1.5-4.8 0-4.8 0 .9-1.2.9-5.4.9-5.4.9-8.8-3.3-2.4-3.3-2.4-.3 1.2-1.8.6-1.8.6-.3-4.5-3.9 0-3.9 0-2.1 1.8-5.4 1.2-5.4 1.2-2.4.3-.9-5.1-.9-5.1-1.8-2.4-5.1 2.4-5.1 2.4-1.5-2.1-3.3-.3-3.3-.3-1.5 2.4-4.2 0-4.2 0 0-6.6-3.3-7.6-3.3-7.6-.6-3.6-3.6.3-3.6.3-2.4 1.5-3.9 0-3.9 0 0-3-1.5-3.9-1.5-3.9-2.4.3 0-3.3 0-3.3 2.1-2.4-3-2.7-3-2.7-2.1 6.6-7.3 5.1-7.3 5.1-.3-1.5-4.8-2.1-4.8-2.1-4.8-.9-3.6-4.5-3.6-4.5 2.4-3.9 1.5-6.4 0-7.6-1.5-1.2-1.2-4.5-1.2-4.5.3-2.7-3.3-2.4-3.3-2.4l-2.1.6c-4.8.3 1.2-8.5 1.2-8.5l3.3-.6c.9-2.4 6-2.4 6-2.4 5.1-.6 3.9-6.7 3.9-6.7l3.3-1.2c2.1-2.4 7.6-4.5 7.6-4.5 3.6-.9 1.8-4.2 1.8-4.2 1.8-3.6.9-10 .9-10 .3-.5.6-.9.8-1.3l-9.6-3.7-41.7-3.7-.4.7-1.8 2.9 1.3 6.6-5.6 6.7-1.3 10.2.4 2.8-.9 4.9c1.5 6.7-1.3 13-1.3 13 1.9 8.6-1.3 10.3-1.3 10.3l-4.8 13.1s11.8 9.3 12.2 8.9c.4-.4 2.9 0 2.9 0l1.5 6.4 5.2 1.1 3-2 1.2-.8c4.7 1.2 9-.4 9-.4l1.6-3.2 1.6 1.1-2.7 4.4-3.9 1.6 1.5 2.4v2l-6-1.3.4 1.7-3.3-.5s-1.6 1.5-1.9 2.5l2-.5 4 1.1-2.5 2.8-2.3-1.2H805s-.3 4.5 0 4.9c.3.4-8.9 23.8-8.9 23.8l-.2 9.1h.2c22.5.3 45.9 18.1 45.9 18.1 3.3 0 .3-6.7.3-6.7l2.7-2.1c0 3.9 2.7 2.7 2.7 2.7 1.8-4.5-3.6-8.2-3.6-8.2-3.9-3.3-7-.9-7-.9-.9-4.2 3.6-3.6 3.6-3.6 3.6.6 3.3-2.4 3.3-2.4.6-2.4 3.9-1.2 3.9-1.2 4.8 2.1 11.2 0 11.2 0 2.1-1.5-1.5-3.6-1.5-3.6-3.9-2.7 1.2-3.6 1.2-3.6l1.2-1.2c2.4-1.2 2.1 6.3 2.1 6.3 6.3 2.1 9.1 0 9.1 0l1.8 1.8-1.8 3.6c-1.8 6.4 3.3 2.7 3.3 2.7 3.6-1.8 2.4-6.7 2.4-6.7l1.8-1.8 2.4 4.5 2.7-1.2-.6-2.4c1.5-.6 3.3 2.7 3.3 2.7 2.1-.3.9-2.7.9-2.7-.6-1.8 1.8-3 1.8-3 4.2-3.3-1.2-5.4-1.2-5.4-1.5-1.8.6-1.8.6-1.8 5.1.6 6.3-4.8 6.3-4.8h2.4c3.7-3-3-3.3-3-3.3z"/>
</g>
<g id="text">
<path class="frames" d="M-25.8-32.9h1317.7v887.6H-25.8z"/>
<path class="frames" d="M546.7 420.1v34.8M676.6 477.8v26.9h14.1V541"/>
<text transform="translate(333.739 229.268)" class="st3 st4">
      N1
    </text>
<text transform="translate(394.614 286.195)" class="st3 st4">
      N2
    </text>
<text transform="translate(404.756 204.794)" class="st3 st4">
      N3
    </text>
<text transform="translate(455.909 283.406)" class="st3 st4">
      N4
    </text>
<text transform="translate(473.061 194.76)" class="st3 st4">
      N5
    </text>
<text transform="translate(525.08 272.143)" class="st3 st4">
      N6
    </text>
<text transform="translate(554.653 194.76)" class="st3 st4">
      N7
    </text>
<text transform="translate(636.423 235.994)" class="st3 st4">
      N8
    </text>
<text transform="translate(611.957 318.13)" class="st3 st4">
      N9
    </text>
<text transform="translate(765.144 201.237)" class="st3 st4">
      N10
    </text>
<text transform="translate(450.282 342.415)" class="st3 st4">
      N11
    </text>
<text transform="translate(465.879 383.39)" class="st3 st4">
      N12
    </text>
<text transform="translate(538.957 337.01)" class="st3 st4">
      N13
    </text>
<text transform="translate(505.373 387.128)" class="st3 st4">
      N14
    </text>
<text transform="translate(570.984 399.268)" class="st3 st4">
      N15
    </text>
<text transform="translate(616.355 360.253)" class="st3 st4">
      N16
    </text>
<text transform="translate(616.355 398)" class="st3 st4">
      N17
    </text>
<text transform="translate(679.9 421.596)" class="st3 st4">
      N18
    </text>
<text transform="translate(543.36 404.143)" class="st3 st4">
      N19
    </text>
<text transform="translate(561.861 420.013)" class="st3 st4">
      N20
    </text>
<text transform="translate(614.771 424.758)" class="st3 st4">
      N21
    </text>
<text transform="translate(569.89 437.474)" class="st3 st4">
      N22
    </text>
<text transform="translate(642.31 457.63)" class="st3 st4">
      N23
    </text>
<text transform="translate(700.354 318.129)" class="st3 st4">
      N24
    </text>
<text transform="translate(804.713 315.453)" class="st3 st4">
      N25
    </text>
<text transform="translate(704.06 469.09)" class="st3 st4">
      N26
    </text>
<text transform="translate(761.925 410.885)" class="st3 st4">
      N27
    </text>
<text transform="translate(832.644 478.813)" class="st3 st4">
      N28
    </text>
</g>
</svg>