<svg xmlns="http://www.w3.org/2000/svg" version="1.1" viewbox="0 0 1240 640" preserveaspectratio="xMidYMid slice" id="svgP">
<g id="P126" class="small-box bn">
<path class="st1" d="M773.1 256l-.5-2.3.3-5.3-5.1-4.1-.3-4.1-2.8-2.8s.8-1.3.5-2c-.3-.8-2-3-2-3v-8.3L723 172.4l-56.3-12.2-70.2-22.4-4.7-5.8-3.4-4.1-4.8.3-1.4 2-2.4-.3-2.4-2.7-4.4-.3-.3 3.7-.3 2.4-2.4-2.4-7.1.7-6.1 4.4-3.1.7-1.7 4.1-.3 3.7-3.4-2.4-3.7 3.1-3.1-1.7-.3-6.1-2-2V132c4.4-3.7-.3-7.5-.3-7.5-.7-7.1-1.7-6.4-1.7-6.4-2-9.2-8.1-6.1-8.1-6.1l-4.7-1-3.4-.7-4.1 3.1-4.1-3.1-5.1-3.1h-3.4l-6.8-5.4c2.7-.3 1-6.4 1-6.4l-2.7-3.4c-.3-2.4-.3-4.7-.3-4.7l-3.4-.7-5.8 1-3.7-5.4-2.4-1-3.7-2.4-2.4 2.7-.7 4.7-2 2.7-2 .7-4.8 5.1 6.4.3 1 2 1.7 1 1.7 1.4-1.4 3.4 2 2.7 2.7 2 2.7 5.8 1.4 3.4.7 4.1.7 2.7-2 .7.7 6.8-4.1 4.7 2.7 1.4L484 148l2.7 1.4 1.7 3.4v3.1l4.4 3.4-2 5.1-.7 6.4-6.1 4.1v5.1l3.4 4.4 1.4 6.8 2.4 2.7-1.7 7.8 3.7 3.7-1.4 1.4 1 3.4 2 8.1-2 2.7-4.4-1-6.1 6.4-2-.7-1.7 3.1 2 2.7-2.4 4.1-2.4-1-2 1.7-.3 4.4-.7 4.1-.3 2-2.4 1.7.3 2.7-.1.3 6 2.1 1.3 3.3 1.8-1.5 4.8 1.8-1.3 4.6s14.7 0 18 9.9l-.8 1.8 1 3.3 4.3 2.3-4.8 5.6.5 3.8 2 1.8.5 5.1-2 2.5 6.8 16.5 9.4 5.6s4.1-5.1 6.3 3.6l3.3 1.3 2 2 4.6-4.6 2 1.8 2 .3 1.5-2.3h3.6l2.5-3 .3 4.6-.9 1.2 6.5-1 4.1-5.6 5.8-1.5-.5-2.8 2-7.4 5.1-1.5-.3-4.3 2.5-1.8 2-2.5 7.4-3.8v-2l5.6-2 3.8 3 6.3-2.3 3.6-.3 2-2.3 10.9 4.8 4.1-3.6.8-4.3 5.8-.8 8.9 3.8 4.3-2.3s2.4 1.6 4 1.8c1.2.2 2-.4 1.3-2.6l-2.5-6.8 1.8-2.3 4.6 1 .8-2.5 6.1-8.4 3.8 3.8 1.5-2.3 13.4 9.6 1.3-3.3 9.6 3-1 8.1 12.4.3L705 278l13.2 6.8s.5-3.6 3-4.3c2.5-.8 2-4.6 2-4.6l8.4 1.3.5 6.8-2.5.3v4.1l2.5.8-1 4.1-1.8-.8-1.3 2.3 3.8.3-.5 22.1 6.8.5 11.2-10.4 4.3.8 3.3-6.6-.8-2.8.8-6.8 2.8-6.8-3.6-5.8-1.8-2.5.3-1.8 1-3.8 1.5-1.8 4.8-.8 5.6.5 4.3-6.3-.3-4.3 1.6-2.5z"/>
</g>
<g id="P127" class="small-box bn">
<path class="st1" d="M885.2 320.3l1.7-5.4-1-7.8-2.7-8.1-3.1-4.4-1.4-2.7-3.7-1.7-.3 3.1-4 2.9-106.2-70.4-.4-.6-.8-1v8.3s1.8 2.3 2 3c.3.8-.5 2-.5 2l2.8 2.8.3 4.1 5.1 4.1-.3 5.3.5 2.3-1.3 2 .3 4.3-4.3 6.3-5.6-.5-4.8.8-1.5 1.8-1 3.8-.3 1.8 1.8 2.5 3.6 5.8-2.8 6.8-.8 6.8.8 2.8-3.3 6.6-4.3-.8-11.2 10.4-6.8-.5.5-22.1-3.8-.3 1.3-2.3 1.8.8 1-4.1-2.5-.8v-4.1l2.5-.3-.5-6.8-8.4-1.3s.5 3.8-2 4.6c-2.5.8-3 4.3-3 4.3l-13.2-6.8-12.2 5.8-12.4-.3 1-8.1-9.6-3-1.3 3.3-13.4-9.6-1.5 2.3-3.8-3.8-6.1 8.4-.8 2.5-4.6-1-1.8 2.3 2.5 6.8c.6 2.2-.2 2.7-1.3 2.6l.3.7c9.1 3.6 12.2 11.4 12.2 11.4l4.3 1.5 3.6 5.1 2.5-1.5 6.8 4.8 1.3-1.5 2 2.3-1 2.8c.5 3.8-2.5 9.4-2.5 9.4l-1 4.8 10.1.8 2.3 3.3.3 2.5 11.2 12.7h2l1.5 3v4.3l3.3 7.4 10.1-1.5-.3-6.3 12.4-.3 2.8 8.1 2 2.3.3 1.5-2.8 4.3.8 9.4-2.3 2-1.8-.8.3 3.3-4.3 5.1-2.3-.5-3 1.5c0 3.3-3 5.3-3 5.3l-3.3-.3c-2.8 1.3-3 6.6-1.8 11.4 1.3 4.8-.5 5.8-3.6 8.1-3 2.3-.5 5.6-.3 7.6.3 2-8.6 5.1-8.6 5.1l8.1.8-.9 24.6 44-48.9 66.2 2.5v7.1h1l8.1 7.9 8.1-2.8 8.1 5.8 2-1.3 2 2 13.9.8.3-.9 37.7-98.5-4-3.7z"/>
</g>
<g id="P128" class="small-box dap">
<path class="st1" d="M546.1 323.2l-.3-4.6-2.5 3h-3.6l-1.5 2.3-2-.3-2-1.8-4.6 4.6-2-2-3.3-1.3c-2.3-8.6-6.3-3.6-6.3-3.6l-9.4-5.6-6.8-16.5 2-2.5-.5-5.1-2-1.8-.5-3.8 4.8-5.6-4.3-2.3-1-3.3.8-1.8c-3.3-9.9-18-9.9-18-9.9l1.3-4.6-4.8-1.8-1.8 1.5-1.3-3.3-6-2.1-.5 1.2-22.5 54.9-69.5-2 1.7 26.9.6 9.3 11.7-3.1 8.1 3.3 1.3-1 7.4 3.8.3-1 4.6-2.3 3.3 6.6-2 1.8 2.5 6.1 7.6 2.5 5.8-9.4 15.2 7.9 5.8-.3 2.8-1.8 5.1 1-.5 2.3-3.8-.3-3.8 10.9 9.4.3-.5 5.1 2.5.3 1.3 4.1 2.3-.3 7.4 5.1 2-4.6 3.3 2.5-1 3.8 7.4 3.8 2.8-.5 1.8 1.3 2.5-1.3v-2h3l1.6 1.7 1 1.1 1.3-1 .5-5.3 8.6 1 4.1.5s4.1 5.8 9.4.3l5.6-1.8 4.6 1.5h4.1l1.3-2.8 2.9.9.1-1.9-.8-1.3 1-4.3.5-4.3c-3-1.5-2-4.1-2-4.1-3-2-.3-10.1-.3-10.1l-1.3-4.6 1.3-3.6-2.3-6.6 1.8-2.3 4.1-2 .3-3.8 2-2.8-1-4.3 1.4-1.8.4-1z"/>
</g>
<g id="P129" class="small-box ppbm">
<path class="st1" d="M579.9 292.3l-7.4 3.8-2 2.5-2.5 1.8.8 4.2-5.6 1.6-2 7.4.5 2.8-5.8 1.5-4.1 5.6-6.5 1-1.4 1.8 1 4.3-2 2.8-.3 3.8-4.1 2-1.8 2.3 2.3 6.6-1.3 3.6 1.3 4.6s-2.7 8.7.3 10.1c0 0-.9 3 2 4.1 0 0-1 7.7-1.5 8.6l.8 1.3-.3 4.6-2.5 2.5.5 3.8s-4 4.3-.5 8.4c0 0 .8 1.1 2.3 1.8l4.1 3.8 2.5-2 2.8.5 2.3-4.1 1.3-5.6 1.3 1.8 2.2-2.4 1.6-3.1 3.6 2.8.3-2 9.4.3 1.5-.5 5.1 3.6-4.8 18-3 1.8 2.5 2.5.3 6.5s-1.3 7.8 6.3 8.4l1.8 2.1h1.8l4.1 2.8s.2 5.8 5.9 6c0 0 1.9.2 3.8-1.1l1.9-.9 1.8 2.8-1.5 1 4.3 5.6 4.3 3.3v3l-1.5 1.5 1.8 3.9.7 2 4.8 6.8s5.3.4 5.3 4.6l.7 1.9.3.9.4 2.8s2.9-.1 5.5 2l1.3-2 6.1 3.8 3.6-5.1 1.5 1.8 3-.8 35.5 3.3 9.4-1.5 2.3-6.2.5-11.3-3-.3 12.3-13.7.9-24.6-8.1-.8s9.1-3.3 8.6-5.1c0 0-3.5-6.5 1.6-8.6 0 0 4.8-1.7 1.8-8.9 0 0-1.8-7.3 2.2-9.6l3.3.3s3-1.8 3-5.3l3-1.5 2.3.5 4.3-5.1-.3-3.3 1.8.8 2.3-2-.7-9.2 2.8-4.5-.3-1.5-2-2.3-2.8-8.1-12.4.3.3 6.3-10.1 1.5-3.3-7.4v-4.3l-1.5-3h-2l-11.2-12.7-.3-2.5-2.3-3.3-10.1-.8 1-4.8s2.7-4.4 2.5-9.4l1-2.8-2-2.3-1.3 1.5-6.8-4.8-2.5 1.5-3.6-5.1-4.4-1.7s-3.8-8.3-12.1-11.2l-.3-.7s-1.2 0-4-1.8l-4.3 2.3-8.9-3.8-5.8.8-.8 4.3-4.1 3.6-10.9-4.8-2 2.3-3.6.3-6.3 2.3-3.8-3-5.6 2v1.5z"/>
</g>
<g id="P130" class="small-box dap">
<path class="st1" d="M505.8 411l-2.3-4.1 1.8-2.8-7.6-6-1.5-3.1-1.5 1 2.5-8.1-1.5-1.8h-3.1v2.1l-2.5 1.2-1.8-1.2-2.8.5-7.3-3.8 1-3.8-3.3-2.6-2 4.6-7.4-5.1-2.3.3-1.2-4.1-2.6-.2.5-5.1-9.4-.3 3.8-10.9 3.8.3.6-2.3-5.1-1-2.8 1.8-5.8.2-15.3-7.9-5.8 9.4-7.6-2.5-2.5-6.1 2-1.8-3.3-6.6-4.6 2.3-.2 1-7.4-3.8-1.2 1-8.2-3.2-11.6 3.1 2.7 41v.6l8.7-.4 7.3 23.9-.2 4.5 18.5.8v-.1l4.1-11.6 4-3.3h9.7l3.5 3.3-.8 2.8 6.6 6.4v4.3h6.9l.2 3.3h6.1V415l4.3-2.2 4.9 1.5.5 4.5h3.3l-.3-3.2 4.6-.3.5-2.8h4l1.3 2 8.4.5-.3-2.2 1.3-1.6 2 2.8 1.3-1.7 9.9.7 1 2.3 1.3 1 1.7-1.3z"/>
</g>
<g id="P131" class="small-box bn">
<path class="st1" d="M625.5 501.5l-1-2.8-4.6-3-3.8-4.1.5-2-1-2c.3-5.3 2.2-6.9 4.2-7.1l-.4-2.8-1-2.8c.3-4.1-5.3-4.6-5.3-4.6l-4.8-6.8-.5-1.5-2-4.3 1.5-1.5v-3l-4.3-3.3-4.3-5.6 1.5-1-1.8-2.8-3.8 1.8c-7.1 1.5-7.9-5.8-7.9-5.8l-4.1-2.8h-1.8l-2-2.3c-4.6.8-6.3-4.6-6.1-7.6.3-3-.3-7.1-.3-7.1L570 414l3-1.8 4.8-18-5.1-3.6-1.5.5-9.4-.3-.3 2-3.6-2.8-1.3 2.8-2.5 2.8-1.1-1.6-.3 1-1 4.6-2.3 4.1-2.8-.5-2.5 2-4.1-3.8c-7.1-4.1-1.8-10.1-1.8-10.1l-.5-3.8 2.5-2.5.1-2.7-2.9-.9-1.3 2.8H532l-4.6-1.5-5.6 1.8c-5.3 5.6-9.4-.3-9.4-.3l-4.1-.5-8.6-1-.5 5.3-1.3 1-1-1.1-2.6 8.2 1.5-1 1.5 3 7.6 6.1-1.8 2.8 2.3 4.1 1.5 4.1-1.8 1.3-1.3-1-1-2.3-9.9-.8-1.3 1.8-2-2.8-1.3 1.5.3 2.3-8.4-.5-1.3-2h-4.1l-.5 2.8-4.6.3.3 3.3h-3.3l-.5-4.6-4.8-1.5-4.3 2.3v2H451l-.3-3.3h-6.8v-4.3l-6.6-6.3.8-2.8-3.6-3.3h-9.6l-4.1 3.3-4 11.6 4.3 8.7 6.1 3.3 4.8-13.4 12.2 7.6-.5 3.6-1 .3-3.6 11.4h11.2v2.5l10.7-.3.5 10.4h6.1l-1.3 3.3 4.6.5-1.8 15.5 2.3-1 3.8 4.6-.5 6.6-1.8.3.8 3.6 20.8.3-.3-4.3 1.8-1.3v1.8h3l-2.3-9.4-5.6-2.3 25.1 1-.5 14.2h10.4l.5 57.3 2 .9-.4 5 1.8 3.2 3.2.4 2.3.9 1.8-2.3-1.4-3.2 2.7-2.7 3.2.9 1.4-9 1.8-6.3 6.3 4.1 2.3-1.4 3.6 4.5 16.7-8.1 13.1 2.3 18.5-21.7 8.4 5.1 2.3 2.3 3.6 1.4 1 .6 2-4.9-1.5-1.8 4.2-5.7z"/>
</g>
<g id="P132" class="small-box pkr">
<path class="st1" d="M526.6 479.2h-10.4l.5-14.2-25.1-1 5.6 2.3 2.3 9.4h-3.1v-1.8l-1.7 1.3.2 4.3-20.8-.3-.7-3.5 1.7-.3.5-6.6-3.8-4.6-2.3 1.1 1.8-15.5-4.5-.5 1.2-3.3h-6.1l-.5-10.4-10.6.2v-2.5h-11.2l3.6-11.4 1-.3.5-3.5-12.2-7.6-4.8 13.4-6.1-3.3-4.3-8.7v.1l-18.5-.8.2-4.5-7.3-23.9-8.7.4.7 9.6-4.4 3.1v3.4l-2.1 2.4 1.7 1.7-1 2-2.7-1-4.1 6.1 3.1 3 1 5.8-7.5 3.4-4.4 6.8 2.4 3.4v3.3l-1 3.4-3.1-2.3-9.8 6.4-1 2.4 3.7 2.4 1 2.7 10.2 1 3-3.7 5.5-1.4 5.1-1 5.7 4.1 7.1 3.3.4 4.1 3 2 5.1 4.1.4 6.1-2.8 4.1 3.1.7 1.7 3-4.1 8.5v4.1l4.4-1.7 7.2 1 4 4 4.4 4.5 4.8 5.7 5.1 11.2 3.7 2.7-2 2.7-1.1 3.1 2.4 1 2 2.7.4 8.2-1.4 4-.3 6.5 1.4 3.4 4-3.8 4.1.4 3.4-1.4 7.4 1 1.7 1.4 3.1-.7 1-2.4 4.4-1 6.5-1 2.3-1 5.5 3.7 1 3.7 7.8 6.2 2.7-1.1 3.4 2.1 1.7 2.7 2.7 3.1 5.4-4.3 4.1.5 5.9-3.2 3.6-1.3 2.2-4.5 6.4-5 1.8-7.3.4.2.7.3z"/>
</g>
<g id="P133" class="small-box amanah">
<path class="st1" d="M849 439.9l-1.4-6.8 3.6-9.4-13.9-.8-2-2-2 1.3-8.1-5.8-8.1 2.8-8.1-7.9h-1v-7.1l-66.2-2.5-44 48.9-12.3 13.7 3 .3-.5 11.7-2.3 5.8-9.4 1.5-35.5-3.3-3 .8-1.5-1.8-3.6 5.1-6.1-3.8-1.3 2s-2.9-2.3-5.5-2c-2 .2-3.8 1.8-4.2 7.1l1 2-.5 2 3.8 4.1 4.6 3 1 2.8-3.8 5.1 1.5 1.8-2 4.9.7.5 13.6 8.4 24.4 4.5 21.2-11.3 27.6-6.8 35.3 14-1.4 5.4 71.9 20.3 12.2 1.8 2.7 3.2 1.4-4.5-1.8-2.3 1.4-7.7c1.8-15.8 3.6-11.8 3.6-11.8l1.4-.5 2.7-4.1 4.5-2.7V513l-3.6-5.4-.5-7.7 5.9-8.1c-2.3-.9-4.5-7.7-4.5-7.7-1.4-3.2 1.4-9.5 1.4-9.5l-3.2-5 3.6-3.2 1.8-5 3.2-3.2v-1.8l2.3-.9 2.7-.9 1.8-4.5.9-4.1-5.4-6.1z"/>
</g>
<g id="text">
<text transform="translate(613.01 219.717)" class="st2 st3">
      P126
    </text>
<text transform="translate(767.667 313.961)" class="st2 st3">
      P127
    </text>
<text transform="translate(458.82 320.5)" class="st2 st3">
      P128
    </text>
<text transform="translate(616.658 363.333)" class="st2 st3">
      P129
    </text>
<text transform="translate(407.948 385.833)" class="st2 st3">
      P130
    </text>
<text transform="translate(533.626 453.33)" class="st2 st3">
      P131
    </text>
<text transform="translate(441.692 477.467)" class="st2 st3">
      P132
    </text>
<text transform="translate(751.452 477.467)" class="st2 st3">
      P133
    </text>
</g>
</svg>