<svg xmlns="http://www.w3.org/2000/svg" version="1.1" viewbox="0 0 1240 640" preserveaspectratio="xMidYMid slice" id="svgN">
<g id="N1" class="small-box dap">
<path class="st1" d="M394.3 165.3c1.1.1 1.8-.8 2.8-1 1.4-.3 1.8.8 3 1.4l.9-.6c.4-.8 2.1-2.1 3.1-2.2 1 0 1.8.9 2.9.6 1.8-.5 3.3-1.8 5-2.5l1.9-1.1c1.2-.6 1.6-1.4 2.1-2.5.6-1.4 1.2-1.5 2.5-.9l1.1.9c.7 1 2.1 1.4 2.5 0 .2-1.1-.9-1.7-.7-2.8l.3-2.1c.2-.9.6-2.1 1.1-2.8.6-.7 1.8-1 2.2-1.8a5 5 0 0 0 .5-3.8l-1.4-2.2c.1-1.2 1.2-2.5 1-3.7-.2-1.8-1.8-2.2-3.2-2.1l-.3-1.3c1.2-.8 1.4-2 .8-3.2-.6-1.2-1-2.2-1.2-3.5l-.6-1.4c.5-1.4 1.3-2.5 1.7-3.9.4-1.5.7-1.8.2-3.4l-.6-1.6c-.2-1 .2-1.1.2-2.2.1-.5-.1-1-.3-1.5h-.1c-.6 0-3.5-3.3-4.3-4.1-.8-.8-2.2-.3-2.9 0-.6.3-2.5-4.5-3.2-5.3-.6-.8-2.7-1.4-3.8-2.4-1.1-1-2.2.2-2.2.2s-1.1.2-1.8-.6c-.6-.8-1.1 1-1.3 1.4-.2.5-2.1 1-3.3 1.1-1.3.2-1.1 2.4-1.1 3.8s-.6 2.1-1.8 1.6c-1.1-.5-3.7.2-4.1 0-.5-.2-1.8-2.7-2.2-3-.5-.3-2.2-2.7-3.5-3-1.3-.3-2.9-2.2-4-2.7s-2.5.6-3.7 1.3c-1.1.6-2.5 0-2.5 0l-2.5 1.6c-1.6 1-2.5 1.6-2.5 3.8l.6 2.9c.3 1.6-1 2.9-.5 4.5.2.6 1.6 1.8 1.9 2.5.5 1 .3 2.1 1.1 2.9 1.9 1.6 4-.2 4.5 3.3.3 1.9 0 3.2-1.9 3.8l-4-1c-.3 4 2.7 7.8-2.9 9.4l-2.4 2.4c-1 .8-.6 2.7-.5 4 1.9-2.9 3.7-.8 4 1.3.3 1.3 0 1.6.5 2.9.5 1 1.3 1.9 1.8 3 .3-.3.8-.8 1-1.3l4.3-1.6c1.1.6 1.9-.5 3.2 0 1.3.5 1.8 2.4 2.9 3.2 2.4 1.3 4.9 0 4.5 3.8v2.1c.6 3.2-4.1-.3-2.9 3.7.6 1.6 1.9 1.1 3 2.4.6.6.8 1.9 1.1 2.7l.2.8 1-.1c1.2-.5 1.7-.1 2.8-.1z"/>
</g>
<g id="N2" class="small-box bn">
<path class="st1" d="M422.5 218.1c.4.1.6.7 1.1.8.4.1.8-.2 1.2-.4 1-.4 1-.2 1.9-.2 1.6 0 2.4-2.2 3.9-2.6 1-.3 1 .4 1.3 1.1.2.5 0 .4.5.8.5.3 1.3.2 1.9.4l4.3 1.5c.8.3 1.1.6 1.9.4 1.1-.4 1.2-.9 2 .2.4.5.1.5.8.8.5.2 1.2.2 1.7.2.7-.1 1.6-.2 2.1-.5 1.4-.8 1.7-2.4 2.1-3.8.4-1.4 1.3-1.3 2.6-1.4 1.3-.2 2.4-1.3 3.7-1.3-.4-1-1.9-2.9-.9-3.6 1-.7 2.4-.1 3 .7.2.3.2.9.5 1.2.5.5 1.3.5 1.9.9.6.5 1.3 1.3 1.5 2 .2.7.1 2 1 2.3.4.1 1-.2 1.4-.2.9-.1 1.7.1 2.6-.1l2.6-.5.7 1.4c.1 2-.3 3.3.4 5.2.6 1.5-.1 2.6-.4 4.1.9.1.9.8 1.8 1 1.1.1 1.2-.4 2.2.4.8.7 1.7 1.4 2.7 1.6 1.5.2 2 .1 2.6-1.1.4-1 .7-2.1 1.2-3 .4-.8 1.1-1.1 1.8-1.6.7-.7.7-1.6 1.4-2.1.6-.5 1.4-.4 1.7-1.1.4-1-.6-2.3 1.1-2.4 1.3-.1 2 1.9 3.1.4.8-1.1.7-2.4 1.5-3.5.5-.6.3-.9.6-1.6.3-.7 1.2-.8 2-1.3l.4-1.3c.5-1.1 1.6-1.9 2-3.2.4-1.2.1-2.5.5-3.8.3-.9.9-1.7 1.3-2.5.4-1.1.7-2 1.3-2.9.8-1.5 1.9-4.2 1.3-5.9-.2-.7-.5-1.5-1.1-1.9-.7-.4-1.5-.3-1.9-1.2v-.8c.7-1.1 1.7-2.7 3-3.2.5-.2 1.5.2 1.4-.7-.1-.8-2.2-1.3-2.7-1.1-1 .3-.5 1.7-1.5 1.8l-1.3-.5c-1.5-.8.7-2.2 1.2-2.6 1-1 2.2-2.1 2.7-3.3l-.1-1.2c-1-1.9.2-4.2 1.1-5.9 1.3-2.6-.8-3.8-3.2-4.6-2.1-.7-4.4-1.1-6.5-1.8-1.6-.5-3-.5-4.8-.5-1.1 0-2.4-.1-3.3-.8l-.4-.2-1-1.4c0-.7-.4-1.5-.3-2.2 0-.8.1-.5.6-.9.5-.5.6-.2.4-1.3-.1-.5-.3-.8-.2-1.4.2-1 1-1.6.6-2.7-.4-1-1.7-1.2-2.3-2l-.2-1.6c.6-1.1 1.1-2.2.2-3.2-.8-.8-1.3-1.3-1.8-2.3-.7-1.4-3.3-2.7-2.2-4.6l1-.1c.7 0 2-.2 2.2-1.1.2-1-1-2.2-1.7-2.4-1-.4-1-.1-1.3-1-.2-.5-.1-1.1.2-1.6.4-.6 2.1-1.6 1.3-2.6.8-1 .8-2.4.8-3.6.1-.7-.2-1.3.4-1.6.2-.2 1.1-.1 1.5-.1l1.3-.7c0-1.4-.7-2.8 1-2.7 1.2.1 1.6.1 1.6-1.3l-1.1-1.1c-.4-1-.3-2.4-.1-3.5l.2-1.1c0-.4-.4-.6-.2-1l1-.8c2.3-1.3.2-3.9 2.2-5.1.8-.5 1.4-.8 1.9-1.8.4-1.1.5-1.6 1.6-2.3l1.2-1c.4-.8 1.4-1.7 1.1-2.7a2 2 0 0 0-.4-.6l-.5.3c-.6.5-1.8-1.1-2.2-1.8-.5-.6-.8-3-.9-3.5V93c0-.8.2-2.9-.8-4s-1.6-2.1-2.5-2.2c-1-.2-2.2-.8-2.4-1.8-.2-1-1.1-1.4-1.8-.5-.6 1-2.2.6-2.2.6s-.5-2.2-.2-3.8c.3-1.6.3-2.7-1.4-3.7-1.8-1-1.8.5-2.5.6-.8.2-2.1-1.3-2.2-1.9-.2-.6.8-3.3 1-4.1.2-.8-.6-2.5-1.4-3.2-.8-.6-1.4 0-2.5-.6s-1.9 0-1.9.7-1.3.4-1.9.1c-.6-.3-1.8.2-2.1 1.1-.3 1-.8 2.9-.2 4.3.6 1.4-.1 4.9 0 5.4s-.6 1.8-1.2 2.5c-.6.8 0 3.8.3 4.5.3.6 1.1 1.4.8 2.5-.3 1.1-1.1 2.9-1.3 3.8-.2 1-1 4.1-2.1 4.9-1.1.8-1.3.2-1.8 1.8s-.5 1.4-1.6 1.4-1.6-1.6-2.7-2.1-2.1-.2-2.4 1.3c-.3 1.5-3 2.3-4.1 2.5a24 24 0 0 0-5.4 2.1c-1.1.6-1.4 3.3-2.2 5.3-.8 1.9-3.7 3.3-5.7 2.7-2.1-.6-1.6.8-3 2.1s-2.2-.3-2.4-1.4c-.2-1.1-1.8-.8-2.7-.8-.9 0-3 .7-3.7.8.2.5.4 1 .3 1.5-.1 1.1-.5 1.2-.2 2.2l.6 1.6c.6 1.6.2 1.9-.2 3.4-.4 1.4-1.2 2.5-1.7 3.9l.6 1.4c.2 1.3.6 2.3 1.2 3.5.6 1.2.4 2.4-.8 3.2l.3 1.3c1.4-.1 2.9.3 3.2 2.1.2 1.2-1 2.5-1 3.7l1.4 2.2a5 5 0 0 1-.5 3.8c-.4.9-1.5 1.1-2.2 1.8-.6.7-.9 1.9-1.1 2.8l-.3 2.1c-.2 1.1 1 1.7.7 2.8-.4 1.4-1.8 1-2.5 0l-1.1-.9c-1.4-.6-2-.5-2.5.9-.6 1.1-1 1.9-2.1 2.5L412 161c-1.7.6-3.3 2-5 2.5-1.1.2-1.9-.6-2.9-.6-1 .1-2.7 1.4-3.1 2.2l-.9.6c-1.2-.6-1.6-1.7-3-1.4-1 .2-1.7 1.1-2.8 1-1-.1-1.5-.5-2.6-.2l-1 .1.6 1.9c-.2 1.8 1.1 3.8 1 5.4-.3 1.6-1.4 1.4-1.1 3.2.2 1 1.1 2.2 1.6 3l2.7 1.4c-.5 2.2-4.3 5.7-2.1 7.6l3.2.6c1.8 0 4 1 5.6 1.6 4.3 1.8 1.3 3.3.5 6.8l-.6 2.4c.6 1.8 2.1 2.5 2.9 4 .6 1.3.2 3 1.1 4.5 1.6 2.1 3.3.6 5.7 1.4 2.9 1 4.6 3.3 6.7 5.4 2.1 2.4 1.9 2.9 1.9 5.4l.2-.1c.2-.2 1.5-1.6 1.9-1.6z"/>
</g>
<g id="N3" class="small-box bn">
<path class="st1" d="M502.1 197.8c.6.2 1.2.9 1.8 1.1 1.9.8 3.4 1 5.5 1.1l2.5.2c1.2 0 2.2-.3 3.3-.4.9-.1 1.8.2 2.5-.1 1-.2 2.2-.9 2.5-1.8.4-1.3-.9-2.4-.8-3.5l1-.8c.3-.8.5-.7 1-1 .6-.2 1.4.1 1.4-1-.1-1.3-1.5-.9-2.3-.9l-1.8-.3c.3-.6.8-.5 1.2-.8l1-1.1c.6-1 1.2-1.8 0-2.6l-1.1-.6c0-.5-.2-1.3-.1-1.7.2-1 .7-.8 1.4-1.4.6-.6.4-1.3 1.2-1.7.6-.2 1.7 0 2.2 0 1.1.1 2.4.1 3.5.3 1.7.2 2.9 1.4 4.5 2.1l1.4 1.4c.7.6 3.7 2.2 4.6 1.7.7-.4.2-1 .4-1.5.6-1 .6-.2 1.5 0 1 .2 2.3-.8 3.2.3.5.6.2 3.2 1.2 2.8h2.1c1.5.4 2.7 1.7 4.5 1.2 1 1.3 1.4 2.4 1.9 3.9l1 2c1 1.8 1.8 3.4 3.5 4.6 1.1.7 4.5 2.1 4.4 3.7l-.5 1.8c0 1 0 2.5.8 3.2.8.7 1.7-.2 2.6.4l1.3.9c.2 1.1 2.1 1.8 3 1.4.3-.1.6-.4.8-.7l-1 .1c-4.1-1.3-.1-10.3.2-12.9l2.1-3.5c.1-3.2-1.4-7.2-3.1-9.9l-1.9-4.4c-.6-1.8-1-3.8-1.2-5.7-.4-2.3-1.3-2.9-2.5-4.8l.4-2.2c0-.4-.2-3.2-.4-3.6-.7-1.2-2.5-.5-3.5.1l-.2-1.9c-.1-1.7 1.7-2.6 1.6-4.5-.1-1.6-.5-3.1-2-3.6l-.7-2.2c1.8-1.7 2.9-2.6 2.1-4.9-.6-2-1.4-3.7 1.4-3.5 1 .1 1 1 1.8.1 1.1-1 .4-1.7 2.4-2 .6-.1 1.8.6 2.3.2 1.2-.7-.1-2-.7-3l-1.3-1.6c-1.7-1.6-1-6.8 0-8.7.2-.6 1.2-1.3 1.3-1.8.2-.6 0-1.3.1-1.8.6-2.2 2.5-2.7 1.2-4.9-.8-1.2-2.3-2.4-3.3-3.2a12 12 0 0 1-3.2-4.2c-.6-1.4-1.4-2.5-2-3.7-.7-1.1-.5-1.9-.5-3.3-.1-1.9-.2-2.4.6-4.2.5-1 .8-1.9.9-2.8-.5.2-1.1-.2-2.7-1.1-2.4-1.3-3.8-3-4-3.7-.2-.6-2.1-1-2.9-1.9-.8-1-1.3-3.5-1.8-4.9-.5-1.4-2.7-3.5-4.6-4.6-1.9-1.1-4-2.7-5.1-3.3-1.1-.6-.2-3 0-4.3.2-1.3-1.4-3.5-1.6-4.8-.2-1.3-1.4-1-3.3-.5s-3.7 1.8-4.8 2.9c-1.1 1.1-2.9 1.9-3.7 1.4-.8-.5-1.3-1.6-1.9-.3-.6 1.3-1.1 2.1-1.1 2.5 0 .5-1.4.5-2.6-.3-1.1-.8-1.4-1.8-1.8-2.2-.3-.5-1.8-.6-2.1.3-.3 1-1.1 1.1-1.8 1.3-.6.2-1-2.1-1-2.1s-2.2-2.4-1.9-3.3c.3-1-1.1-.6-2.4 0-1.3.6-1 .8-1 2.1s-.6 1.6-1.9 1.1c-1.3-.5-1.9-2.1-2.4-3.8-.5-1.7-2.2.4-3 1.5-.7 1.1 0 3.8 0 3.8l-.1 2.9s.2 2.9 0 4.1c-.2 1.3-1.9 4.6-2.1 5.7-.2 1.1-.2 3.2-.8 3.8-.6.6-1.8.6-1.8.6s-1.3 1-1.3 1.3c0 .3-.8 2.8-1.6 3.8s-1.4 2.2-1.6 4c-.1 1.2-.4 1.5-.7 1.7.2.2.4.4.4.6.4 1-.7 1.9-1.1 2.7l-1.2 1c-1.1.7-1.1 1.2-1.6 2.3-.4 1-1 1.3-1.9 1.8-2 1.2.1 3.8-2.2 5.1l-1 .8c-.2.4.2.6.2 1l-.2 1.1c-.2 1.1-.2 2.4.1 3.5l1.1 1.1c.1 1.4-.4 1.3-1.6 1.3-1.7-.1-1 1.3-1 2.7l-1.3.7c-.4.1-1.3-.1-1.5.1-.5.3-.3.9-.4 1.6-.1 1.3-.1 2.6-.8 3.6.8 1-.8 2-1.3 2.6-.3.4-.4 1-.2 1.6.2.9.3.6 1.3 1 .7.2 1.9 1.5 1.7 2.4-.2.8-1.5 1.1-2.2 1.1l-1 .1c-1.1 1.9 1.4 3.2 2.2 4.6.5 1 1 1.6 1.8 2.3 1 1 .4 2.1-.2 3.2l.2 1.6c.7.8 2 1 2.3 2 .4 1.1-.4 1.7-.6 2.7-.1.6.1.8.2 1.4.2 1 .2.8-.4 1.3-.5.4-.6.1-.6.9-.1.7.3 1.5.3 2.2l1 1.4.4.2c.9.7 2.2.8 3.3.8 1.7-.1 3.2 0 4.8.5 2.2.7 4.4 1.1 6.5 1.8 2.4.8 4.5 2 3.2 4.6-.8 1.7-2 4-1.1 5.9l.1 1.2c-.5 1.3-1.7 2.3-2.7 3.3-.5.5-2.7 1.9-1.2 2.6l1.3.5c1-.1.5-1.5 1.5-1.8.5-.2 2.7.3 2.7 1.1.1.8-.9.5-1.4.7-1.4.5-2.4 2.1-3 3.2v.8c.4.9 1.2.8 1.9 1.2.6.4 1 1.2 1.1 1.9.4 1.2 0 2.8-.5 4.2.4.3.8.5 1.3.5.9.1 1.3-.2 1.7-.2z"/>
</g>
<g id="N4" class="small-box bn">
<path class="st1" d="M578.1 213.4c-1-1.1-.6-1.9-1-3.1-.8-3.7-3-2.1-5.5-.7l-1.5.2c-.3.3-.5.6-.8.7-1 .4-2.9-.3-3-1.4l-1.3-.9c-1-.6-1.8.3-2.6-.4s-.8-2.2-.8-3.2l.5-1.8c.2-1.6-3.3-2.9-4.4-3.7-1.7-1.2-2.5-2.8-3.5-4.6l-1-2c-.5-1.5-1-2.6-1.9-3.9-1.8.5-2.9-.8-4.5-1.2h-2.1c-1 .4-.7-2.2-1.2-2.8-.9-1.1-2.2-.2-3.2-.3-1-.2-.9-1-1.5 0-.2.5.3 1.1-.4 1.5-1 .6-3.9-1.1-4.6-1.7l-1.4-1.4c-1.6-.6-2.8-1.8-4.5-2.1-1.1-.2-2.4-.2-3.5-.3-.6 0-1.7-.2-2.2 0-.8.4-.6 1-1.2 1.7-.6.6-1.1.5-1.4 1.4-.1.4.1 1.2.1 1.7l1.1.6c1.2.8.6 1.7 0 2.6-.3.5-.6.8-1 1.1-.4.3-.9.2-1.2.8l1.8.3c.8 0 2.2-.4 2.3.9.1 1-.8.7-1.4 1-.6.3-.7.2-1 1l-1 .8c-.1 1.1 1.2 2.2.8 3.5-.3 1-1.6 1.7-2.5 1.8-.8.2-1.7 0-2.5.1-1.1.1-2.2.4-3.3.4l-2.5-.2c-2.1-.1-3.6-.3-5.5-1.1-.6-.2-1.2-1-1.8-1.1-.4-.1-.8.2-1.2.2-.5 0-.9-.2-1.3-.5l-.8 1.7-1.3 2.9c-.4.8-1 1.6-1.3 2.5-.3 1-.2 2-.3 2.9 1.4.6 2.9 1.3 3.7 2.1.7.7.6 1.4 1.8 1.5.8 0 1.7-.5 2.4-.9l1.4-.7c1.1-.8 2-1.6 2.9-.3.6.9.6 1.8 2.1 2.1l1.4 1.1c1.6.3 1-1.9 2.3-2.5 1-.5 2.7 0 3.8 0l1.2 1a5 5 0 0 0-.7 3.2c.2.5.6 1.9 1 2.1.5.2 1.6-.8 2.2-.9l2.3-.4c.6-.1 1.4 0 1.9-.2-.5-2.2 1.8-1.3 2.8-1.2l1.2.3c.5 1.2 1.2.6 2.1 1 .6.2 2.1 1.8 1.8 0l1.7-.9c.5.2 1 1.3 1.4 1.4.7.2 1.4-.7 1.9-.9l-.3 2.1-.6 1.6c1.5.8 3.1 2.6 4.8 3.1l2.2-.3c.7.2.9 1.8 1 2.4.3 1 .5 1-.1 2.2l1 1c1 2 1 .1 2.2-.1 1-.2 1 .8 1 1.5l.1 2.2 2.6-.7c1.4 0 2.6.2 3.8-.7 1.4-1.2 1.1-1.9 3.2-1.8 2 .1 3.1 1.1 3.9-1 .5-1.2-.2-2.5 2-2l1.8 1.9c1.8-.1.6-2.6 2-3.5 2-1.1 2.7 1 3.8 1.6 3.1 1.8 3.9-3.6 6.8-4.1l.6-4.4c-.3-1.3-1.3-.9-2.1-1.8z"/>
</g>
<g id="N5" class="small-box bn">
<path class="st1" d="M549.6 227.9c-.1-.7 0-1.7-1-1.5-1.2.2-1.2 2.1-2.2.1l-1-1c.6-1.1.4-1.1.1-2.2-.2-.6-.3-2.1-1-2.4l-2.2.3c-1.7-.5-3.3-2.3-4.8-3.1l.6-1.6.3-2.1c-.6.2-1.2 1-1.9.9-.4-.1-1-1.1-1.4-1.4l-1.7.9c.3 1.8-1.2.2-1.8 0-.9-.3-1.6.2-2.1-1l-1.2-.3c-1-.1-3.3-1-2.8 1.2-.6.2-1.3.2-1.9.2l-2.3.4c-.6.1-1.7 1-2.2.9-.5-.2-.9-1.6-1-2.1a5 5 0 0 1 .7-3.2l-1.2-1c-1.1 0-2.8-.5-3.8 0-1.3.6-.7 2.8-2.3 2.5l-1.4-1.1c-1.5-.2-1.4-1.2-2.1-2.1-.9-1.3-1.8-.5-2.9.3l-1.4.7c-.7.4-1.6.9-2.4.9-1.3-.1-1.1-.8-1.8-1.5-.8-.8-2.3-1.5-3.7-2.1l-.2.8c-.4 1.3-1.6 2-2 3.2l-.3 1c.4.8.8 1.7 1.4 2.4 1.7 1.7 2.2.6 3.9.6 4.9.4 1.4 4.2 1.2 6.5l-.5 2.5c-1.9 4.2 1.4 7.5 3.8 10.4l-.5 2.5c-1.2 1-1.3 2.2-2.2 3.2-1 1.2-2.6 1.1-3.8 2.1-3.3 2.7 1.7 4.2 2.9 6.2l2.1 2c.8 2.6 4.2 1.6 5.9.5 1.4-.8 2.5-3.6 3.5-5.3l1.1-3.1c.7-1 1.9-1 2.7-1.8.7-.7.7-2.2 1.8-2.6 2.7-1.2 2.5 2.4 3.7 3.3l2.3-.4c1.1-1.8 2.4-.1 3.7.2 1.6.6 2.4 0 3.8-.6 2.4-.8 4.3.1 6.2-2.3l1.2-2.9c1-1.6 4.9-.8 6.3-1.8.5-.4.6-1.2 1.2-1.6.5-.4 1-.1 1.6-.4.8-.5 1-.4 1.6-1 .5-.5.6-1.1 1.1-1.6h.1c.2-.2.3-.9.2-1.6z"/>
</g>
<g id="N6" class="small-box bn">
<path class="st1" d="M437.5 289.1c.4-.2.9-.1 1.2-.2 2.4-1.2 2.2-5.5 5.9-4l1.5.5 2.2-1.4c1-.7.8-.9 1-2.1.2-.8.6-2 1.7-2.2.8-.2 1.5.6 2.2 1.1l2.1.2c1.6-.5 3.3-.7 4.4-2.1 1.1-1.4 2.1-3.2 4.1-2.9 1.1.2 1 .6 1.9-.5.4-.4.4-.9 1-1.3.4-.2.9-.2 1.3-.5 1-.6 1-1.3 2.2-1.4 1-.1 1.8.2 2.7-.2l1.3-2.2c-.9-1 .2-1.6.2-2.6l-.3-2.4c-.2-1-.7-1.8-1-2.7-.2-.9-.1-1.7-.1-2.5l.5-1.9c1-1.7 7.2 1.9 6.4-2.7-.2-1-.7-1.1-.6-2.2.1-.6.6-1.1.7-1.8.2-1-.2-1.4.6-2.1.5-.5 1.5-.7 2.2-1.1l1.7-.6c-1.4-1-.3-1.4.6-1.9l1.2-.6c.6 0 .6.7 1 .9 1 .4 1.7-.6 2.5-.2.6.3.2 1.3 1.2 1.4 1.4.2.4-1 1.2-1.5.2-.1 1.4.5 1.8.7 1.3.6 2.2.9 3.1.6-1.2-1-2-2.2-.1-3.7 1.2-1.1 2.9-1 3.8-2.1.8-1.1 1-2.3 2.2-3.2l.5-2.5c-2.4-2.9-5.7-6.2-3.8-10.4l.5-2.5c.2-2.3 3.7-6.1-1.2-6.5-1.8 0-2.3 1.1-3.9-.6-.6-.7-1-1.5-1.4-2.4l-.1.4c-.8.4-1.7.5-2 1.3-.3.7-.1 1-.6 1.6-.8 1.1-.7 2.4-1.5 3.5-1.1 1.5-1.8-.5-3.1-.4-1.7.1-.7 1.4-1.1 2.4-.3.7-1.1.6-1.7 1.1-.7.5-.7 1.4-1.4 2.1-.7.5-1.4.8-1.8 1.6-.5.9-.8 2-1.2 3-.6 1.2-1.1 1.3-2.6 1.1-1.1-.2-1.9-.9-2.7-1.6-1-.8-1.1-.3-2.2-.4-.9-.1-.9-.9-1.8-1 .2-1.5 1-2.6.4-4.1-.7-1.9-.4-3.2-.4-5.2l-.7-1.4c-.8.2-1.7.5-2.6.5l-2.6.1c-.4.1-1 .4-1.4.2-.9-.4-.7-1.7-1-2.3-.2-.8-.9-1.6-1.5-2-.6-.4-1.4-.4-1.9-.9l-.5-1.2c-.6-.8-2.1-1.4-3-.7-1 .7.5 2.6.9 3.6-1.3.1-2.4 1.1-3.7 1.3-1.3.2-2.2.1-2.6 1.4-.4 1.4-.7 3-2.1 3.8a4 4 0 0 1-2.1.5c-.5 0-1.3 0-1.7-.2-.7-.2-.4-.2-.8-.8-.8-1.1-1-.5-2-.2-.8.2-1.1-.1-1.9-.4l-4.3-1.5c-.5-.1-1.4-.1-1.9-.4-.5-.4-.2-.3-.5-.8-.4-.7-.3-1.4-1.3-1.1-1.6.4-2.4 2.6-3.9 2.6-1 0-1-.2-1.9.2-.4.2-.8.5-1.2.4-.5-.1-.7-.7-1.1-.8-.4 0-1.7 1.4-2.2 1.8l-.2.1v1.2l-2.6 2.7c-2.9 3.3-2.4 5.4-1 9.4.5 1.4 1.6 2.9 1.9 4.3.3 1.3-.3 2.5.5 3.8v2.7c-.8 1.9.5 3.7.6 5.6.2 1.9-1.4 4-1 5.7.8 2.5 4.8 4.5 5.9 7.3.6 2.2.6 4.8-.5 6.8l-2.5 2.1c.6 1 1.4 2.2 1.6 3.5.2 1.1-.8 2.9-.5 3.7.8 2.4 4.5.5 5.7 3.5.6 1.4 0 3 .5 4.3.8 1.8 3.2 2.5 4.5 3.8l1.7 1.8 1.4-1.8c.3-.5.6-1.1 1.1-1.3z"/>
</g>
<g id="N7" class="small-box dap">
<path class="st1" d="M483.1 299.8c.2-1.6 0-2.9-.8-4.5-.6-1-1-1.4-.8-2.5.4-1.3.7-1 .2-2.2-1-2.2 1-2.2 2.5-3.6l2.2-2.3c1.1-1 2.5-1.1 4-1.4 1.9-.2 3.9.3 5.7-.2 2.1-.5 4.9-2 6.2.7.4.8.6 1.8.9 2.6.3.9.8 1.7 1 2.5l1 .9c.8-.3 1-2.6 1.1-3.3l1-3.9c.5-2.4-.5-4.5-.2-6.7l.4-2.4c1.4-2.2-2-1.3-2.5-2.9-.2-.7.5-1.6.2-2.3-.3-.6-1.4-.6-2.2-.6-1.3 0-2.8 1-4 .8-1-.2-1-1-2-.6-.8.3-1 1.4-1.4 2.1-.6 1.2-1.8 1.8-2.6 2.9l-.8.3c-.4.2-.6.7-1 1-.9.6-2 1.1-3.1 1.3-.5.1-1.1-.2-1.6 0-.6.2-.6 1-1.1 1.4-1 .7-1.7-.3-2.6.4-.4.3.1 1.7-.9 1.6-.5-.1-.8-1.2-1-1.5l-1.4-2.9c-.6-1.4-1-1.2-2.1-2-.6-.4-.8-1-1.4-1.2-.3-.2-.9 0-1.2-.1-.5-.1-.9-.3-1.3-.6l-.8 1.5c-.9.4-1.8.2-2.7.2-1.3.2-1.3.8-2.2 1.4-.4.3-.9.2-1.3.5-.6.4-.6.9-1 1.3-.9 1.1-.8.6-1.9.5-2-.2-2.9 1.5-4.1 2.9-1.1 1.4-2.8 1.6-4.4 2.1l-2.1-.2c-.7-.5-1.4-1.3-2.2-1.1-1 .2-1.5 1.4-1.7 2.2-.2 1.2 0 1.4-1 2.1l-2.2 1.4-1.5-.5c-3.7-1.5-3.5 2.8-5.9 4-.3.2-.8 0-1.2.2-.5.2-.8.8-1.1 1.3l-1.4 1.8 2 2.1c1 1 1.1 2.4 2.2 3l3.2 1c1.1 1.9 2.2 0 3.5-.2 1.6 0 2.7.8 4.3.5 1.8-.3 1.6-1.3 3.5.2 1.1.8 1.8 2.4 2.7 3.5 1 1.3 2.1 1.6 3.3 2.7 1.3 1.1 1.4 2.1 2.1 3.7 1 2.2 2.1 3.8 2.5 6.2l1 2.1c1.2.7 3.5 2.5 4.8 4.1l.6-.8c.6-.6 1.1-.2 1.8-.6 1.1-.6.1-.4.2-1.4.1-.8 1-1.3 1.4-1.8 1.5-1.1 2.2-1.2 4-.9a6 6 0 0 0 4.1-.8l1.9-1.1c2.2-1.8 1.3-3.1-.2-5.3-.9-1.3-3.1-4.7-1-5.7l.6-.2c-.1-.8-.4-1.7-.2-2.7z"/>
</g>
<g id="N8" class="small-box bn">
<path class="st1" d="M532.8 270.7c-.7-.4-2.4-1-2.9-1.5-1.4-1.4.6-3.5 1-4.9.3-1 .2-1.9.5-2.9.3-1.3 1.8-2.2 1.9-3.6.1-1-.7-2.2-1-3.1-.5-1.4-1.1-1.7-2.1-2.6-.8-.8-1.8-1.5-2.5-2.5-.6-.8-.6-1.8-1-2.6-.5-1.1-1.8-1.9-2-2.9-.1-.8.2-1.7.6-2.7-.8-.4-1.6-.7-2.3.4l-2.3.4c-1.2-1-1-4.5-3.7-3.3-1.1.5-1.1 1.9-1.8 2.6-.8.8-2 .8-2.7 1.8l-1.1 3.1c-1 1.7-2 4.4-3.5 5.3-1.7 1.1-5 2.1-5.9-.5l-2.1-2c-.5-.9-1.8-1.7-2.8-2.5-1 .3-1.8-.1-3.1-.6-.4-.2-1.7-.8-1.8-.7-.8.5.2 1.8-1.2 1.5-1-.1-.6-1-1.2-1.4-.9-.5-1.6.6-2.5.2-.5-.2-.5-.9-1-.9l-1.2.6c-.9.5-1.9.9-.6 1.9l-1.7.6c-.6.4-1.7.6-2.2 1.1-.8.7-.4 1.2-.6 2.1-.1.6-.6 1.2-.7 1.8-.2 1 .4 1.2.6 2.2.9 4.6-5.3 1-6.4 2.7l-.5 1.9c0 .9-.2 1.7.1 2.5.2 1 .8 1.8 1 2.7l.3 2.4c-.1 1-1.1 1.7-.2 2.6l-.4.8c.4.3.8.5 1.3.6.3.1.9-.1 1.2.1.6.2.9.8 1.4 1.2 1.1.8 1.4.6 2.1 2l1.4 2.9c.2.3.6 1.4 1 1.5 1 .1.5-1.3.9-1.6 1-.7 1.7.3 2.6-.4.5-.3.5-1.1 1.1-1.4.5-.2 1.1.1 1.6 0 1.1-.2 2.2-.7 3.1-1.3l1-1 .8-.3c.8-1 1.9-1.7 2.6-2.9.4-.7.6-1.8 1.4-2.1 1-.4 1 .4 2 .6 1.2.2 2.7-.8 4-.8.7 0 1.8 0 2.2.6.3.7-.4 1.6-.2 2.3.5 1.6 3.9.6 2.5 2.9l-.4 2.4c-.3 2.2.6 4.3.2 6.7l-1 3.9c-.2.7-.3 3-1.1 3.3l-1-.9c-.2-.9-.7-1.7-1-2.5-.2-.9-.5-1.8-.9-2.6-1.3-2.7-4.1-1.2-6.2-.7-1.8.5-3.8-.1-5.7.2-1.5.2-2.9.3-4 1.4l-2.2 2.3c-1.5 1.4-3.4 1.4-2.5 3.6.6 1.3.2 1-.2 2.2-.2 1.1.2 1.4.8 2.5.8 1.5 1 2.9.8 4.5-.2 1 .1 1.9.4 2.8 1-.1 1.7.7 2.1 1.5.4.7.4.7 1 1.3.5.5.9.8 1.3 1.4.4.6.4 1.8.8 2.3.9 1.4 1.8-.3 2.9.2.6.3.2 1 1 1.1.6.2 1.4-.8 1.9-1 1.4-.2 1.8 1.4 3.1 1.2l1.2.8v1.7c.2 1.1.4.8 1 1.7.6 1 .1 2.2 0 3.4-.1 1.4.8 2.3 1.1 3.6.4 1.5.5 2.9 2.2 3.8l.6 1.5c.5.6.3 1.8.6 2.2.6.7 1.8.3 2.2 1.1.6 1-2.1 2.9.1 3.6l1.3-.1c1.4-.2.4-1.8 1-2.5.4-.5.6-.3 1.1-.2.6.1.6.6 1.4.5 1.2-.1 1.2-.6 2.3.6.6.6.6.9 1.4 1.2l.4.1.2-.9.5-2.4c.2-1.4-.3-1.8 1-2.9.8-.6 2-1.2 1.8-2.3-.3-1.8-3.5-3-2.5-5.3.4-1 1.5-1.4 2-2.4.4-1 .5-2.4 1.9-2.4 1.3 0 1.3 1.3 2.4-.1.6-.7 1-1.8 1-2.6-.2-1.5-1.3-1.6-2.2-2.5-1.4-1.7.5-3 .4-4.7-.1-1.1-1.4-1.2-1.8-2.2-.2-.8.2-3.1 1-3.5 1.2-.9 1.7 1 2.6-.6.2-.3.1-.9.4-1.3.3-.4.9-.5 1.2-1 .7-.9.5-2.2 1.3-3 .7-.7 1.9-.6 2.7-1 1.3-.8.6-2.4 1-3.7.2-.6.4-1.2.8-1.5.5-.5 1.5-.5 1.8-.8.6-.8.3-3.6.2-4.5-.2-1.4 0-1.3.6-2.5.6-1.4 0-2.3-.5-3.5-.6-1.3-.3-1.2.8-1.9.4-.2.6-.3.6-.6.4-.1.7-.7 1-1.4l-3.2-1.5z"/>
</g>
<g id="N9" class="small-box pas">
<path class="st1" d="M739 146.1c-.5-.8-2.1-.2-3-1-1.6-1.8-.6-5.1-2.4-7l-1.4-1.9c-4 0-1.9-6.7-5.6-6.1-.6.2-.5 1.4-1.3 1.8-.3.2-1.3-.5-1.8-.2-1.6 1 .5 2.1-1.3 3.3l-1.6.3c-1.8-.2-1.4-1.6-2.5-2.2-.8-.3-1.3 0-2.1-.2-1.4-.3-3.2-.8-4.6-.6l-2.5-.3c-5.4 2.7-2.6-1.8-5.6-3.8l-1.8-1.8c-4.3-.2-1.4-5.3-3.8-6.8l-.3-1.9c.3-2.7-.5-6.7 3.7-5.6l1.8-.8a15 15 0 0 0 2.2-3.8c.2-2.2-1.9-1.9-2.4-3.2-1.3-2.7 6.2-2.5 4-4l-1.4-2.5c-2.4-1.4-1-5.7-3.3-7.8-1-1.1-2.9-2.1-4-2.9-1.3-1-1.3-1.6-3.5-1.3-4 .5-8.3 1.3-12.1.8l-1.1-.5c-.5-1.8-1.9-.6-3.2-.8-1-.2-1.1-1.4-2.7-1h-1.1c-1.8 0-1-1.4-1.9-2.1-.6-.3-1.4 0-2.2-.3-1.6-1.1-1.8-3.8-4.1-3.2l-2.1-1c-2.1-.5-1.3-2.2-2.2-3.5-1-1.3-2.9-1.1-3.3-2.9l-.5-1.9c.5-1.9-2.2-2.5-3.8-3-1-.3-2.1-.2-3.2-.5s-1.8-1.1-3-1.1c-1 0-1.9-.2-2.7.8-1.1 1.6.3.6.3 2.1 0 2.1-1 3.7-2.7 4.9 2.9 1.9 3.5 6.8 2.6 9.9l-.5 1.1c-.8.5-1.9.3-2.7-.5-.8-.8-1.7-1-3.3-.3-1.6.6-1.6-.2-1.9-1.1-.3-1-2.2-2.5-3.3-2.5-1.1 0-1.4 2.2-1.8 2.7-.3.5-1.9 2.9-3.3 4.1a9 9 0 0 1-5.4 1.8c-1.1-.2-3.3-3.3-6.1-4.3-2.7-1-3.6-2.7-5.1-4.5-1.4-1.8-4-.3-4.6-.3-.6 0-3.3-1.1-3.8-1.1s-3.7.8-5.4.6c-1.8-.2-4.6.8-5.3 1.8-.6 1 .5 2.9 1 3.2.5.3.8 2.7 0 3.8-.8 1.1-3 2.7-4.3 3.8-1.3 1.1-1.9 3.2-2.7 3.3-.8.2-3.7 1.3-4.1 1.3-.5 0-6.5-2.9-8.1-4.6-1.6-1.8-5.9.2-7.2.7-1.3.5-1.9.6-3.2 1.4-1.3.8-1.1 2.4-2.1 3.8-.3.5-.5.7-.8.8a7 7 0 0 1-.9 2.8c-.8 1.8-.7 2.3-.6 4.2 0 1.4-.2 2.3.5 3.3.6 1.2 1.4 2.3 2 3.7a12 12 0 0 0 3.2 4.2c1.1.8 2.5 2 3.3 3.2 1.3 2.2-.6 2.7-1.2 4.9-.1.5.1 1.2-.1 1.8-.1.5-1.1 1.2-1.3 1.8-1 1.9-1.7 7.2 0 8.7l1.3 1.6c.6 1 1.9 2.3.7 3-.5.4-1.7-.4-2.3-.2-2 .4-1.3 1.1-2.4 2-.8.8-.8 0-1.8-.1-2.9-.2-2 1.4-1.4 3.5.7 2.3-.4 3.2-2.1 4.9l.6 2.1c1.6.5 1.9 2 2 3.6.1 1.9-1.7 2.9-1.6 4.5l.2 1.9c1-.6 2.7-1.3 3.5-.1l.4 3.6-.4 2.2c1.2 1.9 2.2 2.5 2.5 4.8.2 1.9.6 3.9 1.2 5.7l1.9 4.4c1.7 2.7 3.2 6.7 3.1 9.9l-2.1 3.5c-.4 2.6-4.3 11.6-.2 12.9l2.5-.4c2.5-1.4 4.7-3 5.5.7.4 1.2 0 2 1 3.1.8.8 1.8.5 2.3 1.9l-.6 4.4c-2.9.5-3.7 5.9-6.8 4.1-1.1-.6-1.8-2.6-3.8-1.6-1.4.8-.2 3.3-2 3.5l-1.8-1.9c-2.3-.5-1.6.8-2 2-.6 1.5-1.4 1.4-2.6 1.1l.1.6c.1 1.4.4 2.2.7 3.6.6 2.5.1 5.4.2 7.9.1 1.2.2 2.6.5 3.8.2 1.8.4 1.3 2 2 .7.4 1.2 1.2 1.7 1.4.6.5 1.1.5 2 .7 1.9.5 2.6 1.1 3.6 2.7l1 1.2c.1.2-.1.4.1.5 1.1-.8 1.2-2.6 2.9-3 .5 1.3-.5 2.5-.8 3.8l1.9.5c0-1.1-.1-2.3.7-3 .1.4.7.8 1 1.2.5-1.2 1.2-1.4 2.2-1.9l-.4-1.3c-.4-2.9 4.4 1.1 4.1-1.9l-.5-1.3c1.4-.6 2.5 1.9 3.9 2.3.8.2 2.4 0 3.3-.2l1.6.2c2.7-.1 1.7.4 2.6 2.2.4.7 1.1.4 1.4 1.2.2.5-.1 1.6-.2 2l.7.8c2.6 1 4.5-3.2 7-.5 1.2 1.3 1.2 3.2 1.9 4.6.6-1.3.6-2.9 1.2-4.2.6-1.6 2.4-4.2 4.3-4.1l2.2-.5c1.6 0 1.4-1.3 1.7-2.5.2-1.3.8-2.3 1.2-3.7.6-2.5-.1-4.8 3.3-5.6l1.4-.4c1 .4 1.3 1.3 2.3 1.6.7.2 1.6-.7 2.3-.4 1.1.5 2.3 4.9 3.8 2l-.1-1.9c-.5-2.4 1.3-2.7 2.4-4.1.8-1.1.7-2.5.4-3.9l-.5-2.3c-.2-1.2-.1-4.4 1.1-5.3 1.4-1 3.5.5 5-.1 1.1-.4 2.9-1 3.6-1.7 1.8-1.8.1-3.8-.7-5.5l-.5-2.7c.1-2.3.1-5.3 1.2-7.4.8-2 1.4-.8 2.5.8.8 1.3 1.3 1.8 3 2.3l1.1 2c1.8 1.6 4.3 4.5 5.3 6.8.6 1.4.6 2.2 1.9 3.2 1 1 1.9 1.4 2.7 2.4l1.7 2c1.4 1 3 1.2 4.5 1.9.7.5 1.4 1.7 2.4 1.8 1 .1 1.7-.8 2.7-.7 3.1.5-1.7 4.9 3 5.7l2.4.7c1.6.1 2.7-1.2 4.3-.8 1.4.4 2.6 2 4.1 2.7l2.3 1.6c1 1.6 2.3 2.9 3.3 4.3l2.6 3.1 1.9 1.3c.6 1.1.1 2.7 1.6 3.2l1.8 1.8c4-.3 5.6-4.8 5.7-8.1.2-3.3-.3-5.4 2.7-7.6l2.5-.8c1 .3 5.1-1 6.1-1.8 1.1-1 1.4-3.7 1.3-5.3-.2-1.1-1.1-2.5-1.1-3.7.2-1.6 1.3-3 1.8-4.5.6-1.6 1.7-3.7 2.2-5.5-4.6-1.1-12.4-8.2-6.5-10.2l3.2-1.3c2.2-.8 1.4-6.8 1.1-8.8l-1.3-2.5c-.6-.6-.5-1.4-.3-2.4l.8-3c.6-1.1 1.8-1.1 2.4-2.1.5-1 .2-2.5.2-3.5l.6-2.7c-.3-1.6-1.3-3.8.8-4.8 1.4-.8 3.2 1.4 4.1-.8l1.1-3.5c0-1.8 1.9-5.7 3.3-6.4 2.1-.6 3.8 1.6 5.7 1.4l1.9-.3c2.6-.3-.3-3.7-.5-5.4-.2-1.4-.8-5.3.3-6.1l2.2-2.4c.5.3 2.4-.4 1.6-2z"/>
</g>
<g id="N10" class="small-box pas">
<path class="st1" d="M610.4 264l-1.8-.2c-1.3.2-4.5-1-5.4-1.9-.8-.8-1.3-3.2.4-3.3h1.4c.5-.4.7-.8 1-1.2-.7-1.4-.7-3.3-1.9-4.6-2.5-2.7-4.4 1.4-7 .5l-.7-.8c.1-.5.5-1.6.2-2-.4-.8-1.1-.5-1.4-1.2-1-1.8.1-2.3-2.6-2.2l-1.6-.2c-1 .2-2.5.5-3.3.2-1.4-.4-2.5-2.9-3.9-2.3l.5 1.3c.4 3-4.4-1-4.1 1.9l.4 1.3c-1 .5-1.7.7-2.2 1.9-.2-.4-.8-.8-1-1.2-.8.7-.7 1.9-.7 3l-1.9-.5c.4-1.3 1.3-2.5.8-3.8-1.7.4-1.8 2.2-2.9 3-.2-.1 0-.2-.1-.5l-1-1.2c-1-1.7-1.7-2.3-3.6-2.7-1-.2-1.4-.2-2-.7-.5-.2-1-1.1-1.7-1.4-1.7-.7-1.8-.2-2-2l-.5-3.8c-.1-2.5.4-5.4-.2-7.9-.4-1.4-.6-2.2-.7-3.6l-.1-.6-1.4-.2c-2.2-.1-1.8.6-3.2 1.8-1.2 1-2.4.7-3.8.7l-2.7.7c-.5.5-.6 1.1-1.1 1.6-.6.6-.7.5-1.6 1-.6.2-1.1 0-1.6.4-.6.4-.7 1.2-1.2 1.6-1.4 1-5.4.2-6.3 1.8l-1.2 2.9c-1.9 2.4-3.8 1.4-6.2 2.3-1.4.6-2.3 1.2-3.8.6-.5-.1-.9-.4-1.4-.7-.4 1-.7 1.9-.6 2.7.2 1 1.5 1.8 2 2.9.4.9.4 1.8 1 2.6.7 1 1.8 1.7 2.5 2.5 1 1 1.6 1.3 2.1 2.6.3.9 1.1 2.2 1 3.1-.2 1.4-1.6 2.3-1.9 3.6-.2 1-.2 1.9-.5 2.9-.5 1.4-2.5 3.5-1 4.9.6.6 2.2 1.1 2.9 1.5.9.4 2.2 1 3.2 1.2 1.3.3 1.9 0 2.7-1 .5-.6.4-.8 1.1-1 .6-.2 1.6 0 2.2 0 1.9.1 2 0 3.1-1.4 1-1.1 2-1.4 3.4-1.8 1-.2 2.5-.9 3.6-.5.9.3 1.4 1.2 2.2 1.8 1.5 1 2.2 2 1.6 3.9 2.6 1 2.2-1.8 2.6-3.4.4-1.6 1.7-2.5 3.2-3.1 1.3-.4 3.1-.7 3.3 1.2.1 1.3-1 2.6-1 3.9l-.2 2.2c.8 2.1 4.5.5 5.9 0 1.1-.4 2.3-.7 3.4-1.4.9-.6 1.6-1.2 2.8-.9 1.2.3 1.6.9 2.9.4 1-.4 1.8-1.4 2.6-2 2.5-1.5 6.2-.5 8.8-.1.9.1 1.8 0 2.5.2l2 2.5c-.2 1.5-.4 2-1.8 2.6 0 0-2 .8-2.1 1.6-.1.7 1.6 1.2 1.6 1.2h2.3c1.1.2 2.5.2 3.5.6-1.3 2.1 4.5 1.8 5.7 1.8l.7-.8c.8-4.2-4.5-.6-4.7-3l1.8-1.6c2.7-.1 1.9-4.4 4.2-5.5 1-.5 2.1.2 3.2-.6 1-1.1 1.7-2.9 1.3-4.1z"/>
</g>
<g id="N11" class="small-box bn">
<path class="st1" d="M689.6 242.5l-1-1.1c-1.1-1.4-2.4-2.7-3.3-4.3l-2.3-1.6c-1.4-.7-2.6-2.4-4.1-2.7-1.6-.4-2.7 1-4.3.8l-2.4-.7c-4.7-.8.1-5.3-3-5.7-1.1-.1-1.8.8-2.7.7-1-.1-1.7-1.3-2.4-1.8-1.6-.7-3.1-1-4.5-1.9l-1.7-2c-.8-1-1.8-1.4-2.7-2.4-1.3-1.1-1.3-1.8-1.9-3.2-1-2.3-3.5-5.3-5.3-6.8l-1.1-2c-1.7-.5-2.2-1-3-2.3-1.1-1.7-1.7-2.9-2.5-.8-1.1 2.1-1.1 5.1-1.2 7.4l.5 2.7c.8 1.7 2.5 3.7.7 5.5-.7.7-2.5 1.3-3.6 1.7-1.6.6-3.6-.8-5 .1-1.2.8-1.3 4.1-1.1 5.3l.5 2.3c.4 1.4.5 2.9-.4 3.9-1.1 1.3-2.9 1.7-2.4 4.1l.1 1.9c-1.6 2.9-2.7-1.6-3.8-2-.7-.4-1.6.6-2.3.4-1-.2-1.3-1.2-2.3-1.6l-1.4.4c-3.5.8-2.7 3.1-3.3 5.6-.4 1.4-1 2.4-1.2 3.7-.2 1.2-.1 2.5-1.7 2.5l-2.2.5c-1.9-.1-3.7 2.5-4.3 4.1-.8 1.9-.5 4.2-2.2 5.5h-1.4c-1.7.1-1.2 2.5-.4 3.3.8 1 4.1 2.1 5.4 1.9l1.8.2c.5 1.2-.2 3-1.2 3.8-1.1.8-2.3.1-3.2.6-2.3 1.1-1.4 5.4-4.2 5.5l-1.8 1.6c.1 2.4 5.5-1.2 4.7 3l-.7.8c-1.2 0-7 .4-5.7-1.8-1-.4-2.4-.4-3.5-.6h-1.9l.1.9 1.5 2.7 1.8 3.7 1.3 3.3c.5 1.1 1.1 2 1.3 2.3v.1c.1.3-.2.9-.1 1.1.4.5 1.8.4 2.3.4.8 0 2.5-.5 3.2-.1.4.2.3.9.6 1.1.5.2 1 0 1.5.2 1.5.4 1.9 1.3 2.4 2.5.3.9 1.3 2.4 2.3 2.1.9-.2.9-1 .9-1.8v-.8c.2-1.1 1-2.9 1.9-3.5.8-.4 1.8 0 2.5-.7.6-.6.5-1.7.8-2.5.3-.9.9-1.2 1.4-2 .6-.8.7-2 .9-2.9.4-3.3 1.3-6.5 5.3-6.7l1.8 1.3c2.4.8 3.4 1.8 5.3 1.4l1.8-.6c1-.4 3-.7 3.6-1.8.4-.8-.2-1.8-.3-2.5-.4-2.1 2.1-3.9 4.1-4.2 1.3-.2 1.6.7 2.3 1.8.7 1.2 1.4 1 2.3 1.9.6.4 1.1 1.8 1.8.6l1.2-1.7c1.1-1 2-1.4 3.3-1.4.6 0 1.1.2 1.6 0 1-.3.6-.2.9-1.1.5-1.1 1-1.9 2.6-1.6 1.2.2 1.7 1.5 2.8 1.8.9.3 1.8-.2 2.7-.1 1.1.1 2.2.8 3.1 1.3.8.4 2 .8 3.3 1.2-.3-2-.9-3.3 1.2-4.7 1.3-.7 2.3-.8 3-2.3.4-.5 0-1.1.4-1.7.5-.5 1.4-.5 1.8-1.1 1.2-1.3.2-3.8.2-5.6l1.1-1.8c2.7.4 1.8-1.7 2.9-3.1 1-1.4 2.4-1 2.4-3.2l2.5-1.1s2.4.6 2.5 0c.1-.6-.6-.7.5-2.2l2.3-3.4z"/>
<path class="st5" d="M598.8 289.8s.1 0 0 0z"/>
</g>
<g id="N12" class="small-box pas">
<path class="st1" d="M819.9 208.1c1.4-1 3.2-.6 4.1-2.2 1.6-2.7 0-5.5 1.6-8.4.5-.9 3.2-.2 3.2-.2 1.4.5 2.5-1.6 1-2.5-.6-.5-2.4.2-3 .3-2.4.6-4.5 1.1-7 1.3-4 .2-9.6.5-12.6-2.2l-2.9-1.1c.6 2.5.3 5.1 1 8 1.1 3.7-.3 7.2-4.3 8.1.3 1.9 1.3 4.6-.5 6.2l-.6 2.1c0 1.1 1.6 4 2.4 4.8 1.1.8 2.5-.2 3.7 1.1 2.2 2.4-.2 6.5-.8 9.1l.5 2.7c.6 2.5 5.4 11.3 1 13.2l-1.3 1.7c-.2 2.6-2.5 1.6-3.2 3.3-.6 1 .8 3.8 1.3 4.6l.6 2.7c-.4.8-.8 1.2-1.2 1.3.2.7.6 1.5 1.1 1.6 1.4.3 1.2-1.7 2.8-.8 1.1.7 1.1 1.7 1.4 2.9.4 1.4 1.5.9 2 1.9.3.7-.4 1.7-.6 2.3-.1.4.2 1.4-.3 1.6-.6.2-.8-.8-1.3-.9-1.7-.1-1.3 2.8-1 4.6l.7-.2c2.4-.8 2.5-1.3 5-.4.9.4 2.2 1.1 3.5 1.4.6-1.9 0-6.5-.4-8.5-.6-3-2.4-5.3-1.8-8.6l1-4.1c.5-1.6 1.4-3.2 2.1-4.9.6-1.8 1.4-3 2.9-4.6l3.8-2.5c2.4-.8 3 3.8 5.6 2.1 2.2-1.6-.6-3.7-1.7-4.9l-2-1.5c-1.9-3.5-3.8-6.8-4.5-10.7-.6-4.5-3.7-8-3.5-12.6l.3-2.4c-.1-1.7.7-3.7 1.9-4.7z"/>
</g>
<g id="N13" class="small-box pkr">
<path class="st1" d="M807.9 270.6c.5.1.7 1.1 1.3.9.6-.2.2-1.2.3-1.6.2-.6.9-1.6.6-2.3-.5-1-1.6-.5-2-1.9-.2-1.2-.2-2.2-1.4-2.9-1.6-.9-1.4 1.1-2.8.8-.5-.1-.9-.9-1.1-1.6-1.6.6-3.5-3.1-4.7-5.6-.6.9-1.1 1.9-2 2.4-1.3.6-3 0-4.2 1-.5.5-.5 1.3-1 1.7-.4.4-1.3.6-1.4.8-.7 1.1-.1 2.2-1.6 3-.7.5-2.7-.1-3.2.5-1.8 2 1.3 1.2 1.7 1.2 1.3.2 4.5 4.4 4.3 5.7l.6 1.8c.5 1 .1 1.8.7 2.9.5.8 1.1 1.8 1.9 2.2.7.2 1.7-.2 2.3.1 1 .6.8 1.6 1.7 2.3l1.7-1v.5c1.7-.2 3.1-2.1 4.1-3.2 1.4-1.9 1.5-2.2 3.3-2.9-.4-2-.8-4.9.9-4.8z"/>
</g>
<g id="N14" class="small-box pkr">
<path class="st1" d="M802.9 279.8c.7.2.8-.6 1.2-.6 1 0 1 .8 2.2-.1.6-.5 1.2-1.5 2.1-1.4.3 0 .6.2.7.3v-.1c1.6.5 6.7 3.3 7 .3l-.2-1.9.1-.3c-1.3-.3-2.6-1-3.5-1.4-2.5-1-2.6-.5-5 .4-2.4.8-2.4 1-3.9 3.1l-1.2 1.4c.2.2.3.3.5.3z"/>
<path class="st6" d="M814.3 276.9h17"/>
</g>
<g id="N16" class="small-box bn">
<path class="st1" d="M792 292.1c.6 1.8.4 3.7 1.6 5.1 1 1.2 1.2 1.2.9 2.8-.3 1.4-.2 1.9.6 3.1.7 1.3 1.6 2.4 2.2 3.7.6 1.1 1 2.4 1.8 3.4.8 1.1 1.7 1.5 2 2.9.4 1.6.2 2.5 1.4 3.7 1.1 1 1.4 1.1 1.5 2.6.1.6 0 2.2.4 2.6.6.6 1.9.2 2.6.2 1.1 0 1.8.3 2.8.6 1.4.4 2 .2 3.3-.2 1.1-.3 2.7-.7 3.7.2.4.4.1.9.8 1.2.2.2 1 0 1.4 0 .7 0 1.6.1 2.3-.2l-.1-.2c-3.2-3.8-5.7-8-8.4-12.3l-1.1-1.8c-1-2.7-2.7-4.9-4-7.5-1.1-2.5 0-4.3-.6-7l-.1-.2-.9.3c-.5.4-.4 1.1-.9 1.6-.3.2-.9.2-1.3.3-.7.2-1 .5-1.7.8-1 .6-2.3 1.3-2.9.3-.6-.7-.2-1.6-.2-2.4-.2-1-1.2-1.4-1.4-2.5-.2-.9.3-2 .2-2.9l-.2-2.2v-1c.1-1 .2-1 .8-1.4.2-.2.4.3.8-.2.2-.2.2-.9.1-1-.2-1-1-1.1-1.8-.9-.8.3-2.3.8-3.5.8v.2c-.1 1.2-1.6 1.6-3.2 1.7.7.7 1.1 1.6 1 3.1a5 5 0 0 0 .1 2.7z"/>
</g>
<g id="N17" class="small-box bn">
<path class="st1" d="M797.2 254.3l-1.3-2.9c.5-2.7-4.6-5.1-3-6.4l.8-2.7c1.1-3.7-7.3-3.2-6.8-7.5l-.3-2.5c-2.2-1.8-9.1 3-8.1-3l.3-2.4c-2.4-1.1-3.2 2.5-4.9 3-1.6.5-4.6-.5-5.6-1.8v-2c0-.5-1-1.4-2.2-1.8-1.2-.5-2.4 0-2.4 0-2.9-1.8-1.4-3.2-3.1-5.7-1.3-1.8-.6-1.6-2.7-2.1-1.3-.3-2.4-.2-3.5-.6l-3-1.1c-2.9.5-1.4-3.5-3.7-4.5-1.4-.5-3.8.3-5.6-.2l-3.2-.3c-2.1 0-2.1-2.2-3.8-2.9-1.6-.6-3.2.5-4.6 1.3-2.4 1.3-6.4 1.6-8.4 3.5l-3 1.9-1.3-.1c-.5 1.9-1.6 4-2.2 5.5-.5 1.4-1.6 2.9-1.8 4.5 0 1.1 1 2.5 1.1 3.7.2 1.6-.2 4.3-1.3 5.3a13 13 0 0 1-6.1 1.8l-2.5.8c-3 2.2-2.5 4.3-2.7 7.6l-.2 1.6c1 1.7 2.2 4 4.2 3.5.8-.2 1.8-1.8 2.9-1 .6.5.2 2.1.2 2.8 0 1.3.3 1.4-.5 2.4s-1.6 1.4-1 2.8c.8 1.8 3 3.5 4.9 3.9l1.4.2 1.4 1c.1.5.4 1.7.8 2 .3.4.9.2 1.4.6.9.5 1.6 1.8 2.3 2.5a6 6 0 0 1 1.8 4.4l.7 1.5.8 1.8c.5.9 1 1 1.8 1.5 1.1.9 3.1 2 3.4 3.5l.3 1c.6.9 2.5-.1 3.5.1 1.5.2 2.8.2 3.4-1.7l1-1.3c.6-.3 1.6-1 2.3-.7.9.3.4.5.8 1.1.4.7.6.6 1.1 1.1.6.4 1 1.3 1.6 1.5l1.4 1c0 .9 1.4 1.3 2.2 1.4 1.4.2 1-.2 1.8-1 1-1.1 1.2-.2 2.2-.6 1-.3 1-2.3 2.4-2l1.5.1c2.1-.6 3.2-3.3 3.7-5.3.5-1.8-.2-3.3.6-5.1l.2-1.3c-.2-1 .2-1.6.7-2.2.6-.8.7-1.3 1.1-2.1.3-.7 1-1.5 1.4-2.1.5-.6 2.5-1.6 2-2.2l-1-.6c-1.7-.6-1-1-.1-1.8l-.1-1.3c-.1-1.2-1-1.4 0-2.4.5-.4 1.5-.8 2.1-1.1l.4-.9c.7-1.4 6.5-.1 7.7.2l-1.4 1.8c-.1 1-.9 1.8-.6 2.9.2 1.2 2 2.4.5 3.2l-.1 1.8c2-.5 1.6.2 2.8 1.6.8.9 2.9 1.4 1.8 3.1l-.6 1.8c-1 1-.9 3.4 1 3.3 1.4-.2 2.5-3.7 4.1-1.1l1.6.1c1.5.8 2.3-.5 3.3-1.3-.6 0-.9-.3 0-1.4.5-.6 2.5 0 3.2-.5 1.4-.8.8-1.9 1.6-3 .1-.2 1.1-.5 1.4-.8.5-.4.5-1.2 1-1.7 1.2-1 2.9-.4 4.2-1 .9-.5 1.5-1.5 2-2.4-.9-.5-1.2-1.2-1.4-1.6z"/>
</g>
<g id="N15" class="small-box pas">
<path class="st1" d="M799.2 284.3c.1.2.1.8-.1 1-.4.6-.6 0-.8.2-.6.5-.7.4-.8 1.4v1l.2 2.2c.1 1-.4 2.1-.2 2.9.2 1.1 1.2 1.6 1.4 2.5.1.8-.3 1.7.2 2.4.6 1 2 .2 2.9-.3.6-.3 1-.6 1.7-.8.4-.1 1-.1 1.3-.3.5-.5.4-1.2.9-1.6.2-.2.6-.3.9-.3-.5-1.3-1.5-1.9-1.7-3.4a11 11 0 0 1 .6-4.1c.8-2.8 2-6.6 3.3-9.3a1 1 0 0 0-.7-.3c-.9-.1-1.5 1-2.1 1.4-1.2.9-1.1.1-2.2.1-.4.1-.5.8-1.2.6l-.5-.3c-.8.9-1.8 1.7-2.8 1.8v-.5l-1.7 1c-.8-.7-.7-1.7-1.7-2.3-.6-.4-1.6.1-2.3-.1l-.5-.3c-.3 1.1.1 2.3.3 3.7v1.4c1.3 0 2.7-.6 3.5-.8 1.2 0 1.9.1 2.1 1.1z"/>
</g>
<g id="N18" class="small-box bn">
<path class="st1" d="M767.3 281.6c-1.5-1.4-1.6-3.3-2.3-5.1l-1.5-2.7c-.3-.5-.3-1.1-.6-1.5-.4-.6-.8-.6-1.4-1-1-.7-1.2-1.7-1.8-2.6-.6-.9-1-.8-1.7-.9-.6 1.7 0 3.1-.5 4.9-.5 2-1.6 4.7-3.7 5.3l-1.5-.1c-1.4-.3-1.4 1.7-2.4 2-1 .4-1.2-.6-2.2.6-.7.9-.4 1.2-1.8 1-.7-.1-2.2-.5-2.2-1.4l-1.4-1c-.6-.2-1-1.1-1.6-1.5-.6-.6-.7-.4-1.1-1.1-.4-.6.1-.8-.8-1.1-.7-.2-1.7.4-2.3.7l-1 1.3c-.6 1.8-1.9 1.9-3.4 1.7-1-.2-2.9.8-3.5-.1l-.3-1c-.3-1.5-2.3-2.6-3.4-3.5-.8-.6-1.4-.6-1.8-1.5l-.8-1.8-.7-1.5a6 6 0 0 0-1.8-4.4c-.7-.8-1.4-2.1-2.3-2.5-.5-.3-1-.2-1.4-.6-.4-.3-.7-1.5-.8-2l-1.4-1c-.5-.2-1-.2-1.4-.2a8 8 0 0 1-4.9-3.9c-.6-1.4.2-1.8 1-2.8.8-1 .5-1.1.5-2.4 0-.7.4-2.3-.2-2.8-1.1-.9-2.1.7-2.9 1-2 .4-3.2-1.9-4.2-3.5-.5 3-2.2 6.2-5.5 6.5l-1.8-1.8c-1.4-.5-1-2.2-1.6-3.2l-1.9-1.3-1.7-2-2.3 3.2c-1.1 1.5-.4 1.6-.5 2.2-.1.6-2.5 0-2.5 0l-2.5 1.1c0 2.3-1.4 1.8-2.4 3.2-1.1 1.4-.1 3.5-2.9 3.1l-1.1 1.8c0 1.8 1 4.3-.2 5.6-.4.6-1.3.6-1.8 1.1-.4.6 0 1.2-.4 1.7-.7 1.4-1.7 1.6-3 2.3-2.4 1.6-1.2 3.1-1.1 5.6.1 1.2-1.3 4.4.5 4.2l1 .5c1.2.4 4.1 2.6 4.2 3.9 0 1.4-1.2 1-.2 2.4.5.8 1.7 1.4 2.4 1.8l1.2 1.1c.4 1.4-1 2.3.6 3.2 1.7 1 1.8-.6 3.3-.6l1.3-.5c2.6.1 4.9-3 6.2 1.3l-.4 1.7c-.4 1.8 1 2.2 2.2 3.1.7.6 1.2 1.1 2.1 1.6.6.4 1.2-.2 1.3 1l-.8 2.3c-.4 2.5 2.4 1.1 3.3.1 1-1.1.5-2.3 2-2.7 1-.4 3.3 0 4.2.5 2.3 1.3.2 2.5.5 4.4l1.1 1.4c3.6.7 7.8 4.2 9.8 7l3.3.8c6.1.5 11.9 2.7 17.9 4.2 2.9.7 6 .5 9 1.1l7.4 1.7c1.8.2 3.7 1 5.5.8l.8-1.9c-.5-1.6-.7-2.7-1.6-4.2-.6-1.2-1.2-1.9-1.3-3.2-.1-1.4 0-1.9.8-3.2.4-.6.5-.8 1.1-1.4.4-.4 1-.2 1.2-1.1l1.6-1.3c2.9-.1 5.6 3.7 8.5 1.1l.6-2.3c.5-1.9 2-2.2 2.5-3.8.4-1.7-1.1-3.8.8-4.8l2-.6c5.4-2.4-3.5-5.7-4.4-7.3l.2-.2c-1-1.2-2-3.3-3-4.2z"/>
</g>
<g id="N19" class="small-box pas">
<path class="st1" d="M793.5 279.1a7 7 0 0 1-1.5-1.9c-.6-1.1-.2-1.9-.7-2.9l-.6-1.8c.2-1.3-3-5.5-4.3-5.7l-1.6.2c-1.1.8-1.9 2.1-3.3 1.3l-1.6-.1c-1.6-2.5-2.7 1-4.1 1.1-1.8.2-1.9-2.2-1-3.3l.6-1.8c1.2-1.7-1-2.2-1.8-3.1-1.2-1.4-.8-2.1-2.8-1.6l.1-1.8c1.5-.8-.3-2-.5-3.2-.2-1 .6-1.8.6-2.9l1.4-1.8c-1.3-.3-7-1.7-7.7-.2l-.4.9c-.6.3-1.6.7-2.1 1.1-1 1-.1 1.2 0 2.4l.1 1.3c-.9.9-1.6 1.3.1 1.8l1 .6c.6.6-1.5 1.7-2 2.2-.5.6-1.1 1.4-1.4 2.1l-1.1 2.1c-.5.6-1 1.3-.7 2.2l-.2 1.3-.1.2c.7.1 1 0 1.7.9.6 1 .9 1.9 1.8 2.6.6.4 1 .4 1.4 1 .2.4.2 1 .6 1.5l1.5 2.7c.7 1.8.8 3.7 2.3 5.1 1 .9 2 3 3.4 3.8l1-1.1c1.2-.2 1.9-.2 2.9-.7.8-.2 1.2-1 2.1-1 1.2 0 4.4 1.2 4.8 2.5l.6 2c2 .5 3.9-1 5.9-1 1.8 0 5.6.4 5.9-1.7v-1.7c-.2-1.3-.6-2.4-.3-3.6z"/>
</g>
<g id="N20" class="small-box bn">
<path class="st1" d="M808.7 327.4c-.2-1.5-.2-1.5.3-3l.7-1.7c-1-.2-1.7-.6-2.8-.6-.7 0-2.1.4-2.6-.2-.4-.5-.3-2.1-.4-2.6-.1-1.5-.4-1.7-1.5-2.6-1.3-1.2-1-2.2-1.4-3.7-.3-1.4-1.2-1.8-2-2.9-.8-1-1.2-2.3-1.8-3.4-.6-1.3-1.5-2.4-2.2-3.7-.7-1.2-.9-1.8-.6-3.1.3-1.6.2-1.6-.9-2.8-1.2-1.4-1-3.3-1.6-5.1-.2-1.1-.3-1.7-.2-2.8 0-1.5-.4-2.3-1-3.1H788c-1.9 0-3.8 1.4-5.9 1l-.6-2c-.4-1.3-3.6-2.5-4.8-2.5-1 0-1.3.7-2.1 1-1 .5-1.7.5-2.9.7l-1.2 1.3c1 1.6 9.8 4.9 4.4 7.3l-2 .6c-1.9 1-.5 3.1-.8 4.8-.5 1.7-2 1.9-2.5 3.8l-.6 2.3c-2.9 2.6-5.6-1.2-8.5-1.1l-1.6 1.3c-.2.8-.8.7-1.2 1.1-.6.6-.7.8-1.1 1.4-.8 1.3-1 1.8-.8 3.2.1 1.3.7 2 1.3 3.2.8 1.4 1.1 2.6 1.6 4.2l-.8 1.9c-1.8.1-3.7-.6-5.5-.8l-7.4-1.7c-3-.6-6.1-.4-9-1.1-6-1.4-11.8-3.7-17.9-4.2l-2.4-.6a5.8 5.8 0 0 0-.1 4.1c.5 1.8-.5 2.9-.3 4.5.2 2.2 2.1 3.3.3 5.4-.8 1-1.9 1.5-2.6 2.5l-1.6 2.8c-1.1 2.4 2 7.3-1.3 9-.8.4-1.5.4-2.3.9-.8.6-1.3 1.1-2.2 1.4-2 .5-1.7 1-1.5 2.9l-.6 2.8-3 3.9.5.8c.5 1 1.2 1.7 1.8 2.6 1 1.7 1.5 2.3 3.7 2.4 2.6.1 2.6-1.3 2.6-3.4l.2-4.8 1.4-1.4c1.1-.6 2.9.2 3.8-.6.7-.5.4-1.1 1.4-1.4.3-.2 1 0 1.5 0 2.2-.1 2.8-.3 4 1.6.9 1.4 2.4 1.8 4.1 1.9l1.7.1a12 12 0 0 1 6.6 2c1.4 1 2.5.7 4.1.9 2 .2 3.3 1.1 4.5 2.5 1 1.2 3.7 3.3 4.4.6l1.4-2.2c.4-1.8-.5-2.5 1.4-3.7 1.4-1 3.3-2.2 5.1-2.2 1.7.1 3.3.6 5 .6 2.3-.2 2.7-2 4.6-2.8l1.7-1.4c1.5-.7 2.5-1.4 4.1-1.5 1.3-.2 2.6-.4 3.8-.8 2.8-.9 2.9-3.6 4.7-5.4l2-1.2c1.9 0 3.7.4 5.3 1.6 1 .8 1.4 1.3 2.9.6.9-.5 1.5-1.4 2.5-1.5l1.9-.8c1.5.3 2.6 1.8 3.3 3 .8 1.4 1.1 1.6 2.5 1.9 2 .4 5.5 1.3 6.8-1l.2-2.8c.1-1.5.7-3.8 2.3-3.9.3-1.3.8-2.7.4-4.3z"/>
</g>
<g id="N21" class="small-box bn">
<path class="st1" d="M833.8 338.2l-2.2-2.5c-1.1-2.4-4.1-3.3-5.7-5.6-1.5-2-2.9-4.2-4.6-6.3-.7.3-1.5.2-2.3.2-.4 0-1.2.2-1.4 0-.7-.3-.4-.8-.8-1.2-1-1-2.5-.6-3.7-.2-1.3.4-1.9.6-3.3.2l-.7 1.7c-.6 1.5-.6 1.5-.3 3 .3 1.6-.1 3-.5 4.4l.8.1c2.8.7.5 3.6.4 5.3l2.1 1.4c1 .3 1.8.6 2.8.6 1 0 1.8-.2 2.6.6.6.6 1.2 1.7 1.8 2.3.7.8 1 1.4.4 2.4l-1.4.6c-1.2.2-2.5.4-2.7 1.8 1.1.2 3.7.5 3.9 1.7.2.8-.8 2.6-1 3.5-.2.8-.2 1.7-1 2.2l-1.4.7c-.6 1.4-1 2.9-1.4 4.4-.5 2.5-.8 5.1-1.1 7.6-.2 1-1.6 6.1-1 6.6.3.2 1.1-.2 1.4-.2l2.1.3c1.6.2 2.9.7 4.5.6 2.1-.1 4.5-.2 6.7-.6l-.2-5.2 2.2-5.4a32 32 0 0 0 3.8-6.7c.6-2.1.8-4.1 2.1-5.9l2.9-2.4c1.3-4.1-1.6-7.1-3.8-10z"/>
</g>
<g id="N22" class="small-box bn">
<path class="st1" d="M749.9 392.8l-.4 1.8c-.4 2.3 1.4 1.4 2.5 2.6.8 1.1-.5 2.9.8 3.7l1.9.1c2.5.1 2.1 3.8 3 5 1.2 1.4 5.4 1.4 5 3.3l-1.7 2.4c-.8.4-2.3 1.3-2.4 2.3-.1 1.2 1.3 1.9 1.4 3.1l-.1 1.4c-1.8.7-.5 1.8-1.1 2.7-.5.8-2.2.8-2.9 1.8-1.3 2 1.4 3 .5 5.4l.4 1.7c.6 1.8 1.8 3.1 2.8 4.7.4.7.6 1.9 1.2 2.6.7.8 1.9.4 2.3 1.6 0 0 .7.5-1.2 1.2-.9.3-3 .4-1.8 1.9.4.6 1.6.5 2.3.4.8-.1 1.7-.8 2.5-1 .8-.1 1.8.5 2.8.5 1.4-.1 1.8-.5 3.2.2 1.2.7 1.1 1.2 1.7 1.9.4.4.2.6.6 1 .2.2.8.1 1 .2 1 .6 1.8 1.3 2.6 1.9l1.9-.7c1.2-.7 1.6.8 2.3 1.6.7.7 1.9.7 2.5 1.2 1.8 1.8.2 2.7-1.3 3.3-2.3.8-2 1.3-1.4 3.6.5 1.7.8 3.6.8 5.5l1.3 1.7c1.4 1.2 5.9.4 7.9.4 3.5-.1 6.7-1.1 10.3-.8 3.1.2 6.2.6 9.3 1 2.7.2 5.4-.1 8.1.1 3.2.3 7 3.7 10.2 3.2l.6-3.7c.2-2.5-.5-5.1-.3-7.8.2-2.9-.2-5.9 0-8.9.3-3.2 2.2-6.1 2.7-9.1.6-3.2-.2-6.7-.2-9.9-.2-3.7-.2-7-.5-10.7-.5-4.3.6-8.9-.3-13.2-1.1-4.6-3.3-8.6-3.2-13.7l-.6-5.7v-10.9c-2.2.4-4.6.6-6.7.6-1.6.1-2.9-.4-4.5-.6l-2.1-.3c-.3 0-1.1.5-1.4.2-.6-.5.8-5.6 1-6.6.3-2.5.6-5 1.1-7.6.3-1.5.7-2.9 1.4-4.4l1.4-.7c.7-.5.8-1.4 1-2.2.2-.9 1.1-2.7 1-3.5-.2-1.2-2.8-1.5-3.9-1.7.2-1.4 1.5-1.6 2.7-1.8l1.4-.6c.6-1 .3-1.6-.4-2.4-.6-.6-1.1-1.8-1.8-2.3-.9-.8-1.6-.6-2.6-.6a7 7 0 0 1-2.8-.6l-2.1-1.4c.1-1.7 2.4-4.5-.4-5.3-2.2-.6-3 2.1-3.1 3.8l-.2 2.8c-1.3 2.3-4.8 1.4-6.8 1-1.4-.3-1.8-.6-2.5-1.9-.7-1.3-1.8-2.7-3.3-3l-1.9.8c-1 .2-1.7 1-2.5 1.5-1.4.6-1.8.2-2.9-.6a8.5 8.5 0 0 0-5.3-1.6l-2 1.2c-1.8 1.8-1.9 4.5-4.7 5.4-1.2.4-2.5.6-3.8.8-1.7.2-2.6.8-4.1 1.5L764 345c-1.5.6-2.1 1.9-3.5 2.5a6 6 0 0 1 1.2 3.1c-.1 1-.5 1.3-1.4 1.6-1.2.4-1.9.7-3 1.4-2 1.2-4 1.8-5.7 3.4-2 1.8-4.5 4.9-3.6 7.7h.4c1 3.3 1.2 6.8 1.9 10.1.6 2.7 1.4 6.5-1.7 8.1l-.9.7c1.4 3 3.9 6.5 2.2 9.2z"/>
</g>
<g id="N23" class="small-box bn">
<path class="st1" d="M694.4 351.3c-1.3.9-.2 1.8.1 2.9.8 2.6-1.1.6-2.7.2-6.6-1.6-2 1-3.2 2-1.3 1-2.9 0-4.2.3-1.8.5-1 2.3-.7 3.7l1.1 2.2c1.8.4 2.5 1.5 3.8 2.5.6.5.9.3 1.3 1.1.5.8.6 1.7 1.2 2.5.9 1.2 1.4 2.9 2.6 3.8.8.6 1.4.2 1 1.6-.2.6-.9 1.5-1.4 1.9l.7 2.2c1.2 2.2 3.5 3.8 4.5 6.1.5 1.1.2 1.4 1.3 2.2 1 .6 2.1 1.1 2.9 1.9 1.9 1.7 3.7 3.6 5.3 5.4.8.9.9 1.8 1.9 2.3 1 .5 2.2 1.3 3.2 1.6.8.2 1.9.3 2.5-.3l1.6-2.2c-.3-1.4 1-2.5 1.4-3.7.4-1.3.4-2.2 1.8-2.8 1.2-.6 2.1-.1 2.5 1.1.4 1.1.2 1.2 1.2 2.1l2 2.5c2.3 1.8 3.9-1.3 6.5-1.3.9.1 1.5.6 2.3.6 1.2 0 1.2-.7 1.8-1.5.9-1 1.4-1 2.5-1.3 1.1-.3 1.9-1 2.8-1.7 1.8-1.8 3.3-3.2 4.8-5.2l1.5-1.1c3-1.7 2.2-5.4 1.7-8.1-.7-3.3-.9-6.9-1.9-10.1h-.4c-1-2.8 1.6-6 3.6-7.7 1.8-1.6 3.7-2.2 5.7-3.4 1.1-.6 1.8-1 3-1.4 1-.3 1.4-.6 1.4-1.6.1-1-.5-2.3-1.2-3.1l-1.1.3c-1.8.1-3.3-.5-5-.6-1.8 0-3.7 1.2-5.1 2.2-1.8 1.2-1 1.9-1.4 3.7l-1.4 2.2c-.6 2.7-3.4.6-4.4-.6a6.4 6.4 0 0 0-4.5-2.5c-1.6-.2-2.7.1-4.1-.9a12 12 0 0 0-6.6-2l-1.7-.1c-1.7-.2-3.2-.6-4.1-1.9-1.2-1.9-1.8-1.7-4-1.6-.5 0-1.2-.2-1.5 0-1 .3-.6 1-1.4 1.4-1 .8-2.7-.1-3.8.6l-1.4 1.4-.2 4.8c0 2.1 0 3.5-2.6 3.4-2.1-.1-2.7-.7-3.7-2.4-.6-1-1.3-1.6-1.8-2.6l-.4-.8-3-.2c-.4-.2-1.8-.6-2.6 0z"/>
</g>
<g id="N24" class="small-box pas">
<path class="st1" d="M715.3 319.9c-.2-1.7.8-2.8.3-4.5-.4-1.2-.5-2.8.1-4.1l-.9-.2c-2-2.9-6.2-6.3-9.8-7l-1.1-1.4c-.2-1.9 1.8-3.1-.5-4.4-.8-.5-3.2-.8-4.2-.5-1.6.5-1.1 1.7-2 2.7-1 1-3.7 2.4-3.3-.1l.8-2.3c-.1-1.2-.7-.6-1.3-1-1-.5-1.4-1-2.1-1.6-1.2-1-2.5-1.3-2.2-3.1l.4-1.7-.6-1.3c-.9.5-2 .9-2.8 1.6-.8.6-1.2 1.6-1.9 2.4-.6.8-1.8 2-2.6 2.6-1 .8-2.6 1-3.1 2.3-.2.7.5 1.8.2 2.6-.4 1.7-.5 1-1.9 1.3-1.4.5-1.1-.2-1.6 1.6-.2 1.4 0 2.1-1.3 3.2l.6 1.9c1.7 1.3-.2 1.3-1 1.7-.4.1-1.1-.2-1.4.1-.6.8.7 1.4.8 2.1v1.7c.2.6 1.2 1.1 1.6 1.7.7 1 .6 2.4 2.3 2.2l-3.1 2.1c-1.9 3.5-4.4 3.3-7.8 3-2-.3-4.3 1-5.8 2.7l.3 1.4c.5 1.6 1.4 2.6 1.8 4.3.5 2.3-.2 5.6 1.3 7.2.7.6 1.8.6 2.4 1.6.6.8.1 1.6.5 2.3.7 1.8 1.3 1.2 3.1.8 1.8-.4 2.3-.5 3.6.5.2.2 1.2 1.2 1.6 1.4 1 1 1.1.8.8 2.2-.4 2.9-1.9 5.9-3.1 8.5-1.2 2.7-2 6-3.3 8.7l-.4-.1c-2.5 4.1 5.4 3 3.5 6.5a8 8 0 0 1 2.5 1.8c.8-.9 2-1.3 3.9-.7 1.8.5 2.9 3.5 4.3 3.7.7.1 1.9-1.1 2.9-1.2h2.2c.8-.4 1.3-1.2 2.3-1.4 1.3-.4 2.2.2 3.3.6l1.3.1c.4-1.4-.2-1-1-1.6-1.2-.9-1.7-2.6-2.6-3.8-.6-.9-.7-1.8-1.2-2.5-.4-.8-.6-.6-1.3-1.1-1.4-1-2.1-2.1-3.8-2.5l-1.1-2.2c-.3-1.4-1.1-3.2.7-3.7 1.4-.3 2.9.7 4.2-.3 1.2-1-3.4-3.6 3.2-2 1.6.4 3.5 2.5 2.7-.2-.3-1-1.4-2-.1-2.9.8-.6 2.2-.2 3.1-.2l3 .2 3-3.9.6-2.8c-.2-1.9-.5-2.4 1.5-2.9 1-.2 1.4-.7 2.2-1.4.8-.5 1.5-.5 2.3-.9 3.3-1.7.2-6.6 1.3-9l1.6-2.8c.7-1 1.8-1.5 2.6-2.5 1.6-2.2-.3-3.2-.5-5.5z"/>
</g>
<g id="N25" class="small-box bn">
<path class="st1" d="M665.9 323.5c3.3.4 5.9.5 7.8-3l3.1-2.1c-1.7.2-1.6-1.2-2.3-2.2-.4-.6-1.3-1.1-1.6-1.7v-1.7c-.1-.7-1.4-1.3-.8-2.1.4-.4 1.1 0 1.4-.1.7-.4 2.6-.4 1-1.7l-.6-1.9c1.3-1.1 1.1-1.8 1.3-3.2.5-1.8.1-1.1 1.6-1.6 1.4-.4 1.6.4 1.9-1.3.2-.8-.5-1.9-.2-2.6.5-1.3 2.1-1.4 3.1-2.3.8-.6 2-1.8 2.6-2.6.7-.8 1.1-1.8 1.9-2.4.8-.6 1.8-1.1 2.8-1.6-1.3-2.2-3.4.1-5.6 0l-1.3.5c-1.6 0-1.7 1.6-3.3.6-1.6-1-.2-1.8-.6-3.2l-1.2-1.1c-.7-.4-1.9-1-2.4-1.8-1-1.4.2-1 .2-2.4-.1-1.3-3-3.6-4.2-3.9l-1-.5c-1.8.2-.4-3-.5-4.2l-.1-.9c-1.2-.3-2.5-.8-3.3-1.2-1-.5-2-1.2-3.1-1.3-.9-.1-1.8.4-2.7.1-1.1-.3-1.6-1.6-2.8-1.8-1.6-.3-2.1.5-2.6 1.6-.3.9.2.8-.9 1.1-.5.2-1 0-1.6 0-1.4.1-2.2.5-3.3 1.4l-1.2 1.7c-.6 1.1-1.2-.2-1.8-.6-1-.9-1.6-.7-2.3-1.9-.7-1-1-2-2.3-1.8-2.1.3-4.5 2.1-4.1 4.2.2.7.7 1.8.3 2.5-.6 1-2.6 1.4-3.6 1.8l-1.8.6c1.3 2 2.6 3.4 2.6 6.2 0 4 1.3 6.5 2.2 10.2.6 2.4 1.4 4 2.9 6.1 1.3 1.8 2.9 3.3 3.8 5.4.8 1.9.5 3.8.2 5.8.8.5 1.6 1 2.4.9 1.6-.1 2.3-1.7 4.2-1.6 1.9.1 2.9 1.4 4.5 2 1.8.7 2.6 0 3.1 2.1.2 1.1-.1 2.3 0 3.2.1 1.7.8 2.5 1.6 4.1.5.9.5 1.8.7 2.7 1.6-1.5 4-2.8 5.9-2.5z"/>
</g>
<g id="N26" class="small-box pas">
<path class="st1" d="M672.1 371.3c1.9-3.5-6-2.4-3.5-6.5l.4.1c1.3-2.7 2.2-6 3.3-8.7 1.2-2.6 2.7-5.6 3.1-8.5.2-1.3.1-1.2-.8-2.2-.4-.2-1.3-1.2-1.6-1.4-1.3-1-1.8-.8-3.6-.5-1.8.4-2.4 1-3.1-.8-.4-.7.1-1.4-.5-2.3-.6-1-1.7-1-2.4-1.6-1.6-1.6-.8-4.9-1.3-7.2-.4-1.7-1.3-2.7-1.8-4.3-.5-1.4-.2-2.7-1-4.1-.7-1.6-1.4-2.4-1.6-4.1-.1-1 .2-2.2 0-3.2-.5-2.1-1.3-1.4-3.1-2.1-1.7-.6-2.6-1.9-4.5-2-1.9-.1-2.6 1.4-4.2 1.6-.8.1-1.6-.4-2.4-.9-.1 1.2-.3 2.4-.1 3.6.6 3.3.8 7.3-3 9.2l-1.4 1.1c-1.4.2-3.8-.8-4.9.5-1.8 1.8.3 3.7-3.3 4.5-1.1.3-2.4-.2-3.7 0-1.6.2-3.2.8-4.9.8l-1.9 1.1-.3.7c-.5 1.1-1.2 2.4-1.5 3.5-.3 1.1.8 4.1.3 4.8l-.5.3c1.7 2.7 3.5 5 4.7 8.2l.6 2.2-.4 1.6.6.1c1 0 1.1-.4 1.8-.5 1.8-.4 2.9.4 4.5.8 2.6.7 5.3.4 7.5 1.7 1.8 1 2.7 2.3 4.1 3.7 2.4 2.4.7 2.3-.2 4.7-.6 1.3-.7.8.1 2.1.6.6 1.2.8 1.8 1.1l1.9.1c.7.2 1.3.7 2.2.8 1.2.2 2.4-.1 3.6 0 2 .2 2.4 1.2 3.3 2.7 1.4 2 5 2.7 7.3 3.9-1.6 2.6 1.9 1.6 2.9 2.9.7 1-.1 2.5-.4 3.5-.4 1.7-.7 2.9 1 3.8 2 1.2 2.9-.5 4.5-1.3 2.3-1.2 2.3-.8 2.7-3.5l.4-3.9c.3-1.7.7-3.4 1.6-4.4a5.5 5.5 0 0 0-2.3-1.7z"/>
</g>
<g id="N27" class="small-box bn">
<path class="st1" d="M596.2 284.2a565 565 0 0 1-1.8-3.7l-1.5-2.7-.1-.9h-.3s-1.7-.5-1.6-1.2c.1-.7 2.1-1.6 2.1-1.6 1.4-.6 1.5-1.1 1.8-2.6l-2-2.5c-.8-.2-1.7-.1-2.5-.2-2.6-.4-6.4-1.4-8.8.1-.9.6-1.6 1.6-2.6 2-1.3.5-1.7-.1-2.9-.4-1.2-.3-1.9.3-2.8.9-1.1.6-2.3 1-3.4 1.4-1.4.5-5.1 2.1-5.9 0l.2-2.2c.1-1.3 1.1-2.6 1-3.9-.2-1.9-2-1.6-3.3-1.2-1.5.6-2.8 1.5-3.2 3.1-.4 1.6 0 4.5-2.6 3.4.6-1.9-.1-2.9-1.6-3.9-.8-.6-1.4-1.4-2.2-1.8-1-.4-2.6.2-3.6.5-1.4.4-2.5.7-3.4 1.8-1.1 1.4-1.2 1.4-3.1 1.4-.6 0-1.5-.2-2.2 0-.7.2-.6.5-1.1 1-.8 1-1.4 1.3-2.7 1l-.4-.1c-.2.8-.5 1.4-1 1.4 0 .2-.2.3-.6.6-1.1.7-1.4.6-.8 1.9.5 1.2 1 2.1.5 3.5-.6 1.3-.8 1.1-.6 2.5.2.9.5 3.7-.2 4.5-.3.3-1.4.3-1.8.8-.4.3-.6 1-.8 1.5-.3 1 0 2.1-.4 3l1.9.2c1.4.5 3.2 3.3 3.5 4.9.5 2.2-1.1 4.3-.6 6.8.5 2.7 1.1 2.4 3.3 2.5 2.1.2 3.5.8 5.1 2.2 1.8 1.6 1.8 3.7 3.7 5.3.8.8 1.9.8 2.7 1.4.5.3 1.3 2.1 1.9 2.1.6.2 1.8-1.6 2.5-1.9a5 5 0 0 1 2.7 0l2.2.2c1.3-.3 2.1.6 3.3.6 1 0 2.1-1 3-1 2.7.2 4.3 5.4 1.1 5.3l-.8 2.4c0 4 .8 2.1 3.7 3.5 1.6.8 2.7 3.8 3.2 5.6l.5 3.5c-.3 3.3 2.1 2.1 4 2.5 2.4.6 4.1 2.7 6.5 3.5l.8-1.9c.1-.6.3-1 .7-1.4a9.2 9.2 0 0 1 0-3.7c.6-2.4 2.7-3.2 2.1-5.7l1.4-2.7c.3-2.5 2.5-3.3 2.4-6.4l1.8-.8c0 1.1-.5 2.9.2 3.8.8 1.1 4.5 2.4 4.1.2l.2-4.1c.8-3.5 2.5-4 6.1-3.3l2.5-1.3c.2-1.3-.5-1.3-.5-2.4l1.4.5 1.1-.5c-.5-2.6-2.5-2.2-4.5-2.6 3.7-4-3-1.9-4.3-1.8l-1.8.3c-1.1-1.4-1.9-6.5-3-7l-1-1.4c-1-2.2.2-2.4.5-4.5.3-1.1-1.4-3.7-1.1-4.3.7-1.3 4.1-.3 6.2-.5-.2-.2-.8-1.1-1.3-2.3l-1.2-3.2z"/>
<path class="st5" d="M598.8 289.8s.1 0 0 0z"/>
</g>
<g id="N28" class="small-box bn">
<path class="st1" d="M619.7 327.7c-.8-1.9-2.4-1-2.7-3-.2-.8.8-2.5 1.3-3.3l.6-2.5c.3-2.7-2.2-3.5-3.2-5.4.5-.3.8-1 1.3-1.3l.6-2.5c-.6-1.8-.3-3.8-1-5.6-.5-1.1-.2-1.1-1.1-1.8-.8-.8-1.6.5-2.2-1-1.3-2.5 3.5-2.9 1.8-5.1-.6-.8-2.2 0-3-.8 0 .8-.1 1.6-.9 1.8-1 .3-2-1.2-2.3-2.1-.5-1.3-.9-2.2-2.4-2.5-.6-.2-1 .1-1.5-.2-.3-.2-.2-.9-.6-1.1-.7-.4-2.4.1-3.2.1-.6 0-1.9.1-2.3-.4-.2-.2.2-.8.1-1.1v-.1c-2.1.3-5.5-.8-6.2.5-.3.6 1.4 3.2 1.1 4.3-.3 2.1-1.4 2.2-.5 4.5l1 1.4c1.1.5 1.9 5.6 3 7l1.8-.3c1.3-.2 8-2.2 4.3 1.8 1.9.3 4 0 4.5 2.6l-1.1.5-1.4-.5c0 1.1.6 1.1.5 2.4l-2.5 1.3c-3.5-.6-5.3-.2-6.1 3.3l-.2 4.1c.3 2.2-3.3 1-4.1-.2-.6-1-.2-2.7-.2-3.8l-1.8.8c.2 3-2.1 3.8-2.4 6.4l-1.4 2.7c.6 2.5-1.4 3.3-2.1 5.7a9.2 9.2 0 0 0 0 3.7c2.5-2.4 11.3 1.2 13.5 1l1.9-.8c.6-2.5 2.1-1.8 3.7-2.4 1.6-.8 2.4-2.5 3.5-.5.8 1.3-.6 2.7-.3 4 .5 1.6 2.2 1.8 3.8 2.2 1.3.3 7.2 1.8 7.8.8.5-.6-.6-3.7-.3-4.8.3-1 .9-2.4 1.5-3.5-.5-1-1.1-2.1-1.1-2.6-.4-1.4 1.3-1.9.5-3.7z"/>
<path class="st5" d="M598.8 289.8s.1 0 0 0z"/>
</g>
<g id="N29" class="small-box pas">
<path class="st1" d="M626.6 277.6l-1.8-1.3c-4 .2-4.9 3.3-5.3 6.7-.2 1-.3 2.2-.9 2.9-.5.8-1 1.1-1.4 2-.3.8-.2 1.8-.8 2.5-.7.7-1.8.3-2.5.7-1 .6-1.8 2.4-1.9 3.5v.8c.8.8 2.4 0 3 .8 1.8 2.2-3 2.5-1.8 5.1.6 1.4 1.4.2 2.2 1 1 .6.6.6 1.1 1.8.6 1.8.3 3.8 1 5.6l-.6 2.5c-.5.3-.8 1-1.3 1.3 1 1.9 3.5 2.7 3.2 5.4l-.6 2.5c-.5.8-1.4 2.5-1.3 3.3.3 2.1 1.9 1.1 2.7 3 .8 1.8-1 2.2-.8 3.8 0 .5.6 1.6 1.1 2.6l.3-.7 1.9-1.1c1.8 0 3.3-.6 4.9-.8 1.3-.2 2.6.3 3.7 0 3.7-.8 1.6-2.7 3.3-4.5 1.1-1.3 3.5-.3 4.9-.5l1.4-1.1c3.8-1.9 3.7-5.9 3-9.2-.5-3.2 1.1-6.4-.2-9.4-1-2.1-2.6-3.7-3.8-5.4a20.1 20.1 0 0 1-2.9-6.1c-1-3.7-2.2-6.2-2.2-10.2 0-2.8-1.4-4.2-2.6-6.2-1.6.4-2.6-.5-5-1.3z"/>
</g>
<g id="N31" class="small-box bn">
<path class="st1" d="M608 370.1c-.7-1.4-6.8-3.9-2.5-6.1l2.3-1.1c1.4-1.3-1.3-3.6-2.7-3.6-2 0-2.4 3.8-4.8 2.6l-2.5-1.2c-1.1-1.9-2.6-1.1-4.3-1.6-1.1-.4-1.8-1.2-2.7-1.4-1.2-.4-2.5.2-3.7.4l-1.2-1c.2-.7.7-1.4 1.1-2.2.2-.6 1-.7.7-1.8-.5-1.7-2.6-.7-3.8.1l-.2-1.4c0-.6 0-2 .4-2.5 1.1-1.3.7.1 2.2-.1 1.8-.2 1.7-2.9 1.9-4.5.1-1.6 0-3.3.6-4.8.3-1 .8-1.8 1.3-2.6-2-.3-3.8-.2-4.8.7-.4.3-.6.8-.7 1.4l-.8 1.9c-2.4-.8-4.1-2.9-6.5-3.5-1.9-.5-4.3.8-4-2.5l-.5-3.5c-.5-1.7-1.6-4.8-3.2-5.6-2.9-1.4-3.7.5-3.7-3.5l.8-2.4c3.2.2 1.6-5.1-1.1-5.3-1 0-2.1 1-3 1-1.3 0-2.1-1-3.3-.6l-2.2-.2a5 5 0 0 0-2.7 0c-.8.3-1.9 2.1-2.5 1.9-.6 0-1.4-1.8-1.9-2.1-.8-.6-1.9-.6-2.7-1.4-1.9-1.6-1.9-3.7-3.7-5.3a7.6 7.6 0 0 0-5.1-2.2c-2.2-.2-2.9.2-3.3-2.5-.5-2.5 1.1-4.6.6-6.8-.3-1.6-2.1-4.5-3.5-4.9a10 10 0 0 0-1.9-.2c-.1.3-.3.6-.7.8-.8.5-2 .3-2.7 1-.8.8-.6 2.2-1.3 3-.3.6-.9.6-1.2 1-.3.4-.2 1-.4 1.3-1 1.6-1.4-.2-2.6.6-.7.4-1.2 2.7-1 3.5.3 1 1.7 1 1.8 2.2.1 1.7-1.8 3-.4 4.7.9 1 2 1 2.2 2.5.1.9-.4 1.9-1 2.6-1.1 1.4-1.1.1-2.4.1-1.4 0-1.5 1.4-1.9 2.4-.5 1-1.6 1.4-2 2.4-1 2.3 2.1 3.5 2.5 5.3.2 1.1-1 1.7-1.8 2.3-1.4 1.1-.8 1.4-1 2.9l-.5 2.4-.2.9c.3 0 .6-.1.9.4l.6-.6c.1-1 1.4-2.2 2.2-1.6.9.6.8 2.4 1.1 3.3.4 1.4 1.5 3.9 2.5 5.1l1.2 1.6c1.6 1.7 1.6 1.2.6 3-1.1 2.1.9 1.2 1.9.8 1-.3 2.6.2 3.3-.4.9-.7-.2-2.2 1-2.7l.5-1.4c.6-.3.7-1.8 1.2-2 .9-.2.8.9 1.3 1.1.6.3 2.6.4 3.3.5.4 0 1.2 0 1.6-.2.5-.3.5-1.3 1.4-1.4 1-.1 1.6 2 2.5 2.6l1.8.6c.9 0 2.4-.3 2.9.4.6.7.2 2.1-.4 2.5-.6.5-1.7.3-2.2.8-.4.4-.2 1.1-.7 1.5-.6.6-2.2-.2-2.2 1.1l-.7 1.7c-.5.2-1 .6-1.6.6-1-.1-1.2-1.1-1.9-1.4-.4-.2-1.8-.2-2.2 0-1.1.6-.6 1-.2 1.7.5 1.5-.2 1.8-.2 3.3 0 1 1.6 2.8.1 3.3l-.9.5c.4 1 1.1 1.2 1 2.4-.1 1.4-.7 1.8-1.6 2.6-2 2 1.5 3.5-.5 5.3l.2 1.8c.6.9 1 1 1.8 1.4 1 .7.8.8.7 1.9-.1 1.2-.1.7.6 1.6.5.6.7.8.6 1.8l.9 1.4c.1 2.3 1 1 2.3.4 1.4-.5 1.7.2 1.1 1.4 1.5.3 2.2-1 2.6-2.2l.4-1.1c.8-.9 1.8-.6 2.8-.2-.1-1.8 2.6-.4 3.7-1 .9-.5.8-.8 1.8-1 .7-.1 1.3 0 1.9-.3l1.6-1.2c2.5 0 3-.9 4.8-1.8.3-.2.8-.2 1.1-.3.4-.2.4-.8 1-1 .6-.2 1.4.1 1.6.7l.6 1.8c.5 2.2 2.7.2 3.7.8.4.2.4.7.6 1l1 .7c.3.5.6 1.1 1.1 1.2l1.8-.5c4.1-.5 2.9 4.3 5.6 5.3l.9-.6c.1-.7-.2-1.5.4-2 .4-.3.7-.3.9-.2.2-.2.6-.4 1.2-.4-1.1-3.7 1.4-5.6 5.1-4.8 1.3.3 2.9 1.9 3.8 1.4 1.1-.6-.5-3.2 2.2-2.2l.6 1.6c1.8.6 4.3-.2 6.2-.2 2.1 0 4.1-.3 5.9.5l.5.1c.8-1.2 2-2.6 1-4.3z"/>
</g>
<g id="N32" class="small-box bn">
<path class="st1" d="M623.2 362.9v-1.6c0-2.7-.3-5.7.5-8.3l-.6-2.2c-1.2-3.1-2.9-5.5-4.7-8.2-1.6.3-6.2-.8-7.3-1.1-1.6-.5-3.3-.6-3.8-2.2-.3-1.3 1.1-2.7.3-4-1.1-2.1-1.9-.3-3.5.5-1.6.6-3-.2-3.7 2.4l-1.9.8c-1.1.1-3.6-.7-6.3-1.3-.3 1.5.4 3 .2 4.6-.1 1.7-1.1 2.5-.6 3.9.4 1.2 2.5 2 1.4 3.5l-.1.7c.2 1.1 1.3 1.4 2.3 1 .4 2.3 3.1-.8 4.4-.4l1.3 1.7c.2 1-.5 1.7-.8 2.5-.8 3-.7 2.2-3.5 2.5-1.1.1-1.9.8-2.5 1.6 1.3.1 2.4-.1 3.3 1.4l2.5 1.2c2.4 1.2 2.7-2.6 4.8-2.6 1.4 0 4.2 2.3 2.7 3.6l-2.3 1.1c-4.3 2.2 1.8 4.7 2.5 6.1 1 1.7-.1 3.1-1.3 4.5l2.4.7c2.1-.2 4 .8 5.9.5a3 3 0 0 1 .8-2.9l1.1-2.7c.5-1.4.2-3.3.6-4.8.5-1.3 1.4-2.4 1.8.2l1 .8c2.2.5 5.5-2.2 3.1-3.5z"/>
</g>
<g id="N30" class="small-box dap">
<path class="st1" d="M596.9 357.8c2.7-.4 2.6.5 3.5-2.5.4-.8 1.1-1.6.8-2.5l-1.3-1.7c-1.3-.5-4.1 2.6-4.4.4-1 .5-2 .1-2.3-1l.1-.7c1.1-1.4-1.1-2.3-1.4-3.5-.5-1.4.5-2.3.6-3.9.2-1.6-.5-3.1-.2-4.6l-2.4-.4c-.5.9-1 1.7-1.3 2.6-.6 1.4-.5 3.2-.6 4.8-.2 1.7-.1 4.3-1.9 4.5-1.4.2-1.1-1.2-2.2.1-.4.5-.4 1.9-.4 2.5l.2 1.4c1.2-.8 3.3-1.8 3.8-.1.2 1.1-.5 1.2-.7 1.8l-1.1 2.2 1.2 1c1.2-.1 2.5-.7 3.7-.4 1 .2 1.7 1.1 2.7 1.4l1 .2c.7-.9 1.4-1.5 2.6-1.6z"/>
</g>
<g id="N33" class="small-box dap">
<path class="st1" d="M471.2 343.9c1.2-1.8 1.3-3.7 3.6-1.2.7.7-.2 1.4 1.4 1.3.8 0 1.3-.8 2-1.1 1.8-.7 2.5.6 4.4.6 2.1 0 1.2-.4 2.4-1.7.6-.6 1.8-1.1 2.5-1.4 1.7-.7 1.8-2 2.5-.8.6 1-1.9 3.5.2 3 .5 0 .8-1.6 1.4-1.7.5 0 1.9 1.2 2.3 1.2a9 9 0 0 0 5.4-.5v-1.3-2c-.1-.6-.7-1.3-.7-1.7-.2-1.3.4-2.6 1.9-2.6 1.7.1 2 2.3 3.6 2.4 1.1 0 1.9-1.2 2.5-2.3-2.2-.7.5-2.5-.1-3.6-.5-.8-1.7-.4-2.2-1.1-.3-.5-.2-1.6-.6-2.2l-.6-1.5c-1.7-.9-1.8-2.3-2.2-3.8-.3-1.3-1.2-2.2-1.1-3.6.1-1.3.6-2.4 0-3.4-.6-.9-.8-.6-1-1.7v-1.7l-1.2-.8c-1.3.2-1.7-1.4-3.1-1.2-.6.2-1.3 1.1-1.9 1-.9-.1-.4-.8-1-1.1-1-.6-2 1.1-2.9-.2-.4-.6-.4-1.7-.8-2.3-.4-.6-.8-1-1.3-1.4-.6-.6-.6-.6-1-1.3-.6-1-1.4-2-2.7-1.4-2.2 1 .1 4.4 1 5.7 1.4 2.1 2.3 3.4.2 5.3l-1.9 1.1c-1.4.8-2.5 1-4.1.8-1.8-.3-2.5-.2-4 .9-.5.5-1.4 1-1.4 1.8-.1 1 1 .9-.2 1.4-.6.4-1.1 0-1.8.6-.3.3-.5.5-.6.8.5.6.9 1.3 1 1.8.2 1.6-.6 4.9-1 6.4-.3 1.8-1 5.1-2.4 6.2-1 1-2.2.2-3.2.8-1.1.6-1.6 2.7-2.1 3.8l-1.6 3.2c-.7 2.9 0 5 1.1 7.4 2.1-.9 4.1-2.6 5.5-3.6 1.3-1 3-2.2 3.8-3.3z"/>
</g>
<g id="N34" class="small-box dap">
<g id="Layer_44">
<path class="st1" d="M519.5 339.2s.1-1.8 1.4-2.2l-.8-2.5s-.5-3.6-1.9-2.7c0 0-1.4.7-1.3 1.7l-.6.6s0-.9-.9-.4c0 0-.7.1-1.5-1l-1-1s-.5-.2-1.8.2c0 0-.8-.1-.8-.3 0 0-2-1-1.7 1.2 0 0 .6 1.8-2 1.6 0 0-1.3 2.8-2.8 2.2 0 0-.7-.2-1.8-1.5 0 0-1.5-1.6-2.9-.3 0 0-.7.6-.5 2.3l.6 1.2s.2 2.1.1 3.6c0 0-2 1.1-5.7.4l-1.9-1.1s-.7.2-1.4 1.6c0 0-1.4.5-.9-.6 0 0 1.4-2.3-.1-2.8 0 0-1.4 1.4-2.6 1.6 0 0-1.5.2-2.7 2.5 0 0-.1.8-4.6-.6 0 0-.9-.4-2.9 1.2 0 0-1.3.3-1.4-.3 0 0 0-.7-.9-1.6 0 0-1.4-1.7-2.4.8l-.7 1.1-1.4 1.3-1.9 1.4-3.9 2.8-1.9 1 1.3 2.8s.3 1 .4 2.8c0 0-.3 3.7 1.5 5l.2 2.2s-.6 1.3-2.9 2.2l-.8.5s-3.3 4.4-1.7 8.5c0 0 .7 1.7 3 1.8l.5 1.4s-2 1.1 1.4 3.7c0 0 2.7 1.7 3.8 3.4a51.2 51.2 0 0 0 5.5 6.5l3.3.8s1.6.1 2.5 2.2c0 0 1.5 3.3 3 1.8l2.2.8s.4 1.7 1.9 1.8c0 0 2-.4 3.3-1.3 0 0 1.1-.2 1.8 0 0 0 2.4-.7 3.4-2.5l.3-1.6s-.2-3.1 1.8-1.2l.6.6s-.1-2.6-2.8-3.5c0 0-.9-.1-3.6-2.4l-1.3-1.8-1.8-1.6-.3-.4-.9-1.8s.9-3.5 2.2-4.3c0 0 2.8.1 3.3-2.8 0 0 .6-2.2 1.1-2.9l1.6-2s-1-3.8 1.8-2.4l1.3.5 1.8.7s2.3-.8 2.5-1.5l2-1.8 2.6-1.6 1.1-.8 2-1.8 2.2-2.1 1.5-1.8 1.6-1.3 2.6-2.2 2.2-.8s.7 1.7 2.1 1c0 0 1.3-.5-.1-2.7 0 0-1.1-2.3-3.5-3.4l-1.9-.8s-.8 1.6-.9 2.4l-.5.9-1.3 1s-2.4 1.9-3.3 1.1c0 0-1.2-1.2-.7-2.5 0 0 .4-1.2-.7-3.2 0 0 .6-4.5 1.6-4.4h.3l1 .2 1.9.8s1 .4 1.6-.4l1.1-1.5 1-1.1.8-.6z"/>
</g>
</g>
<g id="N35" class="small-box dap">
<path class="st1" d="M547.3 342.7c-.6-.7-2.1-.4-2.9-.4l-1.8-.6c-1-.6-1.6-2.6-2.5-2.6-.9.1-.9 1-1.4 1.4-.4.2-1.2.2-1.6.2-.7-.1-2.8-.2-3.3-.5-.5-.2-.4-1.4-1.3-1.1-.5.2-.6 1.7-1.2 2l-.5 1.4c-1.1.6-.1 2-1 2.7-.7.6-2.4.1-3.3.4-1 .4-3 1.3-1.9-.8 1-1.8 1-1.4-.6-3l-1.2-1.6a13 13 0 0 1-1.9-3.3l-.5.3c-1 .9-.6 1.6-1.2 2.7-.2.5-.7.8-1 1.2-.5.5-.7 1.2-1.1 1.5-1 1-1.6.4-2.7 0-.7-.3-1.9-1-2.5-.4-.6.4-1 2.8-1 3.4-.2 1.2.4 1.8.6 3 .1.9-.3 1.8.1 2.6.9 2.2 2.9.2 4.3-.5 1.8-1 1.4-2.4 2.4-4.1l1.7.6c1.8 1 3.3 2.4 4.1 4.5.8 2.2-1.8 2.6-2.5.7l-2.1.7c-1 .6-1.8 1.6-2.8 2.3a6 6 0 0 0-2.3 2.2c-1.4 2-3.2 3-4.9 4.7-1.2 1.1-2.6 1.6-3.9 2.5-1 .7-1.8 1.8-2.7 2.5-1.3 1-1.9.8-3.3.3-.8-.2-2.4-1.3-3.1-.7-.8.5-.2 1.7-.2 2.5l-1.4 1.8c-1.5 1.4-1 4.5-2.9 5.4-1.3.6-1.7-.2-2.5 1.4-.6 1-1.2 2.4-1.4 3.4l.9 1.8c.6.8 1.4 1.2 2.1 1.9.6.6.8 1.4 1.4 1.9 1.2 1 1.9 1.8 3.4 2.3 2.1.8 2.8 2 2.9 3.6.9.9 1.8 2.1 1.8 2.2 1.8.8 3.5-1 5.1.8l.1.2a13 13 0 0 0 2.6-3.1c.5-.7 1-1.6 1.2-2.4.2-.4 0-1.7.2-1.9.9-1.3 2.9.7 3.9 1 1.8.5 2.9-.4 3.7-1.8 1.1-2 .7-4.4 1.9-6.3 1-1.5 2.1-1.4 3.8-1.4 1 0 2-.2 2.7.4.3.2.4.7.7 1 1.2.9 2.7.3 4 .5.6.1.7.5 1.4.7.4.2 1 0 1.4.2 1.5.9.8 4.3.7 5.7 2 .1 4.9.2 7-.4 0-.7-1.6-1.8-1.8-2.6-.3-.8-.6-1.8-.7-2.6a9.7 9.7 0 0 1 0-3.4c-.2-.1-.3-.5-.4-1.3l-.9-1.4c.1-1-.2-1.1-.6-1.8-.6-.9-.6-.4-.6-1.6.1-1.1.3-1.2-.7-1.9-.8-.5-1.3-.6-1.8-1.4l-.2-1.8c2-1.8-1.5-3.3.5-5.3.9-.9 1.5-1.3 1.6-2.6.1-1.2-.6-1.4-1-2.4l.9-.5c1.5-.6-.1-2.3-.1-3.3 0-1.4.7-1.8.2-3.3-.3-.8-.9-1.2.2-1.7.4-.2 1.8-.2 2.2 0 .7.3 1 1.4 1.9 1.4.6.1 1.1-.3 1.6-.6l.7-1.7c0-1.4 1.5-.6 2.2-1.1.5-.4.3-1.1.7-1.5.6-.5 1.7-.3 2.2-.8.4-.3.8-1.7.2-2.4z"/>
</g>
<g id="N36" class="small-box bn">
<path class="st1" d="M585 384.3l-1-1.4c-1.2-1-1.6-2.2-2.2-3.4-.3-.6-.8-1.4-1.7-.7-.6.5-.3 1.3-.4 2l-.9.6c-2.7-1-1.5-5.8-5.6-5.3l-1.8.5c-.5-.1-.8-.7-1.1-1.2l-1-.7c-.2-.3-.2-.8-.6-1-1-.6-3.2 1.4-3.7-.8l-.6-1.8c-.2-.6-1-.9-1.6-.7-.6.2-.6.7-1 1-.3.2-.8.1-1.1.3-1.8 1-2.3 1.8-4.8 1.8l-1.6 1.2c-.6.3-1.2.2-1.9.3-1 .2-.9.5-1.8 1-1.1.6-3.8-.8-3.7 1-1-.4-2-.6-2.8.2l-.4 1.1c-.4 1.3-1.1 2.6-2.6 2.2.6-1.2.2-1.8-1.1-1.4-.8.4-1.5 1.1-1.9.9a11 11 0 0 0 .7 6c.2.9 1.8 1.9 1.8 2.6-2.1.6-5 .5-7 .4.1-1.4.8-4.9-.7-5.7-.4-.2-1-.1-1.4-.2-.6-.2-.7-.6-1.4-.7-1.3-.2-2.8.4-4-.5-.3-.2-.4-.8-.7-1-.7-.6-1.7-.4-2.7-.4-1.7 0-2.9-.2-3.8 1.4-1.2 1.9-.8 4.3-1.9 6.3-.8 1.4-1.9 2.2-3.7 1.8-1-.3-3-2.3-3.9-1-.2.2 0 1.5-.2 1.9-.2.8-.7 1.7-1.2 2.4a13 13 0 0 1-2.6 3.1c1.7 2-.4 4.7 1 6.4.5.8 4 2.2 4.9 2.1l3.8.3c3.3-1.4 6.7 1.1 7.8 4 1 2.4.6 3.2.5 5.4-.2 1.6.5 4.8 2.1 4.8l3.5-.8c.6-2.4-.5-3.2 2.4-4 1.3-.2 2.7 0 4.1 0l2.2-1c0-.3 0-.6.2-1 1.8.5 2.2-1.1 4-1 1.8.3 2.5 2.5 3.5 3.5 1.3 1.3 6.1 4.1 7.8 3.7l5.7 1.8c5.7 2 11.4 3.1 17.3 4.3.3-.9.7-1.7 1.2-2.3.6-.6 1.4-.6 1.9-1.3 1-1 .4-.8-.4-1.2-.6-.3-1.5-.8-2.2-1-.7-.2-1.8.6-2.3.2-1.3-.6 1-3.2-1-3.3l-1.4-.3c-2.2.5-.6-1.7-.1-2.3.9-1 1.4-1 2.3-1.7.9-.5 1.6-1.6 1.9-2.5.6-1.5-.6-2-.8-3.5l.5-1.8c1.4-.9 1.1-2.2.4-3.2-.6-.9-1.1-.5-.3-1.4l1.3-1.3c1-.8 2.2-.6 2.2-2.2s-1.6-1.5-1.2-2.9l1.2-1.6c1.6-.4 2.2.4 2.7-1.4.4-1.4.9-1.8 2.3-2.5.6-.3 3.4-.8 3.5-1.5.6-1.2-2.2-1.7-2.9-1.6z"/>
</g>
<g id="N37" class="small-box bn">
<path class="st1" d="M615 392.6c.1-2.2.2-1.9 2.3-1.8h3c-.2-1.9-2.6-4.4-.5-6 1.7-1.2 1.8.4 3 1.1 1.1.6 2.2.6 3.2 1.8 3 3.1 1.2-1.3 3.6-2.3 1.9-.7 4.7-.4 6.1 1l1.8 1.9c.4 1.1 2.4.7 3.5.7.7.1 1 .6 1.8.4.8-.2 1.6-1.3 2.4-1.7l1.6 1.7c.6 1 1.2 1.3 1.8 2 .5.4.7.5 1.1 1.1.2.4 0 1.1.4 1.6 1.2 1.6 3 .6 4.5 1.3l2.3.2c1.6-1 1.8-1.9 1.8-3.6 0-.8-.5-1.2-.2-2 .4-.7 1.7-1.2 2-2 .6-1.1.4-2.9 1-3.7.6-.8 1.8-.9 2.9-.9l.2-1.1c.2-1 1.1-2.5.4-3.5-1-1.3-4.4-.2-2.9-2.9-2.3-1.2-5.9-1.9-7.3-3.9-1-1.6-1.3-2.5-3.3-2.7-1.2-.1-2.4.2-3.6 0-.8-.1-1.4-.6-2.2-.8l-1.9-.1c-.6-.2-1.2-.5-1.8-1.1-.8-1.3-.7-.8-.1-2.1 1-2.4 2.6-2.3.2-4.7-1.3-1.4-2.3-2.7-4.1-3.7-2.3-1.3-4.9-1-7.5-1.7-1.7-.5-2.7-1.2-4.5-.8-.7.1-.8.5-1.8.5l-.6-.1c-.3 2.2-.1 4.5-.1 6.6v1.6c2.4 1.3-1 4-3 3.3l-1-.8c-.3-2.5-1.3-1.4-1.8-.2-.5 1.4-.2 3.3-.6 4.8l-1.1 2.7a3 3 0 0 0-.8 2.9c-1.9.3-3.8-.6-5.9-.5l-2.9-.8c-1.8-.8-3.8-.5-5.9-.5-1.9 0-4.5.8-6.2.2l-.6-1.6c-2.7-1-1.1 1.6-2.2 2.2-1 .5-2.5-1.1-3.8-1.4-3.7-.8-6.2 1.1-5.1 4.8-.6 0-1 .2-1.2.4.3.2.5.6.7.9.6 1.2 1 2.5 2.2 3.4l1 1.4c.7-.1 3.5.4 3.3 1.5-.1.7-2.9 1.2-3.5 1.5-1.4.7-1.9 1.2-2.3 2.5 2.1.4 4.9-.1 6-.4 1.6-.5 1.9-1 3.5-.7 2.4.1 3.8.4 6.2-.4l3.1-1.1c1.9-.5 2.5 1.3 4.5-.5 1 1 1 2.9.4 4.1-.5.8-2 1.1-1.2 2.2.5.6 1.6.6 2.2.5l2.5.5c-.2 2.4 1.2 1.9 2.3 2.4l.9-.6c1.6-1 1.8-.8 1.8-3z"/>
</g>
<g id="N38" class="small-box dap">
<path class="st1" d="M584.3 423c.8-1.9 1.1-4.8 2.7-6.3 1.7-1.6 1.9.1 3.3.7.8.2 2-.2 3-.1 1.3.2 2.3 1.3 3.5 1.7 1.3.2 2.5-.4 3.9-.1l4.3.1c3.9.8 9.1.7 11.5-2.6l-.5-2.2c.1-1.6-.5-2.9-.4-4.4v-2.9c-.4-2.9-3.9-3.3-2-6.6l-.5-2.4c-.8-3.1-3.9-.5-3.6-3.9l-2.5-.5c-.6.1-1.7.1-2.2-.5-.8-1.1.7-1.3 1.2-2.2.6-1.2.6-3.1-.4-4.1-2 1.8-2.6 0-4.5.5l-3.1 1.1c-2.4.7-3.8.5-6.2.4-1.6-.2-1.9.2-3.5.7-1 .4-3.9.8-6 .4-.6 1.8-1.1 1-2.7 1.4l-1.2 1.6c-.4 1.4 1.2 1.4 1.2 2.9 0 1.6-1.2 1.4-2.2 2.2l-1.3 1.3c-.8 1-.3.6.3 1.4.7 1 1 2.3-.4 3.2l-.5 1.8c.2 1.5 1.4 2 .8 3.5-.3.9-1 2-1.9 2.5-1 .6-1.4.6-2.3 1.7-.5.6-2.2 2.8.1 2.3l1.4.3c2 .1-.3 2.6 1 3.3.6.3 1.6-.4 2.3-.2l2.2 1c.8.4 1.4.2.4 1.2-.5.6-1.4.7-1.9 1.3-.5.5-.9 1.4-1.2 2.3l.6.1 6.3 1.8.1-1.1c.1-1.4.4-1.5.9-2.6z"/>
</g>
<g id="N39" class="small-box bn">
<path class="st1" d="M681.1 494.2c-.7-.5-.2-1.1-1.1-1.6-.4-.2-1.2.2-1.7-.1-1-.7-.4-2.7-.7-3.9l-.8-.4c-3 1.1-1.1-4.2-.6-4.9.8-1.3 1.8-2.5 1.3-4.2-.4-1.2-2.2-1.8-.7-3.2l2.4-.6c1.2-1 0-4.9 0-6.3-.2-2.5.4-4.9.4-7.3l1.7-3.3c1.9-2.5 1.8-5.9 3.2-8.6l1-4.2c-.7-.4-1.2-1.1-1.8-1.3-.7-.2-1.3.2-2 0-.8-.2-2-1.7-1.8-2.6l-.5-2.5c-1.2-.6-2.4.6-2.7-.7-.2-.5.4-1.9.4-2.6 0-1.7-.2-1.4.6-2.9.2-.6.7-.1.7-1 0-.2-.5-1.1-.5-1.4l-.8-2.2c-.8.2-1.4.6-2.3 1.1-1.4.7-3.5 1.3-2.2-1.2.4-.7 1.2-1 1.4-1.8.2-.7-.2-1.7 0-2.4s1-1.9 1.8-1.9c1.2 0 .7 1.4 1.7 1.8 1.2.6 2.7-1 3.6-1.6 1.3-1 2.6-2.1 4.3-2.5 1-.2 4.2 0 4.5-1.2.2-.7-2.4-3.5-3-3.9-1.2-1.3-3.2-1.6-4.7-2.6a19.7 19.7 0 0 0-5.3-3c-2.3-1.1-1.2-1.6-1.9-3.5-.6-1.3-1.8-2.2-2.3-3.7-.6-1.9 0-3-2.2-3.5-2.3-.5-2.2.2-3.1-2-.8-1.6-1.3-2.4-1.3-4.2 0-.6-.1-1.4.1-2 .4-1 1.4-1.1 1.8-1.9.2-.6.1-1.4-.2-2.1-.7.4-1.4.6-2.5 0-1.3-.7-1.4-1.6-1.2-2.8-1.1 0-2.3 0-2.9.9-.6.8-.4 2.6-1 3.7-.4.8-1.7 1.3-2 2-.2.8.2 1.2.2 2 0 1.7-.2 2.6-1.8 3.6l-2.3-.2c-1.6-.7-3.3.2-4.5-1.3-.4-.5-.1-1.2-.4-1.6-.4-.6-.6-.7-1.1-1.1-.6-.7-1.2-1.1-1.8-2l-1.6-1.7c-.8.4-1.6 1.4-2.4 1.7-.8.2-1.1-.2-1.8-.4-1.1 0-3.1.4-3.5-.7l-1.8-1.9c-1.4-1.3-4.2-1.7-6.1-1-2.4 1-.6 5.4-3.6 2.3-1.1-1.2-2.2-1.2-3.2-1.8-1.2-.7-1.3-2.3-3-1.1-2.1 1.6.2 4.1.5 6h-3c-2-.1-2.1-.4-2.3 1.8 0 2.1-.2 1.9-2.1 3.1l-.9.6c.5.2 1 .6 1.2 1.6l.5 2.4c-1.9 3.2 1.7 3.7 2 6.6v2.9c-.1 1.6.5 2.9.4 4.4l.5 2.2c-2.4 3.3-7.5 3.5-11.5 2.6l-4.3-.1c-1.4-.2-2.6.4-3.9.1-1.2-.4-2.2-1.4-3.5-1.7-1-.1-2.1.4-3 .1-1.4-.6-1.7-2.3-3.3-.7-1.7 1.6-1.9 4.4-2.7 6.3-.5 1.1-.8 1.2-1 2.5l-.1 1.1 1.4.4c2.2.6 5.3 2.4 7.6 1.8l3.8 1.1c3.5 1.3 4.3 4.1 6.7 6.7 1.9 2.2 4.3 4 6.2 6.4 1.6 2.2 3.2 4.9 5.1 7 1.3 1.1 2.7 1.4 3.8 2.7 1.1 1 1.4 2.7 2.9 3l3.8 1.8c4.8 2.5 9.6 6.8 14 10.2a69 69 0 0 0 7.3 4.6c1.4.6 3 .8 4.3 1.8 1.1 1 2.1 2.4 3 3.5l5.7 3.3c2.4-4 3.3.2 5.3 2.4l.8 4.1c.2 4.5 2.4 4.9 5.9 6.2 2.4 1 6.5 3.7 8.9 3.7l4.3 1.3h.2c0-.9-.1-1.8-.5-2.6-.4-1.9-1.3-.8-2.4-1.9z"/>
</g>
<g id="N40" class="small-box bn">
<path class="st1" d="M730.3 541.2c.3-1-.6-2.2-.6-2.2-.6-2.5 1.8-1.4 2.9-3 .6-1.1.2-3.5 0-4.8v-2.7c.2-1.9-1.4-4-1-5.7 0 0 .9-1.5 1.3-1.5s.8-.9.8-.9c.1-1.3.4-3.6 0-4.7-.2-.6-1.3-.2-2.4-.4l-3.2.2c-2.5 0-5.1-.2-7.8 0-1.3.2-2.5 0-3.8.2-.6.1-1.5-.5-2.3-.3-1 .2-1.8 1.2-2.3.5l-.6-1.4c.6-2.4.8-5.3 1.4-7.5 1.1-3.2 4-4.3 3.8-8.1l1.1-2.8c.2-.5 1.4.8 1.4.8 2.7 2.1 1.9-7.3 1.8-8.6l.2-3.2c1.9-.2 3 1 4.6 1.3l2.9-.2c-.5 1.3-.2 2.7.2 4 1.4-.6 3.2-.8 4.5-1.9 1.6-1.8.5-1.8-.6-3.7l-.2-2.4c-.2-1.6 1.3-1.8 2.5-1.4l1.8-.1.3-1.8c.5-1.1 1.4-4.1 1.4-5.2l-1.7-.2c-2.4-.5-4.8-.6-7.3-.6l-3.5-.3a22.4 22.4 0 0 1-4.8-6.1l-1.3-1.6c3.5-1.4 1.4-7.6 4.9-7.6l2.7-1.4c2.2-.6 2.4-3.7 2.4-5.7l1.8.2c.2 1.3 1.4 3.3 2.4 1.3l.8.3c2.1 1 .6 3.3 1.6 4.9 1.9-1.3 3-2.2 4.1-3.8 1-1.6 1.6-3 2.9-4.5l-.6-1.8a3 3 0 0 1-.3-1.3c2.2-.5.8-6.7 0-8.1 1.6-.5 2.2-2.7 4-2.2l1.9-.5c.6-1.8 2.4-4.5 4.3-4.8 1.9-.3 2.9.7 4.4 0l-.2-1.1c1-2.4-1.8-3.3-.5-5.4.7-1 2.4-1 2.9-1.8.6-1-.7-2 1.1-2.7l.1-1.4c-.1-1.2-1.6-1.9-1.4-3.1.1-1 1.6-1.9 2.4-2.3l1.7-2.4c.4-1.9-3.8-1.9-5-3.3-.8-1.2-.5-4.9-3-5l-1.9-.1c-1.3-.8 0-2.6-.8-3.7-1.1-1.2-2.9-.4-2.5-2.6l.4-1.8c1.7-2.6-.8-6.2-2.3-9.1l-.6.4a39 39 0 0 1-4.8 5.2c-.9.8-1.7 1.4-2.8 1.7-1 .3-1.6.3-2.5 1.3-.6.8-.6 1.5-1.8 1.5-.8 0-1.4-.6-2.3-.6-2.6 0-4.2 3.1-6.5 1.3l-2-2.5c-1-.9-.8-1-1.2-2.1-.5-1.2-1.4-1.8-2.5-1.1-1.4.6-1.4 1.5-1.8 2.8-.4 1.2-1.8 2.3-1.4 3.7l-1.6 2.2c-.6.6-1.8.6-2.5.3-1-.3-2.2-1.1-3.2-1.6s-1.1-1.4-1.9-2.3a67.2 67.2 0 0 0-5.3-5.4c-.9-.8-2-1.3-2.9-1.9-1.1-.8-.8-1-1.3-2.2-1-2.2-3.3-3.9-4.5-6.1l-.7-2.2a4 4 0 0 0 1.3-1.9l-1.3-.1c-1.2-.4-2-1-3.3-.6-1 .2-1.4 1.1-2.3 1.4h-2.2c-1 .1-2.1 1.3-2.9 1.2-1.4-.2-2.5-3.2-4.3-3.7-3.9-1.2-5 2-5.5 5.1l-.4 3.9c-.5 2.6-.5 2.3-2.7 3.5-.8.4-1.4 1-2 1.3.3.7.5 1.5.2 2.1-.4.8-1.4 1-1.8 1.9-.2.6-.1 1.4-.1 2 0 1.8.5 2.6 1.3 4.2 1 2.3.8 1.6 3.1 2 2.2.5 1.6 1.6 2.2 3.5.5 1.6 1.7 2.4 2.3 3.7.7 1.9-.4 2.4 1.9 3.5 2.2.8 3.5 1.7 5.3 3 1.4 1.1 3.5 1.3 4.7 2.6.6.5 3.2 3.2 3 3.9-.4 1.2-3.6 1-4.5 1.2-1.7.4-3 1.6-4.3 2.5-.8.6-2.4 2.2-3.6 1.6-1-.4-.5-1.8-1.7-1.8-.8 0-1.6 1.2-1.8 1.9-.2.7.2 1.7 0 2.4-.2.8-1.1 1.1-1.4 1.8-1.3 2.5.7 1.9 2.2 1.2.8-.5 1.4-.8 2.3-1.1l.8 2.2c0 .4.5 1.2.5 1.4 0 .8-.5.4-.7 1-.8 1.4-.6 1.2-.6 2.9 0 .7-.6 2.1-.4 2.6.4 1.3 1.6.1 2.7.7l.5 2.5c-.2 1 1 2.4 1.8 2.6.7.2 1.3-.2 2 0 .6.2 1.1 1 1.8 1.3l-1 4.2c-1.4 2.7-1.3 6.1-3.2 8.6l-1.7 3.3c0 2.4-.6 4.8-.4 7.3 0 1.4 1.2 5.4 0 6.3l-2.4.6c-1.4 1.4.4 2 .7 3.2.5 1.7-.5 2.9-1.3 4.2-.5.7-2.4 6 .6 4.9l.8.4c.4 1.2-.2 3.2.7 3.9.5.4 1.3-.1 1.7.1.8.5.4 1.1 1.1 1.6 1.1 1.1 2 0 2.9 1.7.3.8.4 1.7.5 2.6 4-.2 6.7 3.2 8.6 6.4 2.5 4.1 6.1 7.5 8.9 11.3 3 4 5.9 7.8 9.1 11.5 1.9 1.9 3.2 4.1 5.3 5.9 1.8 1.4 2.9 4 4.5 5.3l3.2 3.3.5 1.2c.8-.5 1.6-.9 2.3-1 .5-.7 2.2.5 2.8-1.5z"/>
</g>
<g id="N41" class="small-box bn">
<path class="st1" d="M834.1 488.9c-1.4-2.4-3-4.6-4.1-7-1.3-2.4-.8-5.1-1.6-7.6l-.2-3.5.4-3.6c-3.2.5-7-2.9-10.2-3.2-2.8-.2-5.4.1-8.1-.1l-9.3-1c-3.6-.2-6.8.7-10.3.8-2 0-6.5.8-7.9-.4l-1.3-1.7c0-1.9-.4-3.8-.8-5.5-.6-2.3-.8-2.7 1.4-3.6 1.6-.6 3.1-1.6 1.3-3.3-.6-.5-1.8-.5-2.5-1.2s-1.1-2.3-2.3-1.6l-1.9.7-2.6-1.9c-.1-.1-.7 0-1-.2-.4-.4-.2-.6-.6-1-.6-.7-.5-1.2-1.7-1.9-1.4-.7-1.8-.4-3.2-.2-1 0-1.9-.6-2.8-.5-.8.1-1.7.8-2.5 1-.7.1-1.9.2-2.3-.4-1.2-1.6.9-1.6 1.8-1.9 1.9-.7 1.2-1.2 1.2-1.2-.4-1.2-1.6-.7-2.3-1.6-.6-.7-.8-1.9-1.2-2.6-1-1.6-2.2-2.9-2.8-4.7l-.1-.6c-1.5.7-2.5-.3-4.4 0-1.9.3-3.7 3-4.3 4.8l-1.9.5c-1.8-.5-2.4 1.8-4 2.2.8 1.4 2.2 7.6 0 8.1 0 .5.2.8.3 1.3l.6 1.8c-1.3 1.4-1.9 2.9-2.9 4.5a13.7 13.7 0 0 1-4.1 3.8c-1-1.6.5-4-1.6-4.9l-.8-.3c-1 2.1-2.2 0-2.4-1.3l-1.8-.2c0 2.1-.2 5.1-2.4 5.7l-2.7 1.4c-3.5 0-1.4 6.2-4.9 7.6l1.3 1.6c1.3 2.5 2.9 4.1 4.8 6.1l3.5.3c2.5 0 4.9.2 7.3.6l1.7.2c0 1.1-.9 4.1-1.4 5.2l-.3 1.8-1.8.1c-1.3-.3-2.7-.2-2.5 1.4l.2 2.4c1.1 1.9 2.2 1.9.6 3.7-1.3 1.1-3 1.3-4.5 1.9a7.8 7.8 0 0 1-.2-4l-2.9.2c-1.6-.3-2.7-1.4-4.6-1.3l-.2 3.2c.2 1.3 1 10.7-1.8 8.6 0 0-1.3-1.3-1.4-.8l-1.1 2.8c.2 3.8-2.7 4.9-3.8 8.1-.6 2.2-.8 5.1-1.4 7.5l.6 1.4c.5.7 1.3-.2 2.3-.5.8-.2 1.7.4 2.3.3 1.3-.2 2.5 0 3.8-.2 2.7-.2 5.3 0 7.8 0l3.2-.2c1.1.2 2.2-.2 2.4.4.4 1 .1 3.4 0 4.7 0 0-.4.9-.8.9s-1.3 1.5-1.3 1.5c-.5 1.8 1.1 3.8 1 5.7v2.7c.2 1.3.6 3.7 0 4.8-1.1 1.6-3.5.5-2.9 3 0 0 .9 1.2.6 2.2-.6 2-2.2.8-3.5 1.1-.8.2-1.6.6-2.3 1 2 3.1 8.1 4.4 11.1 5.5 6.7 2.7 13.5 5.6 20.4 8 2.9 1 4.9 2.7 7.5 3.3.4-.7 1.2-1.1 2-1.7 1.6-1 1.7-1.2 1.7-3.1l.5-2.3c.8.2 2.3.8 3 .1 1.1-1.2-.7-2.3-.8-3.2-.4-3.3 4.8-3.2 0-5.5l-2-1.4c-.6-1.1-.5-3.6.2-4.5.6-.7 1.8-1.1 2.4-1.9.6-.7.7-1.8 1.3-2.5l-.4-2c.7-.7 2.7-1.7 3.7-1.8.8-.1 1.4.5 2.3.2.8-.2 1.4-1.2 2.2-1.7.8.8 1.9 3 3.2 3.1l2.3-.6c3.9-2 1.1-4.2-.5-6.9-.7-1.3.1-5.4-2-5.1l-1.9-1.6c-1.2-1.2-2.6-1.9-3.7-3.1l-3.2-3.7-2.1-1.6c-2.4-1.1-3.7-.6-4.3-3.3-.5-2.2-1.2-3 .4-5l-.2-2.2c-.2-2.4 2-1.9 2.9-3.5.4-.7-.6-1.9 0-2.7 1.1-1.4 6-.7 7.4-.7l4.1-.4c2.4-.1 3.5-.1 5.7.2 1.7.4 4.4-1.4 5.6-.1l1.2 1c4.4.7 9.3-1.4 11.6 3.8l1.9-.6c2.3-1 2.3-2.9 4.7-3.2 2.7-.5 2.6.2 4.4 1.8l1.7.8c1.7 0 4.7.5 6.3-.1 1.8-.6.5-1.1 1.3-2.4.6-1 2.1-.5.8-2.3l-.2-1.6c1.6-.2 2.3-1.4 3.6-1.8 1.6-.6 1-.1.8 1.3-.1 2.3-2.5 3.1.1 5.1 1.9 1.6 1.1-.5 2.7-.8.8-.2 1.9.4 2.2 1.6.2.9-.9 4.2.6 4.2.1-.9 1.3-2.2 1.3-2.8.3-1.4-2.6-4.3-3.7-6.2z"/>
</g>
<g id="N42" class="small-box bn">
<path class="st1" d="M873 569.2c-.2-.2-1.6.2-1.9-.3-.3-.5-.2-1.9-.3-2.4v-1.3c-.5-1.4-1.8-1.8-1.9-3-.2-1.1 1.1-1.6.5-2.9-1.1.2-2.2-.2-3.3.2l-2 .8c-1.1 1.3-2.4 1-2.1-.8.3-1.6 3.1-2 1.8-3.5-.9-1 .6-1.6.6-1.6l3.5-2.1c.3-.2 3.2-.8 1-2.2-1.9-1.1-2.4 2.4-3.7.2-.5-1 .1-1.8.6-2.5.7-1 2.2-1 2.2-1 .5 1.4 2.7 1.8 1.9 0-.5-1.3-3-.5-2.4-2.4.3-1 5.5-1.8 1-3-1.4-.4.3-1.8.3-1.8 2.2-.2.6-1.4.5-2.4-.2 0-.8-.6-1-1.1 0-.5.8-1 .8-1.4-.6-3.2-3.4-2-2.9 1.1.2.9-1.3 1.1-1.3 1.1-7.2-3.2 1.1-10.7 4.1-5.3l1.4-.3c4.8-1.4-6.2-9.1-7.3-10.2-2.1-1.8-4.3-2.9-6.4-4.5-2.4-1.9-3.7-4.6-6.4-6.2l-2.2-1.9c-.6.8-1.6 1.3-2.7 1.1.3-1.9 1.6-2.7 1-4.5-.6-1.9-3.2-4-4.3-5.9l-1.9-1.8c-.6.3-2.4 2.1-3 1.9-.6-.2-.7-.5-.7-.9-1.5 0-.4-3.3-.6-4.2a1.9 1.9 0 0 0-2.2-1.6c-1.7.4-.8 2.4-2.7.8-2.6-2-.2-2.9-.1-5.1.1-1.4.7-1.9-.8-1.3-1.3.4-2 1.6-3.6 1.8l.2 1.6c1.3 1.8-.2 1.3-.8 2.3-.8 1.3.5 1.8-1.3 2.4-1.7.6-4.7.1-6.3.1l-1.7-.8c-1.8-1.6-1.7-2.3-4.4-1.8-2.4.4-2.4 2.3-4.7 3.2l-1.9.6c-2.3-5.3-7.2-3.1-11.6-3.8l-1.2-1c-1.2-1.3-3.9.5-5.6.1a18 18 0 0 0-5.7-.2l-4.1.4c-1.4 0-6.3-.7-7.4.7-.6.8.4 2 0 2.7-.8 1.6-3.1 1.1-2.9 3.5l.2 2.2c-1.6 2-.8 2.9-.4 5 .6 2.7 1.9 2.3 4.3 3.3l2.1 1.6c1.1 1.3 2.3 2.4 3.2 3.7 1.1 1.2 2.5 1.9 3.7 3.1l1.9 1.6c2.1-.2 1.3 3.8 2 5.1 1.6 2.7 4.4 4.9.5 6.9l-2.3.6c-1.3-.1-2.4-2.3-3.2-3.1-.7.5-1.3 1.4-2.2 1.7-.8.2-1.4-.4-2.3-.2-1 .1-3 1.1-3.7 1.8l.4 2c-.6.7-.7 1.8-1.3 2.5-.6.8-1.8 1.2-2.4 1.9-.7 1-.8 3.5-.2 4.5l2 1.4c4.8 2.3-.4 2.1 0 5.5.1 1 1.9 2 .8 3.2-.7.7-2.2.1-3-.1l-.5 2.3c0 1.9-.1 2.2-1.7 3.1-.8.6-1.6 1-2 1.7.9.2 1.8.3 2.9.2 3.8-.5 7-2.7 11-3.5l4-1.4c6.7-2.5 13.1-6.1 20.2-7.5 3.3-.6 6.8-2.4 10.2-1.3 3.5 1.1 7.5 5.7 10.8 5.7l3.2.6c3.2 1.6 5.1 1 7.6 3.8 2.5 2.7 5.4 4.1 8.6 6.1l9.9 5.3c2.7 1.3 6.2 4.3 9.1 4.6l3.5 1.8c1.6 1 3 .5 3.2-1.4.3.8 1 1.1 1.8 1.4l1.8-1.3c1.4-1.1 2.7-2.4 2.2-4z"/>
</g>
<g id="text">
<text transform="translate(395.6 127.1)" class="st2 st3 st4">
      N1
    </text>
<text transform="translate(447.2 158.5)" class="st2 st3 st4">
      N2
    </text>
<text transform="translate(521.1 128.5)" class="st2 st3 st4">
      N3
    </text>
<text transform="translate(532.3 209)" class="st2 st3 st4">
      N4
    </text>
<text transform="translate(519 229.2)" class="st2 st3 st4">
      N5
    </text>
<text transform="translate(447.2 246.9)" class="st2 st3 st4">
      N6
    </text>
<text transform="translate(459.7 292.2)" class="st2 st3 st4">
      N7
    </text>
<text transform="translate(508.2 288.5)" class="st2 st3 st4">
      N8
    </text>
<text transform="translate(635.2 154.5)" class="st2 st3 st4">
      N9
    </text>
<text transform="translate(564.4 262)" class="st2 st3 st4">
      N10
    </text>
<text transform="translate(635.6 253)" class="st2 st3 st4">
      N11
    </text>
<text transform="translate(799.9 219.6)" class="st2 st3 st4">
      N12
    </text>
<text transform="translate(789.6 271.7)" class="st2 st3 st4">
      N13
    </text>
<text transform="translate(833.4 279.3)" class="st2 st3 st4">
      N14
    </text>
<text transform="translate(798.8 312)" class="st2 st3 st4">
      N16
    </text>
<text transform="translate(736.2 240.4)" class="st2 st3 st4">
      N17
    </text>
<text transform="translate(794.9 291.5)" class="st2 st3 st4">
      N15
    </text>
<text transform="translate(710.8 288.5)" class="st2 st3 st4">
      N18
    </text>
<text transform="translate(768.9 279.3)" class="st2 st3 st4">
      N19
    </text>
<text transform="translate(759.3 329.5)" class="st2 st3 st4">
      N20
    </text>
<text transform="translate(816.4 349.3)" class="st2 st3 st4">
      N21
    </text>
<text transform="translate(783.6 396.3)" class="st2 st3 st4">
      N22
    </text>
<text transform="translate(715.3 370)" class="st2 st3 st4">
      N23
    </text>
<text transform="translate(688 329.5)" class="st2 st3 st4">
      N24
    </text>
<text transform="translate(648.8 295.8)" class="st2 st3 st4">
      N25
    </text>
<text transform="translate(635.2 154.5)" class="st2 st3 st4">
      N9
    </text>
<text transform="translate(646.7 354.2)" class="st2 st3 st4">
      N26
    </text>
<text transform="translate(551.6 292.2)" class="st2 st3 st4">
      N27
    </text>
<text transform="translate(595.6 326.5)" class="st2 st3 st4">
      N28
    </text>
<text transform="translate(620.3 312)" class="st2 st3 st4">
      N29
    </text>
<text transform="translate(546.2 335.2)" class="st2 st3 st4">
      N31
    </text>
<text transform="translate(601.8 352.4)" class="st2 st3 st4">
      N32
    </text>
<text transform="translate(579.5 357.2)" class="st2 st3 st4">
      N30
    </text>
<text transform="translate(474.5 329.5)" class="st2 st3 st4">
      N33
    </text>
<text transform="translate(474.5 359.4)" class="st2 st3 st4">
      N34
    </text>
<text transform="translate(511.4 370)" class="st2 st3 st4">
      N35
    </text>
<text transform="translate(542.7 401.1)" class="st2 st3 st4">
      N36
    </text>
<text transform="translate(620.3 377)" class="st2 st3 st4">
      N37
    </text>
<text transform="translate(583.7 407.6)" class="st2 st3 st4">
      N38
    </text>
<text transform="translate(631 436.2)" class="st2 st3 st4">
      N39
    </text>
<text transform="translate(700.9 438.6)" class="st2 st3 st4">
      N40
    </text>
<text transform="translate(740.6 503.6)" class="st2 st3 st4">
      N41
    </text>
<text transform="translate(810.8 525.5)" class="st2 st3 st4">
      N42
    </text>
</g>
</svg>