<svg xmlns="http://www.w3.org/2000/svg" version="1.1" viewbox="0 0 1240 640" preserveaspectratio="xMidYMid slice" id="svgP">
<g id="P78" class="small-box bn">
<path class="st1" d="M500.4 186.5c.5-.2 1.5.2 1.4-.7-.1-.8-2.2-1.3-2.7-1.1-1 .3-.5 1.7-1.5 1.8l-1.3-.5c-1.5-.8.7-2.1 1.2-2.6 1-1 2.2-2.1 2.7-3.3l-.1-1.2c-1-1.9.2-4.2 1.1-5.9 1.3-2.6-.8-3.8-3.2-4.6-2.1-.7-4.4-1.1-6.5-1.8-1.6-.5-3-.5-4.8-.5-1.1 0-2.4-.1-3.3-.8l-.4-.2-1-1.4c0-.7-.4-1.5-.3-2.2 0-.8.1-.5.6-.9.5-.5.6-.2.4-1.3-.1-.5-.3-.8-.2-1.4.2-1 1-1.6.6-2.7-.4-1-1.7-1.2-2.3-2l-.2-1.6c.6-1.1 1.1-2.2.2-3.2-.8-.8-1.3-1.3-1.8-2.3-.7-1.4-3.3-2.7-2.1-4.6l1-.1c.7 0 2-.2 2.2-1.1.2-1-1-2.2-1.7-2.4-1-.4-1-.1-1.3-1-.2-.5-.1-1.1.2-1.6.4-.6 2.1-1.6 1.3-2.6.8-1 .8-2.4.8-3.6.1-.7-.2-1.3.4-1.6.2-.2 1.1-.1 1.5-.1l1.3-.7c0-1.4-.7-2.8 1-2.7 1.2.1 1.6.1 1.6-1.3l-1.1-1.1c-.4-1-.3-2.4-.1-3.5l.2-1.1c0-.4-.4-.6-.2-1l1-.8c2.3-1.3.2-3.9 2.2-5.1.8-.5 1.4-.8 1.8-1.8.4-1.1.5-1.6 1.6-2.3l1.2-1c.4-.8 1.4-1.7 1.1-2.7a2 2 0 0 0-.4-.6l-.5.3c-.6.5-1.8-1.1-2.2-1.7-.5-.6-.8-3-.9-3.5v-3.7c0-.8.2-2.9-.8-4s-1.6-2.1-2.5-2.2c-1-.2-2.2-.8-2.4-1.7-.2-1-1.1-1.4-1.7-.5-.6 1-2.2.6-2.2.6s-.5-2.2-.2-3.8c.3-1.6.3-2.7-1.4-3.7s-1.7.5-2.5.6c-.8.2-2.1-1.3-2.2-1.9-.2-.6.8-3.3 1-4.1.2-.8-.6-2.5-1.4-3.2-.8-.6-1.4 0-2.5-.6s-1.9 0-1.9.7-1.3.4-1.9.1c-.6-.3-1.7.2-2.1 1.1-.3 1-.8 2.9-.2 4.3.6 1.4-.1 4.9 0 5.4s-.6 1.7-1.2 2.5 0 3.8.3 4.5c.3.6 1.1 1.4.8 2.5-.3 1.1-1.1 2.9-1.3 3.8-.2 1-1 4.1-2.1 4.9-1.1.8-1.3.2-1.7 1.7-.5 1.6-.5 1.4-1.6 1.4s-1.6-1.6-2.7-2.1-2.1-.2-2.4 1.3c-.3 1.5-3 2.3-4.1 2.5a24 24 0 0 0-5.4 2.1c-1.1.6-1.4 3.3-2.2 5.2-.8 1.9-3.7 3.3-5.7 2.7-2.1-.6-1.6.8-3 2.1s-2.2-.3-2.4-1.4c-.2-1.1-1.7-.8-2.7-.8-.9 0-3 .7-3.7.8h-.1c-.6 0-3.5-3.3-4.3-4.1-.8-.8-2.2-.3-2.9 0-.6.3-2.5-4.5-3.2-5.2-.6-.8-2.7-1.4-3.8-2.4-1.1-1-2.2.2-2.2.2s-1.1.2-1.7-.6c-.6-.8-1.1 1-1.3 1.4-.2.5-2.1 1-3.3 1.1-1.3.2-1.1 2.4-1.1 3.8s-.6 2.1-1.7 1.6-3.7.2-4.1 0c-.5-.2-1.7-2.7-2.2-3-.5-.3-2.2-2.7-3.5-3-1.3-.3-2.9-2.2-4-2.7s-2.5.6-3.7 1.3c-1.1.6-2.5 0-2.5 0l-2.5 1.6c-1.6 1-2.5 1.6-2.5 3.8l.6 2.9c.3 1.6-1 2.9-.5 4.5.2.6 1.6 1.7 1.9 2.5.5 1 .3 2.1 1.1 2.9 1.9 1.6 4-.2 4.5 3.3.3 1.9 0 3.2-1.9 3.8l-4-1c-.3 4 2.7 7.8-2.9 9.4l-2.4 2.4c-1 .8-.6 2.7-.5 4 1.9-2.9 3.7-.8 4 1.3.3 1.3 0 1.6.5 2.9.5 1 1.3 1.9 1.7 3 .3-.3.8-.8 1-1.3l4.3-1.6c1.1.6 1.9-.5 3.2 0 1.3.5 1.7 2.4 2.9 3.2 2.4 1.3 4.9 0 4.5 3.8v2.1c.6 3.2-4.1-.3-2.9 3.7.6 1.6 1.9 1.1 3 2.4.6.6.8 1.9 1.1 2.7l.2.8.6 1.9c-.2 1.7 1.1 3.8 1 5.4-.3 1.6-1.4 1.4-1.1 3.2.2 1 1.1 2.2 1.6 3l2.7 1.4c-.5 2.2-4.3 5.7-2.1 7.6l3.2.6c1.7 0 4 1 5.6 1.6 4.3 1.7 1.3 3.3.5 6.8l-.6 2.4c.6 1.7 2.1 2.5 2.9 4 .6 1.3.2 3 1.1 4.5 1.6 2.1 3.3.6 5.7 1.4 2.9 1 4.6 3.3 6.7 5.4 2.1 2.4 1.9 2.9 1.9 5.3l.2-.1c.5-.4 1.8-1.8 2.2-1.8.4.1.6.7 1.1.8.4.1.8-.2 1.2-.4 1-.4 1-.2 1.9-.2 1.5 0 2.4-2.2 3.9-2.6 1-.3 1 .4 1.3 1.1.2.5 0 .4.5.8.5.3 1.3.2 1.8.4l4.3 1.5c.8.3 1.1.6 1.9.4 1.1-.4 1.2-.9 2 .2.4.5.1.5.8.8.5.2 1.2.2 1.7.2.7-.1 1.5-.2 2.1-.5 1.4-.8 1.7-2.4 2.1-3.8.4-1.4 1.3-1.3 2.6-1.4 1.3-.2 2.4-1.3 3.7-1.3-.4-1-1.9-2.9-.9-3.6 1-.7 2.4-.1 3 .7.2.3.2.9.5 1.2.5.5 1.3.5 1.9.9.6.5 1.3 1.3 1.5 2 .2.7.1 2 1 2.3.4.1 1-.2 1.4-.2.9-.1 1.7.1 2.6-.1l2.6-.5.7 1.4c.1 2-.3 3.3.4 5.2.6 1.5-.1 2.6-.4 4.1.9.1.9.8 1.8 1 1.1.1 1.2-.4 2.2.4.8.7 1.7 1.4 2.7 1.6 1.5.2 2 .1 2.6-1.1.4-1 .7-2.1 1.2-3 .4-.8 1.1-1.1 1.8-1.6.7-.7.7-1.6 1.4-2.1.6-.5 1.4-.4 1.7-1.1.4-1-.6-2.3 1.1-2.4 1.3-.1 2 1.9 3.1.4.8-1.1.7-2.4 1.5-3.5.5-.6.3-.9.6-1.6.3-.7 1.2-.8 2-1.3l.4-1.3c.5-1.1 1.6-1.9 2-3.2.4-1.2.1-2.5.5-3.8.3-.9.9-1.7 1.3-2.5.4-1.1.7-2 1.3-2.9.8-1.5 1.9-4.2 1.3-5.9-.2-.7-.5-1.5-1.1-1.9-.7-.4-1.5-.3-1.8-1.2v-.8c-.6-1 .4-2.6 1.8-3.1z"/>
</g>
<g id="P79" class="small-box bn">
<path class="st1" d="M578.2 213.6c-1-1.1-.6-1.9-1-3.1-.8-3.7-3-2.1-5.5-.7l-1.5.2-1 .1c-4.1-1.3-.1-10.3.2-12.9l2.1-3.5c.1-3.2-1.4-7.2-3.1-9.9l-1.9-4.4c-.6-1.8-1-3.8-1.2-5.7-.4-2.3-1.3-2.9-2.5-4.8l.4-2.1c0-.4-.2-3.2-.4-3.6-.7-1.2-2.5-.5-3.5.1l-.2-1.9c-.1-1.7 1.7-2.6 1.5-4.5-.1-1.6-.5-3.1-2-3.6l-.6-2.1c1.8-1.7 2.9-2.6 2.1-4.9-.6-2-1.4-3.7 1.4-3.5 1 .1 1 1 1.8.1 1.1-1 .4-1.7 2.4-2 .6-.1 1.8.6 2.3.2 1.2-.7-.1-2-.7-3l-1.3-1.6c-1.7-1.5-1-6.8 0-8.7.2-.6 1.2-1.3 1.3-1.8.2-.6 0-1.3.1-1.8.6-2.1 2.5-2.7 1.2-4.9-.8-1.2-2.3-2.4-3.3-3.2a12 12 0 0 1-3.2-4.2c-.6-1.4-1.4-2.5-2-3.7-.7-1.1-.5-1.9-.5-3.3-.1-1.9-.2-2.4.6-4.2.5-1 .8-1.9.9-2.8-.5.2-1.1-.2-2.7-1.1-2.4-1.3-3.8-3-4-3.7-.2-.6-2.1-1-2.9-1.9-.8-1-1.3-3.5-1.8-4.9-.5-1.4-2.7-3.5-4.6-4.6-1.9-1.1-4-2.7-5.1-3.3-1.1-.6-.2-3 0-4.3.2-1.3-1.4-3.5-1.6-4.8-.2-1.3-1.4-1-3.3-.5s-3.7 1.8-4.8 2.9c-1.1 1.1-2.9 1.9-3.7 1.4-.8-.5-1.3-1.6-1.9-.3-.6 1.3-1.1 2.1-1.1 2.5 0 .5-1.4.5-2.5-.3s-1.4-1.7-1.7-2.2c-.3-.5-1.7-.6-2.1.3-.3 1-1.1 1.1-1.7 1.3-.6.2-1-2.1-1-2.1s-2.2-2.4-1.9-3.3c.3-1-1.1-.6-2.4 0-1.3.6-1 .8-1 2.1s-.6 1.6-1.9 1.1c-1.3-.5-1.9-2.1-2.4-3.8-.5-1.7-2.2.4-3 1.5-.7 1.1 0 3.8 0 3.8l-.1 2.9s.2 2.9 0 4.1c-.2 1.3-1.9 4.6-2.1 5.7-.2 1.1-.2 3.2-.8 3.8-.6.6-1.7.6-1.7.6s-1.3 1-1.3 1.3c0 .3-.8 2.8-1.6 3.8s-1.4 2.2-1.6 4c-.1 1.2-.4 1.5-.7 1.7.2.2.4.4.4.6.4 1-.7 1.8-1.1 2.7l-1.2 1c-1.1.7-1.1 1.2-1.6 2.3-.4 1-1 1.3-1.8 1.8-2 1.2.1 3.8-2.2 5.1l-1 .8c-.2.4.2.6.2 1l-.2 1.1c-.2 1.1-.2 2.4.1 3.5l1.1 1.1c.1 1.4-.4 1.3-1.6 1.3-1.7-.1-1 1.3-1 2.7l-1.3.7c-.4.1-1.3-.1-1.5.1-.5.3-.3.9-.4 1.6-.1 1.3-.1 2.6-.8 3.6.8 1-.8 2-1.3 2.6-.3.4-.4 1-.2 1.6.2.9.3.6 1.3 1 .7.2 1.9 1.5 1.7 2.4-.2.8-1.5 1.1-2.2 1.1l-1 .1c-1.1 1.9 1.4 3.2 2.1 4.6.5 1 1 1.6 1.8 2.3 1 1 .4 2.1-.2 3.2l.2 1.6c.7.8 2 1 2.3 2 .4 1.1-.4 1.7-.6 2.7-.1.6.1.8.2 1.4.2 1 .2.8-.4 1.3-.5.4-.6.1-.6.9-.1.7.3 1.5.3 2.2l1 1.4.4.2c.9.7 2.2.8 3.3.8 1.7-.1 3.2 0 4.8.5 2.1.7 4.4 1.1 6.5 1.8 2.4.8 4.5 2 3.2 4.6-.8 1.7-2 4-1.1 5.9l.1 1.2c-.5 1.3-1.7 2.3-2.7 3.3-.5.5-2.7 1.8-1.2 2.6l1.3.5c1-.1.5-1.5 1.5-1.8.5-.2 2.7.3 2.7 1.1.1.8-.9.5-1.4.7-1.4.5-2.4 2.1-3 3.2v.8c.4.9 1.2.8 1.8 1.2.6.4 1 1.2 1.1 1.9.4 1.2 0 2.8-.5 4.2l-.8 1.7-1.3 2.9c-.4.8-1 1.6-1.3 2.5-.3 1-.2 2-.3 2.9l-.2.8c-.4 1.3-1.6 2-2 3.2l-.3.9c.4.8.8 1.7 1.4 2.4 1.7 1.7 2.1.6 3.9.6 4.9.4 1.4 4.2 1.2 6.4l-.5 2.5c-1.9 4.2 1.4 7.5 3.8 10.4l-.5 2.5c-1.2 1-1.3 2.1-2.1 3.2-1 1.2-2.6 1.1-3.8 2.1-3.3 2.7 1.7 4.2 2.9 6.2l2.1 2c.8 2.6 4.2 1.6 5.8.5 1.4-.8 2.5-3.6 3.5-5.2l1.1-3.1c.7-1 1.9-1 2.7-1.8.7-.7.7-2.1 1.8-2.6 2.7-1.2 2.5 2.4 3.7 3.3l2.3-.4c1.1-1.8 2.4-.1 3.7.2 1.6.6 2.4 0 3.8-.6 2.4-.8 4.3.1 6.2-2.3l1.2-2.9c1-1.6 4.9-.8 6.3-1.8.5-.4.6-1.2 1.2-1.5.5-.4 1-.1 1.6-.4.8-.5 1-.4 1.5-1 .5-.5.6-1.1 1.1-1.6h.1l2.6-.7c1.4 0 2.6.2 3.8-.7 1.4-1.2 1.1-1.9 3.2-1.8 2 .1 3.1 1.1 3.9-1 .5-1.2-.2-2.5 2-2l1.8 1.9c1.8-.1.6-2.6 2-3.5 2-1.1 2.7 1 3.8 1.6 3.1 1.8 3.9-3.6 6.8-4.1l.6-4.4c.3-.9-.7-.6-1.5-1.4z"/>
</g>
<g id="P80" class="small-box dap">
<path class="st1" d="M533 270.8c-.7-.4-2.4-1-2.9-1.5-1.4-1.4.6-3.5 1-4.9.3-1 .2-1.9.5-2.9.3-1.3 1.7-2.2 1.9-3.6.1-1-.7-2.2-1-3.1-.5-1.4-1.1-1.7-2.1-2.6-.8-.8-1.8-1.5-2.5-2.5-.6-.8-.6-1.8-1-2.6-.5-1.1-1.8-1.9-2-2.9-.1-.8.2-1.7.6-2.7-.8-.4-1.6-.7-2.3.4l-2.3.4c-1.2-1-1-4.5-3.7-3.3-1.1.5-1.1 1.9-1.8 2.6-.8.8-2 .8-2.7 1.8l-1.1 3.1c-1 1.7-2 4.4-3.5 5.2-1.7 1.1-5 2.1-5.8-.5l-2.1-2c-.5-.9-1.8-1.7-2.8-2.5-1.2-1-2-2.2-.1-3.7 1.2-1.1 2.9-1 3.8-2.1.8-1.1 1-2.3 2.1-3.2l.5-2.5c-2.4-2.9-5.7-6.2-3.8-10.4l.5-2.5c.2-2.3 3.7-6.1-1.2-6.4-1.8 0-2.3 1.1-3.9-.6-.6-.7-1-1.5-1.4-2.4l-.1.4c-.8.4-1.7.5-2 1.3-.3.7-.1 1-.6 1.6-.8 1.1-.7 2.4-1.5 3.5-1.1 1.5-1.8-.5-3.1-.4-1.7.1-.7 1.4-1.1 2.4-.3.7-1.1.6-1.7 1.1-.7.5-.7 1.4-1.4 2.1-.7.5-1.4.8-1.8 1.6-.5.9-.8 2-1.2 3-.6 1.2-1.1 1.3-2.6 1.1-1.1-.2-1.9-.9-2.7-1.6-1-.8-1.1-.3-2.2-.4-.9-.1-.9-.9-1.8-1 .2-1.5 1-2.6.4-4.1-.7-1.8-.4-3.2-.4-5.2l-.7-1.4c-.8.2-1.7.5-2.6.5l-2.6.1c-.4.1-1 .4-1.4.2-.9-.4-.7-1.7-1-2.3-.2-.8-.9-1.6-1.5-2-.6-.4-1.4-.4-1.9-.9l-.5-1.2c-.6-.8-2.1-1.4-3-.7-1 .7.5 2.6.9 3.6-1.3.1-2.4 1.1-3.7 1.3-1.3.2-2.1.1-2.6 1.4-.4 1.4-.7 3-2.1 3.8a4 4 0 0 1-2.1.5c-.5 0-1.3 0-1.7-.2-.7-.2-.4-.2-.8-.8-.8-1.1-1-.5-2-.2-.8.2-1.1-.1-1.9-.4l-4.3-1.5c-.5-.1-1.4-.1-1.8-.4-.5-.4-.2-.3-.5-.8-.4-.7-.3-1.4-1.3-1.1-1.5.4-2.4 2.6-3.9 2.6-1 0-1-.2-1.9.2-.4.2-.8.5-1.2.4-.5-.1-.7-.7-1.1-.8-.4 0-1.7 1.4-2.2 1.8l-.2.1v1.2L418 224c-2.9 3.3-2.4 5.4-1 9.4.5 1.4 1.6 2.9 1.9 4.3.3 1.3-.3 2.5.5 3.8v2.7c-.8 1.9.5 3.7.6 5.6.2 1.9-1.4 4-1 5.7.8 2.5 4.8 4.5 5.9 7.3.6 2.2.6 4.8-.5 6.8l-2.5 2.1c.6 1 1.4 2.2 1.6 3.5.2 1.1-.8 2.9-.5 3.7.8 2.4 4.5.5 5.7 3.5.6 1.4 0 3 .5 4.3.8 1.7 3.2 2.5 4.5 3.8l1.7 1.8 2 2.1c1 1 1.1 2.4 2.2 3l3.2 1c1.1 1.9 2.2 0 3.5-.2 1.6 0 2.7.8 4.3.5 1.7-.3 1.6-1.3 3.5.2 1.1.8 1.8 2.4 2.7 3.5 1 1.3 2.1 1.6 3.3 2.7 1.3 1.1 1.4 2.1 2.1 3.7 1 2.2 2.1 3.8 2.5 6.2l1 2.1c1.1.7 3.5 2.5 4.8 4.1l.6-.8c.6-.6 1.1-.2 1.7-.6 1.1-.6.1-.4.2-1.4.1-.8 1-1.3 1.4-1.7 1.5-1.1 2.2-1.2 4-.9a6 6 0 0 0 4.1-.8l1.9-1.1c2.1-1.8 1.3-3.1-.2-5.2-.9-1.3-3.1-4.7-1-5.6l.6-.2c1-.1 1.7.7 2.1 1.5.4.7.4.7 1 1.3.5.5.9.8 1.3 1.4.4.6.4 1.7.8 2.3.9 1.4 1.8-.3 2.9.2.6.3.2 1 1 1.1.6.2 1.4-.8 1.9-1 1.4-.2 1.8 1.4 3.1 1.2l1.2.8v1.7c.2 1.1.4.8 1 1.7.6 1 .1 2.1 0 3.4-.1 1.4.8 2.3 1.1 3.6.4 1.5.5 2.9 2.1 3.8l.6 1.5c.5.6.3 1.7.6 2.2.6.7 1.7.3 2.2 1.1.6 1-2.1 2.9.1 3.6l1.3-.1c1.4-.2.4-1.8 1-2.5.4-.5.6-.3 1.1-.2.6.1.6.6 1.4.5 1.2-.1 1.2-.6 2.3.6.6.6.6.9 1.4 1.2l.4.1.2-.9.5-2.4c.2-1.4-.3-1.7 1-2.9.8-.6 2-1.2 1.8-2.3-.3-1.8-3.5-3-2.5-5.3.4-1 1.5-1.4 2-2.4.4-1 .5-2.4 1.9-2.4 1.3 0 1.3 1.3 2.4-.1.6-.7 1-1.7 1-2.6-.2-1.5-1.3-1.6-2.1-2.5-1.4-1.7.5-3 .4-4.7-.1-1.1-1.4-1.2-1.8-2.1-.2-.8.2-3.1 1-3.5 1.2-.9 1.7 1 2.6-.6.2-.3.1-.9.4-1.3.3-.4.9-.5 1.2-1 .7-.9.5-2.2 1.3-3 .7-.7 1.9-.6 2.7-1 1.3-.8.6-2.4 1-3.7.2-.6.4-1.2.8-1.5.5-.5 1.5-.5 1.8-.8.6-.8.3-3.6.2-4.5-.2-1.4 0-1.3.6-2.5.6-1.4 0-2.3-.5-3.5-.6-1.3-.3-1.2.8-1.9.4-.2.6-.3.6-.6.4-.1.7-.7 1-1.4-1.2-.8-2.3-1.4-3-1.7z"/>
</g>
<g id="P81" class="small-box bn">
<path class="st1" d="M738.8 146.4c-.5-.8-2.1-.2-3-1-1.6-1.7-.6-5.1-2.4-7l-1.4-1.9c-4 0-1.9-6.7-5.6-6-.6.2-.5 1.4-1.3 1.7-.3.2-1.3-.5-1.8-.2-1.6 1 .5 2.1-1.3 3.3l-1.6.3c-1.7-.2-1.4-1.6-2.5-2.2-.8-.3-1.3 0-2.1-.2-1.4-.3-3.2-.8-4.6-.6l-2.5-.3c-5.4 2.7-2.5-1.7-5.6-3.8l-1.8-1.7c-4.3-.2-1.4-5.2-3.8-6.8l-.3-1.9c.3-2.7-.5-6.7 3.7-5.6l1.7-.8a15 15 0 0 0 2.2-3.8c.2-2.2-1.9-1.9-2.4-3.2-1.3-2.7 6.2-2.5 4-4l-1.4-2.5c-2.4-1.4-1-5.7-3.3-7.8-1-1.1-2.9-2.1-4-2.9-1.3-1-1.3-1.6-3.5-1.3-4 .5-8.3 1.3-12.1.8l-1.1-.5c-.5-1.7-1.9-.6-3.2-.8-1-.2-1.1-1.4-2.7-1H674c-1.7 0-1-1.4-1.9-2.1-.6-.3-1.4 0-2.2-.3-1.6-1.1-1.7-3.8-4.1-3.2l-2.1-1c-2.1-.5-1.3-2.2-2.2-3.5-1-1.3-2.9-1.1-3.3-2.9l-.5-1.9c.5-1.9-2.2-2.5-3.8-3-1-.3-2.1-.2-3.2-.5s-1.7-1.1-3-1.1c-1 0-1.9-.2-2.7.8-1.1 1.6.3.6.3 2.1 0 2.1-1 3.7-2.7 4.9 2.9 1.9 3.5 6.8 2.5 9.9l-.5 1.1c-.8.5-1.9.3-2.7-.5-.8-.8-1.7-1-3.3-.3-1.6.6-1.6-.2-1.9-1.1-.3-1-2.2-2.5-3.3-2.5-1.1 0-1.4 2.2-1.7 2.7-.3.5-1.9 2.9-3.3 4.1a8.1 8.1 0 0 1-5.4 1.7c-1.1-.2-3.3-3.3-6.1-4.3-2.7-1-3.6-2.7-5.1-4.5-1.4-1.7-4-.3-4.6-.3-.6 0-3.3-1.1-3.8-1.1s-3.7.8-5.4.6c-1.7-.2-4.6.8-5.2 1.7-.6 1 .5 2.9 1 3.2.5.3.8 2.7 0 3.8-.8 1.1-3 2.7-4.3 3.8-1.3 1.1-1.9 3.2-2.7 3.3-.8.2-3.7 1.3-4.1 1.3-.5 0-6.5-2.9-8.1-4.6-1.6-1.7-5.9.2-7.2.7-1.3.5-1.9.6-3.2 1.4-1.3.8-1.1 2.4-2.1 3.8-.3.5-.5.7-.8.8-.1.9-.4 1.9-.9 2.8-.8 1.8-.7 2.3-.6 4.2 0 1.4-.2 2.3.5 3.3.6 1.2 1.4 2.3 2 3.7a12 12 0 0 0 3.2 4.2c1.1.8 2.5 2 3.3 3.2 1.3 2.1-.6 2.7-1.2 4.9-.1.5.1 1.2-.1 1.8-.1.5-1.1 1.2-1.3 1.8-1 1.9-1.7 7.2 0 8.7l1.3 1.6c.6 1 1.9 2.3.7 3-.5.4-1.7-.4-2.3-.2-2 .4-1.3 1.1-2.4 2-.8.8-.8 0-1.8-.1-2.9-.2-2 1.4-1.4 3.5.7 2.3-.4 3.2-2.1 4.9l.6 2.1c1.6.5 1.9 2 2 3.6.1 1.9-1.7 2.9-1.5 4.5l.2 1.9c1-.6 2.7-1.3 3.5-.1l.4 3.6-.4 2.1c1.2 1.9 2.1 2.5 2.5 4.8.2 1.9.6 3.9 1.2 5.7l1.9 4.4c1.7 2.7 3.2 6.7 3.1 9.9l-2.1 3.5c-.4 2.6-4.3 11.6-.2 12.9l2.5-.4c2.5-1.4 4.7-3 5.5.7.4 1.2 0 2 1 3.1.8.8 1.8.5 2.3 1.9l-.6 4.4c-2.9.5-3.7 5.8-6.8 4.1-1.1-.6-1.8-2.6-3.8-1.6-1.4.8-.2 3.3-2 3.5l-1.8-1.9c-2.3-.5-1.6.8-2 2-.6 1.5-1.4 1.4-2.6 1.1l-1.4-.2c-2.1-.1-1.8.6-3.2 1.8-1.2 1-2.4.7-3.8.7l-2.7.7c-.5.5-.6 1.1-1.1 1.6-.6.6-.7.5-1.5 1-.6.2-1.1 0-1.6.4-.6.4-.7 1.2-1.2 1.5-1.4 1-5.4.2-6.3 1.8l-1.2 2.9c-1.9 2.4-3.8 1.4-6.2 2.3-1.4.6-2.3 1.2-3.8.6-.5-.1-.9-.4-1.4-.7-.4 1-.7 1.9-.6 2.7.2 1 1.5 1.8 2 2.9.4.9.4 1.8 1 2.6.7 1 1.7 1.7 2.5 2.5 1 1 1.6 1.3 2.1 2.6.3.9 1.1 2.1 1 3.1-.2 1.4-1.6 2.3-1.9 3.6-.2 1-.2 1.9-.5 2.9-.5 1.4-2.5 3.5-1 4.9.6.6 2.2 1.1 2.9 1.5.9.4 2.1 1 3.2 1.2 1.3.3 1.9 0 2.7-1 .5-.6.4-.8 1.1-1 .6-.2 1.6 0 2.1 0 1.9.1 2 0 3.1-1.3 1-1.1 2-1.4 3.4-1.8 1-.2 2.5-.9 3.6-.5.9.3 1.4 1.2 2.2 1.7 1.5 1 2.2 2 1.6 3.9 2.6 1 2.2-1.8 2.6-3.4.4-1.6 1.7-2.5 3.2-3.1 1.3-.4 3.1-.7 3.3 1.2.1 1.3-1 2.6-1 3.9l-.2 2.2c.8 2.1 4.5.5 5.9 0 1.1-.4 2.3-.7 3.4-1.4.9-.6 1.6-1.2 2.8-.9 1.2.3 1.6.9 2.9.4 1-.4 1.7-1.4 2.6-2 2.5-1.5 6.2-.5 8.8-.1.9.1 1.7 0 2.5.2l2 2.5c-.2 1.5-.4 2-1.7 2.6 0 0-2 .8-2.1 1.5-.1.7 1.6 1.2 1.6 1.2h.3l.1.9 1.5 2.7 1.8 3.7 1.3 3.3c.5 1.1 1.1 2 1.3 2.3v.1c.1.3-.2.9-.1 1.1.4.5 1.7.4 2.3.4.8 0 2.5-.5 3.2-.1.4.2.3.9.6 1.1.5.2 1 0 1.5.2 1.5.4 1.9 1.3 2.4 2.5.3.9 1.3 2.4 2.3 2.1.9-.2.9-1 .9-1.8v-.8c.2-1.1 1-2.9 1.9-3.5.8-.4 1.8 0 2.5-.7.6-.6.5-1.7.8-2.5.3-.9.9-1.2 1.4-2 .6-.8.7-2 .9-2.9.4-3.3 1.3-6.5 5.2-6.7l1.7 1.3c2.4.8 3.4 1.8 5.3 1.4l1.8-.6c1-.4 3-.7 3.6-1.7.4-.8-.2-1.8-.3-2.5-.4-2.1 2.1-3.9 4.1-4.2 1.3-.2 1.6.7 2.3 1.7.7 1.2 1.4 1 2.3 1.9.6.4 1.1 1.7 1.7.6l1.2-1.7c1.1-1 2-1.4 3.3-1.4.6 0 1.1.2 1.6 0 1-.3.6-.2.9-1.1.5-1.1 1-1.9 2.6-1.6 1.2.2 1.7 1.5 2.8 1.8.9.3 1.8-.2 2.7-.1 1.1.1 2.1.8 3.1 1.3l3.2 1.2c-.3-2-.9-3.3 1.2-4.7 1.3-.7 2.3-.8 3-2.3.4-.5 0-1.1.4-1.7.5-.5 1.4-.5 1.8-1.1 1.2-1.3.2-3.8.2-5.6l1.1-1.8c2.7.4 1.8-1.7 2.9-3.1 1-1.4 2.4-1 2.4-3.2l2.5-1.1s2.4.6 2.5 0c.1-.6-.6-.7.5-2.2l2.3-3.2-.9-1.1 2.6 3.1 1.9 1.3c.6 1.1.1 2.7 1.5 3.2l1.8 1.7c4-.3 5.6-4.8 5.7-8.1.2-3.3-.3-5.4 2.7-7.6l2.5-.8c1 .3 5.1-1 6-1.7 1.1-1 1.4-3.7 1.3-5.2-.2-1.1-1.1-2.5-1.1-3.7.2-1.6 1.3-3 1.7-4.5.6-1.6 1.7-3.6 2.2-5.5-4.6-1.1-12.4-8.2-6.5-10.2l3.2-1.3c2.2-.8 1.4-6.8 1.1-8.7l-1.3-2.5c-.6-.6-.5-1.4-.3-2.4l.8-3c.6-1.1 1.7-1.1 2.4-2.1.5-1 .2-2.5.2-3.5l.6-2.7c-.3-1.6-1.3-3.8.8-4.8 1.4-.8 3.2 1.4 4.1-.8l1.1-3.5c0-1.7 1.9-5.7 3.3-6.4 2.1-.6 3.8 1.6 5.7 1.4l1.9-.3c2.5-.3-.3-3.7-.5-5.4-.2-1.4-.8-5.2.3-6l2.2-2.4c1.1-.1 3-.7 2.2-2.3z"/>
</g>
<g id="P82" class="small-box pkr">
<path class="st1" d="M819.6 208.3c1.4-1 3.2-.6 4.1-2.2 1.6-2.7 0-5.5 1.6-8.4.5-.9 3.2-.2 3.2-.2 1.4.5 2.5-1.6 1-2.5-.6-.5-2.4.2-3 .3-2.4.6-4.5 1.1-7 1.3-4 .2-9.5.5-12.6-2.2l-2.9-1.1c.6 2.5.3 5.1 1 8 1.1 3.7-.3 7.2-4.3 8.1.3 1.9 1.3 4.6-.5 6.2l-.6 2.1c0 1.1 1.6 4 2.4 4.8 1.1.8 2.5-.2 3.7 1.1 2.2 2.4-.2 6.5-.8 9.1l.5 2.7c.6 2.5 5.4 11.3 1 13.2l-1.3 1.7c-.2 2.5-2.5 1.6-3.2 3.3-.6 1 .8 3.8 1.3 4.6l.6 2.7c-.4.8-.8 1.2-1.2 1.3-1.6.6-3.5-3.1-4.7-5.6-.6.9-1.1 1.9-2 2.4-1.3.6-3 0-4.2 1-.5.5-.5 1.3-1 1.7-.4.4-1.3.6-1.4.8-.7 1.1-.1 2.1-1.5 3-.7.5-2.7-.1-3.2.5-1.8 2 1.3 1.2 1.7 1.2 1.3.2 4.5 4.4 4.3 5.7l.6 1.8c.5 1 .1 1.8.7 2.9.5.8 1.1 1.8 1.9 2.1.7.2 1.7-.2 2.3.1 1 .6.8 1.6 1.7 2.3l1.7-1v.5c1.7-.2 3.1-2.1 4.1-3.2 1.4-1.9 1.5-2.2 3.3-2.9l.7-.2c2.4-.8 2.5-1.3 5-.4.8.4 2.2 1.1 3.5 1.4.6-1.8 0-6.5-.4-8.4-.6-3-2.4-5.2-1.8-8.6l1-4.1c.5-1.6 1.4-3.2 2.1-4.9.6-1.8 1.4-3 2.9-4.6l3.8-2.5c2.4-.8 3 3.8 5.6 2.1 2.2-1.6-.6-3.7-1.7-4.8l-2-1.5c-1.9-3.5-3.8-6.8-4.5-10.7-.6-4.5-3.7-8-3.5-12.6l.3-2.4c-.3-2 .5-4.1 1.7-5z"/>
</g>
<g id="P83" class="small-box pkr">
<path class="st1" d="M820.7 323.6c-3.2-3.8-5.7-8-8.4-12.2l-1.1-1.7c-1-2.7-2.7-4.9-4-7.5-1.1-2.5 0-4.3-.6-7l-.1-.2c-.5-1.3-1.5-1.9-1.6-3.4a11 11 0 0 1 .6-4.1c.8-2.8 2-6.6 3.3-9.3v-.1c1.6.5 6.7 3.3 7 .3l-.2-1.9.1-.3c-1.3-.3-2.6-1-3.5-1.4-2.5-1-2.6-.5-5 .4-2.4.8-2.4 1-3.9 3.1l-1.2 1.4c-.8.8-1.8 1.7-2.8 1.8v-.5l-1.7 1c-.8-.7-.7-1.7-1.7-2.3-.6-.4-1.5.1-2.3-.1l-.5-.3c-.3 1.1.1 2.3.3 3.7V284.6c-.1 1.2-1.6 1.6-3.1 1.7.7.7 1.1 1.6 1 3.1-.1 1.1 0 1.7.2 2.8.6 1.7.4 3.7 1.6 5.1 1 1.2 1.2 1.2.9 2.8-.3 1.4-.2 1.9.6 3.1.7 1.3 1.6 2.4 2.2 3.7.6 1.1 1 2.4 1.7 3.4.8 1.1 1.7 1.5 2 2.9.4 1.6.2 2.5 1.4 3.7 1.1 1 1.4 1.1 1.5 2.6.1.6 0 2.1.4 2.6.6.6 1.9.2 2.6.2 1.1 0 1.8.3 2.8.6 1.4.4 2 .2 3.3-.2 1.1-.3 2.7-.7 3.7.2.4.4.1.9.8 1.2.2.2 1 0 1.4 0 .7 0 1.6.1 2.3-.2v-.3z"/>
</g>
<g id="P84" class="small-box bn">
<path class="st1" d="M796.9 254.4l-1.3-2.9c.5-2.7-4.6-5.1-3-6.4l.8-2.7c1.1-3.7-7.3-3.2-6.8-7.5l-.3-2.5c-2.2-1.7-9.1 3-8.1-3l.3-2.4c-2.4-1.1-3.2 2.5-4.9 3-1.6.5-4.6-.5-5.6-1.7v-2c0-.5-1-1.4-2.1-1.8-1.2-.5-2.4 0-2.4 0-2.9-1.7-1.3-3.2-3.1-5.7-1.3-1.7-.6-1.6-2.7-2.1-1.3-.3-2.4-.2-3.5-.6l-3-1.1c-2.9.5-1.4-3.5-3.7-4.5-1.4-.5-3.8.3-5.6-.2l-3.2-.3c-2.1 0-2.1-2.2-3.8-2.9-1.6-.6-3.2.5-4.6 1.3-2.4 1.3-6.4 1.6-8.4 3.5l-3 1.9-1.3-.1c-.5 1.9-1.6 4-2.2 5.5-.5 1.4-1.6 2.9-1.7 4.5 0 1.1 1 2.5 1.1 3.7.2 1.6-.2 4.3-1.3 5.2-1 .8-5.1 2.1-6 1.7l-2.5.8c-3 2.2-2.5 4.3-2.7 7.6l-.2 1.6c-.5 3-2.2 6.2-5.5 6.5l-1.8-1.7c-1.4-.5-1-2.1-1.5-3.2l-1.9-1.3-1.7-2-2.3 3.2c-1.1 1.5-.4 1.6-.5 2.2-.1.6-2.5 0-2.5 0l-2.5 1.1c0 2.3-1.4 1.8-2.4 3.2-1.1 1.4-.1 3.5-2.9 3.1l-1.1 1.8c0 1.8 1 4.3-.2 5.6-.4.6-1.3.6-1.8 1.1-.4.6 0 1.2-.4 1.7-.7 1.4-1.7 1.5-3 2.3-2.4 1.6-1.2 3.1-1.1 5.6.1 1.2-1.3 4.4.5 4.2l1 .5c1.2.4 4.1 2.6 4.2 3.9 0 1.4-1.2 1-.2 2.4.5.8 1.7 1.4 2.4 1.8l1.2 1.1c.4 1.4-1 2.3.6 3.2 1.7 1 1.8-.6 3.3-.6l1.3-.5c2.6.1 4.9-3 6.2 1.3l-.4 1.7c-.4 1.8 1 2.1 2.1 3.1.7.6 1.2 1.1 2.1 1.6.6.4 1.2-.2 1.3 1l-.8 2.3c-.4 2.5 2.4 1.1 3.3.1 1-1.1.5-2.3 2-2.7 1-.4 3.3 0 4.2.5 2.3 1.3.2 2.5.5 4.4l1.1 1.4c3.6.7 7.8 4.2 9.8 7l3.3.8c6.1.5 11.9 2.7 17.9 4.2 2.9.7 6 .5 8.9 1.1l7.4 1.7c1.8.2 3.7 1 5.5.8l.8-1.9c-.5-1.6-.7-2.7-1.6-4.2-.6-1.2-1.2-1.9-1.3-3.2-.1-1.4 0-1.9.8-3.2.4-.6.5-.8 1.1-1.4.4-.4 1-.2 1.2-1.1l1.6-1.3c2.9-.1 5.6 3.7 8.5 1.1l.6-2.3c.5-1.9 2-2.1 2.5-3.8.4-1.7-1.1-3.8.8-4.8l2-.6c5.4-2.4-3.5-5.7-4.4-7.3l.2-.2 1-1.1c1.2-.2 1.9-.2 2.9-.7.8-.2 1.2-1 2.1-1 1.2 0 4.4 1.2 4.8 2.5l.6 2c2 .5 3.9-1 5.8-1 1.8 0 5.6.4 5.8-1.7v-1.7c-.2-1.4-.7-2.6-.3-3.7a5.2 5.2 0 0 1-1.4-1.9c-.6-1.1-.2-1.9-.7-2.9l-.6-1.8c.2-1.3-3-5.5-4.3-5.7l-1.6.2c-.6 0-.9-.3 0-1.4.5-.6 2.5 0 3.2-.5 1.4-.8.8-1.9 1.5-3 .1-.2 1.1-.5 1.4-.8.5-.4.5-1.2 1-1.7 1.2-1 2.9-.4 4.2-1 .9-.5 1.5-1.5 2-2.4l-1-1.9z"/>
</g>
<g id="P85" class="small-box bn">
<path class="st1" d="M833.5 338.2l-2.2-2.5c-1.1-2.4-4.1-3.3-5.7-5.6-1.5-2-2.9-4.2-4.6-6.3-.7.3-1.5.2-2.3.2-.4 0-1.2.2-1.4 0-.7-.3-.4-.8-.8-1.2-1-1-2.5-.6-3.7-.2-1.3.4-1.9.6-3.3.2-1-.2-1.7-.6-2.8-.6-.7 0-2.1.4-2.6-.2-.4-.5-.3-2.1-.4-2.6-.1-1.5-.4-1.7-1.5-2.6-1.3-1.2-1-2.1-1.4-3.7-.3-1.4-1.2-1.7-2-2.9-.8-1-1.2-2.3-1.7-3.4-.6-1.3-1.5-2.4-2.2-3.7-.7-1.2-.9-1.7-.6-3.1.3-1.6.2-1.6-.9-2.8-1.2-1.4-1-3.3-1.6-5.1-.2-1.1-.3-1.7-.2-2.8 0-1.5-.4-2.3-1-3.1h-2.7c-1.9 0-3.8 1.4-5.8 1l-.6-2c-.4-1.3-3.6-2.5-4.8-2.5-1 0-1.3.7-2.1 1-1 .5-1.7.5-2.9.7l-1.2 1.3c1 1.6 9.8 4.9 4.4 7.3l-2 .6c-1.9 1-.5 3.1-.8 4.8-.5 1.7-2 1.9-2.5 3.8l-.6 2.3c-2.9 2.6-5.6-1.2-8.5-1.1l-1.6 1.3c-.2.8-.8.7-1.2 1.1-.6.6-.7.8-1.1 1.4-.8 1.3-1 1.8-.8 3.2.1 1.3.7 2 1.3 3.2.8 1.4 1.1 2.6 1.6 4.2l-.8 1.9c-1.8.1-3.7-.6-5.5-.8l-7.4-1.7c-3-.6-6.1-.4-8.9-1.1-6-1.4-11.8-3.7-17.9-4.2l-2.4-.6a5.8 5.8 0 0 0-.1 4.1c.5 1.7-.5 2.9-.3 4.5.2 2.2 2.1 3.3.3 5.4-.8 1-1.9 1.5-2.6 2.5l-1.6 2.8c-1.1 2.4 2 7.3-1.3 9-.8.4-1.5.4-2.3.9-.8.6-1.3 1.1-2.2 1.4-2 .5-1.7 1-1.5 2.9l-.6 2.8-3 3.9-3-.2c-1 0-2.3-.5-3.1.2-1.3.9-.2 1.8.1 2.9.8 2.6-1.1.6-2.7.2-6.6-1.6-2 1-3.2 2-1.3 1-2.9 0-4.2.3-1.8.5-1 2.3-.7 3.7l1.1 2.2c1.7.4 2.5 1.5 3.8 2.5.6.5.9.3 1.3 1.1.5.8.6 1.7 1.2 2.5.9 1.2 1.4 2.9 2.5 3.8.8.6 1.4.2 1 1.6-.2.6-.9 1.5-1.3 1.9l.7 2.2c1.2 2.1 3.5 3.8 4.5 6 .5 1.1.2 1.4 1.3 2.1 1 .6 2.1 1.1 2.9 1.9 1.9 1.7 3.7 3.6 5.3 5.4.8.9.9 1.8 1.9 2.3 1 .5 2.1 1.3 3.2 1.6.8.2 1.9.3 2.5-.3l1.6-2.1c-.3-1.4 1-2.5 1.4-3.7.4-1.3.4-2.1 1.8-2.8 1.2-.6 2.1-.1 2.5 1.1.4 1.1.2 1.2 1.2 2.1l2 2.5c2.3 1.8 3.9-1.3 6.5-1.3.9.1 1.5.6 2.3.6 1.2 0 1.2-.7 1.7-1.5.9-1 1.4-1 2.5-1.3 1.1-.3 1.9-1 2.8-1.7 1.8-1.8 3.3-3.2 4.8-5.2l1.5-1.1-.9.7c1.5 2.9 4 6.4 2.3 9.1l-.4 1.8c-.4 2.3 1.4 1.4 2.5 2.6.8 1.1-.5 2.9.8 3.7l1.9.1c2.5.1 2.1 3.8 3 5 1.2 1.4 5.4 1.4 5 3.3l-1.7 2.4c-.8.4-2.3 1.3-2.4 2.3-.1 1.2 1.3 1.9 1.4 3.1l-.1 1.4c-1.8.7-.5 1.8-1.1 2.7-.5.8-2.1.8-2.9 1.8-1.3 2 1.4 3 .5 5.4l.4 1.7c.6 1.8 1.8 3.1 2.7 4.7.4.7.6 1.9 1.2 2.6.7.8 1.9.4 2.3 1.6 0 0 .7.5-1.2 1.2-.9.3-3 .4-1.8 1.9.4.6 1.5.5 2.3.4.8-.1 1.7-.8 2.5-1 .8-.1 1.8.5 2.7.5 1.4-.1 1.8-.5 3.2.2 1.2.7 1.1 1.2 1.7 1.9.4.4.2.6.6 1 .2.2.8.1 1 .2 1 .6 1.8 1.3 2.6 1.9l1.9-.7c1.2-.7 1.6.8 2.3 1.5.7.7 1.9.7 2.5 1.2 1.8 1.8.2 2.7-1.3 3.3-2.3.8-2 1.3-1.4 3.6.5 1.7.8 3.6.8 5.5l1.3 1.7c1.4 1.2 5.8.4 7.9.4 3.5-.1 6.7-1.1 10.3-.8 3.1.2 6.2.6 9.3 1 2.7.2 5.4-.1 8.1.1 3.2.3 7 3.7 10.1 3.2l.6-3.7c.2-2.5-.5-5.1-.3-7.8.2-2.9-.2-5.9 0-8.9.3-3.2 2.2-6 2.7-9.1.6-3.2-.2-6.7-.2-9.9-.2-3.7-.2-7-.5-10.7-.5-4.3.6-8.9-.3-13.2-1.1-4.6-3.3-8.6-3.2-13.7l-.6-5.7v-10.9l-.2-5.2 2.2-5.4a32 32 0 0 0 3.8-6.7c.6-2.1.8-4.1 2.1-5.9l2.9-2.4c1.4-3.9-1.5-6.9-3.7-9.8z"/>
</g>
<g id="P86" class="small-box bn">
<path class="st1" d="M715.1 319.9c-.2-1.7.8-2.8.3-4.5-.4-1.2-.5-2.8.1-4.1l-.9-.2c-2-2.9-6.2-6.3-9.8-7l-1.1-1.4c-.2-1.9 1.8-3.1-.5-4.4-.8-.5-3.2-.8-4.2-.5-1.6.5-1.1 1.7-2 2.7-1 1-3.7 2.4-3.3-.1l.8-2.3c-.1-1.2-.7-.6-1.3-1-1-.5-1.4-1-2.1-1.6-1.2-1-2.5-1.3-2.1-3.1l.4-1.7-.6-1.3c-1.3-2.2-3.4.1-5.6 0l-1.3.5c-1.6 0-1.7 1.6-3.3.6-1.6-1-.2-1.8-.6-3.2l-1.2-1.1c-.7-.4-1.9-1-2.4-1.8-1-1.4.2-1 .2-2.4-.1-1.3-3-3.6-4.2-3.9l-1-.5c-1.8.2-.4-3-.5-4.2l-.1-.9c-1.2-.3-2.5-.8-3.2-1.2-1-.5-2-1.2-3.1-1.3-.9-.1-1.8.4-2.7.1-1.1-.3-1.6-1.6-2.8-1.8-1.6-.3-2.1.5-2.6 1.6-.3.9.2.8-.9 1.1-.5.2-1 0-1.6 0-1.4.1-2.2.5-3.3 1.4l-1.2 1.7c-.6 1.1-1.2-.2-1.7-.6-1-.9-1.6-.7-2.3-1.9-.7-1-1-2-2.3-1.7-2.1.3-4.5 2.1-4.1 4.2.2.7.7 1.7.3 2.5-.6 1-2.6 1.4-3.6 1.7l-1.8.6c1.3 2 2.6 3.4 2.6 6.2 0 4 1.3 6.5 2.2 10.2.6 2.4 1.4 4 2.9 6 1.3 1.7 2.9 3.3 3.8 5.4.8 1.9.5 3.8.2 5.8-.1 1.2-.3 2.4-.1 3.6.6 3.3.8 7.3-3 9.2l-1.4 1.1c-1.4.2-3.8-.8-4.9.5-1.7 1.7.3 3.7-3.3 4.5-1.1.3-2.4-.2-3.7 0-1.6.2-3.2.8-4.9.8l-1.9 1.1-.3.7c-.5 1.1-1.2 2.4-1.4 3.5-.3 1.1.8 4.1.3 4.8l-.5.3c1.7 2.7 3.5 5 4.6 8.2l.6 2.2-.4 1.6.6.1c1 0 1.1-.4 1.8-.5 1.8-.4 2.9.4 4.5.8 2.6.7 5.2.4 7.5 1.7 1.8 1 2.7 2.3 4.1 3.7 2.4 2.4.7 2.3-.2 4.7-.6 1.3-.7.8.1 2.1.6.6 1.2.8 1.8 1.1l1.9.1c.7.2 1.3.7 2.1.8 1.2.2 2.4-.1 3.6 0 2 .2 2.4 1.2 3.3 2.7 1.4 2 5 2.7 7.3 3.9-1.6 2.6 1.9 1.5 2.9 2.9.7 1-.1 2.5-.4 3.5-.4 1.7-.7 2.9 1 3.8 2 1.2 2.9-.5 4.5-1.3 2.3-1.2 2.3-.8 2.7-3.5l.4-3.9c.3-1.7.7-3.4 1.6-4.4.8-.9 2-1.3 3.8-.7 1.8.5 2.9 3.5 4.3 3.7.7.1 1.9-1.1 2.9-1.2h2.1c.8-.4 1.3-1.2 2.3-1.4 1.3-.4 2.1.2 3.3.6l1.3.1c.4-1.4-.2-1-1-1.6-1.2-.9-1.7-2.6-2.5-3.8-.6-.9-.7-1.8-1.2-2.5-.4-.8-.6-.6-1.3-1.1-1.3-1-2.1-2.1-3.8-2.5l-1.1-2.2c-.3-1.4-1.1-3.2.7-3.7 1.4-.3 2.9.7 4.2-.3 1.2-1-3.4-3.6 3.2-2 1.6.4 3.5 2.4 2.7-.2-.3-1-1.4-2-.1-2.9.8-.6 2.1-.2 3.1-.2l3 .2 3-3.9.6-2.8c-.2-1.9-.5-2.4 1.5-2.9 1-.2 1.4-.7 2.2-1.4.8-.5 1.5-.5 2.3-.9 3.3-1.7.2-6.6 1.3-9l1.6-2.8c.7-1 1.8-1.5 2.6-2.5 1.9-1.8 0-2.8-.3-5.1z"/>
</g>
<g id="P87" class="small-box bn">
<path class="st1" d="M643.6 316.3c-.5-3.2 1.1-6.4-.2-9.4-1-2.1-2.5-3.7-3.8-5.4a20.8 20.8 0 0 1-2.9-6c-1-3.7-2.2-6.2-2.2-10.2 0-2.8-1.3-4.2-2.6-6.2-1.9.4-2.9-.6-5.3-1.4l-1.7-1.3c-4 .2-4.8 3.3-5.2 6.7-.2 1-.3 2.1-.9 2.9-.5.8-1 1.1-1.4 2-.3.8-.2 1.8-.8 2.5-.7.7-1.7.3-2.5.7-1 .6-1.7 2.4-1.9 3.5v.8c0 .8-.1 1.6-.9 1.8-1 .3-2-1.2-2.3-2.1-.5-1.3-.9-2.1-2.4-2.5-.6-.2-1 .1-1.5-.2-.3-.2-.2-.9-.6-1.1-.7-.4-2.4.1-3.2.1-.6 0-1.9.1-2.3-.4-.2-.2.2-.8.1-1.1v-.1c-.2-.2-.8-1.1-1.3-2.3l-1.3-3.3a565 565 0 0 1-1.8-3.7l-1.5-2.7-.1-.9h-.3s-1.7-.5-1.6-1.2c.1-.7 2.1-1.5 2.1-1.5 1.4-.6 1.5-1.1 1.7-2.6l-2-2.5c-.8-.2-1.7-.1-2.5-.2-2.6-.4-6.4-1.4-8.8.1-.9.6-1.6 1.6-2.6 2-1.3.5-1.7-.1-2.9-.4-1.2-.3-1.9.3-2.8.9-1.1.6-2.3 1-3.4 1.4-1.4.5-5.1 2.1-5.9 0l.2-2.2c.1-1.3 1.1-2.6 1-3.9-.2-1.9-2-1.6-3.3-1.2-1.5.6-2.8 1.5-3.2 3.1-.4 1.6 0 4.5-2.6 3.4.6-1.9-.1-2.9-1.6-3.9-.8-.6-1.4-1.4-2.2-1.7-1-.4-2.6.2-3.6.5-1.4.4-2.5.7-3.4 1.8-1.1 1.3-1.2 1.4-3.1 1.3-.6 0-1.5-.2-2.1 0-.7.2-.6.5-1.1 1-.8 1-1.4 1.3-2.7 1l-.4-.1c-.2.8-.5 1.4-1 1.4 0 .2-.2.3-.6.6-1.1.7-1.4.6-.8 1.9.5 1.2 1 2.1.5 3.5-.6 1.3-.8 1.1-.6 2.5.2.9.5 3.7-.2 4.5-.3.3-1.3.3-1.8.8-.4.3-.6 1-.8 1.5-.3 1 0 2.1-.4 3l1.9.2c1.4.5 3.2 3.3 3.5 4.9.5 2.2-1.1 4.3-.6 6.8.5 2.7 1.1 2.4 3.3 2.5 2.1.2 3.5.8 5.1 2.2 1.7 1.6 1.7 3.7 3.7 5.2.8.8 1.9.8 2.7 1.4.5.3 1.3 2.1 1.9 2.1.6.2 1.7-1.6 2.5-1.9a5 5 0 0 1 2.7 0l2.2.2c1.3-.3 2.1.6 3.3.6 1 0 2.1-1 3-1 2.7.2 4.3 5.4 1.1 5.2l-.8 2.4c0 4 .8 2.1 3.7 3.5 1.6.8 2.7 3.8 3.2 5.6l.5 3.5c-.3 3.3 2.1 2.1 4 2.5 2.4.6 4.1 2.7 6.5 3.5l.8-1.9c.1-.6.3-1 .7-1.4 2.5-2.4 11.3 1.2 13.5 1l1.9-.8c.6-2.5 2.1-1.7 3.7-2.4 1.6-.8 2.4-2.5 3.5-.5.8 1.3-.6 2.7-.3 4 .5 1.6 2.2 1.7 3.8 2.2 1.3.3 7.2 1.8 7.8.8.5-.6-.6-3.7-.3-4.8l1.4-3.5.3-.7 1.9-1.1c1.7 0 3.3-.6 4.9-.8 1.3-.2 2.5.3 3.7 0 3.7-.8 1.6-2.7 3.3-4.5 1.1-1.3 3.5-.3 4.9-.5l1.4-1.1c3.8-1.6 3.6-5.6 3-8.9z"/>
</g>
<g id="P88" class="small-box amanah">
<path class="st1" d="M623.2 362.9v-1.6c0-2.7-.3-5.7.5-8.3l-.6-2.2c-1.2-3.1-2.9-5.5-4.6-8.2-1.6.3-6.2-.8-7.3-1.1-1.6-.5-3.3-.6-3.8-2.2-.3-1.3 1.1-2.7.3-4-1.1-2.1-1.9-.3-3.5.5-1.6.6-3-.2-3.7 2.4l-1.9.8c-1.1.1-3.6-.7-6.3-1.3l-2.4-.4c-2-.3-3.8-.2-4.8.7-.4.3-.6.8-.7 1.4l-.8 1.9c-2.4-.8-4.1-2.9-6.5-3.5-1.9-.5-4.3.8-4-2.5l-.5-3.5c-.5-1.7-1.6-4.8-3.2-5.6-2.9-1.4-3.7.5-3.7-3.5l.8-2.4c3.2.2 1.6-5.1-1.1-5.2-1 0-2.1 1-3 1-1.3 0-2.1-1-3.3-.6l-2.2-.2a5 5 0 0 0-2.7 0c-.8.3-1.9 2.1-2.5 1.9-.6 0-1.4-1.7-1.9-2.1-.8-.6-1.9-.6-2.7-1.4-1.9-1.6-1.9-3.7-3.7-5.2a7.6 7.6 0 0 0-5.1-2.2c-2.2-.2-2.9.2-3.3-2.5-.5-2.5 1.1-4.6.6-6.8-.3-1.6-2.1-4.5-3.5-4.9a10 10 0 0 0-1.9-.2c-.1.3-.3.6-.7.8-.8.5-2 .3-2.7 1-.8.8-.6 2.1-1.3 3-.3.6-.9.6-1.2 1-.3.4-.2 1-.4 1.3-1 1.6-1.4-.2-2.6.6-.7.4-1.2 2.7-1 3.5.3 1 1.7 1 1.8 2.1.1 1.7-1.8 3-.4 4.7.9 1 2 1 2.1 2.5.1.9-.4 1.9-1 2.6-1.1 1.3-1.1.1-2.4.1-1.4 0-1.5 1.4-1.9 2.4-.5 1-1.6 1.4-2 2.4-1 2.3 2.1 3.5 2.5 5.3.2 1.1-1 1.7-1.8 2.3-1.4 1.1-.8 1.4-1 2.9l-.5 2.4-.2.9c.3 0 .6-.1.9.4l.6-.6c.1-1 1.4-2.2 2.2-1.6.9.6.8 2.4 1.1 3.3.4 1.4 1.5 3.9 2.5 5.1l1.2 1.6c1.6 1.7 1.6 1.2.6 3-1.1 2.1.9 1.2 1.9.8 1-.3 2.6.2 3.3-.4.9-.7-.2-2.1 1-2.7l.5-1.4c.6-.3.7-1.8 1.2-2 .9-.2.8.9 1.3 1.1.6.3 2.6.4 3.3.5.4 0 1.2 0 1.6-.2.5-.3.5-1.3 1.4-1.4 1-.1 1.6 2 2.5 2.5l1.8.6c.9 0 2.4-.3 2.9.4.6.7.2 2.1-.4 2.5-.6.5-1.7.3-2.2.8-.4.4-.2 1.1-.7 1.5-.6.6-2.1-.2-2.1 1.1l-.7 1.7c-.5.2-1 .6-1.6.6-1-.1-1.2-1.1-1.9-1.4-.4-.2-1.8-.2-2.2 0-1.1.6-.6 1-.2 1.7.5 1.5-.2 1.8-.2 3.3 0 1 1.6 2.8.1 3.3l-.9.5c.4 1 1.1 1.2 1 2.4-.1 1.4-.7 1.8-1.6 2.6-2 2 1.5 3.5-.5 5.2l.2 1.8c.6.9 1 1 1.8 1.4 1 .7.8.8.7 1.9-.1 1.2-.1.7.6 1.6.5.6.7.8.6 1.7l.9 1.4c.1 2.3 1 1 2.3.4 1.4-.5 1.7.2 1.1 1.4 1.5.3 2.2-1 2.6-2.2l.4-1.1c.8-.9 1.7-.6 2.8-.2-.1-1.8 2.6-.4 3.7-1 .9-.5.8-.8 1.7-1 .7-.1 1.3 0 1.9-.3l1.6-1.2c2.5 0 3-.9 4.8-1.8.3-.2.8-.2 1.1-.3.4-.2.4-.8 1-1 .6-.2 1.4.1 1.6.7l.6 1.8c.5 2.2 2.7.2 3.7.8.4.2.4.7.6 1l1 .7c.3.5.6 1.1 1.1 1.2l1.7-.5c4.1-.5 2.9 4.3 5.6 5.3l.9-.6c.1-.7-.2-1.5.4-2 .4-.3.7-.3.9-.2.2-.2.6-.4 1.2-.4-1.1-3.7 1.4-5.6 5.1-4.8 1.3.3 2.9 1.9 3.8 1.4 1.1-.6-.5-3.2 2.2-2.2l.6 1.6c1.7.6 4.3-.2 6.2-.2 2.1 0 4.1-.3 5.9.5l.5.1 2.4.7c2.1-.2 4 .8 5.9.5a3 3 0 0 1 .8-2.9l1.1-2.7c.5-1.4.2-3.3.6-4.8.5-1.3 1.4-2.4 1.7.2l1 .8c2.2.8 5.5-1.9 3.1-3.1z"/>
</g>
<g id="P89" class="small-box dap">
<path class="st1" d="M585.1 384.2l-1-1.4c-1.2-1-1.6-2.2-2.2-3.4-.3-.6-.8-1.4-1.7-.7-.6.5-.3 1.3-.4 2l-.9.6c-2.7-1-1.5-5.8-5.6-5.3l-1.7.5c-.5-.1-.8-.7-1.1-1.2l-1-.7c-.2-.3-.2-.8-.6-1-1-.6-3.2 1.4-3.7-.8l-.6-1.8c-.2-.6-1-.9-1.6-.7-.6.2-.6.7-1 1-.3.2-.8.1-1.1.3-1.7 1-2.3 1.8-4.8 1.8l-1.6 1.2c-.6.3-1.2.2-1.9.3-1 .2-.9.5-1.7 1-1.1.6-3.8-.8-3.7 1-1-.4-2-.6-2.8.2l-.4.9c-.4 1.3-1.1 2.5-2.6 2.2.6-1.2.2-1.8-1.1-1.4-.8.4-1.5 1.1-1.9.9-.2-.1-.3-.5-.4-1.3l-.9-1.4c.1-1-.2-1.1-.6-1.7-.6-.9-.6-.4-.6-1.6.1-1.1.3-1.2-.7-1.9-.8-.5-1.3-.6-1.8-1.4l-.2-1.8c2-1.7-1.5-3.3.5-5.2.9-.9 1.5-1.3 1.6-2.6.1-1.2-.6-1.4-1-2.4l.9-.5c1.5-.6-.1-2.3-.1-3.3 0-1.4.7-1.7.2-3.3-.3-.8-.9-1.2.2-1.7.4-.2 1.8-.2 2.2 0 .7.3 1 1.3 1.9 1.4.6.1 1.1-.3 1.6-.6l.7-1.7c0-1.4 1.5-.6 2.1-1.1.5-.4.3-1.1.7-1.5.6-.5 1.7-.3 2.2-.8.6-.5 1-1.8.4-2.5s-2.1-.4-2.9-.4l-1.8-.6c-1-.6-1.6-2.6-2.5-2.5-.9.1-.9 1-1.4 1.4-.4.2-1.2.2-1.6.2-.7-.1-2.8-.2-3.3-.5-.5-.2-.4-1.4-1.3-1.1-.5.2-.6 1.7-1.2 2l-.5 1.4c-1.1.6-.1 2-1 2.7-.7.6-2.4.1-3.3.4-1 .4-3 1.3-1.9-.8 1-1.8 1-1.3-.6-3l-1.2-1.6a13 13 0 0 1-2.5-5.1c-.3-1-.2-2.8-1.1-3.3-.9-.6-2.1.6-2.2 1.6l-.6.6c-.4-.8-.8-.2-1.3-.5-.7-.3-.8-.6-1.4-1.2-1.1-1.1-1.1-.6-2.3-.6-.8.1-.7-.4-1.4-.5-.5-.1-.7-.2-1.1.2-.5.6.2 2-.5 2.4l-.4.1-1.2.1c-2.1-.7.5-2.5-.1-3.6-.5-.8-1.7-.4-2.2-1.1-.3-.5-.2-1.6-.6-2.2l-.6-1.5c-1.7-.9-1.7-2.3-2.1-3.8-.3-1.3-1.2-2.2-1.1-3.6.1-1.3.6-2.4 0-3.4-.6-.9-.8-.6-1-1.7v-1.7l-1.2-.8c-1.3.2-1.7-1.4-3.1-1.2-.6.2-1.3 1.1-1.9 1-.9-.1-.4-.8-1-1.1-1-.6-2 1.1-2.9-.2-.4-.6-.4-1.7-.8-2.3-.4-.6-.8-1-1.3-1.4-.6-.6-.6-.6-1-1.3-.6-1-1.4-2-2.7-1.4-2.1 1 .1 4.4 1 5.6 1.4 2.1 2.3 3.4.2 5.2l-1.9 1.1c-1.4.8-2.5 1-4.1.8-1.7-.3-2.5-.2-4 .9-.5.5-1.4 1-1.4 1.7-.1 1 1 .9-.2 1.4-.6.4-1.1 0-1.7.6-.3.3-.5.5-.6.8.5.6.9 1.3 1 1.8.2 1.6-.6 4.9-1 6.4-.3 1.7-1 5.1-2.4 6.2-1 1-2.2.2-3.2.8-1.1.6-1.6 2.7-2.1 3.8l-1.6 3.2c-.7 2.9 0 5 1.1 7.4l1.2 2.5c1.1 2.1-.2 6.7 2.1 8.1l.2 2.2c-.8 1.6-2.4 1.7-3.7 2.7-.8 1-1.4 2.5-1.7 3.7-1 2.4-.6 6.7 3 6.7l.5 1.4c-1.4 1.4.3 2.7 1.4 3.7 1.6 1.1 2.4 1.6 3.7 3.2 1.9 2.1 3.3 4.8 5.7 6.7l3.3.8c3 .2 2.7 5.9 5.6 4l2.2.8c1.3 3.5 3.8 1 5.4.5 1.1-.2 1.1.5 2.5-.3a6 6 0 0 0 2.4-2.1l.3-1.6c-.1-2.6 1.3-1.8 2.5-.6.9.9 1.8 2.1 1.8 2.2 1.7.8 3.5-1 5.1.8l.1.2c1.7 2-.4 4.7 1 6.4.5.8 4 2.2 4.9 2.1l3.8.3c3.3-1.4 6.7 1.1 7.8 4 1 2.4.6 3.2.5 5.4-.2 1.6.5 4.8 2.1 4.8l3.5-.8c.6-2.4-.5-3.2 2.4-4 1.3-.2 2.7 0 4.1 0l2.2-1c0-.3 0-.6.2-1 1.7.5 2.2-1.1 4-1 1.7.3 2.5 2.5 3.5 3.5 1.3 1.3 6 4.1 7.8 3.7l5.7 1.7c5.7 2 11.4 3.1 17.2 4.3.3-.9.7-1.7 1.2-2.3.6-.6 1.4-.6 1.9-1.3 1-1 .4-.8-.4-1.2l-2.1-1c-.7-.2-1.7.6-2.3.2-1.3-.6 1-3.2-1-3.3l-1.4-.3c-2.2.5-.6-1.7-.1-2.3.9-1 1.3-1 2.3-1.7.9-.5 1.6-1.6 1.9-2.5.6-1.5-.6-2-.8-3.5l.5-1.8c1.4-.9 1.1-2.1.4-3.2-.6-.9-1.1-.5-.3-1.4l1.3-1.3c1-.8 2.2-.6 2.2-2.1 0-1.6-1.6-1.5-1.2-2.9l1.2-1.6c1.6-.4 2.1.4 2.7-1.4.4-1.4.9-1.8 2.3-2.5.6-.3 3.4-.8 3.5-1.5.2-1.1-2.6-1.6-3.3-1.5z"/>
</g>
<g id="P90" class="small-box bn">
<path class="st1" d="M686.7 414.6c-1.2-1.3-3.2-1.6-4.7-2.6a24.3 24.3 0 0 0-5.2-3c-2.3-1.1-1.2-1.6-1.9-3.5-.6-1.3-1.8-2.1-2.3-3.7-.6-1.9 0-3-2.1-3.5-2.3-.5-2.1.2-3.1-2-.8-1.5-1.3-2.4-1.3-4.2 0-.6-.1-1.4.1-2 .4-1 1.4-1.1 1.8-1.9.2-.6.1-1.4-.2-2.1-.7.4-1.4.6-2.5 0-1.3-.7-1.4-1.6-1.2-2.8l.2-1.1c.2-1 1.1-2.5.4-3.5-1-1.3-4.4-.2-2.9-2.9-2.3-1.2-5.8-1.9-7.3-3.9-1-1.6-1.3-2.5-3.3-2.7-1.2-.1-2.4.2-3.6 0-.8-.1-1.4-.6-2.1-.8l-1.9-.1c-.6-.2-1.2-.5-1.8-1.1-.8-1.3-.7-.8-.1-2.1 1-2.4 2.6-2.3.2-4.7-1.3-1.4-2.3-2.7-4.1-3.7-2.3-1.3-4.9-1-7.5-1.7-1.7-.5-2.7-1.2-4.5-.8-.7.1-.8.5-1.8.5l-.6-.1c-.3 2.1-.1 4.5-.1 6.6v1.6c2.4 1.3-1 4-3 3.3l-1-.8c-.3-2.5-1.3-1.4-1.7-.2-.5 1.4-.2 3.3-.6 4.8l-1.1 2.7a3 3 0 0 0-.8 2.9c-1.9.3-3.8-.6-5.9-.5l-2.9-.8c-1.7-.8-3.8-.5-5.9-.5-1.9 0-4.5.8-6.2.2l-.6-1.6c-2.7-1-1.1 1.6-2.2 2.2-1 .5-2.5-1.1-3.8-1.4-3.7-.8-6.2 1.1-5.1 4.8-.6 0-1 .2-1.2.4.3.2.5.6.7.9.6 1.2 1 2.5 2.2 3.4l1 1.4c.7-.1 3.5.4 3.3 1.5-.1.7-2.9 1.2-3.5 1.5-1.4.7-1.9 1.2-2.3 2.5-.6 1.8-1.1 1-2.7 1.4l-1.2 1.6c-.4 1.4 1.2 1.4 1.2 2.9 0 1.6-1.2 1.4-2.2 2.1l-1.3 1.3c-.8 1-.3.6.3 1.4.7 1 1 2.3-.4 3.2l-.5 1.8c.2 1.5 1.4 2 .8 3.5-.3.9-1 2-1.9 2.5-1 .6-1.4.6-2.3 1.7-.5.6-2.1 2.8.1 2.3l1.4.3c2 .1-.3 2.6 1 3.3.6.3 1.6-.4 2.3-.2.6.2 1.5.6 2.1 1 .8.4 1.4.2.4 1.2-.5.6-1.4.7-1.9 1.3-.5.5-.9 1.4-1.2 2.3l.6.1c2.1.5 4.2 1.2 6.2 1.8l1.4.4c2.2.6 5.2 2.4 7.6 1.8l3.8 1.1c3.5 1.3 4.3 4.1 6.7 6.7 1.9 2.2 4.3 4 6.2 6.4 1.6 2.2 3.2 4.9 5.1 7 1.3 1.1 2.7 1.4 3.8 2.7 1.1 1 1.4 2.7 2.9 3l3.8 1.8c4.8 2.5 9.5 6.8 14 10.2a69 69 0 0 0 7.3 4.6c1.4.6 3 .8 4.3 1.7 1.1 1 2.1 2.4 3 3.5l5.7 3.3c2.4-4 3.3.2 5.3 2.4l.8 4.1c.2 4.5 2.4 4.9 5.9 6.2 2.4 1 6.5 3.7 8.9 3.7l4.3 1.3h.2c0-.9-.1-1.8-.5-2.6-.8-1.7-1.8-.6-2.9-1.7-.7-.5-.2-1.1-1.1-1.5-.4-.2-1.2.2-1.7-.1-1-.7-.4-2.7-.7-3.9l-.8-.4c-3 1.1-1.1-4.2-.6-4.9.8-1.3 1.8-2.5 1.3-4.2-.4-1.2-2.1-1.8-.7-3.2l2.4-.6c1.2-1 0-4.9 0-6.3-.2-2.5.4-4.9.4-7.3l1.7-3.3c1.9-2.5 1.8-5.8 3.2-8.6l1-4.2c-.7-.4-1.2-1.1-1.8-1.3-.7-.2-1.3.2-2 0-.8-.2-2-1.7-1.8-2.6l-.5-2.5c-1.2-.6-2.4.6-2.7-.7-.2-.5.4-1.9.4-2.6 0-1.7-.2-1.4.6-2.9.2-.6.7-.1.7-1 0-.2-.5-1.1-.5-1.4l-.8-2.1c-.8.2-1.4.6-2.3 1.1-1.4.7-3.5 1.3-2.1-1.2.4-.7 1.2-1 1.4-1.8.2-.7-.2-1.7 0-2.4s1-1.9 1.8-1.9c1.2 0 .7 1.4 1.7 1.8 1.2.6 2.7-1 3.6-1.6 1.3-1 2.6-2.1 4.3-2.5 1-.2 4.2 0 4.5-1.2-.1-.8-2.7-3.5-3.3-4z"/>
</g>
<g id="P91" class="small-box bn">
<path class="st1" d="M872.6 568.8c-.2-.2-1.6.2-1.9-.3-.3-.5-.2-1.9-.3-2.4v-1.3c-.5-1.4-1.7-1.7-1.9-3-.2-1.1 1.1-1.6.5-2.9-1.1.2-2.1-.2-3.3.2l-2 .8c-1.1 1.3-2.4 1-2.1-.8.3-1.6 3.1-2 1.7-3.5-.9-1 .6-1.6.6-1.6l3.5-2.1c.3-.2 3.2-.8 1-2.2-1.9-1.1-2.4 2.4-3.7.2-.5-1 .1-1.8.6-2.5.7-1 2.2-1 2.2-1 .5 1.4 2.7 1.7 1.9 0-.5-1.3-3-.5-2.4-2.4.3-1 5.5-1.8 1-3-1.4-.4.3-1.7.3-1.7 2.2-.2.6-1.4.5-2.4-.2 0-.8-.6-1-1.1 0-.5.8-1 .8-1.4-.6-3.2-3.4-2-2.9 1.1.2.9-1.3 1.1-1.3 1.1-7.2-3.2 1.1-10.7 4.1-5.2l1.4-.3c4.8-1.4-6.2-9.1-7.3-10.2-2.1-1.7-4.3-2.9-6.4-4.5-2.4-1.9-3.7-4.6-6.4-6.2l-2.2-1.9c-.6.8-1.6 1.3-2.7 1.1.3-1.9 1.6-2.7 1-4.5-.6-1.9-3.2-4-4.3-5.9l-1.9-1.7c-.6.3-2.4 2.1-3 1.9-.6-.2-.7-.5-.7-.9.1-.9 1.3-2.2 1.3-2.7.2-2.1-2.7-4.9-3.8-6.8-1.4-2.4-3-4.6-4.1-7-1.3-2.4-.8-5.1-1.6-7.6l-.2-3.5.4-3.6c-3.2.5-7-2.9-10.1-3.2-2.7-.2-5.4.1-8.1-.1l-9.3-1c-3.6-.2-6.8.7-10.3.8-2 0-6.4.8-7.9-.4l-1.3-1.7c0-1.9-.4-3.8-.8-5.5-.6-2.3-.8-2.7 1.4-3.6 1.5-.6 3.1-1.6 1.3-3.3-.6-.5-1.8-.5-2.5-1.2s-1.1-2.3-2.3-1.5l-1.9.7-2.6-1.9c-.1-.1-.7 0-1-.2-.4-.4-.2-.6-.6-1-.6-.7-.5-1.2-1.7-1.9-1.4-.7-1.8-.4-3.2-.2-1 0-1.9-.6-2.7-.5-.8.1-1.7.8-2.5 1-.7.1-1.9.2-2.3-.4-1.2-1.6.9-1.6 1.8-1.9 1.9-.7 1.2-1.2 1.2-1.2-.4-1.2-1.6-.7-2.3-1.6-.6-.7-.8-1.9-1.2-2.6-1-1.6-2.1-2.9-2.7-4.7l-.1-.6-.2-1.1c1-2.4-1.8-3.3-.5-5.4.7-1 2.4-1 2.9-1.8.6-1-.7-2 1.1-2.7l.1-1.4c-.1-1.2-1.6-1.9-1.4-3.1.1-1 1.5-1.9 2.4-2.3l1.7-2.4c.4-1.9-3.8-1.9-5-3.3-.8-1.2-.5-4.9-3-5l-1.9-.1c-1.3-.8 0-2.6-.8-3.7-1.1-1.2-2.9-.4-2.5-2.6l.4-1.8c1.7-2.6-.8-6.2-2.3-9.1l-.6.4a39 39 0 0 1-4.8 5.2c-.9.8-1.7 1.4-2.8 1.7-1 .3-1.6.3-2.5 1.3-.6.8-.6 1.5-1.7 1.5-.8 0-1.4-.6-2.3-.6-2.6 0-4.2 3.1-6.5 1.3l-2-2.5c-1-.9-.8-1-1.2-2.1-.5-1.2-1.4-1.7-2.5-1.1-1.4.6-1.4 1.5-1.8 2.8-.4 1.2-1.7 2.3-1.4 3.7l-1.6 2.1c-.6.6-1.7.6-2.5.3-1-.3-2.2-1.1-3.2-1.6s-1.1-1.4-1.9-2.3a67.2 67.2 0 0 0-5.3-5.4c-.9-.8-2-1.3-2.9-1.9-1.1-.8-.8-1-1.3-2.1-1-2.2-3.3-3.9-4.5-6l-.7-2.2a4 4 0 0 0 1.3-1.9l-1.3-.1c-1.2-.4-2-1-3.3-.6-1 .2-1.4 1.1-2.3 1.4h-2.1c-1 .1-2.1 1.3-2.9 1.2-1.4-.2-2.5-3.2-4.3-3.7-3.9-1.2-5 2-5.5 5.1l-.4 3.9c-.5 2.6-.5 2.3-2.7 3.5-.8.4-1.4 1-2 1.3.3.7.5 1.5.2 2.1-.4.8-1.4 1-1.8 1.9-.2.6-.1 1.4-.1 2 0 1.8.5 2.6 1.3 4.2 1 2.3.8 1.6 3.1 2 2.1.5 1.6 1.6 2.1 3.5.5 1.6 1.7 2.4 2.3 3.7.7 1.9-.4 2.4 1.9 3.5a19 19 0 0 1 5.2 3c1.4 1.1 3.5 1.3 4.7 2.6.6.5 3.2 3.2 3 3.9-.4 1.2-3.6 1-4.5 1.2-1.7.4-3 1.6-4.3 2.5-.8.6-2.4 2.1-3.6 1.6-1-.4-.5-1.8-1.7-1.8-.8 0-1.6 1.2-1.8 1.9-.2.7.2 1.7 0 2.4-.2.8-1.1 1.1-1.4 1.8-1.3 2.5.7 1.9 2.1 1.2.8-.5 1.4-.8 2.3-1.1l.8 2.1c0 .4.5 1.2.5 1.4 0 .8-.5.4-.7 1-.8 1.4-.6 1.2-.6 2.9 0 .7-.6 2.1-.4 2.6.4 1.3 1.6.1 2.7.7l.5 2.5c-.2 1 1 2.4 1.8 2.6.7.2 1.3-.2 2 0 .6.2 1.1 1 1.8 1.3l-1 4.2c-1.4 2.7-1.3 6.1-3.2 8.6l-1.7 3.3c0 2.4-.6 4.8-.4 7.3 0 1.4 1.2 5.4 0 6.3l-2.4.6c-1.4 1.4.4 2 .7 3.2.5 1.7-.5 2.9-1.3 4.2-.5.7-2.4 6 .6 4.9l.8.4c.4 1.2-.2 3.2.7 3.9.5.4 1.3-.1 1.7.1.8.5.4 1.1 1.1 1.5 1.1 1.1 2 0 2.9 1.7.3.8.4 1.7.5 2.6 4-.2 6.7 3.2 8.6 6.4 2.5 4.1 6 7.5 8.9 11.3 3 4 5.9 7.8 9.1 11.5 1.9 1.9 3.2 4.1 5.2 5.9 1.7 1.4 2.9 4 4.5 5.2l3.2 3.3.5 1.2c2 3.1 8.1 4.4 11.1 5.5 6.7 2.7 13.5 5.6 20.4 8 2.9 1 4.8 2.7 7.5 3.3.9.2 1.8.3 2.9.2 3.8-.5 7-2.7 11-3.5l4-1.4c6.7-2.5 13-6 20.2-7.5 3.3-.6 6.8-2.4 10.2-1.3 3.5 1.1 7.5 5.7 10.8 5.7l3.2.6c3.2 1.6 5.1 1 7.6 3.8 2.5 2.7 5.4 4.1 8.6 6l9.9 5.2c2.7 1.3 6.2 4.3 9.1 4.6l3.5 1.7c1.6 1 3 .5 3.2-1.4.3.8 1 1.1 1.7 1.4l1.7-1.3c1-.9 2.3-2.2 1.8-3.8z"/>
</g>
<g id="text">
<text transform="translate(423.9 179.3)" class="st2 st3">
      P78
    </text>
<text transform="translate(519 155.5)" class="st2 st3">
      P79
    </text>
<text transform="translate(485.2 262.8)" class="st2 st3">
      P80
    </text>
<text transform="translate(632.9 173.8)" class="st2 st3">
      P81
    </text>
<text transform="translate(805.5 242.7)" class="st2 st3">
      P82
    </text>
<text transform="translate(790.1 298.7)" class="st2 st3">
      P83
    </text>
<text transform="translate(730.8 263.3)" class="st2 st3">
      P84
    </text>
<text transform="translate(769.5 361.8)" class="st2 st3">
      P85
    </text>
<text transform="translate(663 332.7)" class="st2 st3">
      P86
    </text>
<text transform="translate(575.4 312)" class="st2 st3">
      P87
    </text>
<text transform="translate(558.2 359.3)" class="st2 st3">
      P88
    </text>
<text transform="translate(494.2 383.3)" class="st2 st3">
      P89
    </text>
<text transform="translate(631.7 414.2)" class="st2 st3">
      P90
    </text>
<text transform="translate(750.9 479)" class="st2 st3">
      P91
    </text>
</g>
</svg>