<svg xmlns="http://www.w3.org/2000/svg" version="1.1" viewbox="0 0 1240 640" preserveaspectratio="xMidYMid slice" id="svgN">
<g id="N1" class="small-box pas">
<path class="st1" d="M643 116.3v-1.4l2.6-1v-1.3l-.8-1.4.8-.9-.7-.9-.5-1.9 3.8-3.7 22.7-2.6 2.3 7.1v5.6l2.4 1.2 2.4-.2s1.8 1.2 1.8 1.4c0 .2 3.4 1 3.4 1l3.4 1.2 1.2-1.2 1.9-.6v-3h.9l1-3.4 1.7-.6-.5-1.8 1.3-.6.6-1-2-.6 2-.8 7.4 3.5 1.2-3.1 1.4-6.1s3.2-4.7 3.3-5.3c.1-.6.9-6.5.7-7.2-.2-.7.7-6.1.7-8.3 0-1-.3-2.9-.6-4.6l-1.4.3c-2.6.1-1.9-3.6-1.9-3.6-.5-3.6-3.8-2.5-5.3-.6s-4.6 1.8-6.2 1.4c-1.7-.4-3.9-1.3-5.5-1.2a38 38 0 0 1-10.5-3.4c-1.2-.9-4.9-7.1-5.5-8.1-.7-1-9.5-4.8-12.1-6.9-2.6-2.1-7 1.4-9.2 1.7-2.1.3-1-5.7-2.9-7.6-1.9-1.9-4.4.4-4.4 1.3-.1.9-2 3.2-2.7 3.7-.7.5-5-.1-5.4-2-.4-1.9-2.5-5-4.2-4.9-1.7.1-3.5 2.1-3.5 7.3.1 5.3-6.8 7.4-9.6 6.6-2.8-.8-20.4-4.1-20.8-4-.4.1-3.2.6-4.2.4-1-.1-2 4-1.8 5.8.2 1.7 3 2.1 4 2.6 1 .4 4.3.8 4.3.8l2.4 1.2h.8l4.3 1.9 1.7 1.5c3.5 1.5 5.6 5 10.1 10.1 4.4 5.1 5.8 8.5 7.2 11.9 1.5 3.4 1.9 4.2 1.9 6.2s2.6 9.8 3.2 10.7c.6.8 3 6.8 3 6.8l.3 6.1 3.8-1.9 4.3-1.6z"/>
</g>
<g id="N2" class="small-box ppbm">
<path class="st1" d="M710.3 150.1l-6.5.5c-.3 0-3.6-1.9-3.6-1.9l4.5-1.7h3.3v-3.5l-4.6-1.9c-.6-.2-1.2-.2-2.1.2-.8.4-.7-1.5-1.2-1s-9.2-.6-10.4-1.3c-1.2-.7-.7.7-1.5 1-.8.3-2.5-1.5-2.5-1.5s-.3 1.2-1 1.2c-.8.1-2.4-.7-4.4-1.4-1.9-.7-4.8 2.4-4.8 2.4l-1.7 1.6-1.2-1.2-2 1.7-2.2-.5-4.4-5.1-17.1 12.3c-3.4-2.2-8.4-.2-11.1 1.2a522 522 0 0 1-.5-13.8c0-4.4-.4-12.2-.7-17.6l3.8-1.9 4.6-1.5V115l2.6-1v-1.3l-.8-1.4.8-.9-.7-.9-.5-1.9 3.8-3.7 22.7-2.6 2.3 7.1v5.6l2.4 1.2 2.4-.2s1.8 1.2 1.8 1.4c0 .2 3.4 1 3.4 1l3.4 1.2 1.2-1.2 1.9-.6v-3h.9l1-3.4 1.7-.6-.5-1.8 1.3-.6.6-1-2-.6 2-.8 7.4 3.5.1.1 4.6 1s.7 1.3-.9 1.2c-1.7 0-.6-.2.4.9l-.3 3.2-.6 11.3 20.2-1.7s.7.6 0 1.7l-1.3 15.3h.8l-.6 5.4.6 1.4-.7 2.1-.3 2.6c-1.4-.7-2.8-1.6-3.8-2.3-.8-.9-5.8-.8-10-.6z"/>
</g>
<g id="N3" class="small-box pkr">
<path class="st1" d="M708.8 86.8c.2.7-.6 6.7-.7 7.2-.1.6-3.3 5.3-3.3 5.3l-1.4 6.1-1.2 3.1.1.1 4.6 1s.7 1.3-.9 1.2c-1.7 0-.6-.2.4.9l-.3 3.2-.6 11.3 20.2-1.7s.7.6 0 1.7l-1.3 15.3h.8l-.6 5.4.6 1.4-.7 2.1-.3 2.6c1.7.8 3.2 1.4 3.8.8v-4.6l6.8-.4v6.9l.8 4h11.6l5.2 1.2s.8-1.9 2.2-1.4c1.5.5 2.2 1.5 3.7 1.4 1.5-.1 4-1.8 4.3-3.2a8.6 8.6 0 0 1 2.3-4c.8-.6.8-2.1 1.7-2.4 1-.3 7.1-3.1 7.1-3.1l-2-1.9-1.1-.3-.3-3.2 2.7-2 1.5-.3 1.2-6h.6l1.9 2.4 12.8 5.3-5.8 21.6 5.8.6s2.1-11 14.5-13.5l3.6-.8 3.2-2.9 5.9 5.6 1.6-.3.6-15.1L822 82l1-2.8c-1.8-.6-3.1 4-2.9 5.6.2 1.6-2.1 3.1-3.3 2.8-1.2-.3-3.8-2-1.9-6.1s.3-5.8-1-5.3c-1.3.6-4.9.8-6.4-1.2-1.5-1.9-6.2-.3-7.2.6-1 .8-5.2 1.8-5.3-4.9-.1-6.7-9.2-4.8-12.3-4.2-3 .6-4.4.3-5.5.2-1.1-.1-4.1-1.3-4.6-3.3-.5-1.9-1.8-1.5-2.1-1.1-.3.4.3 1.9.3 1.9v8.3c-.1 1.9-2.4 1.2-3.1.1-.8-1.1-2.9-2.3-5.5-3.1-2.6-.8-4.4 1.5-5.1 2.7-.7 1.2-2.3.9-3.8.3-1.5-.6-2.4-3.3-3.5-4-1.1-.8-3.3-.2-5.6-.8-2.4-.6-3.1 1-4.6 2.1-1.5 1-2.8.2-3.9-1s-3.5-3.3-6.2-3.4c-2.7-.1-2 6-2 6-3.8 2.6-5.3-1.6-5.3-1.6-1.1-5.1-5.7-3.7-6.2-2.3-.5 1.5-2.9 1.3-3.5.6-.6-.7-3.5.3-2.5 2.1.8 1.4.2 2.7-1.3 3.3.3 1.7.6 3.6.6 4.6.2 2.6-.8 7.9-.5 8.7z"/>
</g>
<g id="N4" class="small-box bn">
<path class="st1" d="M724.4 153c-1.4-.7-2.8-1.6-3.8-2.3-1.2-.8-6.1-.8-10.3-.5l-1 9.1h1.6l.9 5.3-.6 2 .6 1.9-1.2.8-.5 1.6-.1 1.6v1.2l-.6.8-.7 1.1h-1.5v.7l.9.9 1.9.6-.5 3.3h5.8l.5-1.2.7-.2-.7-9.5s3.3-1 3.2.4l2.5 2.5s1.4 2.1 1.8 1.7l2.9-3.1 3.6-1.5v1.7l-1.4 2.3.3 1.7-.4 1.4.6 1.3 2.1.6v4.5l3.1.5 1.1-1.1 11.7 8 4.7 3.5-.6 1.7h-1.5l-1.3.8-2.3-.6-1.7-.2-1.5-.3s-1.8-.6-2.6-1.1c-.7-.5-1.1.1-1.2.9-.1.8-.7 1.3-.7 1.3l-.6 1.4c-.6.1-1.3-.3-1.7 0-.4.3-.2.8-.2.8l-2.4 1.7 1.3 1.4-1.8 1.2s-2.6-4-2.5-1.3l.3 1.8s1.1-.6 1.4 0c.3.6 2 .6 2 .6l-1.1 1.2-1.7-.6-.7 1.6s-1.5.5.2 1.5.4 1.3.4 1.3l-2.1 2.8h1.6s-2.6 2.4.6 1.9c0 0 1.4 1.6 1.9 1 .5-.6 2.2-1.6 1.9-2.6-.3-1-.2-2.1.7-1.7.9.4 1.9.6 2.4.6s1.4.4 1.4 1.2c0 .8.7 2.7.7 3.6 0 .9-.1 2.3.4 2.7.5.4 4 1.2 4.8 1.2.8 0 2.4-2.4 3.6-1.5 1.2.9 2.2 1.2 2.8 1.3.6.1 1.3 1.2 1.7 1.7.3.5.7-.1 1.9 1 1.2 1.2 2.3 1.3 2.8 2.8.6 1.5 1.9 1.5 3.1 1.6 1.2.1 3.7.3 5.1 1.5 1.5 1.1 5.5 4.1 8 3.3 2.6-.8 3.5-1.5 3.8-2.8.3-1.2 1-.2 2.1-1.9 1-1.7.1-4 2.3-4.2 2.1-.1 2.4-.7 2.9-.1s2.1.8 3.5 1.9c1.3 1.1.3.5 3.3.6 3 .1 2.9.9 4 .1s-.8-1.2 1.7-1.2 2.4-1.4 3.7-.3c1.3 1.1 1.2 3 2.1 3.5.8.6.8 1.5 2.2.3 1.5-1.1 5-2.1 5-2.1l3 5.5 3.2.9.8-28.3.8-4.2.4-24.9.8-22.3-1.6.3-5.9-5.6-3.2 2.9-3.6.8c-12.3 2.5-14.5 13.5-14.5 13.5l-5.8-.6 5.8-21.6-12.8-5.3-1.9-2.4h-.6l-1.2 6-1.5.3-2.7 2 .3 3.2 1.1.3 2 1.9-7.1 3.1c-1 .3-1 1.9-1.7 2.4-.8.6-1.9 2.6-2.3 4-.3 1.4-2.8 3.1-4.3 3.2-1.5.1-2.2-.9-3.7-1.4-1.5-.5-2.2 1.4-2.2 1.4l-5.2-1.2h-11.6l-.8-4v-6.9l-6.8.4v4.6c-.6.4-2.2-.1-3.8-.9"/>
</g>
<g id="N5" class="small-box bn">
<path class="st1" d="M712.7 226.8c.3-.2.4-.4.4-.6.1-1-.4-4.4-.6-4.8-.1-.4.8-1.9 1.9 0 1.1 1.9 2.4 2.4 3.3 1.5.9-.9 3.1-3.7 3.6-3.9.5-.2 1.9-3.9-.8-5.2-2.8-1.3-1.7 1.5-1.7 1.9 0 .5.6 4.8-2.3 2.6-2.9-2.1-1-1.3-4.3-.1s-1.2-.7-.9-1.9c.3-1.2-.4-3.4-1.2-3.9-.8-.6 1.2-2.4 2.3 0 1.1 2.4 2.1 1 1.9-.5-.2-1.5-1.2-4.2-1.3-5-.1-.8-.4-2.8.4-3.1.8-.3 2-.6 2.2-1.1.2-.5 1.1-1.3 1.6-.7.5.6 1.7 1.2 2.4 1.7.7.4 1.3 1.1.1 1.2-1.2.1-3.6 1.7-1.7 2.4 1.9.6 4.6-1.9 4.2.3-.4 2.2.2 2 .6 2.1.4.1 1.1 2.2 1.6 2.1.5-.1 1.3-2.3 2.4-1.8 1 .5 2.3.8 2.3 1.2 0 .5-.7 1.2-.1 1.3l2.1-2.8s1.3-.3-.4-1.3c-1.7-1-.2-1.5-.2-1.5l.7-1.6 1.7.6 1.1-1.2s-1.8 0-2-.6c-.3-.6-1.4 0-1.4 0l-.3-1.8c-.1-2.7 2.5 1.3 2.5 1.3l1.8-1.2-1.3-1.4 2.4-1.7s-.2-.5.2-.8c.4-.3 1.1.1 1.7 0l.6-1.4s.6-.5.7-1.3c.1-.8.5-1.4 1.2-.9.7.5 2.6 1.1 2.6 1.1l1.5.3 1.7.2 2.3.6 1.3-.8h1.5l.6-1.7-4.7-3.5-11.7-8-1.1 1.1-3.1-.5v-4.5l-2.1-.6-.6-1.3.4-1.4-.3-1.7 1.4-2.3v-1.7l-3.6 1.5-2.9 3.1c-.4.5-1.8-1.7-1.8-1.7l-2.5-2.5c.1-1.4-3.2-.4-3.2-.4l.7 9.5-.7.2-.5 1.2h-5.8l.5-3.3-1.9-.6-.9-.9v-.7h1.5l.7-1.1.6-.8v-1.2l.1-1.6.5-1.6 1.2-.8-.6-1.9.6-2-.9-5.3h-1.6l1-9.1-6.5.5c-.3 0-3.6-1.9-3.6-1.9l4.5-1.7h3.3v-3.5l-4.6-1.9c-.6-.2-1.2-.2-2.1.2-.8.4-.7-1.5-1.2-1s-9.2-.6-10.4-1.3c-1.2-.7-.7.7-1.5 1-.8.3-2.5-1.5-2.5-1.5s-.3 1.2-1 1.2c-.8.1-2.4-.7-4.4-1.4-1.9-.7-4.8 2.4-4.8 2.4l-1.7 1.6-1.2-1.2-2 1.7c.6 2 1.2 4.3 1 5.3h2.3v1l1.7.9-.5 2.4 1.3.7 5.9 1.4s1.9 2.1 1.4 8.2h1.4l.6 2s2.9-.6 3 .5c.1 1 .3 2.3-1.1 3.3-1.4 1-15.3 8.1-15.3 8.1l-12.8 1.9v2.9s3.2 7.8 3.2 10.7l1.8 1.4-.4 4.8.6.6-.5 1.6 1.3 5.2 1.5.9 1-.5v2.2l4.2 1.5-1.2 2.3-.6 1.6 1.1 1.2-1.2 1.5 1.9 1s.3 1.5.7 1.4h1.7l1 1.7 1.2.3v1l.8 1.5-1.3.5s-1.2-1.9-2.2.7l-1.3 1.7c-.4.5-.4 1.5 1.5 2.7 1.1.7 1.9 2.1 2.4 3.8 1 .1 1.6.2 1.8.1.7-.5 4.5-9 5.8-8.9 1.3.1 7 1.3 7.3 2.1.3.8 3 4.9 4 4.3.9-.6 1.6-1.9.9-4-.7-2.1.5-4.9 2.5-4.9s2 2.3 1.9 4c-.1 1.7 1.9 3.8 3.3 2.4s1.9-4.9 2.2-5.5c.3-.6.7-1.5 1.6-1.5.9 0 4.3-.1 1.9 2.8s-2.1 4-1 4c1-.1 3-.7 3.8-1.4"/>
</g>
<g id="N6" class="small-box pkr">
<path class="st1" d="M644.6 214.9l8.9-1.9s5.3-2.6 4.4-4c-.8-1.4-4.8-3.2-4.8-3.2s-.3-1.2.8-1.2c1.2 0 3.1-.8 3.1-.8l.5-1.1-.8-.9 1.8-.4v-2.5l3.5-.3h1.7l.3.3.4-4.8-1.8-1.4c0-3-3.2-10.7-3.2-10.7v-2.9l12.8-1.9s14-7.1 15.3-8.1c1.4-1 1.2-2.3 1.1-3.3-.1-1-3-.5-3-.5l-.6-2h-1.4c.6-6.1-1.4-8.2-1.4-8.2l-5.9-1.4-1.3-.7.5-2.4-1.7-.9v-1h-2.3a15 15 0 0 0-1-5.3l-2.2-.5-4.4-5.1-17.1 12.3c-3.4-2.2-8.4-.2-11.1 1.2l.2 4.1s1.9 22.1 3.2 33.7c.7 6.1 0 15.8-.8 23.6l2.7.3 3.6 1.9z"/>
</g>
<g id="N7" class="small-box dap">
<path class="st1" d="M664.1 198.9l-.3-.3h-1.7l-3.5.3v2.5l-1.8.4.8.9-.5 1.1s-1.9.8-3.1.8c-1.2 0-.8 1.2-.8 1.2s4 1.8 4.8 3.2c.8 1.4-4.4 4-4.4 4l-8.9 1.9-3.5-2-2.7-.3-1.3 10.5 1.9.9 8.9.9.6-1 1.7.1v2.3l-.7 1h-1.8l-2.7 5.8.7.6 2.9 1.1.6-.8s1.1 1 1.8.4l1-1.1 7.6 2-.6 3.7s1.7 3.9 2.9 4.3c.8.2 4.4.7 7 .9.2-.4.3-.8.2-1.2-.8-2.1-3.6-3.9-3.6-7.1 0-3.2 1.2-4.6 2-4.5.6.1 6.5 1.4 9.6 1.8-.5-1.6-1.3-3.1-2.4-3.8-1.9-1.2-1.9-2.2-1.5-2.7l1.3-1.7c1-2.6 2.2-.7 2.2-.7l1.3-.5-.8-1.5v-1l-1.2-.3-1-1.7h-1.7c-.4.1-.7-1.4-.7-1.4l-1.9-1 1.2-1.5-1.1-1.2.6-1.6 1.2-2.3-4.2-1.5v-2.2l-1 .5-1.5-.9-1.3-5.2.5-1.6-1.1-.5"/>
</g>
<g id="N8" class="small-box dap">
<path class="st1" d="M670.4 254c-.3-.7-.7-1-1-1-.6 0-5.5-.7-5.1-3.7.3-2.4 3.5-3.6 4.4-5l-7-.9c-1.2-.4-2.9-4.3-2.9-4.3l.6-3.7-7.6-2s-.3.5-1 1.1c-.6.6-1.8-.4-1.8-.4l-.6.8-2.9-1.1-.7-.6 2.7-5.8h1.8l.7-1V224l-1.7-.1-.6 1-8.7-.9-1.9-.9-.3 2.2s-3.9 10.6-6.1 17.4a60 60 0 0 1-3.1 7.3l1.7 1.1 9.3-1.3 3.1-1.3 10.6.8s4.4-.5 5.2 1.1c1.2.1 2.2.8 2.6 2.6.8 4 1.5 6.7 5.2 6.5 3.7-.1 5.7-1.7 5.5-3.6 0-.8-.2-1.4-.4-1.9"/>
</g>
<g id="N9" class="small-box dap">
<path class="st1" d="M623.5 286.9c.5 0 6.5-2.2 8.6-3.7 2.1-1.5 3.2-1.3 3.9-4.2.6-2.9 1.7-8 3.4-8.3 1.8-.3 2.9-.6 4.5 0 1.2.4 6.9.1 9.6-1.1-1-.7-1.7-2-1.7-2s.7 1.3 1.7 2c1.1-.5 1.6-1.2 1.2-2-1.5-3-5.3-8.3-5.5-9.7-.2-1.4 3.1-6.1 4.6-6.7.8-.3 2.4-.9 3.9-.8-.8-1.6-5.2-1.1-5.2-1.1l-10.6-.8-3.1 1.3-9.3 1.3-1.7-1.1c-3.7 7.8-9 17.3-9 17.3v3l.8 2.7 2.2 3.1.9-.3 2.9 3.1.8 2.4-4.3 3 1.4 2.7c-.2 0-.1-.1 0-.1z"/>
</g>
<g id="N11" class="small-box amanah">
<path class="st1" d="M668.6 244.3c.2-.4.3-.8.2-1.2-.8-2.1-3.6-3.9-3.6-7.1 0-3.2 1.2-4.6 2-4.5.6.1 6.5 1.4 9.6 1.8 1 .1 1.6.2 1.8.1.7-.5 4.5-9 5.8-8.9 1.3.1 7 1.3 7.3 2.1.3.8 3 4.9 4 4.3.9-.6 1.6-1.9.9-4-.7-2.1.5-4.9 2.5-4.9s2 2.3 1.9 4c-.1 1.7 1.9 3.8 3.3 2.4s1.9-4.9 2.2-5.5c.3-.6.7-1.5 1.6-1.5.9 0 4.3-.1 1.9 2.8s-2.1 4-1 4c.9 0 2.9-.6 3.8-1.3l1.1.5h1.6l4.6 2.8s0 2.1.5 2.6-.9.7-.9.7l1 1.7-.6.5s2.3 2.3.3 4.7l3.6 2.1.8-.3.8.7s2-1.5 2.5-.7 2.6 2.9 2.6 2.9l2.6-.3s2-3.1 2.2-3c.2.1.3-2.1 2 0 0 0 .6-.2.8-.5.2-.3 1.9 1.7 1.9.5s.4-1.8.7-1.6c.3.3 1.5-.1 1.5-.8 0-.7 1.1.6 1.1.6s1.3-2.3 1.8-1.7c.4.6 1.2 1 .6 1.8-.7.7-.9 2.4-.9 3.1 0 .7-4.1 5.8-4.1 5.8s-1.3 2 .5 2.9l1.4.5.1 1.9s-2.1 3.6 1.6 6l-1.2 2.6.6 3.2-.8 9.6-1.3 3.7v2s-.6.9.3 2.3v3.6s2.8 5.5 1.3 10.5c0 0-.3 1.7-.1 2.5.1.8-.8 1.4-.8 1.4s-1.2 1.8-1.4 4.7l-2.6 2-.1-.1-2.6-3.5-5.1-.1-2.1 2.4-1.5-.1-.3.5c-1.3-1.6-1.3-3.7-1.3-4.2v-5.2c-.1-.6-.6-1.8-.7-4.5-.1-2.7-5.5-8.8-5.5-8.8l-3.1-.6 1.7-4.1h1.5c1-2 0-4.6 0-4.6l-5.2 1s-2-1.2-1-2.1c1-.8-.6-1.2-.6-1.2l-1.2-3.5.8-1.1-1.4-.9-1.1-2.6v-1.2l-1.3-.1-.7.6-4.8.9c-1.2-.9-2.4.3-2.4.3l-5.4 1s-3.9-.2-4.6-.6c-.7-.3-.6 1.5-.6 1.5l-5.6.5-6.3-1.9v-2.4l-2.2-.3v-.8h-1.9l.8-8.2h-4c-.3-.7-.7-1-1-1-.6 0-5.5-.7-5.1-3.7-.1-2.8 3.1-4 4-5.4z"/>
</g>
<g id="N10" class="small-box pkr">
<path class="st1" d="M669.7 295.2a1476 1476 0 0 0-10.9-5.6l5.1-9.6c-3.8-1.3-6.4-5.3-6.2-8 .1-2.7-.4-3.1-2.3-2.1-.7.4-1.3.2-1.9-.2 1.1-.5 1.6-1.2 1.2-2-1.5-3-5.3-8.3-5.5-9.7-.2-1.4 3.1-6.1 4.6-6.7.8-.3 2.4-.9 3.9-.8"/>
<path class="st1" d="M657.6 250.5c1.2.1 2.2.8 2.6 2.6.8 4 1.5 6.7 5.2 6.5 3.7-.1 5.7-1.7 5.5-3.6-.1-.8-.3-1.4-.5-1.9h4l-.8 8.2h1.9v.8l2.2.3v2.4l6.3 1.9 5.6-.5s-.1-1.8.6-1.5c.7.3 4.6.6 4.6.6l5.4-1s1.2-1.2 2.4-.3l4.8-.9.7-.6 1.3.1v1.2l1.1 2.6 1.4.9-.8 1.1 1.2 3.5s1.6.4.6 1.2c-1 .8 1 2.1 1 2.1l5.2-1s1 2.6 0 4.6h-1.5l-1.7 4.1 3.1.6s5.4 6.2 5.5 8.8c.1 2.7.6 3.9.7 4.5v5.2c0 .4-.1 2.5 1.3 4.2l-.3.4-8.9-1.2a9 9 0 0 0-3.8.5c-3 .9-6.2 2.7-6.7 3.4-.8 1.1-7.4 1.5-7.4 1.5L672 301.6h1.2l.4-2.4 2-.9-6-3.2"/>
</g>
<g id="N12" class="small-box pkr">
<path class="st1" d="M729 212.4c.1 0 .1 0 0 0h1.5s-2.6 2.4.6 1.9c0 0 1.4 1.6 1.9 1 .5-.6 2.2-1.6 1.9-2.6-.3-1-.2-2.1.7-1.7.9.4 1.9.6 2.4.6s1.4.4 1.4 1.2c0 .8.7 2.7.7 3.6 0 .9-.1 2.3.4 2.7.5.4 4 1.2 4.8 1.2.8 0 2.4-2.4 3.6-1.5 1.2.9 2.2 1.2 2.8 1.3.6.1 1.3 1.2 1.7 1.7.3.5.7-.1 1.9 1 1.2 1.2 2.3 1.3 2.8 2.8.6 1.5 1.9 1.5 3.1 1.6 1.2.1 3.7.3 5.1 1.5 1.5 1.1 5.5 4.1 8 3.3 2.6-.8 3.5-1.5 3.8-2.8.3-1.2 1-.2 2.1-1.9 1-1.7.1-4 2.3-4.2 2.1-.1 2.4-.7 2.9-.1s2.1.8 3.5 1.9c1.3 1.1.3.5 3.3.6 3 .1 2.9.9 4 .1s-.8-1.2 1.7-1.2 2.4-1.4 3.7-.3c1.3 1.1 1.2 3 2.1 3.5.8.6.8 1.5 2.2.3 1.5-1.1 5-2.1 5-2.1l3 5.5 3.2.9-1.1 43.3-.8 20.9c-2.5-.9-5.4-1.5-5.4-1.5s-2 0-2.6-1.5c-.6-1.5-3.2-1.6-3.3-.6-.1 1-2.1 1.4-3 1.2a36 36 0 0 1-5.5-1.6c-.6-.3-2.7.8-2.9.8-.2 0-1.8.2-2.2.1a9.3 9.3 0 0 1-2.6-3.3c-.3-1-5.3-2.5-5.3-2.5l-1.9-2.5-2.1-1.5h-1.6s-1.7-.5-2.2-1c-.5-.5-.6-.8-.6-.8.1-3.8-6.7 1.1-6.7 1.1l-2.7-.4-2.2 1.6-1.4 1-.3.1-1.5-.6-4.5-1h-4.6l-2.8 22.1-6.3.4c.2-3 1.4-4.7 1.4-4.7s1-.6.8-1.4c-.1-.8.1-2.5.1-2.5 1.5-5-1.3-10.5-1.3-10.5v-3.6c-.8-1.4-.3-2.3-.3-2.3v-2l1.3-3.7.8-9.6-.6-3.2 1.2-2.6c-3.7-2.4-1.6-6-1.6-6l-.1-1.9-1.4-.5c-1.8-.9-.5-2.9-.5-2.9s4.1-5 4.1-5.8c0-.7.2-2.4.9-3.1.7-.7-.1-1.2-.6-1.8-.4-.6-1.8 1.7-1.8 1.7s-1.1-1.3-1.1-.6c0 .7-1.2 1.1-1.5.8-.3-.3-.7.4-.7 1.6 0 1.2-1.7-.8-1.9-.5-.2.3-.8.5-.8.5-1.7-2.1-1.8.1-2 0a21 21 0 0 0-2.2 3l-2.6.3s-2.1-2.1-2.6-2.9c-.5-.8-2.5.7-2.5.7l-.8-.7-.8.3-3.6-2.1c1.9-2.4-.3-4.7-.3-4.7l.6-.5-1-1.7s1.4-.2.9-.7c-.5-.5-.5-2.6-.5-2.6l-4.6-2.8h-1.6l-1.1-.5c.3-.2.4-.4.4-.6.1-1-.4-4.4-.6-4.8-.1-.4.8-1.9 1.9 0 1.1 1.9 2.4 2.4 3.3 1.5.9-.9 3.1-3.7 3.6-3.9.5-.2 1.9-3.9-.8-5.2-2.8-1.3-1.7 1.5-1.7 1.9 0 .5.6 4.8-2.3 2.6-2.9-2.1-1-1.3-4.3-.1s-1.2-.7-.9-1.9c.3-1.2-.4-3.4-1.2-3.9-.8-.6 1.2-2.4 2.3 0 1.1 2.4 2.1 1 1.9-.5-.2-1.5-1.2-4.2-1.3-5-.1-.8-.4-2.8.4-3.1.8-.3 2-.6 2.2-1.1.2-.5 1.1-1.3 1.6-.7.5.6 1.7 1.2 2.4 1.7.7.4 1.3 1.1.1 1.2-1.2.1-3.6 1.7-1.7 2.4 1.9.6 4.6-1.9 4.2.3-.4 2.2.2 2 .6 2.1.4.1 1.1 2.2 1.6 2.1.5-.1 1.3-2.3 2.4-1.8 1 .5 2.3.8 2.3 1.2 0 .7-.7 1.4-.1 1.5z"/>
</g>
<g id="N14" class="small-box pkr">
<path class="st1" d="M760.7 393.9l.1.1.6 1.2 1.2.6.5-.8 1.6 2 .2-.1"/>
<path class="st1" d="M764.9 396.9l2.7-.8 7.5.8 4.9-1.7 6.7-3.6 1-2.2s2.6-2.1 2.8-1.9c.1.2 2.6.6 2.6.6l2.1.2 3.7.8 1.2 1.4 2.2-1.9s4.4 1.2 5.3-1.2l2.2 1.5 4.2.6 1.2 1.2 1.9 1.6 3.6 3.5 1.6 1.5 1.2-.4.8 2.4-.8 1.5 2.8 3.2-2.1-20.3-4.9-42-4.4-37 .3-7.9c-2.5-.9-5.4-1.5-5.4-1.5s-2 0-2.6-1.5c-.6-1.5-3.2-1.6-3.3-.6-.1 1-2.1 1.4-3 1.2a36 36 0 0 1-5.5-1.6c-.6-.3-2.7.8-2.9.8-.2 0-1.8.2-2.2.1a9.3 9.3 0 0 1-2.6-3.3c-.3-1-5.3-2.5-5.3-2.5l-1.9-2.5-2.1-1.5h-1.6s-1.7-.5-2.2-1c-.5-.5-.6-.8-.6-.8.1-3.8-6.7 1.1-6.7 1.1l-2.7-.4-2.2 1.6-1.4.6a4.2 4.2 0 0 1-2.6 2.4c-1.1.3-.4 1.4-.4 1.4s.2 1.2-.3.9c-.5-.3-.3.8-.3 1.2 0 .4-1.3-.6-1.3-.6l-1 .9.4.8h.8l1 1.1-.8 1.2.8.7-.1 2.4s-.1.6-.5 1.2-.6 1.3-1.5 1.1c-.9-.2-1.2 1.5-1.2 1.5s-1.7.8-1.1 1c.6.2.9 2.9 0 3.7-.9.8.1 1.2.1 1.5.1.3-1.8.6-2.3.4-.5-.1-.1 1.9-.1 2.6-.1.7-.8 1.2-1.2 1.2-.3 0-.4 1.3-1.2 1.2-.8-.1-.9.9-.9.9h1.8l.1 3.6 1.9-.4.6-1.2 1.2 1.1-1 1 1.2 1.3 2.2-3.5 1.3 2.3s-2.3 1.7-2.4 2.6c-.1 1 1.8-.6 1.8-.6l1.2.6 1-.6 2.4 1.3 2.1-1.3 1.7.6.1 4.2-1.7.9-.7 2.4 1.1 1.3.6.3 1.5 2.1-1.2.6s-.1 2.1-1.3 2.8c-1.2.6 1 2.6 1 2.6l.1.8 1.2 4.3-2.2.5-2.6 1.7h-.8l-1.7 4.9-2.6-2.1-3.4-.7-2.2-1.7-1.7-.9h-.1l-11.2-1.7s-6.7-2.6-7.1-1.3c-.5 1.2-1.9 1.4-2.1.5-.2-.9-1.9 1.3-3.5 1.3-1.5.1-.5-2.5-.5-3.5s.3-1.2.5-2.1c.1-.9-1.9-2.4-1.7-1.7.3.6-.2 2.6-1.6 4.3-1.4 1.7-1.7 2.1.3 4.1 1 .9 1 2 .7 2.9l1.2 1.1s-1.8 9 4.5 11.3c6.3 2.3 5.8 2.6 5.8 2.6l-.6 1.3 1.2 2.2 3.1.5 3.4 1s11 13.8 14.1 15.3c3 1.5 5.1 3.5 6 9.3l.5 1.8"/>
</g>
<g id="N13" class="small-box dap">
<path class="st1" d="M741 306l-2.6 2-.1-.1 3.3 4.5s2.9-1.7 1.7.2c0 0 1.9.2.5 2l1.8 2.5s-.9 1.7-3.1.7l.6 2.9-.6 1.4 1.4 1.5s6.3 12.8 3.9 21.1l1.7.9 2.2 1.7 3.4.7 2.6 2.1 1.7-4.9h.8l2.6-1.7 2.2-.5-1.2-4.3-.1-.8s-2.2-1.9-1-2.6c1.2-.6 1.3-2.8 1.3-2.8l1.2-.6-1.5-2.1-.6-.3-1.1-1.3.7-2.4 1.7-.9-.1-4.2-1.7-.6-2.1 1.3-2.4-1.3-1 .6-1.2-.6s-1.9 1.5-1.8.6c.1-1 2.4-2.6 2.4-2.6l-1.3-2.3-2.2 3.5-1.2-1.3 1-1-1.2-1.1-.6 1.2-1.9.4-.1-3.6h-1.8s.1-1 .9-.9c.8.1.8-1.2 1.2-1.2.3 0 1.1-.5 1.2-1.2.1-.7-.3-2.7.1-2.6.5.1 2.4-.2 2.3-.4-.1-.3-1-.7-.1-1.5s.6-3.5 0-3.7c-.6-.2 1.1-1 1.1-1s.3-1.7 1.2-1.5c.9.2 1.1-.5 1.5-1.1.4-.6.5-1.2.5-1.2l.1-2.4-.8-.7.8-1.2-1-1.1h-.8l-.4-.8 1-.9s1.3 1 1.3.6-.2-1.5.3-1.2c.5.3.3-.9.3-.9s-.7-1.1.4-1.4a4 4 0 0 0 2.6-2.4l-.3.1-1.5-.6-4.5-1H750l-2.8 22.1-6.2.2"/>
</g>
<g id="N15" class="small-box dap">
<path class="st1" d="M726.6 307.1l-.3.4-8.9-1.2a9 9 0 0 0-3.8.5v1.6l-2.7 3.3 1.7.8-1.3 3.1.6 2.3-1 2.8-2.8 1.6s1.9-.1 3.4 1.9 4 1.9 5.9 1.7c1.9-.3 1.1-.1 1.1-.1l-4.9 14.1 7.8 7.5c.3-.9.3-2-.7-2.9-2.1-2-1.7-2.4-.3-4.1 1.4-1.7 1.9-3.7 1.6-4.3-.3-.6 1.8.8 1.7 1.7-.1.9-.5 1-.5 2.1 0 1-1 3.6.5 3.5 1.5-.1 3.3-2.2 3.5-1.3.2.9 1.7.8 2.1-.5.5-1.2 7.1 1.3 7.1 1.3l11.2 1.7h.1c2.3-8.3-3.9-21.1-3.9-21.1l-1.4-1.5.6-1.4-.6-2.9c2.2.9 3.1-.7 3.1-.7l-1.8-2.5c1.4-1.8-.5-2-.5-2 1.2-1.8-1.7-.2-1.7-.2l-3.3-4.5-2.6-3.5-5.1-.1-2.1 2.4-1.5-.1-.3.6"/>
</g>
<g id="N16" class="small-box dap">
<path class="st1" d="M659.5 314.8a40 40 0 0 0 3.8-8c.4-1.9 1.3-2.9 1.7-3.5.3-.6 1.9-4.9 2.6-4 .4.6 1.5-2.1 2.1-4.1a1476 1476 0 0 0-10.9-5.6l5.1-9.6c-3.8-1.3-6.4-5.3-6.2-8 .1-2.7-.4-3.1-2.3-2.1-.7.4-1.3.2-1.9-.2a20.3 20.3 0 0 1-9.6 1.1c-1.7-.6-2.8-.3-4.5 0-1.8.3-2.8 5.5-3.4 8.3-.6 2.9-1.8 2.7-3.9 4.2a38.3 38.3 0 0 1-8.8 3.9l.5 1 1.2-.6 5.2 10.2 3.5-1.7 2.4 4.4.9 4.1 2.1-.4c2.6 6.2 4 6.7 4.7 7.8.8 1.1 4.2 4 6.2 7.5a31 31 0 0 0 1.8 2.6l3.5-1.1c0-.2 3.7-5.5 4.2-6.2z"/>
</g>
<g id="N17" class="small-box pkr">
<path class="st1" d="M721.5 347.4l-7.8-7.5 4.9-14.1-1.1.1c-1.9.3-4.4.3-5.9-1.7s-3.4-1.9-3.4-1.9l2.8-1.6 1-2.8-.6-2.3 1.3-3.1-1.7-.8 2.7-3.3v-1.6c-3 .9-6.2 2.7-6.7 3.4-.8 1.1-7.4 1.5-7.4 1.5L672 301.6h1.2l.4-2.4 2-.9-6-3.2c-.7 2-1.7 4.7-2.1 4.1-.7-.9-2.2 3.4-2.6 4-.3.6-1.2 1.6-1.7 3.5a43 43 0 0 1-8 14l-3.5 1.1c2.5 3.1 6.2 6.5 8.1 7.1 2.4.7 3.8 1.2 4.7 2.4.9 1.2 4 5.1 6.7 5.5 2.7.5.7 3.3-.4 5.3s-.1 6.8-.5 8.3c-.3 1.5-2.3 3.3-3.5 4.9-1.2 1.7-.9 3.7-1 6-.1 2.4.2 3.9 2.3 4.9 2.1 1 4.4 2.4 5.8 3.9l2.7 2.8c1 1 1.5 3.5 2.3 9.2l2.4 17.8c.6 3.8 2.6 4.8 3.4 6.7l.9.3 7-1.7 5.5-1.8c7-.3 7.9 3.7 7.9 8 0 4.2 2.8 4 2.8 4s3.2-.8 6.4-1c3.2-.2 2.2-5.7 2.2-5.7-2-3.5.5-4.2.5-4.2 2.9-2 4.2-.2 6.1 0 1.9.3 3-1.9 3-1.9s-.5-2.8 1.3-2.9c1.8-.1.6 1.9.6 2.7-.1.8 0 1 .7 2.7.7 1.7 1.9 1.1 3.7.9 1.7-.2 2.5-1.5 3.1-2.6.7-1.1 2.2-.5 2.5-.3.3.1 2.8.4 3.2.2.4-.1 1.9-.7 3.4.1 1.5.9 2.5.7 3.3-.4.8-1.2-1.6-2.1-2.5-2.4-.9-.3-1.2-1.4-1.5-1.8a9 9 0 0 0-1.6-1.7c1.6-1.5 3.6 0 4.2 1.4.6 1.4 2.4-.1 2.4-.1l.6-2.2c1.7-3 2.1.6 2 1.6-.1 1-.6 1.7-.7 2.3-.2.6-1.4.2-1.2 1.6.2 1.4 2.4.5 2.7-1 .4-1.5 2.4-2.7 3.2-1.7.8 1 2.7 1.6 2.5-1.8-.1-1.6.9-2.7 2-3.3l-.5-1.8c-.9-5.8-3-7.8-6-9.3-3.1-1.5-14.1-15.3-14.1-15.3l-3.4-1-3.1-.5-1.2-2.2.6-1.3s.5-.3-5.8-2.6c-6.3-2.3-4.5-11.3-4.5-11.3l-1.4-1.2"/>
<path class="st1" d="M760.7 393.9l.1.1.6 1.2 1.2.6.5-.8 1.6 2 .2-.1"/>
</g>
<g id="N18" class="small-box pkr">
<path class="st1" d="M780.5 477.3l4.1-1.5.4 1.2 3.9 1.7s1.5-.1 2.2-.3c.7-.2 1-.3 1.5 1 .6 1.4-.9 2.6-1.3 1.2-.4-1.3-2-.7-2.2 1-.1 1.7.9 1.9 4.6 3.6 3.7 1.7 4.2-3 4.2-3l.8.4 2.4-3.7s.3 1.5.7 0c.3-1.5 2.7-3.1 2.7-3.1l-.2-2.4.8-1.9V469h1.3l-.2-1.2 1.9-4.8-2.4-.9.3-1.2-1.5-.5.8-2.1 1.7-1.2-.8-1.9-4 1c-1 .2-5.7.5-6.7.5s-1.2.8-2.4 1c-1.2.3-2.5-.5-2.5-.5l-7.6.5-2.5-2.6 6.3-6.6.5-2.3-8.5-5.2-1.2.9-13.5-7.6-3.3-16.5c-2.8-9.3.5-13 .5-13l3.5-7.9-.2.1-1.6-1.9-.6.8-1.2-.6-.6-1.2v-.1c-1.1.6-2.1 1.6-2 3.3.2 3.4-1.7 2.8-2.5 1.8-.8-1-2.8.2-3.2 1.7-.4 1.5-2.5 2.4-2.7 1-.2-1.4 1.1-1 1.2-1.6.2-.6.6-1.3.7-2.3.1-1-.3-4.6-2-1.6l-.6 2.2s-1.9 1.5-2.4.1c-.6-1.4-2.6-2.9-4.2-1.4a9 9 0 0 0 1.6 1.7c.2.5.6 1.5 1.5 1.8.9.3 3.3 1.2 2.5 2.4-.8 1.2-1.8 1.3-3.3.4-1.5-.9-3-.3-3.4-.1-.4.1-2.9-.1-3.2-.2-.3-.1-1.8-.8-2.5.3s-1.4 2.4-3.1 2.6c-1.7.2-3 .8-3.7-.9-.7-1.7-.8-1.9-.7-2.7.1-.8 1.2-2.8-.6-2.7-1.8.1-1.3 2.9-1.3 2.9s-1.1 2.2-3 1.9c-1.9-.3-3.2-2-6.1 0 0 0-2.5.7-.5 4.2 0 0 1 5.5-2.2 5.7-3.2.2-6.4 1-6.4 1s-2.8.2-2.8-4-.9-8.2-7.9-8l-5.5 1.8-7 1.7-.9-.3c.2.5.3 1.1.3 1.9-.3 3.4-2.2 6.9-2.2 6.9l-3 2.8-.3 1s-.8 1-2.8 2.4c-2.1 1.4-.7 2.7-1.2 3.7-.6 1-1.6 1.3-1.7 1.8-.1.5-1.5 0-1.5 0l.3 3 1.5.9c3.1-.3 3.5 1.9 3.5 1.9h1.6l-.1 2.2 4.9 9.4 1.7 4.8a95.8 95.8 0 0 1 5.1 13.3l.7 5 2.9 8.7c1 3.2-.4 5.6-.8 7.5-.3 1.9 1 2.5 1.5 5.1.2 1.1 0 2.4-.4 3.6l4.5 2.2 9.7-2.8 2.1-.2c8 1.5 11.9-4.6 11.9-4.6l2.8-3.8 2-1.9c1.9-2.8 4-3.7 5.8-3.5 1.8.3 3.3.6 2.6-3.3-.6-3.9 1-4.9 1-4.9l4-.8 1-.8s2.1.1 3.1 2.6c.9 2.4 2.3 1.3 2.6 1 .3-.3 2.3-2 3.1-.1.8 1.9-1.2.3-1.6 3.1-.3 2.8 1.8 1.1 3.4 1.2 1.6.1.1 2-1.9 2s-.9 1.7-.9 1.7c1.7 2.6 2-.9 4-.5s-.5 2.6-.5 2.6c-.2 3.1 1.1 1.6 2.8 1.5 1.7-.1 1.1 1.7.8 3-.3 1.3 2.2 2.7 2.2 2.7 1.8.8 3.1 1.3 2-1.9-1.1-3.3 1.7-1.3 1.7-1.3l2.2-1c1.6-2.4 2.7.5 2.7.5l2.1.5.8-1.8-.3-2.7 1.9-.2 2.1.8-.6-2.8c-.1-.4 1-1 1.5-1l3.2.1 2.3-.9"/>
</g>
<g id="N19" class="small-box dap">
<path class="st1" d="M695.9 543c.9 1.3 5.5 1.8 5.5 1.8l5.7-4.7s2.5-4.5 5.3-3.1a56 56 0 0 0 8.7 3.1c.9.2 3.4 3 1.6 5.8-1.8 2.9-2.3 4.2-2.3 4.2s-7.5 6.1 1.1 6.5l12.9-2.4s6.1-3.4 6.4 2.9c.3 6.3-2.4 8.4 3.1 11.1 0 0 3.2-.3 3.4-2.7.2-2.4.6-5.5 2.2-6.3 1.6-.7 3.8-2 4.1-3.8.3-1.8.9-7.8 3.9-7.8s5.1 0 5.8 1.8c.7 1.8 3.2 6.3 6.3 5.1 3-1.2 8-3.1 8.8-.2.8 3 5 6.5 6.3 6.7l.3.2 1.2-1 2.1-5.5-3.1-.9 1-3h.8l1-1.8h.9l1.4-1.2 3.1-9.4s-.7-.6-1.4-1.5c-.6-.9-.6-1.7.4-2.9.9-1.2-3.1-2.7-3.1-2.7l-1.8-2.8-1.4 1c-.1-1.6-4.5-7.6-4.5-7.6l.3-.9-.6-2.1.6-6.1.4-1.4-.4-.9 3.7-3.1-2.1-1.3-.9-3.1c0-.2-1.3-1-1.3-1l1.3-3.2-1.3-9.9 2.2-6.9-2.7-4.3-1.9.7-3.2-.1c-.5 0-1.5.6-1.5 1l.6 2.8-2.1-.8-1.9.2.3 2.7-.8 1.8-2.1-.5s-1.1-2.8-2.7-.5l-2.2 1s-2.8-2-1.7 1.3c1.1 3.3-.2 2.8-2 1.9 0 0-2.4-1.4-2.2-2.7.3-1.3.9-3.1-.8-3-1.7.1-3.1 1.5-2.8-1.5 0 0 2.5-2.2.5-2.6-2-.4-2.3 3.1-4 .5 0 0-1.1-1.7.9-1.7s3.5-1.9 1.9-2c-1.6-.1-3.7 1.5-3.4-1.2.3-2.8 2.4-1.2 1.6-3.1-.8-1.9-2.8-.2-3.1.1-.3.3-1.7 1.4-2.6-1-.9-2.4-3.1-2.6-3.1-2.6l-1 .8-4 .8s-1.7 1-1 4.9c.6 3.9-.8 3.5-2.6 3.3-1.8-.3-3.9.6-5.8 3.5l-2 1.9-2.8 3.8s-3.9 6-11.9 4.6l-2.1.2-9.7 2.8-4.5-2.2c-.5 1.7-1.4 3.2-1.8 3.4-.7.3-1.4 1.1-2.6 3a102 102 0 0 0-1.4 19.8c.1 1.7.6 2.5.6 2.5l-5.8 12 7.2 2.8s.5.7 1.9 1.4c1.5.7.9 3.5.9 3.9l-.2.4c.7-.1 1.6.5 2 1z"/>
</g>
<g id="N20" class="small-box pkr">
<path class="st1" d="M841.5 537.7l-4.9-44.6-5.2-43.2-4.3-40.5-.6-5.3-2.8-3.2.8-1.5-.8-2.4-1.2.4-1.6-1.5-3.6-3.5-1.9-1.6-1.2-1.2-4.2-.6-2.2-1.5c-1 2.5-5.3 1.2-5.3 1.2l-2.2 1.9-1.2-1.4-3.7-.8-2.1-.2s-2.5-.4-2.6-.6c-.1-.2-2.8 1.9-2.8 1.9l-1 2.2-6.7 3.6-4.9 1.7-7.5-.8-2.7.8-3.5 7.9s-3.3 3.7-.5 13l3.3 16.5 13.5 7.6 1.2-.9 8.5 5.2-.5 2.3-6.3 6.6 2.5 2.6 7.6-.5s1.2.8 2.5.5c1.2-.3 1.5-1 2.4-1 1 0 5.7-.3 6.7-.5l4-1 .8 1.9-1.7 1.2-.8 2.1 1.5.5-.3 1.2 2.4.9-1.9 4.8.2 1.2h-1.3v2.4l-.8 1.9.2 2.4s-2.4 1.6-2.7 3.1c-.3 1.5-.7 0-.7 0l-2.4 3.7-.8-.4s-.5 4.6-4.2 3c-3.7-1.7-4.8-1.9-4.6-3.6.1-1.7 1.7-2.3 2.2-1 .4 1.3 1.9.1 1.3-1.2-.6-1.4-.8-1.2-1.5-1-.7.2-2.2.3-2.2.3l-3.9-1.7-.4-1.2-4.1 1.5 2.7 4.3-2.2 6.9 1.3 9.9-1.3 3.2s1.3.7 1.3 1l.9 3.1 2.1 1.3-3.7 3.1.4.9-.4 1.4-.6 6.1.6 2.1-.3.9s4.4 6 4.5 7.6l1.4-1 1.8 2.8s4 1.5 3.1 2.7c-.9 1.2-1 2-.4 2.9.6.9 1.4 1.5 1.4 1.5l-3.1 9.4-1.4 1.2h-.9l-1 1.8h-.8l-1 3 3.1.9-2.1 5.5-1.2 1c1.2.9 2.5 5.8 1.7 7-.8 1.4-4 4.6-4 4.6l-.1.4 1.9 2s5.1-2.6 6.1-4.2c1-1.5 6.4-1.2 8.5 0 2.1 1.2 17.1 3.5 27.6 6.5 10.5 3.1 18.3-6.2 18.3-6.2l-3.5-33.2z"/>
</g>
<g id="N21" class="small-box pkr">
<path class="st1" d="M784.8 560.9l-.3-.2c-1.3-.2-5.5-3.7-6.3-6.7-.8-3-5.7-1-8.8.2-3.1 1.2-5.5-3.3-6.3-5.1-.7-1.8-2.9-1.8-5.8-1.8-3 0-3.6 6-3.9 7.8-.3 1.8-2.5 3.1-4.1 3.8-1.6.7-2 3.9-2.2 6.3-.2 2.4-3.4 2.7-3.4 2.7-5.5-2.7-2.8-4.8-3.1-11.1-.3-6.3-6.4-2.9-6.4-2.9l-12.9 2.4c-8.6-.4-1.1-6.5-1.1-6.5s.5-1.3 2.3-4.2c1.8-2.9-.6-5.6-1.6-5.8a56 56 0 0 1-8.7-3.1c-2.8-1.4-5.3 3.1-5.3 3.1l-5.7 4.7s-4.5-.5-5.5-1.8c-.4-.5-1.2-1.1-2.1-1.7-.8 1.1-3.7 3.9-3.7 3.9s-.9.8-2.6 1.3c-1.7.5-3.1 3.9-3.1 3.9l-1.7 2s-3 5.3-4.6 6.8c-1.6 1.5-.1 3.9-.1 3.9l-2.6 1.9-3.8 8.6.1 1.5-2 3.2-1.7 5.8-3.9 8 5.1 4.1 1.2-.3 2 .3 1.7-.6L731 589l4.2-.7 38.4-3.7 3.7-7.8 4.7-4.2.1.1.1-.4s3.1-3.2 4-4.6c1-1-.2-5.8-1.4-6.8"/>
</g>
<g id="N22" class="small-box dap">
<path class="st1" d="M471.7 191l2.4-1 1.1 1.5-1 1.1-.8 2.4 1 3.4-2.6 1.7 1.2 2.7 1.5 1.5-.7 1.2c.9.4 1.9.9 2.3 1.3.7.8 4.9 1.6 6 1.1 1.2-.5 1.9-2.9 3.5-2.6l4.5 1 3.9 2.3v8l.5 3.1.4.6 2.8-.3 4.2-3.1 3.5-6.6 6.7-7.6 3.3-3.8 1.7-.4-.9 2.6-2 4.2 2.3 2.7.2-.1.5-1.7-.5 1.7 2.1-1.1 1.7.3 2.3-1.2v-3.4l9.4.6 3.3-2.5.5-2.3 2.2-1.4h2.4l1 .4 1.4-.1.4-1.9 1.8.6.8 2 2.4-.6.7 1 3.9 1.3-.7 2.2.5 3.7h.1c1.3 0 2.6 1.3 2.6 1.3s-1.4 3.4.4 5.5l2.8-2.2s3.2-6.6 3.2-8.2l.2-5.5c0-1.9.5-4-.7-3.9-1.2.1-6.1.6-6.3-.6-.1-1.2.3-2.8-1.4-2.7-1.7.1-6.9 1.9-7.6-1.8 0 0-3 .2-3.7.5-.7.2-1.2-.2-1.5-.2s-1.5.6-1.8 0c-.3-.6-.8-.2-.8-1.3s-.3-1.5-.9-1.3c-.6.2-1.3.6-1.3-.6 0-1.1-.1-.8-2.3-.3-2.2.5-6.4 1.3-6.8 1.5-.4.3.8.8-.9.5-1.7-.3-5.5 1.1-6.7-.5a9 9 0 0 1-1.7-4.9c-.1-1.7.3-2.8.3-3.7 0-.8-.4-.6-1.5-.7-1.1-.1-.3-1.4-.7-1.9s-1.1-1.7-1.7-1.4c-.6.3-2.1.2-2.7-.6-.6-.7-2.5-1.5-4.6 0-2 1.5-1.8.6-1.8.6l-.7-.6-1.4.4-.6-.7c-.4-.5-1.7 1.7-2.7.1-1-1.6-1.4-1.2-1.3-2.2 0-1-.7-1.8-1.7-1.9-1-.1-4 1.1-4.3-.9 0 0-1.4 0-1.8.6-.5.6-.7 1.4-.8 2.1-.1.6-.5.1-1 .7-.6.6-.9.1-1.4.7-.5.6-1.4 1.5-2.9 2.5-1.4 1-7.5 8.6-8.9 9-1.4.4-3.3 3.7-3.9 4.1-.5.3-1.2 1.1-1.9 1.5l1.5 2.2.5.3z"/>
</g>
<g id="N23" class="small-box dap">
<path class="st1" d="M466.5 272.4v-2.1l1.2-1.8 1.5-.4 1.5-2.1-.1-1.4.6-.9h.9l1.1-.5.6-1.1 1.7-3.2-1-1.6-.6-2.9.1-4 .8-1.5 1-.8h2.4c.2.1 2.8-.9 2.8-.9l-.4-2.1-1.9-.6-2.6.1v1.2l-.6.4-1.1-2.6.6-1.2-.9-.7.1-1.3 1.3-.6 1.5-.6-1.1-1 .6-2.7v-1l-.7-.6-.5-2.7-.6-5.2-.5-.6-1.4-2.6-1.2-5.4-1.2-2.3-.2-2.4 1-3.1 1.7-.4.8-3.5.3-.5c.9.4 1.9.9 2.3 1.3.7.8 4.9 1.6 6 1.1 1.2-.5 1.9-2.9 3.5-2.6l4.5 1 3.9 2.3v8l.5 3.1.4.6 2.8-.3 4.2-3.1 3.5-6.6 6.7-7.6 3.3-3.8 1.7-.4-.9 2.6-2 4.2 2.3 2.7.2-.1-.5 1.8-.9 1v3.4l-.5 1.1-1.3.3.3 1.2h-1.7l.7 2.2 1.8 1.8 2.4.5 3.1-3.3 1.4 1.5v1.7l.4 2.6-.6 1.8.3 1.3s-.9 3.6-.9 4.5c0 .9.6 1.6.6 1.6l3-1.4 3 4.4-.2 5.8-2 .5-.2 2.7-.5 1.1 1.1.6.3 1.8 2.6 2 1.9.6v1l-.4.6 7.5 4.4 1.8-1.7 2.4-.1.6 2.4-3.2 2.2-11.4 1.3-3.2-1.3-6.8 3.4-3.1 3h-.4l-2.3.2-.5 2-3.4.9h-2.2l-1.8 1.2v-1.9l-1.9 2.5-3 .8-1.8 2.2-2.9 2.5-.6 2.7-2 .2-1.8 3.4-1.5 1.7.2 4.6 2-.1 1.6 1.1-1.7 3.6h-2.6l-2.6-.4-.6-1.9s-1.5-.1-1.6-.3l-.9-1 1.4-1.5-.5-.8-1.9-1.4-2.3-1.1-1-.9-1.1-.1c.2.1-.1 2.3-.1 2.3l-2 .6v-2.1l-1.8-2.2.1-2.4-1.1-2-1.2-.5.1-1.7s-2.1-1.1-2.2-1.3l-2-1.9v-.5z"/>
</g>
<g id="N24" class="small-box pkr">
<path class="st1" d="M552.3 201.6l.7-2.2-3.9-1.3-.7-1-2.4.6-.8-2-1.8-.6-.4 1.9-1.4.1-1-.4h-2.4l-2.2 1.4-.5 2.3-3.5 2.6-9.4-.6v3.4l-2.3 1.2-1.7-.3-2.1 1.1-.5 1.8-.9 1v3.4l-.5 1.1-1.3.3.3 1.2h-1.7l.7 2.2 1.8 1.8 2.4.5 3.1-3.3 1.4 1.5v1.7l.4 2.6-.6 1.8.3 1.3s-.9 3.6-.9 4.5c0 .9.6 1.6.6 1.6l3-1.4 3 4.4-.2 5.8-2 .5-.2 2.7-.5 1.1 1.1.6.3 1.8 2.6 2 1.9.6v1l-.4.6 7.5 4.4 1.8-1.7 2.4-.1.6 2.4.6-.4 3.1.5 2-.4-.5-1.6-.4-8.3-1.3-4.3 2.9-2.3.2.3c-.1-3.4-1.9-5.5-1.9-5.5l-1.8-3.5-1.8-3.6-1.3-1.5.6-.8-.7-.9-.1-2.6.3-.6.8-.7s-.6-.2-.8-.6l-.4-.8.7-1.1.9-1.3 1.8-.8-1-1.4.3-2.9 3.7-.4-.8-2.9.2-5.8h1l3.1 1.6.9-3.3"/>
</g>
<g id="N25" class="small-box dap">
<path class="st1" d="M552.3 201.6l-1 2.9-3.1-1.6h-1l-.2 5.8.8 2.9-3.7.4-.3 2.9 1 1.4-1.8.8-.9 1.3-.7 1.1.4.8c.1.4.8.6.8.6l-.8.7-.3.6.1 2.6.7.9-.6.8 1.3 1.5 1.8 3.6 1.8 3.5s1.8 2.1 1.9 5.5l2.4 3.3 8.4 5.9 1 .2 3.5.9 1.4-10-.6-4.1 4.3-4 1.2-2.1a26.1 26.1 0 0 1-6.9-5.3 55.4 55.4 0 0 0-7.6-8c-.6-.3-.2-.9-.2-1.2 0-.4-2.1-3.1-1.6-3 .5.1 1.1-.1.7-1.3-.3-1.1-2.9-6.2-1.8-6.5l-.4-3.8z"/>
</g>
<g id="N26" class="small-box dap">
<path class="st1" d="M565.3 240.8l-.6-4.1 4.3-4 1.2-2.1 7.4 3.9s2.5 1.7 5.7 2.7c0 0 .4-.7 1.9.7 0 0 2 .1 3-.2 0 0 1.3 1.4 3 .3 0 0 6.1 1.7 8 3.5 0 0 .2 1.9-.2 2.8 0 0-.6 1.9-1.9 3.8L595 245l-3.8 2.8-1.4-1.2.2-1.5-8.9-4-1.3 2.5-1.9-1.7-3.2 4.1-9.4-5.2z"/>
</g>
<g id="N30" class="small-box dap">
<path class="st1" d="M583.7 264.4l-3.5-2.8s-3.9.3-5.3-.9l-3.1-1.8-2.1.4-3.2-2 7.1 8.2-4.3 1.4-1-1.8-3-1-1 2.5.3 2.2 5.5 3.1-7.7 5.9-1.2 5.4s-5.7 1.4-5.9 3.4l-.9 4.3 6.2-1 4.8 1.6s1-1.5 2-2.1c0 0 2.6-1.2.9-4.4l6.6-9.1s2 .4 1.4-2.7c0 0 .8-2.5 2.3-3.3l5.1-5.5z"/>
</g>
<g id="N32" class="small-box dap">
<path class="st1" d="M557 290.3l-2.9.6-1.9-4.3-4.9-9.7s1-5.4 1.5-9.2l-5.6-.4-2.4-1.8-2.7 2.4v.9l-3.3.3-.9 1.4-.4.8.5.8h.6l1 1.4-.2 2.6-1.4 3-.8.8-1.8.5-1.4 2.3.9.3 1.6.2 1.5 1 1.4-1.2h1.2l1.2-1.1 2.2 1.2 1.9-.2.4 1.3.7.2.2 1.8-1.4.3s-1.2 2.9-1.2 4c0 1 .9 2.3.9 2.3l.7 1.2.2.4.8 1.6 1.2.7s-2.6 1.1-1.2 1.9 3.5 3.5 3.5 3.5l1.8 2.4h3.9l1.8.5.6-.9h1.5l1.3 6.5s1.5 2.1 3.1 1.9l-1.2 6.1 2.2-1 1.1-2.5 2-.5.2-2.2c.3-2.1.8-5.7.4-6.1-.5-.4.5-.4-2-.7-2.5-.4-2.5-.7-1.8-3.5.6-2.8 2.4-4.8 2.8-5.8.3-.9.3-2.9.9-4.1l-4.9-1.6-3.4-.3z"/>
<path class="st1" d="M542.5 294.1zM542.3 293.6l.2.5z"/>
</g>
<g id="N33" class="small-box dap">
<path class="st1" d="M541.9 257.2l-3.2 2.2-11.4 1.3-3.2-1.3-6.8 3.4-3.1 3h-.4l-.5 1.3.2 1.8-.5.6-.6.9-.7.7s-.2.4 0 .6c.2.1 2.9.3 3.3 1.3.5 1 1.1-.4 1.1-.4l.6-2.2s1 2.2 1.5 1.8c.5-.5 1.5-1.3 2.4-.9.9.4 1.5.2 1.9.7.4.4 1.5.2 1.9 1 .4.7.9.7 1.2.7l3.4-.7 1.4 1 1.6-3.1 1.6.8.2-.5-1.2-1.9 1.2 1.9.4-.8.9-1.4 3.3-.3v-.9l2.7-2.4 2.4 1.8 5.6.4.4-2.9c.2-1.9-.9-5.7-1.6-7.9l-2 .4-3.1-.5-.9.5"/>
</g>
<g id="N29" class="small-box dap">
<path class="st1" d="M548.4 240.2l-2.9 2.3 1.3 4.3.4 8.3 1.6 5.6.5 3.3s13.5.5 13.7.4l2.3-.4 3 1 1 1.8 4.4-1.4-7.5-8.5 3.5 2.3 2.1-.4 3.1 1.8s.1-1 .5-2l.2-2.1-2.5-.2-.2-1.4.8-1.7-.1-1.8-5.6-.7h-4l-4.8-1.3-8.3-5.9-2.5-3.3z"/>
</g>
<g id="N27" class="small-box dap">
<path class="st1" d="M575.1 261c-.1-.2 2.4-2.2 2.4-2.2l1.9-10.3 4 1.8 1.6-1.8 1.1 1.2 1.6-.5 1.1 1.2 1.6-2 4.6-3.3 2 3-.5 1.3-.5 1.6-1.7.3s-.4 1.6-1.2 1.8c0 0-.6-1.4-1.2-1.2l-.4.8-.8-.4-.3.7-.8-.2s-.9.2-.7.8l1.6.8s0 .9-.5 1.4c0 0-1.7 1.1-1.5 2.3l.3 1.2v1l.7.9-3.3 1.7-2.4 1.7-3.6-2.8c.1-.2-4.2.2-5.1-.8z"/>
</g>
<g id="N28" class="small-box dap">
<path class="st1" d="M565.3 240.8l-1.4 10h3.9l5.9.7.1 1.8-.8 1.7.2 1.4 2.5.2-.2 2.1s-.7 1.6-.5 2l.3.4-.2-.1c.2.1 2.5-2.2 2.5-2.2l1.9-10.3 4 1.8 1.6-1.8 1.1 1.2 1.6-.5 1.1 1.2 1.6-2 .8-.5-1.4-1.2.2-1.5-8.9-4-1.3 2.5-1.9-1.7-3.2 4.1-9.5-5.3z"/>
</g>
<g id="N31" class="small-box dap">
<path class="st1" d="M549.3 264.3h8.1l5.6.2 2.3-.4-1 2.5.5 2.3 5.4 3.1-7.8 5.9-1.2 5.4s-5.5 1.4-6.2 3.8l-.8 3.9-6.8-14 1.9-12.7z"/>
</g>
<g id="N34" class="small-box dap">
<path class="st1" d="M542.5 294.1z"/>
<path class="st1" d="M494.6 322.6v.3h3.3l1.8 2.1.4 3.3 1.2 1.9v1.4c.1.2 3 1.2 3 1.2l1.1 2.1 1.8 3.3 1.6 2.5s3.1-.8 5.9 3.1l1.9 3.7v2l-.8.3 4.1-.8.2-.1-.4-6.3 2.6-3.3 1.2-1.5-1.2-2.7 1.2-.7.6 1.5.7 1.2 4.9 1.1 3.4-5.3 2-.9-.9-7.3 1.1-3.5.5-3.2h-2.1s-2-1-3.1-.8c-1.1.2.3-2.7.3-2.7l3.3-1.2 1.2-2.5v-3.7l1.2-1.1 2.9 1.8 1.3-6.8-1.9-1.2v-1l-2.2.7 1.9-3.3-.1-1.6 3.9-.7-.7-1.2s-.9-1.2-.9-2.3c0-1 1.2-4 1.2-4l1.4-.3-.2-1.8-.7-.2-.4-1.3-1.9.2-2.2-1.2-1.2 1.1h-1.2L534 284l-1.5-1-1.6-.2-.9-.3 1.4-2.3 1.8-.5.8-.8 1.4-3 .2-2.6-1-1.4h-.6l-.5-.8-.2.5-1.6-.8-1.6 3.1-1.4-1-3.4.7c-.2 0-.8 0-1.2-.7-.4-.7-1.5-.6-1.9-1-.4-.4-1-.3-1.9-.7-.9-.4-1.8.5-2.4.9-.5.5-1.5-1.8-1.5-1.8l-.6 2.2s-.6 1.4-1.1.4c-.5-1-3.1-1.2-3.3-1.3-.2-.1 0-.6 0-.6l.7-.7.6-.9.5-.6-.2-1.8.5-1.3-2.3.2-.5 2-3.4.9h-2.2l-1.8 1.2v-1.9l-1.9 2.5-3 .8-1.8 2.2-2.9 2.5-.6 2.7-2 .2-1.8 3.4-1.5 1.7.2 4.6 2-.1-.2-.2 2-1.5 1.7 1.9-1.6 3.5 1.6.5.4 3v2.3l-1.8 1.4-1.5 1.6-.4 1.8.2 2.2s2.1-.5 2.1 0 1.4 1.3 1.4 1.3l.7 16.2"/>
<path class="st1" d="M520 348.9c-.1-.1-.1 0-.2 0h.2zM542.3 293.6l.2.5z"/>
</g>
<g id="N35" class="small-box pkr">
<path class="st1" d="M542.5 294.1l-.3-.4-3.9.7.1 1.6-1.9 3.3 2.2-.7v1l1.9 1.2-1.3 6.8-2.9-1.8-1.2 1.1v3.7l-1.2 2.5-3.3 1.2s-1.4 2.9-.3 2.7c1.1-.2 3.1.8 3.1.8h2.1l-.5 3.2-1.1 3.5.9 7.3-2 .9-3.4 5.3-4.9-1.1-.7-1.2-.6-1.5-1.2.7 1.2 2.7-1.2 1.5-2.6 3.3.4 6.3a3 3 0 0 1 1.3-.5c2.4-.1 9.5-2.2 9.5-2.2s7.5.8 7.9.4c.4-.4.9-.8.9-1.8s.6-1.6.9-1.8c.4-.2 1.9-1.8 1.9-1.8l.6-2.7-.4-4s-.2-.7 2.2.5l2.8-4.5h1.2l.8-.9 5.5 1 .3 1.2-1.4-.3-.5 3.5 5.7 3.3a71.6 71.6 0 0 1 4.6-16.9c.9-2.3 1-5.1 1.1-7.3l-2 .5-1.1 2.5-2.2 1 1.2-6.1c-1.6.1-3.1-1.9-3.1-1.9l-1.3-6.5h-1.5l-.6.9-1.8-.5h-3.9l-1.8-2.4s-2-2.6-3.5-3.5 1.2-1.9 1.2-1.9l-1.2-.7-.7-1.2"/>
<path class="st1" d="M542.5 294.1zM520 348.9c-.1-.1-.1 0-.2 0h.2zM542.3 293.6l.2.5z"/>
</g>
<g id="N36" class="small-box pkr">
<path class="st1" d="M554 331.5l1.4.3-.3-1.2-5.5-1-.8.9h-1.2l-2.8 4.5c-2.4-1.3-2.2-.5-2.2-.5l.4 4-.6 2.7s-1.5 1.7-1.9 1.8c-.4.2-.9.8-.9 1.8s-.6 1.4-.9 1.8c-.4.4-7.9-.4-7.9-.4s-7.2 2.1-9.5 2.2c-.5 0-.9.2-1.3.5v.1h-.2a6.7 6.7 0 0 0-1.6 3.2l4.3.7-.5 7.7-2.3-.3-1.3-.6-.5 1.8 2.6.9 13.5 4.2 2.2 2 5.9 12.9c1.1-3.4 2.4-7.8 2.7-9.2.6-2.2.2-6.1 3.9-11.2a42.7 42.7 0 0 0 6.7-12.3c.4-1.6 2.6-6.7 3.8-10.7l-5.7-3.3.5-3.3z"/>
<path class="st1" d="M520 348.9c-.1-.1-.1 0-.2 0h.2z"/>
<path class="st1" d="M573.9 349.3l-1.4-2.2.1-1.6s-.1-2.1-.4-2.4l-1.5-.7-2.5 3.8s-1.9-.7-2.2 0c-.2.7-1.1.8-1.5 1.7-.4.9-.1 1.6-.4 2.2l-1.7 3.5c-.3.7-2.6 1-3 1.8-.3.8-.3 1.9-.5 2.5-.2.6-2.4 3.7-2.6 4.7-.2 1 1.2 3.8 0 4.8s-2.8 1.5-3.4 2.9c-.6 1.5.3 2 .5 4 .2 1.9.6 3.2.7 4.4.1 1.2.7 2.1.7 2.1s.1 2.9.8 3.1c.8.2 2.6.1 3-.8.4-.9 2.6-4.6 1.7-7.3-.8-2.6-.1-3.4-.4-3.9-.3-.5 2.1-3.5 3.5-2.9 1.5.6 2 .2 3.5-.2s6.2-4.2 6.2-4.2 2.2.2 1.7-1.5c-.5-1.7-.6-2.8.1-3.9.6-1.1 1.5-2.5 1.7-4.3.1-1.8.1-2.8-.5-3.7-.6-.8-2.2-1.9-2.2-1.9z"/>
</g>
<g id="N37" class="small-box pkr">
<path class="st1" d="M518.4 448.8l-2.4.7-1.1 1.1h-.9l-1.1-1.1-1.5-.5-2 .9.2 2.9 1.6 2.4 3-1.8 1.6 1.6 1.1 1.5 1.5-1.1V453zM534 366.7l-13.5-4.2-2.6-.9.5-1.8 1.3.6 2.3.3.5-7.7-4.3-.7s.4-2.1 1.6-3.2l-4.1.8-3.7 1.3-1.7 2.4s.6 5.4-1 4.6a9 9 0 0 0-2.3-.9s-2.3-.8-2.4-1.2c-.1-.4-1.3-1.2-2-.9-.7.4-2.4.3-2.6.3l-2.3 1.3c-.5.2-3.6 1.2-3.6 1.4v.6l1.5.9-.8 3.1-.3.6-1.6 1.2.6 2.3-2.7 2.4 1.7 1.2 2.1-1.1 2.3.8s2.7.8 2.9 1l1.6 1 1.3 1.6-.7 3 1.9 1.2 2.7 1.8 1.5 3.6s2 .4 2 .6l4.1 1.5s-3.9 4.7-3.8 4.8l-1.2-.8-2.4 1.9H503l-3.2 3.5v2.7l-2.8 1.5-1.4 2.8-1 1.4-1 2.9-2 .6-.7 1.9 1.1.2c1.8.6 13.8 7.6 13.9 8.7.1 1.1.1 1.8.4 2.1.3.4.6 2.5 1.4 2.9.8.4 4.5 3.8 4.3 4.6-.2.8-.6 2-.5 2.7.2.6 1.7 2.9 1.7 3.5 0 .6.8 2.4 1.4 2.6.6.2 2.3-.6 2.7 0 .4.6 2.1 0 3.6 0 1.5.1 3.3-2.1 3.4-3.2.1-1.1 0-2-.6-3a6.7 6.7 0 0 1-1.2-4.1c.1-1.8.6-4.7 1.3-5.4.6-.6 4.5-7 5.6-7.7 1.1-.6 1.3-2.4 2.1-2.3.8.1 2-.6 1.8-1.8-.2-1.2-.1-2 0-3.5.2-1.5-.3-4.4 1.9-5.7 2.2-1.3 2.2-1.6 2.5-2.7.3-1.1 1.5-6 1.8-5.8.4.2 1.2-.4.8-1.8-.4-1.5-.6-2.1.1-3.2l1.5-4.2-5.9-12.9-2-2z"/>
<path class="st1" d="M520 348.9c-.1-.1-.1 0-.2 0h.2z"/>
</g>
<g id="N38" class="small-box amanah">
<path class="st1" d="M520 348.9c-.1-.1-.1 0-.2 0h.2z"/>
<path class="st1" d="M493.5 406.1l1-2.9 1-1.4 1.4-2.8 2.8-1.5v-2.7l3.2-3.5h3.8l2.4-1.9 1.2.8 3.8-4.8-4.1-1.5-2-.6-1.5-3.6-2.7-1.8-1.9-1.2.7-3-1.3-1.6-1.6-1c-.2-.2-2.9-1-2.9-1l-2.3-.8-2.1 1.1-1.7-1.2 2.7-2.4-.6-2.3 1.6-1.2.3-.6.8-3.1-1.5-.9v-.6c0-.2 3.1-1.2 3.6-1.4l2.3-1.3c.2 0 1.9.1 2.6-.3.7-.4 1.9.5 2 .9.1.4 2.4 1.2 2.4 1.2s.7.1 2.3.9c1.6.8 1-4.6 1-4.6l1.7-2.4 3.7-1.3-2.5-1.4 2.5 1.4.8-.3v-2l-1.9-3.7c-2.7-3.9-5.9-3.1-5.9-3.1l-1.6-2.5-1.8-3.3-1.1-2.1s-2.8-1-3-1.2v-1.4l-1.2-1.9-.4-3.3-1.8-2.1h-3.3v-.3l-2.7 1.1-2.4-.5-1.6 1.7-2.2.3.2 1.7-.4 1.4-.7 3.6-.2 2.2-.6.2-.6 1.1-.4 1.2 1.6 1.2.5 1.2h-2.8l-1.3 1-1 3.7-2.1 1.4v2.7l-.6 1.8-1.2 1h-.9l-2.5.5.2 2.2-.9 2-4.7 2.8h-2.3l.5 2.6 1.2 1.6-1.4 1.2-.1.5-1.8 2.7-.8 1.1-1.4-.7h-3.3l-1.2 1.4-.6 2.7c-3.1-2.1-4.9 1.4-4.9 1.4h-.7l-1.5 1.9.3 2-1.2.8-1.2 1.6c-.9-.8-1.4-.4-1.4-.4l.3 2.2-.8.6-.7 2.4s-.3 1.3-1 1.4c-.7.1-1.5 1.2-2.4 1.4-.9.1-1.2-1.4-1.2-1.4l-3.3 2.4-1-.2-.2.9-1.6 1.5-3.8 3.5-2.2 1.7-1.4.1v1.2l-2.9 1.2-.2-1.6s-2.6.7-2.8-.8-1-.7-1.2-.4c-.2.3-1.6-.3-1.9-.8-.3-.5 1.1-2.1 1.1-2.1l-.1-1.1.6-1-.8-1.3h-1.7l-1.2-.6-1.7-.2-1.8-2.4.3-1.1-.3-2.9-5-1.7-.4-.6c-.2.2-.4.3-.6.2-1.3-.1-2 .6-1.5 1.5.6.8 1.9 4 2.1 4.9.2.9-.3 5.4-.6 5.6-.4.3-.9 1.8-1.2 2.1l-2.1 2.1c-.7.6-1.8 2.6-1.3 4.3.5 1.7-2 3.1-2.6 3.5-.6.5-.1 1.9-.3 3.7-.2 1.8.9 3.4 1.6 4.1.6.6 2.5.6 2.5 2.2s.9 2.5.6 3.4c-.4.9 0 3 .4 4.2.4 1.2 2.6 2.5 2.6 2.5s.9 2.1 1.4 1.5c.5-.6 1.5 0 1-1.9a19 19 0 0 1-.7-4.8c0-1.3-.2-1.8.3-3.3.5-1.5.4-2.5 1-2.9.6-.4 1.1-1.5 1.3-2.3.2-.8 1.2-2.2 2.3-2.4 1.1-.2 3.8-1.5 5.8-.8 2 .6 3-.3 5 1s5 2.8 6.2 3.1c1.2.3.7.6 2.8.1 2-.5 3 0 3.3-1.2.4-1.2.4-2.5.9-2.5.6 0 1.2.8 1.8.2.6-.6.6-1.5 1.8-.8 1.2.6 1.7.2 3.2.2s3.3-.1 3.9.5c.6.6 1.6 1.8 2 2 .5.3 2.1.9 2.3-.3s-1.6-1.4 0-2 3.4-1.3 1.6-2.3c-1.8-1 .3-2.9.8-3.1.4-.2.2-.8 2.3-.7s3.5 0 6 .8 9.7 4.3 10.9 5.9c1.2 1.7.9 2.3.5 2.7-.5.4.8.6 1.5 1.2.6.6 2.5 2.5 2.5 3.4 0 .9-1.4 2.3 0 2.6 1.4.3 2.3-1 2.9-1.1.6-.1.9-.3 1.3-1.7s0-3 0-3-.1-1 1.4-1h4.1c.8.1 1.2 0 1.7-.4.4-.3 1.2-.8 2.4-.7l.7-1.9 1.7-1.1z"/>
</g>
<g id="N39" class="small-box pkr">
<path class="st1" d="M411.5 380.9l.3 2.9-.3 1.1 1.8 2.4 1.7.2 1.2.6h1.7l.8 1.3-.6 1 .1 1.1s-1.4 1.6-1.1 2.1c.3.5 1.7 1.2 1.9.8.2-.3 1.1-1.2 1.2.4s2.8.8 2.8.8l.2 1.6 2.9-1.2v-1.2l1.4-.1 2.2-1.7 3.8-3.5 1.6-1.5.2-.9 1 .2 3.3-2.4s.3 1.5 1.2 1.4c.9-.1 1.7-1.3 2.4-1.4.7-.1 1-1.4 1-1.4l.7-2.4.8-.6-.3-2.2s.6-.4 1.4.4l1.2-1.6 1.2-.8-.3-2 1.5-1.9h.7s1.8-3.6 4.9-1.4l.6-2.7 1.2-1.4h3.3l1.4.7.8-1.1 1.8-2.7.4-.6 1.4-1.2-1.2-1.6-.5-2.6h2.3l4.7-2.8.9-2-.2-2.2 2.5-.5h.9l1.2-1 .6-1.8v-2.7l2.1-1.4 1-3.7 1.3-1h2.8l-.5-1.2-1.6-1.2.4-1.2.6-1.1.6-.2.2-2.2.7-3.6.4-1.4-.2-1.7 2.2-.3 1.6-1.7 2.4.5 2.7-1.1-.2-16.3s-1.4-.8-1.4-1.3-2.1 0-2.1 0l-.2-2.2.4-1.8 1.5-1.6 1.8-1.4v-2.3l-.4-3-1.6-.5 1.6-3.5-1.7-1.9-2 1.5.2.2 1.8-.1-1.8.1 1.6 1.1-1.7 3.6H488l-2.6-.4-.6-1.9s-1.5-.1-1.6-.3l-.9-1 1.4-1.5-.5-.8-1.9-1.4-2.3-1.1-1-.9-1.1-.1c.2.1-.1 2.3-.1 2.3l-2 .6v-2.1l-1.8-2.2.1-2.4-1.1-2-1.2-.5.1-1.7s-2.1-1.1-2.2-1.3l-2-1.9v-.2l-2.6.6-3.1 2.4v2.4l-3 2 .5.9.5 2v2.2l-3.9 6.4-2 1.3-1.3 2.5-3.1 1-1 1.3-1.4-.3-2.3 1.2-.5 2.5 1.8 3.3.9-.2.5.3 2-1 .7 1.3-1.8 1.4 1.2 1.3-1.9 2.1-2.8-1.7-4.3 2.4 2.8 1.4v1.8h-.6l-1 1.2-.6 2-1.4 9.8-.9 1 .3 1.4-1.1 4.7-10.3-2.7c-2.4-.6-8.6 1.3-8.6 1.3l-3.3 1c.1 1.6.5 3.9.7 4.7.4 1.2.9 2.3 1.1 4.5.2 2.2 1.3 5.7 1.3 7.6 0 1.9 1.3 11 1.2 11.9-.1.9-.8 3.1 0 5 .8 1.8 1.6 5.7 1.1 6.4-.5.6-1.4 2.8-1.8 2.8-.4 0-1.4.9-1.4.9s.2-.8-.5-.8c-.6 0 .1 1.5-.6 0s-1-1.4-2.2-1.8c-1.2-.4-2.9 0-3 .3-.1.3-1.1 1.4-1.1 1.4s-1.6-1-1.9-.6c-.3.3-.9 2.6-1.9 3.4l.4.6 5 2z"/>
</g>
<g id="N40" class="small-box ppbm">
<path class="st1" d="M473.8 205.4l.7-1.2-1.5-1.5-1.2-2.7 2.6-1.7-1-3.4.8-2.4 1-1.1-1.1-1.5-2.4 1-.6-.4-1.5-2.2-.5.3c-.6.1-1.1-.7-1.8-.4-.7.3-2.6 1.9-3.5 1.8-.9-.1-2.6.8-3.1 0s-.5-1.5-1.6-.7-2.1 1.6-5.5-1c0 0-1-.8-2.9.4-1.9 1.2-2.4 1.9-3.6 2.3-1.2.4-4.4 4.3-11.6 3.2 0 0-3.7.1-4.3-.8-.7-.9-4.4-2.5-3.7-3.5.6-1 .8-2.2.5-2.3-.3 0-1-.6-.2-1.2.7-.5 2.2-2.6.1-2.7-2.1 0-2.7 1.1-4.2 1.1s-3.4-1.2-3.6-2.2c-.2-1 .1-1.3.3-1.8.1-.5-1.1-1.9-1.4-2-.3-.1-3 1.9-3.5 2.2-.5.3-3.1 1-4.2.6-1-.4-2.5-.8-2.8-1.1-.3-.3-1.6-1.2-1.2-1.6.5-.4.9-1.3.9-1.3s1.4-3.8.6-4.1c-.7-.3-1.4-1.7-2.3-1.2-.9.5-1.6 1.2-2.6 1.2s-2.4-.6-3.5 0-1.6 1.8-2.3 2c-.7.2-2.1 1.4-2.2 2-.1.6-1.1 2.1-.6 2.9.5.7 1.8 2.9 2 3.6.2.7 1.6.7 2.8 1.3 1.2.6 3 1.9 3.1 3.1.2 1.2-1.2 3.4-1.1 4.5.1 1.1 1.3 1.2 1.3 1.7s-.5 1.9 0 2.4 2.2 2.4 1.8 3.2c-.4.8-1.3 6-2 6.1-.7.1-2.3.3-3 1.2-.6.9-3.1 4.5-1.9 5.9 1.2 1.4 3.3.1 3.1 1.8-.2 1.7-.5 3.1-.7 3.6-.3.5-1.3 3.5-1.3 4.1 0 .6-.9 1.2-1.4.9-.5-.3-1.8.9-.8 1.9 1 1 3 .4 3.5 1.4.6 1 2.7.4 3.4 1.3.7.9 2 1.3 2.8.9.7-.4 1.2-1.3 1.7-.7.5.6.7-.6 1.4.7.6 1.3 1.7.7 1.2 2.5s-.7 3.8.1 4.6c.8.8 2.5.9 2.7 1.4.2.5.7 2.1 1.6 2 .8-.1 3.5-2.1 3.6-.9s.4 2.4.7 2.9c.4.4.9 4.4 0 5.3a7 7 0 0 0-2.1 4.2c-.4 2.1-1.2 8.8-1.4 10-.2 1.2-.9 4.8-1.3 5.9-.4 1.1-1.8 4.6-1.4 5.5.5.8 2.1.2 2.2.9s-.2 1.4-.6 2.1a87 87 0 0 0-4.9 17.8c0 4.2-.3 15.2 2.6 22.4 2.9 7.2 2.3 7.6 3.3 8 1 .4.9-1.5 1.2-1.9.3-.5 1.9.6 1.3 1.5-.6.8-2.1 1.5-2.5 1.8-.4.3-1.1.5-1.3 2.4-.2 1.9.1 2.8-.1 3.5-.1.2 0 .8 0 1.6l3.3-1s6.2-1.9 8.6-1.3l10.3 2.7 1.1-4.7-.3-1.4.9-1 1.4-9.8.6-2 1-1.2h.4v-1.8l-2.8-1.4 4.3-2.4 2.8 1.7 1.9-2.1-1.2-1.3 1.8-1.4-.7-1.3-2 1-.5-.3-.8.2-1.8-3.3.5-2.5 2.3-1.2 1.4.3 1-1.3 3.1-1 1.3-2.5 2-1.3 3.9-6.4v-2.2l-.5-2-.5-.9 3-2v-2.4l3.1-2.4 2.6-.6v-2.1l1.2-1.8 1.5-.4 1.5-2.1-.1-1.4.6-.9h.9l1.1-.5.6-1.1 1.7-3.2-1-1.6-.6-2.9.1-4 .8-1.5 1-.8h2.4c.2.1 2.8-.9 2.8-.9l-.4-2.1-1.9-.6-2.6.1v1.2l-.6.4-1.1-2.6.6-1.2-.9-.7.1-1.3 1.3-.6 1.5-.6-1.1-1 .6-2.7v-1l-.7-.6-.5-2.7-.6-5.2-.5-.6-1.4-2.6-1.2-5.4-1.2-2.3-.2-2.4 1-3.1 1.7-.4.8-3.5.2-.2"/>
</g>
<g id="text">
<path class="frames" d="M520 348.9c-.1-.1-.1 0-.2 0h.2zM645.8 395.9l39.9 10.9M542.1 381.7l24.6 17.6M559.6 338.4l29.2-.4"/>
<text transform="translate(656.9 81.8)" class="st5 st6">
        N1
      </text>
<text transform="translate(683.6 130)" class="st7 st8">
        N2
      </text>
<text transform="translate(769.2 117.7)" class="st7 st8">
        N3
      </text>
<text transform="translate(779.4 190.5)" class="st7 st8">
        N4
      </text>
<text transform="translate(690.4 185.5)" class="st7 st8">
        N5
      </text>
<text transform="translate(662.3 167.1)" class="st7 st8">
        N6
      </text>
<text transform="translate(659.4 226.2)" class="st7 st8">
        N7
      </text>
<text transform="translate(641 241.7)" class="st7 st8">
        N8
      </text>
<text transform="translate(633.5 270.3)" class="st7 st8">
        N9
      </text>
<text transform="translate(708.1 248.6)" class="st7 st8">
        N11
      </text>
<text transform="translate(701.2 289.7)" class="st7 st8">
        N10
      </text>
<text transform="translate(779.4 255.6)" class="st7 st8">
        N12
      </text>
<text transform="translate(778 374.8)" class="st7 st8">
        N14
      </text>
<text transform="translate(756.5 337.9)" class="st7 st8">
        N13
      </text>
<text transform="translate(731.4 329)" class="st7 st8">
        N15
      </text>
<text transform="translate(649.2 299.3)" class="st7 st8">
        N16
      </text>
<text transform="translate(700 362.2)" class="st7 st8">
        N17
      </text>
<text transform="translate(721.6 444.2)" class="st7 st8">
        N18
      </text>
<text transform="translate(719.3 513.7)" class="st7 st8">
        N19
      </text>
<text transform="translate(821.5 479.4)" class="st7 st8">
        N20
      </text>
<text transform="translate(715 577.1)" class="st7 st8">
        N21
      </text>
<text transform="translate(485 196.5)" class="st7 st8">
        N22
      </text>
<text transform="translate(484.4 259.5)" class="st7 st8">
        N23
      </text>
<text transform="translate(521.2 231.4)" class="st7 st8">
        N24
      </text>
<text transform="translate(545.5 228.8)" class="st7 st8">
        N25
      </text>
<text transform="translate(561.7 241.3)" class="st9 st5 st6">
        N26
      </text>
<text transform="translate(569.8 239.2)" class="st7 st8">
        N26
      </text>
<text transform="translate(561.3 288.5)" class="st7 st8">
        N30
      </text>
<text transform="translate(544.8 300.3)" class="st7 st8">
        N32
      </text>
<text transform="translate(523.3 270.3)" class="st7 st8">
        N33
      </text>
<text transform="translate(542.7 260.7)" class="st7 st8">
        N29
      </text>
<text transform="translate(583.7 261)" class="st7 st8">
        N27
      </text>
<text transform="translate(561.3 252.7)" class="st7 st8">
        N28
      </text>
<text transform="translate(544.7 276.9)" class="st7 st8">
        N31
      </text>
<text transform="translate(503.5 314)" class="st7 st8">
        N34
      </text>
<text transform="translate(537.6 322.6)" class="st7 st8">
        N35
      </text>
<text transform="translate(529.8 357)" class="st7 st8">
        N36
      </text>
<text transform="translate(513 400)" class="st7 st8">
        N37
      </text>
<text transform="translate(462.6 380.9)" class="st7 st8">
        N38
      </text>
<text transform="translate(451.9 337.9)" class="st7 st8">
        N39
      </text>
<text transform="translate(432.3 258.2)" class="st7 st8">
        N40
      </text>
</g>
</svg>