<svg xmlns="http://www.w3.org/2000/svg" version="1.1" viewbox="0 0 1240 640" preserveaspectratio="xMidYMid slice" id="svgP">
<g id="P41" class="small-box bn">
<path class="st1" d="M816.2 84l-.4 5.2-3.1-.3-1-5.3v-4.8l-4.6-.7-5.2-1.4-6.3 2.1-3.1-3.5-1.4-5.3-10.1-1.7-6 .7-6.6-5.2-.7 12.9-3.1-2.5-3.8-2.8-5.3 2.5-2.8 1-3.1-1-1.1-2.8-7.3-1.1-4.2 2.5-5.5-3.5-4.9-1.1-2.5 3.9-1 4.2-2.1-2.1-1-2.8-1.4-1.1-4.2-1-6.3 3.1.7 4.6-3.1-1.4-3.2-2.5 1.1-2.4-2.1.7-7 2.1-8.4-1.8-8-1-5.2-5.2-2.5-5.3-9.7-4.2-3.9-1-5.9 1-1.7-4.1-1.4-3.2-3.5-.3-1.8 3.5-3.5 1-5.5-4.2-5.3-1.4-1 5.9-3.5 5.3-4.2 2.8-12.2-2.8-13.9-1.1v3.5l1.6 4.3 14.9 6.7 11.4 7.9 9.9 21.9 4.4 21 2.2 27.7 6.3-.2 2.5.5 16.8-11.7 4.2 3.8 4.3-3.4 12.7 1.9 10.8.3 5.5.4 3.4.6 2.9 2.8-1.7 2.1-2.3.2-4.4 2.3 2.9 1.9 14.4-1.2 4.9 2.7 4.9 1.7-.9-3.8.9-1.5 6.8-.2 1.2 11.9 12.7-.2 2.4.6 2.5-1.5h2.1l1.5.6 3.4-.4 1.1-3.4 2.5-2.5 1.1-2.3 9.1-3.2-3.9-2.6.5-2.7 2.9-2.3 1.1-2.2 3.4-2.1 9.1 4.3h3.6l-6.6 23.3h6l4-7 6.1-5.1 8.1-1.5 3.4-3.4 6.6 3.2 2.4-68.6z"/>
</g>
<g id="P42" class="small-box bn">
<path class="st1" d="M806.6 151l-8.1 1.5-6.1 5.1-4 7h-6l6.6-23.3h-3.6l-9.1-4.3-3.4 2.1-1.1 2.2-2.9 2.3-.5 2.7 3.9 2.6-9.1 3.2-1.1 2.3-2.5 2.5-1.1 3.4-3.4.4-1.5-.6h-2.1l-2.5 1.5-2.4-.6-12.7.2-1.2-11.9-6.8.2-.9 1.5.9 3.8-4.9-1.7-4.9-2.7-14.4 1.2-2.9-1.9 4.4-2.3 2.3-.2 1.7-2.1-2.9-2.8-3.4-.6-5.5-.4-10.8-.3-12.7-1.9-4.3 3.4-4.2-3.8-16.8 11.7-2.5-.5-6.3.2.7 9.5 3.2 28.6-2.5 25.3 3.6.4 5.8-.2 9.3-4.2-1.3-2.6-2.3-1.5-.5-1.7 3.2-.2v-2.7l2.1-.4.9-1.5 3 .8 2.3 7.9-.4 2.3 4.2 1.7.2 2.5 1.1 3.2 2.1 1.3 2.1 2.7-2.7 5.5.6 2.2.2 2.9 4.2 1.1 2.8-5.1 3.2-3.8 5.5 1 2.3 1.5 1.9 2.8 2.3.6.3-2.5-.3-3.6 2.8-3.4 1.3 1.9-.2 3.6.6.8 2.7.7 2.6-2.8.2-3.4 2.5-1 1.5 1.5-2.1 4.6 4.9-.2-.9-7 1.3.4 1.7 2.2 2.5.4.5-1.9 3.6-3.4-1.9-3.8-2.2 1.2.7 3-1.3.6-1.7-1.4-4.9 1.9v-4.1l-.8-2.5 1-.9 2.8 2.2.2-4.1-1.5-5.3 3.2-2.3 2.3.9 2.4 1.4-.7.7-2.3.4-.4 1.5h3.2l1.4-.9 1.1 1.5-.6 1.9 1 1.9 2.1-1.9 2.4 1.1 2.5 2.3.4 1.7h3l1.5-4.4 3.4 1.4 1.7 3.7.4 3.6 4.9 1.6 2.9-2.1 1.9 1.5 1.3.4 1.7 1.5 2.8 1.1 1.4 1.7 1.5 2.3 7 .6 2.3 2.8h2.4l5.5 1.1 1.3-2.4 1.2-1.7.9.2.4-3.1 3.8-2.2 4 1.9.9 1.5 6.8-.4.8-1.1 3.2-.2 2.5 1.5.9 1.9 3.8.5 1.3-1.1 2.7-.2 1.7 3.2 3.1 3.9 2.9-82.1-6.6-3.2z"/>
</g>
<g id="P43" class="small-box dap">
<path class="st1" d="M671.9 226.8l2.7-5.5-2.1-2.7-2.1-1.3-1.1-3.2-.2-2.5-4.2-1.7.4-2.3-2.3-7.9-3-.8-.9 1.5-2.1.4v2.7l-3.2.2.5 1.7 2.3 1.5 1.3 2.6-9.3 4.2-5.8.2-3.6-.4-1.3 13.8-14.7 35.5-1.5 6.7 5 14.3.6.3 6.6-3.5 1.9-5.3 1.5-6.1 2.8-.4 8 .6 5.3-1.2.7-2.6-2.2-3.4-3.6-4.9v-2.5l6.2-5.3 3.8.4 2.3 5.7 1.3 2.6 5.1.6 3.2-3.8-.3-2.1-2.3-.4-4.6-1.7-.5-3.2 3.6-3 1.5-1.9-3.4-5.9v-3l1.5-2.9 5.3.8 1.7.2-.2-2.9z"/>
</g>
<g id="P44" class="small-box pkr">
<path class="st1" d="M808.9 225.8l-2.7.2-1.3 1.1-3.8-.5-.9-1.9-2.5-1.5-3.2.2-.8 1.1-6.8.4-.9-1.5-4-1.9-3.8 2.2-.4 3.1-.9-.2-1.2 1.7-1.3 2.4-5.5-1.1h-2.4l-2.3-2.8-7-.6-1.5-2.3-1.4-1.7-2.8-1.1-1.7-1.5-1.3-.4-1.9-1.5-2.9 2.1-4.9-1.6-.4-3.6-1.7-3.7-3.4-1.4-1.5 4.4h-3l-.4-1.7-2.5-2.3-2.4-1.1-2.1 1.9-1-1.9.6-1.9-1.1-1.5-1.4.9h-3.2l.4-1.5 2.3-.4.7-.7-2.4-1.4-2.3-.9-3.2 2.3 1.5 5.3-.2 4.1-2.8-2.2-1 .9.8 2.5v4.1l4.9-1.9 1.7 1.4 1.3-.6-.7-3 2.2-1.2 1.9 3.8-3.6 3.4-.5 1.9-2.5-.4-1.7-2.2-1.3-.4.9 7-4.9.2 2.1-4.6-1.5-1.5-2.5 1-.2 3.4-2.6 2.8-2.7-.7-.6-.8.2-3.6-1.3-1.9-2.8 3.4.3 3.6-.3 2.5-2.3-.6-1.9-2.8-2.3-1.5-5.5-1-3.2 3.8-2.8 5.1-4.2-1.1-1.7-.2-5.3-.8-1.5 2.9v3l3.4 5.9-1.5 1.9-3.6 3 .5 3.2 4.6 1.7 2.3.4.3 2.1-3.2 3.8-5.1-.6-1.3-2.6-2.3-5.7-3.8-.4-6.2 5.3v2.5l3.6 4.9 2.2 3.4-.7 2.6.2-.1 1.9.9.7 2.5 2.5 3.8 4.3 2.4-4.1 9.7 15.7 8.7-2.1.2-.2 1.1.4 1.7-.6.6-.2 1.3.8.8 3.4.2 19.3 7 5.3.5 11.1-4.2-.1-.3 3.8-1.3 8.9 1.1 4.6-2.6 2.4-2.3 3.2 2.3 1.4 2.4 3.2-1.5 6.2.8 3.1-26 2.6 2.3h2.3l2.1 1.5h2.8l1 1.1 2.4-1.5 4-.7 5.1-2.5 2.1 3 3.6.8 1.9 1.1.6 2.7 3.4 2.6.7 3.1 6.7.3 3.6-.7 3.9 1.5 4.2-2.3 3.6 1.2 6.5 1.9 2.1-60.4-3.1-3.9z"/>
</g>
<g id="P45" class="small-box dap">
<path class="st1" d="M811.3 301.6l.3-8.3-6.5-1.9-3.6-1.2-4.2 2.3-3.9-1.5-3.6.7-6.7-.3-.7-3.1-3.4-2.6-.6-2.7-1.9-1.1-3.6-.8-2.1-3-5.1 2.5-4 .7-2.4 1.5-1-1.1h-2.8l-2.1-1.5h-2.3l-2.6-2.3-3.1 26-6.2-.8-3.2 1.5-1.4-2.4-3.2-2.3-2.4 2.3-4.6 2.6-8.9-1.1-3.8 1.3 1.7 4.5 4.4 1-.6 5.7.8 2.4-6.3 17.1 8.7 9.5-.5 5.8 4.1 4 4.6.6.2 2.6 1.1 4 2.3-1.7 1.5 1.5 5.1 1.7 5.7 8 9.3 7.9 3.2 4.2 1.1 6.8 2.1.2 2.5 2.4v-.1l2.8-1.2 4.2.4 4 1 10.6-5.7.2-1.5 2.6-2.1 3 .6 1.2-.2 4.5 1.1 1.5 1.5 1.9-1.1 1.2-1 2.2 1.2 2.5-1.7 2.1 1.3 4 .4 4.3 3.2 1.2 1.9 3.4 3.4.7-.4 2 2.3z"/>
</g>
<g id="P46" class="small-box dap">
<path class="st1" d="M695.4 309l-19.3-7-3.4-.2-.8-.8.2-1.3.6-.6-.4-1.7.2-1.1 2.1-.2-15.7-8.7 4.1-9.7-4.3-2.4-2.5-3.8-.7-2.5-1.9-.9-5.5 1.3-8-.6-2.8.4-1.5 6.1-1.9 5.3-6.6 3.5 3.2 1.6-.6 2.6 6.7 19 6.3 1.3 10.2 12.7 6.7 6.4 10.1 5.7h5.5l-2.6 3.2-2.9 12.7-1.9 5.1 2.3 8.2 3.5 1 5.4 12.7 5.4 23.5 3.8 3.8-.3 2.9-11.2 11.1-3.8 6-1.9.7 1.3 3.1 4.8 1 3.8 9.8 9.8 25.8 2.2 15.2v4.5l5.8 5.4.4.8 2.4-.4 9.1-3.2 6.6-.4 9.7-9.1 3.4-3.2h2.6l1.2-1.9.9-5.5 6.1-2.5 3 2.9 4.7.2.2 2.4-1.1 2.7h3.4l-3.6 2.6 1.1 1.2 3.1-1 .5 2.1-.5 2.3h3.4l.2 4.7 3.2.2.9-1.1-.2-1.4 4.8-1.5 3.2 1 1.5-1.9 1-2.5 2.2.8-.3-4.8 2.2-3.2 7.8.4 1.1 2.3 3.8 3.2.4 3.2 1.9 1.5 4.5 1.2 3.1-4.4 1.3-4.5 2.5-3.8-.6-5.7-1.9-3.2 1.9-2.1v-4l-3-.9-5 .3-3.6 1.2-2.2-1-5.3.2-2.5-2.6 7.4-8.4-9.3-4.7-2.5.6-5.6-4.8-2.5.4-4.7-4-5-21.6 6.5-15-2.5-2.4-2.1-.2-1.1-6.8-3.2-4.2-9.3-7.9-5.7-8-5.1-1.7-1.5-1.5-2.3 1.7-1.1-4-.2-2.6-4.6-.6-4.1-4 .5-5.8-8.7-9.5 6.3-17.1-.8-2.4.6-5.7-4.4-1-1.6-4.2-11.1 4.2z"/>
</g>
<g id="P47" class="small-box pkr">
<path class="st1" d="M822.8 396.5l-2-2.3-.7.4-3.4-3.4-1.2-1.9-4.3-3.2-4-.4-2.1-1.3-2.5 1.7-2.2-1.2-1.2 1-1.9 1.1-1.5-1.5-4.5-1.1-1.2.2-3-.6-2.6 2.1-.2 1.5-10.6 5.7-4-1-4.2-.4-2.8 1.2-6.5 15.1 5 21.6 4.7 4 2.5-.4 5.6 4.8 2.5-.6 9.3 4.7-7.4 8.4 2.5 2.6 5.3-.2 2.2 1 3.6-1.2 5-.3 3 .9v4l-1.9 2.1 1.9 3.2.6 5.7-2.5 3.8-1.3 4.5-3.1 4.4-4.5-1.2-1.9-1.5-.4-3.2-3.8-3.2-1.1-2.3-7.8-.4-2.2 3.2.3 4.8-2.2-.8-1 2.5-1.5 1.9-3.2-1-4.8 1.5.2 1.4-.9 1.1-3.2-.2-.2-4.7h-3.4l.5-2.3-.5-2.1-3.1 1-1.1-1.2 3.6-2.6h-3.4l1.1-2.7-.2-2.4-4.7-.2-3-2.9-6.1 2.5-.9 5.5-1.2 1.9h-2.6l-3.4 3.2-9.7 9.1-6.6.4-9.1 3.2-2.4.4.2.4-7 .4-3.2 3.8-1.6 17.1-.3 2.9.3 2.9-2.2 8.9.7 4.4 7.9 4.1 4.8 3.8 6-2.5 7-4.1 8.6 4.4-4.8-.3-4.8-.9-7.3 3.8-2.8 2.2-11.2-1.6-9.8 9.2-5.4 8.6-3.8 6-2.2 7-7 6.7-4.2 9.2 5.4 2.2 5.8 4.5 18.7-2.6 87.4-9.8 5.7-11.8 9.2-1.6 5.1-1.9 25.4 6.4 13.1 1.6 10.4-5.1z"/>
</g>
<g id="P48" class="small-box dap">
<path class="st1" d="M475.3 163.2l1.7.6-.9 2.8-1.3 3.4-1.2 2.7 1.4 2.6 1.5 1.7-2.1 4.6-2.5 1.9v3.8l1.7 3.6.4 4.9 1.5 1.9.8 5.5 1.3 4.3-.2 3.1.8 1.3-2.3 1.1.2 4.8 4-.6 3.2 1.9-7.4 3.2v7l1.7 2.1-5.3 4.7-1.3 4.6-2.5.9-.4 2.7 5 5.7 1.3 3.9 2.1 6.3 1.5-3 .9-2.7 1.7 1.9 5.2 2.8-2.5 1.9 3.4 2.7 4.4.4.7-2.9-2.1-4.9 3.8-6.1 3.4-3.2 2.7.8.9-3.2h2.1l.4-4.2 10.6-3.2 3.8-1.7 6.4-3.6 4 1.7 4.9-.8 5 .8 3-3.8 1.9-1.9 2.6.4 2.1.5-1.7-5.1.2-6.8-.2-4.2 1.5-.3 2.9 3.2 5.5 4.1 5.5 3.1h3l1.5-9.9-.2-6.2 3-5.4-4.9-3.3-9.6-10.8-.6-14.6 1-8.9-6.7-.9-2.2-2.2-6.7.3-2.9-3.5-6.6.3-7.3 1.3-4.2-1.6v-6.7l-3.8-3.8-4.1-1.6-4.8 1.3-8.6-6.1-5.7.7-5.1 7.6-7.3 4.4-6.6 8h-.3l1.8 2.3z"/>
</g>
<g id="P49" class="small-box dap">
<path class="st1" d="M596.4 211.2l-10.8-2.9-11.1-2.8-6.2-4.1-3 5.4.2 6.2-1.4 9.6 3.9.1 6.6.2-.6 1.9-2.6 1.5v1.9l3.6.2-2.1 3.4 1.3 2.1 4.4.8.2-1 1.1-1.2 5.9 1.9 2.2-2.1 2.9-6.2 5.5-4.2 2.1-4.7.3-2.5z"/>
</g>
<g id="P50" class="small-box dap">
<path class="st1" d="M574.2 233.9l-1.3-2.1 2.1-3.4-3.6-.2v-1.9l2.6-1.5.6-1.9-6.6-.2-3.9-.1-.1.3h-3l-5.5-3.1-5.5-4.1-2.9-3.2-1.5.3.2 4.2-.2 6.8 1.5 4.4 1.5 3.8-2.2 11.5 6 14.6 1.7 3 10 .7-.3-1.2 1.9-6.7 2.1-4.5 1.5-3-.4-1.7 3.8-6.3 2.8-1.9-1.1 3-3 5.5.2 1.9 1.5-1.1 1.7-3 3.2-5.5.4-1.7.2-.9z"/>
</g>
<g id="P51" class="small-box dap">
<path class="st1" d="M564.1 261.8l-10-.7-1.7-3-6-14.6 2.2-11.5-1.5-3.8.2.7-2.1-.5-2.6-.4-1.9 1.9-3 3.8-5-.8-4.9.8-4-1.7-6.4 3.6-3.8 1.7-10.6 3.2-.4 4.2h-2.1l-.9 3.2-2.7-.8-3.4 3.2-3.8 6.1 1.7 4.1 2.3-.3.8 2.8 1.1 1 .4 3.6-1.3 1.7-1 2.4-.6.4-.5 1.2-.6 2 1.9.6 1.5 1.7.2 16.3h2.3l2.8 1.5.2 3.8 2.7 2.5 2.6 4.1 1.5 1 1.4 3.2 1.5 1.3h1.7l3 4.2 1.7 4.3 3.2-1.1-.5-3.2v-3l4.9-4.8-1.5-2.4 4.1-6.5-13.2-15.1 11.5-13.5 4.8.8 2.8-2.3 3.6.6 3 1.1 4.2-.9 4 1.7 2.3 3.4 4.9.2 1.3-.2 1 3.2h5.7l.3-9.3 1.7-3.4z"/>
</g>
<g id="P52" class="small-box pkr">
<path class="st1" d="M563.1 277.8h-5.6l-1.1-3.2-1.3.2-4.9-.2-2.3-3.4-4-1.7-4.2.8-3-1.1-3.6-.6-2.8 2.3-4.9-.8-11.4 13.6 13.1 15-4 6.6 1.5 2.3-4.9 4.9v3l.4 3.2-7 2.5-1.5 3.2-2.5-.8-1.9-.4-7.8 3.8-8.7 2.1-.2 1.3 1.5 1.3.2 1.5-2.1 1.7 1.3 3.2 1.3 2.1 6.4-1.1 3.4 2.5 1.3 1.1v3.8l3 3.2 1.9 2.1.4 1.9 1.3 1.9-1.1 2.8-4.4.8-3.2-.6-1.3 4.7-7.1 14.5L506 386l2.1 5.7 4.9 3.4.8 9.1 3.8-.4 2.8 1.3s3.6 0 4-2.3l.4-2.3-.8-3.2 1.3-9.1 8.3-8.9v-8.5l4.2-4.9 2.3-14.4 3.6-3.8 1.7-8.5 3-9.7 5.7-8.7 4-8.3 2.5-9.3.8-6.6.6-5.7 2.5-2.1-1.7-7.4.3-3.6zM516.4 413.6l-2.4.6-1 1.1h-.9l-1-1.1-1.5-.4-1.9.8.2 2.8 1.5 2.3 2.9-1.7 1.5 1.5 1.1 1.5 1.5-1.1v-2.3zM572.5 316.6l.4-2.6-1.7-.6h-1.7l-1 2.3-2.6 1.1-2.3 2.3-1.3 3.2-1.5 3.4h-1.2l-.7 1.7.2 1.9-3.3 4.2-.5 3.8-2.3 3.4.2 4.7.4 3.6.9 4.2 2.3.9 1.9-1.5 2.1-5.5-1-5.1 2.5-3.2 3.6-1.9 4.3.4 3.8-2.9.2-2.2.2-2.5.4-2.1 1.1-3.4-.7-2.6-1.7-2.7z"/>
</g>
<g id="P53" class="small-box pkr">
<path class="st1" d="M512.3 311.3h-1.7l-1.5-1.3-1.4-3.2-1.5-1-2.6-4.1-2.7-2.5-.2-3.8-2.8-1.5h-2.3l-.2-16.3-1.5-1.7-1.9-.6.6-2 .5-1.2.6-.4 1-2.4 1.3-1.7-.4-3.6-1.1-1-.8-2.8-2.3.3.4.8-.7 2.9-4.4-.4-3.4-2.7 2.5-1.9-5.2-2.8-1.7-1.9-.9 2.7-1.5 3-2.1-6.3-1.3-3.9-5-5.7.4-2.7 2.5-.9 1.3-4.6 5.3-4.7-1.7-2.1v-7l7.4-3.2-3.2-1.9-4 .6-.2-4.8 2.3-1.1-.8-1.3.2-3.1-1.3-4.3-.8-5.5-1.5-1.9-.4-4.9-1.7-3.6v-3.8l2.5-1.9 2.1-4.6-1.5-1.7-1.4-2.6 1.2-2.7 1.3-3.4.9-2.8-1.7-.6-2.2.4-1.8-2.3-4.2-.6-3.8 2.8-2.6-2.2-3.4 2.2-4.2-2.2-9.2 5.1-7.9 1.2-6.1-3.8.3-2.2-.3-4.1-3.8 1.2-3.8-3.4-.6-2.3-6.1 2.3-4.7-1.6.3-4.2-1-3.8-4.1 1.9-5.1.7-4.4 5 1.2 4.8 6.4 1.3.6 3.5 1.6 9.2.3 4.1-1.2 2.6-3.9 2.5-.9 5.1 2.5 2.2-1.9 8.6.3 3.5 8.3 1.6 1.8.3 1.7 1.7-.4 4.6 1.9.9 2.3 2.5 1.9-.2.7 3.6-2.4 9.3-4.6 18.1.4 2.3 6.1 1.5-6.7 1.5-1.7 4.2-1.3 4.9-1.1 4.8.5 4.3-.7 3.1 3 12.3 2.3 8.3 2.1 6.8 1.1 4.4.8 9.1.5 15.1.6 5.7.4 6.1 1.7 4.7-.8 4-2.1-.2v-1.5l-3.4-.6-4.9 1.7-4 5.1 1.9 5.5-.2 4.8-4.3 6-2.1 4.2-.4 7.4 7.1 5.5 2 4.9 3.8 5.1 1.3-2.1-2.4-7.7 1.5-7.4 9.3-1 8.1 3.6 4-.5 3.2-2.1 7-1.5 6.8 3 2.1-4 .8-3.2h7.9l8 3.4 3 2.1-.2 1.9 2.5 3.2 2.1 2.5h3.6l2.2-4.8h4.4l3.8-2.4.8.6 7.1-14.5 1.2-4.7 3.2.6 4.4-.8 1.1-2.8-1.3-1.9-.4-1.9-1.9-2.1-3-3.2v-3.8l-1.2-1-3.4-2.6-6.4 1.1-1.2-2.1-1.3-3.2 2.1-1.7-.2-1.5-1.5-1.3.2-1.2 8.7-2.2 7.8-3.8 1.9.4 2.6.9 1.5-3.2 3.8-1.4-1.7-4.3z"/>
<path class="st1" d="M406.4 338.5l-1.5-.6-.7 1.2 1.1.7z"/>
</g>
<g id="text">
<text transform="matrix(.85 0 0 1 722.8 114.4)" class="st2 st3">
      P41
    </text>
<text transform="matrix(.85 0 0 1 705.8 185)" class="st2 st3">
      P42
    </text>
<text transform="matrix(.85 0 0 1 641.7 244.8)" class="st2 st3">
      P43
    </text>
<text transform="matrix(.85 0 0 1 705.7 268.1)" class="st2 st3">
      P44
    </text>
<text transform="matrix(.85 0 0 1 764.5 326.8)" class="st2 st3">
      P45
    </text>
<text transform="matrix(.85 0 0 1 684.6 343.7)" class="st2 st3">
      P46
    </text>
<text transform="matrix(.85 0 0 1 788.7 510.6)" class="st2 st3">
      P47
    </text>
<text transform="matrix(.85 0 0 1 496.7 185)" class="st2 st3">
      P48
    </text>
<text transform="matrix(.85 0 0 1 573.1 222)" class="st2 st3">
      P49
    </text>
<text transform="matrix(.85 0 0 1 553.8 237.2)" class="st2 st3">
      P50
    </text>
<text transform="matrix(.85 0 0 1 508 255.4)" class="st2 st3">
      P51
    </text>
<text transform="matrix(.85 0 0 1 508.7 336.9)" class="st2 st3">
      P52
    </text>
<text transform="matrix(.85 0 0 1 453.7 284.1)" class="st2 st3">
      P53
    </text>
</g>
</svg>