<svg xmlns="http://www.w3.org/2000/svg" version="1.1" viewbox="0 0 1240 750" preserveaspectratio="xMidYMid slice" id="svgP">
<g id="P54" class="small-box bn">
<path class="st1" d="M738 312.8l-8.6-4.5-3.8-9.6-.9-6.4-13-9.9-2.9 2.9-.9-1.7-4.1-11.6-3.8-1.2s-3.4-11.3-10.5-4.8l-4.8-4.2-6.7-17.7-2.6-3.8v-6.7l1.2-1.7v-3.8c4.6-3.5-2.6-6.4-2.6-6.4l2.3-2.9c5.5-7.2-1.7-8.7-1.7-8.7l-3.5-2.3c1.2-3.8 6.1-7 6.1-7l-3.5-5.8 3.5-1.7 2-2.9-3.8-2-6.7 3.2.3 2.9-2.3.9-4.3-2.6-3.5-.9-4.1 1.2-.3-7-4.3.9-3.2 4.6-5.8-1.2-7.2-2.3-2.3-4.6-2.9-4.6-3.8-3.2-11.6-9.3-8.7.6-1.5.9-3.5-3.2-4.1 1.7-2 1.7-5.8-1.7-5.5-.6-.6-2.9-.3-.4c.5-1.5.9-3.3 1.6-4.3l.1-.1c.2-.3.5-.7.8-1 1.3-1.6 1.7-2.7 1.3-4.7-.3-1.6-2.6-1-2.6-2.5 0-.9.5-3.2 0-3.7 2.6-1.8 4.9-2.4 2.1-5.2-7.7-7.8-3.7-5.8-4.3-9.1 3.4-.1 5.4-.9 6.1-3.4.4-1.6-3.3-3.8-.8-5 1.2-.6 3.9 1.3 4.8.5 3.2-2.8 2.2-8.6 5.3-11.4-1.4-.9-.7-2.7-1.5-3.8 2.9-1.1 2.4-4.1 1.8-6.9-.5-2.2-2.3-3.2-4.4-3.3-1.2-.1-1.2-2.1-2.3-2.8 1.3.3.1-2 1.5-1.5-3.3-.7-5.8-5.2-4.1-7.2 1.2-1.5 5.6-1.8 6.9-1.8 6.7 0 6.8-3.4 6.8-3.4 2.4 2.5 4.8 3.8 7.7 5.7 2.2 1.5 3.6 7 5.4 8.4 2.1 1.6 5.6-3.7 6.8-.2.7 2 1.8 3.1 3.5 3.1 0 0 2.1 2.4 3.1 2.2l.8 3.4 4.5 2.4.7 3.2s2.4 1.6 2.5 2.7c.2 2 1.8 1.6 2.6 4 1.4 4.4 3.5 8.6 3.5 12.8.2 8.6 10.8.1 12.3-4.6.8-2.4 3.6-1.8 6.1-2.3.6-.1 1.1-.2 1.6-.5.4-.2 3.5-1.4 4-2 1.5-1.6 2.9-2.2 4.2-4.2.5-.7-.9-2.7-.7-3.7.3-2.5 4.4-.3 5.7-2 .7-.9 2.1-1 3.5-1.7.8-.4.2-3.4 1.4-3.8 4.1-1.2 2.1-2.5 1.9-5-.2-2-.9-5.4-2-7-1.5-2.1-.8-2.7.3-4.9 1.1-2.3 2.2-4.2 2.7-7.5.2-3.2 2.3-4.1 4.5-5.7 1.3-1 1.7-1.6 3.5.2 1.1 1.1 2.1-1.2 2.8-1.1l2.2.4s1 4.5 4 2.5c0 0 .5-4.7 5-1.7l1.2.7 2-.7 1-4 3-2.2 4.7.3 2.2-6.2 1.7-1.2 1-6 6.7 1 2-1.5 4.2 2s1.7-.5 5.7.7l2-1.5 2-.7 2.7 1.7 1.5-1.2 2.2 1.5v-4h2.5l3.2-3.2 2.7-2.7 2.7 1 .7-2.7s3.7-4 9.2-3.5c0 0 2.1-.4 4.1-3.7 0 0 2-3 3.7-.2l1.2 3 2.5 2.2 2.7-.7 2.2 1.5s-1 3.5 1.5 4.2c0 0 .7 2.5.7 3.7 0 1.2 1.2 2.2 1.2 2.2l2.7 1.5s2 1.2 3.2.4c1.2-.7 3-1.7 3.5-.5l1.2 2.2-2.2 3.2s1.2-.2 1.2 1.7c0 2-.8 4.2-.8 4.2s1.5 3 .8 4.2l-1 2.7 2-.3 1 2-.5 2.2 1.5 1 .5 2.5 2.7 2.5 1.7-.5s2.2 4 .2 5.5c0 0 1.7-.5.7 4.2 0 0 1 4 1 4.7 0 .7-1.2 2.7-1.2 2.7l.5 1.7.5 3.2.5 1.7-3.2 3.2s-1.1.2-2.3 1.7l-3.2 4.7-1.7.3s-1 1.5-.2 3.7c0 0 .5 1-.5 3.2 0 0 .3 1.7 1 2.5 0 0 .5 1.5-1 3.2 0 0-.5 3.2-.5 4.7l1 1.2 4.5 2.5s3.7 1.2 3.5 2.7c0 0-2.2 4-2 5.5 0 0 .5 2.2-.8 3.2 0 0-1.5.5-1 2.7 0 0-.1.4-.7 1.5-1.7 3.2-4.9 5.1-3.7 8.6 1.3 4 2.2-.4 7.9 2.8 1.5.8 4 3.3 4.5 1.7 2.1-6.3 7.2-2 8.6 1.1 2-1.9 1.1-3.7 3.1-3.1 3.3.9 4.4 6.2 3.3 9.1-.9 2.5-2.3 3.1-4.2 5.6-1.3 1.8 1.4 5.9 2.1 7.7 1.5 3.6-2.8 8.4-.3 12.1 2.1 3.1 2.9 5.6.5 9.1-1.7 2.4-5.4 2.7-7.2 4-2.6 1.9-3.7 4.5-8.2 3.7-1.6 1.1-1.7-1.5-2.6.1-.6 1.1 0 3-1.8 3.6-.7.2-1.8.3-2 0-1-1.7-2.6-2.7-3.7-4.1-2.3-2.9-4.6 1.1-7.1-1.1-.9-.8-1.9-2.2-3.5-3-1.2-.6-2.3 1.3-3.7.6-.5 3.8-3.9 5.4-9.4 5.4-.8 0-1.2.8-1.3 1.1-1.9 4 1 8.6-2.2 11.3-2.3 2-8 3.2-7.1 7.4H762c1.4-1.3-1.2-1.3-.8-2.3-1 1.2-2.2 1.7-3.8 1.5-.1 2.1 1.7 4.1.6 6-.8 1.4-2.6 3-3.5 4.3-1.5 2.1 2.3 4.8 1 7.3-.8 1.6-1.9 5.7-5.2 6.4-1.9.4-1.6 4.7-3 7.9-1.6 3.6-.5 5.4-.4 9.7 0 1.3-3.3 5.9-3.1 6.5.7 2.9 3.8 2.4 2.7 5-.3.9-2.8 2.5-4.5 3.4-.5.3-1.8 2.3-1.9 2.6-.5 2.8.3 2.4 0 5.2-.1.6-.4 4.7-1.1 4.5l-1 7.1z"/>
</g>
<g id="P55" class="small-box bn">
<path class="st1" d="M689.5 266.1l-4.8-4.2-6.7-17.7-2.6-3.8v-6.7l1.2-1.7v-3.8c4.6-3.5-2.6-6.4-2.6-6.4l2.3-2.9c5.5-7.2-1.7-8.7-1.7-8.7l-3.5-2.3c1.2-3.8 6.1-7 6.1-7l-3.5-5.8 3.5-1.7 2-2.9-3.8-2-6.7 3.2.3 2.9-2.3.9-4.3-2.6-3.5-.9-4.1 1.2-.3-7-4.3.9-3.2 4.6-5.8-1.2-7.2-2.3-2.3-4.6-2.9-4.6-3.8-3.2-11.6-9.3-8.7.6-1.5.9-3.5-3.2-4.1 1.7-2 1.7-5.8-1.7-5.5-.6-.6-2.9-.3-.4c-.2.6-.5 1.3-.8 1.8l-1.4 2.6s-1.2 2.2-1.9 2.5c-.6.3-.5-.2-3 .2-2.5.3-1.4.8-3.1-.5-1.7-1.2-3.3-1.2-3.7-.8-.5.5-.9 1.6-1.2 2.2-.3.6.2 1.9.2 1.9l-1.1.8-3.7 5.3 1.8 1.1c-1.7 2.6 0 6.1-.7 9.4 0 .1-.1.3-.1.4l4.9 3.9 4.6-1.4 2.6 2 3.2 11.6 3.5 8.7-2.3 1.4 2.9 10.4s10.1 9.3 2.6 17.1c0 0-6.4 1.2-7.5 5.5l-1.2 2.6-2 .6-4.1 3.2 5.2 7 5.8 6.4v3.5l-2 2.6-1.2 4.1 1.7 4.9s-3.2 15.1-9 17.4h-2s-4.3 7.2.3 11.6l.6 2.9-4.9 2.3-.6 3.5-1.4.9 1.2 5.5v.3l6.4-3.5s2.6-.6 9.6-1.7c6.3-1.1 9.8 1.9 10.3 2.5l.1.1 9-1.4 2.3 2.9 7.5.3 5.5-9.3 2.9-7h2.9l.6-5.8 2.3-1.7 6.7-8.1 2.9 2.6 3.5-2.3 5.2 3.2 5.2.9 12.5-11.9.9 3.2 2.9.3c2.9-1.7 7.8-15.1 7.8-15.1 17.4 4.3 20.9-8.1 20.9-8.1l-2-2z"/>
</g>
<g id="P56" class="small-box bn">
<path class="st1" d="M576 251.2l1.2-2.6c1.2-4.4 7.5-5.5 7.5-5.5 7.5-7.8-2.6-17.1-2.6-17.1l-2.9-10.4 2.3-1.4-3.5-8.7-3.2-11.6-2.6-2-4.6 1.4-4.9-3.9c-.1.2-.1.4-.2.6-.1.2-.2.4-.3.7 0 0-4.9 4.5-2.9 6.5 0 0 3 0-.5 4.2l-1.7 3.2.5 4.5-1.7 5-4.5 2.7s-4 2.2-3.5 3.5l-6.2.5-4.5 1.2s-3.2-.7-7-.5h-3.5l-3.7 2.2 1 2.7-2 1.2s-2 5.5-.7 8l-2.5 2.7s-1.7 2-3.5 2.2l-3.5 1.2-3 3-.8 2.5c-1.6 3.6-3.4 7-5.4 10.2-2.2 3.5-3.5 5-6.4 8-.9.9-5.5 1.6-5.6 3.1l-1 5.7 3.6 4.3 13.6-.9 8.7 3.8 2 6.1.6 9.6 3.2 13.3-.6 2.9 1.2 2.9-.6 10.7-4.6 7.8s0 .7.1 1.9c0 1.2.1 3 .3 5h1.4l3.2-4.1 3.5.9 1.2-2 3.2 2.9.9 4.3 2.6.6 5.2 7.5 5.8 7.5 9.6-5.5s2.6 0 3.5-.3c.9-.3 2-8.7 2-8.7l1.4-3.2c2.9-3.8-.3-6.7-.3-6.7l3.5-3.8v-4.1l-1.2-5.5 1.4-.9.6-3.5 4.9-2.3-.6-2.9c-4.6-4.4-.3-11.6-.3-11.6h2c5.8-2.3 9-17.4 9-17.4l-1.7-4.9 1.2-4.1 2-2.6v-3.5l-5.8-6.4-5.2-7 4.1-3.2 1.8.1z"/>
</g>
<g id="P57" class="small-box amanah">
<path class="st1" d="M454.6 279.8l-3 .7-2.6-4.1-24.7 3-2.8-2.6s-.4 3.4-3.7 6.4c0 0-8.1 2.3-6.2 6.8l1 4.6 4.4 11.7 1.1.2.4-2.2c.9.6 2.3 5.1 2.3 5.1.6 4.2.6 6.1 4.2 8.7l2.6-1.5.3.6.1.3 3.3-5.8 3.5.6 1.2-4.4 5.2.9 1.2-9.3 2.9-4.3-1.4-2.3 4.1-5.8 6.9-.2v-1.3-.2s-.7-2.2.7-2.2c-.2-.1 3.5-.4-1-3.4z"/>
</g>
<g id="P58" class="small-box bn">
<path class="st1" d="M521.7 316.4l-1.2-2.9.6-2.9-3.2-13.3-.6-9.6-2-6.1-8.7-3.8-13.6.9-3.6-4.3-.1.5-.6 2s-2.8.2-3.7.3c-.9.2 0 .3-2.5 1.2-2.5.9-3 .3-3.4 2.3-.5 2-1.6 4.8-1.6 5.3s-.5 1.1-1.7 1.9c-1.2.8-2.8 3-3.3 3.4-.5.5-5.1 4.7-5.1 2.6 0-2 3.1-3.9.2-4-3-.2-2.5-3.3-4-1.9-1.6 1.4-1.6 4.8-3.4 2.3-1.9-2.5-5.1-1.6-5.3-2-.1-.2-.1-.9-.1-1.5l-6.9.2-4.1 5.8 1.4 2.3-2.9 4.3-1.2 9.3-5.2-.9-1.2 4.4-3.5-.6-3.3 5.8.9 2.3c-.6 2.1.3 9.9.3 9.9.2 1.2 1.5 2.2 1.1 3.9-1.1 1.1 3.3 5.9 3.3 5.9.6 2.4 2.2 2.7 2.2 2.7.4-.5 1.2-1.1 2.2-1.7 2.1-1.3 4.7-2.6 4.7-2.6 2.8-.2 9 3.9 9 3.9l1.3-.9 2.2 2.1c1.9 6 3.4 3.2 3.4 3.2.9-1.1-2.1-3.6-2.1-3.6l1.3-1.5 2.2 1.1c3.6.6-.4-3-.4-3 2.4-4.7 5.8-1.9 5.8-1.9.2 3.9 2.8 4.1 2.8 4.1-3.2.6-3.2-1.3-3.2-1.3.4-3.9-2.6-2.4-2.6-2.4-3 1.1-.6 2.6-.6 2.6 1.7 3.6-1.1 3-1.1 3-3.9-.7-.7 2.2-.7 2.2-1.9 4.3-5.4-.4-5.4-.4-1.5-3.2-4.3-2.2-4.3-2.2l-2.6 1.9c-3.4 1.9-1.9 5.6-1.9 5.6l.9 3.2c0 3.2 7.5 3.7 7.5 3.7 6.2-.7 5.8-4.1 5.8-4.1l2.1-1.1c5.8-.4 2.1-1.7 2.1-1.7-3.7-2.1-2.6-3.6-2.6-3.6 1.9-3.9 6-.4 6-.4.4 2.2 4.1 2.8 4.1 2.8-1.5 1.3-2.4.9-2.4.9-.7-1.1-4.9-4.5-4.9-4.5-2.8 1.1-1.1 2.6-1.1 2.6 5 2.1 3.7 3.2 3.7 3.2.7 2.2-1.5 2.7-1.5 2.7l3 4.2c.6.4.9.8 1 1.2l5-1 2.3 4.9 7 .6 1.7.9s4.9-.9 4.6-2.9c-.3-2-.3-6.1-.3-6.1h2.3l.9-2.3-2-2.6 2.3-2.9 4.9-2.6 1.2.3 6.4-4.9 7.5-2.9 3.2-1.3c0-1.2-.1-1.9-.1-1.9l4.6-7.8.8-10.5z"/>
</g>
<g id="P59" class="small-box bn">
<path class="st1" d="M543.7 419.6l-2.5-4.3 1.4-3.5.2-.1-2.4-2.9-2.9-.6-1.4-3.8c4.9-1.2 5.2-10.1 5.2-10.1 8.1-6.1 2-15.4 2-15.4l.1-3.8-14.8 3.2-2.3-6.7-2.3 1.7.1-3.9-3.5-3.2-4.6 2.6 1.7 3.5-2.2 2.2-2.9-4.6-2.2-7.7 1.9.1-1.9-4.2 3.5-4.6 3.5.7.7-1.2c-.7-3.8-1-7.9-1.3-11.3-.1-2.1-.2-3.8-.3-5l-3.2 1.3-7.5 2.9-6.4 4.9-1.2-.3-4.9 2.6-2.3 2.9 2 2.6-.9 2.3h-2.3s0 4.1.3 6.1-4.6 2.9-4.6 2.9l-1.7-.9-7-.6-2.3-4.9-5 1v.3c.1 1.4-2.5 2.6-2.5 2.6-2.2 4.7 1 6.5 1 6.5 3.5-1.5 7.5-.5 7.5-.5-3.5-.5-7.2 2.2-7.2 2.2-.7 5 5 9.7 5 9.7.7-.7 5.2.5 5.2.5 3 1.7 6.2-2.2 6.2-2.2 2.2-1.2 5.5-1 5.5-1l-.7 2.2-4.2 2.2c-2.1 1.9-.2 3.5 1.8 4.5 1.6.8 3.4 1.2 3.4 1.2-3.7 1-7-1-7-1l-2 1c-1.2.5-5-.7-5-.7-3.2 4-1.5 9.2-1.5 9.2l1.5 3-1.2 1.5c-1.5 5 5 15.5 5 15.5 2.5-1 10.5-4 10.5-4-.2 3.2 4 .7 4 .7.7-1.7 4.2-2.2 4.2-2.2l-1.7 2.2c-1.2 2.5 2.7.2 2.7.2.2 1-3.5 3.5-3.5 3.5-5-.2-5 3.7-5 3.7-1.7 0-4 1.7-4 1.7-2.7-1-6 3.2-6 3.2-2.7 2.2-5 11.2-5 11.2 1 1.7-.8 6-.8 6-2 5.2.8 4.2.8 4.2 2-2.2 7 1.5 7 1.5 4.5 3.5 6.5.7 6.5.7 1.5-2 5.2-1.7 5.2-1.7 4.2-.5 1-5.2 1-5.2-1-6.7 4.7-5.2 4.7-5.2-5.2 1.5-2.5 5.5-2.5 5.5 1 2.5.2 4.5.2 4.5-1 2-3.5 6.5-3.5 6.5-.7 2.2-2.2 2.8-3.3 2.8l1.1 1.8 2.8.6-.1-1.2 27.1 2c2.1-1.6 4.1-4 3.3-7.3l3.7-3.7s3.3-3.5 3.1-4.1c-.2-.6.6-3.7.6-3.7l2.7 1.2 1.7-1.5s.6-5.8 3.3-5.8l.2-2.7 3.9-8.5-1.7-1.7.2-1.8z"/>
</g>
<g id="P60" class="small-box dap">
<path class="st1" d="M538 352.1l-5.2-7.5-2.6-.6-.9-4.3-3.2-2.9-1.2 2-3.5-.9-3.2 4.1h-1.4c.2 3.4.6 7.5 1.3 11.3l-.7 1.2-3.5-.7-3.5 4.6 1.9 4.2-1.9-.1 2.2 7.7 2.9 4.6 2.2-2.2-1.7-3.5 4.6-2.6 3.5 3.2-.1 3.9 2.3-1.7 2.3 6.7 14.8-3.2.5-15.6-5.9-7.7z"/>
</g>
<g id="P61" class="small-box bn">
<path class="st1" d="M595.9 343.1l-.8-3.9 1.4-3.3-1.7-9.3h-1.9l-2.5 1.9-1.7-1 1.3-2.6c-.6-.6-4-3.6-10.3-2.5-7 1.2-9.6 1.7-9.6 1.7l-6.4 3.5v3.8l-3.5 3.8s3.2 2.9.3 6.7l-1.4 3.2s-1.2 8.4-2 8.7c-.9.3-3.5.3-3.5.3l-9.6 5.5-.5 15.6-.1 3.8s6.1 9.3-2 15.4c0 0-.3 9-5.2 10.1l1.4 3.8 2.9.6 2.4 2.9 20.7-8.2-.2-5.6 1.7-.2.6-1.7-1-2.5.4-1 1.4.6 1.9-3.1 1.2-3.7 1.9.2.8-1.9-.8-4.1 1.7-1.9 3.9 3.5-.4 2.1 2.9.4 6.4-1.4.1-5 5.2-8.5-1-4.1-3.9-5.2.4-6.6 2.5-7.2 3.7 1.2 2.5 1.7.8 2.1s3.5.6 3.5-1.4c0-1.9.2-4.3.2-4.3l-4.1-2.9z"/>
</g>
<g id="P62" class="small-box pkr">
<path class="st1" d="M738.1 338.9c-.9-1.7-1.6-2.6-2.8-4.2 1.5-1 1-3.2.5-4-1.6-2.6-6.3-3.2-6.6-6.4-1.1.4-1.7-.1-2.3-.8 1.4-.7 6.4-3.8 6.4-3.8l2.5-.2 2.2-3.5-2.7-2c.3-.2 1.7-.3 1.9-.5l.6-.6-8.6-4.5-3.8-9.6-.9-6.4-13-9.9-2.9 2.9-.9-1.7-4.1-11.6-3.8-1.2s-3.4-11.3-10.5-4.8l1.8 1.6s-3.5 12.5-20.9 8.1c0 0-4.9 13.3-7.8 15.1l-2.9-.3-.9-3.2-12.5 11.9-5.2-.9-5.2-3.2-3.5 2.3-2.9-2.6-6.7 8.1-2.3 1.7-.6 5.8h-2.9l-2.9 7-5.5 9.3-7.5-.3-2.3-2.9-9 1.4-.1-.1-1.3 2.6 1.7 1 2.5-1.9h1.9l1.7 9.3-1.4 3.3.8 3.9 4.1 3.1s-.2 2.3-.2 4.3c0 1.9-3.5 1.4-3.5 1.4l-.8-2.1-2.5-1.7-3.7-1.2-2.5 7.2-.4 6.6 3.9 5.2 1 4.1-5.2 8.5-.1 5 9.8-2.1 2.1-3.9 8.5-1.2 9.5 7 .2 3.7 2.6 2.2 2.2-3.2 2.5 1.2 2 1.3 9.6-3.9 4.2-2 4.3 1.2 7.4-.3.9 1.7s11.3-.3 14.4 7.8l3.2-.7s4.8-1.9 6.4 4.1c0 0 1.7 1.6 3 1.9 1.3.3 2.9-.6 2.9-.6s1.3 2.3.9 4.3l2.6 2.2 2-1 3 2.9v4.8l2.8.6 1.6 3.3 4.5-.7 3-1.1-.4-2.9 2.2-2 .5-3.5c.7-1 2 .2 2 .2-.2.7 1.5 1.5 1.5 1.5 1.5 0 3.2-2.5 3.2-2.5l2 .5c-.5 1 1.3 1.5 2 1.7 1-.5 2.7-4 2.7-4l-.7-5-1.5-3.2-1.7-4.2c.7-.8 7.7-1 7.7-1l-.7-2.7c4.5-6.2 5.7-11.2 5.7-11.2l-4-6.5.8-2.7 2.7-.2c-2-1.7-.3-3.5-.3-3.5 3.7 1.1 6.4-1.5 10.1-.4.1-.3.1-.6.1-.9-.1-1.5-2.2-2.9-2-4.4-.8 0-2 .1-2-.1-1-4.6 4.2-1.9 5.5-4.7.9-1.9 1.1-4.4 1.3-6.5.5-2.1.7-4.3-.2-5.9z"/>
</g>
<g id="P63" class="small-box ppbm">
<path class="st1" d="M710.7 425.9c.3-3.2-2.7-5.7-2.7-5.7-.2-2.7-2.5-3.7-2.5-3.7l-3.3-3.1-.2-.2-.1-.6-3 1.1-4.5.7-1.6-3.3-2.8-.6v-4.8l-3-2.9-2 1-2.6-2.2c.4-2-.9-4.3-.9-4.3s-1.6.9-2.9.6c-1.3-.3-3-1.9-3-1.9-1.6-5.9-6.4-4.1-6.4-4.1l-3.2.7c-3-8.1-14.4-7.8-14.4-7.8l-.9-1.7-7.4.3-4.3-1.2-4.2 2-9.6 3.9-2-1.3-2.5-1.2-2.2 3.2-.2.2-1.4 6.1-3.5 2.2-1.7 4.9 1.7 3.9v1.3l-.7 1.3-2.6-.4-.1 5.8-2.8 2.2-.1 2.7 4.9 3.4s2.3-1.2 2.8-1.2c.4 0 2.2 3 2.2 3l1.9-1.5 2.6 1.7-1.9 2.8-1.9 6.1 2.1 1.4c.5-.9.8-1.7.8-1.7l1.9-.3 2-3.6 1.4-4.3s2.2-3.2 2.9-3.9c.7-.7 4.8-.1 4.8-.1l.9 1.6 2.2.6 5.9-1-.3 7-.7 2.5-2.2 2.2-1.6.4-.3 3 4.3 2.3-.4 1.9c2.2 1.1 3.7 3.5 3.7 3.5l4.2-3.9 3.6 1.2 7.8-6.2 5.1-7s1.7-1 2.5-.6c.7.4.1 1.7.1 1.7l4.8 1.9-1.6 2c1.3 2.3 4.6.3 4.6.3l7.5 4.1 1-1.7 4.1-.1 2.6 2.3 3.2 1.6 1.4 3.5s5.1.3 6.2.7c1.2.4 2.6 2 2.6 2l1.6.4c.3-4.2-1.7-7.2-1.7-7.2l2.5-1.2c1-1.2 1.4-3.7 2.6-3.9.8-.2 1.6-.4 2.3-.5-2.3-2.2 1.3-5.8 1.3-5.8l.3-1.2c-1.9.9-3-1.3-3-1.3z"/>
</g>
<g id="P66" class="small-box dap">
<path class="st1" d="M614.9 441.1h-2.5l1.9-6.4 2 2.3s1.4 2 1.6 1.6c.1-.3 1-2.2 1.8-3.7l-2.1-1.4 1.9-6.1 1.9-2.8-2.6-1.7-1.9 1.5s-1.7-3-2.2-3c-.4 0-2.8 1.2-2.8 1.2l-4.9-3.4v.6l-1.2 1.9-1.6.6-.6 2.2 1.6 2.3-.3 4.2-.9 2.9 1.9 1.6-.6 2.6-4.3 3.8-1.9 8.6-.1.2-4.8 11.2-1.9 1.4 1 1.7-4.1 5.9-3.8 9.6-.3 6.2-1 11.7 10.4.1v7.2l6.3 3.7.2-2.2 3-.6 4.9 1.2.1-3.9-5.5-22.5 3.9-.1.7-.7v-4.5l3.6 2 2 .2c-.6-2.2-1.3-4.6-1.3-4.8 0-.4-3-4.3-3-4.3l-.3-5.4 5.1 2.4 1.3-7.7s-3.6-.9-3-3.3c.6-2.5 3.9-1.2 3.9-1.2l4-10.9-4.3-.1-1.2-1.9z"/>
</g>
<g id="P67" class="small-box bn">
<path class="st1" d="M616 386.8l-.2-3.7-9.5-7-8.5 1.2-2.1 3.9-9.8 2.1-6.4 1.4-2.9-.4.4-2.1-3.9-3.5-1.7 1.9.8 4.1-.8 1.9-1.9-.2-1.2 3.7-1.9 3.1-1.4-.6-.4 1 1 2.5-.6 1.7-1.7.2.2 5.6-20.7 8.2-.2.1-1.4 3.5 2.5 4.3-.2 2.1 1.7 1.7-3.9 8.5-.2 2.7c-2.7 0-3.3 5.8-3.3 5.8l-1.7 1.5-2.7-1.2s-.8 3.1-.6 3.7c.2.6-3.1 4.1-3.1 4.1l-3.7 3.7c.8 3.3-1.2 5.7-3.3 7.3l.7.1 13.9-4.6 22.4-4.8 3.2-.7 9-2.6s5.5 1.6 5.8 3.3l21.5.4.1-.2 1.9-8.6 4.3-3.8.6-2.6-1.9-1.6.9-2.9.3-4.2-1.6-2.3.6-2.2 1.6-.6 1.2-1.9v-.6l.1-2.7 2.8-2.2.1-5.8 2.6.4.7-1.3v-1.3l-1.7-3.9 1.7-4.9 3.5-2.2 1.4-6.1.2-.2-2.6-2.2z"/>
</g>
<g id="P68" class="small-box dap">
<path class="st1" d="M558.4 455.1l-.3-1.9 1.6-3.1-22.4 4.8-13.9 4.6-.7-.1-27.1-2 .1 1.2-2.8-.6-1.1-1.8c-.7.1-1.2-.1-1.2-.1-1 0-1.8.7-2.4 1.8-2.3 4.6-.9 16.1-.9 16.1-.4.9-.5 1.8-.6 2.8-.1 1-.2 2.1-.4 3.1-.7 3-1.1 6-1.6 9.1-.8 4.7-4 2-7.1.8.1 1.1-.4 1.7-1.5 1.5l1.8 8.9-4 10.6-2.3 5.9 2.3 1.5s2-1.3 2 .7.4 2.9.4 2.9h3l2.5-.7-2.6 3.2 2.8 3.5s5.8-.6 5.7-3.3c-.1-2.8-.7-5.8-.7-5.8l4.5.9.6-1.9 4.8-2.2 3 1.6-.6-3.5 5.4-2.5.3 3.6s-2.2 2.3-1.6 4.1c.6 1.7 1.9 1.3 1.9 1.3l3.2.6.9-2 .9 1.2 2.8 8 5.5 3.3-1.5 2 5.9 4.6-3.8 6.4 3.3 2.3-1.3 2-6.1-4.8-1.3 3.3-1.9-.9-1.2 1.5-4.8.9-2.5-1.4-1.3 4.5 2.6 2.6-1.3 2-.7 5.1 2.9.9v-1.6l4.6-.9 3.6 2.5 1.6 3.3 6.2-.3 3 3.3 1.9-2.9-.3-6.2 1.5-3-1-1 2.3-4.1 2.3 1.9 1-1.4-.9-.7.6-1.2 1.8-3.8-.6-1.6.5-.5 7.1-6.5 7.9 5.9-1.5-31.9-.2-3.5-3.9-3.2v-1.2l-.3-31.7 4.5-1.7 2.8 3.2 2.5-3.9 3.5 1 2.6-3.9-1.5-3 1.6-.1-.4-8.4z"/>
</g>
<g id="P69" class="small-box bn">
<path class="st1" d="M604.7 519.1s-2-6.7-3.6-8.7l.1-.8-6.3-3.7v-7.2l-10.4-.1 1-11.7.3-6.2 3.8-9.6 4.1-5.9-1-1.7 1.9-1.4 4.8-11.2-21.5-.4c-.3-1.7-5.8-3.3-5.8-3.3l-9 2.6-3.2.7-1.6 3.1.3 1.9.3 8.3-1.6.1 1.5 3-2.6 3.9-3.5-1-2.5 3.9-2.8-3.2-4.5 1.7.3 31.7v1.2l3.9 3.2.4 3.6 1.5 31.9.1 1.9 23.9-4.6 1.2-2 .9 1 1.7-1-.6-2.8 23.4-6 1.1-2.2 3-1.4-.6-3 1.6-4.6z"/>
</g>
<g id="P70" class="small-box dap">
<path class="st1" d="M696 493.3l-.9-.2-32.8-.1-3.6-5.8 4.3-3.9-4-1.3-11.5 1.2-3.3-.1-.7-2.9-2.3 3-1.7-1.3-1.7-4.8-3.8.4-3.3-7-2.6 1.7s-2.6 3-6.2 2.6l-1.2 1.2.6 2.8-1 2.5-4.9.7s-.5-1.7-1-3.6l-2-.2-3.6-2v4.5l-.7.7-3.9.1 5.5 22.5-.1 3.9-4.9-1.2-3 .6-.2 2.2-.1.8c1.6 2 3.6 8.7 3.6 8.7l-1.6 4.3.6 3-3 1.4-1.1 2.2-.1.2 2.5 4.5 5.9.4 4.5.6 1.6 4.3 7.4.9 7.5.9 4.8-.6 2.2.7 5.2-3.2s5.1 1.7 5.1-4.8c0 0 11.4-2.9 12.4-2.8-.2-.4-.4-2.6-.4-2.6l1.6-1.5-.9-8 1.6-2.9 8.8-1.2v-1.7l2-.1v.9s7.7 1 8.6-1.5l8.4.9 2.3-2.6-.4-2s3.8 0 4.3-1.3c.6-1.3.7-3 .7-3l-1.9-3 1.9-1.7.5-6.4z"/>
</g>
<g id="P71" class="small-box pkr">
<path class="st1" d="M715 461c-1.8-2.7-6.6.2-6.9-3.1-.2-2.9-2.2-5.6-1.7-8.6 0-.2.1-.4.1-.6 0-.1.1-.3.1-.4.1-.4.1-.9.2-1.3l-1.6-.4s-1.5-1.6-2.6-2c-1.2-.4-6.2-.7-6.2-.7l-1.4-3.5-3.2-1.6-2.6-2.3-4.1.1-1 1.7-7.5-4.1s-3.3 2-4.6-.3l1.6-2-4.8-1.9s.6-1.3-.1-1.7c-.7-.4-2.5.6-2.5.6l-5.1 7-7.8 6.2-3.6-1.2-4.2 3.9s-1.5-2.4-3.7-3.5c-1.2-.6-2.6-.8-4.1 0l-4.2 2.3-3.3 1.2-3.9 2.8v2.9l-2.2 2-2.9 10.1s-3.8 3.3-4.2 6.1l-2.5.4.5-2.9-5.1-2.4.3 5.4s3 3.9 3 4.3c0 .2.7 2.6 1.3 4.8.5 1.9 1 3.6 1 3.6l4.9-.7 1-2.5-.6-2.8 1.2-1.2c3.6.4 6.2-2.6 6.2-2.6l2.6-1.7 3.3 7 3.8-.4 1.7 4.8 1.7 1.3 2.3-3 .7 2.9 3.3.1L659 482l4.1 1.3-4.3 3.9 3.6 5.8 32.8.1.9.2v-.1l2.2-2.5 9 8.1 1.2-1.5c-.8-.5-1.3-.9-1.3-.9-.5-2.2-.6-4.1-1.2-6.2-.6-2.1-1.3-3.4-3.2-4-.2-.1-.8.1-1.4.3l-.8.2c-.6-.9-.1-1.4.2-2.4 1.1-4.3 3.4-3.3 5.8-4.7 2.4-1.4 1.8-5.2 1.8-5.2 1.7-1.5 2.2-3.5 2.2-3.5l-2.5-2.2c.3-1.5 5.7-.2 5.7-.2s2.2-1.7 3.2-2.5c.7-.7-2-5-2-5z"/>
</g>
<g id="P65" class="small-box dap">
<path class="st1" d="M618 438.6l-3.6-3.9-1.9 6.4h2.5l1.6 2 4.3.1.4-1V440l2.5-2.8 1.8 1.6v1.5h1.4l1.8-1.5 2.6-1.6 1.3-5.8-.1-2.6 5.8 1.5 4.2-1.6.3-7-5.9 1-2.2-.6-.9-1.6-1.9-.2s-2.4-.4-3.1.6l-2.7 3.8-1.5 4.4-2 3.5-1.9.3-2.8 5.7z"/>
</g>
<g id="P64" class="small-box dap">
<path class="st1" d="M637.9 434.1l1.6-.4 2.2-2.2.7-2.5-4.2 1.6-5.8-1.4v2.9l-.7 3.6-.4 1.7-2.6 1.6-1.6 1.5h-1.6l.1-1.5-1.9-1.7-2.5 2.8v2.2l-.4 1-4 10.9s-3.3-1.3-3.9 1.2c-.6 2.5 3 3.3 3 3.3l-1.3 7.7-.5 2.9 2.5-.4c.4-2.8 4.2-6.1 4.2-6.1l2.9-10.1 2.2-2v-2.9l3.9-2.8 3.3-1.2 4.2-2.3c1.5-.8 2.9-.6 4.1 0l.4-1.9-4.3-2.3.4-3.2z"/>
</g>
<g id="P72" class="small-box bn">
<path class="st1" d="M738.8 540.3c-1.2-.7-5-3.5-5-3.5-1.5-2-.3-3.7-.3-3.7v-3.7l1.2-2.7-.7-1.2.3-2-1-1.2-1-4.2-5.5-2.7c-2.5-1.7.2-3 .2-3 3.2-1 2.7-2.2 2.7-2.2-.7-4.7 3-5.7 3-5.7l-2.2-3.7c-1-1-8.7-.5-8.7-.5 0-1.5-5-5-5-5l-2.3 1.3-1.7 1.7c-1.1 1.3-3.1.4-4.5-.5l-1.2 1.5-9-8.1-2.2 2.5v.1l-.7 6.6-1.9 1.7 1.9 3s-.1 1.7-.7 3-4.3 1.3-4.3 1.3l.4 2-2.3 2.6-8.4-.9c-.9 2.5-8.6 1.5-8.6 1.5v-.9l-2 .1v1.7l-8.8 1.2-1.6 2.9.9 8-1.6 1.5s.2 2.1.4 2.6h.1c0 .1-.1 0-.1 0-1-.1-12.4 2.8-12.4 2.8 0 6.5-5.1 4.8-5.1 4.8l-5.2 3.2-2.2-.7-4.8.6-7.5-.9 9.4 20.7 2.9-.9 3.6 6.8-1.2 3.8 1.3.4-1.3 2 5.7 2.6-1.3 4.3 1.7.4 1.5-2 1.3 2.6 26.3 24.6 2.9-.6 8.7-3.8-10.7-.9-.3-2.9 2.9-6.1 5.8-4.9-1.7-3.5 8.4-3.5 3.8.9s1.2-7-3.2-8.1l2.9-3.5 11.3-5.5 1.7-2.3h4.3l23.8-11 1.4-2 2.3.3-.2-4.3 1.2-.7c2.4-2.1 2.2-4.1 2.2-4.1z"/>
</g>
<g id="P73" class="small-box bn">
<path class="st1" d="M671.3 606.4L645 581.8l-1.3-2.6-1.5 2-1.7-.4 1.3-4.3-5.7-2.6 1.3-2-1.3-.4 1.2-3.8-3.6-6.8-2.9.9-9.4-20.7-7.4-.9-1.6-4.3-4.5-.6-5.9-.4-2.5-4.5.1-.2-23.4 6 .6 2.8-1.7 1-.9-1-1.2 2-23.9 4.6-.1-1.9-7.9-5.9-7.1 6.5-.5.5.6 1.6-1.8 3.8 3.9 2.7-.9 3-2 2.3 1.3 7-3.6 9.7s-1.2 1.9 2.9 3.6c.2.1.3.2.5.3 3.6 2.2 4.1 9.9 4.1 9.9l2.9-.6 1 2.5h3.5l1.6 2.3 2 6.2-3.3.1s-2.5 1-3 2.8c-.3 1 .8 1.5 1.7 1.7.8-.9 1.2-1.4 1.2-1.4 13.7-4.5 16 7 16 7 .2 2.9-3.1 8.2-3.1 8.2-2 7.1 5.1 6.5 5.1 6.5s2.2-1.4 3-.3c.8 1.1 3.9 3 3.9 3l2.6.5s3.3-1.2 4.5-2c1-.6 2 .5 2.2.9l.9.3s.3 5.4 4.2 5.9c0 0 1.8-.3 2.9-1.3.8-.7 1.3-1.8.6-3.4l-1.9-1.2s-3.9-4.8.9-3.9c0 0 4.6 5.7 5.4-2.3 0 0 4.3-.6 3.2-2.5-1.2-1.9-2.8-5.1-1-5.9 1.7-.9 3.2.9 3.3 1.9.1 1 3.8 2.3 3.8.9 0-1.5 1.7-3.5 1.7-3.5s2.6-2.5.9-3.2c-1.7-.7-3.3-.3-4.3-1.2-1-.9-2.6-2.2-2.8-3.6l-5.9-3.3 1.7-4.2 2.5 1.7 1.3-1.6 3 .9.7-1s5.4-5.1 1-11.9l1.3-.3s4.6 2.6 4.3 3.2c-.3.6-.4 3.9-.4 3.9l2.9 3.6 2.3-.9 3.2 4.8-.1 3.3-1 1.9 4.5 3.2 5.5-1.6 4.5-3.8 1 3.9-1.4 1v1.9l3.8-1.6 3.5-3.9 1.9 2.9-1.9 2 1.3 2-1.7 3.5 2.9.1.1 2.9 8.4-3.8 10.4-1 5.9-6.4 5.1 2 .7 3.9 1.8-.1-.9-3.8 1-.1z"/>
</g>
<g id="P74" class="small-box amanah">
<path class="st1" d="M463.7 534.4l2.3.5 1.1 3 1.6.3h1.6l1.4.2.9 1.9 1.1 4.8s.5 2.8.5 3.3.2 2.3.2 2.3l.5.8s.2 2 .2 2.5.6 2.5.8 3.3c.2.8-3.7.8-3.7.8s-2.6-3.7-2.6-5.4c0-1.7 0-1.9-1.9-3s-2.8-.9-2.8-2.3 1.1-2 .6-3c-.5-.9-1.7-1.6-1.6-2.5.2-.9 1.6-2 1.6-2s-2-1.4-2-1.9-.2-2.5-.2-2.5l.4-1.1zM546.1 599.1l3.3-.1-2-6.2-1.6-2.3h-3.5l-1-2.5-2.9.6s-.5-7.7-4.1-9.9c-.2-.1-.3-.2-.5-.3-4.1-1.7-2.9-3.6-2.9-3.6l3.6-9.7-1.3-7 2-2.3.9-3-3.9-2.7-.6 1.2.9.7-1 1.4-2.3-1.9-2.3 4.1 1 1-1.5 3 .3 6.2-1.9 2.9-3-3.3-6.2.3-1.6-3.3-3.6-2.5-4.6.9v1.6l-2.9-.9.7-5.1 1.3-2-2.6-2.6 1.3-4.5 2.5 1.4 4.8-.9 1.2-1.5 1.9.9 1.3-3.3 6.1 4.8 1.3-2-3.3-2.3 3.8-6.4-5.9-4.6 1.5-2-5.5-3.3-2.8-8-.9-1.2-.9 2-3.2-.6s-1.3.4-1.9-1.3c-.6-1.7 1.6-4.1 1.6-4.1l-.3-3.6-5.4 2.5.6 3.5-3-1.6-4.8 2.2-.6 1.9-4.5-.9s.6 3 .7 5.8c.1 2.8-5.7 3.3-5.7 3.3l-2.8-3.5 2.6-3.2-2.5.7h-3s-.4-.9-.4-2.9-2-.7-2-.7l-2.3-1.5-.2.4c-3.2 2.7-2.5 5.3-2.5 5.3l3.2-.5c2.2-2.5 3.7 4.2 3.7 4.2 2.2-1.2 2.5 6.5 2.5 6.5 2.7.2-.7 4.6-.7 6.4 0 1.7 4.7 2 4.7 2-1.5-3.5.7-5 .7-5-.7 1.5 1.2 4.7 1.2 4.7 1.2 0 2.5 1.7 2.5 1.7 4.2 2.5 11.2-6 11.2-6s-.7 3.7-2.5 5.2l-6.2 2.5-.4 1.8c-2.3 1.3-4.7-1.2-4.7-1.2-2.7-4.2-4.5-2.2-4.5-2.2-.7 4 2.5 5.7 2.5 5.7 6.2 3.7 2.5 4.3 2.5 4.3-5 3 1.7 9.9 4 13.9 0 0 1.6-.2 2.5-1.2.4-.5.7-1.1.5-2 0 0 2.9-1.1 5.2.6 0 0 6.2-1.7 14.7 4.2 0 0 7.7 6.7 7.7 10.5 0 0 2.9 2.5 5.9 4 3 1.5 10.3 12.6 4.3 23.6-2.2 9.5 4.7 5.5 4.7 5.5 2.2-.4 4.8-2.6 7.6-5.5 1.1-1.2 2.1-2.3 2.9-3.2-1-.2-2.1-.7-1.7-1.7.5-1.3 3-2.3 3-2.3z"/>
</g>
<g id="P75" class="small-box bn">
<path class="st1" d="M623.5 667.8l7.2-19.1-4.9-2-19.7-2.9-9.3-5.2-8.5-7.6c-1.1 1-2.9 1.3-2.9 1.3-3.9-.6-4.2-5.9-4.2-5.9l-.9-.3.1.1-3.6.3-.9 1.6-4.7.5s-3.6-2.6-5.1-2.3c-1.6.3-8.2-.5-9.5-4.3-1.2-3.9.3-6.7.3-6.7s1.7-12.1-1.9-11.2c-3.6.9-7.3 4-7.8 4.8-.5.8-6.2 7.5-9.3 7.8-3.1.3-9.3.8-10.9-.2-1.6-.9-5.3-5-9-3.7-3.7 1.2-6.5 7.9-6.5 8.4s.9 34.2 1.7 36.1c.8 1.9 8.1 14.8 21.8 9 0 0 2.6-2.2 3-5.3.3-3.1 3.4-5.4 5.3-5.4s2.2.9 4.8 1.4c2.6.5 4-.2 7.8-.8 3.7-.6 8.2-.5 8.2-.5s4.7.5 7.9-1.2c3.3-1.7 5.9-2.5 7-2.5.8 0 2.9-.2 4 0 .4.1.6.2.6.3 0 0 1.7 2 .3 4.7-1.4 2.6-2.3 5.4-1.1 6.2 1.2.8 13.5 2.2 11.3 7.6 0 0-1.4 2.3-2.5 2.5-1.1.2-4.4.6-4.5 3.4-.2 2.8 1.7 6.2 3.3 6.2 1.6 0 4.4-.5 4.5-2.3.2-1.9 1.2-6.1 3.1-7 1.9-.9 2.2 0 2.2 0s4.7-1.4 5.4-1.7c.8-.3 3.3-.3 2.8 2.2s-1.1 4.2-.9 4.7c.2.5 3 .3 4.2-.2 1.2-.5 3.9-3.6 3.9-3.6l2.5.5s-2.2 1.2-2.2 3.4c0 .5.1 1.1.2 1.6l6-9.7 1.4-3z"/>
</g>
<g id="P76" class="small-box dap">
<path class="st1" d="M671.3 611.6l-.3-1.1-1.8.1-.7-3.9-5.1-2-5.9 6.4-10.4 1-8.4 3.8-.1-2.9-2.9-.1 1.7-3.5-1.3-2 1.9-2-1.9-2.9-3.5 3.9-3.8 1.6v-1.9l1.4-1-1-3.9-4.5 3.8-5.5 1.6-4.5-3.2 1-1.9.1-3.3-3.2-4.8-2.3.9-2.9-3.6s.1-3.3.4-3.9c.3-.6-4.3-3.2-4.3-3.2l-1.3.3c4.3 6.8-1 11.9-1 11.9l-.7 1-3-.9-1.3 1.6-2.5-1.7-1.7 4.2 5.9 3.3c.1 1.5 1.7 2.8 2.8 3.6 1 .9 2.6.4 4.3 1.2 1.7.7-.9 3.2-.9 3.2s-1.7 2-1.7 3.5c0 1.4-3.6.1-3.8-.9-.1-1-1.6-2.8-3.3-1.9-1.7.9-.1 4.1 1 5.9 1.2 1.9-3.2 2.5-3.2 2.5-.7 8-5.4 2.3-5.4 2.3-4.8-.9-.9 3.9-.9 3.9l1.9 1.2c.7 1.6.2 2.7-.6 3.4l8.5 7.6 9.3 5.2 19.7 2.9 4.9 2-7.2 19.1-1.4 2.6-6 9.7c.3 1.5.9 2.6.9 3v3s-.5 2.6 1.1 1.2c1.6-1.4 3.4-2.3 4.7-3.7 1.2-1.4 2.8-5 3.6-4.5.8.5 0 3.3 0 3.3l3 4.2s2 4.2-.8 1.9c-2.8-2.3-5.6-3.6-5.6-2.5s-.6 1.1-.6 4.3-1.7 5.6 0 4.7c1.7-.9 2.8-2.6 4-2.6 1.2 0 2.5 2.2 3.7 1.2 1.2-.9 1.1-2.9 2-2.8.9.2 3.6 3.3 3.9 2.2.3-1.1.2-3.4.6-3.7.5-.3 3.1-4.8 3.1-4.8l.6 3.7 2 1.6-2.3 2.3 5.4 2.6-1.2-3 1.7-1.6 2.6 6.2.5-7.8 1.7 6.4 4.5-.5-2.6 3.7h-2.5l2.3 2.5 3.3-2.5 3 .5-.3-3.7 2.8 3.1 2.6 1.7-.5 1.9 3.9-2.8 4.7-1.6.3.1 1.2-2-1.9-83.9z"/>
</g>
<g id="P77" class="small-box pkr">
<path class="st1" d="M775.6 673.5c-.4-.6.7-1.5 1-1.7 3.4-1.9 2.1-5.1-.5-7.6-1-1 .6-2.3 1.7-3.2 1.6-1.4-1.4-1.6.7-4.1 1.3-1.5.9-8.6-1.7-8.5-4 .2-5.5-4.7-5.5-4.7 1.2-1.5-.3-2-.3-2-2-2 .3-3.2.3-3.2 1.5-1-.3-4-.3-4-.7-3 0-2.7 0-2.7s-.3-1.7.5-4c.7-2.2.3-6.5-.7-7.5s1-3.5 1-3.5l-2-.7c-2.2-1.3-2-3.3-2-3.3-.1-.6-.4-1.6-1.5-2.3 2.8-2.3 2.7-3.7 2-7.7 2-.1 2.7-2 3.5-3.2 2.1-3.2 3.1-9.7-.4-11.6-1-.5-2.7.2-3.5-.4-1.4-1.1-.8-3.5-1.8-5-1.4-1.9-4-.8-5.4-2.8-1.4-1.9-3.6-.1-3.6-.1-1.2 3-3.2 1.2-3.2 1.2 0-2-1.7-3.2-1.7-3.2l-.5-2c-.2-2.5-1.7-5.5-1.7-5.5l-2-1.7c1.5-2.2 1-4.2 1-5.7s.5-2.5.5-2.5c1.5-.5 3.2-3.2 3.2-3.2 1.5-2.7-3.5-2.5-3.5-2.5l-4.2-1.5-1.7.5 1.7-.1-2.5.3-6.7-3.2V549.2l-2.3-.3-1.4 2-23.8 11H704l-1.7 2.3-11.3 5.5-2.9 3.5c4.3 1.2 3.2 8.1 3.2 8.1l-3.8-.9-8.4 3.5 1.7 3.5-5.8 4.9-2.9 6.1.3 2.9 10.7.9-8.7 3.8-2.9.6-1.1.2.9 3.8.3 1.1 2 83.8-1.2 2 2.2 1-1.4 4.8.5 1.9s-1.4 4.7.6 5.7c2 1.1 2.8.8 3.7 1.1.9.3 1.9 1.1 4.2.8 2.3-.3 2-.8 2.5-1.1.5-.3 3.7-1.6 3.7-1.6s1.1 1.9 1.7 1.6c.6-.3 4.2-3.3 4.2-3.3s1.9-2.6 3.1-2.2c1.2.5 2.8.3 2.8.3s3-4 3.1-4.5c.2-.5-.9-2.8-.9-2.8l-2-9.5-3-2.5s.6-2 .5-2.6c-.2-.6-.9-3.1-.9-3.6s.6-2.8.6-2.8l2.5-1.6s4-2 6.5-2.5 5 .9 5.9 1.7c.9.8 1.9 2.3 2 3.3.2.9 1.1 3 1.1 3.4 0 .5 1.7.8 2.3.9.6.2 3.6 3.4 3.6 3.4.7.6 4.5-.5 3.6.3-1.3 1.1.7 1.8 2 2.5 2 1.1 4-2.2 5.9-.3 1.5 1.5-.4.7 0 2.6 1.1 5.6 7.7 7.1 8.7 12 .2 1.2 2.8.3 4.3.3-.9-1.1 1.7-.4.7-1.5 2.9.9 7.6 7.9 10.2 8.8 3.9 1.4 3.7-6.9 6.7-8.1 5-1.9 8.4-4 9.7-9.1.5-2 4.2-3 5.2-5.2.8-1.7 1-4.5 2.6-5.4 2-1.1 3.6-1 5.1-.3 1.5-6.3-7.9-5.8-10.6-9.9z"/>
</g>
<g id="text">
<text transform="matrix(.85 0 0 1 727.517 124.582)" class="st3 st4">
      P54
    </text>
<text transform="matrix(.85 0 0 1 609.525 229.972)" class="st3 st4">
      P55
    </text>
<text transform="matrix(.85 0 0 1 531.34 280.947)" class="st3 st4">
      P56
    </text>
<text transform="matrix(.85 0 0 1 415.602 293.403)" class="st3 st4">
      P57
    </text>
<text transform="matrix(.85 0 0 1 471.81 326.052)" class="st3 st4">
      P58
    </text>
<text transform="matrix(.85 0 0 1 503.466 404.364)" class="st3 st4">
      P59
    </text>
<text transform="matrix(.85 0 0 1 523.323 361.996)" class="st3 st4">
      P60
    </text>
<text transform="matrix(.85 0 0 1 552.246 370.871)" class="st3 st4">
      P61
    </text>
<text transform="matrix(.85 0 0 1 674.822 339.657)" class="st3 st4">
      P62
    </text>
<text transform="matrix(.85 0 0 1 651.91 409.248)" class="st3 st4">
      P63
    </text>
<text transform="matrix(.85 0 0 1 592.373 474.633)" class="st3 st4">
      P66
    </text>
<text transform="matrix(.85 0 0 1 571.768 421.543)" class="st3 st4">
      P67
    </text>
<text transform="matrix(.85 0 0 1 511.056 498.157)" class="st3 st4">
      P68
    </text>
<text transform="matrix(.85 0 0 1 559.935 496.956)" class="st3 st4">
      P69
    </text>
<text transform="matrix(.85 0 0 1 629.374 504.552)" class="st3 st4">
      P70
    </text>
<text transform="matrix(.85 0 0 1 665.004 462.526)" class="st3 st4">
      P71
    </text>
<text transform="matrix(.85 0 0 1 618.483 431.133)" class="st3 st4">
      P65
    </text>
<text transform="matrix(.85 0 0 1 621.372 447.02)" class="st3 st4">
      P64
    </text>
<text transform="matrix(.85 0 0 1 678.255 542.468)" class="st3 st4">
      P72
    </text>
<text transform="matrix(.85 0 0 1 593.513 569.878)" class="st3 st4">
      P73
    </text>
<text transform="matrix(.85 0 0 1 479.997 563.769)" class="st3 st4">
      P74
    </text>
<text transform="matrix(.85 0 0 1 548.286 643.2)" class="st3 st4">
      P75
    </text>
<text transform="matrix(.85 0 0 1 634.765 639.03)" class="st3 st4">
      P76
    </text>
<text transform="matrix(.85 0 0 1 728.504 626.981)" class="st3 st4">
      P77
    </text>
</g>
</svg>