<svg xmlns="http://www.w3.org/2000/svg" version="1.1" viewbox="0 -20 1240 697" preserveaspectratio="xMidYMid slice" id="svgN">
<g id="N1" class="small-box bn">
<path class="st1" d="M579.9 124.7l.7 16.1-1.2 1.2s5.8 8.4 2.6 9.8l2.3 2.3-1.6 1.6-.5 6.3 1.2 3-4 1.4-3.5-.9s-2.1 1.9-1.6 4.2l3.5-.9 5.4 1.6s16.3-4.9 21.9.2l.7 5.4 1.9.9s-5.4 13.7-5.4 17.9l6.8 5.6 10.2 3.7h4.7l5.8 5.8-2.1 7.5.9 1.2-.2 1.9.7 4s3.4 4.1 6.7 5.9l2.1-5.5 1.9-13.7 20.3-1.6 1.6-6.3 1.6-.9 5.1-9.3V191l8.4 3.3h9.1l.1-2.8.6-1.8 1.8-.1 2.4-.1 2.2-1.7 2.2-1 2.8-.1 3-3.1 3.9-2.1 3.2-3.9-.5-1.7-1.1-1.4-.5-1.9.1-1.8-1.4-1.7-.1-.8-1-5-.4-.2-.7.1h-1.4l-2.3-.1v-2.8l1.2-3.8 2.5-.9 1.9-1.5v-4.4l-.5-2.6-1.6-1.9-.8-2.2.5-1 1.7-1.2 2.8-2 .8-2 1.2-1.1.7-1.9 1.2-2.5-1.9-1.2-2.2.4-1.9.5-1.2.4-1.3.2-.7.5-2.1-3.1-1.2.1-.3.6-.5-.6-1.1-1.1-.6 1.3-3.1-.3-2-.2-2-1-2.1-1.6-.7-1.7-.6-1.4v-2.4l-.4-2.4-1.7-3.7h-1.6l-1.3.8-1.9.4-2.3-.9-1.5-1-1.3-2.9-3.2-6.2.6-6 1.1-2-.2-2.2.4-1.7L674 90l.5-1.1.7-1.6-.2-1.6-4.3-3.7-2-.7-2.2 2.2-1.7.1-1.6-.5-1.7.7-.9.7-1.8.1-1.2.3-1 2.2-1.6-.1h-2.4l-3 .6-1.9 1.4-1.9 1.9-1.8 2-1.6.5-1.9-.3-.8-4.1-1.7-2.8-.4-1.8-1.5-1.6-1.5-2.5-1.6-.7-.2 1.3-.4 1.5-.8.5-1.8-.5-1.2.1-.2.5v1.6l.7 1.6-.2.8-.2.8-.4.2-1.8.4-.9 3.4-1.4 3-1 1.1-1.4 1-1.3-.1-2.1-.7-.4.9-.2 2-1.1 1.6-1.2.2-2.8-.6h-1.2l-1.2-.6-1.8-.8-1.1.6-.7-.1-.7-.5-.8-.6-1.9.8-1.5.2h-.2l-1.2-1.1-.5-1.3-1.8-1-1.8-.2-.4-1.8-1.9-.8-.3-.2-7.5 18.7s-12.8-5.6-6.3 13.2z"/>
</g>
<g id="N2" class="small-box bn">
<path class="st4" d="M565.8 574.4l.3-.2v-.4z"/>
<path class="st1" d="M635.1 232.1l.7-1.8c-3.3-1.9-6.7-5.9-6.7-5.9l-.7-4 .2-1.9-.9-1.2 2.1-7.5-5.8-5.8h-4.7l-10.2-3.7-6.8-5.6c0-4.2 5.4-17.9 5.4-17.9l-1.9-.9-.7-5.4c-5.6-5.1-21.9-.2-21.9-.2l-5.4-1.6-3.5.9c-.5-2.3 1.6-4.2 1.6-4.2l3.5.9 4-1.4-1.2-3 .5-6.3 1.6-1.6-2.3-2.3c3.3-1.4-2.6-9.8-2.6-9.8l1.2-1.2-.7-16.1c-6.5-18.9 6.3-13.3 6.3-13.3l7.5-18.7-2.5-1.8-1.1-2.2.2-2.8.4-2-1.5-3.1-2-2.6-.1-2.3-1.2-2-.3-2.8h-1.5l-1-1-2.1.8-2.8.4-1.3-1.5-1.6-1.9-1.1-1.7v-2.6l-1.2.4-2 1.7-1.6 1.1-.7.8-.4 1-1.4-1.1-.6.4-1.4 1.3-3.1 1.8-3.9 1.5-3.4 1.2-.8.6.6 2.2-.1 1.8-1.1 1.9-.8 1.3-.6 1.9-1 2.1-1.1 2.4-.6 1.9-1.3 1.3-.8 1.2-.6 1.2v.5l-.1 1.1v1l-1.1 1.3-.3 1-1.6-.1-1.4.2-1.7.2-1.2.4-.4.3.7 4.4 1.1 2.9 1.2 3.4 1.1 1h1.6l1.1.3 1.6.7.5 1.7v2.8l.1 2.1.5 1.6-.6 2-.1 1.1v1.5l-1.9 1.2 1 1.3.4 1.2-.2 1.9.4 1.9-.1 1.8.7.8.8 2.6.6 2.3-.5 1.3-.8 1.1-1.9 1.5-1.7 1-.7.8-1.1 1.4-1.7-.1-1.5.1-1 .8-1 1-1.4.5-1 .5.6 1.5v1.7l.6 2.1-.8 3-.8 1.5.2 1 .7 1.6.4 3.4-.6 1.7-1.2.1-.8-.1v1.3l.4 1.7 1.1 1.8v.7l-.5 1.2-.4.8-.1.8.5 1.1.8 1 1 1.3v1.7l-.1 3.3.7 3.6.3 2.2-.2 1.5.4 1.4.3 1.1 1.2 1.4 1.9 1.2 1.8 1.1 1.5.7 1.1-.2.5-.8 1.6.9 1.2 1.6.7 1.7-.5 1.3v1.6l.4 1-.6 1.1-1.3 1.4-.1 2.1.3 3.3.6 1.6 1.7 1.9.4 1.9-.2 1.5.3 2.1 1.6 1.4 1.1 1.4.4 1.8-.3.6-1.3.7-.7 1.8.6 1.3.4 1.2-.8.6-1.5.1-1.3-1.4-2.2.3-.7 1.2-.7 1.6 7.7 61 11.5-10.4 1.9.9 2.1-4.7-.2-1.4 3.3-4.7 1.4.2.9 4.9 1.9.7.9-1.9 13 2.1 2.6-6.3-1.6-1.2v-2.8l11.6 1.9 1.9 23 16.8 1.6 4.3-1.5 6.7-2.3 5.4-28.9-1.3-32.8z"/>
</g>
<g id="N3" class="small-box bn">
<path class="st1" d="M756.9 274.5L754 268l-.8-.7-.8-1.7-.1-1-1.2-1.2-.3-1-2.1-.5-1.3-1-1.9-7-.7-2.4.3-1.2.1-1.7-1.4-.6-2.1-1.8-.3-2.1-1.6-.3-1.2-.5 1.1-2.1-.2-3.2-1.1-3.2-1.9-4-2.5 1.2-2 .7-.7.3H730l-.7-1.3-.7-.7-2.3-1.8-.8-1.6 1.7-1.2-.4-2.6-1-.3-1.2-1.1-2.3-.5-2.4-1-.1-1.6-1.1-.8-1.3.8h-3l-2.5-.4-1.8-.3-1.1-.7-.8-.8.2-1-.3-1.5-1.8-.7-.6-1.6-1.9-.4-.7-.1-1.4-2.3v-1.1l-1.3-1.6-1-2-.4-.7.2-3.3-1.1-2.1-.4-.3h-1l-4.6-.7-2.3-.6-1.5-1.3-1.7.7-1.2-1 .4-1.3h-9.1l-8.4-3.3v2.1l-5.1 9.3-1.6.9-1.6 6.3-20.3 1.6-1.9 13.7-2.1 5.5-.7 1.8 1.4 32.6-5.4 28.9-6.7 2.3 1.5 3.2 3.7-.6-.2 7.2 5.4-4.4 2.1.9s.2.9-1.2 5.8c-1.4 4.9 0 8.4 0 8.4 4.2 6.1 8.4 4.9 8.4 4.9l5.1 9.8 4.2-.7 1.2 1.2 3.7-1.2 2.6 1.4-.2 6.3 1.9 1.9-1.2 5.6 5.8 2.6 2.1-1.2v4.4c-.5 4.2-4.2 2.8-4.2 2.8l-5.8-2.3-2.5 4.1 1.3-.1 9.8 3.5h4l1.4-3.7 5.4 1.2 1.9-2.6 1.6.5 4.9-1.4.7 2.3 5.8-2.8.9-2.1 6.8-3.3 5.4-6.1 2.8-.5.9 1.4 3.7-.5-.5-1.6 4.7-3 7-1.4 2.3-1.2 7.9.2 4.4-1.6 2.8.7 2.8-2.6 4 .9 3.9-2.4.3-2.8.1-2.3.1-1 1.7-14.1 2.3-26.6.5-4.8-1.4-3.7z"/>
</g>
<g id="N4" class="small-box bn">
<path class="st1" d="M665.1 354.1s3.7 1.4 4.2-2.8v-4.4l-2.1 1.2-5.8-2.6 1.2-5.6-1.9-1.9.2-6.3-2.6-1.4-3.7 1.2-1.2-1.2-4.2.7-5.1-9.8s-4.2 1.2-8.4-4.9c0 0-1.4-3.5 0-8.4s1.2-5.8 1.2-5.8l-2.1-.9-5.4 4.4.2-7.2-3.6.6.5 1-3 7.9-2.1.5-1.6 5.4-2.8.7-.7 5.6-1.9.9-4-.7-3.5 8.8 1.9 1.4-2.1 4.7 1.9 1.4-1.2 1.4.7 1.9 3.3.9-.7 2.8.2 2.1-1.9 4.4-1.2 2.3.2 1.4-1.2 2.4 2.3 2.5.8-1 6-7.4 10.9 5.6 3-3 1.4-4.9 3.7 9.5 3.5-1.6 3.5 2.1 1.2-1.4.7-2.3 7.7 2.1 5.2-.6 2.5-4.1 5.9 2.4z"/>
</g>
<g id="N5" class="small-box bn">
<path class="st1" d="M626 299l-1.5-3.2-4.3 1.5-16.8-1.6-1.9-23-11.6-1.9v2.8l1.6 1.2-2.5 6.2-13-2.1-.9 1.9-1.9-.7-.9-4.9-1.4-.2-3.3 4.7.2 1.4-2.1 4.7-1.9-.9-11.5 10.4.8 6.2 12.8 2.8s8.8 5.4 12.3 4l7.5 2.8-1.2 18.6-1.6 11.2 6.1 4.2 4.4.2-.7 1.9 5.4 3.5 1.2 3 1.4-1.2 4 4 .9-1.4 1.4 1.5 1.2-2.4-.2-1.4 1.2-2.3 1.9-4.4-.2-2.1.7-2.8-3.3-.9-.7-1.9 1.2-1.4-1.9-1.4 2.1-4.7-1.9-1.4 3.5-8.8 4 .7 1.9-.9.7-5.6 2.8-.7 1.6-5.4 2.1-.5 3-7.9-.7-1.4z"/>
</g>
<g id="N6" class="small-box bn">
<path class="st1" d="M517.5 366.7l1.2 9.8 2.8 6.8s.1.3.2.8l3.8-.4 2.1 1.2 1.4-1.2h1.4l-.5 3.3 3.5 1.6V386l2.1-.2.9 1.4 4.2.2c2.3-3.5 5.1-1.2 5.1-1.2l1.2-1.2 2.6.9 2.1-1.3.7-5.2-.5-1.6-1.4-4.2.9-1.9 2.3.5.9-2.8 2.1.5 1.6 5.8 1.6-.5.5-2.1 6.1-1.4.6 2 2.9-1.3 9.8-24.2.2-2.6 3-5.1 1.6-11.2 1.2-18.6-7.5-2.8c-3.5 1.4-12.3-4-12.3-4l-12.8-2.8-8.5-67.2-.1.3-.4.9v2.2l-.4.8-1.7-.5-.3-2.6-1.5-3.3-1.8-2.1-1.5-.3-.1 1.4-.6.8-.5 1.7-1.6 1.1-1.2.2-.4-.5-1.2-.1-1.3-.6-.3-1.6V229l-2.2-1.9-1.6-1.8-1.5-.7-1-.7-1 .5s.1.3.1 1.1v.7l.2 1.1-.5 1.5-.4.8 1 .1 1.5.1.2 2.1.3 1 .8 1.2-.1 1.3-1 1.3.6 2.5.5 2.1.1 2.4s.1.1-1.5 1.4l-1.6 1.3H521l-.8.2-1.2 3.3s-.5-.3-.2 2l.3 2.3.8 2.5s-.2-.6.3 2.3l.5 3 1.1 2.1s-.2.3.2 1.6l.4 1.3-.6 2.1.2 1.2.1.8-.4 1.5 1.6 1.3.6 3.1s-1.3-.5-1.2.7l.1 1.3.4.8s.5-.3 0 1.6l-.5 1.9.1 1.6.6.7-.2.7-.5 1.8-1.2-.2-1.4-1.4 1.2 4.3.8 1.5.2 1.1 1.4 2-.6 1 .6 1.1.5 1.1.4 1.9-.1 2.3-.3 1.4.7.8.7 1.3 1.6 3-2.1 1.8.4 1.5-.4 2.1-.2 2 .1 1.1.8 1v1.5l.2.6-.4 2.3-.4 1.3.6 1.2-.9.4-1.5-.6-1.2.1-1.1.1-1.1-.1-.3 2 .4 2.4 1.1-.2h.4l1.6 2.4h1v1.8l-2.7.2.2 1.2-1.9.1-.7-.7-.5.6-.3.8-2.2 2.1.2.8.3 1.8-.2 1.3-.8.8-3.2 2.2-1.5-.4-.7.1.1.8v.6l-.5 2.4-1.1 1.7.3 2.1.2 1.5-.1 1.1 1 1.1.2 2 .1.7.7 1 .6 1.6.4.6.3.4.1 1-1.3.2-1 .7-.6.1.9.8 7 1.4z"/>
</g>
<g id="N7" class="small-box pkr">
<path class="st1" d="M613.5 370.1h3l2.3-4.4.7-2.5-2.6-1.9-3.7 2.3-3.2-2.5.7-2.1-.7-1.2-.7.9-3.8-3.9-.9 1.4-4-4-1.4 1.2-1.1-3-5.4-3.5.7-1.9-4.4-.2-6.1-4.2-3 5.1-.2 2.6-9.8 24.2-2.9 1.2.3 1.3-1.1 2.6.4 1.4-1.6 2.6 9.8 8.2.2-2 5.9 4.9 2 1.9 6.6.5 1.4 2.5 4.9 1 1.6-1.4 3 1.1 2.8 2.8 3.5-.5 3.3-2.5 3.7-1.9 3-4.2-.9-2.1-7.9-2.8-1.9 1 .5-5.1 3-12.4-.7-1.6 3.7-1.4z"/>
</g>
<g id="N9" class="small-box pkr">
<path class="st1" d="M521.7 442.6l1.4-1.2-6.3-12.1 1.6-4.4h-2.1l-2.6-7.9c-.7-9.8 4-16.5 4-16.5 4-1.4 4-8.1 4-8.1l.7-.7c.6-.6-.4-5.5-.8-7.5-.1-.5-.2-.8-.2-.8l-2.8-6.8-1.2-9.8-6.8-1.4-.9-.8-.7.2-.6.5-.2.5-.2.6-1.2.4.3.8-.3.3-1.4.3-1.1-.4-.6-.1-1.4 1.6-1.1 1.1-.8.6-1.4.5-.7.1 1.1 1.6.3 1.5v.6l-.1.5-.7.6-.7.3-.2 1.4-.2 1.6.5 1 .1 1.6v.5l-.3 1.9-1.4 3.7-3.7 1.5-1 1-.5 1-1.4.6-2.1.2-.5 1-.7 1.3-.8.7-2.6-.1-1.7.5.3 1.6.3 1.4 1.2 2-.5 2.3.4 1.8.3 1.4.5 1.5v1.1l1.1 1.8s-.3.2.6 2.8l1 2.5 1.3.7 3.1 1.6 1.2-1 .5 2.1-1 .5v1.4l.5 1.3.4 1s-.5-.7.8 1.6l1.4 2.3.2 2 1.6 2 1.7 4.6.8.4.2.6-.2.4 4.2 10.6 1.2 1.9-.4.6-.2.8.1.1 1.6.1-1.5.1.7 1.5c4.3 1.1 9.2 1 9.2 1 4.1-1.1 8.3-3.2 11.8-5.2l-4.4-6.7z"/>
</g>
<g id="N10" class="small-box bn">
<path class="st1" d="M575.3 445.3l-4.4-3.7c2.6-4-.7-7.9-.7-7.9l-1.6-2.6 2.3-7.2-1.2-2.1-4.7-6.5-2.3-.2 1.9-17.7-2.8-5.8h.9s-2.1-7.5-3.7-9.3c0 0-.9 1.6-.2 2.6.7.9 0 3.7 0 3.7l-3.7-.7-.7-2.3-2.3-1.2-.5.3-2.1 1.3-2.6-.9-1.2 1.2s-2.8-2.3-5.1 1.2l-4.2-.2-.9-1.4-2.1.2v2.6l-3.5-1.6.5-3.3H529l-1.4 1.2-2.1-1.2-3.8.4c.4 2 1.3 7 .8 7.5l-.7.7s0 6.8-4 8.1c0 0-4.7 6.8-4 16.5l2.6 7.9h2.1l-1.6 4.4 6.3 12.1-1.4 1.2 4.4 6.6a84 84 0 0 0 8.9-5.9l9.1-6.8-.2-2.8 3.5-.5 3.7 1.6 1.2 11.4 3.3-1.9 1.4 2.1-.2.9v5.6l12.3.7-.9-8.1 3.7 1.2 3.3-1.4z"/>
</g>
<g id="N11" class="small-box bn">
<path class="st4" d="M565.8 574.4l.3-.2v-.4z"/>
<path class="st1" d="M749.4 332.2l-3.9-.9-2.8 2.5-2.8-.7-4.5 1.7-7.9-.3-2.3 1.2-7 1.4-4.6 3 .4 1.6-3.7.5-.9-1.4-2.8.5-5.4 6-6.7 3.3-1 2.1-5.8 2.8-.7-2.4-4.9 1.4-1.6-.4-1.9 2.5-5.3-1.1-1.4 3.7h-4l-9.8-3.5-6.5.7-7.7-2.1-.7 2.3-1.1 1.4-3.5-2.1-3.5 1.7 9.8 28.6-1.2.7 2.6 5.8 1.4-.2 1.9 3.1 1.1-1 1.2-1.4 12.1-2.8-1 8.4h2.8l3.1 2.1 5.5-.3-.4 5.2 3.2.4.5-3 7.9 5.8 1.4 2.8 1.9-1.9 1.5-1.6.6.3 1.3.8.5-.3.4-.2 7.7-5.7 7.9-6.9 9.3-8.2 6.9-5.7 21.8-18.1 2.5-3.4.7-.5 2.3-14.7.2-8.4.8-7.5z"/>
</g>
<g id="N12" class="small-box bn">
<path class="st1" d="M587.9 467.3c14.3-12.3 43.3-36.5 43.9-40.3l4.4 4.2 9.5-7 3.7-.5 4.7-6.1-1.6-6.5-3-3.7-1.6-6.8-2.8-2.8.7-2.3 2.8.9 1-.9-1.9-3.1-1.4.2-2.6-5.8 1.2-.7-9.8-28.6-3.7-9.5-1.4 4.9-3 3-10.9-5.6-6 7.4.6 1.2-.7 2.1 3.3 2.6 3.7-2.3 2.6 1.9-.7 2.6-2.3 4.4h-3l-.9-2.6-3.7 1.4.7 1.6-3 12.3-.5 5.1 1.9-.9 7.9 2.8.9 2.1-3 4.2-3.7 1.9-3.3 2.6-3.5.5-2.8-2.8-3-1.2-1.6 1.4-4.9-.9-1.4-2.6-6.5-.5-2.1-1.9-5.8-4.9-.9 6.5.9 4.9-.7 1.2 3.7 5.4-2.1 9.8-10.9-.2 4.7 6.5 1.2 2.1-2.3 7.2 1.6 2.6s3.3 4 .7 7.9l4.4 3.7-3.5 1.4-3.7-1.2.9 8.1 17.7.7.9 12.9z"/>
</g>
<g id="N8_1_">
<path class="st1" d="M574.3 400.4l.7-1.2-.9-4.9.7-4.6-9.7-8.2 1.6-2.6-.5-1.4 1.2-2.6-.4-1.3-.6-2-6.1 1.4-.5 2.1-1.6.5-1.6-5.8-2.1-.5-.9 2.8-2.3-.5-.9 1.9 1.4 4.2.5 1.6-.7 5.2.5-.3 2.3 1.2.7 2.3 3.7.7s.7-2.8 0-3.7c-.7-.9.2-2.6.2-2.6 1.6 1.9 3.7 9.3 3.7 9.3h-.9l2.8 5.8-1.9 17.7 2.3.2 10.9.2 2.1-9.8-3.7-5.1z"/>
</g>
<g id="P13">
<path class="st1" d="M685.6 409l-7.9-5.8-.5 3-3.3-.5.5-5.1-5.6.2-3-2.1H663l.9-8.4-12.1 2.8-1.2 1.4-1.1 1-1 .9-2.8-.9-.7 2.3 2.8 2.8 1.6 6.8 3 3.7 1.6 6.5-4.7 6.1-3.7.5-9.5 7-4.4-4.2c-.6 3.8-29.6 28-43.9 40.3l-6.5 5.6 3.3 2.9 6.8 18.4 3 .2 1.6 2.6-2.1 1.6 4.4 8.8-.9 1.4 2.6 2.8 1.9-2.2 4.2-4 3.4-1.7 1-.7.4-.3 1.6-2.1 1.2-.8 1.4-1.5 1.5-2 2.5-1.8 2.1-1.7 1.5-.3 2-.6.4-2.6 1.4-4.1 3.5-6.6 1.2-2.3 3.4-2.4 4-3.2 6.8-6.6 2.9-3.6 1.5-2.3 1.6-1.6 3.6-1.7 2.5-2.1 6.2-8.7 5.4-8.4 7.6-12.2 3.9-4.4 2.3-3.1 2.1-.6.4-2.2 1.4-1.4-1.2-2.8z"/>
</g>
<g id="N14" class="small-box bn">
<path class="st4" d="M565.8 574.4l.3-.2v-.4z"/>
<path class="st1" d="M586.7 454.4l-17.7-.7-12.3-.7v-5.6l.2-.9-1.4-2.1-3.3 1.9-1.2-11.4-3.7-1.6-3.5.5.2 2.8-9.1 6.8s-10.7 8.4-20.7 11.2c0 0-4.9.1-9.2-1l.4.9 9 27.8 5.4 12.1.8 1-.2 2.1-.1 2.3 4.9 14.1 2.5 3.8 1.6 3.6.4.9 4-2.9-.7-3 5.8-6.5 4.2 5.6 13.7-9.5-5.4-15.8 5.1-1.9 2.8 5.6 3.3-2.1-1.4-6.3s12.6-5.1 19.8-11.9c.1-.1.3-.2.4-.4 1.4-1.3 3.6-3.2 6.5-5.6l-1.1-13.1z"/>
</g>
<g id="N15" class="small-box pas">
<path class="st4" d="M565.8 574.4l.3-.2v-.4z"/>
<path class="st1" d="M598.5 507.5l-4.4-8.8 2.1-1.6-1.6-2.6-3-.2-6.8-18.4-3.3-2.9-.4.4c-7.2 6.8-19.8 11.9-19.8 11.9l1.4 6.3-3.3 2.1-2.8-5.6-5.1 1.9 5.4 15.8-13.7 9.5-4.2-5.6-5.8 6.5.7 3-4 2.9 1.2 2.7 1.1 2.7.9 4.2c1.1 4.9.8 3.6.8 3.6l1 2.3 3.9 8.1 4.1 2.5 1.1 3.6 5.8 8.5 2.1 2.4 1.7 1.8 1.9 2.4 2.8 1.7 1.8 2 2.2 2.3 2 1.3.4 1.6 2.4.3V575l-1.1-.2.1-.7-.3.2.3-.6v.5l.9-.6 1.6-1.6.4-1.9 2.3-1.9 1.2-3.5 1.6-2.3-1.6-3.5.3-1.2.6-.3-.6-.7.2-.8-.3-.6.2-2.2-.4-1.3-.5-.1v-.8l-.7-.7.7-1.1.5-.9 1.2-1.6.6-2.2.4-3.1.4-1.3 1.3-.7.5.3 2.1-.5 2.1-1.9 3.2-2.1 2.6-1.8 2.5-2.8 1-3.3 1-3.7 1.8-3.2 2.7-3.4 4.3-5-2.6-2.8.9-1.6z"/>
</g>
<g id="text">
<text transform="translate(627.04 164.23)" class="st2 st3">
        N1
      </text>
<text transform="translate(583.74 233.41)" class="st2 st3">
        N2
      </text>
<text transform="translate(686.98 284.04)" class="st2 st3">
        N3
      </text>
<text transform="translate(621.41 336.1)" class="st2 st3">
        N4
      </text>
<text transform="translate(588.41 309.1)" class="st2 st3">
        N5
      </text>
<text transform="translate(543.85 334.61)" class="st2 st3">
        N6
      </text>
<text transform="translate(581.9 375.98)" class="st2 st3">
        N7
      </text>
<text transform="translate(492.5 405.16)" class="st2 st3">
        N9
      </text>
<text transform="translate(527.5 419.94)" class="st2 st3">
        N10
      </text>
<text transform="translate(680.04 378.94)" class="st2 st3">
        N11
      </text>
<text transform="translate(584.75 424.74)" class="st2 st3">
        N12
      </text>
<text transform="translate(563.05 407.66)" class="st2 st3">
        N8
      </text>
<text transform="translate(604.7 467.22)" class="st2 st3">
        N13
      </text>
<text transform="translate(534.52 473.12)" class="st2 st3">
        N14
      </text>
<text transform="translate(560 519.3)" class="st2 st3">
        N15
      </text>
</g>
</svg>