<svg xmlns="http://www.w3.org/2000/svg" version="1.1" viewbox="0 -20 1240 697" preserveaspectratio="xMidYMid slice" id="svgP">
<g id="P1" class="small-box bn">
<path class="st1" d="M757.4 274.4l-2.9-6.6-.8-.7-.8-1.7-.1-1-1.2-1.2-.3-1-2.1-.5-1.3-1-1.9-7-.7-2.4.3-1.2.1-1.7-1.4-.6-2.1-1.8-.3-2.1-1.6-.3-1.2-.5 1.1-2.1-.2-3.2-1.1-3.2-1.9-4-2.4 1.2-2 .7-.7.3-1.3-.1-.7-1.3-.7-.7-2.3-1.8-.8-1.6 1.7-1.2-.4-2.7-1-.3-1.2-1.1-2.3-.5-2.4-1-.1-1.6-1.4-.9-1.3.8h-3l-2.5-.4-1.8-.3-1.1-.7-.8-.9.2-1-.3-1.5-1.8-.7-.6-1.6-1.9-.4-.7-.1-1.4-2.3v-1.1l-1.3-1.6-1-2-.4-.7.2-3.3-1.1-2.1-.4-.3h-1l-4.6-.7-2.3-.6-1.5-1.3-1.7.7-1.2-1 .4-1.3.1-2.8.6-1.8 1.8-.1 2.4-.1 2.2-1.7 2.2-1 2.8-.1 3-3.1 3.9-2.1 3.2-3.9-.5-1.7-1.1-1.4-.5-1.9.1-1.8-1.4-1.7-.1-.9-1-5-.4-.2-.7.1h-1.4l-2.3-.1v-2.8l1.2-3.8 2.5-.9 1.9-1.5v-4.5l-.5-2.7-1.6-1.9-.9-2.2.5-1 1.7-1.2 2.8-2 .9-2 1.2-1.1.7-1.9 1.2-2.6-1.9-1.2-2.2.4-1.9.5-1.2.4-1.3.2-.7.5-2.1-3.1-1.2.1-.3.6-.5-.6-1-1.3-.6 1.3-3.1-.3-2-.2-2-1-2.1-1.6-.7-1.7-.6-1.4v-2.4l-.4-2.4-1.7-3.7h-1.6l-1.3.9-1.9.4-2.3-.9-1.5-1-1.3-2.9-3.2-6.3.6-6.1 1.1-2-.2-2.2.4-1.7 2.4-2.9.5-1.1.7-1.6-.2-1.6-4.4-3.7-2-.7-2.2 2.2-1.7.1-1.6-.5-1.7.7-1 .7-1.8.1-1.2.3-1 2.2-1.6-.1h-2.4l-3 .6-1.9 1.4-1.9 1.9-1.8 2-1.6.5-1.9-.3-.9-4.1-1.7-2.8-.4-1.8-1.5-1.6-1.5-2.6-1.6-.7-.2 1.3-.4 1.5-.8.5-1.8-.5-1.2.1-.2.5v1.6l.7 1.6-.2.8-.2.9-.4.2-1.8.4-1 3.4-1.4 3-1 1.1-1.4 1-1.3-.1-2.1-.7-.4.9-.2 2-1.1 1.6-1.2.2-2.8-.6h-1.2l-1.2-.6-1.8-.9-1.1.6-.7-.1-.7-.5-.9-.6-1.9.9-1.5.2h-.2l-1.2-1.1-.5-1.3-1.8-1-1.8-.2-.4-1.8-1.9-.9-2.9-2-1.1-2.2.2-2.8.4-2-1.5-3.1-2-2.7-.1-2.3-1.2-2-.3-2.8h-1.5l-1-1-2.1.8-2.8.4-.9-.8-1.6-1.9-1.1-1.7v-2.7l-1.2.4-2 1.7-1.6 1.1-.7.8-.4 1-1.4-1.1-.6.4-1.4 1.3-3.1 1.8-3.9 1.5-3.4 1.2-.9.6.6 2.2-.1 1.8-1.1 1.9-.9 1.3-.6 1.9-1 2.1-1.1 2.4-.6 1.9-1.3 1.3-.9 1.2-.6 1.2v.5l-.1 1.1v.8l-1.1 1.3-.3 1-1.6-.1-1.4.2-1.7.2-1.2.4-.4.3.7 4.5 1.1 2.9 1.2 3.4 1.1 1h1.6l1.1.3 1.6.7.5 1.7v2.8l.1 2.1.5 1.6-.6 2-.1 1.1v1.5l-1.9 1.2 1 1.3.4 1.2-.2 1.9.4 1.9-.1 1.8.7.8.9 2.7.6 2.3-.5 1.3-.8 1.1-1.9 1.5-1.7 1-.7.8-1.1 1.4-1.7-.1-1.5.1-1 .8-1 1-1.4.5-1 .5.6 1.5v1.7l.6 2.1-.8 3-.9 1.5.2 1 .7 1.6.4 3.4-.6 1.7-1.2.1-.9-.1v1.3l.4 1.7 1.1 1.8v.7l-.5 1.2-.4.8-.1.9.5 1.1.8 1 1 1.3v1.7l-.1 3.3.7 3.6.3 2.2-.2 1.5.4 1.4.3 1.1 1.2 1.4 1.9 1.2 1.8 1.1 1.5.7 1.1-.2.5-.9 1.6 1 1.2 1.6.7 1.7-.5 1.3v1.6l.4 1-.6 1.1-1.3 1.4-.1 2.1.3 3.3.6 1.6 1.7 1.9.4 1.9-.2 1.5.3 2.1 1.6 1.4 1.1 1.4.4 1.8-.3.6-1.3.7-.7 1.8.6 1.3.4 1.2-.9.6-1.5.1-1.3-1.4-2.2.3-.7 1.2-.7 1.6 8.5 67.5 12.9 2.8s8.9 5.4 12.4 4l7.5 2.8-1.2 18.7-1.6 11.2 6.1 4.2 4.4.2-.7 1.9 5.4 3.5 1.2 3 1.4-1.2 4 4 .9-1.4 3.7 4 .8-1 6-7.4 11 5.6 3-3 1.4-4.9 3.7 9.6 3.5-1.6 3.5 2.1 1.2-1.4.7-2.3 7.7 2.1 6.5-.7 9.8 3.5h4l1.4-3.7 5.4 1.2 1.9-2.6 1.6.5 4.9-1.4.7 2.3 5.8-2.8.9-2.1 6.8-3.3 5.4-6.1 2.8-.5.9 1.4 3.7-.5-.5-1.6 4.7-3 7-1.4 2.3-1.2 7.9.2 4.4-1.6 2.8.7 2.8-2.6 4 .9 3.9-2.4.3-2.8.1-2.3.1-1 1.7-14.1 2.3-26.7.5-4.8-.7-4.1z"/>
</g>
<g id="P2" class="small-box pkr">
<path class="st1" d="M513.8 455c10.1-2.8 20.8-11.2 20.8-11.2l9.1-6.8-.2-2.8 3.5-.5 3.7 1.6 1.2 11.5 3.3-1.9 1.4 2.1-.2.9v5.6l12.4.7-.9-8.2 3.7 1.2 3.5-1.4-4.4-3.7c2.6-4-.7-7.9-.7-7.9l-1.6-2.6 2.3-7.2-1.2-2.1-4.7-6.5 11 .2 2.1-9.8-3.7-5.4.7-1.2-.9-4.9.9-6.5 5.8 4.9 2.1 1.9 6.5.5 1.4 2.6 4.9.9 1.6-1.4 3 1.2 2.8 2.8 3.5-.5 3.3-2.6 3.7-1.9 3-4.2-.9-2.1-7.9-2.8-1.9.9.5-5.1 3-12.4-.7-1.6 3.7-1.4.9 2.6h3l2.3-4.4.7-2.6-2.6-1.9-3.7 2.3-3.3-2.6.7-2.1-.6-1.2-.8 1-3.7-4-.9 1.4-4-4-1.4 1.2-1.2-3-5.4-3.5.7-1.9-4.4-.2-6.1-4.2 1.6-11.2 1.2-18.7-7.5-2.8c-3.5 1.4-12.4-4-12.4-4l-12.9-2.8-8.5-67.5-.1.3-.4.9v2.2l-.4.8-1.7-.5-.3-2.7-1.5-3.3-1.8-2.1-1.5-.3-.1 1.4-.6.9-.5 1.7-1.6 1.1-1.2.2-.4-.5-1.2-.1-1.3-.6-.3-1.6v-2.8l-2.2-1.9-1.6-1.8-1.5-.7-1-.7-1 .5s.1.3.1 1.1v.7l.2 1.1-.5 1.5-.4.8 1 .1 1.5.1.2 2.1.3 1 .9 1.2-.1 1.3-1 1.3.6 2.6.5 2.1.1 2.4s.1.1-1.5 1.4l-1.6 1.3h-1.8l-.9.2-1.2 3.3s-.5-.3-.2 2l.3 2.3.8 2.6s-.2-.6.3 2.3l.5 3 1.1 2.1s-.2.3.2 1.6l.4 1.3-.6 2.1.2 1.2.1.8-.4 1.5 1.6 1.3.6 3.1s-1.3-.5-1.2.7l.1 1.3.4.8s.5-.3 0 1.6l-.5 1.9.1 1.6.6.7-.2.7-.5 1.8-1.2-.2-1.4-1.4 1.2 4.4.9 1.5.2 1.1 1.4 2-.6 1 .6 1.1.5 1.1.4 1.9-.1 2.3.2 1.1.7.8.7 1.3 1.6 3-2.1 1.8.4 1.5-.4 2.1-.2 2 .1 1.1.8 1v1.5l.2.6-.4 2.3-.4 1.3.6 1.2-1 .4-1.5-.6-1.2.1-1.1.1-1.1-.1-.3 2 .4 2.4 1.1-.2h.4l1.6 2.4h1v1.8l-2.8.2.2 1.2-1.9.1-.7-.7-.5.6-.3.9-2.2 2.1.2.9.3 1.8-.2 1.3-.9.8-3.2 2.2-1.5-.4-.7.1.1.9v.6l-.5 2.4-1.1 1.7.3 2.1.2 1.5-.1 1.1 1 1.1.2 2 .1.7.7 1 .6 1.6.4.6.3.4.1 1-1.3.2-1 .7-1.3.3-.6.5-.2.5-.2.6-1.2.4.3.8-.3.3-1.4.3-.8-.2-.6-.1-1.4 1.6-1.1 1.1-.8.6-1.4.5-.7.1 1.1 1.6.3 1.5v.6l-.1.5-.7.6-.7.3-.2 1.4-.2 1.6.5 1 .1 1.6v.5l-.3 1.9-1.4 3.7-3.7 1.5-1 1-.5 1-1.4.6-2.1.2-.5 1-.7 1.3-.9.7-2.7-.1-1.7.5.3 1.6.3 1.4 1.2 2-.5 2.3.4 1.8.3 1.4.5 1.5v1.1l1.1 1.8s-.3.2.6 2.8l1 2.6 1.3.7 3.1 1.6 1.2-1 .5 2.1-1 .5v1.4l.5 1.3.4 1s-.5-.7.9 1.6l1.4 2.3.2 2 1.6 2 1.7 4.6.9.4.2.6-.2.4 4.3 10.6 1.2 1.9-.4.6-.2.8.1.1 1.6.1-1.6.1.7 1.5c4.1 1.3 9 1.2 9 1.2z"/>
</g>
<g id="P3" class="small-box bn">
<path class="st1" d="M750 332.2l-4-.9-2.8 2.6-2.8-.7-4.4 1.6-7.9-.2-2.3 1.2-7 1.4-4.7 3 .5 1.6-3.7.5-.9-1.4-2.8.5-5.4 6.1-6.8 3.3-.9 2.1-5.8 2.8-.7-2.3-4.9 1.4-1.6-.5-1.9 2.6-5.4-1.2-1.4 3.7h-4l-9.8-3.5-6.5.7-7.7-2.1-.7 2.3-1.2 1.4-3.5-2.1-3.5 1.6-3.7-9.6-1.4 4.9-3 3-11-5.6-6 7.4.6 1.2-.7 2.1 3.3 2.6 3.7-2.3 2.6 1.9-.7 2.6-2.3 4.4h-3l-.9-2.6-3.7 1.4.7 1.6-3 12.4-.5 5.1 1.9-.9 7.9 2.8.9 2.1-3 4.2-3.7 1.9-3.3 2.6-3.5.5-2.8-2.8-3-1.2-1.6 1.4-4.9-.9-1.4-2.6-6.5-.5-2.1-1.9-5.8-4.9-.9 6.5.9 4.9-.7 1.2 3.7 5.4-2.1 9.8-11-.2 4.7 6.5 1.2 2.1-2.3 7.2 1.6 2.6s3.3 4 .7 7.9l4.4 3.7-3.5 1.4-3.7-1.2.9 8.2-12.4-.7V448l.2-.9-1.4-2.1-3.3 1.9-1.2-11.5-3.7-1.6-3.5.5.2 2.8-9.1 6.8s-10.8 8.4-20.8 11.2c0 0-4.9.1-9.2-1l.4.9 9 27.9 5.4 12.1.8 1-.2 2.1-.1 2.3 4.9 14.1 2.5 3.8 1.6 3.6.4.9 1.2 2.7 1.2 2.7.9 4.2c1.1 4.9.8 3.6.8 3.6l1 2.3 3.9 8.2 4.1 2.6 1.1 3.6 5.8 8.5 2.1 2.4 1.7 1.8 1.9 2.4 2.8 1.7 1.8 2 2.2 2.3 2 1.3.4 1.6 2.4.3v-1.1l-1.1-.2.1-.7.9-.6 1.6-1.6.4-2 2.3-2 1.2-3.5 1.6-2.3-1.6-3.5.3-1.2.6-.3-.6-.7.2-.8-.3-.6.2-2.2-.4-1.3-.5-.1v-.8l-.7-.7.7-1.1.5-1 1.2-1.6.6-2.2.4-3.1.4-1.3 1.3-.7.5.3 2.1-.5 2.1-1.9 3.2-2.1 2.7-1.8 2.5-2.8 1-3.3 1-3.7 1.8-3.2 2.8-3.4 4.3-5 1.9-2.2 4.3-4 3.4-1.7 1-.7.4-.3 1.6-2.1 1.2-.9 1.4-1.5 1.5-2 2.5-1.8 2.1-1.7 1.5-.3 2-.6.4-2.7 1.4-4.1 3.5-6.6 1.2-2.3 3.4-2.4 4-3.2 6.8-6.6 2.9-3.6 1.5-2.3 1.6-1.6 3.6-1.7 2.5-2.1 6.3-8.7 5.4-8.4 7.6-12.2 3.9-4.5 2.3-3.1 2.1-.6.4-2.2 1.4-1.4 1.9-1.9 1.5-1.6.6.3 1.3.7.5-.3.4-.2 7.7-5.6 8-7 9.4-8.2 6.9-5.7 21.9-18.2 2.5-3.4.6-.5 2.3-14.8.2-8.4.8-7.6-4.1 2.3z"/>
</g>
<g id="text">
<text transform="matrix(.9 0 0 1 626.24 223.44)" class="st2 st3">
      P1
    </text>
<text transform="matrix(.9 0 0 1 538.9 379.36)" class="st2 st3">
      P2
    </text>
<text transform="matrix(.9 0 0 1 616.24 418.07)" class="st2 st3">
      P3
    </text>
</g>
</svg>