<svg xmlns="http://www.w3.org/2000/svg" viewbox="0 0 1240 640" preserveaspectratio="xMidYMid slice" id="svgP">
<g>
<path class="st1" d="M331.1 444.1l-6 2.7-1.9 4.1-3.1 3.8-1 2.2-1.9 1-5.6.9-6.3-1.9-6-.9-1.6-3.2-2.2-3.1-1.3-1.3-7.5.3.6 4.8-6.6 2.8-5.7 2.5"/>
<path class="st16" d="M331.1 444.1l-6 2.7-1.9 4.1-3.1 3.8-1 2.2-1.9 1-5.6.9-6.3-1.9-6-.9-1.6-3.2-2.2-3.1-1.3-1.3-7.5.3.6 4.8-6.6 2.8-5.7 2.5M627.5 172l10.3-19.5 2.2-6.3h96.1"/>
<path class="st16" d="M644.7 48.6l91.4 88.7 1.6 93.7-16.1 40.3-33.4 17.4-1.6 1.8M737.7 228.1l59.5 43.8h80.4L965 393.3l-56.8 94.8.9 51.7 47.6 2.1"/>
<path class="st16" d="M908.2 488.1h-57.4v-19.5l-26.2-1.3-29.9 24.9 2.5 4.4.1 3.7M894.9 364.9l-.3-70.4M797.2 271.9V294l-21.2-.5-6.7 5.7-4.7 3.1-3.1 3.2-1 1.9-1.9 1.6-1.7 7.1 5 2.5 1.6 2.8 1 5.2M758.1 291.5l4.1-1.6 2.6-3.2 5-34.9M499.6 50.5v120.2h17.2M499.7 127.6h29.1M556.9 145.7l9.6-1.7-15.1 28.3 6.5 3.2"/>
<path class="st16" d="M499.7 137.7h-54.2v83.8h18l1.5 1.9M441.9 248.6v-1.9h-55.3M386.6 266.2h40.9v-3.8h5.3l.8 6.9-.6 7.7M425 301.2h-5.7l-1.6.5h-31.3v39.5h13.2M385.9 331.7h-11.7v-18.5h-20.6v22.3l-3.8 8.6-1.9.8-1.9 5.1-7.5 5.7-5.1 5.8h-26.7v15.8l5.7 6.3v25.2l-10.3 2.3-2.5 14.3 9.9 1.3.6 4.4 21 13"/>
<path class="st1" d="M374.2 331.7l-9.5 11.4v9.2"/>
<path class="st16" d="M305 426l12.2-8.8 9.7-.2 2.3-15.1"/>
</g>
<g id="P167" class="small-box bn">
<path class="st1" d="M633.7 98.9l-.9-3.6-7.8-.8-3.7 3.8 2.9 5.2 6.5 4 .4-3.6 4.7-.2 2.9-1.4zM583 57.3l-2.5-7.4-3.4.7-1.8 2.5.2 2.3-1.7 2.3-6.3 2.3-3.6 1.5-.4-1.7-3.6 1.7-2.9 2.3-1.9 5.5 1.9 3.5 6.7-.4 4.2-.8 2.3-2.7 1.7-1.3 1.2.6L575 67l-2.7-4.2 1.9-4 2.3.4.2 2.3 2.3 2.3 4.4.4-.6-2.7zM624.8 51l-4.4-.2-2.7-1.7H611l-2.8.4-1.9 1.3-1.6.8-4.7 5.9-5.8.2-4 5.9-.5 4.8-1.4 7.6 2.3 3.4v3.7l-1.1 4.9 2.8 4.2 1.9-2.5 1-2.1 3.8-1.7 3.4-3 5.4-2.7 4.4-.8 4.6-1.5 1.9-3.6 1.7 3.4 2.5-3 2.8-3.3-1.5-3.4v-5.4l3.8-5.9zM639.3 59.8l-2.7 1.9 2.1 3.4 2.7-1.1.2-3.3-1.6-.7zM630.5 68.6l-3.4 1.5-.8 4.2 1.9.4h1l1.3-2.5zM657.6 126l-2.5.2 1.5 2.1h1.9zM626.9 138.2l-3.5 2.1-.5 3.1 2.8-1 2.3-2.3zM625.3 135.3l-3.8 2.9v.6l1.4.7 3.8-2.4zM627.6 143.4l-4.9 3 2.6.8 2.5-1.7zM636 118l-1.9 1.3-.4 2.3 2.7.2.6-1.7zM559.5 73.9l-2.7.6-1.9 1.3 1 .8 3.2-.6 2.1-.4zM588.7 93.9h-3.4l1.5 1.6 2.9.3zM632.8 51.2l-1.7 1.5 1.7 1.9 1.5-.9zM534.1 125.7l5.7 1.5 3 1.3.4 2.7 4.8 7.2 2.7 5.9 4.2 1.1 1.9.4.9-2.5.4-4-.6-3.6-.2-2.1-3.6-.4-5.3-.6-1.7 1.3-.2-3.6 2.1-.6 2.5-1.5s.4 1.9 3.4.8l2.9-1-4.4-7.8-2.3-2.1-1.1-5.3-4.2-4.8-5.5-2.9-5.5 4.4-2.5 4.8-1.5 7.4-1.5 5.7.9-.1 4.3-1.6z"/>
<path class="st1" d="M595.8 196.6l3.2.3 1.3-1.2v-1.9l-3.2-2.6-1.3-1.5.7-3.5 6-.3.6-3.2 1.6-1.5 5.6-.4 3.8 1.3 2.9-1.9 2.2-2.5 4.1.6 1.2-1.2 3-5.1-1.4-3.3.4-3.6-2.7-3.6 1.2-3.3 1.5-4.5-4.6-3.9-1.3-1.7-1.9-4-.2-3.8-2.1-1.1 1.9-2.7 3-4 .4-10.7-.4-4.2-8.9-1.5-4.8-6.7-8.2-.8-5.1 1.6-6.3 3.2-3.2 5.7 1.6 7.9 2.5 5.3-2.8 8.2-4.8 4.1-6.9 9.8 3.2 2.5-9.8 9.4-2.8-.6-2.6 3.4-3.5 4.6-1 1.8 8 2.5 3.5 1 2.5 7.5 4.4 3.8 2.5.6-2.2 1.9 2.8 1.6 2.9 2.8 2.5-.9 2.5.3.7 1.6 4.4 1.9.3.6 1.3-1.6z"/>
</g>
<g id="P168" class="small-box bn">
<path class="st1" d="M520.8 167.3l2.9 1.6.3 3.4-4.7 3.8-.4 5.1-.9 8.2-.3 4.4-2.5 4.1-2.3 10 3.2 1-.3 2.5v5.7l4.7 1.2 2.5 2.6-2.5 7.5-3.1 2.9.9 4.1 5.4 2.5 2.2 3.5 3.4-1.9 1.6-1.6 5.4-.3 1.9-1.9 5.6 1.2 5.4 1v-1.6l5.7-2.8 2.8-1.6 2.2-4.1 7.3-3.1 1.9-2.9 3.4.6 4.4-3.4 1 .6 3.1-1.9h4.4l3.5 2.2 6 .3 2.2-1.2-1.9-3.2 1.9-4.7-3.1-4.4.9-2.2-2.5-4.4-4.4-1.9-.7-1.6-2.5-.3-2.5.9-2.9-2.8-2.8-1.6 2.2-1.9-2.5-.6-4.4-3.8-2.5-7.5-3.5-1-8-2.5-1.6 2.8-2.5 1.1-5.7 1.9-2.5-.9-4-4.8-.2-6.3 3.2-4.6 4.4-6.3 7.1-10.5.8-2.2-1.9-.4-4.2-1-2.7-5.9-4.9-7.2-.4-2.7-3-1.3-5.7-1.5-4 1.5-.9.1-.4 1.4-2.7 2.8-4.4.8.2 4.6v4l-1.7 7.4 1.3 6.7-1.1 3.2-1 4.4-1.2.7.4 1.5z"/>
</g>
<g id="P169" class="small-box warisan">
<path class="st1" d="M478.9 227.8l1.3 1.3 2.5 6.9 2.2 1.9 2.2 2.5.6 6.9.4 3.8 2.5 5.1-2.9 3.1 4.5 8.2.6 2.5 3.8 2.6 3.4-1 1.9 1.9h3.2l.9-1.3 5.1-7.2 2.5-5 1.9-6.3 2.8-6.7 5.1-2.8 2-3.5-1.7-2.8-5.4-2.5-.9-4.1 3.1-2.9 2.5-7.5-2.5-2.6-4.7-1.2v-5.7l.3-2.5-3.2-1 2.3-10 2.5-4.1.3-4.4.9-8.2.4-5.1 4.7-3.8-.3-3.4-2.9-1.6-2.2-2.5-.4-1.5-7.5 5.1-5 9.1-5.3 6.9-2.3 8-4.8 8.4-9.7 4.6-7.1 4.4-6.7 6.3v5.1l-4.8 2.2.7 3.5z"/>
</g>
<g id="P170" class="small-box bn">
<path class="st1" d="M432.6 241.1l-4.4 1.3v3.2h4.6l1.3-2.1zM439.8 255.5v2.6l4.4.9 1-2.5 4.1-2.8.6 5.9 2.9 2.6-.4 1.5.4 3.2 4.7 1.2 2.8-.6h4.7l.7 1.6-1.9 2.5.6 6-4.7 1.9-1.9 2.5 1.6 3.8.9 5.7 2.9 2.8 2.8 4.7 4.1.3 3.8 3.5 1.2 1.3 3.8.9 3.8-3.4 2.2-9.2.9-2.5 4.5-.6 2.2-1.9 3.7-3.8 2.3-2.2 3.4-1.6-1.6-3.5 1.2-3.2-1.5-1.5-3.4 1-3.8-2.6-.6-2.5-4.5-8.2 2.9-3.1-2.5-5.1-.4-3.8-.6-6.9-2.2-2.5-2.2-1.9-2.5-6.9-1.3-1.3-13.2-.9-.7-3.5-5 5.4-6 3.1-5.3 6.9-4.5 6-2.3 3.8-.2 3.5z"/>
</g>
<g id="P171" class="small-box warisan">
<path class="st1" d="M443.6 287.4l4.1-.7 7.6-1.5 2.9-2.3-.4-.9 1.9-2.5 4.7-1.9-.6-6 1.9-2.5-.7-1.6h-4.7l-2.8.6-4.7-1.2-.4-3.2.4-1.5-2.9-2.6-.6-5.9-4.1 2.8-1 2.5-4.4-.9v-2.6l1.9-3.4.2-3.5-1.8 2.8-5 5.1.6 4.4 4.1 1.3-.9 2.5-3.2 5.7-.3 4-2.4 2.6.5.6 3.5-.6h1.6l2.2.3.3 2.8-1.6 2.9-2.5 3.4-.3 3 2.2.2z"/>
</g>
<g id="P172" class="small-box dap">
<path class="st1" d="M429.4 290.2l2.2.3 5.1-.6.3-3.5 2.5-3.4 1.6-2.9-.3-2.8-2.2-.3H437l-3.5.6-.5-.6-1.9 2-2.1 3.6-.8 4.8z"/>
<path class="st6" d="M433.5 282.5l-73.4-7.9"/>
</g>
<g id="P173" class="small-box pkr">
<path class="st1" d="M429 282.6l-.7 1.2.1 2.1z"/>
<path class="st1" d="M436.1 305.3l-3.5-6.6-3.8-6.3-.3-4.2-.3-.8.2-1.5-.1-2.1-.6.8-2.9 5.3 1.7 6.1-1.5 5.2 6.6 2.9z"/>
</g>
<g id="P174" class="small-box warisan">
<path class="st1" d="M440.5 306.6l1.9 2.5h3.1l4.1 4.4 3.5 2.6 4.4 2.2 6.6 1.2 2.8-2.5 4.4-1.3 1.3-2.2 1-3.4 1.2-6.4-.9-.9-3.8-3.5-4.1-.3-2.8-4.7-2.9-2.8-.9-5.7-1.2-2.9-2.9 2.3-7.6 1.5-4.1.7-4.7 2.2-2.2-.2v.5l-5.1.6-2.2-.3-.9-2 .3 4.2 3.8 6.3 3.3 6.3 1.1.7z"/>
</g>
<g id="P175" class="small-box warisan">
<path class="st1" d="M410.5 336.9l8.8-4.8 7.6 1 1.3 5.6.9 5.4 1.9 3.5 2.8-1.9 2.9-2.9 1.6-3.4 4.4-1.3 4.7-2.2 1.9-3.1.3-3.2-.3-3.5 1.6-1.2 1.5 3.1 2.9.7 2.2-1.6 4.7-3.2 2.8-4.1.3-1.4-1.2 1.1-6.6-1.2-4.4-2.2-3.5-2.6-4.1-4.4h-3.1l-1.9-2.5-3.5-.9-1.1-.7.2.3-4.5-1.2-6.6-2.9-.2.5-10.3 10.3-15.1 5.2 4.2 5.3-.6 6.5-1.1 7.3-1.6 4 6.1-1.2z"/>
</g>
<g id="P176" class="small-box bn">
<path class="st1" d="M368 359.9l3.8 2.8 5.3 1.6 3.2 2.2 11 3.4 3.1 2.6 5.7 4.1 6.3 6 5.1 6.6.6-5.4v-2.2l2.8.3 2.6-3.8-.7-2.8 1-5.4 1.5-1.2 3.5-.3 1.3-3.5h1.2l1.9-1.9 2.5-.9-.9-1.9 2.8-2.5-1.2-1.3-1.3-1.9.3-1.9 1.3-2.2.9-3.2-.6.4-1.9-3.5-.9-5.4-1.3-5.6-7.6-1-8.8 4.8-4.1 2.2-6.1 1.2-1.1 3-6.1 6.7-6.5 2.1-8.9 1.7-11.1-.7-1.8-.6v6.1z"/>
</g>
<g id="P177" class="small-box bn">
<path class="st1" d="M366 322.7l-1.3-1.7-3.1-1.3-3 .2 1.3 1.9 4.4 3.2 1.9-1.3zM334.9 395.8l1.2-4.4V380l1.6-1.5 3.5-1 .3-2.2 3.1-4.1 2.9.9 4.1-1.5 8.2 9.1 2.8-3.5 4.1 2.3 2.5.6 4.4 3.8 5.7 2.5 1.6-1 2.8 1.3 2.9-.3v1.9l-.3.9 1.2 4.8v3.1l1.9 1.3 1.3-.3.9 1.8 2.2 1.6 1.3-1.2.9-6 3.8-.3 2.2-2.9 2.2 1.9 2.5 1 1 .6.9-1.6 1.9-1.6.1-2.3-4.2-5.5-6.3-6-5.7-4.1-3.1-2.6-11-3.4-3.2-2.2-5.3-1.6-3.8-2.8-3.2-1.3v-6.1l-6-2.3-4-3.4 2.1-4.6v-2.3l-2.5-2.1-2.7 4-2.5 4.6-2.6 4.2-7.5 6.5-7 8-5.4 5.7-5.1 3.6-4.2 1.6v5.1l-.8 5.4-1.9 6.3.8 1.3 1.9-.4 3.2-4-.8 3.8 2.3 2.1 3.7 2.1 2.6 3.3.6.4 1.5-2.1z"/>
</g>
<g id="P178" class="small-box bn">
<path class="st1" d="M399.8 539.8l.9-5-1.6-1.6-1.3-3.5 1.6-2.8-.3-3.1-2.1-4.8v-5.4l1.6-2.8-.9-1.3-1.9-.6-.9-1.6-1.6-1.6-1.6-4.7 1.6-1.9.9-2.2-.9-2.8 1.6-6.6-1.3-6.3 1.9-4.7 2.2-5.7-1.3-5.7-6-2.2-.9-5 2.8-4.7 1.9-12-1.9-4.7-1.9-.9-3.2-2.2-2.5-.3-1.3-.6 1.3-4.7.9-4.4-.6-3.1V416l1.9-4.1 2.5-8.2 1.9.3h2.2v-3.7l-1.9-1.3-.9-1.9-1.3.3-1.9-1.3V393l-1.3-4.7.3-.9v-1.9l-2.8.3-2.8-1.3-1.6.9-5.7-2.5-4.4-3.8-2.5-.6-4.1-2.2-2.8 3.5-8.2-9.1-4.1 1.6-2.8-.9-3.2 4.1-.3 2.2-3.5.9-1.6 1.6v11.3l-1.3 4.4-4.4 3.5-1.5 2.2 6.7 4.2 10.7 3.8 4.8-2.3 1.7-2.5 1.7 1.7-2.3 2.3 1.3 1.9-1 2.1-1.7-1.3-.8 2.5-2.5 5.7-.6 7.4-1.3 3.6-2.5 1-2.1 3.6-2.5 2.5h-3.4l-3.8 3.2-.2 3.4 4 2.7 6.5.8 5.9-2.1 6.5-2.1 1.9 1.5 2.7 2.5.4 4.6.8 2.9 1.3 1.7-.4 6.3.8 2.1 1.5 1.1 1 6.5.2 5.7-3.4 2.3-3.4 5.7-.8 4.2-3.6 6.5-3.6 3.6-3.4 6.3.4 3.2 2.5 2.3 1.3 1.3-.2 1.5-.8 1.7 1.7 3.2.6 3.2-1.3 2.3-2.3 1.7 2.1 3.6 2.3 4.2 1.9 3.6-.8 4.8.6 3.6 2.3 1.1.6 2.5h1.5l2.3-1 2.1 1.3 2.1 1.3 1.1 1.7.2 5.3-2.1 5.5-2.1 1.9-.2 4.2v4.8l-1.7 2.7.8 2.1 1.5.4.4 2.7.4 2.7 2.5.6 2.1 1.3s0-.8 1.1-2.7l1-1.9-.2-3.8 2.5-4 1.7-1.3 1.9 1.5.8-4.2 4-.4 1.9-4.8 2.7-.2 1.3-.2 2.3 4 3.8-1.9-.4-5 2.7-.2.8-1.3.6-3.6 2.9-.4-1.3-3.6v-4.8l1.3-2.1.6-5.5h.5l-.7-1.4v-.9z"/>
</g>
<g id="P179" class="small-box pkr">
<path class="st1" d="M540.7 355.8l6 2.5 6.3.3 2.5-.3-.3-1.9.9-3.8 4.1-1.9 1.3-6.6 3.1-5.4 1.6-3.4 1.6-7.3 4.4-.6 4.7-1.9h4.1l2.5-3.5 1.9-.6v-1.6l-4.4-4.1-2.5-7.8-4.1-2.9-4.1-1.9-2.5-1.5-1.9-1.9-3.8-.7-1.2.3-3.5-2.8 1.2-3.5 1.3-2.5-1.6-2.2 1-3.1 25.8-17.7 23.3-3.1v-23L572.8 224l-.1-1.7-.2.1-3.4-.6-1.9 2.9-7.3 3.1-2.2 4.1-2.8 1.6-5.7 2.8v1.6l-5.4-1-5.6-1.2-1.9 1.9-5.4.3-1.6 1.6-3.4 1.9-.5-.7-2 3.5-5.1 2.8-2.8 6.7-1.9 6.3-2.5 5-5.1 7.2-.9 1.3h-3.2l-.4-.4-1.2 3.2 1.6 3.5-3.4 1.6-2.3 2.2-3.4 3.5h1.9l5 1.8 2.5 3.5 6.7 1.9.9 1.9-2.2 2.8.6 2.9.3 2.8-.9 4.7 5 2.6-.9 4.1 1.6.6 2.2.3.9 5-.6 3.8-1.9 2.2-1 6.6-.6 1.3-.9 1.6-1 2.8.3 3.2-.6 2.2-.7 1.4.4 1.7 2.8-.6 4.4.6 5.1-1.9.6 2.9 1.9.6 6.3 2.8-.1.2 3.3-.2z"/>
</g>
<g id="P180" class="small-box othersParty">
<path class="st1" d="M680.5 577.3l1.5 4.2 5.4-2.1.9-1.7 16.8.5"/>
<path class="st1" d="M680.5 577.3l1.5 4.2 5.4-2.1.9-1.7 16.8.5M510.7 343.5l-.3-3.2 1-2.8.9-1.6.6-1.3 1-6.6 1.9-2.2.6-3.8-.9-5-2.2-.3-1.6-.6.9-4.1-5-2.6.9-4.7-.3-2.8-.6-2.9 2.2-2.8-.9-1.9-6.7-1.9-2.5-3.5-5-1.8h-1.9l-.3.3-2.2 1.9-4.5.6-.9 2.5-2.2 9.2-3.8 3.4-3.8-.9-.3-.4-1.2 6.4-1 3.4-1.3 2.2-4.4 1.3-1.6 1.4-.3 1.4-2.8 4.1-4.7 3.2-2.2 1.6-2.9-.7-1.5-3.1-1.6 1.2.3 3.5-.3 3.2-1.9 3.1-4.7 2.2-4.4 1.3-1.6 3.4-2.9 2.9-2.2 1.5-.9 3.2-1.3 2.2-.3 1.9 1.3 1.9 1.2 1.3-2.8 2.5.9 1.9-2.5.9-1.9 1.9h-1.2l-1.3 3.5-3.1.3-.4 4.4 2.6 4.7 1.5 3.2 1.3 4.1.6 6.3.3 5 2.3 1 .6 5.6-.6 2.7 8.2-6.4 2.2-4.5 4.1-4.1 4.4-2.8h.9l-1.2 5.7 1.8 6 6.7-3.5 9.1-6 6.9-3.1 6.6-3.2 4.8-6.6-1.6-5.4-.6-10.7 6-6 10-3.4 8.9-2.2 4.1-3.2.2.8.7-1.4z"/>
</g>
<g id="P181" class="small-box dap">
<path class="st1" d="M407.1 537.3l.9-2.5 4.4-2.5 2.5-10.4 2.9 1.8 2.8-1.8 1.9-2.6 1.6-6.9 1.2-2.5 2.2-2.5 1.3-1 1.9 1.9 3.1-2.8 1.9-1.3 1.9-.6v-4.4l-1.2-1.9 1.2-1.9 3.2-2.5.9-6 1-3.2.3-4.4V478l-1.9-3.1-.6-1.3-2.6-2.5h-2.5v-1.6l-.9-5-2.5-3.2-2.3-1.8-2.2-5.1-1.9-.6-2.2 1.6-1.8 1.2v-2.5l-1.3-1.3V450l2.5-2.8.3-4.1v-7.6l.3-3.2 1-4.4v-2.8l1.9-6.3 1.6-5.4-.4-6 1-4.4-.6-5.6-2.3-1-.3-5-.6-6.3-1.3-4.1-1.5-3.2-2.6-4.7.4-4.4h-.4l-1.5 1.2-1 5.4.7 2.8-2.6 3.8-2.8-.3v2.2l-.6 5.4-.9-1.1-.1 2.3-1.9 1.6-.9 1.6-1-.6-2.5-1-2.2-1.9-2.2 2.9-3.8.3-.9 6-1.3 1.2-.3-.2v3.7h-2.2l-1.9-.3-2.5 8.2-1.9 4.1v4.1l.6 3.1-.9 4.4-1.3 4.7 1.3.7 2.5.3 3.2 2.2 1.8.9 1.9 4.8-1.9 12-2.8 4.7 1 5 5.9 2.2 1.3 5.7-2.2 5.7-1.9 4.7 1.3 6.3-1.6 6.6.9 2.9-.9 2.2-1.6 1.9 1.6 4.7 1.6 1.6.9 1.5 1.9.7.9 1.2-1.5 2.9v5.3l2.2 4.7.3 3.2-1.6 2.8 1.3 3.5 1.5 1.6-.9 5v1l.7 1.4 3.7-.2 1 1v-3.2z"/>
</g>
<g id="P182" class="small-box bn">
<path class="st1" d="M577.6 544.5l1.9-3.5 1.6 2.2 3.2-.6 2.5-.9 1.3-4.1-.3-2.2-.6-2.2 1.6-2.2 2.8-4.4.3-2.5-.9-3.2-2.5.3-5-2.8-1.9-3.8-3.5-.6h-8.5l-2.2-1.6-4.7-3.8-2.5-4.4-6.3.3 2.8-3.5 1.9-2.8 2.2.9.9-2.8-1.6-3.5h3.5l-2.2-4.7-2.2-.9-1.9-.6-1.6-1.6-.9-3.2-3.8-2.8-.3-2.8-2.5-3.8-3.8-1.3-.3 4.4-4.4-.9-2.5-1.6h-3.8l-3.8.9-1.6 2.2-4.1 1.3.3 3.2-1.9.9-.6 4.7-6-3.8-2.8-1.6-.3-7.6-2.5-2.2-4.1-12.9.6-7.3-.6-4.7 3.2-4.4-.6-7.9-2.2-3.5-2.5-6.3-5-3.1-5-11.7.6-5 5.4-6.6 3.5.3 3.5-2.8 3.5-2.2 4.1.6 2.5-1.6-.9-3.1-2.2-2.5-1.6-4.7 3.2-1.3.9-6.3.3-3.5 4.4-1.3 4.1.9 5-.9v-3.5l-2.8-1.9-1.3-3.5 1.9-2.5 3.5-4.7-6.3-2.8-1.9-.6-.6-2.8-5 1.9-4.4-.6-2.8.6-.6-2.5-4.1 3.2-8.8 2.2-10.1 3.5-6 6 .6 10.7 1.6 5.4-4.7 6.6-7.4 3.1-6.9 3.1-9.1 6-6.6 3.5-1.9-6 1.3-5.7h-.9l-4.4 2.8-4.1 4.1-2.2 4.4-8.1 6.5-.4 1.7.3 6-1.6 5.4-1.9 6.3v2.8l-.9 4.4-.3 3.2v7.6l-.3 4.1-2.5 2.8v2.8l1.3 1.3v2.5l1.9-1.3 2.2-1.6 1.9.6 2.2 5 2.2 1.9 2.5 3.2.9 5v1.6h2.5l2.5 2.5.6 1.3 1.9 3.2v1.3l-.3 4.4-.9 3.2-.9 6-3.2 2.5-1.3 1.9 1.3 1.9v4.4l-1.9.6-1.9 1.3-3.2 2.8-1.9-1.9-1.3.9-2.2 2.5-1.3 2.5-1.6 6.9-1.9 2.5-2.8 1.9-2.8-1.9-2.5 10.4-4.4 2.5-.9 2.5-1.9 2.5v3.1l1.4 1.4 1.9 4.2 4.6.6 2.3-1.1 3.8 1.3 2.7 1.7 2.9.8 1.3 2.9 4.2 3.8 3.8.6 1.7-1.5 2.1-2.1.4-2.7 1.5-1.5 3.2 1.1 3.4-3.2.6-5.7 1.3-1.9 4.2 3.4 5.5-1.5 4.8 2.5s0 2.1 4.6-.2l4.6-2.3 4.4-1.3 4 1.9 1.5 2.7 5-.2 1.3 4.2 2.9 1.9.2 5.8c.1-.2.6-.7 4.4-2 1.7-.6 2.5-.8 2.9-.7l1.1-4.3 4.6 1.7 3.8-1.1-1.7-3.4 1.7-5.5 4.2-1.3V539l3.2 4.4s.2 1.1 1.9.6l1.7-.4 1.3 3.2.6 3.6 4.6-.6 3.4-1.5 1.5 1.3 3.8 1.1 4.2-1.9 2.1-2.9-.2-3.8 3.2-.2 4 4.8.4 2.1s0 2.3 1.9.8l1.9-1.5 1.5.8 3.4 2.9s.4.2 4.6-1.5l4.2-1.7 3.6-3.8 4.6 1 1.2 1 1.7-1.3.9-1z"/>
</g>
<g id="P183" class="small-box bn">
<path class="st1" d="M666 152.5l-2.1 2.9-.4 2.5 3.1-2.1zM667.9 155.2l-2.5 2.5 1.9 1.5 1.4-2.1zM660.6 151.6l-1.1 2.6h3.4l.4-1.9-2.1-.7"/>
<path class="st1" d="M666 152.5l-2.1 2.9-.4 2.5 3.1-2.1zM667.9 155.2l-2.5 2.5 1.9 1.5 1.4-2.1zM660.6 151.6l-1.1 2.6h3.4l.4-1.9-2.1-.7M680.5 577.3l1.5 4.2 5.4-2.1.9-1.7 16.8.5M695.6 269.5l-2.1 2.5-.6 4.4-1 4.5-4.5 3.5 4 .5 2.6-3.8 2.3-4.7v-4.8zM686.2 285.3l-2.5 1.7 3.5.6z"/>
<path class="st1" d="M657.4 148.1l-2.9 2.5-7.6-.6-3.4 2.5.9 2.9 5.9 3.2-.9 2.9-3.8 1.3-5.8-1.3-4.5 1.3-3.1 3.8 6.7 3.1 9.9 1.3 10.5-3.6 3.1-3.8v-3.8l-2.9-3.5-1.9-4.2 4.2-1.1-.6-2.1-3.4-2.1z"/>
<path class="st1" d="M574.4 340.3l3.5 2.5 2.2.3 2.8-.9 1.6 1.9 3.2 2.5 3.8-.9 2.5-1.6 3.1 1.6-.9 4.4 5 2.8 1.3-.6 2.5-.9.9-.9 2.8.6 2.5.9 1.9 1.3h4.1l10.1-3.2 3.5-4.1s.9-3.2 2.2-5c1.3-1.9 5.4-3.5 5.4-3.5l28-9.8 13.2 1.6 6.6-4.7 7.9-4.1 3.5.3-14.5-24.6 2.8-5.3-2.7.3-9.2-1.1-9.2 2.9 7.6-4.4 7.1-1.5 5.5-2.7 5.9-4.6.4-4.4-1.3-1.5-3.2-1.9-1.1-2.1-2.3 2.3-1-3.4 4.4-4.4-.4-5.9-2.1-2.1-4 1.9 1.2-2.9 1.9-1.1-4.2-4.8-1.2-7.5 6.9-5.7 1.5 2.7 2.9-4.6 4.4 1.1 3.4-1.5 1.3-8.2-2.1-12.8 2.9-3.4 1.7-7.6-5.9-3.4-9.7-7.8-4.6-2.1-5 .6-8.4-8.6-4-10.3-5.3 10.7-3.4 5.3-5-3.8-8.2-4.6-.6-4-10.3-1.1-2.7-.4-.3-.7-3 5.1-1.3 1.3-4.1-.6-2.2 2.5-2.8 1.9-3.8-1.3-5.7.3-1.6 1.6-.6 3.2-6 .3-.6 3.5 1.3 1.6 3.1 2.5v1.9l-1.3 1.3-3.2-.3-1.9 2.5-1.2 1.6 2.1 3.8-.9 2.2 3.1 4.4-1.9 4.7 1.9 3.2-2.2 1.3-6-.3-3.5-2.2H581l-3.1 1.9-.9-.6-4.2 3.3.1 1.7 35.6 17.3v23l-23.3 3.2-25.8 17.6-.9 3.2 1.6 2.2-1.3 2.5-1.3 3.5 3.5 2.8 1.3-.3 3.8.6 1.9 1.9 2.5 1.6 4.1 1.9 4.1 2.8 2.5 7.9 4.4 4.1v1.6l-1.9.6-2.5 3.5h-4.1l-4.7 1.9-4.4.6-1.6 7.2-.7 1.5 5.1.4 3.6 3.1z"/>
</g>
<g id="P184" class="small-box bn">
<path class="st1" d="M685.9 290.9l-2.8 5.3 14.5 24.6h-.6l1.6 1.4.4 1.8 6.6-1.9 12-11 1.3-5 2.2-.3h2.2l4.4-2.2.9-7.2h3.5l7.2 2.2 6-2.8 12.5-3.3s5-.8 2.1-3.7c-.3-.3-.7-2.6-.7-2.6l-1.8-.9 1.3-4.3-2.1-5.1-3.5-5.3.1-3.3-9.9-2.1-8.3 8.8-7.9 5.9-.4 2.3-9.8 3.4-13.6-1.6.8 3.3 3.4 3.4-3.1.1-5.8.9-8.2-1.3-4.5.5z"/>
</g>
<g id="P185" class="small-box warisan">
<path class="st1" d="M752.2 301.5l2.2 2.8 1.2 1-2.3.6h-6.4l-4.7-.3-4-.3 7.9 8.9-5.8 3.7-10.3-6.4 5.1 7.3-1.9 3.2 2.6 4 8.7-1.4 3.2-2.1 2-1.6 5.1-.8.5 2.4 3.7-.5 2.1 1.3 2.7 3.3h.7l-.1 5.2-5.6-.6-1 3.2 1 4-6 .6-7.8-.9-9.8 1-2.6-1.3 1.6-3.5-3.7-1.6-3.8-1.5-7.4 7.6-5.9-7 1.9-6-5.3 2.5-4.5-2.2-4.7 1-1.1-3.5 5.7-1.6 12.1-11 1.3-5 2.2-.3h2.2l4.4-2.3.9-7.2h3.5l7.2 2.2 6-2.8 6.2-1.6v5l.8.7v1.8"/>
</g>
<g id="P186" class="small-box dap">
<path class="st7" d="M765.3 289.4l-.5 6 4.8 2.5-1.4 2.5-12.6 4.9-1.2-1-2.2-2.8v-1.7s-.8-.9-.8-.7l.1-5.1 8.1-2.2s1-.3 1.2-1.9l4.5-.5z"/>
</g>
<g id="P187" class="small-box bn">
<path class="st1" d="M768.5 303.9l5 .3 4-1.9 2.4-2.4-6.1-1.6-4.7.8z"/>
<path class="st1" d="M596.2 517.1l3.8-.3 5.7-1.9-6.6-6.6-1.6-2.2h-2.2l-1.6-3.8 1.3-7.3 1.9-5.4 6.9-1.3h5l5.4 4.1 10.4-4.1 2.8-2.8-.6-3.5 1.6-2.5 2.8-.3.9-1.6 5.7 2.8 1.3 3.5 1.9-1.9 1.3 3.2 1.3 3.8 5 2.8 4.1 1.3 3.5-3.8 6-5.7-1.9-2.8-2.2-5 .6-6 1.6-2.2-.6-1.3 1.3-2.8h.9l2.5-1.3 2.2-2.2-1.6-4.7.6-1.3-2.5-4.4 2.5-2.2.9.6 2.5-.9-.3-1.6 3.2-.3 3.5-.6 2.2-1.6 2.2-1h2.5l1.3-1.9-1.9-1.9 3.2-1.9 6.3-1.9 1.9-3.8.9-5.4-1.3-.9v-2.8l1.3-2.2 3.2-.6-1.3-3.2 1.6-1.9.6-2.5 4.4-3.2 2.8-.9.6-1.6 2.2-1.9.3-3.2 2.8.6 8.5 3.8 2.8-2.2h4.7l4.7 1.9 6.3 4.4 42.5-7.3 4.1.3 9.1-5.4.9-1.3 5-6 85.4 1.6 6-7.6v-5.7l4.4-3.8-1-9.1-1.6-.2-17.2-11.6-1 10.5-2.3-4.6v-6.7l-13.4-6.9-10.9-13.6-5.1-.3-4.3 4.1-1 8.2-3.5 5.9-2.3-3.6 3.8-11.8 4.8-3.6-16.2-14.4-25.3-14.7v5.4l-.3 2.3-4.8-5.9-7-3.1-4.5-.3-4.5 4.3-4.2 1.6-5.8.8-1.3 1.6 2.6 4-1.6 5.1-2.1 2.7 1.6 6.2-2.8.6v5.3l-5.7-.6-.9 3.2.9 4.1-6 .6-7.9-.9-9.8.9-2.5-1.3 1.6-3.5-3.5-1.6-4.1-1.6-7.2 7.6-6-6.9 1.9-6-5.4 2.5-4.4-2.2-4.7.9-1.2-3.4-.7.2-.3-1.9-1.7-1.3-2.8-.3-7.9 4.1-6.6 4.7-13.2-1.6-28 9.8s-4.1 1.6-5.4 3.5c-1.3 1.9-2.2 5-2.2 5l-3.5 4.1-10.1 3.2H613l-1.9-1.3-2.5-.9-2.8-.6-.9.9-2.5.9-1.3.6-5-2.8.9-4.4-3.1-1.6-2.5 1.6-3.8.9-3.2-2.5-1.6-1.9-2.8.9-2.2-.3-3.5-2.5-3.8-3.2-5.1-.4-.9 2-3.2 5.4-1.3 6.6-4.1 1.9-.9 3.8.3 1.9-2.5.3-6.3-.3-6-2.5-6.6-2.5-3.3.2-3.3 4.5-1.9 2.5 1.3 3.5 2.8 1.9v3.5l-5 .9-4.1-.9-4.4 1.3-.3 3.5-.9 6.3-3.2 1.3 1.6 4.7 2.2 2.5.9 3.1-2.5 1.6-4.1-.6-3.5 2.2-3.5 2.8-3.5-.3-5.4 6.6-.6 5 5 11.7 5 3.1 2.5 6.3 2.2 3.5.6 7.9-3.2 4.4.6 4.7-.6 7.3 4.1 12.9 2.5 2.2.3 7.6 2.8 1.6 6 3.8.6-4.7 1.9-.9-.3-3.2 4.1-1.3 1.6-2.2 3.8-.9h3.8l2.5 1.6 4.4.9.3-4.4 3.8 1.3 2.5 3.8.3 2.8 3.8 2.8.9 3.2 1.6 1.6 1.9.6 2.2.9 2.2 4.7h-3.5l1.6 3.5-.9 2.8-2.2-.9-1.9 2.8-2.8 3.5 6.3-.3 2.5 4.4 4.7 3.8 2.2 1.6h8.5l3.5.6 1.9 3.8 5 2.8 2.5-.3.3 1.1 3.8-1.4 1.8-3.5z"/>
</g>
<g id="P188" class="small-box warisan">
<path class="st1" d="M812.5 472.4l-3-.4s-.8-.8-1.3-.8c-.6 0-2.3.4-2.3.4l-1.1 1.3 1.3 1.7 2.3-1.3 4.1-.9zM807.9 475.8s-2.1.9-.9 1.5l1.1.6-.2-1.5M797.8 471.1l-2.3-1.3-.6 1.1v.6l1.9.3zM791.5 468.6l-1.6-.7-.2.9 2 1z"/>
<path class="st1" d="M949.8 397.2l-1.9-1.3-1.8-3.2 2-5.7 1-3.6-3.3-9.3-7.3-8.7-9.6-3.1-1.3-2.3h-6.1l-.2 3.3 1.3 2.6-2.5 4.4h-9.3l-9.6-4.6-6.3-.8 1 9.1-4.4 3.8v5.7l-6 7.6-85.4-1.6-5 6-.9 1.3-9.1 5.4-4.1-.3-42.5 7.3-6.3-4.4-4.7-1.9h-4.7l-2.8 2.2-8.5-3.8-2.8-.6-.3 3.2-2.2 1.9-.6 1.6-2.8.9-4.4 3.2-.6 2.5-1.6 1.9 1.3 3.2-3.2.6-1.3 2.2v2.8l1.3.9-.9 5.4-1.9 3.8-6.3 1.9-3.2 1.9 1.9 1.9-1.3 1.9h-2.5l-2.2 1-2.2 1.6-3.5.6-3.2.3.3 1.6-2.5.9-.9-.6-2.5 2.2 2.5 4.4-.6 1.3 1.6 4.7-2.2 2.2-2.5 1.3h-.9l-1.3 2.8.6 1.3-1.6 2.2-.6 5.9 5.6 1 5-2.9 1.3 2.5 1.7.4 2.9 3.4 1.3 4.6h3.4l5.9-4.2 3.4 3.4 4.2.8 3.8-2.5 2.9-4.2 2.5-.8 1.7 3.8 3.4 3.4-.4 1.7 2.1 2.5 1.3 4.6 3.4 2.1 3.4 2.1v2.1l1.7 1.7 1.7 5.5 6.3-4.6 6.3-4.2 11.3-.4 5.5-.8 8 5.5 6.3 2.5 7.6.8 8 2.1 5 6.6 1.3-1.6 2.5-2.9 4.6-.4 1.3-2.9 2.9-2.5.5-3.3-1.9.2-.8-3.8-2.4-2.6h-2.3l-4-3.6-2.3-3.4-1.9-.4.2-1.7-2.1-1.5-1.7-3-2.1-2.3 1.3-2.8-.9-3.4-2.8-3.2-2.1-3.2-1.7-.4s-.8 1.3-2.8 0l-2.1-1.3V459l3.4-.9h1.3l1.5-4 4-1.9v-2.1l1.7-2.1 4.5-2.6 6.6-.6 6.8 1.5 4.1-.9 8.5-3-.2-1.1-3.2.6-2.6-2.1-1.9-.8-1.9 1.1-2.3-.2 1.5-3.6 4.5-1.3 5.3 1.1 2.3-1.5 3 2.1 2.8.6 2.6 1.9.4 2.8.2 2.3.4 2.3 3 3.2 4 1.3 4.7-.6 3.8-5.5 4.7 1.3 3-.2 3.8.8s.8-.2 4.7 0l4 .2 3.4-1.1 3.2-1.3 5.3.8 4-2.3 6.2-2.4 7.5-2.6 9.2-6 12.8-4 10.2-1.5 17.1-7.2 9.2-7.9 3.4-3.8.4-2.4 2.3-1.1 2.1-4.9-1.1-2.2z"/>
</g>
<g id="P189" class="small-box warisan">
<path class="st1" d="M815.9 492.9l-1.7.8-5.5.2-4.3.4-4-.6-3.4 1.7 2.8 2.1 6.4-.6 2.7 1.3 3.9 1.5 3.8 1.2 2.5 1.3 3.5.9 1.7-1.9 2.7 2.3 4.5 1.3.7-2.6 1.7.5 1 2.3 1.3-.4.6-2.6 1.7-1 2-1.6-3.2-2.7-4.7-2.4-2.2 2.2-4 .2-2.3-2.8-1.1-1.9-2.4-3.8h-1.7l-4.6 2.9zM815.7 488l-2.3 1.6-3-.6-2.3-1.3 2.9-1.5 2.6.7zM822.6 484.3l-1.8-.8-3.8 1v1.5l2.4.5 2.9-.9zM839 509.9l-2.6.9-3 1.9-3 1.5v1.5l3.5-.9 1.7-.8 1-1.1h3.2zM844.5 510.1h-1.3l-1.2 1.1 1.5.2 1.9-.4zM862.2 502.2l1.9-2.3 2.6-.7 4.7.9 1.9 1.3 2.1 2.3-2.6 2.8-.2-1.9-.4-1.9-2.1-.7-2.2-1.1h-1.7v1.7l-2.9 1.3zM847.9 521.4l.2 2.3 1.9 2.4 2.2 3.2 1 2.5-1 1.7 1.7 1.3 3.6-3.4 3.4-1 4.1.2 2.7-1.9-2.5-1.5-3.7-.7-2.1-1-2.1-1.7-1.3-1.8h-3.8l-3.2-.8z"/>
<path class="st1" d="M793.8 506.1l-1.3 2.9-4.6.5-2.5 2.9-1.3 1.6.4.5.4 6.3.9 5.1-.9 6.3 3.8 5 5.1 1.7 5.4 5 4.7 3.2 2.7-.3 4.4 1.7 4.5-.3 3.6-1.4 5-1.7 4.6 1.4 6-.4.2-2.3v-2.1l3.8.2 2.2-3.7 1.1-1-1.5-1.7-2.6-1.7 4.1-1.5 1.5 4.4 3.1.1 2-4.1 2.7-2.1-1.9-1.1-2.1-1.7-.9-2.8-3.2-1.7-1.5-1.3-2.7.7 1.2-2.8 1.7-1-2.9-1.3-6-.2-4 3.4-1.8 1.5-6.8-3.4-3-.7.7-2.1 4 .8 3.6 1.3 1.3-.8.7-5.1-4.3-3-2.5.4-3.5-4.1-3.1-1-2.2 3-1.9-.5-3.2-1.9-2.5-4.3-.3-1H801l-3.7.4-.6 3.3z"/>
</g>
<g id="P190" class="small-box pkr">
<path class="st1" d="M802 547.1l1.2.1.7-.1-4.7-3.2-5.4-5-5.1-1.7-3.8-5 .9-6.3-.9-5.1-.4-6.3-5.4-7.1-8-2.1-7.6-.9-6.3-2.5-8-5.5-5.4.9-8 .3-2.6 32 .5 3.8.8 3.4-.4 6.3 1.7 9.2-.4 3-3 2.1-1.7 3.3-3.6 2.2 4.9 1.4 3.6-1.9 4 2.7 3.1 2.1h4.4l7.2-2.7 6.1-4.2 3.9-1.5 6.1-2.7 10.8.2 3.7-3 5.4-2.5 11.7.3 2.1-1.1z"/>
</g>
<g id="P191" class="small-box warisan">
<path class="st1" d="M680.5 577.3l1.5 4.2 5.4-2.1.9-1.7 16.8.5"/>
<path class="st16" d="M680.5 577.3l1.5 4.2 5.4-2.1.9-1.7 16.8.5M732.2 591.4l1-2.9v-4l-.6-2.8-1.5-2.7-3.1-4.6-3.8-3-.8-5.6.6-2.6 2.3-.4"/>
<path class="st1" d="M732.4 557.4l3-2.1.4-3-1.7-9.2.4-6.3-.8-3.4-.5-3.8 2.6-32-3.4.1-6.3 4.2-6.3 4.6-1.7-5.4-1.7-1.7v-2.1l-3.3-2.1-3.4-2.1-1.2-4.6-2.1-2.6.4-1.7-3.4-3.3-1.7-3.8-2.5.8-2.9 4.2-3.8 2.6-4.2-.9-3.4-3.3-5.9 4.2h-3.3l-1.3-4.7-2.9-3.3-1.7-.4-1.3-2.6-5 3-5.6-1v.1l2.2 5.1 1.9 2.8-6 5.7-3.4 3.8-4.1-1.3-5.1-2.8-1.2-3.8-1.3-3.2-1.9 1.9-1.2-3.4-5.7-2.9-1 1.6-2.8.3-1.6 2.5.7 3.5-2.9 2.9-10.4 4-5.3-4h-5.1l-6.9 1.2-1.9 5.4-1.3 7.2 1.6 3.8h2.2l1.6 2.2 6.6 6.6-5.7 1.9-3.7.3-1.3 3.5-3.8 1.4.6 2.1-.3 2.5-2.8 4.4-1.6 2.2.6 2.2.4 2.2-1.3 4.1-2.5 1-3.2.6-1.6-2.2-1.8 3.4-1.3 1.6-1.7 1.3 1.7 1.4 6.9.4.7 3.3 2.9-.2 3.6-3.1 5.9 1.2 6.3-1 6.3-1.5.8 1.9 6.1.2 3.4-5h4.8l5.2 5 .9 3.2 4.2 2.3 6.5 2.9 2.7 1.5 2.1 2.9 4.7 1.5.4 1.7 3.1 2.5-1.2 2.5 5.9 3.6 4.6 2.7 4.4.9 3.8.2 3.5-1.9 2.8-1.3 2.9 2.1 3.2 1.3.8-1.3-.6-2.9-3.6-3.2 1.3-1.9-6.3-5 7.1 2.9 3.8-1.6 2.7-2.6-.4-1.8.4-3.8-4-1.9.2-7.6-4.2-6.1-2.3-3.6 5.3-.2 2.5-2.5 3.6.4.8 1.7 3.2.9-.2 1 2.5 2.3 5.4 3.2 4.2 3.5 4.4 2.1 4.5 1.1 2.9 3.4 4.8 3.3 2.8 4 1.8.5 3.6-2.2z"/>
<path class="st1" d="M697.5 560.3l-2.9 1.1-2.3.8-3.4 2.9-4.2 4 .9 2.8 2.9 1.6 4 2.4 5.7-.9 7.5 3 10.1.2 8.8-.7h4.4l-1.6-3.1-3.9-1.4-1-.3-6.3-1.3-6.1-2.7-.4-1.7-1.5-3.1-3.9-2.1zM689.3 538.9l-1.9-2.5-3.5 1.6 1.2 3.2 2.3-.4z"/>
</g>
<g id="text">
<text transform="translate(596.52 155.2)" class="st4 st5">
      P167
    </text>
<text transform="translate(539.89 196.92)" class="st4 st5">
      P168
    </text>
<text transform="translate(488 222.72)" class="st4 st5">
      P169
    </text>
<text transform="translate(462.08 256.34)" class="st4 st5">
      P170
    </text>
<text transform="translate(436.8 275.74)" class="st4 st5">
      P171
    </text>
<text transform="translate(331.86 277.45)" class="st4 st5">
      P172
    </text>
<text transform="translate(400.9 298.08)" class="st4 st5">
      P173
    </text>
<text transform="translate(448.39 302.48)" class="st4 st5">
      P174
    </text>
<text transform="translate(409.82 319.96)" class="st4 st5">
      P175
    </text>
<text transform="translate(394.5 360.11)" class="st4 st5">
      P176
    </text>
<text transform="translate(350.9 372.62)" class="st4 st5">
      P177
    </text>
<text transform="translate(363.33 457.11)" class="st4 st5">
      P178
    </text>
<text transform="translate(531.3 293.81)" class="st4 st5">
      P179
    </text>
<text transform="translate(463.13 343.53)" class="st4 st5">
      P180
    </text>
<text transform="translate(394.85 441.47)" class="st4 st5">
      P181
    </text>
<text transform="translate(467.69 469.25)" class="st4 st5">
      P182
    </text>
<text transform="translate(678.88 256.46)" class="st4 st5">
      P183
    </text>
<text transform="translate(733.47 260.92)" class="st4 st5">
      P184
    </text>
<text transform="translate(714.16 323.13)" class="st4 st5">
      P185
    </text>
<text transform="translate(769.82 282.9)" class="st4 st5">
      P186
    </text>
<text transform="translate(685.15 361.51)" class="st4 st5">
      P187
    </text>
<text transform="translate(802.34 420.1)" class="st4 st5">
      P188
    </text>
<text transform="translate(824.58 491.4)" class="st4 st5">
      P189
    </text>
<text transform="translate(739.66 537.77)" class="st4 st5">
      P190
    </text>
<text transform="translate(663.67 522.71)" class="st4 st5">
      P191
    </text>
</g>
</svg>