<svg xmlns="http://www.w3.org/2000/svg" version="1.1" viewbox="0 -20 1240 697" preserveaspectratio="xMidYMid slice" id="svgN">
<g id="N1" class="small-box bn">
<path class="st1" d="M419.2 94.8l3.5-1.9 2.2-5 4.5-3.3 2.2-7.8c-1-.8-1.8-1.8-2-2.9-.6-3-1-6.4 2-8.3 2-1.3 6.6-1.3 6.4-4.7-.2-3.4-2.7-5-5.4-6.7-1.4-.9-2.7-1.1-4.4-1.4-1.4-.3-2.8.6-4.1 0l-1.1-.5c-.2 0-.5.5-.7.4-.6-.2-1.3-1.1-1.7-1.5-1-.8-.6-3.3-.5-4.3a23 23 0 0 1 2.4-8.5c1.8-3.7-2.1-3.8-4.4-2.7-2.6 1.3-5.9 3.1-8.8 3.6-.5.1-1.5-.3-1.9 0l-2.1 1.5c-1.6.7-3.6.9-5.2 1.4-3.5.9-7.1.4-10.7.3h-4c-1.2 0-3.9-1.2-4.1.6l1.5.1c-1.2.5-2.6 1.1-3.8 1.2-1.1.1-3.3-.3-4 .5-.2-1.4-.8.3-1.3.3a12 12 0 0 1-3.3-.6c-.3-.1-.7.2-1 .1-.5-.1-.8-.8-1.4-.6-.9.3-1.2 1.4-1.7 2.3-2.5 4.1-2.1 8.6-3.7 13-.7 1.9-.3 4.5-.2 6.5.1 1.8 1.5 3.5 1.9 5.3.4 1.7 2.6 3.5 4.1 4.4 1.1.7 1.6.2 2.8.4.4.1 2.2 1.5 1.8-.1l3.6-.2c1-.1 3.2.6 3.6-.2.8 1.3 2.1 1.2 3.3 1.9 1.4.7 2.9 1.3 4.5 1.9 2.7 1 5 2.9 7.3 4.6a44 44 0 0 1 3.2 2.9c.6.5.9.7 1.6 1 .8.3.6.9 1.1 1.5 1.9 2.4 3.8 4.5 6.1 6.4.9.7 1.3 2.1 1.6 3.2.4 1.1-1.1.6.3 1.5a5 5 0 0 1 1.7 1.8l1.7 2.7 6.5-6.3.1-3.8z"/>
</g>
<g id="N2" class="small-box pkr">
<path class="st1" d="M491.9 86.1c-.8-1.2-5.9-4.8-5.2-6.2.7-1.3 1.4-2.7 2.3-3.9 1.2-1.6-.9-2.5-2.3-1.7-2.7 1.5-2.5 4.8-5.2 6.1-1.4.7-2.6.6-4 1.3-1.5.8-1.1 2.5-.8 4 .2 1.2-2.4 1.5-3.1.7-.9-1-.3-3.5-.1-4.7.3-1.8.1-2.4-.8-4a5.4 5.4 0 0 1-.4-4.3c.3-1.3 2-1.9 2.6-3.3.8-2-1.1-1.8-2.4-1.8-.9-.1-2.6 1.2-3.2 1.9-1.2 1.3-2.1 1.9-3.9 1.9l-2.3.2c-.6.1-1 .8-1.6 1-.7.2-1.1.3-1.5-.2-.8-1-.5-1 .2-2.1.8-1.2 1.8-2.2 1.4-3.7a8 8 0 0 0-2.1-3.8c-2.2-1.9-5.8 1.6-8 2.3-1.9.6-2.4.1-4.2-.8-1.5-.7-2.8.4-3.6 1.3a12.2 12.2 0 0 0-2.7 8.6c0 1.6.1 2.3-1 3.6-1 1.1-3.2.5-4.3.2-1.2-.3-2.7-1.1-3.9-2.1l-2.2 7.8-4.5 3.3-2.2 5-3.5 1.9-.4 3.7-6.5 6.3c.7 1.4 1.4 2.7 1.8 4.4.3 1.3.5 2.8 1 4 .8 2 2.3 1.5 3.8 2.7 1.2.9 2.3 1.1 3.8 1.3 1.3.2 2 2.3 3.3 2.1 2.2-.4 2.5 0 4.4.9l2.3-2.5 2.5 2 4.1-4.8 13.7 10.7 9.4-14.5 6.1-4.3-1.5-3 6.1-6.1 7.2-.9c-2.5-.1 2.5-4.9 2.6-5.5.1-.9-1-2.7-1.3-3.6-.5-1.3-.7-2.2-.9-3.6 2.2.3 6.5.4 8.1 2 .4.4 1.3.9 1.4 1.5.3.8.2 1.3 1 1.5 2 .7 1.3-1.6.5-2.8z"/>
</g>
<g id="N3" class="small-box bn">
<path class="st1" d="M489.1 146.9l32.2-11.2 64.2 4.8 16.7 14-3-25.3 1.5-1.5v-5.1l1.5-2.8-.8-3.3-2.4-4a12 12 0 0 1-3.6 3.5c-.1-.6-.7-2.3-1.5-1.6l-1.4.9c-.6.3-.8-.2-1.4 0-1.4.4-1.5.9-2.6 1.7-.4.3-1.1 1.1-1.5.8-.4-.4-.7-.6-1.3-.6.2.8.2 2.3-.5 3-.2.2-.7-.3-1 .1-.5.6.1 1-.2 1.5-.2.3-2.2 1.9-2.5 1.8-.9-.2-1.4-2.6-1.6-3.2-.3.3-.8 1-1.3 1.2-.5.2-1.3-.4-1.8-.3-.4.1-.6.8-1.1.8-.5 0-1.3-.2-1.8.1-1.2.8-.2 2.3-1.4 3.1-.7.5-2.6-.7-3.3-1.1 0 2.1-1.9.2-2.8.4-1.7.4-2.3.2-3.5-1.1-.3-.3-1.1.4-1.4.6-.4.2-1.3-1.2-1.5-1.5-.9-1-1-1.5-1.3-2.9-.9.7-2-.6-1.8-1.5.1-.4 1.1-.8.9-1.2-.2-.4-.7-.9-.7-1.4.1-1.2 1.3-1.8 1.2-2.9-.1-.9-1.5-.3-1.2-1.9.2-.9-.1-2.6.3-3.4.2-.5 1-.7 1-1.3v-1.8c0-.6.1-1.2-.1-1.7-.1-.6-.8.1-1.2-.1-.4-.3-.8.5-1.1.1l-1-1.1c0 2.3-3.9 2.5-5.5 3.2-1.1.5-2.4.2-3.5.8-1.5.9-1.5 2.2-3.4 1.8-.7-.2.5-2.4.7-2.9.1-.2-.6-1-.9-1-.8 0-.8 1.2-1.2 1.3-2.5.9-.8-5.3-4.1-2.8-.6-1.8-.5-1.8.6-3.4a3 3 0 0 1-2.3-.1c-.2 1.5.7 3.2.9 4.7-1.1-.4-1.9-.1-2.9-.9l1.5-2c-1.5-.1-1.8-.5-2.3.9-.4 1.3-1.7.7-2.7 1.4-.8.5-.9 2.1-2.1 2.1-1.2 0-.8 2-2.5 1.3-1-.4-1.4-1.7-1.4-2.6 0-1.8.8-.8 1.4.2 1.1 1.8 3.5-3.1 3.9-3.7.6-.8 5.3-2.2 3.5-3.2-.2-.1-2.2.8-2.6 1-1.2.4-2.1.5-3.4.6-.5 0-2.5.3-2.9 0-.5-.5-.5-3.2-.7-3.9-.2-1-.2-2.1-.3-3.1-.1-1-1.1-2-1.7-2.8.1 3.6-.3 7.1-.5 10.7-1.1-.1-1.6-2.7-2.2-3.7-1.1-1.6-1.1-2.2-1.1-4.2-2.3.2-2 .2-1.9 2.5.1 1.3.6 2.7.9 4-2.8-.6-5.3-1.6-7.9-2.6-2-.8.2-1.8 1.3-2.3 1.2-.6 1.6-1.9 3-2.1-1.2-1.3-3.5-2.1-4.4-3.6-.6-1-.3-5.3-1.7-4.5-1.3.8-1.7 4.1-2.7 5.4-.7.8-1.3 1.3-1.4 2.4-.1.8.6 2.7.4 3.3-.9 2.5-3.2-.6-3.7-1.6-.6-1.2-3.1-4-3.9-1.2-.3 1.1.1 1.7-.1 2.7-.2 1.6 0 1.7-1.5 2.2-2.2.7-2-3.8-2.2-5.1-1 .4-2 1-3.1.9-.9 0-3.1-.7-3.4.4l-1.3 4.6c-.3 1.1-2.4.4-3.4.3l-7.2.9-6.1 6.1 1.5 3-6.1 4.3-9.4 14.5-13.6-10.7-4.1 4.8-2.5-2-2.3 2.5.2.1 4.7 2-.6.6c3.2 1.7 5.7 3.8 8.5 5.9-.5.4-.4.9 0 1.4 1.6-1.6 5.6 3.7 6.8 4.5 1 .7 2.3 2.1 3.4 2.5.5.2 1.8.4 1.9.9.2 1.1.4 1.2 1.2 2 .6.5 1.1 1.3 1.8 1.7.8.5 1.2 0 1.5 1 .4 1.4 1.4 3 2.9 3.5.9.3 1.5.2 1.4 1.2-.1.9.2 1.1.8 1.8l2.6 3.5c.7 1.1 1.5 2.4 2.6 3.1 1.1.6 1.4 2.5 1.9 3.6l3.8 8.1c.8 1.7 1.3 3.4 1.9 5.1l19.3-7.3-8-18.6z"/>
</g>
<g id="N4" class="small-box dap">
<path class="st1" d="M585.4 140.5l-64.2-4.8-32.2 11.2 8 18.6-19.3 7.3c.4 1.1.9 2.2 1.6 3.3 1.5 2.4 1.7 5.5 3.3 7.8 1.2 1.6 1.6 2 1.7 4 0 1.3 1.2 3.1 1.7 4.3.5 1.2.6 2.5 1.2 3.7.6 1.4 1.6 2.6 1.7 4 .1 2.1 1.2 3.9 2.4 5.5l33.7-22.5 77.3-27.9-.1-.5-16.8-14z"/>
</g>
<g id="N5" class="small-box bn">
<path class="st1" d="M669.7 151.9l5.2 4.1 4.3 11.5 3.7-3.2 2.8.7 1.5 5.9 3.2.6 15.4-14.5 5-2.2 3.2-5.4 2.8-.7 2.6-4.5 3.5-1.7c2.8 0 0-4.3 0-4.3l2.6-2.8-.6-2.6 4.5-2.2 1.5-4.8 4.8-2.8.4-2 2-.4-.2-6 1.3-2.4.6-5-.6-9.5a33.2 33.2 0 0 1-4.4-5.5c-1.3-2-2.7-5.3-5.1-6-1.6-.4-3.9-1.4-3.9-3.3 0-1.6 0-2.8-.4-4.3-.9 1-2.8.6-4 .4-.5-.1-3.2-1-3.7-.7-.7.6-2.6 1.7-2.8 2.5l-1.1 4.2c-.6 2.6-2.8 4.3-4.5 6.4a7.6 7.6 0 0 1-3 2.2c-.2.1.2 1.3.3 1.6.3 1.7-.3 3-1.1 4.5-.9 1.7-3.2 2.3-4.5 3.9a15.7 15.7 0 0 1-6.1 5.3l-3.7 1.7c-.3.1-1.4.4-1.6.7-.3.4.3 1.4 0 1.8l-3.1 3.7c-1 1.1-.8 1.6-.8 3.1-1-.2-3.7-1.4-4.7-1.1-1 .4-.1 1.2-1.4.9l-3.1-.9c-.4-.1-.9-1.7-1.1-2.1-.2-.4-1.3-.6-1.7-.7l-3.3-1.2c-1-.4-.8-.4-.8-1.5 0-.7-3.4-1.2-4.1-1.4-1.8-.4-3.3-1.2-4.9-2-2.4-1.1-2.6-.9-2.6-3.6 0-2.3-1.4-1.8-3.2-1.6.4 1.3-.2 1.8-1.2.7a29.4 29.4 0 0 1-3.1-4.1c-.7-1.1-1.8-2.1-1.8-3.5s-.6-2.8-1-4.2c-.3-1.1-1.4-1.4-1.7-2.7a5.3 5.3 0 0 0-2.3-2.8c-.9-.4-2.6-.1-3.6-.1-.7 0-.8.2-1.4.6-.3.3-1.2-.9-1.5-1.1-1.2 1.3-2.4 1.3-3.2-.4-.2-.4.3-.7-.5-1.4-.6-.5-1.7.4-1.3-1.1l-1.5 1.4c-.7-.8-1.1-1.8-2.2-1.9-1-.1-2-.9-1.8-2.1-2.1 1.1-1.6-2.5-2.5-2.5-1.4 0-2.4-1.5-3.4-2.4-.2.5-.6 2.1-1.1 1.9-1.2-.3-1-1.4-1.3-2.6-.2-.8.4-1.7.3-2.3l-.9-3.3c-.1-.4-.3-2.2-.8-2.3-1-.3-1.8-.5-2.6-1-.8-.6-1.9-1-2.1-2-.4-1.4-.7-.9-2-.6-1 .2-1.2 0-2-.5-.7-.4-2.1-.3-2.9-.4-.5-.1-1.7 1.7-2 2.1-.8.9-1 .6-2 1.2s-1.1 1.5-2.2.9c-1-.6-1.3.4-1.6 1.3-.7 1.8-3 2-4.9 2.6.5.8 1.5 1.7.7 2.5-.3.3 0 .9-.2 1.2-.4.5-.7 1.1-1.2 1.5-.8.7-2 .9-2.2 2-.2 1.5 1.1 1.1 1.8 1.6 1.3 1 1.2 1.1 1.2 2.7 0 .7-.1 2.7.7 3 1 .4.7 2.2 1.4 2.4.4.1 1-.6 1.4-.6.4 0 .9.7 1.2.9-.7.4-1.2 1-.7 1.7.8 1.2 1.1 1.4.7 2.7-.3 1 .7 1.3.7 2.3 0 1-.1 1.9-.3 2.9 2.1-.5.8 3.1 1.9 4.1.7.7 2.4 3.6 1.8 4.5l-2.8 4.7 2.4 4 .8 3.3-1.5 2.8v5.1l-1.5 1.5 3 25.9 27 23.1.6.6 26.3-12.3 13.8-14.3z"/>
</g>
<g id="N6" class="small-box dap">
<path class="st1" d="M809.9 156.9c-1.8-2.4-2.7-4.7-5.3-6.4l-2.4-1.6c-.5-.4.1-1 .1-1.6 0-.7-1.1-3.6-1.8-3.6-.5 0-3.1.3-3.3-.1a7 7 0 0 1-.7-3.1c0-1 .9-5.7.3-6.2a24.2 24.2 0 0 1-5.1-5c-.6-.8-1.6-.5-2.2-1.5-1-1.5-.8-1.3.6-2.5.7-.6-.6-2-1-2.7-.8-1.4.5-1.3-1.3-2.1-.7-.3-2.2-.5-2.8-1l-3.1-2.4c-1.6-1.3-3.1-2.8-4.8-4-1.8-1.3-.9-3.9 0-5.8-1.7 0-2.4.1-3.8-.9-1.3-.9-2.3-.2-3.5.5-1.5.8-1.8.6-3.4.1-.9-.2-3.6-1.5-4.5-1.1-1.5.8-2.7.6-4.3.8-1 .1-2.8 1.5-3.4.9-2.5-2.3-4.2-4.5-7.4-5.4-3.1-.9-5.5-2.5-7.6-4.6l.6 9.5-.6 5-1.3 2.4.2 6-2 .4-.4 2-4.8 2.8-1.5 4.8-4.5 2.2.6 2.6-2.6 2.8s2.8 4.3 0 4.3l-3.5 1.7-2.6 4.5-2.8.7-3.2 5.4-5 2.2-15.4 14.5-3.2-.6-1.5-5.9-2.8-.7-3.7 3.2-4.3-11.5-5.2-4.1-13.6 14.5-26.3 12.3 20.9 22.6 6.1-.5v1.7l17.7-.5 2.6 1.4-1.6 6.3c3.4-1.9 9.1-4.8 10.4-3.6 1.9 1.9 4.8 2.6 4.8 2.6l1.7 1.5 4.7 5.8-.4 1.9s8.4 4.3 12.5.9c4.1-3.3 3.3-3.5 3.3-3.5l6-1.3s8.9-.7 7.3 2.8l-1.5 1.9 2.2 4.3 2.2 4.3 6.3 4.5 4.8-1.9-3.2-5.6s-4.5-1.5-4.6-2l-1.5-4.6 2.8.2 4.8 3.5 4.5.4-1.3-3.5-10.2-4.5.9-4.8s1.5-7.4-.6-8.4l-1.7 1.1-.6-6.5-1.9-2.8-.4-4.3 3.9-5.9 6-.9 1.5 2.4-2.4 2 5 .4v-2.8l6.9 1.5s2.8-6.9 6.5-1.3l-.2 1.1 1.9 3 7.8.7 6.5-3.9s5.4 0 5.8 2.6l2.2-.2 5.8 2.8 2.6 4.6 1.5 1.8a3 3 0 0 0 1.3-1.6c.6-1.7 1.5-2.9 2.6-4.3 1-1.4 1-2.1 1.1-3.9.2-2.3.3-3.2 2.3-4.3 1.3-.8 2.5-1.4 3.9-2 1.3-.6 2.9.5 4-.2 2-1.2 2.6-1.1 2.3-3.4-.2-1.9.2-1.8.9-3.6.7-1.7.6-2.4.4-4.3-.1-1.1-1.2-3.1-.6-4 .8-1.2.5-2.5 1.5-3.5 1.1-.9 3.3-2.4 2.1-3.9z"/>
</g>
<g id="N7" class="small-box ppbm">
<path class="st1" d="M784.2 189.4l-5.8-2.8-2.2.2c-.4-2.6-5.8-2.6-5.8-2.6l-6.5 3.9-7.8-.7-1.9-3 .2-1.1c-3.7-5.6-6.5 1.3-6.5 1.3l-6.9-1.5v2.8l-5-.4 2.4-2-1.5-2.4-6 .9-3.9 5.9.4 4.3 1.9 2.8.6 6.5 1.7-1.1c2 .9.6 8.4.6 8.4l-.9 4.8 10.2 4.5 1.3 3.5-4.5-.4-4.8-3.5-2.8-.2 1.5 4.6c.2.6 4.6 2 4.6 2l3.2 5.6-4.8 1.9-6.3-4.5-2.2-4.3-2.2-4.3 1.5-1.9c1.7-3.5-7.3-2.8-7.3-2.8l-6 1.3s.7.2-3.3 3.5c-4.1 3.3-12.5-.9-12.5-.9l.4-1.9-4.7-5.8-1.7-1.5s-3-.7-4.8-2.6c-1.3-1.3-7 1.6-10.4 3.6l-1.5 6.2s-5.2-3.1-5.2 5.2l1.4.5.2 4-2.4 7.3-7.1 6.1-1.4-.5-.7 1.7s3.3 5.4-3.1 5.4l-1.9-.6 1.1 2.7 4.2 2.2 1.2 4.6-.3 2 1.9 2 4.7.8 4.1 6.4 2.7-.7 3.9 1.5 3.4.2s10.8.7 12.5 1.9l2.7-.5 2.9 1.7s.2 1.2.7 1.5c.5.3 5.7-.3 5.7-.3s.8-4.9 4.6-1.2l-.7 1 .8 4.9 9.6 3.2 8.6-1 2.2 1.4 6.1-7.1 2.7 3.2h3.6l2.3.5c1.6-2.8 3.4-4.7 3.4-4.7l2.2 3 2.9-4.2 3.7-2.9 1.9-3.5 1.7-3.2 2.4-4.2.8-4.7c.2-.7 2.9-2.4 3.6-2.2.7.2 4.7 3.9 4.7 3.9l1.5.8 2.5 1.7 2.5-.2 2.7 1.9 4.2-1.4.5-.6c.4-.6.5-1.5.7-2.1.4-1.4-1.2-3.4-1.4-4.9-.2-2.5 5.5-2.3 6.4-4.1 1.8-3.8 3.8-6.5 7.3-7.3 1.1-.2-.7-2.4-1.3-3.3-1.1-1.5-1.8-1.9-1.9-3.7-.1-1.8 0-2.8-1.1-4.2-1-1.2-1.4-2.9-1.9-4.3-1.1-2.9-1.4-5.6-3.5-7.9-.9-1-1.9-1.7-2-3-.1-1.7 0-3.6-.3-5.3-.3-1.7-2.3-7.9-.9-8.5l1.9-.8-1.5-1.8-2.7-4.6z"/>
</g>
<g id="N8" class="small-box bn">
<path class="st1" d="M522 240l5.2-5.2 2.4 1.1 3.2-5.2 4.5.4.6-5 2.8-4.3-1.7-2.4 6.7-11.7 5.6 4.3 30.9-49.6L525 183l-33.7 22.5 1 1.4c1.6 2.3 3.3 4.6 4.8 7 .5.9 2.2 2.4 2.4 3.2.3 1.6.8 2.7 1.9 4 1.2 1.4 2.1 1.3 3.7 2 1 .5 1.3 2.2 2.1 3.4 1.6 2.4 4.2 3.1 5.3 6 1 2.7 2.8 5 4.1 7.5.5.9 2.2 5.3 3.2 5.4l.6.3 3-3-1.4-2.7z"/>
</g>
<g id="N9" class="small-box pkr">
<path class="st1" d="M674.6 202l-17.7.5v-1.7l-6.1.5-21.5-23.2-27-23.1-20.1 7.2-30.9 49.6-5.6-4.3-6.7 11.7 1.7 2.4-2.8 4.3-.6 5-4.5-.4-3.2 5.2-2.4-1.1-5.2 5.4 1.3 2.8-3 3c.6.4 1.3 1 1.8 1.2l1.5.2c.2.2 0 1.4 0 1.7 0 .8 1.8 1.2 1.9 2.5.1 1.1.5 2.1.8 3.1.5 1.4.6 2.3.6 3.7 0 1 1 2 1.2 3.1l.7 3.3c.2 1.2 1.1 1.9 1.8 2.9.6.8 1.9.5 2.8.9 1.1.5 2.3.7 3.4 1.2 2 .8 4.1 1.4 6.3 1.5 1.3.1 4.9.7 6-.1l1.2-2.6.9-4.3c3.8-2.8 6.1 3.5 6.1 5 0 1.4 1.4 3.1 4.5 3.3 3.1.2.5-4.7-.7-5.4-1.2-.7-1.2-1.9-1.2-1.9s1.4-2.4 1.7-5c.2-2.6 2.4-1.2 4.5-.2 2.1.9 2.6 0 2.8-.7.2-.7.9-2.8 2.4-3.8 1.4-.9.2-1.9-.5-3.3s2.8-.9 2.8-.9 1.2-1.9 3.1-1.7c1.9.2.7 1.9-1.2 3.1-1.9 1.2 0 3.5 0 3.5 5.2-2.6 3.1 4 3.1 4l2.4.5v-3.3l1.7-2.1 1.9 2.1.9 2.4c1.9 0 1.4-4 1.4-4-.7-1.9 3.3.5 3.3.5s.9-.5 3.1.5c2.1.9-.7 1.9-.7 1.9l.9 2.4 1.2-1.2 2.6.9c3.8-5 6.4-1.4 6.4-1.4l.9-1.7 2.1.5.7-1.9 1.9-.2 1.9-.5 2.1-2.1 2.1.7 2.6-1.9 2.6-2.8c3.3-1.4 8.5 1.9 8.5 1.9l4-3.3c-.2-3.1-1.4-5 4.3-7.1 5.7-2.1 5.9 3.1 5.9 3.1l2.4.1 5 .2 3.1 1 1.9.6c6.4 0 3.1-5.4 3.1-5.4l.7-1.7 1.4.5 7.1-6.1 2.4-7.3-.2-4-1.4-.5c0-8.3 5.2-5.2 5.2-5.2l3.1-12.5-2.5-1.7z"/>
</g>
<g id="N10" class="small-box pkr">
<path class="st1" d="M586.9 313.5h6.1v-10.8l7.3 4.5 1.3-5.8 1.5.8V298l-1.7.2.9-4.3 4.1-1.3 3.9.7.6-2.8 3.3-.6.6-5-8.9.2 1.1-15.8 13.9-.6.7-3.9 1.7.6.4-4.5c-4.6-.1-9.5-3.1-12.6-5.5l-1.6.4-1.9.2-.6 2-2.1-.5-.9 1.7s-2.6-3.5-6.4 1.4l-2.6-.9-1.2 1.2-.9-2.4s2.8-.9.7-1.9c-2.1-.9-3.1-.5-3.1-.5s-4-2.4-3.3-.5c0 0 .5 4-1.4 4l-.9-2.4-1.9-2.1-1.7 2.1v3.3l-2.4-.5s2.1-6.6-3.1-4c0 0-1.9-2.4 0-3.5 1.9-1.2 3.1-2.8 1.2-3.1-1.9-.2-3.1 1.7-3.1 1.7s-3.5-.5-2.8.9c.7 1.4 1.9 2.4.5 3.3-1.4.9-2.1 3.1-2.4 3.8-.2.7-.7 1.7-2.8.7-2.1-.9-4.3-2.4-4.5.2-.2 2.6-1.7 5-1.7 5s0 1.2 1.2 1.9 3.8 5.7.7 5.4c-3.1-.2-4.5-1.9-4.5-3.3s-2.4-7.8-6.1-5l-.9 4.3-1.2 2.6.3-.3c.6 1.1 1 1.6.4 2.8-.6 1.2-.3 2.1.5 3.1 1 1 1.9 1.5 2.4 2.9s1.4 1.9 2.6 2.6c1.6.9 3.9 2.6 6 2.6.5 0 .2 1.1.7 1 1-.2.4.3.9 1 .3.5.9.7 1 1.1.1.7.4 1.2 1.1 1 0 2.5 2.9 4.2 4 6.3 1.3 2.5 4.1 4.1 5 6.8.5 1.4 1.3 2.6 1.5 4 .1.9 1.6 2.7 2.5 2.8 2.4.4 1.1 5.9 1 7.5-.1 1.4.5 2.5 1.1 3.5l6.1.3.4-6.4z"/>
</g>
<g id="N11" class="small-box pkr">
<path class="st1" d="M623.4 265.5l-1.7-.6-.7 3.9-13.9.6-1.1 15.8 8.9-.2-.6 5-3.3.6-.6 2.8-3.9-.7-4.1 1.3-.9 4.3 1.7-.2v4.2l3 1.6.4-1.3 13.8 9.9 3-3.3 5.9 4.1 5.6-7.4-7.6-6.3 5.8-6.9.6-1.3 2.2-1.1 3 1.7.7-2.6 3.7-.6.3-.4-1.8-.1-3.1-1.9 6.9-13.2.5-9.5-2.1-.7.5-17.5 1.9-1.3-2.4-.1s-.2-5.2-5.9-3.1-4.5 4-4.3 7.1l-4 3.3s-5.2-3.3-8.5-1.9l-2.6 2.8-2.6 1.9-2.1-.7-2.1 2.1-.3.1c3.1 2.4 8 5.4 12.6 5.5l-.8 4.3z"/>
</g>
<g id="N12" class="small-box pkr">
<path class="st1" d="M652.6 299.2l-.5-10.6-8.8-.4-.3.4-3.7.6-.7 2.6-3-1.7-2.2 1.1-.6 1.3-5.8 6.9 7.6 6.3-5.6 7.4-5.9-4.1-3 3.3-13.8-9.9-.4 1.3-3-1.6-1.5-.8-1.3 5.8-7.3-4.5v10.8h-6.1l-.6 6.9-6.1-.3c.7 1.3 1.6 2.5 1.6 4.1.1 2.9-.2 5.9-.1 8.9 0 1.4 0 2.6.4 3.9.4 1-.1 2.9-.1 4.1 0 .9-.4 3.4.3 4 .7.7-.4 1-.5 1.5-.1.7.5 1.6.4 2.4v.3l4.6-.4c1.4 0 3.3 3.1 3.3 3.1l1.9-1.9h7.1v-6.4h12.3v-4.3h13s.5-2.5 0-2.5h14.4l.3-.5 2.1-3.8.9-5.7 8-10.9 5.2-3.5 10.4 12.3v-4.5l.2-20.6-13.1-.4z"/>
</g>
<g id="N13" class="small-box ppbm">
<path class="st1" d="M719.3 307.9c-.7-1.5-5.2-1.7-5.2-1.7l-5.2-1.9v-10.4l-3.7-2.2-2 3.3-6.3-5.6-4.8 5.2-2.4-3.7-.9.7-4.8-4.8 1.9-1.5-2.2-1.3-5.8.7-1.1-2.8h-1.3l.4-1.3-1.1-1.7-4.8 1.7-2.8-1.7.9 6.7-4.1 3.5-4.6-2.6-6.7 5.8.3 6.7 13.5.2-.2 20.6 4.4 4.2 2-1.2 6.4 2.5 1.2-1.7 1.2-.3.7 2 1.9-.7 7.3-.2 1.4-6.1 3.4.8.7-5.7-3-2.7.2-2.9 6.3 1.5 1.7 2.5 1.2-1.5 2.9 6.4 13.9-6.3c-.5-.7-.5-1.9-.8-2.5z"/>
</g>
<g id="N14" class="small-box pkr">
<path class="st1" d="M724.2 289.5l-3.7 1.3-1.3-2.2-3 1.9-.6-1.7-5.8-2.8 2.8-3.5-.6-4.3h-1.1c-.2 0-.1-.9.1-2l-.9-.3-.8-4.9.7-1c-3.7-3.7-4.6 1.2-4.6 1.2s-5.2.7-5.7.3c-.5-.3-.7-1.5-.7-1.5l-2.9-1.7-2.7.5c-1.7-1.2-12.5-1.9-12.5-1.9l-3.4-.2-3.9-1.5-2.7.7-4.1-6.4-4.7-.8-1.9-2 .3-2-1.2-4.6-4.2-2.2-1.1-2.7-3.1-1-5-.2-1.9 1.3-.5 17.5 2.1.7-.5 9.5-6.9 13.2 3.1 1.9 10.6.5.2 3.9 6.7-5.8 4.6 2.6 4.1-3.5-.9-6.7 2.8 1.7 4.8-1.7 1.1 1.7-.4 1.3h1.3l1.1 2.8 5.8-.7 2.2 1.3-1.9 1.5 4.8 4.8.9-.7 2.4 3.7 4.8-5.2 6.3 5.6 2-3.3 3.7 2.2 6.3-2 8.4.6.9-1.5.3-1.7z"/>
</g>
<g id="N15" class="small-box amanah">
<path class="st1" d="M749.2 305.4v-3.9l-4.2-.5-2.2-1.7 2.9-4.9-2.9-3.5 1.9-4.2-1.4-2.4c-.5-2.9.7-5.9 2-8.3l-2.3-.5h-3.6l-2.7-3.2-6.1 7.1-2.2-1.4-8.6 1-8.7-2.9c-.2 1-.3 2-.1 2h1.1l.6 4.3-2.8 3.5 5.8 2.8.6 1.7 3-1.9 1.3 2.2 3.7-1.3.4 1.5-.9 1.5-8.4-.6-6.3 2v10.4l5.2 1.9s4.5.2 5.2 1.7c.3.6.3 1.8.1 2.9l.6-.3 9.3.2 1.4 1.7 3.4-.3-.7 2 3 .7 1.9 2.3.3-.2c1.8-3.4 3.6-3.3 4.9-2.2l.9-4.6 2.7 2 1-2-2.2-2 .8-1.4 2.3-1.2z"/>
</g>
<g id="N16" class="small-box pkr">
<path class="st1" d="M754.2 313.9c0-.5-.7-2.5-.7-2.5l1.7-.8.5-4.4 3.7-2.2-.2-5.1 2.2-3.4-.2-6.6 14.9-31.8.3-1.4-2.4-1.7-1.5-.8s-4.1-3.7-4.7-3.9c-.7-.2-3.4 1.5-3.6 2.2l-.8 4.7-2.4 4.2-1.7 3.2-1.9 3.5-3.7 2.9-2.9 4.2-2.2-3s-1.9 2-3.4 4.7a13.4 13.4 0 0 0-2 8.3l1.4 2.4-1.9 4.2 2.9 3.5-2.9 4.9 2.2 1.7 4.2.5v3.9l-2.4 1.2-.8 1.4 2.2 2-1 2-2.7-2-.9 4.6c1.5 1.2 2.4 3.7 2.4 3.7l.5 2.7 7.9-.5-.4-1.7.3-4.8z"/>
</g>
<g id="N17" class="small-box pkr">
<path class="st1" d="M779.4 317.5l2.2-3.6s2.4 2.4 2.4 1.9 6.1-8.8 6.1-8.8 2-6.9 2-7.4 2.5-6.1 3.7-4.1c1.2 2 1.7.7 2.2-.7.5-1.4 2.9-2.4 3.9.8l.8 1.2 3.9-.5 1.5-1.7 3.4-1.5 1.3-1.8-.5-.5c-.9-.9-2.5-1.8-3-3l-2.4-4.7c-.6-1.1-.6-3.1-1.5-4-.7-.8-3.3-.8-3.7-1.8-.3-1-.8-3.7-1.8-4-2.8-.6-5.9.3-5.4-3.3.3-1.8.8-2.2.2-4-.6-1.7-.6-2.3-2.1-3.1-1.8-.9-8-2.7-7.4-5.5.1-.4.5-1 .9-1.4l-4.2 1.4-2.7-1.9-2.5.2-.1-.1-.3 1.4-14.9 31.8.2 6.6-2.2 3.4.2 5.1-3.7 2.2-.5 4.4-1.7.8s.7 2 .7 2.5l-.3 4.9.4 1.7 2.6-.2v2.4h2.2l.2 3.4h3.9l2.2 1.7V325h1.2l.2-1.9s4.2-4.6 4.9-4.6c.7 0 3.2 1 3.2 1l.4-.5-.9-2.5 4.8 1z"/>
</g>
<g id="N18" class="small-box amanah">
<path class="st1" d="M825.9 300c-1.1-1-1-2.4-2-3.6-1.2-1.5-1.4-1.5-3.3-1.8-1.5-.2-3.8-.1-5.2-.8-.9-.5-1.9-1.6-2.7-2.5l-1.3 1.8-3.4 1.5-1.5 1.7-3.9.5-.8-1.2c-1-3.2-3.4-2.2-3.9-.8-.5 1.4-1 2.7-2.2.7-1.2-2-3.7 3.6-3.7 4.1 0 .5-2 7.4-2 7.4s-6.1 8.3-6.1 8.8-2.4-1.9-2.4-1.9l-2.2 3.6-5.1-.8.9 2.5.8-1.2 2 2.7-2.2 3.2.7 2.7 2.2 3.4.8 2.5c5.4 1.5 3.7 7.9 3.7 7.9-1.4 6.3-10 2.9-10 2.9l.2 2.7.7 3.2 1.5.2v1.4l4.3.7 1.6-1.7-4.1-1.7 2-1 3.2-.7 3.2-11.5 2.2 1.4 1-5.9 2.9-2.2 2.7-2.9 2.7.3.8 3.6 2.5-2.9 2.7-2.5 2-.5s1.7-3.9 4.1-2.9l.3.2 6.8-9.8-.7-3.7 3.9-1.7 2-4.4 3 .8 1.4-1.3c.2-.3 0-.4-.1-.5z"/>
</g>
<g id="N19" class="small-box pkr">
<path class="st1" d="M789.1 359.6l-2.1-1.2 3.2-6.8-1.8-2-3.6 1.2 1.6-5.4 3.7-2.2-.4-4.3 2.7-2.8 3.9.5.5-5.8 1.5-2.1-.8-3.1-2.7-.4-2.7 2.9-2.9 2.2-1 5.9-2.2-1.3-3.2 11.5-3.2.6-2 1.1 4 1.7-1.6 1.7.8.1-.8 1.6 1.1-.4 2.6 2-1.2 5.1 1.8 3.2 3.6-.5.3.5 2.7-4.1z"/>
</g>
<g id="N21" class="small-box amanah">
<path class="st1" d="M778.4 371.2l1.6.4 2.3 1.5.5-.6-1.5-5.7-.6-.3.4-1.9 4.3-.5.5-1.5-1.5.2-1.8-3.2 1.2-5-2.5-2-1.1.4-1.3 2.6-2.8-.3-.2 3.7-2 1.8 1.8 4.4s.6.3.7 1.3l3-.1-1 4.8z"/>
</g>
<g id="N23" class="small-box dap">
<path class="st1" d="M823.9 378.3l4.6-2.5 2.2.8 1-.7.3-3.2 3.2 1.4 2.7-5.2 1.9 1.4 2.2-1 27.9.7 3 1.9.6-.5a21 21 0 0 0 2.3-2.9c1-1.3.7-2.2.6-3.9-.1-1.6.2-2.6-1-3.6-1.5-1.3-2.3-1.7-2.6-3.7-.4-2.7-2.8-4.6-3.7-7.2-.9-2.5-1.5-6.5-4-7.9 2.4-2.1 4.9-3.7 3.4-7.3-.7-1.8 0-2.4.9-4.1.4-.9-.3-2.9-.6-3.9-1.1-3-2.1-6-4.4-8.5-1.2-1.3-2.5-1.1-1.7-2.9 1-2.3-.1-4.1-1.9-5.9-.4-.4-2.2-2.7-3-2.5-2 .5-3 .6-5 .3-2.1-.4-2.1-1-3.3-2.8-.5-.9-3.5.2-4.5.3-1.6.3-2.6.7-4.3.7-1.1 0-2.1-2-3-2.7-.3-.2-1.3-1.4-1.6-1.1-.5.4-1 1-1.6 1-1.4 0-3.3.4-4.5-.3-1.2-.7-2.5-1.3-3.7-2.1l-1.4 1.3-3-.8-2 4.4-3.9 1.7.7 3.7-6.8 9.8c1.7 1.3-1.4 5.5-1.4 5.5l-.2 4.1-4.7 10.3 4.2 12-1.9 5.2-4.7 4.1-3.2 4.1-4.1 5.2-15.3 15.2 1.5 3.6v1.4l2.4 1.3 1 2.9 5.6.5 2.5 4.2 1.7-1.2.5-4.6 1.9-.8.3-2.5-1.7-2.2 8.8-10.5 2.9.2 1.5-4.7 2.4.3 4.1-2.2 4.7 1.9 1.8 10.9.2-.1 3.2-6.3z"/>
</g>
<g id="N20" class="small-box pkr">
<path class="st1" d="M810 320.5l-.3-.2c-2.4-1-4.1 2.9-4.1 2.9l-2 .5-2.7 2.5-2.5 2.9-.1-.4-1.4 2.1-.5 5.7-3.9-.5-2.7 2.9.3 4.2-3.7 2.2-1.5 5.4 3.6-1.2 1.9 2-3.2 6.8 2 1.2 1.9-.5-2.7 4 1 1.4-1.4 3.6 3.2-.3.7-4.1 4.7.5 1.7 1.7 3.2-4.1 4.7-4.1 1.9-5.2-4.2-12 4.7-10.3.2-4.1c-.1.1 2.9-4.1 1.2-5.5z"/>
</g>
<g id="N24" class="small-box ppbm">
<path class="st1" d="M877.7 403.1c-.2-1.1-.3-2.6-.8-3.7-.4-1-1.8-2.9-1.8-3.9l.3-5.2c.1-1.3-.6-2.2-1.2-3.4a28.8 28.8 0 0 1-2.4-8.7c-.1-1-2-2.6-1.8-3.5.2-.8 1.8-2 2.8-2.8l-3-1.9-27.9-.7-2.2 1-1.9-1.4-2.7 5.2-3.2-1.4-.3 3.2-1 .7-2.2-.8-4.6 2.5-3 6.3-.2.1.1.4-3.4 12 4.6 1-4.1 7.1-6.3 2.7-10.5 8.5 2.2 1.7.7 3.4 2-.7 2.5 2.5 3.6-4.7-.5-1.5h2.2l1 1.5 3.9-.8 2.4 4.7 1.5 1.5-5.1 9 1 2-2.9 5.2v3.4l-2.2-.2-1.2-.8v6.9l-5.4 1.4-.3 1.9s-7.1 0-6.6.2.2 2.5.2 2.5l.8 4.4 1.5.2-.2 7.8-7.3 2-.7 2.2c-2.6-3.6-5-4.6-6.8-4.7.2 5.1 2 6.8 2 6.8 4.7 1.6 6.9 4.4 7.8 6.6l2.5-.1c6.6-.4 13-.1 19.6.2 5.9.2 11.8 1 17.7 1.6.6.1 2.9-5.3 3.2-5.9l5-11.2c2.7-6 4.5-12.3 7.7-18 2.1-3.7 2.9-7.8 5.2-11.3.9-1.3 2.5-2.4 2.6-4l.3-6.8 3.6.4c.2-2.8.4-5.5.4-8.3 0-1.4 1.3-.2 2.2-1l3.6-3.6c.8-.8 2.6-.2 3.6-.1 1.3.1 2.2-1 3.2-1.7.8-.8.3-6.9.2-7.9z"/>
</g>
<g id="N25" class="small-box pkr">
<path class="st1" d="M817.5 432.9l5.1-9-1.5-1.5-2.4-4.7-3.9.8-1-1.5h-2.2l.5 1.5-3.6 4.7-2.5-2.5-2 .7-.7-3.4-2.2-1.7 10.5-8.5 6.3-2.7 4.1-7.1-4.6-1 3.4-12-1.9-11.3-4.7-1.9-4.1 2.2-2.4-.3-1.5 4.7-2.9-.2-8.8 10.5 1.7 2.2-.3 2.5-1.9.8-.5 4.6-1.7 1.2-3.4 8 2.5 3 3.3 7.1.6 3.3 1.7 2 .3 4.4v2l-1.8 2.8-.9-5.2-1.7 2.8-1.6 1.4-2.6-1-.7 2.1 1 .9s3.3.5 5.7.4c2.4-.1 2.3 3.4 2.3 3.4h2.3l-.3-5.5 6.6-.8 2.7 1.4 3-2.2 2.8 1.1 4.3 4.1.6-1-1-1.6z"/>
</g>
<g id="N22" class="small-box dap">
<path class="st1" d="M796.4 363.9l-4.7-.5-.7 4-3.2.3 1.3-3.5-1.3-1.8-2 .3-.5 1.5-4.3.5-.4 1.9.6.3 1.5 5.7-.5.6-2.3-1.5-1.6-.4.9-4.8-3 .1c.1.6 0 1.4-.5 2.6-1.3 3 2 4 2 4 2.8-.2 4 2.3 4 2.3l-1.3 1.3c3.3 3.9-2.5 6.9-2.5 6.9l.9 2.1 15.2-15 4-5.2-1.6-1.7z"/>
</g>
<g id="N26" class="small-box pkr">
<path class="st1" d="M813.6 431.9l-2.8-1.1-3 2.2-2.7-1.4-6.6.8.3 5.5h-2.3s.1-3.6-2.3-3.4c-2.4.1-5.7-.4-5.7-.4l-1-.9.7-2.1.8-2.3-.5-1.6 1.5-3.2 1.1.3.3-1.9-.8-.9-.1-5.2-5.3-.8-4.8-4.8-.9 2.8-1.4 1.3 1.9 3.3-2.4 1.9 1.3 1 .2 4.9c0 .1.1.1 0 .1v-.1c-.6-.8-5.8-4.8-5.8-4.8l-2.4-.8-1.3-2-1.1.9.8 1.2 5.1 5.4s1.9 3.6 2 4.1c.2.5.7 2.7 1.2 5.9s1 3.4 2.4 6.1c1.4 2.7 1.4 5.2 1.4 5.2s-.8 1.9.7 3.2c1.5 1.4.7 4.1.7 5.9 0 1.9 1.4 5.7 3 6.8 1.7 1 1.9 4.2 1.9 4.2v.2c1.7.1 4.1 1.1 6.8 4.7l.7-2.2 7.3-2 .2-7.8-1.5-.2-.8-4.4s.3-2.4-.2-2.5c-.5-.2 6.6-.2 6.6-.2l.3-1.9 5.4-1.4v-6.9l1.2.8 2.2.2v-3.4l2.3-4.2-4.6-4.1z"/>
</g>
<g id="N27" class="small-box dap">
<path class="st1" d="M773.3 420.9s5.2 4 5.8 4.8l-.2-4.9-1.3-1 2.4-1.9-1.9-3.3 1.4-1.3.9-2.8 4.8 4.8 5.3.8.1 5.2.8.9-.3 1.9-1.1-.3-1.5 3.2.5 1.6-.8 2.3 2.6 1 1.6-1.4 1.7-2.8.9 5.2 1.8-2.8v-2l-.3-4.4-1.7-2-.6-3.3-3.3-7.1-2.5-3 3.4-8-2.5-4.2-5.6-.5-1-2.9-2.4-1.3v6l-8.5.3.1 7.2 3.1.7-.2 5.2-4.2.5-1.5 3 2.4 2 1.2 1.4h-2.5l-.5.4 1.3 2 2.3.8z"/>
</g>
<g id="N28" class="small-box dap">
<path class="st1" d="M774.8 411l.2-5.2-3-.7v1.1l-2.7 1.7-1.2-.9-.1-1.8-3.4-6.7h-1.5l-1.8 3.2-1-1.4-2.6 1.5-3.3 1.4-2.2-.4-.7.2 1.6 4.8-3.9 2.9.2 6.1.5.6-.1 6.5 9-5.8.3-4.4h1.7l1.8-2.9 2.8 2.2 1.3 5 .6-.6 1.2 1.8 1.6-1.3h2.6l-1.2-1.3-2.4-2 1.5-3.1z"/>
</g>
<g id="N29" class="small-box amanah">
<path class="st1" d="M762.2 410.9l-1.7 2.9h-1.8l-.3 4.4-9.1 5.9.1-6.6-.5-.6v.6l-2.5.2-2.1-3-18.2-6.6 1.5 13.8h-3.2l-.8 1.7H722l-.6-3.2-7.3-.2-.3-2.2-1.9-2 .3-3 1.1-8.1-3.2-.2-.2 2.9h-1.7l-.3 5.2-.1.2-1.3 2.3v2.1l-.8 1.8v2.4l.5 1.5-2.2 6.9-1.4 1.5.8 1.5 2.6-2 57.9-1.5 2.1-2.2-.6-8.3 1-.9-1.4-5.1z"/>
</g>
<g id="N30" class="small-box pkr">
<path class="st1" d="M752.9 407.6l-1.6-4.9-6.8 1.2-.7-2.2-7.6.2 1.2-2.2 2.7.8v-4.9l-5.1.8 1.2-5.4-1-.8-1.8.6-7.6-.2-1.2-1.7-2 1.2-.1-.1v5.4l-4.4 1.8-.8 3.6-4.1 3.7h.4l-1 8.1-.3 3 1.9 2 .3 2.2 7.3.2.7 3.2h1.5l.8-1.7h3.2l-1.5-13.9 18.3 6.6 2 3 2.5-.2-.2-6.8 3.8-2.6z"/>
</g>
<g id="N31" class="small-box dap">
<path class="st1" d="M717.9 397.3l4.4-1.8v-5.4l-1.9-1.6-6.8 1.2-1.5-1.9h2.9l1.4-2.4-7.9-1.2-3.6 1.4-4.1-.2.2 8.6c-2.4.2-1.2 3.6-1.2 3.6l-2.2 1.9c1 .4 2.3 3.1 3.2 5.5l1.2 3.5 2.5.3.5 3.4 3 .5.1-.2.3-5.2h1.7l.2-2.9 2.8.1 4.1-3.7.7-3.5z"/>
</g>
<g id="N34" class="small-box dap">
<path class="st1" d="M740 381.4l.7-3.5-.5-5.4-3.4.7-1.2-2.9-2.5-1 2-3-5.2-2.2-2.9.1-1.8 4.4.2 2.5 2 1.9-1.5 2.5-.9 2.5h-.4l.4 2.2 2.7-.3v-3.3l4.1-.8s-1.8 2.2-1.6 3.4l3.4.6 3.7 3.4-1.1.4-3.4-1v2.3l4.7.6.7 1.7 1.9-1.2.5-1.2 1.5-1.4-2.1-2z"/>
</g>
<g id="N33" class="small-box pkr">
<path class="st1" d="M732.6 385v-2.3l3.4 1 1.1-.4-3.7-3.4-3.4-.6c-.1-1.3 1.6-3.4 1.6-3.4l-4.1.8v3.3l-2.7.3-.4-2.2h-1.3l.2 3.2 1.7 2.7-.3.1 1 .7-.4 5.7.2.3 7.6.2 1.8-.6-.8-.6 3.7-2.3-.7-1.7-4.5-.8z"/>
</g>
<g id="N36" class="small-box dap">
<path class="st1" d="M716 355l-1.4-1-2.3 2.4v.8l-.7 8.5v.1l-2.2 7.8 2.5.2-.2 1.9 6.4-1-.1.2.9-.6-.1-1.1s-2.4.1-2.4-.4 3.4-1.4 3.4-1.4l.8-1.5 3.5-3.3.6-2.5 1.5-.6-.6-3.9-2-.2-3.2-5.9v-.1l-3.9-.2-.5 1.8z"/>
</g>
<g id="N35" class="small-box dap">
<path class="st1" d="M724.2 366.4l-3.5 3.3-.8 1.5s-3.4.9-3.4 1.4c0 .5 2.4.4 2.4.4l.1 1.1-.9.6-1.1 2.5-.3 4.6 3-.7 1.2 2 2.2 1.4 2-.7-1.7-2.7-.2-3.2h1.7l.8-2.5 1.5-2.5-2-1.9-.2-2.5 1.8-4.4h-.5l-.1-.8-1.5.6-.5 2.5z"/>
</g>
<g id="N37" class="small-box pkr">
<path class="st1" d="M736.5 314.7l-3-.7.7-2-3.4.3-1.4-1.7-9.3-.2-14.5 6.6 4.7 2.9 5.7.5-2.2 3.9-3.4 1.2h-5.6l.2 2.4-3 .2 1.9 2.2 2 .3.7 6.8 3.6 1.9 3.9 4.2-1.7 3.7v9.2l2.3-2.4 1.4 1 .8-2 3.9.2 1.2-6.8 1-3-.2-9.1c2.5-.2 6.3-8.1 6.3-8.1l1.5.3.5-3.6-.3-2.2 3.9-2.2 2.2-.2 1.7-1.3-2.1-2.3z"/>
</g>
<g id="N38" class="small-box pkr">
<path class="st1" d="M689 339.3l3.4-1.1 1.1-2.4 3.3-.1.3-2.5 3.3-6.5 1.9 1.5 2.7-.2-.2-2.4h5.6l3.4-1.2 2.2-3.9-5.7-.5-4.7-2.9-2.9-6.4-1.2 1.5-1.7-2.5-6.3-1.5-.2 2.9 3 2.7-.7 5.7-3.4-.8-1.4 6.1-7.3.2-1.9.7-.7-2-1.2.3-1.2 1.7-6.4-2.5-2 1.2-4.4-4.2v4.5l-10.4-12.3-5.2 3.5-8 10.9-.9 5.7-2.1 3.8.4.3H654l1.2-.8s3.2 2.7 8.8.8l1.2 2.7s1.2 2.2 3.7 1.9l-.3 2.7h6.8l.5-2.5 6.1-1.2v2l5.6.2 1.4-3.1z"/>
</g>
<g id="N39" class="small-box pkr">
<path class="st1" d="M706.5 337.4l-.6-6.8-2.1-.3-1.8-2.2h.3l-1.9-1.5-3.3 6.5-.3 2.5-3.3.2-1.1 2.4-3.4 1.1-1.6 2.8-5.6-.2-.1 9-2.7 2.6 1.2 3 .3 8.6 9.5.2 5.7 10.5 3.6-6.3.7-4 11.6.3v-.2l.7-8.4v-10l1.7-3.7-3.9-4.2z"/>
</g>
<g id="N32" class="small-box pkr">
<path class="st1" d="M724.9 384l-1.7.6-2.2-1.4-1.2-2-3 .7.3-4.6 1.2-2.7-6.4 1 .2-1.9-2.5-.2 2.2-7.8-11.6-.3-.7 4.1-3.6 6.3-5.7-10.5-9.5-.2v.9l3.9 7.4 5.4 3.2 1.4 3.7 2.9-.2c-.7 1.4.5 8.6.5 8.6l6.3-3.4 4.1.2 3.6-1.4 7.9 1.2-1.4 2.4h-2.9l1.5 1.9 6.8-1.2 2 1.7 2-1.2 1 1.4.4-5.7-1.2-.6z"/>
</g>
<g id="N40" class="small-box pkr">
<path class="st1" d="M664.7 398.3l9 .9c.6 0 4.4-2.3 4.4-2.3s7.7-2.8 9.6-2.7c1.9.1 4.1-4.4 4.1-4.4l2.4-2.5c-.3-2.2-.8-6.1-.3-7.1l-2.9.2-1.4-3.7-5.4-3.2-3.9-7.4v-.9l-.3-8.5-1.2-3 2.7-2.5.2-11-6.1 1.2-.5 2.5h-6.8l-.3 2.7-9.3-.3-2.7 6.3.5 2.2-.5 7.8-6.9-.2-.8 6.3-.8 3.7-4.4 1.7-.6-.1.9 6.7 3.4 8.3 3.4 3.7s6.1 0 7.5 2.8l7.5-1.7-.5 4.5z"/>
</g>
<g id="N41" class="small-box pkr">
<path class="st1" d="M697.6 399.5l2.2-1.9s-1.2-3.4 1.2-3.6l-.2-8.6-6.3 3.4-.2-1.5-2.4 2.5s-2.2 4.6-4.1 4.4c-1.9-.1-9.6 2.7-9.6 2.7s-3.8 2.3-4.4 2.3l-9-.9.5-4.8-7.5 1.7c.2.3.3.7.3 1.1l-1.9 1.5-1.9.2s-.7 2.4-2 2.7c-1.4.3-4.7.3-4.7.3s.9 1.5 2 2.7c1 1.2 2.2 2.2 2.9 1.5 1.5-1.4 1.5-3.4 1.5-3.4l1.5-.8 1.2-1.7 1.5 1.9 2.7-.5 3.7 1.2 3.4-1-.7 2.5 5.2 1.2 1-2 2.2 4.9 1.5 1.4.8-3.5 1.4.2s-.2 4.4.5 3.9c.7-.5 1.9-4.9 1.9-4.9l3.9.5 1.5-2.7 1.5-.8 1 3.6 2-1.7 8.9 1.8c-.7-2.7-2-5.5-3-5.8z"/>
</g>
<g id="N42" class="small-box pkr">
<path class="st1" d="M665.1 339.1l-1.2-2.7c-5.6 1.9-8.8-.8-8.8-.8l-1.2.8h-14.4l-.4-.3-.3.5h-.2l1.4 14.1-.9.5-.1 2.7-1.4.1-.5-1.5-8.4-.4-.6 1.3-2.7.1-.6 8.2-9.5-.1-.3-1.6 2.3-2.5-6.5-2.3-1.3 4.3 2.9 1.4.4 2.9-3.3 3-.3 5.3-1-.1.6 5.8 5.1 2.7.9-1.5 6.3 2.5.7-1.4h12.5v-7.6l8 1.1.6.1 4.4-1.7.8-3.7.8-6.3 6.9.2.5-7.8-.5-2.2 2.7-6.3 9.3.3.3-2.7.3-2.7c-2.1.5-3.3-1.7-3.3-1.7z"/>
</g>
<g id="N43" class="small-box pkr">
<path class="st1" d="M614.1 380.5l-5.1-2.7-.6-5.8 1 .1.3-5.3 3.3-3-.4-2.9-2.9-1.4 1.3-4.3 6.5 2.3-2.3 2.5.3 1.6 9.5.1.6-8.2 2.7-.1.6-1.3 8.4.4.5 1.5 1.4-.1.1-2.7.9-.5-1.4-14.1h-14.3c.5 0 0 2.5 0 2.5h-13v4.3h-12.3v6.4h-7.1l-1.9 1.9s-1.9-3.1-3.3-3.1l-4.6.4c-.1 1.9.5 4.1.7 6 .3 2.6.3 4.2 2.1 6.2-.5 0-.8.2-1.1.4 1.1 1.2 1.1 1.7 1.3 3.2.1.7-.3.7 0 1.4l1.4 2.7c.6 1.1.8 2.2 1.6 3.3.3.4 3.2 1 3.6.8-.1 2.4 2.9 5.1 4.4 6.9l2.7 3.5c1 1.3 2.2 1.8 3.4 2.9l1.3 1.3c.7.8.1 1.1.4 1.6.4.5 1.4.3 1.6 1 .1.3-.2 1.4-.1 2.1.3 1.7.3 3.2.2 4.8 0 .8.2 1.6.5 2.2l4.1 1 1.9 1.8 4.2.4 3 3.4 1.9-3.2 3.8 1.3 2.8-2.5 2.8-.9c.5-.1 2.4-3.7 2.4-3.7l1.2 1v-.1c0 .5 3 1 3 1l2.2-2.7-.8-2.2 3.9 2.7.7-1.5-4.4-3.7 1.7-1.4-.3-2.5-9.5-.5-2.2-2.2-2.4.3-5.1-3.4-6.2-2.7-.9 1.5z"/>
</g>
<g id="N44" class="small-box pkr">
<path class="st1" d="M588 391.2l4.7.7 3.2 2.9-.4 2.9.4 7.2.7 10.8-.3 5-.8 2.5-1.8 1.1h-1.4l-1.4 1.1-1.5.7-2.9 2.9-4.6 3.2-1.5 3.3-5.4 12.2-3.2 6.1-4.7 5-2.5 1.9-2.2-2.2.8-3.6-.4-6.5.7-3.9.7-1.5-2.1-2.5 1.1-9 2.1-4.7 5.4-7.5 4-9.7 2.5-8.7 2.9-4.7 2.8-2.1 2.6-1.8zM558.1 437.3l-2.9 3.2-2.5 1.4-2.1 2.6-1.1 3.2-.4 2.5-.7 3.3 1.1 2.5-.7 2.5v3.2l-.8 2.9 1.5 1.4 5-.7 2.5-1.4.8-1.8 1.4-.7-1.1-1.8 1.8-.4v-4.7l.4-4.6.3-4-1-3.6-.4-3.6zM547.7 418.5l-2.2 2.6 1.5 3.6-1.1.3-1.5.4v3.2l-1 1.1-.8 3.6.4 3.6h1.4l1.5-1.1 1.8-1.4 2.5-2.9 1.4-1.4 2.6-2.9 3.2-3.3 2.2-1.4 1.8-1.4.7-3.6v-2.2h-2.5l.3-1.8 1.5-1.1 4.6-3.2 3.6-4.3.8-3.3-2.2-2.5-3.6-2.9H561l-2.2.8-2.1.7-4.7 3.6-2.9 3.2-3.2 3.6-.7 3.3-1.5 3.2-.7 3.2 1.4.4 1.8.7z"/>
<path class="st1" d="M630.9 400.3l-2.8.9-2.8 2.5-3.8-1.3-1.9 3.1-3-3.4-4.1-.4-1.9-1.8-4-1 1.1 1.7c-.8-.1-1.5-.5-2.3-.8v7.3c0 2.6-.7 6.4.1 8.9l1.5 3.9c.7 1.6 1.5 1.6 3.1 1.6 1.3 0 1.9-1.2 3.3-.9.9.2 2.6.9 3.6.4l.4-.4-.4.4-.2.2c1.4 1.3 1.6 2.4 2.1 3.9l.9-1.1-.3-2 1.5-1.5 1.3.3-.5-3.2 4.3-4 2.3 1.8 4.7-4.8-2.5-.8 4.2-3.8 1.2-6-1.8-.7.1-1.9-1.2-1c.2.3-1.7 3.8-2.2 3.9z"/>
</g>
<g id="N45" class="small-box dap">
<path class="st1" d="M652.3 400.6c1.4-.3 2-2.7 2-2.7l1.9-.2 1.9-1.5c-.2-3.9-7.8-3.9-7.8-3.9l-3.4-3.7-3.4-8.3-.9-6.7-8-1.1v7.6H622l-.7 1.4 5.1 3.4 2.4-.3 2.2 2.2 9.5.5.3 2.5-1.7 1.4 4.4 3.7-.7 1.5-3.9-2.7.8 2.2-2.2 2.7s-3-.5-3-1l-.2 2 1.9.7-1 5.3 4.5-3.8 2.4-1.6 2.9 1.6 3.2.2-.7-1s3.4 0 4.8-.4z"/>
</g>
<g id="N46" class="small-box pkr">
<path class="st1" d="M608.1 438l4.4-5.8 4.6-3.6.8-3.2-1.9.1-4.2-.1-3.1-.2-4.4-1.1h-1.2l-1.7 1.8-1.9.5-1.4.4-1.9 1.5-2.5 2.4-1.8.4-3.6 2.9-2.5 2.9-2.9 2.5-3.6 8.3-2.5 2.5-4.6 10.8-4.3 5-1.1 1.4-1.4 1.8 1.7 2.8 3.3.8 5.7-2.4 6.5-5.8 3.2-3.9 4-.4 3.2 3.6 3.3 2.9h2.8l-.7-2.2-4.3-8.3 3.6-3.2 3.6-1.1 3.6-3.2z"/>
<path class="st1" d="M631.3 418.3l1.3 2.5s-5.6 3.7-6 3.7c-.4 0-1.9-2.7-1.9-2.7l-.9 1.8-2-2.3-.8-.2-1.5 1.5.3 2-.9 1.1.4 1c.3.6 1.6 2.3 1.2 2.8l-2.5 3.1c-2.6 3.3-6.9 5.2-8.8 9.2-.8 1.7-.4 3.9-1.4 5.5-.9 1.5-3.5 4.2-3.2 6a18 18 0 0 0 2.2 6.9l1.5 2.6c2.3 1.2 5.9 2.4 7.5-.8 2.4-4.9 2.9-4.7 2.4-7.1-.5-2.4.2-7.3 2.4-9 2.2-1.7 6.9-3.9 6.8-8.6-.2-4.7 2.7-6.6 6.1-5.4 3.4 1.2 10.1 6.8 7.3 7.8-2.9 1-7.3 4.2-6.8 4.2l9.6.3 3-1.4 8.5.3-2.9-8.1-4.6-6.4-13.7.3.3-3.2h1.9l.2-2.2-1.5-.7.3-1.4 1.4-.3-.2-2-1.5-.7v-1.2l-1.7-.5-1.8 1.6z"/>
</g>
<g id="N47" class="small-box dap">
<path class="st1" d="M642 400.2l-2.4 1.6-4.5 3.8-.2.8-4.2 3.9 2.5.8-4.7 4.9-2.4-1.9-4.4 4.1.5 3.2-.5-.1 2 2.3.9-1.8s1.5 2.7 1.9 2.7c.4 0 6-3.7 6-3.7l-1.3-2.5 1.9-1.5 1.7.5v-.6l3.2.5.5-2 3 .2 1.5-4.9 2.7-2.7 1-3.5 2.6-.5-1.3-1.7-3.2-.2-2.8-1.7z"/>
</g>
<g id="N49" class="small-box pkr">
<path class="st1" d="M687.3 434.5c0-.4-1.1-3.2-1.1-3.2s-14.2.3-14.3-.1l-.9-2.7 2.8-1.8-.1-8.5 7.2-2.7-.1-1.5h-1l-1.3-1.8 1.6-1.3.1-2-.2.2c-.7.5-.5-3.9-.5-3.9l-1.4-.2-.8 3.5-1.5-1.4-2.2-4.9-1 2-5.2-1.2.7-2.5-3.4 1-3.7-1.2-2.7.5-1.5-1.9-1.2 1.7-1.5.8s0 2-1.5 3.4c-.7.7-1.9-.3-2.9-1.5l-2.6.5-1 3.5-2.7 2.7-1.5 4.9h-.2l.8 1.5 6.2.9.9-2-.9-.9 1.9-2.4 6-1.3 1.5-1.8h1.1l1 1.7 2.4-.8 1.8 3.8 3.9 1.5-.6 4.3-3.3.8-1.4 6.6-11.8-4.4-.5-1.4h-7.6l4 7.4h.9l4.6 6.4 2.9 8.1h1.1-1.1l.4 1.2 24.5-.2 10.7-7.1.8 3.4 5.1-2.9-.7-3 3.5-2-5.3-2.2a41 41 0 0 1-7.2 4.4z"/>
</g>
<g id="N48" class="small-box pkr">
<path class="st1" d="M650.4 421.4l.5 1.4 11.8 4.4 1.4-6.6 3.3-.8.6-4.3-3.9-1.5-1.8-3.8-2.4.8-1-1.7h-1.1l-1.6 1.8-5.9 1.3-1.9 2.4.9.9-.9 2-6.2-.9-.8-1.5-2.8-.1-.5 2-3.2-.5v1.9l1.5.6.1 2.1-1.3.3-.3 1.4 1.5.6-.2 2.2h-1.9l-.3 3.3 12.8-.4-4-7.3z"/>
</g>
<g id="N50" class="small-box dap">
<path class="st1" d="M705 412.1l-.5-3.4-2.5-.3-1.2-3.5-8.9-1.8-2 1.7-1-3.6-1.5.8-1.5 2.7-3.9-.5s-1 3.8-1.7 4.7l-.1 2-1.6 1.3 1.3 1.8h1l.1 1.5-7.2 2.7.1 8.5-2.8 1.8.9 2.7c.1.4 14.3.1 14.3.1s1.1 2.8 1.1 3.2c0 .4 7-4.1 7-4.1l5.3 2.2 3.1-1.7.2.3 1.4-1.5 2.2-6.9-.5-1.5v-2.4l.8-1.9v-2l1.3-2.4-3.2-.5z"/>
</g>
<g id="N51" class="small-box pas">
<path class="st1" d="M703.6 432.7l-.8-1.5-.2-.3-6.6 3.7.7 3-5.1 2.9-.8-3.4-10.7 7.1-24.5.2-.4-1.2-8.5-.3-3 1.4-9.6-.3c-.5 0 3.9-3.2 6.8-4.2s-3.9-6.6-7.3-7.8c-3.4-1.2-6.3.7-6.1 5.4.2 4.7-4.6 6.9-6.8 8.6-2.2 1.7-2.9 6.6-2.4 9 .5 2.4 0 2.2-2.4 7.1-1.6 3.3-5.2 2-7.5.8l1.5 2.5c-1.7 0-2.1-.6-3.5-1.7-1-.8-2.8-1.7-3.5-2.9l-2.4-4.4c-.2-.3-3.8.7-2.9 1.8l3.1 3.8c.9 1.1 1.3 3.3 1.9 4.6 1.2 2.9-4.2 3.8-6.1 3-2.5-1.1-3.7-5.4-6.5-5.9-1.8-.3-3-1.2-3.7.6-.7 1.6-1.4 2.9-2.3 4.3-1.6 2.5-3.9 3.3-6.3 4.9-.9.6-4.4.6-4.5 1.7-.2 1.8-.6 3.4-1 5.2-.2 1 .3 2.6.5 3.6.2 1.1 0 3.1.6 4.1.9 1.5-1.1 2.9-.2 4.4.9 1.6 1.2 1.5 3 2 3.1.8 10 2.7 13.2 2.7 2.5 0 5.8 1.9 7.9 3.2l3.3 1.9c1 .6 2.4-.1 3.3.8.7.7 2.1 2.8 3.2 2.8 1.5 0 2.9-.1 4.4.2 2.7.5 5.5 2 8.3 1.8l5.2-.3c.5 0 1.2.4 1.8.8l1.8-2 1.1-7.9c-2.4-4.2-.1-6-.1-6-.1-2.9.9-4.2 2.4-3.4 1.5.8 1.5-3.3 1.5-3.3-.3-5.6 6-4.3 6-4.3l2.2-1 1.8 1.6 2.9-8 10-3.2-.1 2.9 4.1-2.8 2 1.5 9.6-11.3.3 11.9 3-2.5 5.3 5.7-4.1 3.3-2-3.2-3.9 3 2.4 2.8 1.5-.1.5 2.3 9.6-6.3 1.3 2.7 4.9-.3.9 1.4 2.8.8 2.7-3.6 7 7.3.3-1.7h3.9l.5 2 17.6-.2 2 3.9 3.9-2-28.7-55.7z"/>
</g>
<g id="N52" class="small-box dap">
<path class="st1" d="M694.4 483l-2.8-.8-.9-1.4-4.9.3-1.3-2.7-9.6 6.3-.5-2.3-1.5.1-2.4-2.8 3.9-3 2 3.2 4.1-3.3-5.3-5.7-3 2.5-.3-11.9-9.6 11.3 1.1.9-3.7 2.9-.6 1-2.4 2.4.4 1.1c5.2-.5 3.2 4.8 3.2 4.8l1.5-1 8.2.1 5.2 2-.1.9-6.3.9-6.3 4.4-.3-2.3-2.7-.9-.6 12.8-2.8-1.3.4 6.2 1.3-.8 4.9 3 .6-1.1-2.3-1.6 1-2.7 4.7.9-.5 3.3h.8l1.4-.6.8 2.5 1.5.9.5-.7 2.7 1.7.7-3.4 2.9 2.7 6.6.2 3.6-3.2 19.3 1.7 1.5-3-2.4-2.4.3-2.4-3.4.3-1.2-2.4 1.9-2.4-2.5-1.4-5.2.2-.8-3.4 9.1-6.9.1-.3-7-7.3-3 3.9z"/>
</g>
<g id="N53" class="small-box amanah">
<path class="st1" d="M669.5 513.1l1-1.3-1.5-.9-.8-2.5-1.4.6h-.8l.5-3.3-4.7-.9-1 2.7 2.3 1.6-.6 1.1-4.9-3-1.3.8-.4-6.2 2.8 1.3.6-12.8 2.7.9.3 2.3 6.3-4.4 6.3-.9.1-.9-5.2-2-8.2-.1-1.5 1s2-5.3-3.2-4.8l-.4-1.1 2.4-2.4.6-1 3.7-2.9-1.1-.9-2-1.5-4.1 2.8.1-2.9-10 3.2-2.9 8-1.8-1.6-2.2 1s-6.2-1.3-6 4.3c0 0 0 4.1-1.5 3.3-1.5-.8-2.5.5-2.4 3.4 0 0-2.3 1.8.1 6l-1.1 7.9-1.8 2 1.5 1c-.5.5-2.7 2.1-2.4 2.7.6 1.8 2.3 3.6 2.9 5.5.4 1.1 2.2.9 3 1.5 1.1.8 1.9 2.3 3 3.2 2.2 2 3.9 3.8 5.5 6.4a49.7 49.7 0 0 1 5.1 10.2l5.9-11.7 9.8 5.9-1.5 2.9 5.6 3.7 2.7-2.9 4.6 3.2 5.4-11.3 6.1-.5v-7.4l-14.2-8.3z"/>
</g>
<g id="N54" class="small-box pkr">
<path class="st1" d="M749.7 593.6c0-.5 1.4-3.9 1.4-3.9l-2.4-.5 2.2-1.4.3-7.1 1.4-1.9-.7-.5.2-2.5-.8-4.1-1.7-2.9-1.9-.2-.5-1.7-2.4-.5-1-7.3h1.7v-4.9l-18.1-9.8-.2-1.9-16.7.2.3-18.1-5.2.2-.4-14.3-17.7-1.5-3.6 3.2-6.6-.2-2.9-2.7-.7 3.4-2.7-1.7-1.5 2 14.4 7.8v7.4l-6.1.5-5.4 11.3-4.6-3.2-2.7 2.9-5.6-3.7 1.5-2.9-9.8-5.9-5.9 11.7.5 2.5c.3 1.6 1.3 3.2 1.8 4.7 1.1 2.7 2.9 4.1 4.3 6.7.7 1.3 1.3 1.8 2.2 2.9 1 1.3 2.5 2.5 3.7 3.7.6.6 1.8 2.5 2.8 2.5 1.5 0 3.2.8 4.7 1.2 1.2.3 2.9.4 3.9 1.1 1.7 1.2 3.3.4 5 1.6.8.6 1.7 1.6 2.8 1.6 1.1 0 3.9 1.5 4.9 2 3 1.8 6.1 2.7 9.1 4.5 2.1 1.3 4.7 1.4 6.8 2.3 2.5 1 4.4 1.3 11 6.5 5 4 17.7 3.8 26.4 7.1 4.2 1.6 4.8 3.4 9 5 2 .8 1.8 1.5 3.6 2.6l.7.8 2-1.4c0 .2-.8-2.7-.8-3.2z"/>
</g>
<g id="N55" class="small-box ppbm">
<path class="st1" d="M789.6 474s-1.8-1.7-2-6.8v-.2s-.2-3.2-1.9-4.2-3-4.9-3-6.8c0-1.9.8-4.6-.7-5.9-1.5-1.4-.7-3.2-.7-3.2s0-2.5-1.4-5.2-1.9-2.9-2.4-6.1a44 44 0 0 0-1.2-5.9l-2-4.1-5.1-5.4-.8-1.2-1.2-1.8-1.5 1.5.5 8.3-2 2.2-58 1.5-2.6 2 28.7 56-3.9 2-2-3.9-17.6.2-.5-2h-3.9l-.3 2-9.1 6.9.8 3.4 5.2-.2 2.5 1.4-1.9 2.4 1.2 2.4 3.4-.3-.3 2.4 2.4 2.4-1.5 3-1.6-.1.4 14.3 5.2-.2-.3 18.1 16.7-.2-.3-12.9 22.8-25.2 2.7 3.7 11.3.3 1-12.2.8-1.2.3-5.6 3-2 4.9-.3-2.5-5.9-.3-2.7 2.4 2.5 7.5-1.5c5.6.5 11 1 16.5.8a12 12 0 0 0-7.7-6.5zm-17.2-20.1h-7.7l-.2-.2h-3.3l.1 2.7-.2 4.5h-2.9l-.2 1.7h-1.2v1.1l1.7.6.3 1.7-.5.9-1.4.6.1 2-1.7.5-.5-.1-1.2-.2-.8.9-.2.9-.2.5-.3 1.7-.7-.1-.3 1.3h-1.7v.8l-.5.1-.5.2-1-.7h-.4v.5l-.2.1.1.5-.2 1.2-1.3-1.8-.2-1.5-2.5 1.9-1.4-2.6-.1-.7.4-.7-.1-.4-.5-.3-1.1-3.7.2-1.3 1.3-1.2.1-.9.3-1.1.3.2.5-.5 1.1-.1.6-.6-.2-1.1v-1l1 .1.3-.9-.1-.5.2-.4-.3-.7.3-.6-.4-.6-.3-.7-.8-.9v-.5l-.5-.3-.1-.6-.4-.7.6-1.7.2-1.4-.7-1.5-1-1.1 1.2-.8 2.5-.1.5-.3.2-1.7-2.2-2-.8-.1-.6-.6-.7-.2-.8-1.6-.2-1.8.8-.7.5-.5.8-.5.3-.4.4-.2h.4l.6-.5 1.1-.4 1 .2.1-.3h1.7l1.1.3.6.3.9-.2 1.7-.6.5-.2 2.4-1.3 1.1-.3 1.8-.2.4-.8.7.1.1-.3.5-.2.2-.3v-1l.6-.1.3.2-.3.3.1.9-.7 1-1.1.9-.9.7-1.1 1.2.1 1.5.8.1.6.6v1.5h2.6v.6l.5-.1.5.3.6-.3.3-.3.3-.5.3.2.3-.1v3.9l6.9.1.8.8v10.5z"/>
</g>
<g id="N56" class="small-box pkr">
<path class="st1" d="M771 478.8l.3 2.7 2.5 5.9-4.9.3-3 2-.3 5.6-.8 1.2-1 12.2-11.3-.3-2.7-3.7-22.8 25.2.3 12.9.2 1.9 18.1 9.8v4.9h-1.7l1 7.3 2.4.5.5 1.7 1.9.2 1.7 2.9.8 4.1-.2 2.5.7.5-1.4 1.9-.3 7.1-2.2 1.4 2.4.5s-1.4 3.4-1.4 3.9.8 3.4.8 3.4l-2 1.4c.9 1.5 1.5 4.3 2.3 5.2 1.3 1.4 8.5 1.8 10.2.8.9-.6.4-5.3-.2-6.1-2-2.4-1.6-2.8-.6-4.6.8-1.5 4.5-4.4 6-3.6 1.5.8 2.4 2.3 3.8 1.4 1.8-1.2 1.1 0 .5-2a33 33 0 0 1-1.2-4.5c-.3-2-1-2.5.9-3.1-5.7 1.8 4.3-5.8 3.6-4.7.8-1.3 2.6.5 3.4-.8 1.5-2.3 1.3-2.1-.4-4.3-.9-1.1-.8-2.1-1-3.5-.3-1.8-1-3.1.5-4.3 2.6-2 2.5-4.4 4.8-6.7.5-.5 2.6-1 2.6-1.7-.2-1.5 1.7-3 1.6-4.5l-1.2-12.1c-.5-5.2-.5-10.5-1-15.7-.6-6.1-1.2-12.1-1.3-18.2-.1-8.2-.1-17.3-1-25.5l-7.5 1.5-2.4-2.9z"/>
</g>
<g id="text">
<text transform="translate(382.4 66.6)" class="st3 st4">
      N1
    </text>
<text transform="translate(431.6 107.4)" class="st3 st4">
      N2
    </text>
<text transform="translate(482.6 119)" class="st3 st4">
      N3
    </text>
<text transform="translate(511.4 163.3)" class="st3 st4">
      N4
    </text>
<text transform="translate(632.2 133.7)" class="st3 st4">
      N5
    </text>
<text transform="translate(733 156.6)" class="st3 st4">
      N6
    </text>
<text transform="translate(717.3 246.2)" class="st3 st4">
      N7
    </text>
<text transform="translate(517.8 203.8)" class="st3 st4">
      N8
    </text>
<text transform="translate(577.4 233)" class="st3 st4">
      N9
    </text>
<text transform="translate(571.8 281)" class="st3 st4">
      N10
    </text>
<text transform="translate(610.8 281)" class="st3 st4">
      N11
    </text>
<text transform="translate(597.4 324.8)" class="st3 st4">
      N12
    </text>
<text transform="translate(670 306.4)" class="st3 st4">
      N13
    </text>
<text transform="translate(648.8 275.2)" class="st3 st4">
      N14
    </text>
<text transform="translate(719.6 304.4)" class="st3 st4">
      N15
    </text>
<text transform="translate(743.1 283.6)" class="st3 st4">
      N16
    </text>
<text transform="translate(763.7 304.6)" class="st3 st4">
      N17
    </text>
<text transform="translate(791.3 315.6)" class="st3 st4">
      N18
    </text>
<text transform="translate(767 347.7)" class="st3 st4">
      N19
    </text>
<text transform="translate(765.2 363.1)" class="st3 st4">
      N21
    </text>
<text transform="translate(815 351.8)" class="st3 st4">
      N23
    </text>
<text transform="translate(790.4 355.5)" class="st3 st4">
      N20
    </text>
<text transform="translate(832.1 430)" class="st3 st4">
      N24
    </text>
<text transform="translate(795.6 402.3)" class="st3 st4">
      N25
    </text>
<text transform="translate(770.6 377.3)" class="st3 st4">
      N22
    </text>
<text transform="translate(784.9 449.1)" class="st3 st4">
      N26
    </text>
<text transform="translate(776.5 410)" class="st3 st4">
      N27
    </text>
<text transform="translate(754 410)" class="st3 st4">
      N28
    </text>
<text transform="matrix(1 0 0 1 727 427)" class="st3 st4">N29</text>
<text transform="translate(712.3 413.2)" class="st3 st4">
      N30
    </text>
<text transform="translate(700.2 397.6)" class="st3 st4">
      N31
    </text>
<text transform="translate(733.5 377.8)" class="st3 st4">
      N34
    </text>
<text transform="translate(725 389.4)" class="st3 st4">
      N33
    </text>
<text transform="translate(712.7 363.1)" class="st3 st4">
      N36
    </text>
<text transform="translate(712 373.7)" class="st3 st4">
      N35
    </text>
<text transform="translate(707.6 333)" class="st3 st4">
      N37
    </text>
<text transform="translate(646.2 333)" class="st3 st4">
      N38
    </text>
<text transform="translate(690.3 359.8)" class="st3 st4">
      N39
    </text>
<text transform="translate(689 380.2)" class="st3 st4">
      N32
    </text>
<text transform="translate(656.7 369)" class="st3 st4">
      N40
    </text>
<text transform="translate(675 400)" class="st3 st4">
      N41
    </text>
<text transform="translate(630.6 362.2)" class="st3 st4">
      N42
    </text>
<text transform="translate(587.5 362.2)" class="st3 st4">
      N43
    </text>
<text transform="translate(567.1 411.2)" class="st3 st4">
      N44
    </text>
<text transform="translate(635.9 393.8)" class="st3 st4">
      N45
    </text>
<text transform="translate(591 451)" class="st3 st4">
      N46
    </text>
<text transform="translate(622.7 413.7)" class="st3 st4">
      N47
    </text>
<text transform="translate(659.1 440)" class="st3 st4">
      N49
    </text>
<text transform="translate(640.8 421.3)" class="st3 st4">
      N48
    </text>
<text transform="translate(684.4 420.1)" class="st3 st4">
      N50
    </text>
<text transform="translate(612.6 477.2)" class="st3 st4">
      N51
    </text>
<text transform="translate(670.6 502.2)" class="st3 st4">
      N52
    </text>
<text transform="translate(635.7 516.5)" class="st3 st4">
      N53
    </text>
<text transform="translate(679 557)" class="st3 st4">
      N54
    </text>
<text transform="translate(736.3 495.1)" class="st3 st4">
      N55
    </text>
<text transform="translate(740.4 555.7)" class="st3 st4">
      N56
    </text>
</g>
</svg>