<svg xmlns="http://www.w3.org/2000/svg" version="1.1" viewbox="0 -20 1240 697" preserveaspectratio="xMidYMid slice" id="svgP">
<g id="map">
<path class="st1" d="M585.6 389.1l4.8.7 3.2 2.9-.3 3 .3 7.2.8 11-.4 5-.7 2.6-1.9 1.1H590l-1.5 1.1-1.4.7-2.9 2.9-4.8 3.3-1.4 3.3-5.5 12.3-3.3 6.2-4.7 5.1-2.5 1.9-2.2-2.2.7-3.7-.4-6.5.8-4 .7-1.5-2.2-2.5 1.1-9.1 2.2-4.8 5.4-7.6 4-9.8 2.6-8.8 2.9-4.7 2.9-2.2 2.6-1.8zM555.4 435.7l-2.9 3.3-2.6 1.4-2.1 2.6-1.1 3.2-.4 2.6-.7 3.3 1.1 2.5-.8 2.6v3.2l-.7 3 1.5 1.4 5.1-.7 2.5-1.5.7-1.8 1.5-.7-1.1-1.8 1.8-.4v-4.7l.4-4.8.4-4-1.1-3.6-.4-3.6zM544.8 416.8l-2.1 2.5 1.4 3.7-1.1.3-1.4.4v3.3l-1.1 1.1-.8 3.6.4 3.6h1.5l1.4-1.1 1.8-1.4 2.6-2.9 1.5-1.5 2.5-2.9 3.3-3.3 2.2-1.4 1.8-1.5.7-3.6v-2.2h-2.5l.3-1.8 1.5-1.1 4.7-3.3 3.7-4.4.7-3.2-2.2-2.6-3.6-2.9h-3.7l-2.2.7-2.2.8-4.7 3.6-2.9 3.3-3.3 3.6-.7 3.3-1.5 3.3-.7 3.2 1.5.4 1.8.7z"/>
<path class="st2" d="M607.5 463.6s-5.2-6.5-5.4-8.2c0 0-6.7.2-6 2.5.7 2.3 2 4.7 2 4.7s4.4 7.7 1 7.7c-3.4 0-4.7-1.5-6.2-3.4-1.5-1.8-3.5-5.2-6.2-3.2s-10.6 10.9-16.9 14.1"/>
</g>
<g id="P92" class="small-box bn">
<path class="st1" d="M433.2 117.5l4.1-4.9 13.9 10.8 9.5-14.6 6.2-4.4-1.5-3.1 6.2-6.2 7.3-.9c-2.6-.1 2.5-4.9 2.6-5.6.1-.9-1-2.8-1.4-3.7-.5-1.3-.7-2.2-.9-3.7 2.2.3 6.6.4 8.2 2 .4.4 1.3.9 1.5 1.5.3.8.2 1.3 1 1.5 2.2.5 1.5-1.8.6-3s-6-4.9-5.2-6.3c.7-1.4 1.4-2.7 2.3-4 1.2-1.7-.9-2.5-2.4-1.7-2.8 1.5-2.6 4.9-5.3 6.2-1.4.7-2.6.6-4 1.4-1.5.9-1.1 2.5-.8 4 .2 1.2-2.5 1.5-3.1.7-.9-1-.3-3.6-.1-4.7.3-1.8.1-2.4-.8-4-.8-1.5-.8-2.8-.4-4.4.3-1.3 2.1-2 2.7-3.4.9-2-1.1-1.8-2.5-1.9-.9-.1-2.6 1.3-3.2 1.9-1.2 1.3-2.1 2-4 2-.8 0-1.5.1-2.4.2-.6.1-1 .8-1.6 1-.7.2-1.1.3-1.5-.3-.8-1-.5-1 .2-2.1.8-1.2 1.9-2.3 1.4-3.7-.4-1.4-1-2.8-2.1-3.8-2.2-1.9-5.9 1.6-8.1 2.3-1.9.7-2.4.1-4.3-.8-1.5-.7-2.8.4-3.7 1.4-2.2 2.6-2.8 5.3-2.8 8.7 0 1.7.1 2.3-1 3.6-1 1.1-3.2.5-4.4.2-2.2-.6-5.5-2.7-5.9-5-.6-3-1-6.5 2-8.4 2-1.3 6.7-1.3 6.5-4.8-.2-3.5-2.8-5-5.5-6.8-1.5-.9-2.7-1.1-4.5-1.4-1.4-.3-2.9.6-4.2 0-.4-.2-.7-.4-1.1-.5-.2-.1-.5.5-.7.4-.6-.2-1.3-1.1-1.7-1.5-1-.8-.6-3.3-.5-4.4.2-3.1 1.1-5.8 2.5-8.6 1.8-3.7-2.1-3.9-4.5-2.7-2.7 1.4-6 3.1-8.9 3.7-.5.1-1.5-.3-1.9 0-.7.5-1.4 1.1-2.2 1.5-1.6.7-3.6 1-5.3 1.4-3.5.9-7.2.4-10.8.3h-4.1c-1.3 0-3.9-1.2-4.2.6.5 0 1 .1 1.5.1-1.2.5-2.6 1.1-3.9 1.2-1.1.1-3.3-.3-4 .6-.2-1.4-.8.3-1.3.3-1.2-.1-2.2-.2-3.4-.6-.3-.1-.7.2-1 .1-.5-.1-.9-.8-1.4-.6-.9.3-1.2 1.5-1.8 2.4-2.5 4.2-2.2 8.7-3.7 13.1-.7 2-.3 4.5-.2 6.5.1 1.8 1.5 3.6 1.9 5.3.4 1.7 2.6 3.5 4.1 4.4 1.1.7 1.6.2 2.8.4.4.1 2.2 1.5 1.8-.1 1.2-.1 2.4-.1 3.6-.2 1.1-.1 3.2.6 3.6-.2.8 1.3 2.1 1.2 3.4 1.9 1.5.8 3 1.3 4.5 1.9 2.7 1.1 5.1 2.9 7.3 4.7 1.1.9 2.2 1.9 3.3 2.9.6.5.9.7 1.7 1 .8.3.6.9 1.1 1.5 1.9 2.4 3.9 4.5 6.2 6.5.9.7 1.3 2.1 1.7 3.3.4 1.1-1.1.6.3 1.5.9.5 1.1.9 1.7 1.8 1.6 2.4 2.8 4.4 3.5 7.2.3 1.3.5 2.8 1 4 .8 2 2.3 1.5 3.9 2.7 1.2.9 2.3 1.1 3.8 1.3 1.3.2 2 2.3 3.4 2.1 2.2-.4 2.6 0 4.5.9l2.3-2.5 2.6 2.6z"/>
</g>
<g id="P93" class="small-box pkr">
<path class="st1" d="M600.5 125.4v-5.1l1.5-2.8-.8-3.3-2.5-4.1c-1 1.4-2.1 2.6-3.7 3.6-.1-.6-.7-2.3-1.5-1.6-.5.4-.9.6-1.5.9-.6.3-.8-.2-1.4 0-1.4.4-1.5.9-2.6 1.7-.4.3-1.1 1.1-1.5.8-.4-.4-.7-.6-1.4-.6.2.8.2 2.4-.5 3-.2.2-.7-.3-1 .1-.6.6.1 1-.2 1.5-.2.3-2.3 1.9-2.5 1.9-.9-.2-1.4-2.6-1.7-3.2-.3.3-.8 1-1.3 1.2-.5.2-1.3-.4-1.8-.3-.4.1-.7.8-1.1.8-.5 0-1.3-.2-1.8.1-1.2.8-.2 2.3-1.4 3.2-.7.5-2.6-.7-3.3-1.1 0 2.1-1.9.2-2.8.4-1.8.4-2.3.2-3.6-1.1-.3-.3-1.1.4-1.4.6-.4.2-1.3-1.2-1.6-1.5-.9-1-1-1.6-1.3-2.9-.9.7-2-.6-1.9-1.6.1-.4 1.1-.8.9-1.2-.2-.4-.7-.9-.7-1.4.1-1.2 1.3-1.8 1.2-2.9-.1-.9-1.6-.3-1.3-1.9.2-.9-.1-2.6.3-3.4.2-.5 1-.7 1-1.3v-1.8c0-.6.1-1.2-.1-1.7-.1-.6-.8.1-1.2-.1-.4-.3-.8.5-1.2.1-.3-.4-.6-.8-1-1.1 0 2.4-3.9 2.5-5.5 3.3-1.1.5-2.4.2-3.5.8-1.5.9-1.5 2.2-3.4 1.8-.7-.2.5-2.4.7-2.9.1-.2-.6-1-.9-1-.8 0-.8 1.2-1.3 1.4-2.6.9-.8-5.4-4.2-2.8-.6-1.8-.5-1.9.6-3.4-.8.3-1.6.2-2.3-.1-.2 1.5.7 3.2.9 4.8-1.1-.4-1.9-.1-2.9-.9.5-.7 1-1.4 1.6-2-1.5-.2-1.8-.5-2.3.9-.4 1.3-1.8.7-2.7 1.4-.8.5-.9 2.1-2.1 2.1-1.2 0-.8 2-2.5 1.3-1-.5-1.4-1.7-1.4-2.6 0-1.8.8-.8 1.4.2 1.2 1.9 3.5-3.2 4-3.8.6-.8 5.3-2.2 3.5-3.3-.2-.1-2.2.8-2.6 1-1.2.4-2.1.5-3.4.6-.5 0-2.6.3-2.9 0-.6-.5-.5-3.2-.7-4-.2-1-.2-2.1-.3-3.2-.1-1-1.1-2-1.7-2.8.1 3.6-.3 7.2-.5 10.8-1.1-.1-1.6-2.7-2.2-3.7-1.1-1.6-1.1-2.3-1.1-4.3-2.3.2-2 .2-1.9 2.5.1 1.4.6 2.7.9 4-2.9-.6-5.3-1.6-8-2.6-2.1-.8.2-1.8 1.3-2.4 1.2-.6 1.6-1.9 3-2.1-1.2-1.3-3.6-2.2-4.5-3.6-.6-1-.3-5.4-1.7-4.5-1.3.8-1.7 4.2-2.7 5.4-.7.8-1.3 1.3-1.4 2.4-.1.8.6 2.7.4 3.3-.9 2.6-3.2-.6-3.7-1.6-.6-1.2-3.1-4-3.9-1.2-.3 1.1.1 1.7-.1 2.8-.2 1.6 0 1.7-1.6 2.2-2.2.7-2.1-3.9-2.2-5.1-1.1.4-2 1-3.2.9-1 0-3.1-.7-3.4.4-.4 1.5-.8 3.1-1.3 4.6-.3 1.1-2.5.4-3.4.3l-7.3.9-6.2 6.2 1.5 3.1-6.2 4.4-9.5 14.6-13.9-10.8-4.1 4.9-2.6-2.1-2.3 2.5c.1 0 .1.1.2.1 1.6.8 3.1 1.5 4.8 2.1-.2.2-.4.5-.6.7 3.2 1.7 5.8 3.8 8.6 5.9-.5.4-.4.9 0 1.4 1.6-1.6 5.7 3.7 6.9 4.6 1 .7 2.3 2.1 3.4 2.5.5.2 1.8.4 1.9.9.2 1.1.4 1.3 1.2 2 .6.5 1.1 1.3 1.8 1.7.8.5 1.2 0 1.5 1 .4 1.4 1.5 3 2.9 3.6.9.4 1.6.2 1.4 1.2-.2.9.2 1.1.8 1.8.9 1.2 1.8 2.3 2.6 3.6.7 1.1 1.5 2.4 2.7 3.1 1.1.6 1.4 2.5 2 3.7 1.4 2.7 2.5 5.5 3.8 8.2 1.4 2.9 1.8 5.7 3.5 8.5 1.5 2.4 1.7 5.6 3.3 7.9 1.2 1.7 1.6 2 1.7 4.1 0 1.3 1.2 3.1 1.7 4.3.5 1.2.6 2.5 1.2 3.8.6 1.4 1.6 2.6 1.7 4.1.1 2.1 1.2 3.9 2.4 5.6l34.1-22.8 78.2-28.2-3.1-26.2 1.8-2.1z"/>
</g>
<g id="P94" class="small-box pkr">
<path class="st1" d="M812.1 155c-1.8-2.4-2.8-4.8-5.3-6.5-.8-.5-1.6-1.1-2.4-1.6-.6-.4.1-1.1.1-1.6 0-.8-1.1-3.6-1.8-3.6-.5 0-3.1.3-3.3-.1-.5-1.2-.7-1.9-.7-3.1 0-1 1-5.7.3-6.2-2.1-1.6-3.6-3-5.2-5.1-.6-.8-1.6-.5-2.3-1.5-1-1.5-.9-1.3.6-2.5.7-.6-.6-2-1-2.7-.8-1.4.5-1.3-1.3-2.1-.7-.3-2.2-.5-2.8-1-1-.8-2.1-1.6-3.1-2.4-1.7-1.3-3.1-2.8-4.8-4-1.9-1.3-.9-4 0-5.9-1.7 0-2.4.1-3.9-.9-1.3-.9-2.3-.2-3.6.5-1.5.9-1.8.6-3.5.1-.9-.2-3.7-1.6-4.5-1.1-1.5.8-2.7.6-4.4.8-1 .1-2.8 1.5-3.4 1-2.5-2.3-4.3-4.5-7.5-5.5-5.5-1.6-9.1-5.7-12.2-10.3-1.4-2-2.7-5.4-5.1-6-1.6-.4-3.9-1.4-3.9-3.4 0-1.6 0-2.8-.4-4.4-.9 1-2.8.6-4 .4-.5-.1-3.3-1.1-3.7-.7-.7.6-2.7 1.7-2.9 2.6-.4 1.4-.8 2.8-1.1 4.3-.6 2.6-2.8 4.4-4.5 6.5-.9 1.2-1.7 1.5-3 2.2-.2.1.2 1.4.3 1.6.3 1.7-.3 3.1-1.1 4.6-.9 1.8-3.3 2.3-4.5 3.9-1.8 2.3-3.5 4.2-6.1 5.4-1.3.6-2.5 1.1-3.8 1.7-.3.1-1.4.4-1.6.7-.3.4.3 1.5 0 1.9-1 1.2-2.1 2.5-3.1 3.7-1 1.1-.8 1.6-.8 3.2-1-.2-3.8-1.4-4.7-1.1-1 .4-.1 1.3-1.5.9-1.1-.3-2.1-.6-3.2-.9-.4-.1-.9-1.7-1.1-2.1-.2-.4-1.3-.6-1.7-.7-1.1-.4-2.2-.8-3.3-1.3-1-.4-.8-.4-.8-1.5 0-.7-3.4-1.2-4.1-1.4-1.8-.4-3.3-1.2-5-2-2.5-1.2-2.6-.9-2.6-3.6 0-2.3-1.5-1.8-3.3-1.6.4 1.3-.2 1.8-1.2.7-1.2-1.3-2.2-2.7-3.1-4.2-.7-1.1-1.8-2.2-1.8-3.5 0-1.5-.6-2.9-1.1-4.3-.3-1.1-1.5-1.4-1.7-2.7-.2-.9-1.4-2.5-2.3-2.8-.9-.4-2.7-.1-3.7-.1-.7 0-.9.2-1.4.7-.3.3-1.2-.9-1.5-1.1-1.2 1.3-2.4 1.3-3.2-.4-.2-.4.3-.7-.5-1.4-.6-.5-1.7.4-1.3-1.1-.5.5-1 1-1.6 1.5-.7-.8-1.1-1.8-2.2-1.9-1.1-.1-2-1-1.8-2.1-2.1 1.1-1.6-2.5-2.5-2.5-1.4 0-2.5-1.5-3.4-2.4-.2.5-.6 2.1-1.2 2-1.3-.3-1-1.4-1.3-2.7-.2-.8.5-1.7.3-2.3l-.9-3.3c-.1-.4-.3-2.2-.8-2.3-1-.3-1.8-.5-2.6-1-.8-.6-1.9-1-2.2-2-.4-1.4-.7-.9-2.1-.6-1 .2-1.2 0-2.1-.5-.8-.4-2.1-.3-2.9-.5-.5-.1-1.7 1.7-2 2.1-.8.9-1.1.6-2 1.2-1 .6-1.1 1.5-2.2.9-1-.6-1.3.4-1.7 1.3-.7 1.9-3.1 2-4.9 2.6.5.8 1.5 1.7.7 2.5-.3.3 0 .9-.2 1.2-.4.5-.7 1.1-1.2 1.5-.8.7-2.1.9-2.2 2-.3 1.5 1.2 1.1 1.8 1.6 1.3 1 1.2 1.1 1.2 2.8 0 .7-.1 2.7.7 3 1 .4.7 2.2 1.5 2.5.4.1 1.1-.6 1.5-.6.4 0 1 .7 1.3.9-.7.4-1.2 1-.7 1.8.8 1.2 1.1 1.4.7 2.8-.3 1.1.7 1.3.7 2.3 0 1.1-.1 1.9-.3 2.9 2.1-.5.8 3.1 1.9 4.1.7.7 2.4 3.6 1.9 4.5-1 1.6-1.8 3.3-2.8 4.7l2.5 4.1.8 3.3-1.5 2.8v5.1l-1.5 1.5 3.1 26.2 27.3 23.3 21.8 23.4 6.2-.5v1.7l17.9-.5 2.6 1.4-3.1 12.7s-5.3-3.1-5.3 5.3l1.4.5.2 4.1-2.4 7.4-7.2 6.2-1.4-.5-.7 1.7s3.3 5.5-3.1 5.5l-1.9-.6 1.1 2.7 4.3 2.2 1.2 4.6-.3 2.1 1.9 2.1 4.8.9 4.1 6.5 2.7-.7 3.9 1.5 3.4.2s10.9.7 12.7 1.9l2.7-.5 2.9 1.7s.2 1.2.7 1.5c.5.3 5.8-.3 5.8-.3s.9-5 4.6-1.2l-.7 1 .9 5 9.7 3.2 8.7-1 2.2 1.4 6.2-7.2 2.7 3.2h3.6l2.4.5c1.6-2.8 3.4-4.8 3.4-4.8l2.2 3.1 2.9-4.3 3.8-2.9 1.9-3.6 1.7-3.2 2.4-4.3s.7-4.1.9-4.8c.2-.7 2.9-2.4 3.6-2.2.7.2 4.8 3.9 4.8 3.9l1.5.9 2.6 1.7 2.6-.2 2.7 1.9 4.3-1.4c.2-.2.4-.4.5-.6.4-.6.5-1.5.7-2.2.4-1.4-1.2-3.4-1.4-5-.2-2.5 5.6-2.3 6.4-4.2 1.9-3.8 3.8-6.6 7.3-7.3 1.2-.3-.7-2.5-1.3-3.3-1.1-1.5-1.8-1.9-1.9-3.7-.1-1.8 0-2.9-1.1-4.3-1-1.3-1.4-2.9-1.9-4.4-1.1-2.9-1.4-5.6-3.5-8-.9-1-2-1.7-2.1-3.1-.1-1.7 0-3.6-.3-5.3-.3-1.7-2.4-8-.9-8.6 1.5-.7 2.6-.8 3.2-2.4.6-1.7 1.5-2.9 2.6-4.4 1-1.4 1-2.1 1.2-4 .2-2.3.3-3.2 2.3-4.4 1.3-.8 2.5-1.4 3.9-2 1.3-.6 3 .5 4.1-.2 2-1.2 2.6-1.1 2.4-3.4-.2-1.9.2-1.8.9-3.7.7-1.7.6-2.4.4-4.3-.1-1.1-1.2-3.1-.6-4 .8-1.2.5-2.5 1.5-3.5.4-1.2 2.6-2.8 1.4-4.3z"/>
</g>
<g id="P95" class="small-box bn">
<path class="st1" d="M675.3 200.6l-17.9.5v-1.7l-6.2.5-21.8-23.4-27.4-23.4-78.2 28.2-34.1 22.8c.3.5.7 1 1.1 1.5 1.7 2.3 3.3 4.7 4.8 7.1.6.9 2.2 2.4 2.4 3.3.3 1.6.8 2.8 1.9 4.1 1.2 1.4 2.1 1.3 3.8 2.1 1.1.5 1.3 2.3 2.1 3.4 1.6 2.4 4.3 3.2 5.3 6.1 1 2.7 2.9 5.1 4.2 7.6.5.9 2.2 5.3 3.2 5.5.7.1 1.8 1.2 2.5 1.6.3.1 1.4.1 1.5.2.2.2 0 1.4 0 1.7 0 .9 1.9 1.2 2 2.6.1 1.1.5 2.1.8 3.1.5 1.4.6 2.3.6 3.7 0 1 1 2 1.2 3.1.3 1.1.5 2.2.7 3.3.2 1.2 1.1 2 1.9 2.9.7.8 2 .5 2.8.9 1.1.5 2.3.7 3.4 1.2 2 .9 4.1 1.4 6.4 1.5 1.4.1 4.9.7 6.1-.1l1.3-2.6 1-4.3c3.8-2.9 6.2 3.6 6.2 5s1.4 3.1 4.5 3.4c3.1.2.5-4.8-.7-5.5-1.2-.7-1.2-1.9-1.2-1.9s1.4-2.4 1.7-5c.2-2.6 2.4-1.2 4.5-.2 2.2 1 2.6 0 2.9-.7.2-.7 1-2.9 2.4-3.8 1.4-1 .2-1.9-.5-3.3s2.9-1 2.9-1 1.2-1.9 3.1-1.7c1.9.2.7 1.9-1.2 3.1-1.9 1.2 0 3.6 0 3.6 5.3-2.6 3.1 4.1 3.1 4.1l2.4.5v-3.4l1.7-2.2 1.9 2.2 1 2.4c1.9 0 1.4-4.1 1.4-4.1-.7-1.9 3.3.5 3.3.5s1-.5 3.1.5c2.2 1-.7 1.9-.7 1.9l1 2.4 1.2-1.2 2.6 1c3.8-5 6.5-1.4 6.5-1.4l1-1.7 2.2.5.7-1.9 1.9-.2 1.9-.5 2.2-2.2 2.2.7 2.6-1.9 2.6-2.9c3.4-1.4 8.6 1.9 8.6 1.9l4.1-3.4c-.2-3.1-1.4-5 4.3-7.2 5.7-2.2 6 3.1 6 3.1l2.4.1 5 .2 3.1 1 1.9.6c6.5 0 3.1-5.5 3.1-5.5l.7-1.7 1.4.5 7.2-6.2 2.4-7.4-.2-4.1-1.4-.5c0-8.4 5.3-5.3 5.3-5.3l3.1-12.7-2.8-1.5z"/>
</g>
<g id="P96" class="small-box amanah">
<path class="st1" d="M653 299l-.5-10.8-10.8-.5-3.1-1.9 6.9-13.4.5-9.6-2.2-.7.5-17.7 1.9-1.4-2.4-.1s-.2-5.3-6-3.1c-5.7 2.2-4.5 4.1-4.3 7.2l-4.1 3.4s-5.3-3.4-8.6-1.9l-2.6 2.9-2.6 1.9-2.2-.7-2.2 2.2-1.9.5-1.9.2-.7 1.9-2.2-.5-1 1.7s-2.6-3.6-6.5 1.4l-2.6-1-1.2 1.2-1-2.4s2.9-1 .7-1.9c-2.2-1-3.1-.5-3.1-.5s-4.1-2.4-3.3-.5c0 0 .5 4.1-1.4 4.1l-1-2.4-1.9-2.2-1.7 2.2v3.4l-2.4-.5s2.2-6.7-3.1-4.1c0 0-1.9-2.4 0-3.6 1.9-1.2 3.1-2.9 1.2-3.1-1.9-.2-3.1 1.7-3.1 1.7s-3.6-.5-2.9 1c.7 1.4 1.9 2.4.5 3.3-1.4 1-2.2 3.1-2.4 3.8-.2.7-.7 1.7-2.9.7s-4.3-2.4-4.5.2c-.2 2.6-1.7 5-1.7 5s0 1.2 1.2 1.9 3.8 5.7.7 5.5c-3.1-.2-4.5-1.9-4.5-3.4 0-1.4-2.4-7.9-6.2-5l-1 4.3-1.3 2.6.3-.3c.6 1.1 1.1 1.6.4 2.8-.7 1.2-.3 2.2.5 3.1 1 1.1 1.9 1.5 2.4 3 .5 1.4 1.4 1.9 2.6 2.6 1.6.9 3.9 2.6 6.1 2.7.5 0 .2 1.2.7 1.1 1-.2.4.3.9 1.1.3.5.9.7 1 1.1.1.7.4 1.2 1.2 1.1 0 2.5 2.9 4.2 4.1 6.4 1.3 2.5 4.2 4.1 5.1 6.9.5 1.4 1.4 2.7 1.5 4.1.1.9 1.7 2.7 2.6 2.9 2.4.4 1.1 5.9 1 7.6-.2 3 2.6 4.7 2.7 7.7.1 3-.2 6-.1 9 0 1.4 0 2.7.4 4 .4 1-.1 2.9-.1 4.2 0 1-.4 3.4.3 4 .7.7-.4 1-.5 1.5-.1.8.5 1.6.4 2.4v.3c2-.2 4-.4 4.7-.4 1.4 0 3.3 3.1 3.3 3.1l1.9-1.9h7.2v-6.5h12.4v-4.3h13.2s.5-2.6 0-2.6h14.6l.3-.5 2.1-3.8 1-5.7 8.1-11 5.3-3.6 10.5 12.4v-4.6l.2-20.8-13.4-.4z"/>
</g>
<g id="P97" class="small-box pkr">
<path class="st1" d="M750.6 305.3v-3.9l-4.3-.5-2.2-1.7 2.9-5-2.9-3.6 1.9-4.3-1.4-2.4c-.5-2.9.7-6 2-8.4l-2.4-.5h-3.6l-2.7-3.2-6.2 7.2-2.2-1.4-8.7 1-9.7-3.2-.9-5 .7-1c-3.8-3.8-4.6 1.2-4.6 1.2s-5.3.7-5.8.3c-.5-.3-.7-1.5-.7-1.5l-2.9-1.7-2.7.5c-1.7-1.2-12.7-1.9-12.7-1.9l-3.4-.2-3.9-1.5-2.7.7-4.1-6.5-4.8-.9-1.9-2.1.3-2.1-1.2-4.6-4.3-2.2-1.1-2.7-3.1-1-5-.2-1.9 1.4-.5 17.7 2.2.7-.5 9.6-6.9 13.4 3.1 1.9 10.8.5.4 10.8 13.6.2-.2 20.8 4.5 4.3 2.1-1.2 6.5 2.6 1.2-1.7 1.2-.3.7 2.1 1.9-.7 7.4-.2 1.4-6.2 3.4.9.7-5.8-3.1-2.7.2-2.9 6.3 1.5 1.7 2.6 1.2-1.5 2.9 6.5 14.7-6.7 9.4.2 1.4 1.7 3.4-.3-.7 2.1 3.1.7 1.9 2.3.3-.2c1.9-3.5 3.6-3.3 4.9-2.2l.9-4.6 2.7 2.1 1-2.1-2.2-2.1.9-1.4 2.3-1.5z"/>
</g>
<g id="P98" class="small-box pkr">
<path class="st1" d="M828.2 299.7c-1.1-1-1-2.5-2-3.6-1.2-1.5-1.4-1.5-3.3-1.8-1.5-.2-3.8-.1-5.2-.8-1.2-.6-2.3-2.2-3.2-3-.9-.9-2.5-1.9-3.1-3l-2.4-4.8c-.6-1.1-.6-3.1-1.5-4.1-.7-.8-3.4-.8-3.7-1.8-.4-1-.8-3.8-1.8-4-2.9-.6-6 .3-5.5-3.3.3-1.9.8-2.3.2-4.1-.6-1.7-.6-2.3-2.1-3.1-1.8-1-8.1-2.7-7.5-5.6.1-.4.5-1 .9-1.4l-4.3 1.4-2.7-1.9-2.6.2-2.6-1.7-1.5-.9s-4.1-3.8-4.8-3.9c-.7-.2-3.4 1.5-3.6 2.2-.2.7-.9 4.8-.9 4.8l-2.4 4.3-1.7 3.2-1.9 3.6-3.8 2.9-2.9 4.3-2.2-3.1s-1.9 2-3.4 4.8c-1.4 2.4-2.5 5.5-2 8.4l1.4 2.4-1.9 4.3 2.9 3.6-2.9 5 2.2 1.7 4.3.5v3.9l-2.4 1.2-.9 1.4 2.2 2.1-1 2.1-2.7-2.1-.9 4.6c1.5 1.3 2.4 3.7 2.4 3.7l.5 2.7 10.6-.7v2.4h2.2l.2 3.4h3.9l2.2 1.7v-2.7h1.2l.2-1.9s4.3-4.6 5-4.6c.7 0 3.2 1 3.2 1l1.2-1.7 2.1 2.7-2.2 3.3.7 2.7 2.2 3.4.9 2.6c5.5 1.5 3.8 8 3.8 8-1.4 6.3-10.1 2.9-10.1 2.9l.2 2.7.7 3.2 1.5.2v1.4l4.3.7 1.7-1.7-4.1-1.7 2.1-1 3.2-.7L788 335l2.2 1.4 1-6 2.9-2.2 2.7-2.9 2.7.3.9 3.6 2.6-2.9 2.7-2.6 2.1-.5s1.7-3.9 4.1-2.9c.1.1.2.1.3.2l6.8-10-.7-3.8 3.9-1.7 2.1-4.4 3.1.9 1.4-1.4c-.2-.1-.4-.2-.6-.4z"/>
</g>
<g id="P99" class="small-box pkr">
<path class="st1" d="M807.8 323.2l-2.1.5-2.7 2.6-2.6 2.9-.9-3.6-2.7-.3-2.7 2.9-2.9 2.2-1 6-2.2-1.4-3.2 11.6-3.2.7-2.1 1 4.1 1.7-1.7 1.7.8.1-.8 1.6 1.1-.4 2.6 2.1-1.2 5.1 1.9 3.2 3.6-.5 1.4 1.9-1.4 3.6 3.2-.3.7-4.1 4.8.5 1.7 1.7 3.2-4.1 4.8-4.1 1.9-5.3-4.3-12.1 4.8-10.4.2-4.1s3-4.3 1.4-5.6l-1 1.5 1-1.5c-.1-.1-.2-.2-.3-.2-2.5-1-4.2 2.9-4.2 2.9z"/>
</g>
<g id="P100" class="small-box pkr">
<path class="st1" d="M793.8 364.1l-.7 4.1-3.2.3 1.4-3.6-1.4-1.9-3.6.5-1.9-3.2 1.2-5.1-2.6-2.1-1.1.4-1.3 2.7-2.9-.3-.2 3.8-2.1 1.9 1.9 4.4s1.5.9.2 3.9c-1.4 3.1 2.1 4.1 2.1 4.1 2.9-.2 4.1 2.4 4.1 2.4l-1.4 1.4c3.4 3.9-2.6 7-2.6 7l.9 2.2 15.5-15.4 4.1-5.3-1.7-1.7-4.7-.5z"/>
</g>
<g id="P101" class="small-box amanah">
<path class="st1" d="M880.6 404c-.2-1.2-.3-2.6-.8-3.7-.5-1-1.8-2.9-1.8-4 .1-1.8.2-3.5.3-5.3.1-1.3-.6-2.3-1.2-3.4-1.5-3.1-1.9-5.4-2.4-8.8-.1-1.1-2-2.6-1.8-3.5.2-1 2.7-2.7 3.4-3.4.9-.9 1.6-1.9 2.4-2.9 1-1.3.7-2.2.6-3.9-.1-1.6.2-2.6-1-3.7-1.5-1.3-2.4-1.8-2.6-3.7-.4-2.7-2.8-4.7-3.7-7.2-.9-2.5-1.5-6.6-4.1-8 2.4-2.2 4.9-3.7 3.5-7.4-.7-1.8 0-2.4.9-4.2.4-.9-.3-3-.6-3.9-1.1-3.1-2.2-6.1-4.4-8.6-1.2-1.4-2.5-1.1-1.7-3 1-2.3-.1-4.2-1.9-6-.4-.4-2.2-2.7-3-2.5-2 .5-3 .7-5.1.3-2.1-.4-2.2-1-3.3-2.9-.5-.9-3.5.2-4.5.3-1.6.3-2.6.7-4.3.7-1.2 0-2.1-2-3-2.8-.3-.2-1.3-1.4-1.6-1.1-.5.4-1 1-1.6 1-1.4 0-3.3.4-4.5-.3-1.2-.7-2.6-1.3-3.7-2.2l-1.4 1.4-3.1-.9-2.1 4.4-3.9 1.7.7 3.8-6.8 10c1.7 1.3-1.4 5.6-1.4 5.6l-.2 4.1-4.8 10.4 4.3 12.1-1.9 5.3-4.8 4.1-3.2 4.1-4.1 5.3-15.8 15.7 1.5 3.6v1.5l2.4 1.3 1 2.9 5.6.5 2.6 4.3 1.7-1.2.5-4.6 1.9-.9.3-2.6-1.7-2.2 8.9-10.6 2.9.2 1.5-4.8 2.4.3 4.1-2.2 4.8 1.9 1.9 11.5-3.4 12.1 4.6 1-4.1 7.2-6.3 2.7-10.6 8.6 2.2 1.7.7 3.4 2.1-.7 2.6 2.6 3.6-4.8-.5-1.5h2.2l1 1.5 3.9-.9 2.4 4.8 1.5 1.5-5.1 9.1 1 2.1-2.9 5.3v3.4l-2.2-.2-1.2-.9v7l-5.5 1.4-.3 1.9s-7.2 0-6.7.2.2 2.6.2 2.6l.9 4.4 1.5.2-.2 7.9-7.4 2.1-.7 2.2c-2.7-3.7-5.1-4.7-6.8-4.8.2 5.2 2 6.8 2 6.8 4.8 1.6 6.9 4.5 7.9 6.7.8 0 1.7-.1 2.5-.1 6.7-.4 13.2-.1 19.9.2 6 .2 12 1 17.9 1.6.6.1 3-5.3 3.2-6 1.7-3.8 3.4-7.6 5-11.3 2.7-6.1 4.6-12.4 7.8-18.2 2.1-3.8 2.9-7.8 5.3-11.5.9-1.3 2.5-2.4 2.6-4.1.1-2.3.2-4.6.3-6.8 1.2.1 2.4.2 3.6.4.2-2.8.4-5.6.4-8.4 0-1.4 1.4-.2 2.2-1l3.6-3.6c.8-.8 2.6-.2 3.6-.1 1.3.1 2.2-1 3.2-1.7.9-.6.4-6.8.2-7.9z"/>
</g>
<g id="P102" class="small-box dap">
<path class="st1" d="M773.6 398.5l.2 7.3 3.1.7-.2 5.3-4.3.5-1.5 3.1 2.4 2.1 1.2 1.4h-2.6l-1.7 1.3.8 1.2 5.1 5.5s1.9 3.6 2.1 4.1c.2.5.7 2.7 1.2 6 .5 3.2 1 3.4 2.4 6.2 1.4 2.7 1.4 5.3 1.4 5.3s-.9 1.9.7 3.2c1.5 1.4.7 4.1.7 6 0 1.9 1.4 5.8 3.1 6.8 1.7 1 1.9 4.3 1.9 4.3v.2c1.7.1 4.2 1.1 6.8 4.8l.7-2.2 7.4-2.1.2-7.9-1.5-.2-.9-4.4s.3-2.4-.2-2.6c-.5-.2 6.7-.2 6.7-.2l.3-1.9 5.5-1.4v-7l1.2.9 2.2.2v-3.4l2.9-5.3-1-2.1 5.1-9.1-1.5-1.5-2.4-4.8-3.9.9-1-1.5H814l.5 1.5-3.6 4.8-2.6-2.6-2.1.7-.7-3.4-2.2-1.7 10.6-8.6 6.3-2.7 4.1-7.2-4.6-1 3.4-12.1-1.9-11.5-4.8-1.9-4.1 2.2-2.4-.3-1.5 4.8-2.9-.2-8.9 10.6 1.7 2.2-.3 2.6-1.9.9-.5 4.6-1.7 1.2-2.6-4.3-5.6-.5-1-2.9-2.4-1.3v6.1l-8.7.3z"/>
</g>
<g id="P103" class="small-box dap">
<path class="st1" d="M776.6 411.8l.2-5.3-3.1-.7v1.1l-2.7 1.7-1.2-.9-.2-1.8-3.4-6.9h-1.5l-1.9 3.3-1-1.4-2.6 1.5-3.4 1.4-2.2-.3-.8.1 1.6 5-3.9 2.9.1 6.8-2.5.2-2.1-3.1-18.4-6.6 1.5 14h-3.2l-.9 1.7h-1.5l-.7-3.3-7.4-.1-.3-2.2-1.9-2.1.3-3.1 1.1-8.2-3.3-.2-.2 3h-1.7l-.3 5.3-.1.1-1.3 2.4v2.1l-.8 1.9v2.3l.5 1.6-2.2 7-1.4 1.5.8 1.5 2.6-2 58.7-1.5 2-2.2-.5-8.4 1.6-1.6 1.2 1.9 1.7-1.3h2.5l-1.2-1.4-2.4-2.1 1.6-3z"/>
</g>
<g id="P105" class="small-box pkr">
<path class="st1" d="M726.5 371.6l2.1 1.9-1.5 2.6-.9 2.6h-1.7l.2 3.3 1.7 2.7-2.1.7-2.2-1.4-1.2-2.1-3.1.7.3-4.6 1.2-2.7-6.5 1 .2-1.9-2.6-.2 2.2-7.9-11.8-.3-.7 4.1-3.6 6.3-5.8-10.6-9.6-.3v.9l3.9 7.5 5.5 3.3 1.4 3.8 2.9-.2c-.7 1.4.5 8.7.5 8.7l6.3-3.4 4.1.2 3.6-1.4 8 1.2-1.4 2.4H713l1.5 1.9 6.8-1.2 2.1 1.7 2.1-1.2 1.2 1.7 7.7.2 1.9-.6-.8-.6 5.6-3.6.5-1.2 1.5-1.4-1.9-2.2.7-3.6-.5-5.5-3.4.7-1.2-2.9-2.6-1 2.1-3.1-5.3-2.2-2.9.1-1.8 4.5.2 2.6z"/>
</g>
<g id="P107" class="small-box pkr">
<path class="st1" d="M707.5 337.6l-.7-6.8-2.1-.3-1.9-2.2 3.1-.2-.2-2.4h5.6l3.4-1.2 2.2-3.9-5.8-.5-4.8-2.9-2.9-6.5-1.2 1.5-1.7-2.6-6.3-1.5-.2 2.9 3.1 2.7-.7 5.8-3.4-.9-1.4 6.2-7.4.2-1.9.7-.7-2.1-1.2.3-1.2 1.7-6.5-2.6-2.1 1.2-4.5-4.3v4.6l-10.5-12.4-5.3 3.6-8.1 11-1 5.7-2.1 3.8.4.3H654l1.2-.9s3.2 2.7 8.9.9l1.2 2.7s1.2 2.2 3.8 1.9l-.3 2.7h6.8l.5-2.6 6.2-1.2-.2 11.1-2.7 2.6 1.2 3.1.3 8.6 9.6.3 5.8 10.6 3.6-6.3.7-4.1 11.8.3v-.1l.7-8.6v-10.1l1.7-3.8-3.9-4.3-3.4-1.7z"/>
</g>
<g id="P106" class="small-box dap">
<path class="st1" d="M737.8 314.7l-3.1-.7.7-2.1-3.4.3-1.4-1.7-9.4-.2-14.7 6.7 4.8 2.9 5.8.5-2.2 3.9-3.4 1.2h-5.6l.2 2.4-3.1.2 1.9 2.2 2.1.3.7 6.8 3.6 1.9 3.9 4.3-1.7 3.8v10.1l-.7 8.6v.1l-2.2 7.9 2.6.2-.2 1.9 6.5-1-1.2 2.7-.3 4.6 3.1-.7 1.2 2.1 2.2 1.4 2.1-.7-1.7-2.7-.2-3.3h1.7l.9-2.6 1.5-2.6-2.1-1.9-.2-2.6 1.8-4.5h-.5l-.7-4.8-2.1-.2-3.2-6 1.2-7 1-3.1-.2-9.2c2.6-.2 6.3-8.2 6.3-8.2l1.5.3.5-3.6-.3-2.2 3.9-2.2 2.2-.2 1.7-1.3-1.8-2z"/>
</g>
<g id="P108" class="small-box amanah">
<path class="st1" d="M698.5 400.4l2.2-1.9s-1.2-3.4 1.2-3.6l-.2-8.7-6.3 3.4s-1.2-7.4-.5-8.7l-2.9.2-1.4-3.8-5.5-3.3-3.9-7.5v-.9l-.3-8.6-1.2-3.1 2.7-2.6.2-11.1-6.2 1.2-.5 2.6h-6.8l-.3 2.7-9.4-.3-2.7 6.3.5 2.2-.5 7.9-7-.2-.9 6.3-.9 3.8-4.4 1.7-.6-.1.9 6.8 3.4 8.4 3.4 3.8s7.7 0 7.9 3.9l-1.9 1.5-1.9.2s-.7 2.4-2.1 2.7c-1.4.3-4.8.3-4.8.3s.9 1.5 2 2.8c1 1.2 2.2 2.2 3 1.5 1.5-1.4 1.5-3.4 1.5-3.4l1.5-.9 1.2-1.7 1.5 1.9 2.7-.5 3.8 1.2 3.4-1-.7 2.6 5.3 1.2 1-2.1 2.2 5 1.5 1.4.9-3.6 1.4.2s-.2 4.4.5 3.9c.7-.5 1.9-5 1.9-5l3.9.5 1.5-2.7 1.5-.9 1 3.6 2.1-1.7 9.1 1.8c-.7-2.4-2-5.2-3-5.6z"/>
</g>
<g id="P104" class="small-box pkr">
<path class="st1" d="M754.4 408.6l-1.6-5-6.9 1.2-.7-2.2-7.7.2 1.2-2.2 2.7.9v-5l-5.1.9 1.2-5.5-1-.8-1.9.6-7.7-.2-1.2-1.7-2.1 1.2-2.1-1.7-6.8 1.2-1.5-1.9h2.9l1.4-2.4-8-1.2-3.6 1.4-4.1-.2.2 8.7c-2.4.2-1.2 3.6-1.2 3.6l-2.2 1.9c1.1.4 2.3 3.2 3.2 5.6.7 1.9 1.2 3.5 1.2 3.5l2.6.3.5 3.4 3 .5.1-.2.3-5.3h1.7l.2-2.9 3.2.2-1 8.2-.3 3.1 1.9 2.1.3 2.2 7.4.2.7 3.2h1.5l.9-1.7h3.2l-1.5-14 18.5 6.7 2.1 3.1 2.6-.2-.2-6.8 3.7-3z"/>
</g>
<g id="P109" class="small-box pkr">
<path class="st1" d="M665.6 339.3l-1.2-2.7c-5.6 1.9-8.9-.9-8.9-.9l-1.2.9h-14.5l-.4-.3-.3.5h-14.6c.5 0 0 2.6 0 2.6h-13.2v4.3H599v6.5h-7.2l-1.9 1.9s-1.9-3.1-3.3-3.1c-.7 0-2.7.2-4.7.4-.1 1.9.5 4.2.7 6.1.3 2.6.4 4.2 2.1 6.2-.5 0-.8.2-1.2.4 1.1 1.2 1.1 1.7 1.3 3.3.1.7-.3.7 0 1.4.5.9.9 1.8 1.4 2.7.6 1.1.8 2.2 1.6 3.3.3.4 3.2 1.1 3.6.8-.1 2.4 3 5.2 4.4 7 .9 1.2 1.8 2.3 2.8 3.5 1 1.3 2.3 1.8 3.5 2.9.5.4.9.9 1.4 1.3.7.8.1 1.2.4 1.6.4.5 1.4.3 1.6 1 .1.3-.2 1.4-.1 2.1.3 1.7.3 3.2.2 4.9 0 1.6.7 2.7 1.7 3.9-.8-.1-1.6-.5-2.3-.9v7.5c0 2.7-.8 6.6.1 9.1.5 1.4 1 2.7 1.5 4 .7 1.6 1.5 1.6 3.2 1.6 1.4 0 1.9-1.2 3.4-1 .9.2 2.7.9 3.7.4l.4-.4c-.1.2-.3.3-.4.4l-.2.2c1.5 1.3 1.6 2.5 2.2 4l.9-1.1-.3-2.1 1.5-1.5 1.4.3-.5-3.2 4.4-4.1 2.4 1.9 4.8-5-2.6-.9 4.3-3.9 1.2-6.2-1.9-.7s.2-2.6.2-2.1 3.1 1 3.1 1l2.2-2.7-.9-2.2 3.9 2.7.7-1.5-4.4-3.8 1.7-1.4-.3-2.6-9.6-.5-2.2-2.2-2.4.3-5.1-3.4.7-1.4h12.7v-7.7l8.1 1.1.6.1 4.4-1.7.9-3.8.9-6.3 7 .2.5-7.9-.5-2.2 2.7-6.3 9.4.3.3-2.7.3-2.7c-2.6.7-3.8-1.5-3.8-1.5z"/>
</g>
<g id="P110" class="small-box dap">
<path class="st1" d="M608 439.3l4.4-5.8 4.7-3.6.7-3.3-1.9.1-4.2-.1-3.1-.2-4.5-1.1h-1.2l-1.7 1.8-1.9.5-1.4.4-2 1.5-2.5 2.5-1.8.4-3.6 2.9-2.6 3-2.9 2.5-3.6 8.4-2.6 2.5-4.7 10.9-4.3 5.1-1.1 1.5-1.5 1.8 1.8 2.8 3.3.8 5.8-2.5 6.6-5.8 3.2-4 4-.4 3.3 3.7 3.3 2.9h2.9l-.7-2.2-4.4-8.4 3.6-3.3 3.7-1.1 3.6-3.2z"/>
<path class="st1" d="M634.7 380.9v-7.7l8.1 1.1.9 6.8 3.4 8.4 3.4 3.8s7.7-.1 7.9 3.9l-1.9 1.5-1.9.2s-.5 1.9-1.7 2.6c-1 .6-2.8.5-5.1.5l2 2.8-2.7.5-1 3.6-2.7 2.7-1.5 5-3.1-.2-.5 2.1-3.2-.5v1.9l1.5.7.2 2.1-1.4.3-.3 1.4 1.5.7-.2 2.3-1.9-.1-.3 3.2 13.8-.2 4.6 6.6 2.9 8.2-8.9-.5-2.7 1.3-9.8-.3s4.4-3.2 6.8-4.1c0 0 3-1.1-3.3-5.7 0 0-7.9-7.3-10.2 1.7 0 0 1.2 5.1-6.5 9.9 0 0-4.4 2.1-2.6 11.2l-3.6 7s-4.7 1.8-7.8-1.8c0 0-4.1-6.5-3.7-10.9 0 0 2.6-3.5 4-10 0 0 1.9-4.3 6-6.9 0 0 3.5-2.3 4.1-4l1.5-4.8.9-1.1-.3-2.1 1.5-1.5 1.4.3-.5-3.2 4.4-4.1 2.4 1.9 4.9-5-2.6-.8 4.3-3.9 1.2-6.2-1.9-.7.1-1.8 3.1.8 2.2-2.7-.9-2.2 3.9 2.7.7-1.5-3.1-2.7-1.8-1 1.7-1.4-.3-2.6-9.6-.5-2.2-2.2-2.4.3-5.1-3.4.9-1.3 13-.4z"/>
<path class="st2" d="M619.3 426.2l-4.2-1.4-8.6-1.4-3.4-1.1-20.9 10.9-18.9 31.5"/>
</g>
<g id="P111" class="small-box amanah">
<path class="st1" d="M707.4 424l-.5-1.5v-2.4l.9-1.9v-2.1l1.3-2.4-3-.5-.5-3.4-2.6-.3s-.5-1.6-1.2-3.5l-9.1-1.8-2.1 1.7-1-3.6-1.5.9-1.5 2.7-3.9-.5s-1.2 4.4-1.9 5c-.7.5-.5-3.9-.5-3.9l-1.4-.2-.9 3.6-1.5-1.4-2.2-5-1 2.1-5.3-1.2.7-2.6-3.4 1-3.8-1.2-2.7.5-1.5-1.9-1.2 1.7-1.5.9s0 2.1-1.5 3.4c-.7.7-1.9-.3-3-1.5l-2.7.5-1 3.6-2.7 2.7-1.5 5-3.1-.2-.5 2.1-3.2-.5v1.9l1.5.7.2 2.1-1.4.3-.3 1.4 1.5.7-.2 2.2h-1.9l-.3 3.2 13.5-.4 4.6 6.5 3 8.2h1.1-1.1l.5 1.2 24.8-.2 10.8-7.2.9 3.4 5.1-2.9-.7-3.1 6.7-3.8.2.3 1.4-1.5 2.1-6.9z"/>
</g>
<g id="P112" class="small-box pkr">
<path class="st1" d="M704.6 434l-.8-1.5-.2-.3-6.7 3.8.7 3.1-5.1 2.9-.9-3.4-10.8 7.2-24.8.2-.5-1.2-8.6-.3-3.1 1.4s-9.2-.3-9.8-.3c-.5 0 3.9-3.2 6.8-4.3 2.9-1-3.9-6.7-7.4-7.9-3.4-1.2-6.3.7-6.2 5.5.2 4.8-4.6 7-6.8 8.7-2.2 1.7-2.9 6.7-2.4 9.1.5 2.4 0 2.2-2.4 7.2-1.6 3.3-5.3 2.1-7.6.9.5.8 1 1.7 1.6 2.5-1.8 0-2.2-.6-3.5-1.7-1-.8-2.9-1.8-3.5-2.9-.8-1.5-1.6-3-2.4-4.4-.2-.3-3.8.7-2.9 1.8 1.1 1.3 2.1 2.6 3.2 3.9.9 1.1 1.3 3.3 1.9 4.7 1.2 2.9-4.2 3.9-6.2 3-2.6-1.1-3.7-5.4-6.6-6-1.8-.3-3-1.2-3.8.6-.7 1.6-1.4 2.9-2.4 4.4-1.6 2.5-3.9 3.3-6.4 5-.9.6-4.4.6-4.6 1.8-.2 1.8-.6 3.5-1 5.2-.3 1 .3 2.7.5 3.7.2 1.1 0 3.2.6 4.1.9 1.6-1.1 2.9-.2 4.5.9 1.6 1.2 1.5 3 2 3.1.8 10.2 2.8 13.4 2.8 2.6 0 5.8 1.9 8 3.2 1.1.6 2.2 1.3 3.3 1.9 1.1.6 2.4-.1 3.4.8.7.7 2.1 2.8 3.2 2.8 1.5 0 3-.1 4.5.2 2.8.5 5.6 2 8.4 1.8 1.8-.1 3.5-.2 5.3-.3.9 0 2.5 1.4 3.3 1.8-.5.5-2.7 2.1-2.5 2.8.6 1.8 2.3 3.7 3 5.5.4 1.2 2.2.9 3.1 1.6 1.1.8 2 2.3 3 3.3 2.2 2 3.9 3.9 5.5 6.4 1.7 2.7 3.2 5.4 4.5 8.2.3.7.5 1.3.7 2l5.9-11.9 9.9 6-1.5 2.9 5.6 3.8 2.7-2.9 4.6 3.3 5.5-11.5 6.2-.5v-7.5l-14.5-7.9 1.5-2.1 2.7 1.7.7-3.4 2.9 2.7 6.7.2 3.6-3.2 19.5 1.7 1.5-3.1-2.4-2.4.3-2.4-3.4.3-1.2-2.4 1.9-2.4-2.6-1.4-5.3.2-.9-3.4 9.2-7 .3-2.1h3.9l.5 2.1 17.8-.2 2.1 3.9 3.9-2.1-28.4-56.8z"/>
</g>
<g id="P113" class="small-box amanah">
<path class="st1" d="M799.4 482.5c-1-2.2-3.1-5-7.9-6.7 0 0-1.8-1.7-2-6.8v-.2s-.2-3.2-1.9-4.3c-1.7-1-3.1-5-3.1-6.8 0-1.9.9-4.6-.7-6-1.5-1.4-.7-3.2-.7-3.2s0-2.6-1.4-5.3c-1.4-2.7-1.9-2.9-2.4-6.2-.5-3.3-1-5.5-1.2-6-.2-.5-2.1-4.1-2.1-4.1l-5.1-5.5-.8-1.2-1.2-1.9-1.5 1.5.5 8.4-2.1 2.2-58.7 1.5-2.6 2 29 56.7-3.9 2.1-2.1-3.9-17.8.2-.5-2.1h-3.9l-.3 2.1-9.2 7 .9 3.4 5.3-.2 2.6 1.4-1.9 2.4 1.2 2.4 3.4-.3-.3 2.4 2.4 2.4-1.5 3.1-19.5-1.7-3.6 3.2-6.7-.2-2.9-2.7-.7 3.4-2.7-1.7-1.5 2.1 14.5 7.9v7.5l-6.2.5-5.5 11.5-4.6-3.3-2.7 2.9-5.6-3.8 1.5-2.9-9.9-6-5.9 11.9c.2.8.4 1.6.5 2.5.3 1.6 1.3 3.2 1.9 4.7 1.1 2.7 2.9 4.2 4.3 6.7.7 1.3 1.3 1.8 2.2 3 1 1.3 2.5 2.5 3.7 3.7.6.6 1.9 2.5 2.8 2.5 1.6 0 3.2.8 4.7 1.2 1.2.3 2.9.4 4 1.1 1.7 1.2 3.4.4 5.1 1.6.9.6 1.7 1.6 2.8 1.6 1.1 0 4 1.5 4.9 2.1 3.1 1.9 6.2 2.7 9.2 4.6 2.1 1.3 4.8 1.4 6.9 2.3 2.5 1.1 4.5 1.3 11.1 6.6 5.1 4 17.9 3.8 26.7 7.2 4.2 1.6 4.9 3.5 9.1 5.1 2 .8 1.9 1.5 3.7 2.7 1.3.9 2 5 3.1 6.1 1.3 1.4 8.6 1.9 10.3.8.9-.6.4-5.3-.2-6.2-2-2.4-1.6-2.9-.6-4.7.9-1.6 4.5-4.5 6.1-3.6 1.5.8 2.4 2.4 3.9 1.4 1.8-1.2 1.2 0 .5-2-.5-1.5-.9-3-1.2-4.6-.3-2-1-2.5.9-3.1-5.8 1.8 4.3-5.9 3.6-4.7.8-1.3 2.6.5 3.5-.8 1.6-2.3 1.3-2.2-.4-4.4-.9-1.1-.8-2.1-1-3.6-.3-1.9-1.1-3.2.5-4.4 2.6-2 2.6-4.5 4.9-6.8.5-.5 2.7-1 2.6-1.7-.2-1.5 1.7-3.1 1.6-4.6l-1.2-12.3c-.5-5.3-.5-10.6-1-15.9-.6-6.2-1.2-12.2-1.3-18.4-.1-8.3-.1-17.5-1-25.8 5.3.6 10.7 1.1 16.3 1zm-25.3-27.1h-7.8l-.2-.2h-3.4l.1 2.7-.2 4.6h-3l-.2 1.7h-1.2v1.2l1.7.6.3 1.7-.5.9-1.4.6.1 2-1.7.5-.5-.1-1.2-.2-.8.9-.2.9-.2.5-.4 1.7-.7-.1-.3 1.3h-1.7v.8l-.5.1-.5.2-1-.8h-.4v.5l-.2.1.1.5-.2 1.2-1.3-1.9-.2-1.5-2.5 1.9-1.4-2.7-.1-.7.4-.8-.1-.4-.5-.4-1.1-3.8.2-1.3 1.3-1.2.1-.9.3-1.2.3.2.5-.5 1.2-.1.6-.6-.2-1.1v-1l1 .1.3-.9-.1-.5.2-.4-.3-.8.3-.6-.4-.6-.3-.8-.6-.4v-.5l-.5-.3-.1-.6-.4-.8.6-1.7.2-1.5-.8-1.5-1-1.1 1.2-.8 2.5-.1.5-.3.2-1.7-2.3-2-.8-.1-.6-.6-.7-.2-.8-1.6-.2-1.8.8-.8.5-.5.8-.5.3-.4.4-.2h.4l.6-.5 1.2-.4 1 .2.1-.3h1.7l1.1.3.6.3.9-.2 1.7-.6.5-.2 2.4-1.3 1.1-.3 1.8-.2.4-.8.8.1.1-.3.5-.2.2-.3v-1l.6-.1.3.2-.3.3.1.9-.8 1-1.2.9-.9.7-1.1 1.2.1 1.5.8.1.6.6v1.6h2.7v.6l.5-.1.5.3.6-.3.3-.3.3-.5.3.2.4-.1v4l7 .1.8.8v10.8z"/>
</g>
<g id="text">
<text transform="translate(438.177 105.482)" class="st3 st4">
      P92
    </text>
<text transform="translate(506.934 144.413)" class="st3 st4">
      P93
    </text>
<text transform="translate(709.9 181.404)" class="st3 st4">
      P94
    </text>
<text transform="translate(576.471 201)" class="st3 st4">
      P95
    </text>
<text transform="translate(598.029 309.469)" class="st3 st4">
      P96
    </text>
<text transform="translate(680.954 285.417)" class="st3 st4">
      P97
    </text>
<text transform="translate(775.982 292.315)" class="st3 st4">
      P98
    </text>
<text transform="translate(785.803 348.796)" class="st3 st4">
      P99
    </text>
<text transform="translate(764.121 377.868)" class="st3 st4">
      P100
    </text>
<text transform="translate(834.465 388.505)" class="st3 st4">
      P101
    </text>
<text transform="translate(782.75 413.421)" class="st3 st4">
      P102
    </text>
<text transform="translate(731.1 428.22)" class="st3 st4">
      P103
    </text>
<text transform="translate(699.717 381.69)" class="st3 st4">
      P105
    </text>
<text transform="translate(685.548 348.796)" class="st3 st4">
      P107
    </text>
<text transform="translate(713.244 365.407)" class="st3 st4">
      P106
    </text>
<text transform="translate(654.269 381.69)" class="st3 st4">
      P108
    </text>
<text transform="translate(708.617 405.676)" class="st3 st4">
      P104
    </text>
<text transform="translate(603.643 378.067)" class="st3 st4">
      P109
    </text>
<text transform="translate(598.535 439.629)" class="st3 st4">
      P110
    </text>
<text transform="translate(674.982 423.23)" class="st3 st4">
      P111
    </text>
<text transform="translate(650.41 475.48)" class="st3 st4">
      P112
    </text>
<text transform="translate(730.776 530.976)" class="st3 st4">
      P113
    </text>
</g>
</svg>