<svg xmlns="http://www.w3.org/2000/svg" version="1.1" viewbox="0 -20 1240 697" preserveaspectratio="xMidYMid slice" id="svgP">
<g id="P33" class="small-box bn">
<path class="st1" d="M566.5 62.5l-.2-1.1-1.5.3-.4.8.1 1.9-.3 1.4-.1 2.1-.5 1.3.5 3.3.7.1 2.1.5.6-1.2 1.1-1.6.1-1.5-1.9-1.1-.8-1 .2-.6.6-.3.3-.8-.9-.9-.3-1.2zM575 65.6l-.9 1.5-.2 1.1h-.9l-.9-.6-.9 1.6-.6 1.2h-1.3l.3 2.2.4 1.4.6 1.3h1.2l.5-2.1 1.2-.4.7.1 1.5 1.5.5 1.1 1.3-.9 1.2-1.2-.6-2.7.2-1.3.1-1.4-1.2-.9zM550.8 114.3l-3.9-5.4-2.8-3.7-2.1-2.7-.9-1.6-1.3.6-1.8-2.8-1.2-1.3-.7-1.6-1.6-.3-1.6-1.6-2.7-1.2-2.1-1.3-2.8-2.7-2.5-.7-4.5-2.2-1.9.1-6.9 8.4-2.7 2.8-1.5 1.8-3 2.7-4 3.6-1.7 1.3-1.7 1.3-1.9 1.5-2.7 1.9-2.5 4-1.2 2.2-1.9 1.9-.9 1.6-1.3 1.8-1.8.6-2.5 1.2-.2 2.2.9 1.6.3 2.1 1.2 1.5-1 2.5 1.3 2.5-.3 2.5 1.3 1.8v1.9l.9.9v.6l.1 1.8-.6 5.4.6 2.5 1.5 3.9-.3 1.5.9 1.5-.9.7-1.8 2.2-1.3 2.8-1.5.9h-1.8l1.7 3.1 1.6 2.2v3.7l-.3 2.7 1.8 3 .1 2.7.6 2.5.5 2.2-3.6 2.7-1.5.2v3.4l1.9 1.2 1.9 2.4 2.1.4.7 1.3h1.6l.3 1.5 2.8 4 2.1-.1.7 1.3-.1.7h1l4.8 3.1 5-2.6 8.6 3.6-1 2.6 4.8 1 4.3-6.4s4-3.1 5-3.1c.9 0 3.1.7 3.1.7l2.6-.7-2.6-4.5 2.1-3.1.2-5.9 1.7-2.9-.7-1.4 2.4-3.6-2.1-4.5 1-2.6-.2-.5-.8-1.9 2.6-1 1.2-5 4.3-2.4-2.9-3.8.7-1.7 1.9-4.5-1-5.2-17.4-7.1-2.4-10.2-5-12.1 3.8-2.9s1.7-6.2 4-7.6l.5-1.7 4.8.7-.5 1.4 3.8 3.1 2.9-1.7 3.6 1.2 5-.7 2.1 2.1-.7 2.6h3.8l-1-4.3 2.4.9 1-1.7 1.9 2.6 1.6-1.1-1.8-1.8z"/>
</g>
<g id="P34" class="small-box pas">
<path class="st1" d="M636.7 92.7l-.3.7-.6 1.8-.2 1.7.3 1.1-.3 1.7-1 1 .1 1.1.6 1.3.8 1.5.1 1.7v1.6l.5 1.2.4.6.8-1.2 1-1 .2 2.1 1.2.6.3.8.9-1.3.4-.4 1.2-1.2 1.2-1.5.6-.3.9.4.6-1.8-.3-2.1.6-.7.8-.8.8-1 .8-.6-1.4-.3h-1.3l-.7-.8h-2.6l-1.2 1.5-.6 1.2-1 1.5-.2-1.3.5-1.4 1-1.5.3-1.3-.3-.6 1.1-.7-.5-1.1-.6-.7-1-1.4-.5.3-.9.3-.9-1.2zM657.2 193.2l-2.8-2.1-2.2-3-2.1-1.5-2.4-.6-5-3.1-2.1-3.8-2.9-3.1-4.8-5.9h-3.1l-4.2-4.6-3.9 1.8-5.4-1.2-6.9-2.7-4.8-3.3-6.1-5.7-6.1-4.3-2.8-2.7-3.6-3.4-3.3-1.6-.6-1.5-1.3-1-1.3-.4-1.8-.2-.6-2.7-1.9-.3-2.8-2.2-1.8-.1-1.6-2.2-1.5-1.8-3.3-1.3-2.7-2.1-3.4-3.4-3.1-2.2-.1-.9-2.1-3-1.6 1.1-1.9-2.6-1 1.7-2.4-.9 1 4.3h-3.8l.7-2.6-2.1-2.1-5 .7-3.6-1.2-2.9 1.7-3.8-3.1.5-1.4-4.8-.7-.5 1.7c-2.4 1.4-4 7.6-4 7.6l-3.8 2.9 5 12.1 2.4 10.2 17.4 7.1 1 5.2-1.9 4.5-.7 1.7 2.9 3.8-4.3 2.4-1.2 5-2.6 1 .8 1.9 7.3 1.6s1.4 5.7 2.1 5.7c.7 0 5.9 4.8 5.9 4.8l.7 4.8-1.4 5.2 2.4 1.9 4.8-3.1 1.9 1.4-.7 12.8 3.8 1.7 4.8.2 2.4 4.8.5 4.5.5 3.6-.7 3.1v4.8l2.4 1.2 10 7.8 3.6.5 10.5-7.1 4.8-2.4 1.2-2.9 5.7 6.9 1.9-1 3.8.7 1.4 1.7-2.2 1.7 9.3 10 4-3.3 4.3 1.2 3.6-3.3 2.8-2.6-.2-.2-1.6 1.7 1.6-1.7-6.6-6.2-2.4-.2-.5-2.6-5.2-3.8 1.2-3.1-1.4-3.3-4.8-3.3 3.3-4-.2-7.6-1.7-3.1 1.9-3.8-3.6-16.6 2.6-1.4s4 3.1 5.5 4.3c1.4 1.2 4.8 1.4 4.8 1.4 3.3-4.3 4.3 6.7 4.3 6.7l.5 5 1.9 3.3 1.7.7.2-5.2 8.1-1.9 5.5 4.3 2.1.2-.2-9 6.4-.7 2.1 1.2.5-1-2.6-2.9z"/>
</g>
<g id="P35" class="small-box pas">
<path class="st1" d="M657.1 195.5l-6.4.7.2 9-2.1-.2-5.5-4.3-8.1 1.9-.2 5.2-1.7-.7-1.9-3.3-.5-5s-1-10.9-4.3-6.7c0 0-3.3-.2-4.8-1.4-1.4-1.2-5.5-4.3-5.5-4.3l-2.6 1.4 3.6 16.6-1.9 3.8 1.7 3.1.2 7.6-3.3 4 4.8 3.3 1.4 3.3-1.2 3.1 5.2 3.8.5 2.6 2.4.2 6.6 6.2.5-.6.4-.5-1 1 .2.2 3.1-2.9 5-7.6 3.6-5.5 4.3-1.2v-3.1l2.1.5 4.8-3.1 1.4-2.4 2.3 1.5c1.6-2.7 5.6-2.9 5.6-2.9h4.3l1.2-3.8 3.4-.3-1.2-1.3-.1-.1-1.3-1-2.1-3.3.2-1.3-3-4.6-3.3-4.8-2.1-1.5-1.3-.6-1-1-.5 1-2.1-.7z"/>
</g>
<g id="P36" class="small-box pas">
<path class="st1" d="M682.5 230l-4.2-7.9v-1.5l-3.3-5.2-.2-.2-3.4.3-1.2 3.8h-4.3s-4 .3-5.6 2.9c-.5.8-.8 1.9-.6 3.2l1.3 3.4.3.8 3.9 2.7 9.3-.2 2.6 7.4 1-.7.9-1.9 2.9 2.4 1.6-3-.7-1.3.9-.7.9 1.3 1.5-.2-3.6-5.4z"/>
</g>
<g id="P37" class="small-box pas">
<path class="st1" d="M679.2 236.9l-.9 1.9-1 .7-2.6-7.4-9.3.2-3.9-2.7-.3-.8-2.7 2.3-4.8 3.1s-5.9-1.7-6.7.5c-.7 2.1-.2 11.4-.2 11.4l2.1 2.1-.7 1.2 1.7 1.4 1.7 9.5-.7 2.4 6.7 9.5v2.6l5.5 3.1s2.6-3.8 4.8-.7c2.1 3.1 3.1 7.1 3.1 7.1l5.2 6.9 3.1-1.9 4.3 9.3 8.6 7.8.7 5.9 2.5 2.1 1 .3 1 11.4 9.7 2.6 3.3 8.1 2.4-.5 3.6-3.3 3.8 3.6 3.3 4.8 5 .2 4.5-3.3v-2.1l3.1-1.4h.5l-3.1-5.2-8.1-13.8-3.1-8.1-8-12.4-6.3-12.1-7.8-15.5-1.9-4.6-1.9-3-2.5-7-2.5-1.6-.6-3.1-2.5-3.3-.9-1.5-2.2-4.6-1.3-2.6-1.6 3-3.1-2.5z"/>
</g>
<g id="P38" class="small-box bn">
<path class="st1" d="M695.3 314.6l-2.5-2.1-.7-5.9-8.6-7.8-4.3-9.3-3.1 1.9-5.2-6.9s-1-4-3.1-7.1c-2.1-3.1-4.8.7-4.8.7l-5.5-3.1v-2.6l-6.7-9.5.7-2.4-1.7-9.5-1.7-1.4.7-1.2-2.1-2.1s-.5-9.3.2-11.4c.7-2.1 6.7-.5 6.7-.5l4.8-3.1 2.7-2.3-1.3-3.4c-.2-1.4.1-2.4.6-3.2l-2.3-1.5-1.4 2.4-4.8 3.1-2.1-.5v3.1l-4.3 1.2-3.6 5.5-5 7.6-2.9 2.7-2.8 2.6-3.6 3.3-4.3-1.2-4 3.3-9.3-10 1.4-2.4-1.4-1.6-3.8-.7-1.9 1-5.7-6.9-1.2 2.9-4.8 2.4-10.5 7.1-3.6-.5-10-7.8-2.4-1.2v-4.8l.7-3.1-.5-3.6-.5-4.5-2.4-4.8-4.8-.2-3.8-1.7.7-12.8-1.9-1.4-4.8 3.1-2.4-1.9 1.4-5.2-.7-4.8s-5.2-4.8-5.9-4.8c-.7 0-2.1-5.7-2.1-5.7l-7.3-1.6.2.5-1 2.6 2.1 4.5-2.4 3.6.7 1.4-1.7 2.9-.2 5.9-2.1 3.1 2.6 4.5-2.6.7s-2.1-.7-3.1-.7-5 3.1-5 3.1L515 217l-4.8-1 1-2.6-8.6-3.6-5 2.6-4.8-3.1h-1l-.1.8-1.5 1-1-.3-.7 1.8.1 2.5-.1 2.1.4 1.9-1.6 1.8-.7 3-.4 2.2-.4 1.2.4 1.9-.6 1.8 1 2.1-1 2.7.2 4.5-.6 1.9.3 1.8 1.5 1.5.2 4.8-1.2 2.4-.9 1.6.8 1.9 2.4-.2 3.7.6 1.2 2.2 2.4.4h1.2l1.9 1.8 1.6.3.3 1.6 2.1 1.3 1.2 3.1 2.1.7.9-.2 2.8 1.3 1.5.9-.1.9 2.7 2.7.9.9-2.7 2.1.1 2.7-1.2.4-1.5.6-2.4 2.4 1.9 1.5.7 2.2 1 2.1-.9 1.2.3 1.9 1.3 1.5-.4 1.2 1.2.9-1.5 3.6-1.9 1-1.5.1-.1 1.8-.6 1.8 1 1.5.5 1.9 1 .6.9 2.2 1.9 1.2v1.9l-1.2 1.5 1.2 1.6v1.2l-1.5.9.1 2.8-.4 3.2-.3.9-.3 1.8-.6 1.7 6 1.2 2-2 3.2.4 5.2 2 5.6 6 4.8-.4 1.2 2.4 4.8 2.4 6.4 3.2-3.2 6.4 2.4 1.2 4 8-2.8 5.6 2.4 5.2 3.2 3.6 1.2 3.2 4-.8 4 5.2 2.4.8 2.8 2.4 2.8-1.2 2.4 2 2.8-.4 4.8 3.6 3.4-2.2 2.2.4 3.2-.8h4.4l1.3.3.9-5.9.2-7.1 5.5-1.7s2.9-2.4 6.2-3.6c3.3-1.2.2-6.9.2-6.9l.7-6.4-.2-4 4 .5 3.3-1.2c7.6 2.9 10.2-1 10.2-1l2.1.7 1.9-.9 3.6-5.7s5.7 2.4 9.5 2.4 2.1-6.2 2.1-6.2l2.9-1.2 1.4 1.9 4-.2 1.2-1.7 2.4.7c3.3-2.9-.7-12.6-.7-12.6l.5-3.8 3.6 1.9s4.3 3.3 4.3 4.3 2.6 1.9 2.6 1.9l1.4-1.7c5 5.5 10.5.5 10.5.5l2.1 1.4 1.7-2.1-1.2-1.9 1.7-1.9h1.9l5.9-3.6-1.2-3.1 1.2-1.4 2.1-.7 1.1-1.2z"/>
</g>
<g id="P39" class="small-box pas">
<path class="st1" d="M648.8 446.6l4 1.4 3.6 3.3 8.8-5.7 4.5-.2 6.2 7.1 4.5-9.7 5.2-7.4 5.9-3.6 2.6 12.1 9.7-3.6 1.4 1.9 5.2-3.1.2-7.1 2.4-3.6-2.1-6.4 1.7-4.3 2.4-3.3 1.9 1.2 4-3.6 3.6-5 6.2 3.6 3.1-1.2 16.2-1.9 3.2-1.5-2.9-8.1-.5.5-1.9-4.8-.2-2.2h2.7l1 .3.9-1.2-1.2-3.6.4-1.9.6-3.9-1.2-1.6-5.7-13.8.8-6.1 1.7-.9 1.5-.8-2.8-5.2-1-3-2.1-4.2-1.6.7-1.3-3.6-1.5-1.5.7-1.3-2.4-4-.7-1.2h-.5l-3.1 1.4v2.1l-4.5 3.3-5-.2-3.3-4.8-3.8-3.6-3.6 3.3-2.4.5-3.3-8.1-9.7-2.6-1-11.4-1-.3.1.1-1.4 1-2.1.7-1.2 1.4 1.2 3.1-5.9 3.6h-1.9l-1.7 1.9 1.2 1.9-1.7 2.1-2.1-1.4s-5.5 5-10.5-.5l-1.4 1.7s-2.6-1-2.6-1.9c0-.9-4.3-4.3-4.3-4.3l-3.6-1.9-.5 3.8s4 9.7.7 12.6l-2.4-.7-1.2 1.7-4 .2-1.4-1.9-2.9 1.2s1.7 6.2-2.1 6.2-9.5-2.4-9.5-2.4l-3.6 5.7-1.9.9-2.1-.7s-2.6 3.8-10.2 1l-3.3 1.2-4-.5.2 4-.7 6.4s3.1 5.7-.2 6.9a24.2 24.2 0 0 0-6.2 3.6l-5.5 1.7-.2 7.1-.9 5.9 1.1.3 1.2 1.8 2.6 1.4 2.4 3.6 1.8 3.6-1.4 2.4 2 1.6 2.6 3-1.4 1-4.6.8s0 .8 1.2 2.4l1.6 2-.8 2.6-1.4 4-2.4-.8-3.6 1.6-.4 3.4.2 2s2.8 4.4 2 9.6c0 0 .4 2 3.2 2.4 2.8.4 5.2 1.6 4 4.4-1.2 2.8 4 .8 4 .8l2.2.4h7l2 1 2 2.4 1.2.8 2.4-.8-.2-2.8 1.2-1.8h1.6l1.4-1.2 2.4 2 2.8 4.4 2 .4 3.2 4.8s-1.7 3.9 1.1 5.7l2.9-3.4 4.2-4.8z"/>
<path class="st5" d="M789.6 354.7l-2.3 1.3v1.9l-1.3 1.3 1.6 2.9 1.6 1 1.9-.3-.3-2.6 1.6-2.3V356l-2.8-1.3z"/>
</g>
<g id="P40" class="small-box pas">
<path class="st1" d="M762.9 475.5l-2.4-2.5-3.9-6.4-3.5-7.6.2-6.1-.2-3.6-.9-3.1-2-8.3.4-6.3 3.3-4.3 2.5-.4 2.2-2.2-1-3.7.2-2.7-1-2.4-3.6-9.3-.1-.3-3.2 1.5-16.2 1.9-3.1 1.2-6.2-3.6-3.6 5-4 3.6-1.9-1.2-2.4 3.3-1.7 4.3 2.1 6.4-2.4 3.6-.2 7.1-5.2 3.1-1.4-1.9-9.7 3.6-2.6-12.1-5.9 3.6-5.2 7.4-4.5 9.7-6.2-7.1-4.5.2-8.8 5.7-3.6-3.3-4-1.4-4.5 4.8-2.9 3.4c.5.3 1.2.6 2.1.7l-2.1 4.8-3.6 2.4.8 8.8 2.5 2.4s.4 1.1-7.2-.5c0 0-6.4-2.8-8.4 10.8 0 0-.8 4-4.4 1.2 0 0-4.3.9-2.3 8.4 2 7.6-.8 3.2-2.4 6.4-1.6 3.2-.4 9.6-.4 9.6l-.3 8.6-7.2 5.2s5.3 10.4 10.5 10l8-4.4 4.8-1.6 2.4-1.6h2.8l4.8 2.4L653 530l4 2s.4 3.7 6 5.3l4.4.8 4.8 8.4 3.6.4 2 3.6 5.9.9 2.6-2.1 2.4 5 2.4.7 3.6-1.7 3.3 2.6 1.9 4.3 5.9 7.1-1.5 1.9 2.3 4.8 8.4 13.9 2.8-2-.7-2.6-3.4-5.2 4.4-.8 1.9-4 1.9-6.4-.5-3.3-2.1-5.2.7-6.9-.5-5.5-2.4-3-2.4-.6-1-4.2.8-2 .4-6 2-2.2 2.4-.8.2-4 1-1-.8-3.4.8-1-1.8-2.6v-2.8l-1.2-1.4.8-1.6 1.2.8h2.6l3.4 3.2h16.6l2.2-1.6 4 .8 1.4.6.8-2.4-1-1.5-.9-2.4-.5-3.4.2-.9 1-1.3 1.5-3 2.1-.6 1.2-1 .3-3.1 2.1-.1h1.8l-.1-2.8v-2.8l.3-1.8 2.5-2.1.7-2.8.7-1.5-.6-1.3 1.1-2.9z"/>
</g>
<g id="text">
<polyline class="st16" points="552.2,116.4 645,61.2 702.1,129.7 659.7,195.7  "/>
<polyline class="st16" points="607,83.7 594.6,52.1 545.9,52.3 544.7,53.4  "/>
<line class="st16" x1="675.1" y1="215.3" x2="724" y2="215.3"/>
<line class="st16" x1="685.6" y1="234" x2="738.3" y2="234"/>
<line class="st16" x1="737.3" y1="334.7" x2="792.7" y2="334.7"/>
<text transform="translate(493.77 158.94)" class="st3 st4">
        P33
      </text>
<text transform="translate(554.16 178.44)" class="st3 st4">
        P34
      </text>
<text transform="translate(622.13 222.42)" class="st3 st4">
        P35
      </text>
<text transform="translate(711.27 229.34)" class="st3 st4">
        P36
      </text>
<text transform="translate(679.12 281)" class="st3 st4">
        P37
      </text>
<text transform="translate(566.37 298.99)" class="st3 st4">
        P38
      </text>
<text transform="translate(658.38 392.53)" class="st3 st4">
        P39
      </text>
<text transform="translate(676.14 488)" class="st3 st4">
        P40
      </text>
</g>
</svg>